<svg width="16" height="17" viewBox="0 0 16 17" fill="none" xmlns="http://www.w3.org/2000/svg">
<rect x="0.250977" y="1.16187" width="9.26347" height="15.7784" rx="0.94113" fill="#4F2DA7"/>
<path d="M5.39728 14.6199H4.36801C4.14063 14.6199 3.9563 14.8276 3.9563 15.0839C3.9563 15.3402 4.14063 15.548 4.36801 15.548H5.39728C5.62466 15.548 5.80899 15.3402 5.80899 15.0839C5.80899 14.8276 5.62466 14.6199 5.39728 14.6199Z" fill="white"/>
<path d="M15.4295 4.87451H4.52503C4.37387 4.87451 4.2289 4.93566 4.12201 5.04451C4.01513 5.15335 3.95508 5.30097 3.95508 5.4549V9.39888C3.95508 9.5528 4.01512 9.70043 4.12201 9.80927C4.2289 9.91812 4.37387 9.97927 4.52503 9.97927H6.66661V11.7242C6.66661 11.9349 6.92217 12.0394 7.06977 11.8891L8.94528 9.97927H15.4295C15.5043 9.97927 15.5784 9.96426 15.6476 9.93509C15.7167 9.90593 15.7796 9.86318 15.8325 9.80928C15.8854 9.75539 15.9274 9.6914 15.9561 9.62099C15.9847 9.55057 15.9994 9.4751 15.9994 9.39888V5.4549C15.9994 5.30097 15.9394 5.15334 15.8325 5.0445C15.7256 4.93566 15.5806 4.87451 15.4295 4.87451Z" fill="#119A4B"/>
<path d="M14.6695 7.57938L14.4102 7.42697L14.6695 7.27456C14.7305 7.23867 14.775 7.17956 14.7933 7.11023C14.8115 7.04091 14.8019 6.96704 14.7667 6.90489C14.7315 6.84274 14.6734 6.79739 14.6053 6.77882C14.5372 6.76025 14.4647 6.76998 14.4037 6.80587L14.1445 6.95825V6.65345C14.1442 6.58185 14.1161 6.51326 14.0663 6.46272C14.0165 6.41218 13.949 6.38381 13.8787 6.38381C13.8084 6.38381 13.7409 6.41218 13.6911 6.46272C13.6413 6.51326 13.6132 6.58185 13.6129 6.65345V6.95825L13.3537 6.80587C13.2927 6.76998 13.2201 6.76025 13.1521 6.77882C13.084 6.79739 13.0259 6.84274 12.9907 6.90489C12.9554 6.96704 12.9459 7.0409 12.9641 7.11023C12.9824 7.17956 13.0269 7.23867 13.0879 7.27456L13.3472 7.42697L13.0879 7.57938C13.0577 7.59715 13.0312 7.62081 13.01 7.64901C12.9887 7.6772 12.9731 7.70938 12.9641 7.74371C12.9551 7.77803 12.9528 7.81384 12.9573 7.84907C12.9619 7.8843 12.9732 7.91827 12.9907 7.94905C13.0081 7.97982 13.0314 8.0068 13.0591 8.02843C13.0867 8.05006 13.1183 8.06592 13.1521 8.07512C13.1858 8.08431 13.2209 8.08666 13.2555 8.08202C13.2901 8.07738 13.3235 8.06584 13.3537 8.04807L13.6129 7.89569V8.20048C13.6132 8.27209 13.6413 8.34067 13.6911 8.39121C13.7409 8.44175 13.8084 8.47013 13.8787 8.47013C13.949 8.47013 14.0165 8.44175 14.0663 8.39121C14.1161 8.34067 14.1442 8.27209 14.1445 8.20048V7.89569L14.4037 8.04807C14.4339 8.06584 14.4673 8.07738 14.5019 8.08202C14.5365 8.08666 14.5716 8.08431 14.6053 8.07512C14.639 8.06592 14.6706 8.05006 14.6983 8.02843C14.726 8.00679 14.7492 7.97982 14.7667 7.94905C14.7842 7.91827 14.7955 7.8843 14.8 7.84907C14.8046 7.81383 14.8023 7.77803 14.7933 7.74371C14.7842 7.70938 14.7687 7.6772 14.7474 7.64901C14.7262 7.62081 14.6997 7.59715 14.6695 7.57938ZM12.0684 7.57938L11.8091 7.42697L12.0684 7.27456C12.1294 7.23867 12.174 7.17956 12.1922 7.11023C12.2104 7.04091 12.2009 6.96704 12.1656 6.90489C12.1304 6.84274 12.0723 6.79739 12.0043 6.77882C11.9362 6.76025 11.8636 6.76998 11.8026 6.80587L11.5434 6.95825V6.65345C11.5434 6.58168 11.5154 6.51284 11.4656 6.46208C11.4157 6.41133 11.3481 6.38281 11.2776 6.38281C11.2071 6.38281 11.1395 6.41133 11.0897 6.46208C11.0398 6.51284 11.0118 6.58168 11.0118 6.65345V6.95825L10.7526 6.80587C10.6916 6.76998 10.6191 6.76025 10.551 6.77882C10.4829 6.79739 10.4249 6.84274 10.3896 6.90489C10.3544 6.96704 10.3448 7.04091 10.363 7.11023C10.3813 7.17956 10.4258 7.23867 10.4869 7.27456L10.7461 7.42697L10.4869 7.57938C10.4566 7.59715 10.4301 7.62081 10.4089 7.64901C10.3877 7.6772 10.3721 7.70938 10.363 7.74371C10.354 7.77803 10.3517 7.81383 10.3563 7.84907C10.3608 7.8843 10.3722 7.91827 10.3896 7.94905C10.4249 8.0112 10.4829 8.05655 10.551 8.07512C10.5847 8.08431 10.6198 8.08666 10.6544 8.08202C10.689 8.07738 10.7224 8.06584 10.7526 8.04807L11.0118 7.89569V8.20048C11.0118 8.27226 11.0398 8.3411 11.0897 8.39186C11.1395 8.44261 11.2071 8.47112 11.2776 8.47112C11.3481 8.47112 11.4157 8.44261 11.4656 8.39186C11.5154 8.3411 11.5434 8.27226 11.5434 8.20048V7.89569L11.8026 8.04807C11.8328 8.06584 11.8662 8.07738 11.9008 8.08202C11.9354 8.08666 11.9705 8.08431 12.0043 8.07512C12.038 8.06592 12.0696 8.05006 12.0973 8.02843C12.1249 8.00679 12.1482 7.97982 12.1656 7.94905C12.1831 7.91827 12.1944 7.8843 12.199 7.84907C12.2035 7.81383 12.2012 7.77803 12.1922 7.74371C12.1832 7.70938 12.1676 7.6772 12.1463 7.64901C12.1251 7.62081 12.0986 7.59715 12.0684 7.57938H12.0684ZM9.46731 7.57938L9.20806 7.42697L9.46731 7.27456C9.49754 7.25678 9.52402 7.23313 9.54527 7.20493C9.56651 7.17674 9.58209 7.14456 9.59112 7.11023C9.60015 7.0759 9.60245 7.0401 9.59789 7.00487C9.59334 6.96964 9.58201 6.93566 9.56456 6.90489C9.54711 6.87411 9.52387 6.84714 9.49618 6.82551C9.4685 6.80388 9.43689 6.78801 9.40318 6.77882C9.36947 6.76962 9.33432 6.76728 9.29972 6.77192C9.26512 6.77656 9.23175 6.7881 9.20153 6.80587L8.94233 6.95825V6.65345C8.94233 6.58168 8.91433 6.51284 8.86448 6.46208C8.81464 6.41133 8.74704 6.38281 8.67655 6.38281C8.60606 6.38281 8.53846 6.41133 8.48861 6.46208C8.43877 6.51284 8.41077 6.58168 8.41077 6.65345V6.95825L8.15156 6.80587C8.09053 6.76998 8.01799 6.76025 7.94991 6.77882C7.88183 6.79739 7.82378 6.84274 7.78854 6.90489C7.75329 6.96704 7.74374 7.04091 7.76198 7.11023C7.78021 7.17956 7.82475 7.23867 7.88578 7.27456L8.14503 7.42697L7.88578 7.57938C7.85556 7.59715 7.82907 7.62081 7.80783 7.64901C7.78659 7.6772 7.77101 7.70938 7.76198 7.74371C7.75295 7.77803 7.75064 7.81383 7.7552 7.84907C7.75976 7.8843 7.77109 7.91827 7.78854 7.94905C7.82378 8.0112 7.88183 8.05655 7.94991 8.07512C7.98362 8.08431 8.01878 8.08666 8.05338 8.08202C8.08798 8.07738 8.12134 8.06584 8.15156 8.04807L8.41077 7.89569V8.20048C8.41077 8.27226 8.43877 8.3411 8.48861 8.39186C8.53846 8.44261 8.60606 8.47112 8.67655 8.47112C8.74704 8.47112 8.81464 8.44261 8.86448 8.39186C8.91433 8.3411 8.94233 8.27226 8.94233 8.20048V7.89569L9.20153 8.04807C9.23175 8.06584 9.26512 8.07738 9.29972 8.08202C9.33432 8.08666 9.36947 8.08431 9.40318 8.07512C9.43689 8.06592 9.4685 8.05006 9.49618 8.02843C9.52387 8.0068 9.54711 7.97982 9.56456 7.94905C9.58201 7.91827 9.59334 7.8843 9.59789 7.84907C9.60245 7.81384 9.60015 7.77803 9.59112 7.74371C9.58209 7.70938 9.56651 7.6772 9.54527 7.64901C9.52402 7.62081 9.49754 7.59715 9.46731 7.57938ZM6.86624 7.57938L6.60699 7.42697L6.86624 7.27456C6.89646 7.25678 6.92295 7.23313 6.94419 7.20493C6.96544 7.17674 6.98102 7.14456 6.99005 7.11023C6.99908 7.0759 7.00138 7.0401 6.99682 7.00487C6.99226 6.96964 6.98094 6.93567 6.96348 6.90489C6.94603 6.87412 6.9228 6.84714 6.89511 6.82551C6.86742 6.80388 6.83582 6.78801 6.80211 6.77882C6.7684 6.76962 6.73324 6.76728 6.69865 6.77192C6.66405 6.77656 6.63068 6.7881 6.60046 6.80587L6.34126 6.95825V6.65345C6.341 6.58185 6.31288 6.51326 6.26307 6.46272C6.21325 6.41218 6.1458 6.38381 6.07548 6.38381C6.00516 6.38381 5.9377 6.41218 5.88789 6.46272C5.83807 6.51326 5.80996 6.58185 5.8097 6.65345V6.95825L5.55049 6.80587C5.52027 6.7881 5.48691 6.77656 5.45231 6.77192C5.41771 6.76728 5.38255 6.76962 5.34884 6.77882C5.31513 6.78801 5.28353 6.80388 5.25584 6.82551C5.22815 6.84714 5.20492 6.87412 5.18747 6.90489C5.17002 6.93567 5.15869 6.96964 5.15413 7.00487C5.14957 7.0401 5.15188 7.0759 5.16091 7.11023C5.16994 7.14456 5.18552 7.17674 5.20676 7.20493C5.228 7.23313 5.25449 7.25678 5.28471 7.27456L5.54396 7.42697L5.28471 7.57938C5.25449 7.59715 5.228 7.62081 5.20676 7.64901C5.18552 7.6772 5.16994 7.70938 5.16091 7.74371C5.15188 7.77803 5.14957 7.81383 5.15413 7.84907C5.15869 7.8843 5.17002 7.91827 5.18747 7.94905C5.20492 7.97982 5.22815 8.00679 5.25584 8.02843C5.28353 8.05006 5.31513 8.06592 5.34884 8.07512C5.38255 8.08431 5.41771 8.08666 5.45231 8.08202C5.48691 8.07738 5.52027 8.06584 5.55049 8.04807L5.8097 7.89569V8.20048C5.80996 8.27209 5.83807 8.34067 5.88789 8.39121C5.9377 8.44175 6.00516 8.47013 6.07548 8.47013C6.1458 8.47013 6.21325 8.44175 6.26307 8.39121C6.31288 8.34067 6.341 8.27209 6.34126 8.20048V7.89569L6.60046 8.04807C6.63068 8.06584 6.66405 8.07738 6.69865 8.08202C6.73324 8.08666 6.7684 8.08431 6.80211 8.07512C6.83582 8.06592 6.86742 8.05006 6.89511 8.02843C6.9228 8.00679 6.94603 7.97982 6.96348 7.94905C6.98094 7.91827 6.99226 7.8843 6.99682 7.84907C7.00138 7.81383 6.99908 7.77803 6.99005 7.74371C6.98102 7.70938 6.96544 7.6772 6.94419 7.64901C6.92295 7.62081 6.89646 7.59715 6.86624 7.57938Z" fill="white"/>
</svg>
