<svg width="39" height="37" viewBox="0 0 39 37" fill="none" xmlns="http://www.w3.org/2000/svg">
<path d="M21.6741 36.0204H14.9237C14.0427 36.0203 13.1977 35.661 12.5747 35.0215C11.9517 34.3821 11.6017 33.5148 11.6016 32.6105V24.9997C11.6016 24.2762 11.8815 23.5824 12.3799 23.0707C12.8783 22.5591 13.5542 22.2716 14.2591 22.2715H22.3387C22.6878 22.2715 23.0334 22.3421 23.3559 22.4792C23.6783 22.6163 23.9713 22.8172 24.2181 23.0706C24.4649 23.3239 24.6606 23.6247 24.7941 23.9557C24.9277 24.2867 24.9964 24.6414 24.9963 24.9997V32.6105C24.9964 33.0583 24.9105 33.5017 24.7435 33.9155C24.5766 34.3292 24.3319 34.7052 24.0234 35.0218C23.7149 35.3385 23.3486 35.5896 22.9455 35.761C22.5424 35.9323 22.1104 36.0205 21.6741 36.0204V36.0204Z" fill="white"/>
<path d="M21.6741 36.0204H14.9237C14.0427 36.0203 13.1977 35.661 12.5747 35.0215C11.9517 34.3821 11.6017 33.5148 11.6016 32.6105V24.9997C11.6016 24.2762 11.8815 23.5824 12.3799 23.0707C12.8783 22.5591 13.5542 22.2716 14.2591 22.2715H22.3387C22.6878 22.2715 23.0334 22.3421 23.3559 22.4792C23.6783 22.6163 23.9713 22.8172 24.2181 23.0706C24.4649 23.3239 24.6606 23.6247 24.7941 23.9557C24.9277 24.2867 24.9964 24.6414 24.9963 24.9997V32.6105C24.9964 33.0583 24.9105 33.5017 24.7435 33.9155C24.5766 34.3292 24.3319 34.7052 24.0234 35.0218C23.7149 35.3385 23.3486 35.5896 22.9455 35.761C22.5424 35.9323 22.1104 36.0205 21.6741 36.0204V36.0204Z" fill="#675AF6"/>
<path d="M24.362 23.25C24.1151 22.9449 23.8059 22.699 23.4563 22.5299C23.1067 22.3609 22.7252 22.2726 22.3387 22.2715H14.2591C13.5542 22.2716 12.8783 22.5591 12.3799 23.0707C11.8815 23.5824 11.6016 24.2762 11.6016 24.9997V32.6105C11.6029 33.0967 11.706 33.5769 11.9041 34.0185C12.1022 34.4602 12.3905 34.8529 12.7495 35.1701L24.362 23.25Z" fill="#DCDEE6"/>
<path d="M24.362 23.25C24.1151 22.9449 23.8059 22.699 23.4563 22.5299C23.1067 22.3609 22.7252 22.2726 22.3387 22.2715H14.2591C13.5542 22.2716 12.8783 22.5591 12.3799 23.0707C11.8815 23.5824 11.6016 24.2762 11.6016 24.9997V32.6105C11.6029 33.0967 11.706 33.5769 11.9041 34.0185C12.1022 34.4602 12.3905 34.8529 12.7495 35.1701L24.362 23.25Z" fill="#7C71FF"/>
<path d="M21.7824 20.3066H14.819C14.6434 20.3073 14.4752 20.3792 14.351 20.5066C14.2269 20.6341 14.1569 20.8067 14.1562 20.987V22.2689H22.447V20.9899C22.4474 20.9001 22.4305 20.8112 22.3972 20.7282C22.3639 20.6452 22.315 20.5698 22.2532 20.5062C22.1915 20.4427 22.1181 20.3924 22.0372 20.3581C21.9564 20.3239 21.8698 20.3064 21.7824 20.3066Z" fill="white"/>
<path d="M10.4921 2.36826C10.3891 2.52014 10.3244 2.6959 10.3039 2.87975C10.2834 3.06361 10.3078 3.24982 10.3747 3.42165C10.4404 3.594 10.5473 3.74663 10.6855 3.8655C10.8237 3.98436 10.9889 4.06565 11.1657 4.10188C13.6429 4.59116 16.7861 7.20664 18.9533 7.5419C19.3793 5.11833 18.22 1.4791 13.7797 0.111842C13.38 -0.0301009 12.9465 -0.0371143 12.5427 0.0918266C12.1388 0.220767 11.7857 0.478903 11.5349 0.828512L10.4921 2.36826Z" fill="#119A4B"/>
<path d="M13.782 0.114091C13.3825 -0.0280041 12.9491 -0.0352431 12.5453 0.0934314C12.1414 0.222106 11.7882 0.479951 11.5373 0.829304L10.4958 2.36857C10.3518 2.58387 10.2859 2.84415 10.3093 3.10419L10.8954 2.23932C11.1462 1.89069 11.4989 1.63333 11.9022 1.50469C12.3054 1.37606 12.7381 1.38286 13.1373 1.52411C16.6933 2.6188 18.1409 5.17063 18.3596 7.38867C18.5542 7.45336 18.7527 7.50529 18.9537 7.54415C19.3812 5.12058 18.2223 1.48135 13.782 0.114091Z" fill="white"/>
<path opacity="0.9" d="M13.782 0.114091C13.3825 -0.0280041 12.9491 -0.0352431 12.5453 0.0934314C12.1414 0.222106 11.7882 0.479951 11.5373 0.829304L10.4958 2.36857C10.3518 2.58387 10.2859 2.84415 10.3093 3.10419L10.8954 2.23932C11.1462 1.89069 11.4989 1.63333 11.9022 1.50469C12.3054 1.37606 12.7381 1.38286 13.1373 1.52411C16.6933 2.6188 18.1409 5.17063 18.3596 7.38867C18.5542 7.45336 18.7527 7.50529 18.9537 7.54415C19.3812 5.12058 18.2223 1.48135 13.782 0.114091Z" fill="#119A4B"/>
<path d="M14.9461 2.92758C15.0812 2.83621 15.2396 2.78801 15.4014 2.78908C15.5632 2.79015 15.721 2.84043 15.8549 2.93358C15.9889 3.02672 16.0929 3.15854 16.1538 3.31238C16.2148 3.46621 16.2299 3.63514 16.1974 3.79781C16.1648 3.96048 16.086 4.10958 15.9709 4.22627C15.8558 4.34295 15.7095 4.42198 15.5507 4.45335C15.3918 4.48473 15.2274 4.46704 15.0784 4.40253C14.9293 4.33802 14.8022 4.22958 14.7132 4.09093C14.654 3.99884 14.6132 3.89571 14.5929 3.78741C14.5726 3.67911 14.5732 3.56776 14.5949 3.45973C14.6165 3.3517 14.6586 3.2491 14.7189 3.1578C14.7792 3.06649 14.8564 2.98826 14.9461 2.92758V2.92758Z" fill="white"/>
<path d="M28.5153 4.52703C28.6018 4.68941 28.6476 4.87129 28.6487 5.05633C28.6498 5.24137 28.6061 5.4238 28.5215 5.58722C28.4382 5.75147 28.3159 5.89157 28.166 5.99465C28.0161 6.09772 27.8434 6.16046 27.6637 6.17708C25.1487 6.38892 21.7465 8.64 19.5595 8.7328C19.3891 6.2762 20.9256 2.78662 25.4848 1.92029C25.8971 1.82362 26.3287 1.86468 26.7166 2.03747C27.1046 2.21027 27.4286 2.50577 27.6415 2.88088L28.5153 4.52703Z" fill="#119A4B"/>
<path d="M25.4848 1.92029C25.8971 1.82362 26.3287 1.86468 26.7166 2.03747C27.1046 2.21027 27.4286 2.50577 27.6415 2.88088L28.5153 4.52703C28.6358 4.7571 28.674 5.02322 28.6233 5.27917L28.1319 4.356C27.9192 3.98073 27.5952 3.6851 27.2072 3.51228C26.8192 3.33946 26.3875 3.29851 25.9752 3.39542C22.324 4.08731 20.6165 6.46472 20.1659 8.64388C19.9658 8.68677 19.7632 8.71647 19.5595 8.7328C19.3891 6.2762 20.9256 2.78662 25.4848 1.92029Z" fill="white"/>
<path opacity="0.9" d="M25.4848 1.92029C25.8971 1.82362 26.3287 1.86468 26.7166 2.03747C27.1046 2.21027 27.4286 2.50577 27.6415 2.88088L28.5153 4.52703C28.6358 4.7571 28.674 5.02322 28.6233 5.27917L28.1319 4.356C27.9192 3.98073 27.5952 3.6851 27.2072 3.51228C26.8192 3.33946 26.3875 3.29851 25.9752 3.39542C22.324 4.08731 20.6165 6.46472 20.1659 8.64388C19.9658 8.68677 19.7632 8.71647 19.5595 8.7328C19.3891 6.2762 20.9256 2.78662 25.4848 1.92029Z" fill="#119A4B"/>
<path d="M24.028 4.58959C23.9033 4.48357 23.7508 4.4179 23.5897 4.4009C23.4287 4.38389 23.2663 4.4163 23.1232 4.49404C22.9801 4.57178 22.8626 4.69134 22.7857 4.83761C22.7088 4.98388 22.6759 5.15028 22.6911 5.31575C22.7064 5.48123 22.7691 5.63834 22.8713 5.76723C22.9736 5.89611 23.1108 5.99097 23.2655 6.0398C23.4203 6.08862 23.5857 6.08923 23.7408 6.04154C23.8959 5.99385 24.0338 5.90001 24.1369 5.77188C24.2054 5.68691 24.2569 5.58893 24.2885 5.48353C24.3201 5.37813 24.3311 5.26737 24.321 5.15758C24.3109 5.0478 24.2798 4.94113 24.2295 4.84367C24.1793 4.74621 24.1108 4.65988 24.028 4.58959Z" fill="white"/>
<path d="M25.3051 15.6698C25.3363 15.8107 25.3329 15.9575 25.2953 16.0968C25.2578 16.2361 25.1871 16.3637 25.0897 16.4682C24.9929 16.5732 24.872 16.6516 24.738 16.6963C24.6041 16.741 24.4613 16.7504 24.3229 16.7238C22.3891 16.335 19.3675 17.2821 17.7031 16.873C18.0861 14.9899 19.9635 12.7031 23.5688 13.0486C23.8983 13.0662 24.2138 13.1914 24.4693 13.4059C24.7247 13.6204 24.9068 13.913 24.9889 14.2411L25.3051 15.6698Z" fill="#119A4B"/>
<path d="M23.5678 13.0486C23.8974 13.0661 24.2129 13.1913 24.4684 13.4058C24.7239 13.6203 24.9059 13.9129 24.988 14.2411L25.3032 15.6698C25.3461 15.8689 25.3195 16.0772 25.228 16.2582L25.0509 15.4559C24.969 15.1276 24.787 14.8348 24.5315 14.6201C24.2761 14.4054 23.9605 14.2801 23.6308 14.2625C20.7432 13.9865 18.9675 15.3981 18.1765 16.939C18.0175 16.9274 17.8594 16.9053 17.7031 16.873C18.0851 14.9899 19.9626 12.7031 23.5678 13.0486Z" fill="white"/>
<path opacity="0.9" d="M23.5678 13.0486C23.8974 13.0661 24.2129 13.1913 24.4684 13.4058C24.7239 13.6203 24.9059 13.9129 24.988 14.2411L25.3032 15.6698C25.3461 15.8689 25.3195 16.0772 25.228 16.2582L25.0509 15.4559C24.969 15.1276 24.787 14.8348 24.5315 14.6201C24.2761 14.4054 23.9605 14.2801 23.6308 14.2625C20.7432 13.9865 18.9675 15.3981 18.1765 16.939C18.0175 16.9274 17.8594 16.9053 17.7031 16.873C18.0851 14.9899 19.9626 12.7031 23.5678 13.0486Z" fill="#119A4B"/>
<path d="M21.9311 14.7392C21.8594 14.6323 21.7585 14.5496 21.6411 14.5016C21.5236 14.4536 21.3949 14.4424 21.2713 14.4695C21.1477 14.4966 21.0347 14.5607 20.9465 14.6538C20.8584 14.7468 20.7991 14.8646 20.7762 14.9922C20.7533 15.1198 20.7678 15.2515 20.8178 15.3707C20.8678 15.4899 20.9511 15.5911 21.0572 15.6617C21.1633 15.7322 21.2874 15.7689 21.4138 15.7671C21.5402 15.7652 21.6632 15.7249 21.7673 15.6513C21.9068 15.5526 22.0024 15.4011 22.0332 15.23C22.0639 15.059 22.0272 14.8824 21.9311 14.7392V14.7392Z" fill="white"/>
<path d="M11.3904 10.5679C11.3289 10.6977 11.2998 10.841 11.3054 10.9851C11.311 11.1293 11.3512 11.2698 11.4225 11.394C11.4934 11.5192 11.5938 11.6241 11.7145 11.699C11.8352 11.7739 11.9723 11.8164 12.1132 11.8226C14.0829 11.8941 16.8148 13.5234 18.5265 13.5142C18.5706 11.5913 17.2484 8.92595 13.6626 8.4196C13.3375 8.35966 13.0022 8.40785 12.7056 8.55714C12.4091 8.70643 12.1667 8.94903 12.0138 9.24959L11.3904 10.5679Z" fill="#119A4B"/>
<path d="M13.6607 8.4196C13.3356 8.35966 13.0003 8.40785 12.7037 8.55714C12.4072 8.70643 12.1648 8.94903 12.0119 9.24959L11.3884 10.567C11.3023 10.7509 11.2818 10.9601 11.3307 11.1579L11.6815 10.4178C11.834 10.117 12.0762 9.87411 12.3728 9.7247C12.6693 9.57528 13.0047 9.52714 13.3298 9.58732C16.2027 9.99259 17.6195 11.7828 18.0484 13.4676C18.206 13.4942 18.365 13.5104 18.5246 13.5162C18.5687 11.5913 17.2475 8.92595 13.6607 8.4196Z" fill="white"/>
<path opacity="0.9" d="M13.6607 8.4196C13.3356 8.35966 13.0003 8.40785 12.7037 8.55714C12.4072 8.70643 12.1648 8.94903 12.0119 9.24959L11.3884 10.567C11.3023 10.7509 11.2818 10.9601 11.3307 11.1579L11.6815 10.4178C11.834 10.117 12.0762 9.87411 12.3728 9.7247C12.6693 9.57528 13.0047 9.52714 13.3298 9.58732C16.2027 9.99259 17.6195 11.7828 18.0484 13.4676C18.206 13.4942 18.365 13.5104 18.5246 13.5162C18.5687 11.5913 17.2475 8.92595 13.6607 8.4196Z" fill="#119A4B"/>
<path d="M14.8896 10.4477C14.9831 10.3605 15.0998 10.3037 15.2248 10.2845C15.3498 10.2654 15.4776 10.2847 15.5919 10.3401C15.7062 10.3955 15.8019 10.4844 15.867 10.5956C15.9321 10.7068 15.9636 10.8354 15.9575 10.965C15.9514 11.0946 15.908 11.2194 15.8328 11.3237C15.7576 11.428 15.6539 11.507 15.535 11.5508C15.416 11.5947 15.287 11.6013 15.1644 11.5699C15.0418 11.5385 14.931 11.4704 14.846 11.3744C14.7895 11.3106 14.7458 11.2361 14.7173 11.155C14.6889 11.0739 14.6764 10.9878 14.6804 10.9017C14.6845 10.8156 14.705 10.7312 14.7409 10.6533C14.7768 10.5754 14.8273 10.5055 14.8896 10.4477Z" fill="white"/>
<path d="M18.5489 20.307C15.5193 14.0469 21.8256 11.7108 18.9494 7.54102" stroke="#675AF6" stroke-width="0.773443" stroke-linecap="round" stroke-linejoin="round"/>
<path opacity="0.5" d="M21.7824 20.3066H14.819C14.6434 20.3073 14.4752 20.3792 14.351 20.5066C14.2269 20.6341 14.1569 20.8067 14.1562 20.987V22.2689H22.447V20.9899C22.4474 20.9001 22.4305 20.8112 22.3972 20.7282C22.3639 20.6452 22.315 20.5698 22.2532 20.5062C22.1915 20.4427 22.1181 20.3924 22.0372 20.3581C21.9564 20.3239 21.8698 20.3064 21.7824 20.3066Z" fill="#119A4B"/>
<path d="M21.7824 20.3066H14.819C14.6434 20.3073 14.4752 20.3792 14.351 20.5066C14.2269 20.6341 14.1569 20.8067 14.1562 20.987V21.2873H22.447V20.9899C22.4474 20.9001 22.4305 20.8112 22.3972 20.7282C22.3639 20.6452 22.315 20.5698 22.2532 20.5062C22.1915 20.4427 22.1181 20.3924 22.0372 20.3581C21.9564 20.3239 21.8698 20.3064 21.7824 20.3066Z" fill="#119A4B"/>
<path d="M8.93452 13.4439C8.86802 13.2717 8.76088 13.1193 8.62273 13.0001C8.48458 12.881 8.31975 12.799 8.14307 12.7615C7.96638 12.7239 7.78338 12.7321 7.61052 12.7851C7.43765 12.8382 7.28034 12.9345 7.15273 13.0654C5.57577 14.577 3.57722 15.5438 1.43762 15.83C1.26885 15.8459 1.10598 15.9018 0.961927 15.9934C0.817869 16.0851 0.696575 16.2099 0.607651 16.3579C0.518727 16.506 0.464616 16.6733 0.449604 16.8466C0.434592 17.0199 0.45909 17.1943 0.521159 17.3562L1.35289 19.5227C1.44302 19.7579 1.60817 19.9549 1.82139 20.0813C2.03462 20.2078 2.28331 20.2563 2.52687 20.219C4.8355 19.8063 7.02819 18.8801 8.95109 17.5054C9.2987 17.2498 9.55287 16.8821 9.673 16.461C9.79313 16.0398 9.77229 15.5895 9.61382 15.1819L8.93452 13.4439Z" fill="#119A4B"/>
<path d="M6.02757 16.9476C6.02757 17.1138 5.97957 17.2762 5.88963 17.4144C5.7997 17.5526 5.67187 17.6603 5.52231 17.7239C5.37276 17.7874 5.20819 17.8041 5.04942 17.7717C4.89065 17.7392 4.74482 17.6592 4.63035 17.5417C4.51588 17.4242 4.43793 17.2745 4.40635 17.1115C4.37477 16.9485 4.39098 16.7796 4.45293 16.6261C4.51488 16.4726 4.61978 16.3413 4.75438 16.249C4.88898 16.1567 5.04722 16.1074 5.2091 16.1074C5.31662 16.1073 5.4231 16.1289 5.52246 16.1711C5.62182 16.2133 5.7121 16.2752 5.78812 16.3532C5.86415 16.4313 5.92443 16.5239 5.96552 16.6259C6.00661 16.7279 6.02769 16.8372 6.02757 16.9476Z" fill="white"/>
<path d="M29.4829 7.82588C29.3622 7.96344 29.2767 8.12962 29.234 8.3095C29.1914 8.48938 29.1929 8.67732 29.2385 8.85643C29.2841 9.03554 29.3724 9.20022 29.4954 9.33565C29.6183 9.47109 29.7722 9.57305 29.943 9.63237C31.9635 10.4127 33.695 11.823 34.8946 13.6652C34.9833 13.8134 35.1044 13.9384 35.2483 14.0302C35.3923 14.1221 35.555 14.1783 35.7238 14.1943C35.8926 14.2104 36.0626 14.1859 36.2206 14.1228C36.3785 14.0598 36.52 13.9598 36.6338 13.8309L38.1561 12.1045C38.3214 11.9173 38.42 11.6781 38.4358 11.4261C38.4516 11.174 38.3837 10.9238 38.2432 10.7164C36.8598 8.77454 35.0789 7.16718 33.0257 6.00723C32.6483 5.80126 32.2146 5.73093 31.7938 5.80745C31.3729 5.88398 30.9892 6.10296 30.7037 6.42946L29.4829 7.82588Z" fill="#119A4B"/>
<path d="M33.8306 8.94254C33.9757 8.86888 34.1388 8.84104 34.2993 8.86253C34.4598 8.88402 34.6105 8.95388 34.7324 9.06328C34.8542 9.17268 34.9417 9.31671 34.9838 9.47715C35.0259 9.63759 35.0207 9.80724 34.9689 9.96465C34.917 10.1221 34.8209 10.2602 34.6926 10.3615C34.5644 10.4628 34.4097 10.5229 34.2482 10.534C34.0867 10.5451 33.9256 10.5068 33.7853 10.4239C33.645 10.3411 33.5318 10.2174 33.46 10.0685C33.4123 9.96956 33.384 9.86197 33.3768 9.75185C33.3696 9.64173 33.3837 9.53123 33.4181 9.42667C33.4525 9.32212 33.5067 9.22554 33.5774 9.14247C33.6482 9.0594 33.7343 8.99147 33.8306 8.94254V8.94254Z" fill="white"/>
</svg>
