<?xml version="1.0" encoding="UTF-8"?><svg id="Layer_1" xmlns="http://www.w3.org/2000/svg" xmlns:xlink="http://www.w3.org/1999/xlink" viewBox="0 0 40 40"><defs><style>.cls-1{stroke-width:.39px;}.cls-1,.cls-2,.cls-3,.cls-4,.cls-5,.cls-6{stroke-linecap:round;stroke-linejoin:round;}.cls-1,.cls-2,.cls-7,.cls-6{fill:none;}.cls-1,.cls-2,.cls-6{stroke:#b1aaf9;}.cls-8{fill:#119a4b;}.cls-2{font-family:MyriadPro-Regular, 'Myriad Pro';font-size:3.28px;stroke-width:.28px;}.cls-9{clip-path:url(#clippath);}.cls-3{stroke-width:1px;}.cls-3,.cls-4,.cls-5,.cls-10{fill:#fff;stroke:#4f2da7;}.cls-4{stroke-width:1.39px;}.cls-5,.cls-10{stroke-width:.89px;}.cls-11{fill:#b1aaf9;}.cls-6{stroke-width:.28px;}.cls-10{stroke-miterlimit:10;}</style><clipPath id="clippath"><ellipse class="cls-7" cx="24.03" cy="14.68" rx="7.65" ry="7.6"/></clipPath></defs><g><g><rect class="cls-10" x="7.97" y="8.54" width="17.73" height="25.14" rx=".67" ry=".67"/><g><line class="cls-5" x1="9.63" y1="11.8" x2="23.56" y2="11.8"/><line class="cls-5" x1="9.63" y1="13.91" x2="22.02" y2="13.91"/><line class="cls-5" x1="9.63" y1="16.01" x2="18.58" y2="16.01"/><line class="cls-5" x1="9.63" y1="18.12" x2="14.1" y2="18.12"/></g><g><rect class="cls-8" x="10.9" y="24.29" width="2.64" height="7.4" rx=".67" ry=".67"/><rect class="cls-8" x="15.52" y="23.03" width="2.64" height="8.67" rx=".67" ry=".67"/><rect class="cls-8" x="20.13" y="21.11" width="2.64" height="10.59" rx=".67" ry=".67"/></g><circle class="cls-3" cx="24.03" cy="14.68" r="8.35"/><line class="cls-4" x1="30.21" y1="20.89" x2="34.05" y2="24.73"/><g class="cls-9"><g><line class="cls-5" x1="9.63" y1="11.82" x2="23.56" y2="11.82"/><line class="cls-5" x1="9.63" y1="13.91" x2="22.02" y2="13.91"/><line class="cls-5" x1="9.63" y1="16" x2="18.58" y2="16"/><line class="cls-5" x1="9.63" y1="18.1" x2="14.1" y2="18.1"/></g></g><path class="cls-11" d="M25.15,21.38c.98-.44,1.86-1.02,2.58-1.83,.95-1.07,1.54-2.3,1.77-3.72,.19-1.18,.08-2.33-.31-3.46-.69-1.97-2.02-3.36-3.91-4.22-.04-.02-.08-.04-.12-.07,.79,.07,1.51,.34,2.19,.73,2.03,1.16,3.22,2.9,3.46,5.22,.23,2.19-.49,4.08-2.09,5.61-.92,.88-2.01,1.43-3.25,1.69-.1,.02-.2,.02-.3,.03Z"/></g><circle class="cls-6" cx="10.9" cy="21.11" r=".48"/><text class="cls-2" transform="translate(26.19 16.01)"><tspan x="0" y="0">+</tspan></text><polyline class="cls-1" points="20.13 19.14 21.36 19.87 22.5 18 23.5 18.4 24.83 17"/></g><circle class="cls-6" cx="24.03" cy="9.79" r=".48"/></svg>