<svg width="47" height="40" viewBox="0 0 47 40" fill="none" xmlns="http://www.w3.org/2000/svg">
<path fill-rule="evenodd" clip-rule="evenodd" d="M40.2657 18.0788C39.9605 17.6802 39.3926 17.6086 38.9972 17.9189L35.2738 20.8403L34.1361 19.3736C33.8287 18.9773 33.2609 18.909 32.8674 19.221L28.5523 22.6424C28.1584 22.9547 28.0882 23.5296 28.3954 23.9266C28.7026 24.3236 29.2708 24.3922 29.6646 24.08L33.2676 21.2233L34.4025 22.6864C34.7088 23.0812 35.2738 23.1506 35.6675 22.8418L40.1023 19.3621C40.4977 19.0519 40.5708 18.4773 40.2657 18.0788Z" fill="#119A4B"/>
<path d="M40.2959 22.4878L40.8279 17.437L35.745 16.9104L40.2959 22.4878Z" fill="#119A4B"/>
<path d="M24.9764 32.1709L22.9273 29.5454L22.0286 29.9887C21.7769 30.7956 21.288 32.4232 21.3456 32.4778C22.8698 33.3234 24.4012 32.6255 24.9764 32.1709Z" fill="#4F2DA7"/>
<path d="M9.87802 33.7401C8.64137 30.1395 11.28 28.3073 12.7539 27.8413C8.061 27.27 6.80442 30.171 6.71969 32.2712C6.69911 32.7812 7.08633 33.1923 7.58144 33.2894L9.87802 33.7401Z" fill="#4F2DA7"/>
<path d="M11.6044 26.9882C4.64469 27.452 3.7915 32.3415 4.23487 34.7283C3.61175 34.4896 2.26486 33.9714 1.86223 33.8077C1.35895 33.6031 1.323 33.3985 1.323 32.9553C1.89818 27.8543 6.04431 24.6924 8.04548 23.749C5.88853 23.6808 3.83943 21.8737 4.41462 20.1688C5.45714 16.6909 8.47686 17.2705 9.77103 18.2253C11.0652 19.18 11.928 18.9754 13.2581 18.0548C14.3222 17.3183 15.4989 17.5888 15.9543 17.8161C14.2647 20.6462 10.3031 19.8756 9.55534 18.9754C8.62066 17.8502 5.45714 17.8161 5.2055 20.1688C5.00418 22.051 6.8951 22.7943 7.86573 22.9307C14.6961 24.1582 19.1537 17.6456 19.9806 16.8273C20.8074 16.0089 21.0878 15.7089 21.6342 16.0089C27.9253 18.7367 27.9253 26.204 27.9253 25.8971C28.5364 14.9519 18.0393 13.3493 17.7158 13.2812C17.3922 13.213 17.0327 12.9402 17.1765 11.8491C17.2916 10.9762 17.7997 10.8034 18.0393 10.8262C21.3466 11.3035 20.7355 8.43935 24.4023 9.15539C28.0691 9.87143 29.7228 7.21184 29.9025 4.96143C30.7365 7.79832 27.9732 10.0533 26.4874 10.8262C32.1673 16.7591 30.3339 24.3969 29.5071 26.204C28.6802 28.0112 28.7881 30.8753 29.7228 31.9324C30.4705 32.778 30.7054 33.9896 30.7293 34.4896L28.0332 34.1828C27.9082 33.851 27.6303 33.3927 27.2402 32.9719C26.4988 32.1725 25.4295 31.7407 24.6915 30.9382C22.5335 28.5916 22.7719 26.022 23.1441 24.806C22.4826 26.0608 22.6288 28.0794 22.7846 28.9318C22.3173 29.8183 19.5492 29.9547 17.6798 29.6137C15.8105 29.2728 14.4444 27.261 11.6044 26.9882Z" fill="#4F2DA7"/>
<path d="M15.6658 7.28036C17.1326 9.87175 19.9677 9.90585 21.202 9.59897C20.6987 10.0763 19.3902 10.8742 18.1823 10.2468C16.9744 9.61943 16.0014 8.00777 15.6658 7.28036Z" fill="#4F2DA7"/>
</svg>
