<svg width="831" height="695" viewBox="0 0 831 695" fill="none" xmlns="http://www.w3.org/2000/svg">
<path opacity="0.1" d="M5 595L102.5 497.5H162L253.5 406H462L618.5 249.5L700.5 331.5L826.5 205.5" stroke="white" stroke-width="12"/>
<g style="mix-blend-mode:multiply" opacity="0.17">
<path d="M202.538 688.403L33.4143 581.203C30.7403 579.504 28.5921 577.095 27.2099 574.244C25.8278 571.393 25.2664 568.214 25.5884 565.063C25.9105 561.911 27.1034 558.911 29.0336 556.399C30.9638 553.887 33.5551 551.962 36.5174 550.839L499.638 376.858C502.1 375.94 504.74 375.602 507.353 375.871C509.966 376.14 512.482 377.009 514.704 378.41L693.231 491.568C695.903 493.273 698.047 495.688 699.423 498.543C700.8 501.398 701.354 504.58 701.024 507.733C700.693 510.885 699.492 513.883 697.554 516.391C695.616 518.899 693.018 520.818 690.05 521.932L237.387 692.065C231.69 694.186 225.579 694.959 219.533 694.324C213.487 693.688 207.67 691.662 202.538 688.403V688.403Z" fill="black"/>
</g>
<path d="M258.983 658.001L89.8436 550.77C87.1654 549.072 85.0132 546.662 83.6282 543.809C82.2432 540.957 81.6802 537.775 82.0024 534.62C82.3246 531.466 83.5193 528.463 85.4524 525.95C87.3855 523.436 89.9807 521.511 92.9468 520.39L499.636 369.233C502.097 368.315 504.737 367.977 507.351 368.246C509.964 368.515 512.48 369.384 514.702 370.785L693.229 483.943C695.901 485.648 698.045 488.063 699.421 490.918C700.797 493.774 701.352 496.955 701.021 500.108C700.691 503.26 699.49 506.258 697.551 508.766C695.613 511.274 693.015 513.193 690.048 514.307L293.848 661.709C288.143 663.816 282.029 664.578 275.982 663.935C269.934 663.291 264.117 661.261 258.983 658.001V658.001Z" fill="#101828"/>
<path d="M259.093 630.207L89.3944 522.635C86.7561 520.964 84.6365 518.591 83.2742 515.781C81.9118 512.971 81.3609 509.837 81.6835 506.731C82.006 503.625 83.1891 500.671 85.0997 498.201C87.0103 495.731 89.5724 493.844 92.4976 492.751L499.761 341.299C502.186 340.4 504.786 340.072 507.359 340.341C509.932 340.61 512.408 341.469 514.594 342.851L693.68 456.35C696.317 458.023 698.436 460.398 699.797 463.209C701.159 466.02 701.709 469.155 701.387 472.261C701.064 475.367 699.882 478.322 697.972 480.794C696.062 483.265 693.501 485.154 690.576 486.25L293.724 633.838C288.062 635.941 281.991 636.708 275.983 636.078C269.976 635.448 264.195 633.439 259.093 630.207V630.207Z" fill="#9287FA"/>
<path d="M328.015 620.571L113.336 484.496L442.802 362.711L657.481 498.786L328.015 620.571Z" fill="#302A70"/>
<path d="M587.026 424.945L543.675 397.466C543.519 397.355 543.396 397.204 543.318 397.028C543.241 396.853 543.212 396.661 543.234 396.471C543.256 396.281 543.329 396.1 543.444 395.947C543.56 395.795 543.715 395.676 543.892 395.604L549.509 393.54C550.094 393.329 550.719 393.254 551.338 393.321C551.956 393.388 552.551 393.596 553.077 393.928L595.839 421.035C596.031 421.152 596.185 421.321 596.285 421.523C596.385 421.724 596.426 421.95 596.403 422.173C596.38 422.397 596.295 422.61 596.157 422.787C596.019 422.964 595.833 423.099 595.622 423.176L589.85 425.286C589.385 425.45 588.888 425.504 588.398 425.445C587.909 425.386 587.439 425.215 587.026 424.945V424.945Z" fill="#101828"/>
<path d="M207.188 555.548C207.188 560.358 198.748 564.268 188.352 564.268C177.956 564.268 169.516 560.358 169.516 555.548C169.516 550.738 177.941 546.812 188.352 546.812C198.763 546.812 207.188 550.769 207.188 555.548Z" fill="white"/>
<path opacity="0.4" d="M184.5 515.145L226.297 524.081L254.504 530.593L248.069 501.305L236.077 510.328L184.5 515.145Z" fill="#1E0167"/>
<path d="M518.195 378.447L485.728 359.587L485.484 165.336L517.952 184.196L518.195 378.447Z" fill="#302A70"/>
<path d="M517.948 184.192L485.48 165.333L523.31 143.5L555.777 162.36L517.948 184.192Z" fill="#F5F4FF"/>
<path d="M528.141 146.273V178.291L555.782 162.355L528.141 146.273Z" fill="#CED1FF"/>
<path d="M555.779 162.359L556.023 356.61L518.193 378.443L517.949 184.192L555.779 162.359Z" fill="#9287FA"/>
<path d="M474.221 403.786L441.754 384.926L441.656 219.281L474.123 238.141L474.221 403.786Z" fill="#302A70"/>
<path d="M474.123 238.138L441.656 219.278L479.486 197.445L511.953 216.305L474.123 238.138Z" fill="#F5F4FF"/>
<path opacity="0.95" d="M511.955 216.312L512.052 381.957L474.223 403.79L474.125 238.145L511.955 216.312Z" fill="#9287FA"/>
<path d="M430.249 429.18L398.318 410.321L397.879 268.945L430.346 287.805L430.249 429.18Z" fill="#302A70"/>
<path d="M435.709 247.055L468.176 265.914L430.346 287.796L397.879 268.936L435.709 247.055Z" fill="#F5F4FF"/>
<path opacity="0.95" d="M468.177 265.922L468.128 407.297L430.25 429.178L430.348 287.803L468.177 265.922Z" fill="#9287FA"/>
<path d="M386.327 454.516L353.859 435.656L354.006 317.039L386.473 335.899L386.327 454.516Z" fill="#302A70"/>
<path d="M386.471 335.895L354.004 317.036L391.882 295.203L424.35 314.063L386.471 335.895Z" fill="#F5F4FF"/>
<path opacity="0.95" d="M424.353 314.062L424.207 432.679L386.328 454.512L386.474 335.895L424.353 314.062Z" fill="#9287FA"/>
<path d="M342.402 479.869L309.935 461.01L309.594 366.516L342.061 385.375L342.402 479.869Z" fill="#302A70"/>
<path d="M342.061 385.372L309.594 366.512L347.472 344.68L379.939 363.539L342.061 385.372Z" fill="#F5F4FF"/>
<path opacity="0.95" d="M379.941 363.539L380.233 458.033L342.404 479.865L342.062 385.372L379.941 363.539Z" fill="#9287FA"/>
<path d="M298.432 505.25L265.965 486.39V413.875L298.432 432.735V505.25Z" fill="#302A70"/>
<path d="M298.432 432.731L265.965 413.872L303.843 392.039L336.31 410.899L298.432 432.731Z" fill="#F5F4FF"/>
<path opacity="0.95" d="M336.312 410.898V483.365L298.434 505.246V432.731L336.312 410.898Z" fill="#9287FA"/>
<path d="M254.506 530.579L222.039 511.719L222.137 461.719L254.604 480.579L254.506 530.579Z" fill="#302A70"/>
<path d="M254.6 480.585L222.133 461.725L260.011 439.844L292.478 458.704L254.6 480.585Z" fill="#F5F4FF"/>
<path opacity="0.95" d="M292.484 458.703L292.386 508.752L254.508 530.585L254.605 480.584L292.484 458.703Z" fill="#9287FA"/>
<path d="M552.296 242.248L533.332 231.234L534.697 231.965L553.661 243.028L552.296 242.248Z" fill="#5133C3"/>
<path d="M477.268 346.73L458.305 335.668L481.802 294.391L500.766 305.404L477.268 346.73Z" fill="#101828"/>
<path d="M500.768 305.414L481.805 294.4L504.62 281.242L523.583 292.256L500.768 305.414Z" fill="#344054"/>
<path d="M427.839 397.757L408.875 386.743L428.472 352.922L447.436 363.936L427.839 397.757Z" fill="#101828"/>
<path d="M447.432 363.945L428.469 352.931L458.303 335.68L477.267 346.742L447.432 363.945Z" fill="#344054"/>
<path d="M395.026 416.664L376.062 405.651L408.871 386.742L427.835 397.756L395.026 416.664Z" fill="#344054"/>
<path d="M381.034 440.89L362.07 429.877L376.061 405.656L395.025 416.67L381.034 440.89Z" fill="#101828"/>
<path d="M319.223 515.012L300.26 503.999L298.895 503.219L317.858 514.232L319.223 515.012Z" fill="#482DAD"/>
<path d="M317.858 514.232L298.895 503.219L330.825 447.906L349.789 458.92L317.858 514.232Z" fill="#101828"/>
<path d="M553.002 242.5L553.661 243.03L524.411 294.005L501.548 307.163L478.05 348.44L448.216 365.643L428.618 399.512L395.859 418.421L381.819 442.641L350.57 460.673L319.224 515.01L317.859 514.231L349.79 458.918L381.039 440.887L395.03 416.667L427.838 397.758L447.436 363.937L477.27 346.734L500.768 305.408L523.583 292.25L553.002 242.5Z" fill="#1E0167"/>
<path d="M349.788 458.92L330.824 447.906L362.073 429.875L381.036 440.889L349.788 458.92Z" fill="#344054"/>
<path d="M658.564 0L579.564 48.5L596.5 55.5L504.617 281.237L523.581 292.251L649.769 81.3869L665.564 90.5L658.564 0Z" fill="#101828"/>
<path d="M377.049 550.784C406.347 550.784 430.098 539.412 430.098 525.384C430.098 511.356 406.347 499.984 377.049 499.984C347.751 499.984 324 511.356 324 525.384C324 539.412 347.751 550.784 377.049 550.784Z" fill="#101828"/>
<path d="M388.557 543.752C417.855 543.752 441.606 532.381 441.606 518.353C441.606 504.325 417.855 492.953 388.557 492.953C359.259 492.953 335.508 504.325 335.508 518.353C335.508 532.381 359.259 543.752 388.557 543.752Z" fill="#FFA340"/>
<path d="M441.606 507.984H335.508V520.428H441.606V507.984Z" fill="#FFA340"/>
<path d="M388.557 534.299C417.855 534.299 441.606 522.927 441.606 508.9C441.606 494.872 417.855 483.5 388.557 483.5C359.259 483.5 335.508 494.872 335.508 508.9C335.508 522.927 359.259 534.299 388.557 534.299Z" fill="#FFBD00"/>
<path d="M388.563 528.452C411.863 528.452 430.751 519.699 430.751 508.902C430.751 498.104 411.863 489.352 388.563 489.352C365.263 489.352 346.375 498.104 346.375 508.902C346.375 519.699 365.263 528.452 388.563 528.452Z" fill="#FFE066"/>
<path d="M376.422 510.676L369.828 507.2L374.995 504.516L381.589 508.007C383.381 508.827 385.328 509.252 387.299 509.252C389.27 509.252 391.217 508.827 393.009 508.007C396.112 506.347 396.252 503.663 393.133 502.018L386.229 498.341L391.395 495.656L398.3 499.334C404.212 502.437 404.103 507.557 398.067 510.691C394.669 512.238 390.977 513.037 387.243 513.035C383.509 513.032 379.819 512.228 376.422 510.676V510.676Z" fill="#FFA340"/>
<path d="M401.382 515.143L377.859 502.669L383.026 499.984L406.548 512.459L401.382 515.143Z" fill="#FFA340"/>
<path d="M409.741 510.8L386.219 498.325L391.401 495.641L414.908 508.115L409.741 510.8Z" fill="#FFA340"/>
<path d="M374.742 522.168L377.038 507.459L369.839 507.195L368.055 518.615L374.742 522.168Z" fill="#FFA340"/>
<path d="M501.698 471.706C530.996 471.706 554.747 460.334 554.747 446.306C554.747 432.278 530.996 420.906 501.698 420.906C472.399 420.906 448.648 432.278 448.648 446.306C448.648 460.334 472.399 471.706 501.698 471.706Z" fill="#101828"/>
<path d="M508.432 464.69C537.73 464.69 561.481 453.318 561.481 439.29C561.481 425.262 537.73 413.891 508.432 413.891C479.134 413.891 455.383 425.262 455.383 439.29C455.383 453.318 479.134 464.69 508.432 464.69Z" fill="#FFA340"/>
<path d="M561.481 428.93H455.383V441.373H561.481V428.93Z" fill="#FFA340"/>
<path d="M508.432 455.245C537.73 455.245 561.481 443.873 561.481 429.845C561.481 415.817 537.73 404.445 508.432 404.445C479.134 404.445 455.383 415.817 455.383 429.845C455.383 443.873 479.134 455.245 508.432 455.245Z" fill="#FFBD00"/>
<path d="M508.43 449.397C531.73 449.397 550.618 440.644 550.618 429.847C550.618 419.05 531.73 410.297 508.43 410.297C485.13 410.297 466.242 419.05 466.242 429.847C466.242 440.644 485.13 449.397 508.43 449.397Z" fill="#FFE066"/>
<path d="M496.297 431.613L489.703 428.184L494.87 425.5L501.464 429.006C503.258 429.82 505.205 430.241 507.174 430.241C509.144 430.241 511.09 429.82 512.884 429.006C516.08 427.346 516.127 424.662 513.008 423.002L506.104 419.262L511.27 416.578L518.175 420.24C524.087 423.343 523.978 428.463 517.942 431.598C514.546 433.149 510.856 433.954 507.122 433.957C503.387 433.959 499.696 433.16 496.297 431.613V431.613Z" fill="#FFA340"/>
<path d="M521.264 436.081L497.742 423.606L502.909 420.922L526.431 433.397L521.264 436.081Z" fill="#FFA340"/>
<path d="M529.624 431.737L506.102 419.262L511.268 416.578L534.791 429.053L529.624 431.737Z" fill="#FFA340"/>
<path d="M494.625 443.113L496.921 428.404L489.722 428.125L487.938 439.56L494.625 443.113Z" fill="#FFA340"/>
<path d="M508.432 446.713C537.73 446.713 561.481 435.342 561.481 421.314C561.481 407.286 537.73 395.914 508.432 395.914C479.134 395.914 455.383 407.286 455.383 421.314C455.383 435.342 479.134 446.713 508.432 446.713Z" fill="#FFA340"/>
<path d="M561.481 410.953H455.383V423.397H561.481V410.953Z" fill="#FFA340"/>
<path d="M508.432 437.268C537.73 437.268 561.481 425.896 561.481 411.868C561.481 397.841 537.73 386.469 508.432 386.469C479.134 386.469 455.383 397.841 455.383 411.868C455.383 425.896 479.134 437.268 508.432 437.268Z" fill="#FFBD00"/>
<path d="M508.43 431.413C531.73 431.413 550.618 422.66 550.618 411.863C550.618 401.065 531.73 392.312 508.43 392.312C485.13 392.312 466.242 401.065 466.242 411.863C466.242 422.66 485.13 431.413 508.43 431.413Z" fill="#FFE066"/>
<path d="M496.297 413.629L489.703 410.122L494.87 407.438L501.464 410.945C503.257 411.761 505.204 412.183 507.174 412.183C509.144 412.183 511.091 411.761 512.884 410.945C516.08 409.3 516.127 406.6 513.008 404.955L506.104 401.278L511.27 398.594L518.175 402.256C524.087 405.359 523.978 410.479 517.942 413.613C514.545 415.161 510.855 415.963 507.122 415.966C503.388 415.969 499.697 415.172 496.297 413.629V413.629Z" fill="#FFA340"/>
<path d="M521.264 418.097L497.742 405.606L502.909 402.938L526.431 415.397L521.264 418.097Z" fill="#FFA340"/>
<path d="M529.624 413.753L506.102 401.278L511.268 398.594L534.791 411.069L529.624 413.753Z" fill="#FFA340"/>
<path d="M494.625 425.114L496.921 410.404L489.722 410.141L487.938 421.576L494.625 425.114Z" fill="#FFA340"/>
<path d="M508.432 428.713C537.73 428.713 561.481 417.342 561.481 403.314C561.481 389.286 537.73 377.914 508.432 377.914C479.134 377.914 455.383 389.286 455.383 403.314C455.383 417.342 479.134 428.713 508.432 428.713Z" fill="#FFA340"/>
<path d="M561.481 392.953H455.383V405.397H561.481V392.953Z" fill="#FFA340"/>
<path d="M508.432 419.268C537.73 419.268 561.481 407.896 561.481 393.868C561.481 379.841 537.73 368.469 508.432 368.469C479.134 368.469 455.383 379.841 455.383 393.868C455.383 407.896 479.134 419.268 508.432 419.268Z" fill="#FFBD00"/>
<path d="M508.43 413.413C531.73 413.413 550.618 404.66 550.618 393.863C550.618 383.065 531.73 374.312 508.43 374.312C485.13 374.312 466.242 383.065 466.242 393.863C466.242 404.66 485.13 413.413 508.43 413.413Z" fill="#FFE066"/>
<path d="M496.297 395.598L489.703 392.107L494.87 389.422L501.464 392.913C503.256 393.734 505.203 394.158 507.174 394.158C509.145 394.158 511.092 393.734 512.884 392.913C516.08 391.253 516.127 388.569 513.008 386.924L506.104 383.278L511.27 380.594L518.175 384.271C524.087 387.374 523.978 392.494 517.942 395.629C514.542 397.173 510.851 397.97 507.116 397.964C503.382 397.959 499.693 397.152 496.297 395.598V395.598Z" fill="#FFA340"/>
<path d="M521.264 400.097L497.742 387.622L502.909 384.938L526.431 397.412L521.264 400.097Z" fill="#FFA340"/>
<path d="M529.624 395.753L506.102 383.278L511.268 380.594L534.791 393.069L529.624 395.753Z" fill="#FFA340"/>
<path d="M494.625 407.129L496.921 392.42L489.722 392.156L487.938 403.576L494.625 407.129Z" fill="#FFA340"/>
<path d="M508.432 410.729C537.73 410.729 561.481 399.357 561.481 385.329C561.481 371.302 537.73 359.93 508.432 359.93C479.134 359.93 455.383 371.302 455.383 385.329C455.383 399.357 479.134 410.729 508.432 410.729Z" fill="#FFA340"/>
<path d="M561.481 374.969H455.383V387.413H561.481V374.969Z" fill="#FFA340"/>
<path d="M508.432 401.284C537.73 401.284 561.481 389.912 561.481 375.884C561.481 361.856 537.73 350.484 508.432 350.484C479.134 350.484 455.383 361.856 455.383 375.884C455.383 389.912 479.134 401.284 508.432 401.284Z" fill="#FFBD00"/>
<path d="M508.43 395.428C531.73 395.428 550.618 386.675 550.618 375.878C550.618 365.081 531.73 356.328 508.43 356.328C485.13 356.328 466.242 365.081 466.242 375.878C466.242 386.675 485.13 395.428 508.43 395.428Z" fill="#FFE066"/>
<path d="M496.297 377.652L489.703 374.146L494.87 371.461L501.449 374.968C503.242 375.781 505.189 376.202 507.159 376.202C509.128 376.202 511.075 375.781 512.868 374.968C516.065 373.308 516.111 370.623 512.993 368.963L506.104 365.301L511.27 362.617L518.175 366.279C524.087 369.382 523.978 374.502 517.942 377.637C514.546 379.189 510.856 379.993 507.122 379.996C503.387 379.998 499.696 379.199 496.297 377.652V377.652Z" fill="#FFA340"/>
<path d="M521.264 382.12L497.742 369.645L502.909 366.961L526.431 379.436L521.264 382.12Z" fill="#FFA340"/>
<path d="M529.624 377.776L506.102 365.301L511.268 362.617L534.791 375.092L529.624 377.776Z" fill="#FFA340"/>
<path d="M494.625 389.145L496.921 374.436L489.722 374.172L487.938 385.592L494.625 389.145Z" fill="#FFA340"/>
<path d="M508.432 392.752C537.73 392.752 561.481 381.381 561.481 367.353C561.481 353.325 537.73 341.953 508.432 341.953C479.134 341.953 455.383 353.325 455.383 367.353C455.383 381.381 479.134 392.752 508.432 392.752Z" fill="#FFA340"/>
<path d="M561.481 356.984H455.383V369.428H561.481V356.984Z" fill="#FFA340"/>
<path d="M508.432 383.299C537.73 383.299 561.481 371.927 561.481 357.9C561.481 343.872 537.73 332.5 508.432 332.5C479.134 332.5 455.383 343.872 455.383 357.9C455.383 371.927 479.134 383.299 508.432 383.299Z" fill="#FFBD00"/>
<path d="M508.43 377.444C531.73 377.444 550.618 368.691 550.618 357.894C550.618 347.097 531.73 338.344 508.43 338.344C485.13 338.344 466.242 347.097 466.242 357.894C466.242 368.691 485.13 377.444 508.43 377.444Z" fill="#FFE066"/>
<path d="M496.297 359.668L489.703 356.161L494.87 353.477L501.464 356.984C503.257 357.8 505.204 358.222 507.174 358.222C509.144 358.222 511.091 357.8 512.884 356.984C516.08 355.339 516.127 352.639 513.008 350.994L506.104 347.317L511.27 344.633L518.175 348.295C524.087 351.398 523.978 356.518 517.942 359.652C514.545 361.2 510.855 362.002 507.122 362.005C503.388 362.008 499.697 361.211 496.297 359.668V359.668Z" fill="#FFA340"/>
<path d="M521.264 364.136L497.742 351.661L502.909 348.961L526.431 361.451L521.264 364.136Z" fill="#FFA340"/>
<path d="M529.624 359.792L506.102 347.317L511.268 344.633L534.791 357.108L529.624 359.792Z" fill="#FFA340"/>
<path d="M494.625 371.145L496.921 356.436L489.722 356.172L487.938 367.607L494.625 371.145Z" fill="#FFA340"/>
<path d="M508.432 374.752C537.73 374.752 561.481 363.381 561.481 349.353C561.481 335.325 537.73 323.953 508.432 323.953C479.134 323.953 455.383 335.325 455.383 349.353C455.383 363.381 479.134 374.752 508.432 374.752Z" fill="#FFA340"/>
<path d="M561.481 338.984H455.383V351.428H561.481V338.984Z" fill="#FFA340"/>
<path d="M508.432 365.299C537.73 365.299 561.481 353.928 561.481 339.9C561.481 325.872 537.73 314.5 508.432 314.5C479.134 314.5 455.383 325.872 455.383 339.9C455.383 353.928 479.134 365.299 508.432 365.299Z" fill="#FFBD00"/>
<path d="M508.43 359.452C531.73 359.452 550.618 350.699 550.618 339.902C550.618 329.104 531.73 320.352 508.43 320.352C485.13 320.352 466.242 329.104 466.242 339.902C466.242 350.699 485.13 359.452 508.43 359.452Z" fill="#FFE066"/>
<path d="M496.297 341.668L489.703 338.192L494.87 335.508L501.464 338.999C503.256 339.819 505.203 340.244 507.174 340.244C509.145 340.244 511.092 339.819 512.884 338.999C516.08 337.339 516.127 334.655 513.008 333.01L506.104 329.317L511.27 326.633L518.175 330.31C524.087 333.413 523.978 338.534 517.942 341.668C514.545 343.217 510.854 344.019 507.12 344.019C503.386 344.019 499.695 343.217 496.297 341.668V341.668Z" fill="#FFA340"/>
<path d="M521.264 346.143L497.742 333.669L502.909 330.984L526.431 343.459L521.264 346.143Z" fill="#FFA340"/>
<path d="M529.624 341.792L506.102 329.317L511.268 326.633L534.791 339.108L529.624 341.792Z" fill="#FFA340"/>
<path d="M494.625 353.168L496.921 338.459L489.722 338.195L487.938 349.615L494.625 353.168Z" fill="#FFA340"/>
<path d="M491.737 556.19C521.035 556.19 544.786 544.818 544.786 530.79C544.786 516.762 521.035 505.391 491.737 505.391C462.438 505.391 438.688 516.762 438.688 530.79C438.688 544.818 462.438 556.19 491.737 556.19Z" fill="#101828"/>
<path d="M498.471 549.166C527.769 549.166 551.52 537.795 551.52 523.767C551.52 509.739 527.769 498.367 498.471 498.367C469.173 498.367 445.422 509.739 445.422 523.767C445.422 537.795 469.173 549.166 498.471 549.166Z" fill="#FFA340"/>
<path d="M551.52 513.398H445.422V525.842H551.52V513.398Z" fill="#FFA340"/>
<path d="M498.471 539.721C527.769 539.721 551.52 528.349 551.52 514.322C551.52 500.294 527.769 488.922 498.471 488.922C469.173 488.922 445.422 500.294 445.422 514.322C445.422 528.349 469.173 539.721 498.471 539.721Z" fill="#FFBD00"/>
<path d="M498.477 533.866C521.777 533.866 540.665 525.113 540.665 514.316C540.665 503.519 521.777 494.766 498.477 494.766C475.177 494.766 456.289 503.519 456.289 514.316C456.289 525.113 475.177 533.866 498.477 533.866Z" fill="#FFE066"/>
<path d="M486.336 516.082L479.727 512.591L484.878 509.907L491.488 513.398C493.279 514.218 495.227 514.643 497.198 514.643C499.168 514.643 501.116 514.218 502.907 513.398C506.088 511.753 506.15 509.053 503.032 507.409L496.127 503.747L501.294 501.062L508.198 504.724C514.094 507.827 514.001 512.948 507.966 516.082C504.57 517.629 500.882 518.43 497.151 518.43C493.42 518.43 489.732 517.629 486.336 516.082V516.082Z" fill="#FFA340"/>
<path d="M511.296 520.55L487.773 508.075L492.94 505.391L516.462 517.865L511.296 520.55Z" fill="#FFA340"/>
<path d="M519.647 516.222L496.125 503.731L501.292 501.062L524.814 513.522L519.647 516.222Z" fill="#FFA340"/>
<path d="M484.664 527.582L486.96 512.873L479.761 512.609L477.977 524.045L484.664 527.582Z" fill="#FFA340"/>
<path d="M498.471 528.502C527.769 528.502 551.52 517.131 551.52 503.103C551.52 489.075 527.769 477.703 498.471 477.703C469.173 477.703 445.422 489.075 445.422 503.103C445.422 517.131 469.173 528.502 498.471 528.502Z" fill="#FFA340"/>
<path d="M551.52 492.734H445.422V505.178H551.52V492.734Z" fill="#FFA340"/>
<path d="M498.471 519.049C527.769 519.049 551.52 507.677 551.52 493.65C551.52 479.622 527.769 468.25 498.471 468.25C469.173 468.25 445.422 479.622 445.422 493.65C445.422 507.677 469.173 519.049 498.471 519.049Z" fill="#FFBD00"/>
<path d="M498.477 513.194C521.777 513.194 540.665 504.441 540.665 493.644C540.665 482.847 521.777 474.094 498.477 474.094C475.177 474.094 456.289 482.847 456.289 493.644C456.289 504.441 475.177 513.194 498.477 513.194Z" fill="#FFE066"/>
<path d="M486.336 495.418L479.727 491.927L484.878 489.242L491.488 492.734C493.279 493.554 495.227 493.978 497.198 493.978C499.168 493.978 501.116 493.554 502.907 492.734C506.088 491.089 506.15 488.389 503.032 486.744L496.127 483.067L501.294 480.383L508.198 484.06C514.094 487.163 514.001 492.284 507.966 495.418C504.57 496.965 500.882 497.766 497.151 497.766C493.42 497.766 489.732 496.965 486.336 495.418V495.418Z" fill="#FFA340"/>
<path d="M511.296 499.886L487.773 487.411L492.94 484.727L516.462 497.201L511.296 499.886Z" fill="#FFA340"/>
<path d="M519.647 495.557L496.125 483.083L501.292 480.383L524.814 492.873L519.647 495.557Z" fill="#FFA340"/>
<path d="M484.664 506.91L486.96 492.201L479.761 491.938L477.977 503.357L484.664 506.91Z" fill="#FFA340"/>
<path d="M498.471 507.831C527.769 507.831 551.52 496.459 551.52 482.431C551.52 468.403 527.769 457.031 498.471 457.031C469.173 457.031 445.422 468.403 445.422 482.431C445.422 496.459 469.173 507.831 498.471 507.831Z" fill="#FFA340"/>
<path d="M551.52 472.062H445.422V484.506H551.52V472.062Z" fill="#FFA340"/>
<path d="M498.471 498.377C527.769 498.377 551.52 487.006 551.52 472.978C551.52 458.95 527.769 447.578 498.471 447.578C469.173 447.578 445.422 458.95 445.422 472.978C445.422 487.006 469.173 498.377 498.471 498.377Z" fill="#FFBD00"/>
<path d="M498.477 492.53C521.777 492.53 540.665 483.777 540.665 472.98C540.665 462.183 521.777 453.43 498.477 453.43C475.177 453.43 456.289 462.183 456.289 472.98C456.289 483.777 475.177 492.53 498.477 492.53Z" fill="#FFE066"/>
<path d="M486.336 474.738L479.727 471.263L484.878 468.578L491.488 472.069C493.279 472.89 495.227 473.314 497.198 473.314C499.168 473.314 501.116 472.89 502.907 472.069C506.088 470.409 506.15 467.725 503.032 466.08L496.127 462.403L501.294 459.719L508.198 463.396C514.094 466.499 514.001 471.62 507.966 474.754C504.569 476.298 500.881 477.096 497.149 477.094C493.418 477.091 489.731 476.288 486.336 474.738V474.738Z" fill="#FFA340"/>
<path d="M511.296 479.222L487.773 466.747L492.94 464.062L516.462 476.537L511.296 479.222Z" fill="#FFA340"/>
<path d="M519.647 474.878L496.125 462.403L501.292 459.719L524.814 472.194L519.647 474.878Z" fill="#FFA340"/>
<path d="M484.664 486.246L486.96 471.537L479.761 471.273L477.977 482.693L484.664 486.246Z" fill="#FFA340"/>
<path d="M424.923 265.358L424 264.822V257.146L424.923 257.682V265.358Z" fill="#554BED"/>
<path d="M424.923 257.657L424 257.121L425.077 256.5L426 257.036L424.923 257.657Z" fill="#BEB8FF"/>
<path opacity="0.95" d="M425.999 257.045V264.688L424.922 265.31L424.922 257.666L425.999 257.045Z" fill="#9287FA"/>
<path d="M425.077 261.219L420 258.27V216.055L425.077 219.004V261.219Z" fill="#554BED"/>
<path d="M425.077 218.863L420 215.914L425.923 212.5L431 215.449L425.077 218.863Z" fill="#BEB8FF"/>
<path opacity="0.95" d="M431.001 215.5V257.535L425.078 260.956L425.078 218.914L431.001 215.5Z" fill="#9287FA"/>
<path d="M424.923 216.358L424 215.822V208.146L424.923 208.682V216.358Z" fill="#554BED"/>
<path d="M424.923 208.657L424 208.121L425.077 207.5L426 208.036L424.923 208.657Z" fill="#BEB8FF"/>
<path opacity="0.95" d="M425.999 208.045V215.688L424.922 216.31L424.922 208.666L425.999 208.045Z" fill="#9287FA"/>
<path d="M384.923 301.358L384 300.822V293.146L384.923 293.682V301.358Z" fill="#554BED"/>
<path d="M384.923 293.657L384 293.121L385.077 292.5L386 293.036L384.923 293.657Z" fill="#BEB8FF"/>
<path opacity="0.95" d="M385.999 293.045V300.688L384.922 301.31L384.922 293.666L385.999 293.045Z" fill="#9287FA"/>
<path d="M385.077 296.219L380 293.27V271.055L385.077 274.004V296.219Z" fill="#554BED"/>
<path d="M385.077 273.863L380 270.914L385.923 267.5L391 270.449L385.077 273.863Z" fill="#BEB8FF"/>
<path opacity="0.95" d="M391.001 270.5V292.535L385.078 295.956L385.078 273.914L391.001 270.5Z" fill="#9287FA"/>
<path d="M384.923 271.358L384 270.822V263.146L384.923 263.682V271.358Z" fill="#554BED"/>
<path d="M384.923 263.657L384 263.121L385.077 262.5L386 263.036L384.923 263.657Z" fill="#BEB8FF"/>
<path opacity="0.95" d="M385.999 263.045V270.688L384.922 271.31L384.922 263.666L385.999 263.045Z" fill="#9287FA"/>
<path d="M345.923 332.358L345 331.822V324.146L345.923 324.683V332.358Z" fill="#554BED"/>
<path d="M345.923 324.657L345 324.121L346.077 323.5L347 324.036L345.923 324.657Z" fill="#BEB8FF"/>
<path opacity="0.95" d="M346.999 324.045V331.688L345.922 332.31L345.922 324.666L346.999 324.045Z" fill="#9287FA"/>
<path d="M346.077 327.219L341 324.27V302.055L346.077 305.004V327.219Z" fill="#554BED"/>
<path d="M346.077 304.863L341 301.914L346.923 298.5L352 301.449L346.077 304.863Z" fill="#BEB8FF"/>
<path opacity="0.95" d="M352.001 301.5V323.535L346.078 326.956L346.078 304.914L352.001 301.5Z" fill="#9287FA"/>
<path d="M345.923 302.358L345 301.822V294.146L345.923 294.682V302.358Z" fill="#554BED"/>
<path d="M345.923 294.657L345 294.121L346.077 293.5L347 294.036L345.923 294.657Z" fill="#BEB8FF"/>
<path opacity="0.95" d="M346.999 294.045V301.688L345.922 302.31L345.922 294.666L346.999 294.045Z" fill="#9287FA"/>
<path d="M416.923 276.358L416 275.822V268.146L416.923 268.682V276.358Z" fill="#554BED"/>
<path d="M416.923 268.657L416 268.121L417.077 267.5L418 268.036L416.923 268.657Z" fill="#BEB8FF"/>
<path opacity="0.95" d="M417.999 268.045V275.688L416.922 276.31L416.922 268.666L417.999 268.045Z" fill="#9287FA"/>
<path d="M417.077 271.219L412 268.27V246.055L417.077 249.004V271.219Z" fill="#554BED"/>
<path d="M417.077 248.863L412 245.914L417.923 242.5L423 245.449L417.077 248.863Z" fill="#BEB8FF"/>
<path opacity="0.95" d="M423.001 245.5V267.535L417.078 270.956L417.078 248.914L423.001 245.5Z" fill="#9287FA"/>
<path d="M416.923 246.358L416 245.822V238.146L416.923 238.682V246.358Z" fill="#554BED"/>
<path d="M416.923 238.657L416 238.121L417.077 237.5L418 238.036L416.923 238.657Z" fill="#BEB8FF"/>
<path opacity="0.95" d="M417.999 238.045V245.688L416.922 246.31L416.922 238.666L417.999 238.045Z" fill="#9287FA"/>
<path d="M473.923 190.358L473 189.822V182.146L473.923 182.682V190.358Z" fill="#554BED"/>
<path d="M473.923 182.657L473 182.121L474.077 181.5L475 182.036L473.923 182.657Z" fill="#BEB8FF"/>
<path opacity="0.95" d="M474.999 182.045V189.688L473.922 190.31L473.922 182.666L474.999 182.045Z" fill="#9287FA"/>
<path d="M474.077 185.219L469 182.27V160.055L474.077 163.004V185.219Z" fill="#554BED"/>
<path d="M474.077 162.863L469 159.914L474.923 156.5L480 159.449L474.077 162.863Z" fill="#BEB8FF"/>
<path opacity="0.95" d="M480.001 159.5V181.535L474.078 184.956L474.078 162.914L480.001 159.5Z" fill="#9287FA"/>
<path d="M473.923 160.358L473 159.822V152.146L473.923 152.682V160.358Z" fill="#554BED"/>
<path d="M473.923 152.657L473 152.121L474.077 151.5L475 152.036L473.923 152.657Z" fill="#BEB8FF"/>
<path opacity="0.95" d="M474.999 152.045V159.688L473.922 160.31L473.922 152.666L474.999 152.045Z" fill="#9287FA"/>
<path d="M259.923 450.358L259 449.822V442.146L259.923 442.683V450.358Z" fill="#554BED"/>
<path d="M259.923 442.657L259 442.121L260.077 441.5L261 442.036L259.923 442.657Z" fill="#BEB8FF"/>
<path opacity="0.95" d="M260.999 442.045V449.688L259.922 450.31L259.922 442.666L260.999 442.045Z" fill="#9287FA"/>
<path d="M260.077 446.219L255 443.27V401.055L260.077 404.004V446.219Z" fill="#554BED"/>
<path d="M260.077 403.863L255 400.914L260.923 397.5L266 400.449L260.077 403.863Z" fill="#BEB8FF"/>
<path opacity="0.95" d="M266.001 400.5V442.535L260.078 445.956L260.078 403.914L266.001 400.5Z" fill="#9287FA"/>
<path d="M259.923 401.358L259 400.822V393.146L259.923 393.683V401.358Z" fill="#554BED"/>
<path d="M259.923 393.657L259 393.121L260.077 392.5L261 393.036L259.923 393.657Z" fill="#BEB8FF"/>
<path opacity="0.95" d="M260.999 393.045V400.688L259.922 401.31L259.922 393.666L260.999 393.045Z" fill="#9287FA"/>
<path d="M516.923 159.358L516 158.822V151.146L516.923 151.682V159.358Z" fill="#554BED"/>
<path d="M516.923 151.657L516 151.121L517.077 150.5L518 151.036L516.923 151.657Z" fill="#BEB8FF"/>
<path opacity="0.95" d="M517.999 151.045V158.688L516.922 159.31L516.922 151.666L517.999 151.045Z" fill="#9287FA"/>
<path d="M517.077 155.219L512 152.27V110.055L517.077 113.004V155.219Z" fill="#554BED"/>
<path d="M517.077 112.863L512 109.914L517.923 106.5L523 109.449L517.077 112.863Z" fill="#BEB8FF"/>
<path opacity="0.95" d="M523.001 109.5V151.535L517.078 154.956L517.078 112.914L523.001 109.5Z" fill="#9287FA"/>
<path d="M516.923 110.358L516 109.822V102.146L516.923 102.682V110.358Z" fill="#554BED"/>
<path d="M516.923 102.657L516 102.121L517.077 101.5L518 102.036L516.923 102.657Z" fill="#BEB8FF"/>
<path opacity="0.95" d="M517.999 102.045V109.688L516.922 110.31L516.922 102.666L517.999 102.045Z" fill="#9287FA"/>
<path d="M461.923 199.358L461 198.822V191.146L461.923 191.682V199.358Z" fill="#554BED"/>
<path d="M461.923 191.657L461 191.121L462.077 190.5L463 191.036L461.923 191.657Z" fill="#BEB8FF"/>
<path opacity="0.95" d="M462.999 191.045V198.688L461.922 199.31L461.922 191.666L462.999 191.045Z" fill="#9287FA"/>
<path d="M462.077 195.219L457 192.27V150.055L462.077 153.004V195.219Z" fill="#554BED"/>
<path d="M462.077 152.863L457 149.914L462.923 146.5L468 149.449L462.077 152.863Z" fill="#BEB8FF"/>
<path opacity="0.95" d="M468.001 149.5V191.535L462.078 194.956L462.078 152.914L468.001 149.5Z" fill="#9287FA"/>
<path d="M461.923 150.358L461 149.822V142.146L461.923 142.682V150.358Z" fill="#554BED"/>
<path d="M461.923 142.657L461 142.121L462.077 141.5L463 142.036L461.923 142.657Z" fill="#BEB8FF"/>
<path opacity="0.95" d="M462.999 142.045V149.688L461.922 150.31L461.922 142.666L462.999 142.045Z" fill="#9287FA"/>
<path d="M246.923 466.358L246 465.822V458.146L246.923 458.683V466.358Z" fill="#554BED"/>
<path d="M246.923 458.657L246 458.121L247.077 457.5L248 458.036L246.923 458.657Z" fill="#BEB8FF"/>
<path opacity="0.95" d="M247.999 458.045V465.688L246.922 466.31L246.922 458.666L247.999 458.045Z" fill="#9287FA"/>
<path d="M247.077 462.219L242 459.27V417.055L247.077 420.004V462.219Z" fill="#554BED"/>
<path d="M247.077 419.863L242 416.914L247.923 413.5L253 416.449L247.077 419.863Z" fill="#BEB8FF"/>
<path opacity="0.95" d="M253.001 416.5V458.535L247.078 461.956L247.078 419.914L253.001 416.5Z" fill="#9287FA"/>
<path d="M246.923 417.358L246 416.822V409.146L246.923 409.683V417.358Z" fill="#554BED"/>
<path d="M246.923 409.657L246 409.121L247.077 408.5L248 409.036L246.923 409.657Z" fill="#BEB8FF"/>
<path opacity="0.95" d="M247.999 409.045V416.688L246.922 417.31L246.922 409.666L247.999 409.045Z" fill="#9287FA"/>
<path d="M502.923 172.358L502 171.822V164.146L502.923 164.682V172.358Z" fill="#554BED"/>
<path d="M502.923 164.657L502 164.121L503.077 163.5L504 164.036L502.923 164.657Z" fill="#BEB8FF"/>
<path opacity="0.95" d="M503.999 164.045V171.688L502.922 172.31L502.922 164.666L503.999 164.045Z" fill="#9287FA"/>
<path d="M503.077 168.219L498 165.27V123.055L503.077 126.004V168.219Z" fill="#554BED"/>
<path d="M503.077 125.863L498 122.914L503.923 119.5L509 122.449L503.077 125.863Z" fill="#BEB8FF"/>
<path opacity="0.95" d="M509.001 122.5V164.535L503.078 167.956L503.078 125.914L509.001 122.5Z" fill="#9287FA"/>
<path d="M502.923 123.358L502 122.822V115.146L502.923 115.682V123.358Z" fill="#554BED"/>
<path d="M502.923 115.657L502 115.121L503.077 114.5L504 115.036L502.923 115.657Z" fill="#BEB8FF"/>
<path opacity="0.95" d="M503.999 115.045V122.688L502.922 123.31L502.922 115.666L503.999 115.045Z" fill="#9287FA"/>
<path d="M451.923 223.358L451 222.822V215.146L451.923 215.682V223.358Z" fill="#554BED"/>
<path d="M451.923 215.657L451 215.121L452.077 214.5L453 215.036L451.923 215.657Z" fill="#BEB8FF"/>
<path opacity="0.95" d="M452.999 215.045V222.688L451.922 223.31L451.922 215.666L452.999 215.045Z" fill="#9287FA"/>
<path d="M452.077 219.219L447 216.27V174.055L452.077 177.004V219.219Z" fill="#554BED"/>
<path d="M452.077 176.863L447 173.914L452.923 170.5L458 173.449L452.077 176.863Z" fill="#BEB8FF"/>
<path opacity="0.95" d="M458.001 173.5V215.535L452.078 218.956L452.078 176.914L458.001 173.5Z" fill="#9287FA"/>
<path d="M451.923 174.358L451 173.822V166.146L451.923 166.682V174.358Z" fill="#554BED"/>
<path d="M451.923 166.657L451 166.121L452.077 165.5L453 166.036L451.923 166.657Z" fill="#BEB8FF"/>
<path opacity="0.95" d="M452.999 166.045V173.688L451.922 174.31L451.922 166.666L452.999 166.045Z" fill="#9287FA"/>
<path d="M374.923 294.358L374 293.822V286.146L374.923 286.682V294.358Z" fill="#554BED"/>
<path d="M374.923 286.657L374 286.121L375.077 285.5L376 286.036L374.923 286.657Z" fill="#BEB8FF"/>
<path opacity="0.95" d="M375.999 286.045V293.688L374.922 294.31L374.922 286.666L375.999 286.045Z" fill="#9287FA"/>
<path d="M375.077 290.219L370 287.27V245.055L375.077 248.004V290.219Z" fill="#554BED"/>
<path d="M375.077 247.863L370 244.914L375.923 241.5L381 244.449L375.077 247.863Z" fill="#BEB8FF"/>
<path opacity="0.95" d="M381.001 244.5V286.535L375.078 289.956L375.078 247.914L381.001 244.5Z" fill="#9287FA"/>
<path d="M374.923 245.358L374 244.822V237.146L374.923 237.682V245.358Z" fill="#554BED"/>
<path d="M374.923 237.657L374 237.121L375.077 236.5L376 237.036L374.923 237.657Z" fill="#BEB8FF"/>
<path opacity="0.95" d="M375.999 237.045V244.688L374.922 245.31L374.922 237.666L375.999 237.045Z" fill="#9287FA"/>
<path d="M365.923 316.358L365 315.822V308.146L365.923 308.683V316.358Z" fill="#554BED"/>
<path d="M365.923 308.657L365 308.121L366.077 307.5L367 308.036L365.923 308.657Z" fill="#BEB8FF"/>
<path opacity="0.95" d="M366.999 308.045V315.688L365.922 316.31L365.922 308.666L366.999 308.045Z" fill="#9287FA"/>
<path d="M366.077 312.219L361 309.27V267.055L366.077 270.004V312.219Z" fill="#554BED"/>
<path d="M366.077 269.863L361 266.914L366.923 263.5L372 266.449L366.077 269.863Z" fill="#BEB8FF"/>
<path opacity="0.95" d="M372.001 266.5V308.535L366.078 311.956L366.078 269.914L372.001 266.5Z" fill="#9287FA"/>
<path d="M365.923 267.358L365 266.822V259.146L365.923 259.682V267.358Z" fill="#554BED"/>
<path d="M365.923 259.657L365 259.121L366.077 258.5L367 259.036L365.923 259.657Z" fill="#BEB8FF"/>
<path opacity="0.95" d="M366.999 259.045V266.688L365.922 267.31L365.922 259.666L366.999 259.045Z" fill="#9287FA"/>
<path d="M334.923 365.358L334 364.822V357.146L334.923 357.683V365.358Z" fill="#554BED"/>
<path d="M334.923 357.657L334 357.121L335.077 356.5L336 357.036L334.923 357.657Z" fill="#BEB8FF"/>
<path opacity="0.95" d="M335.999 357.045V364.688L334.922 365.31L334.922 357.666L335.999 357.045Z" fill="#9287FA"/>
<path d="M335.077 361.219L330 358.27V316.055L335.077 319.004V361.219Z" fill="#554BED"/>
<path d="M335.077 318.863L330 315.914L335.923 312.5L341 315.449L335.077 318.863Z" fill="#BEB8FF"/>
<path opacity="0.95" d="M341.001 315.5V357.535L335.078 360.956L335.078 318.914L341.001 315.5Z" fill="#9287FA"/>
<path d="M334.923 316.358L334 315.822V308.146L334.923 308.683V316.358Z" fill="#554BED"/>
<path d="M334.923 308.657L334 308.121L335.077 307.5L336 308.036L334.923 308.657Z" fill="#BEB8FF"/>
<path opacity="0.95" d="M335.999 308.045V315.688L334.922 316.31L334.922 308.666L335.999 308.045Z" fill="#9287FA"/>
<path d="M326.923 371.358L326 370.822V363.146L326.923 363.683V371.358Z" fill="#554BED"/>
<path d="M326.923 363.657L326 363.121L327.077 362.5L328 363.036L326.923 363.657Z" fill="#BEB8FF"/>
<path opacity="0.95" d="M327.999 363.045V370.688L326.922 371.31L326.922 363.666L327.999 363.045Z" fill="#9287FA"/>
<path d="M327.077 367.219L322 364.27V322.055L327.077 325.004V367.219Z" fill="#554BED"/>
<path d="M327.077 324.863L322 321.914L327.923 318.5L333 321.449L327.077 324.863Z" fill="#BEB8FF"/>
<path opacity="0.95" d="M333.001 321.5V363.535L327.078 366.956L327.078 324.914L333.001 321.5Z" fill="#9287FA"/>
<path d="M326.923 322.358L326 321.822V314.146L326.923 314.683V322.358Z" fill="#554BED"/>
<path d="M326.923 314.657L326 314.121L327.077 313.5L328 314.036L326.923 314.657Z" fill="#BEB8FF"/>
<path opacity="0.95" d="M327.999 314.045V321.688L326.922 322.31L326.922 314.666L327.999 314.045Z" fill="#9287FA"/>
<path d="M304.923 382.358L304 381.822V374.146L304.923 374.683V382.358Z" fill="#554BED"/>
<path d="M304.923 374.657L304 374.121L305.077 373.5L306 374.036L304.923 374.657Z" fill="#BEB8FF"/>
<path opacity="0.95" d="M305.999 374.045V381.688L304.922 382.31L304.922 374.666L305.999 374.045Z" fill="#9287FA"/>
<path d="M305.077 377.219L300 374.27V352.055L305.077 355.004V377.219Z" fill="#554BED"/>
<path d="M305.077 354.863L300 351.914L305.923 348.5L311 351.449L305.077 354.863Z" fill="#BEB8FF"/>
<path opacity="0.95" d="M311.001 351.5V373.535L305.078 376.956L305.078 354.914L311.001 351.5Z" fill="#9287FA"/>
<path d="M304.923 352.358L304 351.822V344.146L304.923 344.683V352.358Z" fill="#554BED"/>
<path d="M304.923 344.657L304 344.121L305.077 343.5L306 344.036L304.923 344.657Z" fill="#BEB8FF"/>
<path opacity="0.95" d="M305.999 344.045V351.688L304.922 352.31L304.922 344.666L305.999 344.045Z" fill="#9287FA"/>
<path d="M292.923 409.358L292 408.822V401.146L292.923 401.683V409.358Z" fill="#554BED"/>
<path d="M292.923 401.657L292 401.121L293.077 400.5L294 401.036L292.923 401.657Z" fill="#BEB8FF"/>
<path opacity="0.95" d="M293.999 401.045V408.688L292.922 409.31L292.922 401.666L293.999 401.045Z" fill="#9287FA"/>
<path d="M293.077 405.219L288 402.27V360.055L293.077 363.004V405.219Z" fill="#554BED"/>
<path d="M293.077 362.863L288 359.914L293.923 356.5L299 359.449L293.077 362.863Z" fill="#BEB8FF"/>
<path opacity="0.95" d="M299.001 359.5V401.535L293.078 404.956L293.078 362.914L299.001 359.5Z" fill="#9287FA"/>
<path d="M292.923 360.358L292 359.822V352.146L292.923 352.683V360.358Z" fill="#554BED"/>
<path d="M292.923 352.657L292 352.121L293.077 351.5L294 352.036L292.923 352.657Z" fill="#BEB8FF"/>
<path opacity="0.95" d="M293.999 352.045V359.688L292.922 360.31L292.922 352.666L293.999 352.045Z" fill="#9287FA"/>
<path d="M279.923 417.358L279 416.822V409.146L279.923 409.683V417.358Z" fill="#554BED"/>
<path d="M279.923 409.657L279 409.121L280.077 408.5L281 409.036L279.923 409.657Z" fill="#BEB8FF"/>
<path opacity="0.95" d="M280.999 409.045V416.688L279.922 417.31L279.922 409.666L280.999 409.045Z" fill="#9287FA"/>
<path d="M280.077 413.219L275 410.27V368.055L280.077 371.004V413.219Z" fill="#554BED"/>
<path d="M280.077 370.863L275 367.914L280.923 364.5L286 367.449L280.077 370.863Z" fill="#BEB8FF"/>
<path opacity="0.95" d="M286.001 367.5V409.535L280.078 412.956L280.078 370.914L286.001 367.5Z" fill="#9287FA"/>
<path d="M279.923 368.358L279 367.822V360.146L279.923 360.683V368.358Z" fill="#554BED"/>
<path d="M279.923 360.657L279 360.121L280.077 359.5L281 360.036L279.923 360.657Z" fill="#BEB8FF"/>
<path opacity="0.95" d="M280.999 360.045V367.688L279.922 368.31L279.922 360.666L280.999 360.045Z" fill="#9287FA"/>
</svg>
