<svg width="20" height="19" viewBox="0 0 20 19" fill="none" xmlns="http://www.w3.org/2000/svg">
<path d="M12.2667 9.33333C12.1779 9.53441 12.1515 9.75746 12.1907 9.97373C12.2299 10.19 12.333 10.3895 12.4867 10.5467L12.5267 10.5867C12.6506 10.7105 12.749 10.8575 12.8161 11.0194C12.8832 11.1813 12.9177 11.3548 12.9177 11.53C12.9177 11.7052 12.8832 11.8787 12.8161 12.0406C12.749 12.2025 12.6506 12.3495 12.5267 12.4733C12.4028 12.5973 12.2558 12.6956 12.0939 12.7627C11.9321 12.8298 11.7586 12.8644 11.5833 12.8644C11.4081 12.8644 11.2346 12.8298 11.0727 12.7627C10.9109 12.6956 10.7638 12.5973 10.64 12.4733L10.6 12.4333C10.4429 12.2796 10.2433 12.1765 10.0271 12.1373C9.8108 12.0981 9.58774 12.1246 9.38667 12.2133C9.18949 12.2978 9.02132 12.4382 8.90287 12.617C8.78442 12.7959 8.72086 13.0055 8.72 13.22V13.3333C8.72 13.687 8.57952 14.0261 8.32948 14.2761C8.07943 14.5262 7.74029 14.6667 7.38667 14.6667C7.03304 14.6667 6.69391 14.5262 6.44386 14.2761C6.19381 14.0261 6.05333 13.687 6.05333 13.3333V13.2733C6.04817 13.0527 5.97675 12.8387 5.84834 12.6591C5.71994 12.4796 5.54049 12.3429 5.33333 12.2667C5.13226 12.1779 4.9092 12.1515 4.69294 12.1907C4.47668 12.2299 4.27712 12.333 4.12 12.4867L4.08 12.5267C3.95617 12.6506 3.80912 12.749 3.64725 12.8161C3.48539 12.8832 3.31189 12.9177 3.13667 12.9177C2.96145 12.9177 2.78794 12.8832 2.62608 12.8161C2.46422 12.749 2.31716 12.6506 2.19333 12.5267C2.06936 12.4028 1.97102 12.2558 1.90392 12.0939C1.83682 11.9321 1.80228 11.7586 1.80228 11.5833C1.80228 11.4081 1.83682 11.2346 1.90392 11.0727C1.97102 10.9109 2.06936 10.7638 2.19333 10.64L2.23333 10.6C2.38702 10.4429 2.49012 10.2433 2.52934 10.0271C2.56855 9.8108 2.54208 9.58774 2.45333 9.38667C2.36882 9.18949 2.2285 9.02132 2.04964 8.90287C1.87078 8.78442 1.66119 8.72086 1.44667 8.72H1.33333C0.979711 8.72 0.640573 8.57952 0.390524 8.32948C0.140476 8.07943 0 7.74029 0 7.38667C0 7.03304 0.140476 6.69391 0.390524 6.44386C0.640573 6.19381 0.979711 6.05333 1.33333 6.05333H1.39333C1.614 6.04817 1.828 5.97675 2.00753 5.84834C2.18706 5.71994 2.32381 5.54049 2.4 5.33333C2.48874 5.13226 2.51522 4.9092 2.476 4.69294C2.43679 4.47668 2.33369 4.27712 2.18 4.12L2.14 4.08C2.01603 3.95617 1.91769 3.80912 1.85059 3.64725C1.78349 3.48539 1.74895 3.31189 1.74895 3.13667C1.74895 2.96145 1.78349 2.78794 1.85059 2.62608C1.91769 2.46422 2.01603 2.31716 2.14 2.19333C2.26383 2.06936 2.41088 1.97102 2.57275 1.90392C2.73461 1.83682 2.90811 1.80228 3.08333 1.80228C3.25855 1.80228 3.43206 1.83682 3.59392 1.90392C3.75578 1.97102 3.90284 2.06936 4.02667 2.19333L4.06667 2.23333C4.22379 2.38702 4.42334 2.49012 4.63961 2.52934C4.85587 2.56855 5.07892 2.54208 5.28 2.45333H5.33333C5.53051 2.36882 5.69868 2.2285 5.81713 2.04964C5.93558 1.87078 5.99914 1.66119 6 1.44667V1.33333C6 0.979711 6.14048 0.640573 6.39052 0.390524C6.64057 0.140476 6.97971 0 7.33333 0C7.68696 0 8.02609 0.140476 8.27614 0.390524C8.52619 0.640573 8.66667 0.979711 8.66667 1.33333V1.39333C8.66752 1.60786 8.73109 1.81745 8.84954 1.99631C8.96799 2.17517 9.13615 2.31549 9.33333 2.4C9.53441 2.48874 9.75746 2.51522 9.97373 2.476C10.19 2.43679 10.3895 2.33369 10.5467 2.18L10.5867 2.14C10.7105 2.01603 10.8575 1.91769 11.0194 1.85059C11.1813 1.78349 11.3548 1.74895 11.53 1.74895C11.7052 1.74895 11.8787 1.78349 12.0406 1.85059C12.2025 1.91769 12.3495 2.01603 12.4733 2.14C12.5973 2.26383 12.6956 2.41088 12.7627 2.57275C12.8298 2.73461 12.8644 2.90811 12.8644 3.08333C12.8644 3.25855 12.8298 3.43206 12.7627 3.59392C12.6956 3.75578 12.5973 3.90284 12.4733 4.02667L12.4333 4.06667C12.2796 4.22379 12.1765 4.42334 12.1373 4.63961C12.0981 4.85587 12.1246 5.07892 12.2133 5.28V5.33333C12.2978 5.53051 12.4382 5.69868 12.617 5.81713C12.7959 5.93558 13.0055 5.99914 13.22 6H13.3333C13.687 6 14.0261 6.14048 14.2761 6.39052C14.5262 6.64057 14.6667 6.97971 14.6667 7.33333C14.6667 7.68696 14.5262 8.02609 14.2761 8.27614C14.0261 8.52619 13.687 8.66667 13.3333 8.66667H13.2733C13.0588 8.66752 12.8492 8.73109 12.6704 8.84954C12.4915 8.96799 12.3512 9.13615 12.2667 9.33333V9.33333Z" fill="#4F2DA7"/>
<path d="M7.33203 9.33325C8.4366 9.33325 9.33203 8.43782 9.33203 7.33325C9.33203 6.22868 8.4366 5.33325 7.33203 5.33325C6.22746 5.33325 5.33203 6.22868 5.33203 7.33325C5.33203 8.43782 6.22746 9.33325 7.33203 9.33325Z" fill="white"/>
<path d="M19.7218 7.99909V8.55602H9.14844V7.99909C9.14844 7.69278 9.39655 7.44216 9.70537 7.44216H19.1648C19.4739 7.44216 19.7218 7.69278 19.7218 7.99909V7.99909Z" fill="white"/>
<rect x="9.3125" y="8.49897" width="10.2475" height="9.80198" fill="white"/>
<path d="M9.14565 8.27744C8.99166 8.27744 8.86719 8.15296 8.86719 7.99897C8.86719 7.53839 9.242 7.16357 9.70258 7.16357C9.85657 7.16357 9.98105 7.28805 9.98105 7.44204C9.98105 7.59603 9.85657 7.7205 9.70258 7.7205C9.54887 7.7205 9.42412 7.84526 9.42412 7.99897C9.42412 8.15296 9.29964 8.27744 9.14565 8.27744Z" fill="#675AF6"/>
<path d="M19.7221 8.27744C19.5681 8.27744 19.4436 8.15296 19.4436 7.99897C19.4436 7.84526 19.3189 7.7205 19.1652 7.7205C19.0112 7.7205 18.8867 7.59603 18.8867 7.44204C18.8867 7.28805 19.0112 7.16357 19.1652 7.16357C19.6258 7.16357 20.0006 7.53839 20.0006 7.99897C20.0006 8.15296 19.8761 8.27744 19.7221 8.27744Z" fill="#675AF6"/>
<path d="M19.1654 7.7205H9.70425C9.55026 7.7205 9.42578 7.59603 9.42578 7.44204C9.42578 7.28805 9.55026 7.16357 9.70425 7.16357H19.1657C19.3197 7.16357 19.4441 7.28805 19.4441 7.44204C19.4441 7.59603 19.3194 7.7205 19.1654 7.7205Z" fill="#675AF6"/>
<path d="M10.2799 9.55693C10.1259 9.55693 10 9.43246 10 9.27847C10 9.12447 10.1231 9 10.2768 9H10.2799C10.4336 9 10.5583 9.12447 10.5583 9.27847C10.5583 9.43246 10.4336 9.55693 10.2799 9.55693Z" fill="#675AF6"/>
<path d="M11.1158 9.55693C10.9618 9.55693 10.8359 9.43246 10.8359 9.27847C10.8359 9.12447 10.959 9 11.1127 9H11.1158C11.2695 9 11.3943 9.12447 11.3943 9.27847C11.3943 9.43246 11.2695 9.55693 11.1158 9.55693Z" fill="#675AF6"/>
<path d="M11.9517 9.55693C11.7977 9.55693 11.6719 9.43246 11.6719 9.27847C11.6719 9.12447 11.795 9 11.9487 9H11.9517C12.1054 9 12.2302 9.12447 12.2302 9.27847C12.2302 9.43246 12.1054 9.55693 11.9517 9.55693Z" fill="#675AF6"/>
<path d="M9.14565 18.8569C8.99166 18.8569 8.86719 18.7324 8.86719 18.5784V7.99897C8.86719 7.84498 8.99166 7.7205 9.14565 7.7205C9.29964 7.7205 9.42412 7.84498 9.42412 7.99897V18.5784C9.42412 18.7324 9.29964 18.8569 9.14565 18.8569Z" fill="#675AF6"/>
<path d="M19.7199 18.8569C19.5659 18.8569 19.4414 18.7324 19.4414 18.5784V7.99897C19.4414 7.84498 19.5659 7.7205 19.7199 7.7205C19.8739 7.7205 19.9983 7.84498 19.9983 7.99897V18.5784C19.9983 18.7324 19.8739 18.8569 19.7199 18.8569Z" fill="#675AF6"/>
<path d="M19.7207 11.5569H9.14565C8.99166 11.5569 8.86719 11.4325 8.86719 11.2785C8.86719 11.1245 8.99166 11 9.14565 11H19.7209C19.8749 11 19.9994 11.1245 19.9994 11.2785C19.9994 11.4325 19.8746 11.5569 19.7207 11.5569Z" fill="#675AF6"/>
<path d="M19.7207 18.8569H9.14565C8.99166 18.8569 8.86719 18.7325 8.86719 18.5785C8.86719 18.4245 8.99166 18.3 9.14565 18.3H19.7209C19.8749 18.3 19.9994 18.4245 19.9994 18.5785C19.9994 18.7325 19.8746 18.8569 19.7207 18.8569Z" fill="#675AF6"/>
<path d="M12.5 14.5L13.75 16L16.5 13.5" stroke="#119A4B" stroke-linecap="round"/>
</svg>
