<svg width="190" height="303" viewBox="0 0 190 303" fill="none" xmlns="http://www.w3.org/2000/svg">
<rect width="188.857" height="301.958" rx="7.99924" transform="matrix(1 -4.39522e-10 -0.000340867 1 0.66626 0.789795)" fill="#4F2DA7"/>
<path d="M19.2731 40.7903C19.1664 40.7903 19.0758 40.753 19.0011 40.6783C18.9265 40.6036 18.8892 40.513 18.8892 40.4063L18.8928 29.9753C18.8928 29.8687 18.9302 29.778 19.0049 29.7033C19.0796 29.6287 19.1702 29.5914 19.2769 29.5914H20.7807C20.8981 29.5914 20.9887 29.6287 21.0527 29.7033C21.1273 29.778 21.1646 29.8687 21.1646 29.9753L21.161 40.4063C21.161 40.513 21.1236 40.6036 21.0489 40.6783C20.9849 40.753 20.8942 40.7903 20.7769 40.7903H19.2731ZM24.0539 40.7903C23.9472 40.7903 23.8566 40.753 23.7819 40.6783C23.7073 40.6036 23.67 40.513 23.67 40.4063L23.6736 29.9913C23.6736 29.874 23.711 29.778 23.7857 29.7033C23.8604 29.6287 23.951 29.5914 24.0577 29.5914H28.3453C29.1772 29.5914 29.9024 29.7247 30.5209 29.9913C31.1394 30.2473 31.6193 30.6419 31.9604 31.1752C32.3015 31.6978 32.4719 32.3538 32.4717 33.143C32.4714 33.9429 32.3005 34.6042 31.959 35.1268C31.6176 35.6388 31.1375 36.0227 30.5188 36.2787C29.9001 36.5347 29.1748 36.6627 28.3429 36.6627L25.9591 36.6627L25.9578 40.4063C25.9578 40.513 25.9204 40.6036 25.8457 40.6783C25.7817 40.753 25.691 40.7903 25.5737 40.7903H24.0539ZM25.9277 34.8868H28.2635C28.8821 34.8868 29.3568 34.7429 29.6875 34.4549C30.0182 34.1562 30.1837 33.719 30.1839 33.143C30.1841 32.6097 30.0296 32.1831 29.7204 31.8631C29.4112 31.5325 28.9259 31.3672 28.2647 31.3672H25.9289L25.9277 34.8868ZM38.5193 40.9503C37.5701 40.9503 36.7542 40.7956 36.0717 40.4863C35.3892 40.1663 34.8561 39.6811 34.4723 39.0305C34.0886 38.3692 33.8809 37.5479 33.8492 36.5667C33.8387 36.1081 33.8336 35.6548 33.8337 35.2068C33.8339 34.7589 33.8393 34.3002 33.8502 33.8309C33.8825 32.8604 34.0961 32.0498 34.4909 31.3992C34.8858 30.7486 35.4246 30.258 36.1073 29.9273C36.8007 29.5967 37.606 29.4314 38.5232 29.4314C39.4405 29.4314 40.2457 29.5967 40.9388 29.9273C41.632 30.258 42.1758 30.7486 42.5702 31.3992C42.9646 32.0498 43.1776 32.8604 43.2093 33.8309C43.2305 34.3002 43.241 34.7589 43.2408 35.2068C43.2407 35.6548 43.2298 36.1081 43.2084 36.5667C43.176 37.5479 42.9678 38.3692 42.5836 39.0305C42.1994 39.6811 41.6606 40.1663 40.9672 40.4863C40.2845 40.7956 39.4685 40.9503 38.5193 40.9503ZM38.5199 39.1104C39.2132 39.1104 39.7785 38.9078 40.216 38.5025C40.6534 38.0865 40.8883 37.4146 40.9206 36.4867C40.9421 36.0174 40.9529 35.5854 40.953 35.1908C40.9532 34.7855 40.9427 34.3536 40.9215 33.8949C40.9004 33.2763 40.7832 32.775 40.57 32.3911C40.3675 31.9965 40.0903 31.7138 39.7384 31.5432C39.3865 31.3618 38.9812 31.2712 38.5226 31.2712C38.0746 31.2712 37.6747 31.3618 37.3226 31.5432C36.9706 31.7138 36.6879 31.9965 36.4744 32.3911C36.2716 32.775 36.1595 33.2763 36.1379 33.8949C36.1271 34.3536 36.1216 34.7855 36.1215 35.1908C36.1214 35.5854 36.1265 36.0174 36.1371 36.4867C36.1687 37.4146 36.4031 38.0865 36.8403 38.5025C37.2775 38.9078 37.8373 39.1104 38.5199 39.1104ZM52.8832 40.9503C51.8913 40.9503 51.0594 40.8063 50.3876 40.5183C49.7264 40.2197 49.2199 39.8357 48.8681 39.3664C48.527 38.8865 48.3458 38.3852 48.3247 37.8626C48.3247 37.7666 48.3567 37.6866 48.4207 37.6226C48.4848 37.5586 48.5648 37.5266 48.6608 37.5266H50.0846C50.2233 37.5266 50.3246 37.5586 50.3886 37.6226C50.4632 37.6759 50.5272 37.7452 50.5805 37.8306C50.6444 38.0332 50.767 38.2359 50.9482 38.4385C51.1295 38.6305 51.3747 38.7905 51.684 38.9185C52.0039 39.0464 52.4039 39.1104 52.8838 39.1104C53.6517 39.1104 54.2224 38.9825 54.5958 38.7265C54.9798 38.4705 55.1719 38.1239 55.1721 37.6866C55.1722 37.3773 55.0709 37.132 54.8684 36.9506C54.6658 36.7587 54.3512 36.588 53.9246 36.4387C53.5087 36.2787 52.9542 36.1134 52.261 35.9427C51.4611 35.7508 50.7892 35.5215 50.2454 35.2548C49.7122 34.9775 49.307 34.6309 49.0298 34.2149C48.7633 33.7989 48.6302 33.271 48.6304 32.6311C48.6306 32.0125 48.7961 31.4632 49.1269 30.9832C49.4684 30.5033 49.9485 30.1246 50.5672 29.8473C51.1966 29.57 51.9432 29.4314 52.8071 29.4314C53.5004 29.4314 54.1136 29.5274 54.6468 29.7193C55.1801 29.9007 55.6226 30.146 55.9745 30.4553C56.3263 30.7539 56.5929 31.0792 56.7741 31.4312C56.9659 31.7725 57.0671 32.1084 57.0777 32.4391C57.0777 32.5244 57.0456 32.6044 56.9816 32.6791C56.9283 32.743 56.8483 32.775 56.7416 32.775H55.2537C55.1684 32.775 55.0831 32.7537 54.9978 32.7111C54.9125 32.6684 54.8432 32.5884 54.7899 32.4711C54.726 32.1404 54.5181 31.8578 54.1662 31.6232C53.8144 31.3885 53.3611 31.2712 52.8065 31.2712C52.2305 31.2712 51.7666 31.3778 51.4145 31.5912C51.0625 31.8045 50.8864 32.1351 50.8862 32.5831C50.8861 32.8817 50.9714 33.1323 51.1419 33.335C51.3232 33.527 51.6058 33.6976 51.9897 33.8469C52.3843 33.9963 52.9015 34.1562 53.5414 34.3269C54.4479 34.5295 55.1891 34.7642 55.7649 35.0308C56.3408 35.2975 56.762 35.6388 57.0285 36.0547C57.295 36.46 57.4281 36.9773 57.4279 37.6066C57.4277 38.3105 57.2355 38.9131 56.8513 39.4144C56.4779 39.905 55.9498 40.2837 55.2671 40.5503C54.5844 40.8169 53.7898 40.9503 52.8832 40.9503ZM62.8279 40.7903C62.188 40.7903 61.6494 40.6783 61.2122 40.4543C60.775 40.2303 60.4498 39.8997 60.2366 39.4624C60.0235 39.0145 59.917 38.4598 59.9172 37.7986L59.9185 34.1669H58.6546C58.5479 34.1669 58.4573 34.1296 58.3826 34.0549C58.308 33.9803 58.2707 33.8896 58.2707 33.783L58.2711 32.855C58.2711 32.7484 58.3085 32.6577 58.3831 32.5831C58.4578 32.5084 58.5485 32.4711 58.6551 32.4711H59.919L59.9199 29.8153C59.92 29.7087 59.952 29.618 60.016 29.5434C60.0907 29.4687 60.1867 29.4314 60.304 29.4314H61.5999C61.7066 29.4314 61.7972 29.4687 61.8718 29.5434C61.9465 29.618 61.9838 29.7087 61.9837 29.8153L61.9828 32.4711H63.9826C64.0893 32.4711 64.1799 32.5084 64.2546 32.5831C64.3292 32.6577 64.3665 32.7484 64.3665 32.855L64.3662 33.783C64.3661 33.8896 64.3288 33.9803 64.2541 34.0549C64.1794 34.1296 64.0887 34.1669 63.9821 34.1669H61.9823L61.9811 37.6386C61.9809 38.0759 62.0555 38.4172 62.2047 38.6625C62.3646 38.9078 62.6365 39.0305 63.0205 39.0305H64.1244C64.231 39.0305 64.3217 39.0678 64.3963 39.1424C64.471 39.2171 64.5083 39.3078 64.5082 39.4144L64.5079 40.4063C64.5079 40.513 64.4705 40.6036 64.3958 40.6783C64.3211 40.753 64.2304 40.7903 64.1238 40.7903H62.8279ZM68.3427 40.9503C67.7881 40.9503 67.2868 40.8436 66.839 40.6303C66.3911 40.4063 66.0339 40.113 65.7674 39.7504C65.5115 39.3771 65.3837 38.9611 65.3838 38.5025C65.3841 37.7559 65.6829 37.164 66.2803 36.7267C66.8884 36.2787 67.6885 35.9801 68.6804 35.8308L70.8723 35.5108L70.8724 35.1748C70.8726 34.7269 70.7607 34.3802 70.5368 34.1349C70.3129 33.8896 69.929 33.767 69.3851 33.767C69.0011 33.767 68.6864 33.8469 68.4411 34.0069C68.2064 34.1562 68.0303 34.3589 67.9129 34.6149C67.8275 34.7535 67.7049 34.8229 67.5449 34.8229H66.281C66.1637 34.8229 66.073 34.7909 66.0091 34.7269C65.9557 34.6629 65.9291 34.5775 65.9291 34.4709C65.9399 34.3002 66.0093 34.0923 66.1373 33.8469C66.2654 33.6016 66.4681 33.367 66.7455 33.143C67.0229 32.9084 67.3803 32.7111 67.8176 32.5511C68.255 32.3911 68.7829 32.3111 69.4016 32.3111C70.0735 32.3111 70.6387 32.3964 71.0973 32.5671C71.5665 32.7271 71.9398 32.9457 72.217 33.223C72.4942 33.5003 72.6967 33.8256 72.8246 34.1989C72.9524 34.5722 73.0163 34.9668 73.0162 35.3828L73.0144 40.4063C73.0144 40.513 72.9771 40.6036 72.9024 40.6783C72.8277 40.753 72.737 40.7903 72.6304 40.7903H71.3345C71.2172 40.7903 71.1212 40.753 71.0465 40.6783C70.9826 40.6036 70.9506 40.513 70.9506 40.4063L70.9509 39.7824C70.8121 39.985 70.6254 40.177 70.3907 40.3583C70.156 40.529 69.868 40.673 69.5266 40.7903C69.196 40.8969 68.8013 40.9503 68.3427 40.9503ZM68.8872 39.4304C69.2605 39.4304 69.5965 39.3504 69.8952 39.1904C70.2045 39.0305 70.4446 38.7851 70.6153 38.4545C70.7968 38.1132 70.8876 37.6866 70.8878 37.1746L70.8879 36.8387L69.2879 37.0946C68.6586 37.1906 68.1893 37.3453 67.8799 37.5586C67.5705 37.7719 67.4158 38.0332 67.4157 38.3425C67.4156 38.5772 67.4849 38.7798 67.6235 38.9505C67.7727 39.1104 67.9593 39.2331 68.1833 39.3184C68.4072 39.3931 68.6419 39.4304 68.8872 39.4304ZM78.7483 40.7903C78.1083 40.7903 77.5698 40.6783 77.1325 40.4543C76.6953 40.2303 76.3701 39.8997 76.157 39.4624C75.9438 39.0145 75.8373 38.4598 75.8376 37.7986L75.8388 34.1669H74.5749C74.4683 34.1669 74.3776 34.1296 74.303 34.0549C74.2284 33.9803 74.1911 33.8896 74.1911 33.783L74.1914 32.855C74.1914 32.7484 74.2288 32.6577 74.3035 32.5831C74.3782 32.5084 74.4688 32.4711 74.5755 32.4711H75.8394L75.8403 29.8153C75.8403 29.7087 75.8724 29.618 75.9364 29.5434C76.0111 29.4687 76.1071 29.4314 76.2244 29.4314H77.5203C77.6269 29.4314 77.7176 29.4687 77.7922 29.5434C77.8668 29.618 77.9041 29.7087 77.9041 29.8153L77.9032 32.4711H79.903C80.0097 32.4711 80.1003 32.5084 80.1749 32.5831C80.2496 32.6577 80.2869 32.7484 80.2868 32.855L80.2865 33.783C80.2865 33.8896 80.2491 33.9803 80.1744 34.0549C80.0997 34.1296 80.0091 34.1669 79.9024 34.1669H77.9026L77.9014 37.6386C77.9013 38.0759 77.9758 38.4172 78.1251 38.6625C78.285 38.9078 78.5569 39.0305 78.9409 39.0305H80.0447C80.1514 39.0305 80.2421 39.0678 80.3167 39.1424C80.3913 39.2171 80.4286 39.3078 80.4286 39.4144L80.4282 40.4063C80.4282 40.513 80.3908 40.6036 80.3162 40.6783C80.2415 40.753 80.1508 40.7903 80.0441 40.7903H78.7483ZM84.935 40.9503C84.2844 40.9503 83.7192 40.8063 83.2393 40.5183C82.7701 40.2197 82.4076 39.8037 82.1518 39.2704C81.896 38.7265 81.7683 38.0865 81.7685 37.3506L81.7701 32.855C81.7701 32.7484 81.8075 32.6577 81.8821 32.5831C81.9568 32.5084 82.0475 32.4711 82.1542 32.4711H83.562C83.6793 32.4711 83.77 32.5084 83.834 32.5831C83.9086 32.6577 83.9459 32.7484 83.9459 32.855L83.9444 37.2546C83.9439 38.5772 84.525 39.2384 85.6875 39.2384C86.2421 39.2384 86.6795 39.0624 86.9996 38.7105C87.3303 38.3585 87.4958 37.8732 87.496 37.2546L87.4975 32.855C87.4976 32.7484 87.5349 32.6577 87.6096 32.5831C87.6843 32.5084 87.775 32.4711 87.8816 32.4711H89.2895C89.3961 32.4711 89.4868 32.5084 89.5614 32.5831C89.636 32.6577 89.6733 32.7484 89.6733 32.855L89.6707 40.4063C89.6707 40.513 89.6333 40.6036 89.5587 40.6783C89.484 40.753 89.3933 40.7903 89.2866 40.7903H87.9908C87.8734 40.7903 87.7775 40.753 87.7028 40.6783C87.6389 40.6036 87.6069 40.513 87.6069 40.4063L87.6072 39.7504C87.3191 40.1237 86.9617 40.417 86.535 40.6303C86.1083 40.8436 85.5749 40.9503 84.935 40.9503ZM94.9355 40.9503C94.2956 40.9503 93.7464 40.8756 93.2878 40.7263C92.8399 40.577 92.472 40.3903 92.1841 40.1663C91.8962 39.9424 91.6829 39.7184 91.5444 39.4944C91.4058 39.2704 91.3312 39.0838 91.3206 38.9345C91.31 38.8171 91.342 38.7265 91.4167 38.6625C91.502 38.5878 91.5927 38.5505 91.6887 38.5505H92.9526C92.9952 38.5505 93.0325 38.5558 93.0645 38.5665C93.0965 38.5772 93.1392 38.6092 93.1925 38.6625C93.3311 38.7798 93.475 38.9025 93.6243 39.0305C93.7843 39.1584 93.9709 39.2704 94.1842 39.3664C94.3974 39.4517 94.6641 39.4944 94.984 39.4944C95.4 39.4944 95.7467 39.4144 96.024 39.2544C96.3121 39.0838 96.4561 38.8438 96.4562 38.5345C96.4563 38.3105 96.3924 38.1292 96.2644 37.9905C96.1472 37.8519 95.9232 37.7292 95.5926 37.6226C95.262 37.5053 94.7928 37.3826 94.1849 37.2546C93.5876 37.116 93.0918 36.94 92.6972 36.7267C92.3026 36.5134 92.0094 36.2467 91.8176 35.9267C91.6257 35.6068 91.5298 35.2335 91.53 34.8069C91.5301 34.3909 91.6529 33.9963 91.8983 33.623C92.1544 33.239 92.5278 32.9244 93.0185 32.6791C93.5199 32.4337 94.1386 32.3111 94.8745 32.3111C95.4504 32.3111 95.9517 32.3858 96.3783 32.5351C96.8049 32.6737 97.1568 32.8497 97.434 33.063C97.7219 33.2763 97.9405 33.495 98.0897 33.719C98.239 33.9323 98.3189 34.1189 98.3295 34.2789C98.3401 34.3962 98.3081 34.4922 98.2334 34.5669C98.1587 34.6309 98.0734 34.6629 97.9774 34.6629H96.7935C96.7402 34.6629 96.6922 34.6522 96.6495 34.6309C96.6069 34.6095 96.5642 34.5829 96.5216 34.5509C96.4043 34.4442 96.2763 34.3322 96.1377 34.2149C95.9991 34.0976 95.8285 33.9963 95.6259 33.9109C95.4339 33.8149 95.178 33.767 94.858 33.767C94.4527 33.767 94.1434 33.8576 93.93 34.0389C93.7166 34.2096 93.6099 34.4282 93.6098 34.6949C93.6097 34.8762 93.6577 35.0362 93.7536 35.1748C93.8602 35.3028 94.0682 35.4255 94.3774 35.5428C94.6867 35.6601 95.156 35.7828 95.7852 35.9107C96.4997 36.0387 97.065 36.2307 97.4808 36.4867C97.9074 36.732 98.2059 37.02 98.3764 37.3506C98.5577 37.6706 98.6482 38.0279 98.6481 38.4225C98.6479 38.9025 98.5038 39.3344 98.2157 39.7184C97.9382 40.1023 97.5222 40.4063 96.9675 40.6303C96.4234 40.8436 95.7461 40.9503 94.9355 40.9503Z" fill="white"/>
<path d="M26.6248 70.7861L26.5719 225.765" stroke="white" stroke-width="0.999905" stroke-dasharray="2 2"/>
<ellipse rx="8.99318" ry="8.99875" transform="matrix(1 0 -0.000340872 1 26.6232 71.7822)" fill="#119A4B"/>
<path d="M33.5971 120.769C33.5957 124.635 30.4628 127.768 26.6006 127.768C22.7385 127.768 19.6077 124.635 19.609 120.769C19.6103 116.903 22.7433 113.77 26.6054 113.77C30.4675 113.77 33.5984 116.903 33.5971 120.769Z" fill="#541CDF" stroke="white" stroke-width="1.99981"/>
<path d="M33.577 178.768C33.5757 182.634 30.4427 185.767 26.5806 185.767C22.7185 185.767 19.5877 182.634 19.589 178.768C19.5903 174.902 22.7233 171.769 26.5854 171.769C30.4475 171.769 33.5784 174.902 33.577 178.768Z" fill="#541CDF" stroke="white" stroke-width="1.99981"/>
<path d="M33.5624 225.757C33.5611 229.623 30.4281 232.756 26.566 232.756C22.7039 232.756 19.573 229.623 19.5743 225.757C19.5756 221.891 22.7086 218.758 26.5707 218.758C30.4329 218.758 33.5637 221.891 33.5624 225.757Z" fill="#541CDF" stroke="white" stroke-width="1.99981"/>
<path d="M23.6262 72.0657L25.3386 73.7797L29.6224 69.7803" stroke="white" stroke-width="0.999905" stroke-linecap="round"/>
<path d="M45.2989 75.7837H43.9013L47.0446 67.0572H48.5657L51.7031 75.7837H50.3055L47.8408 68.6423H47.7726L45.2989 75.7837ZM45.5344 72.3664H50.068L50.0677 73.4743H45.534L45.5344 72.3664ZM52.8601 78.238L52.8632 69.2389H54.1074L54.1071 70.2998H54.2136C54.2875 70.1635 54.3941 70.0058 54.5333 69.8269C54.6726 69.6479 54.8658 69.4917 55.113 69.3582C55.3601 69.2218 55.6868 69.1536 56.0931 69.1536C56.6214 69.1536 57.0929 69.2872 57.5076 69.5542C57.9222 69.8212 58.2473 70.2061 58.4829 70.7089C58.7214 71.2117 58.8405 71.8167 58.8402 72.5241C58.84 73.2314 58.7219 73.8379 58.4859 74.3435C58.25 74.8463 57.926 75.234 57.514 75.5067C57.1021 75.7766 56.6319 75.9115 56.1035 75.9115C55.7058 75.9115 55.3806 75.8448 55.1278 75.7113C54.8779 75.5777 54.682 75.4215 54.54 75.2425C54.398 75.0636 54.2887 74.9045 54.2121 74.7653H54.1354L54.1342 78.238H52.8601ZM54.1106 72.5113C54.1104 72.9715 54.177 73.3748 54.3104 73.7214C54.4438 74.0679 54.6369 74.3392 54.8896 74.5352C55.1424 74.7284 55.452 74.825 55.8184 74.825C56.1991 74.825 56.5172 74.7241 56.773 74.5224C57.0287 74.3179 57.222 74.041 57.3527 73.6916C57.4864 73.3422 57.5533 72.9487 57.5534 72.5113C57.5536 72.0795 57.4884 71.6918 57.3578 71.348C57.2301 71.0043 57.037 70.733 56.7786 70.5342C56.523 70.3353 56.2035 70.2359 55.82 70.2359C55.4507 70.2359 55.1382 70.3311 54.8825 70.5214C54.6296 70.7117 54.4378 70.9773 54.307 71.3182C54.1762 71.6591 54.1107 72.0568 54.1106 72.5113ZM60.2657 78.238L60.2688 69.2389H61.513L61.5126 70.2998H61.6191C61.693 70.1635 61.7996 70.0058 61.9389 69.8269C62.0781 69.6479 62.2713 69.4917 62.5185 69.3582C62.7657 69.2218 63.0924 69.1536 63.4986 69.1536C64.027 69.1536 64.4985 69.2872 64.9131 69.5542C65.3277 69.8212 65.6529 70.2061 65.8885 70.7089C66.1269 71.2117 66.246 71.8167 66.2458 72.5241C66.2455 73.2314 66.1274 73.8379 65.8915 74.3435C65.6555 74.8463 65.3316 75.234 64.9196 75.5067C64.5076 75.7766 64.0374 75.9115 63.5091 75.9115C63.1114 75.9115 62.7862 75.8448 62.5334 75.7113C62.2835 75.5777 62.0875 75.4215 61.9455 75.2425C61.8036 75.0636 61.6943 74.9045 61.6176 74.7653H61.5409L61.5397 78.238H60.2657ZM61.5161 72.5113C61.5159 72.9715 61.5826 73.3748 61.716 73.7214C61.8494 74.0679 62.0424 74.3392 62.2952 74.5352C62.5479 74.7284 62.8575 74.825 63.224 74.825C63.6046 74.825 63.9228 74.7241 64.1785 74.5224C64.4342 74.3179 64.6275 74.041 64.7583 73.6916C64.8919 73.3422 64.9588 72.9487 64.959 72.5113C64.9591 72.0795 64.8939 71.6918 64.7634 71.348C64.6356 71.0043 64.4426 70.733 64.1841 70.5342C63.9285 70.3353 63.609 70.2359 63.2255 70.2359C62.8562 70.2359 62.5437 70.3311 62.288 70.5214C62.0351 70.7117 61.8433 70.9773 61.7125 71.3182C61.5817 71.6591 61.5163 72.0568 61.5161 72.5113ZM68.9491 67.0572L68.9461 75.7837H67.6721L67.675 67.0572H68.9491ZM70.6601 75.7837L70.6623 69.2389H71.9363L71.9341 75.7837H70.6601ZM71.3061 68.229C71.0845 68.229 70.8942 68.1552 70.7352 68.0074C70.579 67.8569 70.5009 67.6779 70.501 67.4706C70.5011 67.2604 70.5792 67.0814 70.7355 66.9337C70.8947 66.7831 71.085 66.7079 71.3066 66.7079C71.5281 66.7079 71.717 66.7831 71.8732 66.9337C72.0322 67.0814 72.1117 67.2604 72.1116 67.4706C72.1116 67.6779 72.032 67.8569 71.8728 68.0074C71.7165 68.1552 71.5276 68.229 71.3061 68.229ZM76.4688 75.9158C75.824 75.9158 75.2687 75.778 74.8029 75.5025C74.34 75.2241 73.9822 74.8335 73.7295 74.3307C73.4797 73.8251 73.3549 73.2328 73.3552 72.5539C73.3554 71.8835 73.4806 71.2926 73.7307 70.7813C73.9837 70.27 74.3361 69.8709 74.7879 69.584C75.2425 69.2971 75.7737 69.1536 76.3816 69.1536C76.7509 69.1536 77.1088 69.2147 77.4553 69.3369C77.8018 69.459 78.1128 69.6508 78.3883 69.9121C78.6637 70.1734 78.8809 70.5129 79.0398 70.9305C79.1988 71.3452 79.2781 71.8494 79.2779 72.4431L79.2778 72.8948H74.0751L74.0755 71.9403H78.0296C78.0298 71.6051 77.9617 71.3083 77.8254 71.0498C77.6892 70.7884 77.4975 70.5825 77.2504 70.4319C77.0062 70.2814 76.7193 70.2061 76.3898 70.2061C76.0318 70.2061 75.7193 70.2942 75.4523 70.4703C75.188 70.6436 74.9834 70.8708 74.8385 71.152C74.6963 71.4304 74.6252 71.7329 74.6251 72.0596L74.6248 72.8053C74.6247 73.2427 74.7013 73.6149 74.8546 73.9217C75.0107 74.2284 75.2279 74.4628 75.5062 74.6247C75.7846 74.7838 76.1098 74.8633 76.4819 74.8633C76.7234 74.8633 76.9435 74.8292 77.1424 74.7611C77.3413 74.69 77.5132 74.5849 77.6581 74.4457C77.803 74.3066 77.9138 74.1347 77.9906 73.9302L79.1964 74.1475C79.0997 74.5026 78.9263 74.8136 78.6762 75.0806C78.429 75.3448 78.1179 75.5508 77.7429 75.6985C77.3707 75.8433 76.946 75.9158 76.4688 75.9158ZM83.1404 75.9115C82.612 75.9115 82.1405 75.7766 81.7259 75.5067C81.3141 75.234 80.9904 74.8463 80.7548 74.3435C80.522 73.8379 80.4058 73.2314 80.406 72.5241C80.4062 71.8167 80.5243 71.2117 80.7603 70.7089C80.9991 70.2061 81.3259 69.8212 81.7407 69.5542C82.1555 69.2872 82.6257 69.1536 83.1512 69.1536C83.5574 69.1536 83.8841 69.2218 84.1311 69.3582C84.3811 69.4917 84.5742 69.6479 84.7105 69.8269C84.8496 70.0058 84.9575 70.1635 85.0342 70.2998H85.1108L85.112 67.0572H86.386L86.383 75.7837H85.1388L85.1392 74.7653H85.0326C84.9559 74.9045 84.845 75.0636 84.7001 75.2425C84.558 75.4215 84.362 75.5777 84.1119 75.7113C83.8619 75.8448 83.5381 75.9115 83.1404 75.9115ZM83.422 74.825C83.7884 74.825 84.0981 74.7284 84.351 74.5352C84.6067 74.3392 84.7999 74.0679 84.9307 73.7214C85.0643 73.3748 85.1312 72.9715 85.1314 72.5113C85.1316 72.0568 85.0664 71.6591 84.9358 71.3182C84.8052 70.9773 84.6136 70.7117 84.3608 70.5214C84.1081 70.3311 83.7957 70.2359 83.4235 70.2359C83.04 70.2359 82.7204 70.3353 82.4647 70.5342C82.209 70.733 82.0157 71.0043 81.8849 71.348C81.757 71.6918 81.693 72.0795 81.6928 72.5113C81.6927 72.9487 81.7579 73.3422 81.8884 73.6916C82.019 74.041 82.212 74.3179 82.4676 74.5224C82.726 74.7241 83.0442 74.825 83.422 74.825ZM94.4938 69.2389L94.4935 70.2615H90.795L90.7953 69.2389H94.4938ZM91.8072 75.7837L91.8097 68.4804C91.8098 68.0714 91.8994 67.7319 92.0785 67.462C92.2575 67.1893 92.4948 66.9862 92.7903 66.8527C93.0857 66.7164 93.4068 66.6482 93.7533 66.6482C94.009 66.6482 94.2277 66.6695 94.4095 66.7121C94.5913 66.7519 94.7262 66.7888 94.8142 66.8229L94.5156 67.854C94.456 67.837 94.3793 67.8171 94.2855 67.7944C94.1918 67.7688 94.0782 67.756 93.9447 67.756C93.6351 67.756 93.4135 67.8327 93.2799 67.9861C93.1492 68.1395 93.0838 68.3611 93.0837 68.6508L93.0812 75.7837H91.8072ZM98.3051 75.9158C97.6915 75.9158 97.1561 75.7752 96.6989 75.4939C96.2416 75.2127 95.8867 74.8193 95.634 74.3137C95.3814 73.808 95.2552 73.2172 95.2554 72.5411C95.2557 71.8622 95.3823 71.2685 95.6353 70.76C95.8882 70.2515 96.2435 69.8567 96.7009 69.5755C97.1583 69.2943 97.6938 69.1536 98.3074 69.1536C98.921 69.1536 99.4564 69.2943 99.9137 69.5755C100.371 69.8567 100.726 70.2515 100.978 70.76C101.231 71.2685 101.357 71.8622 101.357 72.5411C101.357 73.2172 101.23 73.808 100.977 74.3137C100.724 74.8193 100.369 75.2127 99.9116 75.4939C99.4542 75.7752 98.9187 75.9158 98.3051 75.9158ZM98.3097 74.8463C98.7074 74.8463 99.037 74.7412 99.2984 74.531C99.5598 74.3208 99.7531 74.041 99.8782 73.6916C100.006 73.3422 100.07 72.9573 100.07 72.5368C100.07 72.1193 100.007 71.7358 99.879 71.3864C99.7541 71.0341 99.561 70.7515 99.2998 70.5385C99.0385 70.3254 98.709 70.2189 98.3113 70.2189C97.9108 70.2189 97.5784 70.3254 97.3141 70.5385C97.0527 70.7515 96.8581 71.0341 96.7301 71.3864C96.605 71.7358 96.5424 72.1193 96.5422 72.5368C96.5421 72.9573 96.6045 73.3422 96.7293 73.6916C96.857 74.041 97.0515 74.3208 97.3128 74.531C97.5769 74.7412 97.9092 74.8463 98.3097 74.8463ZM102.778 75.7837L102.78 69.2389H104.012L104.011 70.2785H104.08C104.199 69.9263 104.409 69.6493 104.71 69.4476C105.014 69.2431 105.358 69.1409 105.742 69.1409C105.821 69.1409 105.915 69.1437 106.023 69.1494C106.134 69.1551 106.22 69.1622 106.283 69.1707L106.282 70.3893C106.231 70.3751 106.14 70.3595 106.01 70.3424C105.879 70.3226 105.748 70.3126 105.618 70.3126C105.317 70.3126 105.048 70.3765 104.812 70.5044C104.579 70.6294 104.395 70.8041 104.258 71.0285C104.122 71.25 104.054 71.5028 104.053 71.7869L104.052 75.7837H102.778ZM111.98 67.0572L111.978 75.7837H110.661L110.664 67.0572H111.98ZM113.895 75.7837L113.898 67.0572H117.008C117.687 67.0572 118.25 67.1808 118.696 67.428C119.142 67.6751 119.475 68.0131 119.697 68.4421C119.918 68.8682 120.029 69.3482 120.028 69.8823C120.028 70.4191 119.916 70.9021 119.691 71.331C119.47 71.7571 119.134 72.0951 118.685 72.3451C118.239 72.5922 117.678 72.7158 117.002 72.7158H114.863L114.864 71.5994H116.883C117.312 71.5994 117.66 71.5256 117.927 71.3779C118.194 71.2273 118.39 71.0228 118.516 70.7643C118.641 70.5058 118.703 70.2118 118.703 69.8823C118.703 69.5528 118.641 69.2602 118.516 69.0045C118.391 68.7488 118.194 68.5486 117.924 68.4037C117.657 68.2588 117.305 68.1864 116.867 68.1864H115.214L115.212 75.7837H113.895ZM129.152 71.4205C129.151 72.3522 128.981 73.1533 128.64 73.8237C128.298 74.4912 127.831 75.0054 127.237 75.3661C126.646 75.724 125.974 75.903 125.222 75.903C124.466 75.903 123.791 75.724 123.198 75.3661C122.607 75.0054 122.141 74.4898 121.801 73.8194C121.46 73.149 121.29 72.3494 121.29 71.4205C121.291 70.4887 121.461 69.6891 121.802 69.0216C122.143 68.3512 122.61 67.837 123.201 67.4791C123.794 67.1183 124.469 66.9379 125.225 66.9379C125.977 66.9379 126.649 67.1183 127.24 67.4791C127.833 67.837 128.301 68.3512 128.641 69.0216C128.982 69.6891 129.152 70.4887 129.152 71.4205ZM127.848 71.4205C127.848 70.7103 127.733 70.1124 127.503 69.6266C127.276 69.138 126.964 68.7687 126.566 68.5188C126.172 68.2659 125.724 68.1395 125.224 68.1395C124.721 68.1395 124.273 68.2659 123.878 68.5188C123.483 68.7687 123.17 69.138 122.94 69.6266C122.712 70.1124 122.599 70.7103 122.598 71.4205C122.598 72.1306 122.712 72.73 122.939 73.2186C123.169 73.7043 123.481 74.0736 123.876 74.3264C124.27 74.5764 124.719 74.7014 125.222 74.7014C125.722 74.7014 126.169 74.5764 126.564 74.3264C126.962 74.0736 127.275 73.7043 127.502 73.2186C127.732 72.73 127.848 72.1306 127.848 71.4205Z" fill="white"/>
<path d="M50.161 117.055H51.4819L51.4799 122.794C51.4797 123.405 51.3361 123.946 51.049 124.417C50.7619 124.886 50.3585 125.255 49.8385 125.525C49.3186 125.792 48.7092 125.926 48.0104 125.926C47.3145 125.926 46.7066 125.792 46.1869 125.525C45.6671 125.255 45.2639 124.886 44.9771 124.417C44.6904 123.946 44.5471 123.405 44.5473 122.794L44.5493 117.055H45.8659L45.864 122.688C45.8639 123.082 45.9504 123.433 46.1236 123.74C46.2996 124.047 46.5481 124.288 46.869 124.464C47.1899 124.638 47.5705 124.724 48.0108 124.724C48.454 124.724 48.8361 124.638 49.1571 124.464C49.481 124.288 49.7282 124.047 49.8988 123.74C50.0722 123.433 50.1589 123.082 50.1591 122.688L50.161 117.055ZM53.3931 125.781L53.3961 117.055H56.5066C57.1855 117.055 57.7479 117.178 58.1938 117.425C58.6397 117.672 58.9734 118.01 59.1948 118.439C59.4162 118.865 59.5269 119.346 59.5267 119.88C59.5265 120.416 59.4141 120.899 59.1896 121.328C58.9678 121.754 58.6325 122.092 58.1836 122.342C57.7376 122.59 57.1765 122.713 56.5004 122.713H54.3614L54.3618 121.597H56.3815C56.8104 121.597 57.1584 121.523 57.4255 121.375C57.6926 121.225 57.8887 121.02 58.0137 120.762C58.1388 120.503 58.2014 120.209 58.2015 119.88C58.2016 119.55 58.1392 119.257 58.0143 119.002C57.8894 118.746 57.6921 118.546 57.4223 118.401C57.1553 118.256 56.8031 118.184 56.3656 118.184H54.7124L54.7098 125.781H53.3931ZM62.3878 117.055L62.3848 125.781H61.0682L61.0712 117.055H62.3878ZM67.3755 125.781L67.3777 119.236H68.6091L68.6088 120.276H68.6769C68.7964 119.924 69.0067 119.647 69.3078 119.445C69.6119 119.24 69.9556 119.138 70.3391 119.138C70.4186 119.138 70.5124 119.141 70.6203 119.147C70.7311 119.152 70.8177 119.159 70.8802 119.168L70.8798 120.387C70.8287 120.372 70.7378 120.357 70.6071 120.34C70.4765 120.32 70.3458 120.31 70.2151 120.31C69.914 120.31 69.6456 120.374 69.4097 120.502C69.1768 120.627 68.9921 120.801 68.8556 121.026C68.7192 121.247 68.651 121.5 68.6509 121.784L68.6495 125.781H67.3755ZM74.5669 125.913C73.922 125.913 73.3667 125.775 72.901 125.5C72.438 125.221 72.0802 124.831 71.8276 124.328C71.5778 123.822 71.453 123.23 71.4532 122.551C71.4535 121.881 71.5787 121.29 71.8288 120.779C72.0818 120.267 72.4342 119.868 72.8859 119.581C73.3405 119.294 73.8718 119.151 74.4797 119.151C74.849 119.151 75.2069 119.212 75.5534 119.334C75.8999 119.456 76.2109 119.648 76.4863 119.909C76.7618 120.171 76.979 120.51 77.1379 120.928C77.2968 121.343 77.3762 121.847 77.376 122.44L77.3759 122.892H72.1732L72.1736 121.938H76.1277C76.1278 121.602 76.0598 121.306 75.9235 121.047C75.7872 120.786 75.5956 120.58 75.3485 120.429C75.1042 120.279 74.8174 120.203 74.4878 120.203C74.1299 120.203 73.8174 120.291 73.5503 120.468C73.2861 120.641 73.0815 120.868 72.9365 121.149C72.7944 121.428 72.7233 121.73 72.7232 122.057L72.7229 122.803C72.7228 123.24 72.7993 123.612 72.9526 123.919C73.1088 124.226 73.326 124.46 73.6043 124.622C73.8826 124.781 74.2079 124.861 74.58 124.861C74.8215 124.861 75.0416 124.827 75.2405 124.758C75.4394 124.687 75.6112 124.582 75.7562 124.443C75.9011 124.304 76.0119 124.132 76.0887 123.927L77.2945 124.145C77.1978 124.5 77.0244 124.811 76.7743 125.078C76.5271 125.342 76.216 125.548 75.841 125.696C75.4688 125.841 75.0441 125.913 74.5669 125.913ZM83.2062 128.235L83.2074 124.763H83.1307C83.054 124.902 82.9431 125.061 82.7982 125.24C82.6561 125.419 82.46 125.575 82.21 125.709C81.96 125.842 81.6361 125.909 81.2385 125.909C80.7101 125.909 80.2386 125.774 79.824 125.504C79.4122 125.231 79.0885 124.844 78.8529 124.341C78.6201 123.835 78.5038 123.229 78.5041 122.521C78.5043 121.814 78.6224 121.209 78.8584 120.706C79.0971 120.203 79.4239 119.819 79.8388 119.551C80.2536 119.284 80.7238 119.151 81.2493 119.151C81.6555 119.151 81.9821 119.219 82.2292 119.355C82.4792 119.489 82.6723 119.645 82.8086 119.824C82.9477 120.003 83.0556 120.161 83.1322 120.297H83.2388L83.2391 119.236H84.4833L84.4802 128.235H83.2062ZM81.52 124.822C81.8865 124.822 82.1962 124.726 82.449 124.533C82.7048 124.337 82.898 124.065 83.0288 123.719C83.1624 123.372 83.2293 122.969 83.2295 122.509C83.2296 122.054 83.1644 121.656 83.0339 121.316C82.9033 120.975 82.7117 120.709 82.4589 120.519C82.2062 120.328 81.8937 120.233 81.5216 120.233C81.1381 120.233 80.8185 120.333 80.5628 120.532C80.3071 120.73 80.1138 121.002 79.983 121.345C79.8551 121.689 79.791 122.077 79.7909 122.509C79.7907 122.946 79.8559 123.339 79.9865 123.689C80.117 124.038 80.3101 124.315 80.5657 124.52C80.8241 124.721 81.1422 124.822 81.52 124.822ZM90.3408 123.067L90.3421 119.236H91.6204L91.6182 125.781H90.3655L90.3659 124.648H90.2977C90.147 124.997 89.9055 125.288 89.573 125.521C89.2434 125.751 88.8329 125.866 88.3415 125.866C87.9211 125.866 87.549 125.774 87.2252 125.589C86.9043 125.402 86.6516 125.125 86.467 124.758C86.2854 124.392 86.1946 123.939 86.1948 123.399L86.1962 119.236H87.4702L87.4689 123.246C87.4687 123.692 87.5922 124.047 87.8392 124.311C88.0863 124.575 88.4072 124.707 88.8021 124.707C89.0407 124.707 89.2779 124.648 89.5137 124.528C89.7524 124.409 89.9498 124.229 90.1062 123.987C90.2653 123.746 90.3435 123.439 90.3408 123.067ZM96.1507 125.913C95.5059 125.913 94.9506 125.775 94.4848 125.5C94.0219 125.221 93.6641 124.831 93.4115 124.328C93.1617 123.822 93.0369 123.23 93.0371 122.551C93.0374 121.881 93.1625 121.29 93.4127 120.779C93.6657 120.267 94.0181 119.868 94.4698 119.581C94.9244 119.294 95.4557 119.151 96.0636 119.151C96.4328 119.151 96.7907 119.212 97.1373 119.334C97.4838 119.456 97.7948 119.648 98.0702 119.909C98.3457 120.171 98.5629 120.51 98.7218 120.928C98.8807 121.343 98.9601 121.847 98.9599 122.44L98.9597 122.892H93.7571L93.7574 121.938L97.7116 121.938C97.7117 121.602 97.6436 121.306 97.5074 121.047C97.3711 120.786 97.1794 120.58 96.9324 120.429C96.6881 120.279 96.4012 120.203 96.0717 120.203C95.7138 120.203 95.4013 120.291 95.1342 120.468C94.87 120.641 94.6654 120.868 94.5204 121.149C94.3783 121.428 94.3072 121.73 94.3071 122.057L94.3068 122.803C94.3067 123.24 94.3832 123.612 94.5365 123.919C94.6926 124.226 94.9099 124.46 95.1882 124.622C95.4665 124.781 95.7918 124.861 96.1639 124.861C96.4053 124.861 96.6255 124.827 96.8244 124.758C97.0232 124.687 97.1951 124.582 97.34 124.443C97.485 124.304 97.5958 124.132 97.6726 123.927L98.8784 124.145C98.7817 124.5 98.6083 124.811 98.3582 125.078C98.111 125.342 97.7999 125.548 97.4248 125.696C97.0527 125.841 96.628 125.913 96.1507 125.913ZM105.278 120.834L104.124 121.039C104.075 120.891 103.999 120.75 103.894 120.617C103.791 120.483 103.652 120.374 103.476 120.289C103.3 120.203 103.08 120.161 102.816 120.161C102.455 120.161 102.154 120.242 101.912 120.404C101.671 120.563 101.55 120.769 101.55 121.022C101.55 121.24 101.631 121.416 101.793 121.55C101.955 121.683 102.216 121.793 102.577 121.878L103.616 122.117C104.218 122.256 104.667 122.47 104.962 122.76C105.258 123.05 105.405 123.426 105.405 123.889C105.405 124.281 105.291 124.631 105.064 124.937C104.839 125.241 104.525 125.48 104.122 125.653C103.721 125.826 103.257 125.913 102.729 125.913C101.996 125.913 101.398 125.757 100.935 125.444C100.472 125.129 100.188 124.682 100.083 124.102L101.315 123.915C101.391 124.236 101.549 124.479 101.787 124.643C102.026 124.805 102.337 124.886 102.72 124.886C103.138 124.886 103.472 124.8 103.722 124.626C103.972 124.45 104.097 124.236 104.097 123.983C104.097 123.778 104.02 123.606 103.867 123.467C103.717 123.328 103.485 123.223 103.173 123.152L102.065 122.909C101.454 122.77 101.003 122.548 100.71 122.244C100.421 121.94 100.276 121.556 100.276 121.09C100.276 120.703 100.384 120.365 100.6 120.076C100.816 119.786 101.114 119.56 101.495 119.398C101.876 119.233 102.312 119.151 102.803 119.151C103.511 119.151 104.067 119.304 104.473 119.611C104.88 119.915 105.148 120.323 105.278 120.834ZM109.863 119.236L109.862 120.259H106.287L106.288 119.236H109.863ZM107.247 117.668H108.521L108.519 123.859C108.519 124.106 108.556 124.293 108.629 124.417C108.703 124.54 108.798 124.623 108.915 124.669C109.034 124.712 109.163 124.733 109.303 124.733C109.405 124.733 109.494 124.726 109.571 124.712C109.648 124.697 109.707 124.686 109.75 124.677L109.98 125.73C109.906 125.758 109.801 125.787 109.664 125.815C109.528 125.846 109.358 125.863 109.153 125.866C108.818 125.872 108.505 125.812 108.216 125.687C107.926 125.562 107.692 125.369 107.513 125.108C107.334 124.846 107.245 124.518 107.245 124.123L107.247 117.668ZM119.351 120.834L118.196 121.039C118.148 120.891 118.072 120.75 117.967 120.617C117.864 120.483 117.725 120.374 117.549 120.289C117.373 120.203 117.153 120.161 116.889 120.161C116.528 120.161 116.227 120.242 115.985 120.404C115.744 120.563 115.623 120.769 115.623 121.022C115.623 121.24 115.704 121.416 115.866 121.55C116.027 121.683 116.289 121.793 116.649 121.878L117.689 122.117C118.291 122.256 118.74 122.47 119.035 122.76C119.331 123.05 119.478 123.426 119.478 123.889C119.478 124.281 119.364 124.631 119.137 124.937C118.912 125.241 118.598 125.48 118.195 125.653C117.794 125.826 117.33 125.913 116.801 125.913C116.069 125.913 115.471 125.757 115.008 125.444C114.545 125.129 114.261 124.682 114.156 124.102L115.388 123.915C115.464 124.236 115.622 124.479 115.86 124.643C116.099 124.805 116.41 124.886 116.793 124.886C117.211 124.886 117.545 124.8 117.795 124.626C118.045 124.45 118.17 124.236 118.17 123.983C118.17 123.778 118.093 123.606 117.94 123.467C117.789 123.328 117.558 123.223 117.246 123.152L116.138 122.909C115.527 122.77 115.076 122.548 114.783 122.244C114.493 121.94 114.349 121.556 114.349 121.09C114.349 120.703 114.457 120.365 114.673 120.076C114.889 119.786 115.187 119.56 115.568 119.398C115.949 119.233 116.385 119.151 116.876 119.151C117.584 119.151 118.14 119.304 118.546 119.611C118.952 119.915 119.221 120.323 119.351 120.834ZM123.699 125.913C123.054 125.913 122.499 125.775 122.033 125.5C121.57 125.221 121.212 124.831 120.96 124.328C120.71 123.822 120.585 123.23 120.585 122.551C120.586 121.881 120.711 121.29 120.961 120.779C121.214 120.267 121.566 119.868 122.018 119.581C122.473 119.294 123.004 119.151 123.612 119.151C123.981 119.151 124.339 119.212 124.685 119.334C125.032 119.456 125.343 119.648 125.618 119.909C125.894 120.171 126.111 120.51 126.27 120.928C126.429 121.343 126.508 121.847 126.508 122.44L126.508 122.892H121.305L121.306 121.938H125.26C125.26 121.602 125.192 121.306 125.056 121.047C124.919 120.786 124.728 120.58 124.481 120.429C124.236 120.279 123.949 120.203 123.62 120.203C123.262 120.203 122.949 120.291 122.682 120.468C122.418 120.641 122.214 120.868 122.069 121.149C121.926 121.428 121.855 121.73 121.855 122.057L121.855 122.803C121.855 123.24 121.931 123.612 122.085 123.919C122.241 124.226 122.458 124.46 122.736 124.622C123.015 124.781 123.34 124.861 123.712 124.861C123.953 124.861 124.174 124.827 124.373 124.758C124.571 124.687 124.743 124.582 124.888 124.443C125.033 124.304 125.144 124.132 125.221 123.927L126.427 124.145C126.33 124.5 126.156 124.811 125.906 125.078C125.659 125.342 125.348 125.548 124.973 125.696C124.601 125.841 124.176 125.913 123.699 125.913ZM129.196 121.895L129.195 125.781H127.92L127.923 119.236H129.146L129.145 120.301H129.226C129.377 119.955 129.613 119.676 129.934 119.466C130.258 119.256 130.665 119.151 131.157 119.151C131.603 119.151 131.993 119.245 132.328 119.432C132.664 119.617 132.923 119.892 133.108 120.259C133.292 120.625 133.385 121.078 133.384 121.618L133.383 125.781H132.109L132.11 121.771C132.111 121.297 131.987 120.926 131.74 120.659C131.493 120.389 131.154 120.255 130.722 120.255C130.426 120.255 130.164 120.318 129.933 120.446C129.706 120.574 129.526 120.762 129.392 121.009C129.261 121.253 129.196 121.548 129.196 121.895ZM138.149 119.236L138.149 120.259H134.574L134.574 119.236H138.149ZM135.533 117.668H136.807L136.805 123.859C136.805 124.106 136.842 124.293 136.916 124.417C136.99 124.54 137.085 124.623 137.201 124.669C137.321 124.712 137.45 124.733 137.589 124.733C137.691 124.733 137.781 124.726 137.857 124.712C137.934 124.697 137.994 124.686 138.036 124.677L138.266 125.73C138.192 125.758 138.087 125.787 137.951 125.815C137.814 125.846 137.644 125.863 137.439 125.866C137.104 125.872 136.792 125.812 136.502 125.687C136.212 125.562 135.978 125.369 135.799 125.108C135.62 124.846 135.531 124.518 135.531 124.123L135.533 117.668Z" fill="white"/>
<path d="M45.2674 183.765H43.8698L47.0131 175.038H48.5342L51.6716 183.765H50.274L47.8093 176.624H47.7411L45.2674 183.765ZM45.5029 180.348H50.0365L50.0362 181.455H45.5025L45.5029 180.348ZM52.8287 186.219L52.8317 177.22H54.0759L54.0756 178.281H54.1821C54.256 178.145 54.3626 177.987 54.5018 177.808C54.6411 177.629 54.8343 177.473 55.0815 177.339C55.3286 177.203 55.6553 177.135 56.0616 177.135C56.5899 177.135 57.0614 177.268 57.4761 177.535C57.8907 177.802 58.2158 178.187 58.4514 178.69C58.6899 179.193 58.809 179.798 58.8087 180.505C58.8085 181.213 58.6904 181.819 58.4544 182.325C58.2185 182.827 57.8945 183.215 57.4826 183.488C57.0706 183.758 56.6004 183.893 56.072 183.893C55.6743 183.893 55.3491 183.826 55.0963 183.692C54.8464 183.559 54.6505 183.403 54.5085 183.224C54.3665 183.045 54.2572 182.886 54.1806 182.747H54.1039L54.1027 186.219H52.8287ZM54.0791 180.492C54.0789 180.953 54.1455 181.356 54.2789 181.703C54.4123 182.049 54.6054 182.32 54.8581 182.516C55.1109 182.71 55.4205 182.806 55.7869 182.806C56.1676 182.806 56.4858 182.705 56.7415 182.504C56.9972 182.299 57.1905 182.022 57.3213 181.673C57.4549 181.323 57.5218 180.93 57.5219 180.492C57.5221 180.061 57.4569 179.673 57.3263 179.329C57.1986 178.986 57.0055 178.714 56.7471 178.515C56.4915 178.317 56.172 178.217 55.7885 178.217C55.4192 178.217 55.1067 178.312 54.851 178.503C54.5981 178.693 54.4063 178.959 54.2755 179.299C54.1447 179.64 54.0792 180.038 54.0791 180.492ZM60.2342 186.219L60.2373 177.22H61.4815L61.4811 178.281H61.5876C61.6615 178.145 61.7681 177.987 61.9074 177.808C62.0466 177.629 62.2398 177.473 62.487 177.339C62.7342 177.203 63.0609 177.135 63.4671 177.135C63.9955 177.135 64.467 177.268 64.8816 177.535C65.2962 177.802 65.6214 178.187 65.857 178.69C66.0954 179.193 66.2145 179.798 66.2143 180.505C66.214 181.213 66.0959 181.819 65.86 182.325C65.624 182.827 65.3001 183.215 64.8881 183.488C64.4761 183.758 64.0059 183.893 63.4776 183.893C63.0799 183.893 62.7547 183.826 62.5019 183.692C62.252 183.559 62.056 183.403 61.914 183.224C61.7721 183.045 61.6628 182.886 61.5861 182.747H61.5094L61.5082 186.219H60.2342ZM61.4846 180.492C61.4845 180.953 61.5511 181.356 61.6845 181.703C61.8179 182.049 62.0109 182.32 62.2637 182.516C62.5164 182.71 62.826 182.806 63.1925 182.806C63.5731 182.806 63.8913 182.705 64.147 182.504C64.4028 182.299 64.596 182.022 64.7268 181.673C64.8604 181.323 64.9273 180.93 64.9275 180.492C64.9276 180.061 64.8624 179.673 64.7319 179.329C64.6041 178.986 64.4111 178.714 64.1526 178.515C63.8971 178.317 63.5775 178.217 63.194 178.217C62.8247 178.217 62.5122 178.312 62.2565 178.503C62.0036 178.693 61.8118 178.959 61.681 179.299C61.5502 179.64 61.4848 180.038 61.4846 180.492ZM68.9176 175.038L68.9146 183.765H67.6406L67.6436 175.038H68.9176ZM70.6286 183.765L70.6308 177.22H71.9048L71.9026 183.765H70.6286ZM71.2746 176.21C71.053 176.21 70.8627 176.136 70.7037 175.989C70.5475 175.838 70.4694 175.659 70.4695 175.452C70.4696 175.242 70.5477 175.063 70.704 174.915C70.8632 174.764 71.0535 174.689 71.2751 174.689C71.4966 174.689 71.6855 174.764 71.8417 174.915C72.0007 175.063 72.0802 175.242 72.0801 175.452C72.0801 175.659 72.0005 175.838 71.8413 175.989C71.6851 176.136 71.4961 176.21 71.2746 176.21ZM76.3734 183.897C75.7399 183.897 75.1946 183.754 74.7373 183.467C74.2829 183.177 73.9336 182.778 73.6895 182.269C73.4454 181.761 73.3234 181.178 73.3237 180.522C73.3239 179.858 73.4491 179.271 73.6992 178.763C73.9494 178.251 74.3018 177.852 74.7564 177.565C75.211 177.278 75.7465 177.135 76.3629 177.135C76.86 177.135 77.3031 177.227 77.6922 177.412C78.0813 177.594 78.3951 177.849 78.6336 178.179C78.875 178.508 79.0183 178.893 79.0636 179.333H77.8236C77.7556 179.027 77.5994 178.763 77.3552 178.541C77.1138 178.319 76.79 178.209 76.3838 178.209C76.0288 178.209 75.7177 178.302 75.4506 178.49C75.1863 178.674 74.9803 178.939 74.8325 179.282C74.6846 179.623 74.6107 180.027 74.6105 180.492C74.6103 180.97 74.6826 181.382 74.8274 181.728C74.9721 182.075 75.1766 182.343 75.4407 182.533C75.7076 182.724 76.0215 182.819 76.3823 182.819C76.6237 182.819 76.8425 182.775 77.0385 182.687C77.2374 182.596 77.4036 182.467 77.5372 182.299C77.6736 182.132 77.7688 181.93 77.8228 181.694H79.0628C79.0172 182.117 78.8793 182.495 78.6491 182.827C78.4189 183.16 78.1106 183.421 77.7242 183.611C77.3406 183.802 76.8904 183.897 76.3734 183.897ZM82.3291 183.91C81.9144 183.91 81.5394 183.833 81.2043 183.68C80.8692 183.523 80.6036 183.298 80.4077 183.002C80.2147 182.707 80.1182 182.345 80.1184 181.916C80.1185 181.546 80.1896 181.242 80.3317 181.004C80.4738 180.765 80.6656 180.576 80.9071 180.437C81.1486 180.298 81.4185 180.193 81.7168 180.122C82.0151 180.051 82.3191 179.997 82.6287 179.96C83.0208 179.914 83.3389 179.877 83.5832 179.849C83.8275 179.818 84.0051 179.768 84.1159 179.7C84.2267 179.632 84.2821 179.521 84.2822 179.368L84.2822 179.338C84.2823 178.966 84.1773 178.677 83.9672 178.473C83.7599 178.268 83.4503 178.166 83.0384 178.166C82.6095 178.166 82.2714 178.261 82.0242 178.451C81.7798 178.639 81.6107 178.848 81.5169 179.078L80.3197 178.805C80.4619 178.407 80.6693 178.086 80.9421 177.842C81.2177 177.595 81.5345 177.416 81.8925 177.305C82.2504 177.192 82.6269 177.135 83.0217 177.135C83.283 177.135 83.56 177.166 83.8526 177.229C84.148 177.288 84.4235 177.399 84.6791 177.561C84.9375 177.723 85.1491 177.954 85.3137 178.255C85.4784 178.554 85.5606 178.941 85.5605 179.419L85.559 183.765H84.3148L84.3151 182.87H84.2639C84.1815 183.035 84.0579 183.197 83.8931 183.356C83.7283 183.515 83.5166 183.647 83.2581 183.752C82.9995 183.857 82.6899 183.91 82.3291 183.91ZM82.6064 182.887C82.9587 182.887 83.2598 182.818 83.5098 182.678C83.7627 182.539 83.9545 182.357 84.0852 182.133C84.2188 181.906 84.2857 181.663 84.2858 181.404L84.286 180.561C84.2406 180.606 84.1525 180.649 84.0218 180.688C83.894 180.725 83.7477 180.758 83.5829 180.786C83.4181 180.812 83.2576 180.836 83.1014 180.859C82.9451 180.879 82.8145 180.896 82.7094 180.91C82.4622 180.941 82.2364 180.994 82.0318 181.068C81.8301 181.142 81.6682 181.248 81.546 181.387C81.4266 181.524 81.3669 181.705 81.3668 181.933C81.3667 182.248 81.4831 182.487 81.716 182.649C81.9488 182.808 82.2457 182.887 82.6064 182.887ZM90.3132 177.22L90.3129 178.243H86.7379L86.7383 177.22H90.3132ZM87.6975 175.652H88.9716L88.9695 181.843C88.9694 182.09 89.0062 182.276 89.0801 182.401C89.1539 182.524 89.249 182.607 89.3655 182.653C89.4847 182.695 89.614 182.717 89.7532 182.717C89.8554 182.717 89.9449 182.71 90.0216 182.695C90.0983 182.681 90.158 182.67 90.2006 182.661L90.4303 183.714C90.3565 183.742 90.2513 183.771 90.115 183.799C89.9786 183.83 89.8082 183.847 89.6037 183.85C89.2685 183.856 88.956 183.796 88.6663 183.671C88.3766 183.546 88.1423 183.353 87.9634 183.092C87.7846 182.83 87.6952 182.502 87.6953 182.107L87.6975 175.652ZM91.7203 183.765L91.7225 177.22H92.9966L92.9943 183.765H91.7203ZM92.3663 176.21C92.1447 176.21 91.9544 176.136 91.7954 175.989C91.6392 175.838 91.5612 175.659 91.5612 175.452C91.5613 175.242 91.6395 175.063 91.7958 174.915C91.9549 174.764 92.1452 174.689 92.3668 174.689C92.5884 174.689 92.7773 174.764 92.9334 174.915C93.0925 175.063 93.1719 175.242 93.1719 175.452C93.1718 175.659 93.0922 175.838 92.9331 175.989C92.7768 176.136 92.5879 176.21 92.3663 176.21ZM97.4651 183.897C96.8515 183.897 96.3161 183.756 95.8589 183.475C95.4016 183.194 95.0467 182.8 94.794 182.295C94.5414 181.789 94.4152 181.198 94.4154 180.522C94.4156 179.843 94.5423 179.25 94.7952 178.741C95.0482 178.233 95.4035 177.838 95.8609 177.557C96.3183 177.275 96.8538 177.135 97.4674 177.135C98.081 177.135 98.6164 177.275 99.0737 177.557C99.5309 177.838 99.8858 178.233 100.138 178.741C100.391 179.25 100.517 179.843 100.517 180.522C100.517 181.198 100.39 181.789 100.137 182.295C99.8843 182.8 99.5291 183.194 99.0716 183.475C98.6142 183.756 98.0787 183.897 97.4651 183.897ZM97.4697 182.827C97.8674 182.827 98.197 182.722 98.4584 182.512C98.7198 182.302 98.9131 182.022 99.0382 181.673C99.1661 181.323 99.2302 180.938 99.2303 180.518C99.2304 180.1 99.1667 179.717 99.0389 179.368C98.9141 179.015 98.721 178.733 98.4597 178.52C98.1985 178.307 97.869 178.2 97.4713 178.2C97.0708 178.2 96.7384 178.307 96.4741 178.52C96.2127 178.733 96.018 179.015 95.8901 179.368C95.765 179.717 95.7024 180.1 95.7022 180.518C95.7021 180.938 95.7644 181.323 95.8893 181.673C96.017 182.022 96.2115 182.302 96.4728 182.512C96.7369 182.722 97.0692 182.827 97.4697 182.827ZM103.213 179.879L103.212 183.765H101.938L101.94 177.22H103.163L103.163 178.285H103.244C103.394 177.939 103.63 177.66 103.951 177.45C104.275 177.24 104.683 177.135 105.174 177.135C105.62 177.135 106.011 177.229 106.346 177.416C106.681 177.601 106.941 177.876 107.126 178.243C107.31 178.609 107.402 179.062 107.402 179.602L107.401 183.765H106.127L106.128 179.755C106.128 179.281 106.005 178.91 105.758 178.643C105.511 178.373 105.171 178.238 104.739 178.238C104.444 178.238 104.181 178.302 103.951 178.43C103.724 178.558 103.543 178.745 103.41 178.993C103.279 179.237 103.214 179.532 103.213 179.879ZM112.284 186.219L112.287 177.22H113.531L113.531 178.281H113.637C113.711 178.145 113.818 177.987 113.957 177.808C114.096 177.629 114.29 177.473 114.537 177.339C114.784 177.203 115.111 177.135 115.517 177.135C116.045 177.135 116.517 177.268 116.931 177.535C117.346 177.802 117.671 178.187 117.907 178.69C118.145 179.193 118.264 179.798 118.264 180.505C118.264 181.213 118.146 181.819 117.91 182.325C117.674 182.827 117.35 183.215 116.938 183.488C116.526 183.758 116.056 183.893 115.527 183.893C115.13 183.893 114.804 183.826 114.552 183.692C114.302 183.559 114.106 183.403 113.964 183.224C113.822 183.045 113.712 182.886 113.636 182.747H113.559L113.558 186.219H112.284ZM113.534 180.492C113.534 180.953 113.601 181.356 113.734 181.703C113.868 182.049 114.061 182.32 114.313 182.516C114.566 182.71 114.876 182.806 115.242 182.806C115.623 182.806 115.941 182.705 116.197 182.504C116.452 182.299 116.646 182.022 116.777 181.673C116.91 181.323 116.977 180.93 116.977 180.492C116.977 180.061 116.912 179.673 116.782 179.329C116.654 178.986 116.461 178.714 116.202 178.515C115.947 178.317 115.627 178.217 115.244 178.217C114.874 178.217 114.562 178.312 114.306 178.503C114.053 178.693 113.862 178.959 113.731 179.299C113.6 179.64 113.534 180.038 113.534 180.492ZM120.967 175.038L120.964 183.765H119.69L119.693 175.038H120.967ZM124.583 183.91C124.168 183.91 123.793 183.833 123.458 183.68C123.123 183.523 122.857 183.298 122.662 183.002C122.468 182.707 122.372 182.345 122.372 181.916C122.372 181.546 122.443 181.242 122.586 181.004C122.728 180.765 122.919 180.576 123.161 180.437C123.402 180.298 123.672 180.193 123.971 180.122C124.269 180.051 124.573 179.997 124.883 179.96C125.275 179.914 125.593 179.877 125.837 179.849C126.081 179.818 126.259 179.768 126.37 179.7C126.48 179.632 126.536 179.521 126.536 179.368L126.536 179.338C126.536 178.966 126.431 178.677 126.221 178.473C126.014 178.268 125.704 178.166 125.292 178.166C124.863 178.166 124.525 178.261 124.278 178.451C124.034 178.639 123.865 178.848 123.771 179.078L122.573 178.805C122.716 178.407 122.923 178.086 123.196 177.842C123.472 177.595 123.788 177.416 124.146 177.305C124.504 177.192 124.881 177.135 125.275 177.135C125.537 177.135 125.814 177.166 126.106 177.229C126.402 177.288 126.677 177.399 126.933 177.561C127.191 177.723 127.403 177.954 127.568 178.255C127.732 178.554 127.814 178.941 127.814 179.419L127.813 183.765H126.569L126.569 182.87H126.518C126.435 183.035 126.312 183.197 126.147 183.356C125.982 183.515 125.77 183.647 125.512 183.752C125.253 183.857 124.944 183.91 124.583 183.91ZM124.86 182.887C125.212 182.887 125.514 182.818 125.764 182.678C126.016 182.539 126.208 182.357 126.339 182.133C126.473 181.906 126.539 181.663 126.54 181.404L126.54 180.561C126.494 180.606 126.406 180.649 126.276 180.688C126.148 180.725 126.001 180.758 125.837 180.786C125.672 180.812 125.511 180.836 125.355 180.859C125.199 180.879 125.068 180.896 124.963 180.91C124.716 180.941 124.49 180.994 124.286 181.068C124.084 181.142 123.922 181.248 123.8 181.387C123.68 181.524 123.621 181.705 123.621 181.933C123.62 182.248 123.737 182.487 123.97 182.649C124.203 182.808 124.499 182.887 124.86 182.887ZM132.266 183.897C131.633 183.897 131.088 183.754 130.63 183.467C130.176 183.177 129.827 182.778 129.583 182.269C129.339 181.761 129.217 181.178 129.217 180.522C129.217 179.858 129.342 179.271 129.592 178.763C129.842 178.251 130.195 177.852 130.649 177.565C131.104 177.278 131.64 177.135 132.256 177.135C132.753 177.135 133.196 177.227 133.585 177.412C133.974 177.594 134.288 177.849 134.527 178.179C134.768 178.508 134.911 178.893 134.957 179.333H133.717C133.649 179.027 133.493 178.763 133.248 178.541C133.007 178.319 132.683 178.209 132.277 178.209C131.922 178.209 131.611 178.302 131.344 178.49C131.079 178.674 130.873 178.939 130.726 179.282C130.578 179.623 130.504 180.027 130.504 180.492C130.503 180.97 130.576 181.382 130.72 181.728C130.865 182.075 131.07 182.343 131.334 182.533C131.601 182.724 131.915 182.819 132.275 182.819C132.517 182.819 132.736 182.775 132.932 182.687C133.13 182.596 133.297 182.467 133.43 182.299C133.567 182.132 133.662 181.93 133.716 181.694H134.956C134.91 182.117 134.772 182.495 134.542 182.827C134.312 183.16 134.004 183.421 133.617 183.611C133.234 183.802 132.783 183.897 132.266 183.897ZM139.138 183.897C138.494 183.897 137.938 183.759 137.472 183.484C137.01 183.205 136.652 182.815 136.399 182.312C136.149 181.806 136.024 181.214 136.025 180.535C136.025 179.865 136.15 179.274 136.4 178.763C136.653 178.251 137.006 177.852 137.457 177.565C137.912 177.278 138.443 177.135 139.051 177.135C139.42 177.135 139.778 177.196 140.125 177.318C140.471 177.44 140.782 177.632 141.058 177.893C141.333 178.155 141.55 178.494 141.709 178.912C141.868 179.326 141.948 179.831 141.947 180.424L141.947 180.876H136.745L136.745 179.922H140.699C140.699 179.586 140.631 179.289 140.495 179.031C140.359 178.77 140.167 178.564 139.92 178.413C139.676 178.263 139.389 178.187 139.059 178.187C138.701 178.187 138.389 178.275 138.122 178.451C137.858 178.625 137.653 178.852 137.508 179.133C137.366 179.412 137.295 179.714 137.295 180.041L137.294 180.786C137.294 181.224 137.371 181.596 137.524 181.903C137.68 182.21 137.897 182.444 138.176 182.606C138.454 182.765 138.779 182.845 139.151 182.845C139.393 182.845 139.613 182.81 139.812 182.742C140.011 182.671 140.183 182.566 140.328 182.427C140.473 182.288 140.583 182.116 140.66 181.911L141.866 182.129C141.769 182.484 141.596 182.795 141.346 183.062C141.099 183.326 140.787 183.532 140.412 183.68C140.04 183.825 139.616 183.897 139.138 183.897ZM145.81 183.893C145.282 183.893 144.81 183.758 144.395 183.488C143.984 183.215 143.66 182.827 143.424 182.325C143.192 181.819 143.075 181.213 143.076 180.505C143.076 179.798 143.194 179.193 143.43 178.69C143.669 178.187 143.995 177.802 144.41 177.535C144.825 177.268 145.295 177.135 145.821 177.135C146.227 177.135 146.554 177.203 146.801 177.339C147.051 177.473 147.244 177.629 147.38 177.808C147.519 177.987 147.627 178.145 147.704 178.281H147.78L147.782 175.038H149.056L149.053 183.765H147.808L147.809 182.747H147.702C147.625 182.886 147.515 183.045 147.37 183.224C147.228 183.403 147.032 183.559 146.781 183.692C146.531 183.826 146.208 183.893 145.81 183.893ZM146.092 182.806C146.458 182.806 146.768 182.71 147.021 182.516C147.276 182.32 147.469 182.049 147.6 181.703C147.734 181.356 147.801 180.953 147.801 180.492C147.801 180.038 147.736 179.64 147.605 179.299C147.475 178.959 147.283 178.693 147.03 178.503C146.778 178.312 146.465 178.217 146.093 178.217C145.71 178.217 145.39 178.317 145.134 178.515C144.879 178.714 144.685 178.986 144.555 179.329C144.427 179.673 144.363 180.061 144.362 180.492C144.362 180.93 144.427 181.323 144.558 181.673C144.689 182.022 144.882 182.299 145.137 182.504C145.396 182.705 145.714 182.806 146.092 182.806Z" fill="white"/>
<path d="M45.833 221.034L45.83 229.76H44.5134L44.5163 221.034H45.833ZM47.7474 229.76L47.7504 221.034H50.8609C51.5398 221.034 52.1022 221.157 52.5481 221.405C52.994 221.652 53.3277 221.99 53.5491 222.419C53.7705 222.845 53.8811 223.325 53.881 223.859C53.8808 224.396 53.7684 224.879 53.5439 225.308C53.3221 225.734 52.9868 226.072 52.5379 226.322C52.0919 226.569 51.5308 226.692 50.8547 226.692H48.7157L48.7161 225.576H50.7358C51.1647 225.576 51.5127 225.502 51.7798 225.354C52.0469 225.204 52.2429 224.999 52.368 224.741C52.4931 224.482 52.5557 224.188 52.5558 223.859C52.5559 223.529 52.4935 223.237 52.3686 222.981C52.2437 222.725 52.0464 222.525 51.7766 222.38C51.5096 222.235 51.1574 222.163 50.7199 222.163H49.0667L49.0641 229.76H47.7474ZM63.0042 225.397C63.0039 226.329 62.8332 227.13 62.4921 227.8C62.151 228.468 61.6835 228.982 61.0897 229.343C60.4987 229.701 59.8269 229.88 59.0741 229.88C58.3185 229.88 57.6439 229.701 57.0503 229.343C56.4596 228.982 55.9939 228.466 55.6532 227.796C55.3126 227.126 55.1424 226.326 55.1427 225.397C55.1431 224.465 55.3138 223.666 55.6549 222.998C55.996 222.328 56.462 221.814 57.053 221.456C57.6468 221.095 58.3215 220.915 59.0771 220.915C59.8299 220.915 60.5017 221.095 61.0924 221.456C61.686 221.814 62.1531 222.328 62.4937 222.998C62.8344 223.666 63.0045 224.465 63.0042 225.397ZM61.7004 225.397C61.7006 224.687 61.5858 224.089 61.3558 223.603C61.1288 223.115 60.8164 222.745 60.4188 222.495C60.024 222.243 59.5767 222.116 59.0767 222.116C58.5739 222.116 58.1251 222.243 57.7301 222.495C57.3352 222.745 57.0226 223.115 56.7923 223.603C56.5649 224.089 56.4511 224.687 56.4509 225.397C56.4506 226.107 56.564 226.707 56.7911 227.195C57.0211 227.681 57.3334 228.05 57.7282 228.303C58.1229 228.553 58.5717 228.678 59.0745 228.678C59.5744 228.678 60.0219 228.553 60.4168 228.303C60.8146 228.05 61.1272 227.681 61.3546 227.195C61.5849 226.707 61.7001 226.107 61.7004 225.397ZM68.5569 229.76H67.1593L70.3026 221.034H71.8238L74.9611 229.76H73.5635L71.0989 222.619H71.0307L68.5569 229.76ZM68.7924 226.343H73.3261L73.3257 227.451H68.792L68.7924 226.343ZM77.396 221.034L77.393 229.76H76.119L76.122 221.034H77.396ZM80.384 221.034L80.381 229.76H79.107L79.11 221.034H80.384ZM84.8518 229.892C84.2382 229.892 83.7028 229.752 83.2456 229.471C82.7883 229.189 82.4334 228.796 82.1807 228.29C81.9281 227.785 81.8019 227.194 81.8021 226.518C81.8023 225.839 81.929 225.245 82.1819 224.737C82.4349 224.228 82.7901 223.833 83.2476 223.552C83.705 223.271 84.2405 223.13 84.8541 223.13C85.4677 223.13 86.0031 223.271 86.4604 223.552C86.9176 223.833 87.2725 224.228 87.5252 224.737C87.7778 225.245 87.904 225.839 87.9038 226.518C87.9036 227.194 87.777 227.785 87.524 228.29C87.271 228.796 86.9158 229.189 86.4583 229.471C86.0009 229.752 85.4654 229.892 84.8518 229.892ZM84.8564 228.823C85.2541 228.823 85.5837 228.718 85.8451 228.508C86.1065 228.297 86.2998 228.018 86.4249 227.668C86.5528 227.319 86.6169 226.934 86.617 226.513C86.6171 226.096 86.5534 225.712 86.4256 225.363C86.3008 225.011 86.1077 224.728 85.8464 224.515C85.5852 224.302 85.2557 224.195 84.858 224.195C84.4575 224.195 84.1251 224.302 83.8608 224.515C83.5994 224.728 83.4047 225.011 83.2768 225.363C83.1517 225.712 83.0891 226.096 83.0889 226.513C83.0888 226.934 83.1511 227.319 83.276 227.668C83.4037 228.018 83.5982 228.297 83.8595 228.508C84.1236 228.718 84.4559 228.823 84.8564 228.823ZM92.3821 223.215L92.3818 224.238H88.8068L88.8072 223.215H92.3821ZM89.7664 221.647H91.0405L91.0384 227.839C91.0383 228.086 91.0751 228.272 91.1489 228.397C91.2228 228.519 91.3179 228.603 91.4343 228.648C91.5536 228.691 91.6829 228.712 91.8221 228.712C91.9243 228.712 92.0138 228.705 92.0905 228.691C92.1672 228.677 92.2269 228.665 92.2695 228.657L92.4992 229.709C92.4254 229.738 92.3202 229.766 92.1839 229.794C92.0475 229.826 91.8771 229.843 91.6726 229.845C91.3374 229.851 91.0249 229.792 90.7352 229.667C90.4455 229.542 90.2112 229.348 90.0323 229.087C89.8535 228.826 89.7641 228.498 89.7642 228.103L89.7664 221.647ZM93.7892 229.76L93.7914 223.215H95.0143L95.014 224.281H95.0949C95.2314 223.92 95.4545 223.639 95.7642 223.437C96.0739 223.232 96.4446 223.13 96.8764 223.13C97.3139 223.13 97.6803 223.232 97.9756 223.437C98.2738 223.642 98.4939 223.923 98.6358 224.281H98.704C98.8603 223.931 99.109 223.653 99.4499 223.446C99.7909 223.235 100.197 223.13 100.669 223.13C101.262 223.13 101.747 223.316 102.121 223.688C102.499 224.061 102.688 224.622 102.688 225.371L102.686 229.76H101.412L101.414 225.491C101.414 225.048 101.293 224.727 101.052 224.528C100.81 224.329 100.522 224.23 100.187 224.23C99.7721 224.23 99.4496 224.357 99.2194 224.613C98.9892 224.866 98.8741 225.191 98.874 225.589L98.8725 229.76H97.6028L97.6042 225.41C97.6044 225.055 97.4937 224.769 97.2722 224.553C97.0507 224.337 96.7624 224.23 96.4073 224.23C96.1659 224.23 95.9429 224.293 95.7383 224.421C95.5366 224.546 95.3732 224.721 95.2481 224.945C95.1259 225.17 95.0647 225.43 95.0646 225.725L95.0632 229.76H93.7892ZM107.214 229.892C106.57 229.892 106.014 229.755 105.548 229.479C105.086 229.201 104.728 228.81 104.475 228.307C104.225 227.802 104.101 227.209 104.101 226.53C104.101 225.86 104.226 225.269 104.476 224.758C104.729 224.247 105.082 223.847 105.533 223.561C105.988 223.274 106.519 223.13 107.127 223.13C107.496 223.13 107.854 223.191 108.201 223.313C108.547 223.436 108.858 223.627 109.134 223.889C109.409 224.15 109.627 224.489 109.785 224.907C109.944 225.322 110.024 225.826 110.024 226.42L110.023 226.871H104.821L104.821 225.917H108.775C108.775 225.582 108.707 225.285 108.571 225.026C108.435 224.765 108.243 224.559 107.996 224.408C107.752 224.258 107.465 224.183 107.135 224.183C106.777 224.183 106.465 224.271 106.198 224.447C105.934 224.62 105.729 224.847 105.584 225.129C105.442 225.407 105.371 225.71 105.371 226.036L105.37 226.782C105.37 227.219 105.447 227.591 105.6 227.898C105.756 228.205 105.974 228.439 106.252 228.601C106.53 228.76 106.855 228.84 107.228 228.84C107.469 228.84 107.689 228.806 107.888 228.738C108.087 228.667 108.259 228.562 108.404 228.422C108.549 228.283 108.659 228.111 108.736 227.907L109.942 228.124C109.845 228.479 109.672 228.79 109.422 229.057C109.175 229.321 108.863 229.527 108.488 229.675C108.116 229.82 107.692 229.892 107.214 229.892ZM112.711 225.874L112.71 229.76H111.436L111.438 223.215H112.661L112.661 224.281H112.742C112.892 223.934 113.128 223.656 113.449 223.446C113.773 223.235 114.181 223.13 114.672 223.13C115.118 223.13 115.509 223.224 115.844 223.411C116.179 223.596 116.439 223.872 116.623 224.238C116.808 224.604 116.9 225.058 116.9 225.597L116.899 229.76H115.624L115.626 225.751C115.626 225.276 115.503 224.906 115.256 224.639C115.008 224.369 114.669 224.234 114.237 224.234C113.942 224.234 113.679 224.298 113.449 224.426C113.222 224.553 113.041 224.741 112.908 224.988C112.777 225.232 112.711 225.528 112.711 225.874ZM121.664 223.215L121.664 224.238H118.089L118.09 223.215H121.664ZM119.049 221.647H120.323L120.321 227.839C120.321 228.086 120.357 228.272 120.431 228.397C120.505 228.519 120.6 228.603 120.717 228.648C120.836 228.691 120.965 228.712 121.104 228.712C121.207 228.712 121.296 228.705 121.373 228.691C121.45 228.677 121.509 228.665 121.552 228.657L121.782 229.709C121.708 229.738 121.603 229.766 121.466 229.794C121.33 229.826 121.159 229.843 120.955 229.845C120.62 229.851 120.307 229.792 120.018 229.667C119.728 229.542 119.494 229.348 119.315 229.087C119.136 228.826 119.046 228.498 119.047 228.103L119.049 221.647ZM131.153 224.813L129.998 225.018C129.95 224.87 129.873 224.729 129.768 224.596C129.666 224.462 129.527 224.353 129.351 224.268C129.175 224.183 128.955 224.14 128.691 224.14C128.33 224.14 128.029 224.221 127.787 224.383C127.546 224.542 127.425 224.748 127.425 225.001C127.425 225.219 127.506 225.396 127.667 225.529C127.829 225.663 128.091 225.772 128.451 225.857L129.491 226.096C130.093 226.235 130.542 226.449 130.837 226.739C131.132 227.029 131.28 227.405 131.28 227.868C131.28 228.26 131.166 228.61 130.939 228.917C130.714 229.221 130.4 229.459 129.997 229.632C129.596 229.806 129.132 229.892 128.603 229.892C127.87 229.892 127.273 229.736 126.81 229.424C126.347 229.108 126.063 228.661 125.958 228.081L127.189 227.894C127.266 228.215 127.424 228.458 127.662 228.623C127.901 228.784 128.212 228.865 128.595 228.865C129.013 228.865 129.347 228.779 129.597 228.606C129.847 228.429 129.972 228.215 129.972 227.962C129.972 227.758 129.895 227.586 129.742 227.447C129.591 227.307 129.36 227.202 129.047 227.131L127.94 226.888C127.329 226.749 126.877 226.528 126.585 226.224C126.295 225.92 126.15 225.535 126.151 225.069C126.151 224.683 126.259 224.345 126.475 224.055C126.691 223.765 126.989 223.539 127.37 223.377C127.751 223.213 128.187 223.13 128.678 223.13C129.385 223.13 129.942 223.284 130.348 223.59C130.754 223.894 131.023 224.302 131.153 224.813ZM135.737 223.215L135.737 224.238H132.162L132.162 223.215H135.737ZM133.122 221.647H134.396L134.394 227.839C134.394 228.086 134.43 228.272 134.504 228.397C134.578 228.519 134.673 228.603 134.79 228.648C134.909 228.691 135.038 228.712 135.177 228.712C135.28 228.712 135.369 228.705 135.446 228.691C135.522 228.677 135.582 228.665 135.625 228.657L135.854 229.709C135.781 229.738 135.675 229.766 135.539 229.794C135.403 229.826 135.232 229.843 135.028 229.845C134.693 229.851 134.38 229.792 134.09 229.667C133.801 229.542 133.566 229.348 133.388 229.087C133.209 228.826 133.119 228.498 133.119 228.103L133.122 221.647ZM139.049 229.905C138.634 229.905 138.259 229.828 137.924 229.675C137.589 229.519 137.324 229.293 137.128 228.998C136.935 228.702 136.838 228.34 136.838 227.911C136.838 227.542 136.91 227.238 137.052 226.999C137.194 226.761 137.386 226.572 137.627 226.432C137.869 226.293 138.138 226.188 138.437 226.117C138.735 226.046 139.039 225.992 139.349 225.955C139.741 225.91 140.059 225.873 140.303 225.844C140.547 225.813 140.725 225.763 140.836 225.695C140.947 225.627 141.002 225.516 141.002 225.363L141.002 225.333C141.002 224.961 140.897 224.673 140.687 224.468C140.48 224.264 140.17 224.161 139.758 224.161C139.329 224.161 138.991 224.257 138.744 224.447C138.5 224.634 138.331 224.843 138.237 225.073L137.04 224.8C137.182 224.403 137.389 224.082 137.662 223.838C137.938 223.59 138.254 223.411 138.612 223.301C138.97 223.187 139.347 223.13 139.742 223.13C140.003 223.13 140.28 223.161 140.572 223.224C140.868 223.284 141.143 223.394 141.399 223.556C141.657 223.718 141.869 223.95 142.034 224.251C142.198 224.549 142.281 224.937 142.28 225.414L142.279 229.76H141.035L141.035 228.865H140.984C140.901 229.03 140.778 229.192 140.613 229.351C140.448 229.51 140.237 229.642 139.978 229.747C139.719 229.853 139.41 229.905 139.049 229.905ZM139.326 228.882C139.679 228.882 139.98 228.813 140.23 228.674C140.483 228.535 140.674 228.353 140.805 228.128C140.939 227.901 141.006 227.658 141.006 227.4L141.006 226.556C140.961 226.601 140.872 226.644 140.742 226.684C140.614 226.721 140.468 226.753 140.303 226.782C140.138 226.807 139.978 226.832 139.821 226.854C139.665 226.874 139.534 226.891 139.429 226.905C139.182 226.937 138.956 226.989 138.752 227.063C138.55 227.137 138.388 227.243 138.266 227.383C138.147 227.519 138.087 227.701 138.087 227.928C138.087 228.243 138.203 228.482 138.436 228.644C138.669 228.803 138.966 228.882 139.326 228.882ZM147.033 223.215L147.033 224.238H143.458L143.458 223.215H147.033ZM144.417 221.647H145.692L145.689 227.839C145.689 228.086 145.726 228.272 145.8 228.397C145.874 228.519 145.969 228.603 146.085 228.648C146.205 228.691 146.334 228.712 146.473 228.712C146.575 228.712 146.665 228.705 146.742 228.691C146.818 228.677 146.878 228.665 146.921 228.657L147.15 229.709C147.076 229.738 146.971 229.766 146.835 229.794C146.699 229.826 146.528 229.843 146.324 229.845C145.988 229.851 145.676 229.792 145.386 229.667C145.097 229.542 144.862 229.348 144.683 229.087C144.505 228.826 144.415 228.498 144.415 228.103L144.417 221.647ZM152.587 227.046L152.588 223.215H153.867L153.864 229.76H152.612L152.612 228.627H152.544C152.393 228.976 152.152 229.267 151.819 229.5C151.49 229.73 151.079 229.845 150.588 229.845C150.167 229.845 149.795 229.753 149.471 229.569C149.151 229.381 148.898 229.104 148.713 228.738C148.532 228.371 148.441 227.918 148.441 227.378L148.442 223.215H149.717L149.715 227.225C149.715 227.671 149.838 228.026 150.085 228.29C150.333 228.554 150.653 228.686 151.048 228.686C151.287 228.686 151.524 228.627 151.76 228.508C151.999 228.388 152.196 228.208 152.352 227.966C152.512 227.725 152.59 227.418 152.587 227.046ZM160.482 224.813L159.328 225.018C159.279 224.87 159.203 224.729 159.098 224.596C158.995 224.462 158.856 224.353 158.68 224.268C158.504 224.183 158.284 224.14 158.02 224.14C157.659 224.14 157.358 224.221 157.116 224.383C156.875 224.542 156.754 224.748 156.754 225.001C156.754 225.219 156.835 225.396 156.997 225.529C157.159 225.663 157.42 225.772 157.781 225.857L158.82 226.096C159.422 226.235 159.871 226.449 160.166 226.739C160.462 227.029 160.609 227.405 160.609 227.868C160.609 228.26 160.495 228.61 160.268 228.917C160.043 229.221 159.729 229.459 159.326 229.632C158.925 229.806 158.461 229.892 157.933 229.892C157.2 229.892 156.602 229.736 156.139 229.424C155.676 229.108 155.392 228.661 155.287 228.081L156.519 227.894C156.595 228.215 156.753 228.458 156.991 228.623C157.23 228.784 157.541 228.865 157.924 228.865C158.342 228.865 158.676 228.779 158.926 228.606C159.176 228.429 159.301 228.215 159.301 227.962C159.301 227.758 159.224 227.586 159.071 227.447C158.921 227.307 158.689 227.202 158.377 227.131L157.269 226.888C156.658 226.749 156.207 226.528 155.914 226.224C155.624 225.92 155.48 225.535 155.48 225.069C155.48 224.683 155.588 224.345 155.804 224.055C156.02 223.765 156.318 223.539 156.699 223.377C157.08 223.213 157.516 223.13 158.007 223.13C158.715 223.13 159.271 223.284 159.677 223.59C160.084 223.894 160.352 224.302 160.482 224.813Z" fill="white"/>
<rect width="150.886" height="29.9958" rx="2.99971" transform="matrix(1 0 -0.000340868 1 18.5671 259.762)" fill="#119A4B"/>
<path d="M62.8059 271.033L62.8029 279.76L61.4863 279.76L61.4892 271.033L62.8059 271.033ZM65.8934 275.874L65.8921 279.76L64.6181 279.76L64.6203 273.215L65.8432 273.215L65.8428 274.28L65.9238 274.28C66.0745 273.933 66.3103 273.655 66.6314 273.445C66.9553 273.235 67.363 273.129 67.8544 273.129C68.3004 273.129 68.6909 273.223 69.0261 273.411C69.3612 273.595 69.621 273.871 69.8055 274.237C69.9901 274.604 70.0822 275.057 70.082 275.597L70.0806 279.76L68.8066 279.76L68.808 275.75C68.8081 275.276 68.6847 274.905 68.4376 274.638C68.1906 274.368 67.8512 274.233 67.4194 274.233C67.124 274.233 66.8612 274.297 66.6311 274.425C66.4038 274.553 66.2233 274.74 66.0897 274.987C65.959 275.232 65.8935 275.527 65.8934 275.874ZM77.156 273.215L74.7805 279.76L73.4169 279.76L71.0416 273.215L72.4093 273.215L74.0651 278.251L74.1333 278.251L75.7883 273.215L77.156 273.215ZM80.9492 279.892C80.3044 279.892 79.7491 279.754 79.2833 279.478C78.8204 279.2 78.4626 278.809 78.21 278.307C77.9602 277.801 77.8354 277.209 77.8356 276.53C77.8358 275.859 77.961 275.268 78.2112 274.757C78.4642 274.246 78.8165 273.847 79.2683 273.56C79.7229 273.273 80.2541 273.129 80.862 273.129C81.2313 273.129 81.5892 273.191 81.9357 273.313C82.2822 273.435 82.5932 273.627 82.8687 273.888C83.1441 274.149 83.3613 274.489 83.5203 274.906C83.6792 275.321 83.7586 275.825 83.7584 276.419L83.7582 276.871L78.5556 276.871L78.5559 275.916L82.5101 275.916C82.5102 275.581 82.4421 275.284 82.3059 275.026C82.1696 274.764 81.9779 274.558 81.7308 274.408C81.4866 274.257 81.1997 274.182 80.8702 274.182C80.5123 274.182 80.1998 274.27 79.9327 274.446C79.6685 274.619 79.4639 274.847 79.3189 275.128C79.1768 275.406 79.1056 275.709 79.1055 276.035L79.1053 276.781C79.1051 277.219 79.1817 277.591 79.335 277.897C79.4911 278.204 79.7083 278.439 79.9867 278.601C80.265 278.76 80.5902 278.839 80.9624 278.839C81.2038 278.839 81.424 278.805 81.6228 278.737C81.8217 278.666 81.9936 278.561 82.1385 278.422C82.2834 278.282 82.3943 278.111 82.471 277.906L83.6768 278.123C83.5801 278.478 83.4067 278.789 83.1567 279.056C82.9094 279.321 82.5983 279.527 82.2233 279.674C81.8511 279.819 81.4264 279.892 80.9492 279.892ZM90.0768 274.813L88.9221 275.017C88.8738 274.869 88.7972 274.729 88.6921 274.595C88.5899 274.462 88.4507 274.352 88.2746 274.267C88.0986 274.182 87.8784 274.139 87.6142 274.139C87.2535 274.139 86.9523 274.22 86.7108 274.382C86.4693 274.541 86.3485 274.747 86.3484 275C86.3484 275.219 86.4293 275.395 86.5911 275.528C86.753 275.662 87.0143 275.771 87.375 275.856L88.4146 276.095C89.0168 276.234 89.4656 276.449 89.7609 276.739C90.0562 277.028 90.2038 277.405 90.2036 277.868C90.2035 278.26 90.0898 278.609 89.8624 278.916C89.6379 279.22 89.3239 279.458 88.9205 279.632C88.5199 279.805 88.0554 279.892 87.5271 279.892C86.7942 279.892 86.1963 279.735 85.7334 279.423C85.2704 279.108 84.9865 278.66 84.8816 278.081L86.1131 277.893C86.1897 278.214 86.3473 278.457 86.5858 278.622C86.8244 278.784 87.1354 278.865 87.5189 278.865C87.9365 278.865 88.2703 278.778 88.5203 278.605C88.7703 278.429 88.8954 278.214 88.8955 277.961C88.8956 277.757 88.8189 277.585 88.6656 277.446C88.5151 277.307 88.2836 277.202 87.9711 277.131L86.8634 276.888C86.2527 276.748 85.8011 276.527 85.5086 276.223C85.219 275.919 85.0742 275.534 85.0744 275.068C85.0745 274.682 85.1826 274.344 85.3986 274.054C85.6146 273.764 85.9129 273.539 86.2936 273.377C86.6743 273.212 87.1104 273.129 87.6018 273.129C88.3091 273.129 88.8658 273.283 89.2719 273.59C89.6781 273.894 89.9464 274.301 90.0768 274.813ZM94.6611 273.215L94.6608 274.237L91.0858 274.237L91.0862 273.215L94.6611 273.215ZM92.0454 271.647L93.3195 271.647L93.3173 277.838C93.3173 278.085 93.3541 278.271 93.4279 278.396C93.5017 278.518 93.5969 278.602 93.7133 278.647C93.8326 278.69 93.9619 278.711 94.1011 278.711C94.2033 278.711 94.2928 278.704 94.3695 278.69C94.4462 278.676 94.5059 278.664 94.5485 278.656L94.7782 279.708C94.7043 279.737 94.5992 279.765 94.4629 279.794C94.3265 279.825 94.1561 279.842 93.9515 279.845C93.6163 279.85 93.3039 279.791 93.0142 279.666C92.7245 279.541 92.4902 279.348 92.3113 279.086C92.1325 278.825 92.0431 278.497 92.0432 278.102L92.0454 271.647ZM99.3489 271.033L100.947 271.033L103.723 277.817L103.825 277.817L106.605 271.033L108.203 271.033L108.2 279.76L106.947 279.76L106.95 273.445L106.869 273.445L104.293 279.747L103.253 279.747L100.682 273.441L100.601 273.441L100.599 279.76L99.3459 279.76L99.3489 271.033ZM112.769 279.892C112.155 279.892 111.62 279.751 111.163 279.47C110.705 279.189 110.351 278.795 110.098 278.289C109.845 277.784 109.719 277.193 109.719 276.517C109.72 275.838 109.846 275.244 110.099 274.736C110.352 274.227 110.707 273.833 111.165 273.551C111.622 273.27 112.158 273.129 112.771 273.129C113.385 273.129 113.92 273.27 114.378 273.551C114.835 273.833 115.19 274.227 115.442 274.736C115.695 275.244 115.821 275.838 115.821 276.517C115.821 277.193 115.694 277.784 115.441 278.289C115.188 278.795 114.833 279.189 114.376 279.47C113.918 279.751 113.383 279.892 112.769 279.892ZM112.774 278.822C113.171 278.822 113.501 278.717 113.762 278.507C114.024 278.297 114.217 278.017 114.342 277.667C114.47 277.318 114.534 276.933 114.534 276.513C114.534 276.095 114.471 275.712 114.343 275.362C114.218 275.01 114.025 274.727 113.764 274.514C113.502 274.301 113.173 274.195 112.775 274.195C112.375 274.195 112.042 274.301 111.778 274.514C111.517 274.727 111.322 275.01 111.194 275.362C111.069 275.712 111.006 276.095 111.006 276.513C111.006 276.933 111.068 277.318 111.193 277.667C111.321 278.017 111.515 278.297 111.777 278.507C112.041 278.717 112.373 278.822 112.774 278.822ZM117.242 279.76L117.244 273.215L118.476 273.215L118.475 274.254L118.543 274.254C118.663 273.902 118.873 273.625 119.174 273.423C119.478 273.219 119.822 273.117 120.206 273.117C120.285 273.117 120.379 273.12 120.487 273.125C120.598 273.131 120.684 273.138 120.747 273.147L120.746 274.365C120.695 274.351 120.604 274.335 120.474 274.318C120.343 274.298 120.212 274.288 120.082 274.288C119.781 274.288 119.512 274.352 119.276 274.48C119.043 274.605 118.859 274.78 118.722 275.004C118.586 275.226 118.517 275.479 118.517 275.763L118.516 279.76L117.242 279.76ZM124.433 279.892C123.789 279.892 123.233 279.754 122.767 279.478C122.305 279.2 121.947 278.809 121.694 278.307C121.444 277.801 121.32 277.209 121.32 276.53C121.32 275.859 121.445 275.268 121.695 274.757C121.948 274.246 122.301 273.847 122.752 273.56C123.207 273.273 123.738 273.129 124.346 273.129C124.715 273.129 125.073 273.191 125.42 273.313C125.766 273.435 126.077 273.627 126.353 273.888C126.628 274.149 126.845 274.489 127.004 274.906C127.163 275.321 127.243 275.825 127.243 276.419L127.242 276.871L122.04 276.871L122.04 275.916L125.994 275.916C125.994 275.581 125.926 275.284 125.79 275.026C125.654 274.764 125.462 274.558 125.215 274.408C124.971 274.257 124.684 274.182 124.354 274.182C123.996 274.182 123.684 274.27 123.417 274.446C123.153 274.619 122.948 274.847 122.803 275.128C122.661 275.406 122.59 275.709 122.59 276.035L122.589 276.781C122.589 277.219 122.666 277.591 122.819 277.897C122.975 278.204 123.192 278.439 123.471 278.601C123.749 278.76 124.074 278.839 124.446 278.839C124.688 278.839 124.908 278.805 125.107 278.737C125.306 278.666 125.478 278.561 125.623 278.422C125.768 278.282 125.878 278.111 125.955 277.906L127.161 278.123C127.064 278.478 126.891 278.789 126.641 279.056C126.394 279.321 126.082 279.527 125.707 279.674C125.335 279.819 124.911 279.892 124.433 279.892Z" fill="white"/>
</svg>
