<svg width="231" height="101" viewBox="0 0 231 101" fill="none" xmlns="http://www.w3.org/2000/svg">
<path d="M2.13255 8.76439C2.13338 4.01659 5.98291 0.167068 10.7307 0.166229L222.058 0.128906C226.805 0.128068 230.654 3.97624 230.653 8.72404L230.638 92.0627C230.637 96.8105 226.788 100.66 222.04 100.661L10.713 100.698C5.96518 100.699 2.117 96.8509 2.11784 92.1031L2.13255 8.76439Z" fill="white"/>
<path d="M38.303 7.77135L26.3037 7.90081C20.7812 7.9604 16.3526 12.4856 16.4122 18.0081L16.5417 30.0074C16.6013 35.5299 21.1264 39.9585 26.649 39.899L38.6483 39.7695C44.1708 39.7099 48.5994 35.1847 48.5398 29.6622L48.4103 17.6629C48.3508 12.1403 43.8256 7.71176 38.303 7.77135Z" fill="#FFEBE4"/>
<path d="M40.293 19.8837L37.0203 15.9387C36.8381 15.7407 36.5481 15.7438 36.3703 15.9457L33.1834 19.9604C33.0549 20.1018 33.0173 20.3222 33.0892 20.5014C33.1613 20.6906 33.3326 20.8088 33.5226 20.8068L34.4125 20.7972C34.6925 20.7941 34.9149 21.0117 34.9179 21.2917L35.026 31.3111C35.029 31.5911 35.2514 31.8087 35.5314 31.8057L38.2212 31.7767C38.5012 31.7737 38.7188 31.5513 38.7158 31.2713L38.6077 21.2519C38.6046 20.9719 38.8223 20.7496 39.1022 20.7466L39.9822 20.7371C40.1722 20.735 40.3409 20.6132 40.4088 20.4224C40.4768 20.2317 40.4345 20.0221 40.303 19.8835L40.293 19.8837Z" fill="#FE794D"/>
<path d="M24.4671 23.0935C24.4641 22.8135 24.6817 22.5912 24.9617 22.5881L27.6516 22.5591C27.9315 22.5561 28.1539 22.7737 28.1569 23.0537L28.2468 31.3832C28.2498 31.6632 28.0322 31.8855 27.7522 31.8886L25.0624 31.9176C24.7824 31.9206 24.56 31.703 24.557 31.423L24.4671 23.0935Z" fill="#FE794D"/>
<path d="M29.3877 23.037C29.3847 22.757 29.6023 22.5346 29.8823 22.5316L32.5721 22.5026C32.8521 22.4996 33.0745 22.7172 33.0775 22.9972L33.1674 31.3267C33.1704 31.6067 32.9528 31.829 32.6728 31.8321L29.9829 31.8611C29.703 31.8641 29.4806 31.6465 29.4776 31.3665L29.3877 23.037Z" fill="#FE794D"/>
<path d="M65.9675 28.4762C65.8675 28.4773 65.7772 28.4483 65.7165 28.3789C65.6557 28.3096 65.6148 28.23 65.6139 28.14L65.5156 19.0305C65.5145 18.9305 65.5435 18.8402 65.6129 18.7795C65.6822 18.7187 65.7618 18.6779 65.8618 18.6768L66.9717 18.6648C67.1017 18.6634 67.2021 18.7023 67.2629 18.7717C67.3336 18.8409 67.3742 18.8905 67.3945 18.9203L70.1487 23.9308L72.8242 18.8617C72.8242 18.8617 72.8832 18.771 72.9526 18.7103C73.0217 18.6295 73.1114 18.5986 73.2413 18.5972L74.3313 18.5854C74.4313 18.5843 74.5216 18.6134 74.5824 18.6827C74.6431 18.7521 74.684 18.8316 74.685 18.9316L74.7833 28.0411C74.7843 28.1311 74.7552 28.2114 74.6859 28.2821C74.6167 28.3529 74.537 28.3838 74.437 28.3848L73.2571 28.3976C73.1571 28.3986 73.0668 28.3696 73.006 28.3003C72.9453 28.2309 72.9244 28.1511 72.9234 28.0611L72.8581 22.0015L70.9385 25.7624C70.8894 25.843 70.8303 25.9236 70.7609 25.9844C70.6916 26.0451 70.5918 26.0662 70.4718 26.0675L69.9018 26.0736C69.7718 26.075 69.6715 26.0461 69.591 25.997C69.5202 25.9277 69.4695 25.8583 69.4186 25.7788L67.4184 22.0602L67.4838 28.1198C67.4847 28.2098 67.4556 28.2902 67.3864 28.3609C67.3171 28.4317 67.2474 28.4624 67.1474 28.4635L65.9675 28.4762ZM79.4982 28.4702C78.9283 28.4764 78.4369 28.3517 78.0142 28.1062C77.6014 27.8507 77.2776 27.4941 77.0525 27.0265C76.8274 26.5489 76.7013 25.9903 76.6944 25.3503L76.652 21.4205C76.651 21.3305 76.6802 21.2502 76.7494 21.1795C76.8187 21.1087 76.8883 21.078 76.9883 21.0769L78.2182 21.0636C78.3182 21.0625 78.3986 21.0917 78.4593 21.161C78.5301 21.2303 78.5609 21.3099 78.5619 21.3999L78.6034 25.2497C78.616 26.4096 79.1322 26.9841 80.1521 26.9731C80.6421 26.9678 81.0204 26.8137 81.2971 26.5007C81.5837 26.1876 81.7192 25.7661 81.7134 25.2261L81.6718 21.3764C81.6709 21.2864 81.7 21.2061 81.7692 21.1353C81.8385 21.0646 81.9081 21.0338 82.0081 21.0327L83.2381 21.0195C83.3281 21.0185 83.4084 21.0476 83.4791 21.1169C83.5499 21.1861 83.5807 21.2658 83.5817 21.3558L83.653 27.9654C83.654 28.0554 83.6249 28.1357 83.5556 28.2064C83.4864 28.2772 83.4167 28.308 83.3167 28.309L82.1868 28.3212C82.0868 28.3223 81.9965 28.2933 81.9357 28.2239C81.875 28.1546 81.8541 28.0748 81.8531 27.9848L81.847 27.4148C81.6006 27.7475 81.2833 28.001 80.9153 28.1949C80.5474 28.3889 80.0784 28.484 79.5184 28.49L79.4982 28.4702ZM88.7762 28.2301C88.2162 28.2362 87.7452 28.1412 87.3631 27.9554C86.981 27.7595 86.688 27.4826 86.5038 27.0946C86.3096 26.7066 86.2143 26.2176 86.2081 25.6377L86.1738 22.4579L85.0638 22.4698C84.9738 22.4708 84.8935 22.4417 84.8228 22.3724C84.752 22.3032 84.7213 22.2335 84.7202 22.1335L84.7114 21.3236C84.7105 21.2336 84.7396 21.1533 84.8088 21.0825C84.8781 21.0118 84.9577 20.9809 85.0477 20.9799L86.1577 20.968L86.1327 18.6481C86.1317 18.5581 86.1608 18.4778 86.2101 18.4072C86.2793 18.3365 86.359 18.3056 86.459 18.3045L87.5889 18.2924C87.6789 18.2914 87.7592 18.3205 87.83 18.3898C87.9007 18.459 87.9316 18.5387 87.9325 18.6287L87.9576 20.9485L89.7075 20.9296C89.7975 20.9287 89.8778 20.9578 89.9485 21.0271C90.0193 21.0963 90.0502 21.176 90.0511 21.266L90.0599 22.0759C90.0608 22.1659 90.0317 22.2462 89.9625 22.317C89.8932 22.3877 89.8235 22.4185 89.7235 22.4196L87.9737 22.4384L88.0065 25.4783C88.0106 25.8582 88.0738 26.1576 88.2161 26.3761C88.3584 26.5845 88.5996 26.6919 88.9296 26.6884L89.8995 26.6779C89.9895 26.6769 90.0698 26.7061 90.1406 26.7753C90.2112 26.8346 90.2421 26.9142 90.2432 27.0142L90.2525 27.8842C90.2535 27.9742 90.2244 28.0545 90.1551 28.1252C90.0859 28.196 90.0162 28.2267 89.9162 28.2278L88.7863 28.24L88.7762 28.2301ZM94.1874 28.3117C93.6174 28.3179 93.126 28.1932 92.7034 27.9477C92.2906 27.6922 91.9667 27.3356 91.7417 26.868C91.5165 26.3904 91.3905 25.8318 91.3836 25.1918L91.3412 21.262C91.3402 21.172 91.3693 21.0917 91.4386 21.021C91.5078 20.9502 91.5775 20.9195 91.6775 20.9184L92.9074 20.9051C93.0074 20.904 93.0877 20.9332 93.1485 21.0025C93.2192 21.0718 93.2501 21.1514 93.251 21.2414L93.2926 25.0912C93.3051 26.2511 93.8213 26.8256 94.8413 26.8146C95.3212 26.8094 95.7096 26.6552 95.9862 26.3422C96.2729 26.0291 96.4083 25.6076 96.4025 25.0677L96.361 21.2179C96.36 21.1279 96.3891 21.0476 96.4584 20.9768C96.5276 20.9061 96.5973 20.8753 96.6973 20.8742L97.9272 20.861C98.0172 20.86 98.0975 20.8891 98.1683 20.9584C98.239 21.0276 98.2699 21.1073 98.2709 21.1973L98.3422 27.8069C98.3431 27.8969 98.314 27.9772 98.2448 28.048C98.1755 28.1187 98.0959 28.1496 98.0059 28.1505L96.8759 28.1627C96.7759 28.1638 96.6856 28.1348 96.6249 28.0654C96.5641 27.9961 96.5432 27.9163 96.5423 27.8263L96.5361 27.2563C96.2897 27.589 95.9724 27.8425 95.6045 28.0364C95.2366 28.2304 94.7676 28.3255 94.2076 28.3315L94.1874 28.3117ZM102.297 28.2242C101.807 28.2295 101.376 28.1442 100.974 27.9585C100.582 27.7627 100.269 27.5161 100.026 27.1987C99.8022 26.8711 99.6783 26.5124 99.674 26.1124C99.667 25.4625 99.9213 24.9397 100.437 24.5541C100.963 24.1584 101.66 23.8909 102.529 23.7515L104.446 23.4508L104.442 23.1608C104.438 22.7708 104.335 22.4619 104.143 22.254C103.94 22.0462 103.609 21.9397 103.129 21.9449C102.789 21.9486 102.52 22.0215 102.302 22.1638C102.103 22.296 101.945 22.4777 101.847 22.6988C101.779 22.8195 101.669 22.8807 101.529 22.8822L100.419 22.8942C100.319 22.8953 100.239 22.8661 100.178 22.8168C100.128 22.7573 100.107 22.6876 100.106 22.5976C100.114 22.4475 100.173 22.2668 100.28 22.0456C100.388 21.8245 100.566 21.6225 100.803 21.42C101.041 21.2074 101.359 21.0339 101.738 20.8899C102.116 20.7458 102.585 20.6707 103.125 20.6649C103.715 20.6585 104.206 20.7332 104.608 20.8689C105.019 21.0045 105.351 21.1909 105.594 21.4283C105.836 21.6657 106.019 21.9537 106.133 22.2725C106.246 22.5913 106.31 22.9406 106.314 23.3106L106.362 27.7104C106.363 27.8004 106.333 27.8807 106.264 27.9514C106.195 28.0222 106.125 28.0529 106.025 28.054L104.895 28.0662C104.795 28.0673 104.705 28.0383 104.644 27.9689C104.584 27.8996 104.563 27.8198 104.562 27.7298L104.556 27.1798C104.438 27.3611 104.28 27.5328 104.071 27.6851C103.863 27.8373 103.614 27.96 103.315 28.0733C103.026 28.1664 102.687 28.22 102.277 28.2245L102.297 28.2242ZM102.763 26.8891C103.093 26.8856 103.382 26.8125 103.64 26.6697C103.909 26.5268 104.116 26.3045 104.263 26.0229C104.42 25.7212 104.496 25.3504 104.491 24.9004L104.488 24.6104L103.09 24.8455C102.541 24.9314 102.133 25.0758 101.865 25.2687C101.597 25.4616 101.46 25.6931 101.462 25.9631C101.465 26.1631 101.527 26.3425 101.648 26.4911C101.78 26.6297 101.941 26.738 102.142 26.8058C102.342 26.8737 102.543 26.9015 102.763 26.8991L102.763 26.8891ZM108.535 28.0169C108.445 28.0179 108.365 27.9888 108.294 27.9195C108.233 27.8502 108.192 27.7706 108.191 27.6806L108.091 18.4112C108.09 18.3212 108.12 18.2408 108.189 18.1701C108.258 18.0993 108.338 18.0685 108.428 18.0675L109.588 18.055C109.678 18.054 109.758 18.0832 109.829 18.1524C109.899 18.2216 109.93 18.3013 109.931 18.3913L110.031 27.6608C110.032 27.7508 110.003 27.8311 109.934 27.9018C109.865 27.9726 109.795 28.0033 109.695 28.0044L108.535 28.0169ZM115.965 27.9368C115.875 27.9377 115.794 27.9086 115.724 27.8394C115.653 27.7701 115.622 27.6905 115.621 27.6005L115.562 22.1408L114.432 22.153C114.342 22.1539 114.262 22.1248 114.191 22.0556C114.12 21.9863 114.09 21.9167 114.088 21.8167L114.08 21.0067C114.079 20.9167 114.108 20.8364 114.177 20.7656C114.246 20.6949 114.326 20.664 114.416 20.6631L115.546 20.6509L115.54 20.0809C115.534 19.5209 115.629 19.0599 115.835 18.6876C116.041 18.3154 116.338 18.0322 116.736 17.8379C117.134 17.6436 117.643 17.5481 118.263 17.5414L119.213 17.5311C119.313 17.53 119.393 17.5592 119.454 17.6285C119.524 17.6978 119.555 17.7674 119.556 17.8674L119.565 18.6774C119.566 18.7674 119.537 18.8477 119.468 18.9185C119.408 18.9891 119.339 19.0199 119.229 19.021L118.329 19.0308C117.959 19.0347 117.7 19.1275 117.562 19.319C117.424 19.5105 117.357 19.7813 117.36 20.1313L117.366 20.6312L119.106 20.6125C119.206 20.6114 119.286 20.6405 119.347 20.7099C119.418 20.7791 119.448 20.8588 119.449 20.9488L119.458 21.7587C119.459 21.8487 119.43 21.929 119.361 21.9998C119.302 22.0704 119.222 22.1013 119.122 22.1024L117.382 22.1211L117.441 27.5808C117.442 27.6708 117.413 27.7511 117.343 27.8219C117.274 27.8926 117.205 27.9234 117.105 27.9245L115.955 27.9369L115.965 27.9368ZM123.346 27.9971C122.776 28.0033 122.284 27.8786 121.862 27.6331C121.449 27.3776 121.125 27.021 120.9 26.5534C120.675 26.0758 120.549 25.5172 120.542 24.8772L120.499 20.9474C120.498 20.8574 120.528 20.7771 120.597 20.7064C120.666 20.6356 120.746 20.6048 120.836 20.6038L122.066 20.5905C122.166 20.5894 122.246 20.6186 122.307 20.6879C122.378 20.7572 122.408 20.8368 122.409 20.9268L122.451 24.7766C122.463 25.9365 122.98 26.511 124 26.5C124.49 26.4947 124.868 26.3406 125.145 26.0276C125.431 25.7145 125.567 25.293 125.561 24.7531L125.519 20.9033C125.518 20.8133 125.547 20.733 125.617 20.6622C125.686 20.5915 125.756 20.5607 125.856 20.5596L127.086 20.5464C127.176 20.5454 127.256 20.5745 127.327 20.6438C127.397 20.713 127.428 20.7927 127.429 20.8827L127.5 27.4923C127.501 27.5823 127.472 27.6626 127.403 27.7334C127.334 27.8041 127.264 27.8349 127.164 27.8359L126.034 27.8481C125.934 27.8492 125.844 27.8202 125.783 27.7508C125.722 27.6815 125.702 27.6017 125.701 27.5117L125.694 26.9417C125.448 27.2744 125.141 27.5277 124.763 27.7218C124.395 27.9158 123.926 28.0109 123.366 28.0169L123.346 27.9971ZM129.674 27.7889C129.584 27.7898 129.503 27.7607 129.433 27.6915C129.362 27.6222 129.331 27.5425 129.33 27.4525L129.259 20.8429C129.258 20.7529 129.287 20.6726 129.356 20.6019C129.425 20.5311 129.495 20.5004 129.595 20.4993L130.745 20.4869C130.835 20.4859 130.915 20.515 130.986 20.5843C131.057 20.6535 131.088 20.7332 131.089 20.8232L131.095 21.3932C131.332 21.0906 131.639 20.8372 132.007 20.6433C132.385 20.4392 132.853 20.3241 133.413 20.3181C133.973 20.312 134.475 20.4366 134.898 20.6921C135.32 20.9375 135.644 21.2941 135.879 21.7616C136.114 22.229 136.24 22.7877 136.247 23.4377L136.29 27.3675C136.291 27.4575 136.261 27.5378 136.192 27.6085C136.123 27.6793 136.053 27.71 135.953 27.7111L134.723 27.7244C134.633 27.7253 134.553 27.6962 134.482 27.627C134.412 27.5577 134.381 27.4781 134.38 27.3881L134.338 23.5383C134.332 22.9983 134.188 22.5699 133.915 22.2728C133.651 21.9656 133.27 21.8197 132.76 21.8252C132.25 21.8307 131.891 21.9846 131.605 22.2977C131.318 22.6108 131.183 23.0323 131.188 23.5723L131.23 27.422C131.231 27.512 131.202 27.5924 131.133 27.6631C131.063 27.7339 130.994 27.7646 130.894 27.7657L129.664 27.779L129.674 27.7889ZM140.775 27.8091C140.285 27.8144 139.854 27.739 139.482 27.583C139.12 27.4169 138.808 27.1903 138.565 26.8929C138.321 26.5955 138.128 26.2476 137.993 25.849C137.859 25.4404 137.774 24.9913 137.759 24.5114C137.757 24.3414 137.745 24.1916 137.744 24.0616C137.743 23.9216 137.741 23.7716 137.749 23.6015C137.764 23.1313 137.829 22.7006 137.945 22.2993C138.071 21.8979 138.257 21.5459 138.494 21.2433C138.74 20.9306 139.048 20.6873 139.406 20.5234C139.774 20.3495 140.203 20.2648 140.693 20.2595C141.183 20.2542 141.624 20.3395 141.966 20.5158C142.328 20.6819 142.62 20.8988 142.853 21.1663L142.82 18.0565C142.819 17.9665 142.848 17.8861 142.897 17.8156C142.966 17.7449 143.046 17.714 143.146 17.7129L144.336 17.7001C144.426 17.6991 144.506 17.7282 144.577 17.7975C144.648 17.8667 144.678 17.9464 144.679 18.0364L144.779 27.3059C144.78 27.3958 144.751 27.4762 144.682 27.5469C144.613 27.6177 144.543 27.6484 144.443 27.6495L143.333 27.6615C143.233 27.6626 143.143 27.6335 143.082 27.5642C143.021 27.4948 143.001 27.4151 143 27.3251L142.994 26.8051C142.767 27.0976 142.47 27.3408 142.102 27.5248C141.744 27.7186 141.305 27.8134 140.765 27.8192L140.775 27.8091ZM141.278 26.3036C141.668 26.2994 141.977 26.206 142.215 26.0234C142.454 25.8409 142.621 25.619 142.728 25.3479C142.835 25.0667 142.892 24.7761 142.899 24.496C142.897 24.326 142.905 24.1459 142.903 23.9659C142.901 23.7859 142.899 23.5859 142.887 23.416C142.884 23.1361 142.801 22.8669 142.679 22.6182C142.556 22.3596 142.374 22.1415 142.142 21.984C141.91 21.8165 141.599 21.7398 141.229 21.7438C140.839 21.748 140.52 21.8415 140.292 22.024C140.074 22.1963 139.906 22.4181 139.809 22.6992C139.713 22.9803 139.656 23.2909 139.639 23.6211C139.642 23.9011 139.645 24.1811 139.648 24.461C139.672 24.8008 139.735 25.1001 139.838 25.3791C139.941 25.658 140.114 25.8861 140.336 26.0637C140.568 26.2312 140.888 26.3078 141.278 26.3036ZM149.414 27.7159C148.854 27.7219 148.373 27.6571 147.972 27.5314C147.581 27.4056 147.259 27.2491 146.997 27.0519C146.745 26.8546 146.553 26.6667 146.431 26.468C146.308 26.2693 146.237 26.1101 146.225 25.9802C146.224 25.8802 146.243 25.8 146.303 25.7393C146.382 25.6685 146.452 25.6377 146.542 25.6367L147.651 25.6248C147.651 25.6248 147.721 25.624 147.752 25.6337C147.782 25.6334 147.822 25.6729 147.862 25.7125C147.984 25.8112 148.115 25.9198 148.246 26.0284C148.387 26.1369 148.548 26.2351 148.739 26.3131C148.93 26.391 149.16 26.4185 149.44 26.4155C149.8 26.4116 150.109 26.3383 150.348 26.1957C150.596 26.043 150.724 25.8316 150.721 25.5617C150.719 25.3617 150.657 25.2023 150.546 25.0835C150.445 24.9646 150.243 24.8568 149.952 24.7699C149.661 24.673 149.25 24.5675 148.719 24.4632C148.198 24.3488 147.756 24.2036 147.414 24.0172C147.072 23.8309 146.81 23.6037 146.637 23.3256C146.464 23.0474 146.38 22.7183 146.376 22.3483C146.372 21.9784 146.478 21.6372 146.685 21.3049C146.901 20.9626 147.228 20.6891 147.656 20.4644C148.094 20.2497 148.632 20.1339 149.272 20.127C149.772 20.1216 150.213 20.1868 150.594 20.3127C150.966 20.4287 151.277 20.5754 151.519 20.7628C151.771 20.95 151.963 21.138 152.095 21.3266C152.227 21.5152 152.299 21.6744 152.311 21.8143C152.312 21.9143 152.293 22.0045 152.233 22.0651C152.164 22.1259 152.094 22.1466 152.014 22.1475L150.974 22.1587C150.974 22.1587 150.884 22.1597 150.844 22.1301C150.804 22.1106 150.774 22.0909 150.733 22.0613C150.632 21.9724 150.521 21.8736 150.39 21.775C150.259 21.6764 150.118 21.5879 149.937 21.5099C149.766 21.4317 149.546 21.3841 149.266 21.3871C148.906 21.391 148.647 21.4738 148.459 21.6358C148.27 21.7879 148.182 21.9788 148.185 22.2088C148.186 22.3688 148.228 22.5084 148.319 22.6274C148.41 22.7364 148.592 22.8445 148.873 22.9414C149.144 23.0385 149.555 23.1441 150.106 23.2482C150.727 23.3515 151.229 23.5161 151.591 23.7322C151.964 23.9382 152.236 24.1952 152.379 24.4837C152.542 24.762 152.626 25.0711 152.63 25.4211C152.634 25.841 152.508 26.2224 152.262 26.5551C152.025 26.8977 151.658 27.1616 151.181 27.3668C150.703 27.562 150.114 27.6583 149.404 27.666L149.414 27.7159Z" fill="#132056"/>
<path d="M229.828 45.7048L0.737549 48.1765L0.748338 49.1765L229.839 46.7047L229.828 45.7048Z" fill="#ECECF1"/>
<path d="M21.0554 71.08C20.3154 71.088 19.704 70.9546 19.2111 70.6899C18.7282 70.4251 18.3641 70.049 18.1089 69.5617C17.8536 69.0744 17.7174 68.5059 17.6805 67.8662C17.677 67.5362 17.6632 67.1864 17.6591 66.8064C17.655 66.4264 17.6511 66.0664 17.6574 65.7263C17.6704 65.0762 17.8043 64.5047 18.0491 64.022C18.2938 63.5293 18.6497 63.1455 19.1267 62.8703C19.6138 62.5951 20.2222 62.4485 20.9622 62.4405C21.5122 62.4346 22.003 62.5093 22.4146 62.6548C22.8362 62.8003 23.1784 63.0066 23.4511 63.2537C23.7339 63.5107 23.9469 63.7884 24.1003 64.1067C24.2437 64.4152 24.3272 64.7443 24.3508 65.0741C24.3516 65.1441 24.3322 65.2043 24.2827 65.2548C24.2333 65.3054 24.1735 65.326 24.1035 65.3268L23.4435 65.3339C23.3736 65.3347 23.3033 65.3154 23.2529 65.2759C23.2025 65.2365 23.1717 65.1668 23.1405 65.0572C22.9939 64.4387 22.7392 64.0114 22.3568 63.7855C21.9843 63.5595 21.5231 63.4445 20.9631 63.4505C20.3231 63.4575 19.8151 63.6429 19.4491 64.0169C19.073 64.381 18.8793 64.9631 18.8579 65.7634C18.845 66.4236 18.8523 67.0935 18.8797 67.7833C18.9183 68.5829 19.1346 69.1606 19.5086 69.5266C19.8924 69.8825 20.3943 70.0571 21.0343 70.0502C21.5943 70.0441 22.0529 69.9192 22.4204 69.6852C22.7979 69.4511 23.0433 69.0184 23.1766 68.3969C23.1955 68.2967 23.2346 68.2163 23.2842 68.1758C23.3438 68.1351 23.4035 68.1145 23.4735 68.1137L24.1335 68.1066C24.2035 68.1059 24.2637 68.1252 24.3142 68.1747C24.3748 68.224 24.3954 68.2838 24.3862 68.3539C24.3699 68.6941 24.2933 69.0149 24.1568 69.3364C24.0201 69.6479 23.8033 69.9403 23.526 70.1933C23.2588 70.4562 22.911 70.66 22.5026 70.8144C22.0843 70.9689 21.6052 71.0541 21.0552 71.06L21.0554 71.08ZM28.195 71.003C27.685 71.0085 27.2439 70.9032 26.8814 70.6771C26.5289 70.4509 26.2555 70.1338 26.0711 69.7258C25.8867 69.3178 25.7816 68.8489 25.776 68.3289L25.7395 64.9491C25.7387 64.8691 25.758 64.8089 25.8075 64.7584C25.8668 64.6977 25.9266 64.6771 26.0066 64.6762L26.6066 64.6697C26.6866 64.6689 26.7469 64.6982 26.7974 64.7477C26.858 64.797 26.8786 64.8568 26.8795 64.9368L26.9153 68.2566C26.9281 69.4465 27.4546 70.0409 28.4945 70.0297C28.9945 70.0243 29.3827 69.8601 29.6794 69.5469C29.9759 69.2236 30.1311 68.7819 30.1251 68.222L30.0893 64.9022C30.0884 64.8222 30.1078 64.762 30.1572 64.7114C30.2166 64.6508 30.2764 64.6301 30.3563 64.6293L30.9463 64.6229C31.0363 64.6219 31.1066 64.6512 31.1472 64.7007C31.1977 64.7502 31.2183 64.81 31.2192 64.89L31.2806 70.5797C31.2815 70.6596 31.2622 70.7299 31.2128 70.7804C31.1633 70.8309 31.0935 70.8517 31.0135 70.8525L30.4636 70.8585C30.3836 70.8593 30.3134 70.8401 30.2628 70.7906C30.2122 70.7312 30.1915 70.6714 30.1907 70.5914L30.1849 70.0614C29.968 70.3438 29.7104 70.5666 29.4022 70.7399C29.1041 70.9132 28.695 70.9976 28.195 71.003ZM33.3634 70.8272C33.2834 70.8281 33.2132 70.8088 33.1626 70.7594C33.112 70.6999 33.0914 70.6401 33.0905 70.5601L33.0292 64.8805C33.0283 64.8005 33.0476 64.7302 33.0971 64.6797C33.1564 64.6191 33.2162 64.5984 33.2962 64.5975L33.8461 64.5916C33.9261 64.5908 33.9965 64.62 34.047 64.6695C34.0975 64.7189 34.1283 64.7886 34.1292 64.8686L34.1349 65.3986C34.2919 65.1268 34.5097 64.9145 34.7882 64.7815C35.0667 64.6385 35.4061 64.5748 35.796 64.5706L36.276 64.5654C36.356 64.5645 36.4163 64.5939 36.4669 64.6433C36.5174 64.6928 36.538 64.7526 36.5389 64.8326L36.5442 65.3226C36.545 65.4026 36.5257 65.4628 36.4762 65.5133C36.4268 65.5638 36.367 65.5845 36.287 65.5853L35.5671 65.5931C35.1371 65.5977 34.7985 65.7314 34.5512 65.9841C34.3039 66.2368 34.1876 66.5781 34.1922 67.008L34.2303 70.5378C34.2312 70.6178 34.2019 70.6881 34.1525 70.7387C34.093 70.7893 34.0332 70.81 33.9533 70.8108L33.3633 70.8172L33.3634 70.8272ZM37.9231 70.778C37.8431 70.7789 37.7729 70.7596 37.7224 70.7102C37.6717 70.6507 37.6511 70.5909 37.6502 70.5109L37.5889 64.8313C37.5881 64.7513 37.6073 64.681 37.6568 64.6305C37.7161 64.5699 37.7759 64.5492 37.8559 64.5484L38.4059 64.5424C38.4859 64.5416 38.5562 64.5708 38.6067 64.6203C38.6573 64.6697 38.688 64.7394 38.6889 64.8194L38.6946 65.3494C38.8517 65.0776 39.0694 64.8653 39.348 64.7323C39.6265 64.5893 39.9658 64.5256 40.3558 64.5214L40.8357 64.5162C40.9157 64.5153 40.9761 64.5447 41.0266 64.5941C41.0771 64.6436 41.0978 64.7034 41.0986 64.7834L41.1039 65.2734C41.1048 65.3533 41.0854 65.4136 41.036 65.4641C40.9865 65.5146 40.9267 65.5353 40.8467 65.5361L40.1268 65.5439C39.6968 65.5486 39.3582 65.6822 39.1109 65.9349C38.8637 66.1876 38.7473 66.5289 38.752 66.9588L38.7901 70.4886C38.7909 70.5686 38.7617 70.6389 38.7122 70.6895C38.6528 70.7401 38.593 70.7608 38.513 70.7616L37.923 70.768L37.9231 70.778ZM44.574 70.8262C43.7541 70.8351 43.0914 70.5922 42.5959 70.0875C42.1005 69.5829 41.8229 68.8858 41.7734 68.0063C41.7724 67.9063 41.7609 67.7664 41.7591 67.6064C41.7573 67.4364 41.7559 67.3064 41.7647 67.1963C41.7886 66.626 41.9133 66.1347 42.1486 65.7021C42.374 65.2697 42.6904 64.9362 43.0878 64.6919C43.4953 64.4575 43.9639 64.3324 44.5139 64.3265C45.1239 64.3199 45.6352 64.4444 46.0379 64.6901C46.4607 64.9455 46.7746 65.3022 46.9996 65.7698C47.2247 66.2374 47.3306 66.7863 47.3375 67.4262L47.3397 67.6262C47.3406 67.7162 47.3114 67.7865 47.2618 67.8271C47.2124 67.8776 47.1526 67.8983 47.0726 67.8991L42.9228 67.9439L42.924 68.0539C42.9476 68.3837 43.0209 68.6929 43.1539 68.9715C43.287 69.25 43.4694 69.4781 43.7112 69.6455C43.9532 69.8229 44.244 69.8997 44.574 69.8962C44.864 69.8931 45.1035 69.8505 45.2926 69.7584C45.4816 69.6664 45.6406 69.5747 45.7594 69.4634C45.8782 69.3521 45.9572 69.2612 45.9967 69.2108C46.0656 69.11 46.125 69.0494 46.1647 69.029C46.2045 69.0085 46.2643 68.9879 46.3543 68.9869L46.9343 68.9807C47.0143 68.9798 47.0745 68.9992 47.125 69.0486C47.1854 69.088 47.2061 69.1477 47.1969 69.2279C47.1982 69.3478 47.1299 69.4986 47.0117 69.6699C46.8935 69.8412 46.7254 70.013 46.4971 70.1755C46.2689 70.3379 46.0005 70.4908 45.6817 70.6043C45.3628 70.7077 44.9935 70.7717 44.5835 70.7761L44.574 70.8262ZM42.9042 67.144L46.194 67.1085L46.1936 67.0685C46.1897 66.7086 46.1163 66.3893 45.9832 66.1108C45.8502 65.8322 45.6579 65.6142 45.4162 65.4568C45.1643 65.2896 44.8735 65.2127 44.5235 65.2165C44.1735 65.2202 43.8844 65.3034 43.6363 65.4761C43.398 65.6386 43.2204 65.8606 43.0934 66.1419C42.9664 66.4233 42.9099 66.744 42.9138 67.1039L42.9142 67.1439L42.9042 67.144ZM49.0825 70.6576C49.0025 70.6585 48.9323 70.6392 48.8817 70.5898C48.8311 70.5303 48.8104 70.4705 48.8096 70.3905L48.7482 64.7009C48.7473 64.6209 48.7667 64.5606 48.8161 64.5101C48.8755 64.4495 48.9353 64.4288 49.0153 64.4279L49.5752 64.4219C49.6552 64.421 49.7155 64.4504 49.7661 64.4999C49.8266 64.5492 49.8473 64.609 49.8481 64.689L49.8538 65.2189C50.0609 64.9467 50.3185 64.7239 50.6267 64.5506C50.9447 64.3671 51.3538 64.2827 51.8438 64.2774C52.3338 64.2721 52.805 64.3871 53.1675 64.6132C53.5399 64.8292 53.8133 65.1462 54.0077 65.5542C54.192 65.9522 54.2971 66.4211 54.3028 66.951L54.3393 70.3309C54.3401 70.4109 54.3209 70.4811 54.2714 70.5316C54.222 70.5821 54.1622 70.6028 54.0822 70.6036L53.4822 70.6101C53.4022 70.611 53.332 70.5917 53.2815 70.5423C53.2308 70.4828 53.2102 70.423 53.2093 70.343L53.1735 67.0232C53.1675 66.4633 53.0227 66.0248 52.7494 65.7177C52.476 65.4007 52.0743 65.245 51.5443 65.2507C51.0443 65.2561 50.6461 65.4204 50.3495 65.7436C50.0529 66.0568 49.9177 66.4983 49.9237 67.0583L49.9595 70.3781C49.9604 70.4581 49.9311 70.5284 49.8817 70.579C49.8322 70.6295 49.7724 70.6501 49.6924 70.651L49.0825 70.6576ZM58.4419 70.5566C57.992 70.5615 57.6311 70.4854 57.3493 70.3184C57.0674 70.1414 56.8648 69.9036 56.7315 69.595C56.598 69.2764 56.5339 68.8971 56.5293 68.4671L56.4951 65.2973L55.5551 65.3074C55.4751 65.3083 55.4049 65.2891 55.3544 65.2396C55.3037 65.1802 55.2831 65.1204 55.2822 65.0404L55.2778 64.6304C55.2769 64.5504 55.2963 64.4902 55.3458 64.4397C55.4051 64.379 55.4649 64.3584 55.5449 64.3575L56.4848 64.3474L56.4632 62.3475C56.4624 62.2675 56.4817 62.2073 56.5312 62.1567C56.5905 62.0961 56.6503 62.0754 56.7303 62.0746L57.2903 62.0685C57.3703 62.0677 57.4306 62.097 57.4811 62.1465C57.5417 62.1958 57.5623 62.2556 57.5632 62.3356L57.5848 64.3355L59.0747 64.3194C59.1547 64.3185 59.215 64.3479 59.2655 64.3974C59.3261 64.4467 59.3467 64.5065 59.3476 64.5865L59.352 64.9965C59.3529 65.0765 59.3236 65.1468 59.2742 65.1973C59.2247 65.2479 59.1649 65.2685 59.0849 65.2694L57.595 65.2854L57.6282 68.3653C57.6323 68.7452 57.6955 69.0346 57.8278 69.2532C57.9602 69.4717 58.1913 69.5693 58.5112 69.5658L59.2412 69.5579C59.3212 69.5571 59.3815 69.5864 59.4321 69.6359C59.4926 69.6852 59.5132 69.745 59.5141 69.825L59.5187 70.255C59.5196 70.335 59.4904 70.4053 59.4409 70.4558C59.3914 70.5064 59.3317 70.527 59.2517 70.5279L58.4217 70.5368L58.4419 70.5566ZM65.4915 70.4805C65.3715 70.4818 65.2712 70.4529 65.2007 70.4037C65.14 70.3443 65.0793 70.275 65.0383 70.1854L62.7584 64.6397C62.7584 64.6397 62.7375 64.5599 62.7371 64.5199C62.7363 64.4499 62.7556 64.3897 62.8051 64.3392C62.8546 64.2886 62.9143 64.268 62.9843 64.2672L63.5643 64.261C63.6543 64.26 63.7245 64.2792 63.765 64.3288C63.8156 64.3783 63.846 64.4179 63.8464 64.4579L65.7374 69.1678L67.5062 64.4185C67.5062 64.4185 67.5454 64.338 67.5848 64.2876C67.6343 64.2371 67.7041 64.2163 67.7841 64.2154L68.374 64.2091C68.434 64.2084 68.4942 64.2278 68.5448 64.2772C68.6053 64.3266 68.626 64.3864 68.6267 64.4564C68.6271 64.4964 68.6276 64.5364 68.608 64.5766L66.4382 70.1703C66.4092 70.2606 66.36 70.3312 66.2806 70.392C66.2213 70.4527 66.1215 70.4737 65.9915 70.4752L65.4715 70.4808L65.4915 70.4805ZM71.4725 70.536C71.0725 70.5403 70.7117 70.4642 70.3799 70.3078C70.0482 70.1514 69.7859 69.9342 69.583 69.6664C69.3801 69.3985 69.2767 69.0896 69.2731 68.7496C69.2671 68.1997 69.4824 67.7573 69.9288 67.4225C70.3752 67.0877 70.9529 66.8714 71.6717 66.7536L73.4589 66.4844L73.4551 66.1344C73.451 65.7544 73.3378 65.4556 73.1054 65.2381C72.883 65.0205 72.532 64.9243 72.032 64.9296C71.672 64.9335 71.3828 65.0067 71.1544 65.1591C70.936 65.3015 70.788 65.4931 70.7004 65.7141C70.6517 65.8346 70.5723 65.8955 70.4524 65.8968L69.9124 65.9026C69.8224 65.9036 69.7522 65.8843 69.7116 65.8347C69.671 65.7752 69.6504 65.7154 69.6496 65.6454C69.6483 65.5254 69.6867 65.375 69.7748 65.204C69.8729 65.0229 70.011 64.8515 70.1992 64.6794C70.3874 64.5074 70.6358 64.3647 70.9246 64.2516C71.2233 64.1283 71.5927 64.0643 72.0226 64.0597C72.5026 64.0545 72.9032 64.1102 73.2346 64.2366C73.5659 64.3531 73.8176 64.5104 74.0098 64.7183C74.2021 64.9262 74.3446 65.1547 74.4275 65.4238C74.5203 65.6829 74.5632 65.9524 74.5661 66.2224L74.6081 70.1122C74.6089 70.1922 74.5797 70.2625 74.5302 70.313C74.4808 70.3636 74.421 70.3842 74.341 70.3851L73.791 70.391C73.701 70.392 73.6308 70.3727 73.5903 70.3232C73.5396 70.2637 73.519 70.2039 73.5181 70.1239L73.5125 69.604C73.414 69.745 73.2757 69.8965 73.0972 70.0385C72.9187 70.1804 72.6999 70.2928 72.441 70.3956C72.182 70.4884 71.8524 70.5319 71.4725 70.536ZM71.7127 69.6334C72.0427 69.6298 72.342 69.5566 72.6105 69.4237C72.879 69.2808 73.0866 69.0585 73.2434 68.7568C73.4001 68.4551 73.4761 68.0843 73.4713 67.6343L73.4676 67.2943L72.0798 67.5093C71.5107 67.5954 71.0823 67.7401 70.8043 67.9331C70.5163 68.1162 70.3789 68.3577 70.382 68.6477C70.3844 68.8677 70.4465 69.057 70.5781 69.2056C70.7196 69.3441 70.8807 69.4523 71.0815 69.5202C71.2922 69.5879 71.5026 69.6256 71.7226 69.6233L71.7127 69.6334ZM76.6409 70.3602C76.5609 70.3611 76.4907 70.3419 76.4401 70.2924C76.3895 70.233 76.3688 70.1732 76.368 70.0932L76.282 62.1236C76.2811 62.0436 76.3005 61.9834 76.3499 61.9329C76.4093 61.8723 76.4691 61.8516 76.5491 61.8507L77.109 61.8447C77.199 61.8437 77.2693 61.873 77.3099 61.9225C77.3604 61.972 77.3811 62.0318 77.3819 62.1118L77.4679 70.0813C77.4688 70.1613 77.4495 70.2315 77.4001 70.2821C77.3506 70.3326 77.2808 70.3533 77.2008 70.3542L76.6409 70.3602ZM81.6019 70.4267C81.0919 70.4322 80.6507 70.327 80.2883 70.1009C79.9358 69.8747 79.6624 69.5576 79.478 69.1496C79.2936 68.7415 79.1885 68.2726 79.1829 67.7527L79.1464 64.3729C79.1456 64.2929 79.1649 64.2327 79.2144 64.1821C79.2737 64.1215 79.3335 64.1008 79.4135 64.1L80.0135 64.0935C80.0935 64.0926 80.1538 64.122 80.2043 64.1714C80.2648 64.2208 80.2855 64.2806 80.2864 64.3606L80.3222 67.6804C80.335 68.8703 80.8615 69.4647 81.9014 69.4534C82.4014 69.448 82.7896 69.2838 83.0863 68.9706C83.3828 68.6474 83.538 68.2057 83.532 67.6457L83.4962 64.3259C83.4953 64.2459 83.5147 64.1857 83.5641 64.1352C83.6235 64.0745 83.6832 64.0539 83.7632 64.053L84.3532 64.0467C84.4432 64.0457 84.5135 64.0749 84.5541 64.1245C84.6046 64.174 84.6252 64.2337 84.6261 64.3137L84.6875 70.0034C84.6884 70.0834 84.6691 70.1536 84.6197 70.2042C84.5702 70.2547 84.5004 70.2754 84.4204 70.2763L83.8705 70.2822C83.7905 70.2831 83.7202 70.2639 83.6697 70.2144C83.6191 70.155 83.5984 70.0952 83.5976 70.0152L83.5918 69.4852C83.3749 69.7676 83.1173 69.9904 82.8091 70.1637C82.511 70.3369 82.1019 70.4213 81.6019 70.4267ZM88.9814 70.3471C88.1615 70.356 87.4988 70.1131 87.0034 69.6084C86.5079 69.1037 86.2304 68.4067 86.1809 67.5272C86.1798 67.4272 86.1683 67.2873 86.1665 67.1273C86.1647 66.9573 86.1633 66.8273 86.1721 66.7172C86.196 66.1469 86.3207 65.6555 86.556 65.223C86.7814 64.7905 87.0978 64.4571 87.4952 64.2128C87.9027 63.9784 88.3714 63.8533 88.9213 63.8474C89.5313 63.8408 90.0427 63.9653 90.4453 64.211C90.8681 64.4664 91.182 64.823 91.407 65.2906C91.6321 65.7582 91.738 66.3071 91.7449 66.9471L91.7471 67.1471C91.7481 67.2371 91.7188 67.3074 91.6693 67.3479C91.6198 67.3985 91.56 67.4191 91.48 67.42L87.3303 67.4648L87.3314 67.5747C87.355 67.9045 87.4283 68.2137 87.5614 68.4923C87.6944 68.7709 87.8768 68.9989 88.1187 69.1663C88.3606 69.3437 88.6514 69.4206 88.9814 69.4171C89.2714 69.4139 89.511 69.3713 89.7 69.2793C89.889 69.1872 90.048 69.0955 90.1668 68.9842C90.2856 68.8729 90.3646 68.7821 90.4041 68.7317C90.473 68.6309 90.5324 68.5703 90.5722 68.5498C90.6119 68.5294 90.6717 68.5088 90.7617 68.5078L91.3417 68.5015C91.4217 68.5007 91.4819 68.52 91.5324 68.5695C91.5928 68.6088 91.6135 68.6686 91.6044 68.7487C91.6056 68.8687 91.5373 69.0195 91.4191 69.1907C91.301 69.362 91.1328 69.5338 90.9045 69.6963C90.6763 69.8588 90.4079 70.0117 90.0891 70.1251C89.7702 70.2286 89.4009 70.2926 88.9909 70.297L88.9814 70.3471ZM87.3116 66.6649L90.6014 66.6294L90.601 66.5894C90.5971 66.2294 90.5237 65.9102 90.3907 65.6316C90.2576 65.353 90.0653 65.1351 89.8236 64.9777C89.5718 64.8104 89.2809 64.7336 88.9309 64.7373C88.5809 64.7411 88.2918 64.8242 88.0437 64.9969C87.8054 65.1595 87.6278 65.3814 87.5008 65.6628C87.3739 65.9442 87.3173 66.2648 87.3212 66.6248L87.3216 66.6648L87.3116 66.6649Z" fill="#5A6389"/>
<path d="M22.3601 91.9489C22.2501 91.9501 22.1599 91.9311 22.0893 91.8818C22.0288 91.8325 21.9583 91.7832 21.9075 91.7138L18.6581 88.0786C18.5874 88.0094 18.5266 87.94 18.506 87.8802C18.4852 87.8105 18.4742 87.7206 18.4728 87.5906L18.4695 87.2806C18.4685 87.1906 18.4977 87.1103 18.5471 87.0598C18.6164 86.989 18.696 86.9581 18.786 86.9572L19.546 86.949C20.1959 86.942 20.695 86.8566 21.0432 86.6828C21.3913 86.509 21.619 86.2866 21.7359 86.0053C21.8629 85.7239 21.9294 85.4032 21.9254 85.0332C21.9217 84.6832 21.8483 84.374 21.7153 84.0954C21.5922 83.8067 21.3597 83.5792 21.0379 83.4127C20.7061 83.2462 20.2453 83.1712 19.6453 83.1777L18.6254 83.1887C18.5354 83.1897 18.455 83.1605 18.3845 83.1113C18.3238 83.0419 18.303 82.9721 18.3019 82.8722L18.298 82.5122C18.2971 82.4222 18.3262 82.3419 18.3757 82.2913C18.4449 82.2206 18.5246 82.1897 18.6146 82.1887L24.1842 82.1286C24.2742 82.1277 24.3546 82.1568 24.4053 82.2263C24.466 82.2856 24.5067 82.3552 24.5077 82.4452L24.5116 82.8052C24.5125 82.8951 24.4834 82.9755 24.4142 83.0462C24.3548 83.1069 24.285 83.1276 24.195 83.1286L22.0652 83.1516L21.7111 82.7754C22.3227 82.9188 22.7357 83.1943 22.9702 83.6118C23.1947 84.0294 23.3199 84.5081 23.3259 85.0681C23.3314 85.578 23.2265 86.0492 23.0011 86.4817C22.7958 86.9139 22.4496 87.2677 21.9724 87.5328C21.5051 87.7879 20.9067 87.9343 20.1669 87.9623L19.747 87.9669L19.751 87.4168L23.3753 91.4979C23.456 91.567 23.4868 91.6367 23.4875 91.7067C23.4884 91.7867 23.4589 91.837 23.4094 91.8776C23.3598 91.9181 23.28 91.939 23.2 91.9398L22.3501 91.949L22.3601 91.9489ZM18.6496 85.4386C18.5496 85.4396 18.4693 85.4105 18.4088 85.3612C18.3482 85.3118 18.3273 85.222 18.3262 85.122L18.3224 84.772C18.3213 84.672 18.3505 84.5917 18.3998 84.5312C18.4692 84.4704 18.549 84.4496 18.639 84.4486L24.2086 84.3885C24.2986 84.3875 24.3789 84.4167 24.4295 84.4661C24.4901 84.5255 24.531 84.605 24.5321 84.705L24.5358 85.055C24.5369 85.155 24.5078 85.2353 24.4384 85.2961C24.3791 85.3567 24.3093 85.3775 24.2193 85.3785L18.6496 85.4386ZM31.0196 91.8555C30.9296 91.8564 30.8493 91.8273 30.7787 91.7781C30.7181 91.7187 30.6972 91.6389 30.6961 91.5389L30.6744 89.5191L26.1346 89.568C26.0446 89.569 25.9643 89.5399 25.8938 89.4906C25.833 89.4213 25.8123 89.3515 25.8112 89.2515L25.8051 88.6915C25.8051 88.6915 25.8042 88.6015 25.8333 88.5212C25.8624 88.4409 25.9015 88.3505 25.9606 88.2698L30.0965 82.3049C30.2048 82.1437 30.3839 82.0618 30.6139 82.0593L31.6238 82.0484C31.7138 82.0474 31.7941 82.0765 31.8449 82.146C31.9155 82.2052 31.9463 82.2749 31.9472 82.3649L32.0111 88.2846L33.271 88.271C33.371 88.2699 33.4514 88.299 33.5121 88.3684C33.5828 88.4276 33.6135 88.4973 33.6145 88.5873L33.6206 89.1572C33.6216 89.2472 33.5925 89.3276 33.5232 89.3983C33.4639 89.459 33.3941 89.4797 33.3041 89.4807L32.0342 89.4944L32.056 91.5143C32.0569 91.6043 32.0278 91.6846 31.9586 91.7553C31.8992 91.816 31.8294 91.8367 31.7394 91.8377L31.0395 91.8453L31.0196 91.8555ZM27.3017 88.3654L30.6715 88.329L30.6197 83.5293L27.3017 88.3654ZM35.6393 91.8056C35.5393 91.8067 35.459 91.7776 35.3985 91.7282C35.3378 91.6689 35.317 91.5891 35.3159 91.4891L35.2171 82.3296C35.2161 82.2396 35.2452 82.1593 35.2947 82.1088C35.3539 82.0381 35.4336 82.0073 35.5336 82.0062L36.2735 81.9982C36.3635 81.9972 36.4439 82.0264 36.4946 82.0958C36.5552 82.1552 36.576 82.225 36.577 82.3149L36.6661 90.5745L41.3258 90.5242C41.4258 90.5231 41.5061 90.5522 41.5669 90.6216C41.6275 90.6809 41.6484 90.7607 41.6495 90.8607L41.6555 91.4207C41.6565 91.5107 41.6273 91.591 41.5781 91.6615C41.5188 91.7222 41.439 91.743 41.339 91.7441L35.6293 91.8057L35.6393 91.8056Z" fill="#132056"/>
</svg>
