<svg width="209" height="194" viewBox="0 0 209 194" fill="none" xmlns="http://www.w3.org/2000/svg">
<rect width="207.769" height="193.221" rx="18.1871" transform="matrix(1 1.353e-08 0.000469155 1 0.383789 0.0305176)" fill="#1E0167"/>
<mask id="mask0_1901_5061" style="mask-type:alpha" maskUnits="userSpaceOnUse" x="0" y="0" width="209" height="194">
<rect width="207.418" height="193.221" rx="7.99924" transform="matrix(1 1.353e-08 0.000469155 1 0.729736 0.0209961)" fill="#1E0167"/>
</mask>
<g mask="url(#mask0_1901_5061)">
<path opacity="0.4" d="M28.0165 193.497C22.7635 193.726 17.8766 193.704 13.4602 193.497H28.0165C86.3542 190.957 189.854 157.46 195.74 1.53271C211 9 207.5 10 207.5 104L207.5 193.497H28.0165Z" fill="#541CDF"/>
</g>
<path d="M22.8797 32.7632H20.2349L23.6702 22.5814H26.9465L30.3819 32.7632H27.737L25.3457 25.1467H25.2661L22.8797 32.7632ZM22.5268 28.7561H28.0552V30.6254H22.5268V28.7561ZM31.4781 32.7632V22.5814H33.9391V30.7646H38.1748V32.7632H31.4781ZM39.4488 32.7632V22.5814H41.9098V30.7646H46.1456V32.7632H39.4488ZM56.6331 27.6723C56.6331 28.7925 56.4177 29.7421 55.9868 30.521C55.5559 31.2999 54.9726 31.8915 54.2368 32.2959C53.5043 32.7002 52.6824 32.9024 51.7709 32.9024C50.8561 32.9024 50.0325 32.6986 49.3 32.2909C48.5675 31.8832 47.9859 31.2916 47.555 30.516C47.1274 29.7371 46.9137 28.7892 46.9137 27.6723C46.9137 26.552 47.1274 25.6024 47.555 24.8236C47.9859 24.0447 48.5675 23.4531 49.3 23.0487C50.0325 22.6443 50.8561 22.4422 51.7709 22.4422C52.6824 22.4422 53.5043 22.6443 54.2368 23.0487C54.9726 23.4531 55.5559 24.0447 55.9868 24.8236C56.4177 25.6024 56.6331 26.552 56.6331 27.6723ZM54.1175 27.6723C54.1175 27.0094 54.023 26.4493 53.8341 25.9919C53.6485 25.5345 53.38 25.1881 53.0287 24.9528C52.6807 24.7175 52.2614 24.5998 51.7709 24.5998C51.2837 24.5998 50.8644 24.7175 50.5131 24.9528C50.1618 25.1881 49.8916 25.5345 49.7027 25.9919C49.5171 26.4493 49.4243 27.0094 49.4243 27.6723C49.4243 28.3352 49.5171 28.8953 49.7027 29.3527C49.8916 29.8101 50.1618 30.1564 50.5131 30.3917C50.8644 30.6271 51.2837 30.7447 51.7709 30.7447C52.2614 30.7447 52.6807 30.6271 53.0287 30.3917C53.38 30.1564 53.6485 29.8101 53.8341 29.3527C54.023 28.8953 54.1175 28.3352 54.1175 27.6723ZM67.3121 26.2703H64.8263C64.7932 26.0151 64.7252 25.7847 64.6225 25.5792C64.5197 25.3737 64.3838 25.1981 64.2148 25.0522C64.0458 24.9064 63.8452 24.7954 63.6132 24.7191C63.3845 24.6396 63.131 24.5998 62.8526 24.5998C62.3587 24.5998 61.9328 24.7208 61.5749 24.9628C61.2202 25.2047 60.9468 25.5544 60.7546 26.0118C60.5657 26.4691 60.4712 27.0227 60.4712 27.6723C60.4712 28.3484 60.5673 28.9152 60.7595 29.3726C60.9551 29.8266 61.2285 30.1697 61.5799 30.4017C61.9345 30.6304 62.3538 30.7447 62.8377 30.7447C63.1094 30.7447 63.3564 30.7099 63.5784 30.6403C63.8038 30.5707 64.001 30.4696 64.1701 30.337C64.3424 30.2012 64.4833 30.0371 64.5926 29.8449C64.7053 29.6493 64.7832 29.4289 64.8263 29.1836L67.3121 29.1986C67.269 29.6493 67.1381 30.0934 66.9193 30.5309C66.7039 30.9684 66.4073 31.3678 66.0294 31.7291C65.6516 32.087 65.1909 32.3721 64.6473 32.5842C64.1071 32.7963 63.4873 32.9024 62.788 32.9024C61.8666 32.9024 61.0413 32.7002 60.3121 32.2959C59.5862 31.8882 59.0129 31.2949 58.5919 30.516C58.171 29.7371 57.9605 28.7892 57.9605 27.6723C57.9605 26.552 58.1743 25.6024 58.6019 24.8236C59.0294 24.0447 59.6078 23.4531 60.337 23.0487C61.0661 22.6443 61.8831 22.4422 62.788 22.4422C63.4044 22.4422 63.9745 22.5283 64.4982 22.7007C65.0219 22.8697 65.4826 23.1183 65.8803 23.4464C66.278 23.7712 66.6012 24.1706 66.8497 24.6446C67.0983 25.1185 67.2524 25.6604 67.3121 26.2703ZM70.663 32.7632H68.0181L71.4534 22.5814H74.7297L78.1651 32.7632H75.5202L73.1289 25.1467H73.0493L70.663 32.7632ZM70.31 28.7561H75.8384V30.6254H70.31V28.7561ZM77.6567 24.5799V22.5814H86.2626V24.5799H83.1752V32.7632H80.7491V24.5799H77.6567ZM89.9254 22.5814V32.7632H87.4644V22.5814H89.9254ZM101.08 27.6723C101.08 28.7925 100.865 29.7421 100.434 30.521C100.003 31.2999 99.4199 31.8915 98.6841 32.2959C97.9516 32.7002 97.1296 32.9024 96.2182 32.9024C95.3034 32.9024 94.4798 32.6986 93.7473 32.2909C93.0148 31.8832 92.4331 31.2916 92.0023 30.516C91.5747 29.7371 91.3609 28.7892 91.3609 27.6723C91.3609 26.552 91.5747 25.6024 92.0023 24.8236C92.4331 24.0447 93.0148 23.4531 93.7473 23.0487C94.4798 22.6443 95.3034 22.4422 96.2182 22.4422C97.1296 22.4422 97.9516 22.6443 98.6841 23.0487C99.4199 23.4531 100.003 24.0447 100.434 24.8236C100.865 25.6024 101.08 26.552 101.08 27.6723ZM98.5648 27.6723C98.5648 27.0094 98.4703 26.4493 98.2814 25.9919C98.0958 25.5345 97.8273 25.1881 97.476 24.9528C97.128 24.7175 96.7087 24.5998 96.2182 24.5998C95.731 24.5998 95.3117 24.7175 94.9604 24.9528C94.609 25.1881 94.3389 25.5345 94.15 25.9919C93.9644 26.4493 93.8716 27.0094 93.8716 27.6723C93.8716 28.3352 93.9644 28.8953 94.15 29.3527C94.3389 29.8101 94.609 30.1564 94.9604 30.3917C95.3117 30.6271 95.731 30.7447 96.2182 30.7447C96.7087 30.7447 97.128 30.6271 97.476 30.3917C97.8273 30.1564 98.0958 29.8101 98.2814 29.3527C98.4703 28.8953 98.5648 28.3352 98.5648 27.6723ZM111.183 22.5814V32.7632H109.095L105.043 26.8868H104.978V32.7632H102.517V22.5814H104.635L108.642 28.4478H108.727V22.5814H111.183ZM119.501 32.7632L115.738 32.7632V22.5814H119.496C120.534 22.5814 121.427 22.7852 122.176 23.1929C122.928 23.5972 123.508 24.1806 123.916 24.9429C124.324 25.7019 124.528 26.61 124.528 27.6673C124.528 28.7279 124.324 29.6394 123.916 30.4017C123.512 31.164 122.933 31.749 122.181 32.1566C121.429 32.561 120.535 32.7632 119.501 32.7632ZM118.199 30.6652H119.407C119.977 30.6652 120.459 30.5691 120.854 30.3768C121.251 30.1813 121.551 29.8647 121.754 29.4272C121.959 28.9864 122.062 28.3998 122.062 27.6673C122.062 26.9348 121.959 26.3515 121.754 25.9173C121.548 25.4798 121.245 25.1649 120.844 24.9727C120.446 24.7772 119.955 24.6794 119.372 24.6794H118.199V30.6652ZM125.964 32.7632V22.5814H133.064V24.5799H128.425V26.668H132.701V28.6716H128.425V30.7646H133.064V32.7632H125.964ZM134.272 24.5799V22.5814H142.878V24.5799H139.79V32.7632H137.364V24.5799H134.272ZM145.011 32.7632H142.366L145.801 22.5814H149.077L152.513 32.7632H149.868L147.477 25.1467H147.397L145.011 32.7632ZM144.658 28.7561H150.186V30.6254H144.658V28.7561ZM156.07 22.5814V32.7632H153.609V22.5814H156.07ZM157.615 32.7632V22.5814H160.076V30.7646H164.312V32.7632H157.615ZM171.089 25.6339C171.056 25.2693 170.908 24.986 170.647 24.7838C170.388 24.5783 170.019 24.4755 169.538 24.4755C169.22 24.4755 168.955 24.517 168.742 24.5998C168.53 24.6827 168.371 24.797 168.265 24.9429C168.159 25.0854 168.104 25.2495 168.101 25.4351C168.095 25.5875 168.124 25.7218 168.191 25.8378C168.26 25.9538 168.36 26.0565 168.489 26.146C168.622 26.2322 168.781 26.3084 168.966 26.3747C169.152 26.441 169.361 26.499 169.593 26.5487L170.468 26.7476C170.971 26.8569 171.416 27.0028 171.8 27.1851C172.188 27.3674 172.513 27.5844 172.774 27.8363C173.04 28.0882 173.24 28.3782 173.376 28.7064C173.512 29.0345 173.582 29.4024 173.585 29.8101C173.582 30.4531 173.419 31.0049 173.098 31.4656C172.776 31.9263 172.314 32.2793 171.711 32.5245C171.111 32.7698 170.386 32.8924 169.538 32.8924C168.686 32.8924 167.944 32.7648 167.311 32.5096C166.678 32.2544 166.185 31.8666 165.834 31.3463C165.483 30.8259 165.302 30.168 165.292 29.3726H167.649C167.669 29.7007 167.756 29.9741 167.912 30.1929C168.068 30.4116 168.282 30.5773 168.554 30.69C168.829 30.8027 169.147 30.8591 169.508 30.8591C169.84 30.8591 170.121 30.8143 170.353 30.7248C170.589 30.6353 170.769 30.5111 170.895 30.352C171.021 30.1929 171.086 30.0106 171.089 29.8051C171.086 29.6129 171.026 29.4488 170.91 29.3129C170.794 29.1737 170.615 29.0544 170.373 28.9549C170.135 28.8522 169.83 28.7577 169.458 28.6716L168.394 28.423C167.513 28.2208 166.818 27.8943 166.311 27.4436C165.804 26.9895 165.552 26.3763 165.556 25.6041C165.552 24.9744 165.721 24.4225 166.063 23.9486C166.404 23.4746 166.876 23.105 167.48 22.8399C168.083 22.5747 168.771 22.4422 169.543 22.4422C170.332 22.4422 171.016 22.5764 171.596 22.8449C172.18 23.11 172.632 23.4829 172.953 23.9635C173.275 24.4441 173.439 25.0009 173.446 25.6339H171.089Z" fill="white"/>
<path d="M20.8393 68.3022V58.8477H26.9884V60.2834H22.552V62.8502H26.6699V64.2859H22.552V66.8665H27.0253V68.3022H20.8393ZM33.3938 70.9613V67.1851H33.3245C33.2384 67.3574 33.1137 67.5405 32.9506 67.7344C32.7875 67.9252 32.572 68.0883 32.3043 68.2238C32.0365 68.3592 31.6995 68.4269 31.2933 68.4269C30.7362 68.4269 30.2376 68.2838 29.7975 67.9976C29.3574 67.7113 29.0097 67.2959 28.7542 66.7511C28.4988 66.2064 28.371 65.5447 28.371 64.766C28.371 63.9781 28.5003 63.3134 28.7588 62.7717C29.0204 62.227 29.3728 61.8161 29.816 61.5391C30.2592 61.259 30.7532 61.119 31.2979 61.119C31.7134 61.119 32.055 61.1898 32.3228 61.3314C32.5905 61.4699 32.8029 61.6376 32.9598 61.8346C33.1168 62.0285 33.2384 62.2116 33.3245 62.3839H33.4261V61.2113H35.0696V70.9613H33.3938ZM31.7595 67.0558C32.1135 67.0558 32.4151 66.9604 32.6644 66.7696C32.9137 66.5757 33.1029 66.3064 33.2322 65.9617C33.3615 65.617 33.4261 65.2154 33.4261 64.7568C33.4261 64.2982 33.3615 63.8997 33.2322 63.5611C33.106 63.2226 32.9183 62.9594 32.669 62.7717C32.4228 62.584 32.1196 62.4901 31.7595 62.4901C31.3871 62.4901 31.0763 62.587 30.827 62.7809C30.5777 62.9748 30.39 63.2426 30.2638 63.5842C30.1376 63.9258 30.0745 64.3167 30.0745 64.7568C30.0745 65.2 30.1376 65.5955 30.2638 65.9432C30.3931 66.2879 30.5823 66.5603 30.8316 66.7603C31.084 66.9573 31.3933 67.0558 31.7595 67.0558ZM41.3064 65.32V61.2113H42.9776V68.3022H41.3572V67.0419H41.2833C41.1233 67.439 40.8602 67.7637 40.4939 68.016C40.1308 68.2684 39.683 68.3946 39.1505 68.3946C38.6858 68.3946 38.2749 68.2915 37.9179 68.0853C37.564 67.876 37.287 67.5728 37.087 67.1758C36.8869 66.7757 36.7869 66.2925 36.7869 65.7263V61.2113H38.4581V65.4677C38.4581 65.9171 38.5812 66.2741 38.8274 66.5388C39.0736 66.8034 39.3967 66.9358 39.7968 66.9358C40.043 66.9358 40.2816 66.8758 40.5124 66.7557C40.7432 66.6357 40.9325 66.4572 41.0802 66.2202C41.231 65.9802 41.3064 65.6801 41.3064 65.32ZM44.6961 68.3022V61.2113H46.3672V68.3022H44.6961ZM45.5363 60.2049C45.2716 60.2049 45.0438 60.1172 44.853 59.9418C44.6622 59.7633 44.5668 59.5494 44.5668 59.3001C44.5668 59.0477 44.6622 58.8339 44.853 58.6584C45.0438 58.4799 45.2716 58.3907 45.5363 58.3907C45.804 58.3907 46.0318 58.4799 46.2195 58.6584C46.4103 58.8339 46.5057 59.0477 46.5057 59.3001C46.5057 59.5494 46.4103 59.7633 46.2195 59.9418C46.0318 60.1172 45.804 60.2049 45.5363 60.2049ZM51.6266 61.2113V62.504H47.5502V61.2113H51.6266ZM48.5566 59.5125H50.2278V66.1694C50.2278 66.3941 50.2616 66.5665 50.3293 66.6865C50.4001 66.8034 50.4924 66.8834 50.6063 66.9265C50.7202 66.9696 50.8464 66.9912 50.9849 66.9912C51.0895 66.9912 51.1849 66.9835 51.2711 66.9681C51.3603 66.9527 51.428 66.9388 51.4742 66.9265L51.7558 68.233C51.6666 68.2638 51.5388 68.2976 51.3726 68.3346C51.2095 68.3715 51.0095 68.393 50.7725 68.3992C50.3539 68.4115 49.9769 68.3484 49.6415 68.2099C49.306 68.0683 49.0398 67.8498 48.8428 67.5544C48.6489 67.2589 48.5535 66.8896 48.5566 66.4464V59.5125ZM54.0629 70.9613C53.8352 70.9613 53.6243 70.9429 53.4304 70.9059C53.2396 70.8721 53.0873 70.8321 52.9734 70.7859L53.3612 69.4841C53.6043 69.5549 53.8213 69.5887 54.0121 69.5856C54.2029 69.5825 54.3707 69.5225 54.5153 69.4056C54.663 69.2917 54.7877 69.1009 54.8892 68.8331L55.0324 68.45L52.461 61.2113H54.2337L55.8679 66.5665H55.9418L57.5807 61.2113H59.358L56.5189 69.1609C56.3865 69.5364 56.2111 69.858 55.9926 70.1258C55.7741 70.3966 55.5063 70.6028 55.1893 70.7444C54.8754 70.889 54.4999 70.9613 54.0629 70.9613Z" fill="white"/>
<path d="M24.0431 100.302H20.8393V90.8477H24.1077C25.0464 90.8477 25.8528 91.037 26.5268 91.4155C27.2039 91.791 27.724 92.3311 28.0871 93.0359C28.4503 93.7407 28.6319 94.584 28.6319 95.5657C28.6319 96.5506 28.4488 97.3969 28.0825 98.1048C27.7194 98.8127 27.1946 99.3559 26.5083 99.7344C25.8251 100.113 25.0033 100.302 24.0431 100.302ZM22.552 98.8204H23.96C24.6186 98.8204 25.168 98.7003 25.6081 98.4603C26.0482 98.2171 26.379 97.8555 26.6006 97.3754C26.8222 96.8922 26.933 96.289 26.933 95.5657C26.933 94.8425 26.8222 94.2424 26.6006 93.7653C26.379 93.2852 26.0513 92.9267 25.6173 92.6897C25.1864 92.4496 24.6509 92.3296 24.0108 92.3296H22.552V98.8204ZM33.3245 100.441C32.6136 100.441 31.9996 100.293 31.4826 99.9976C30.9686 99.699 30.5731 99.2774 30.2961 98.7326C30.0191 98.1848 29.8806 97.5401 29.8806 96.7983C29.8806 96.0689 30.0191 95.4288 30.2961 94.8779C30.5762 94.3239 30.967 93.893 31.4687 93.5853C31.9704 93.2744 32.5597 93.119 33.2368 93.119C33.6738 93.119 34.0862 93.1898 34.474 93.3314C34.8649 93.4699 35.2096 93.6853 35.5081 93.9777C35.8097 94.27 36.0467 94.6424 36.2191 95.0949C36.3914 95.5442 36.4776 96.0797 36.4776 96.7014V97.2138H30.6654V96.0874H34.8757C34.8726 95.7673 34.8033 95.4826 34.6679 95.2334C34.5325 94.981 34.3432 94.7825 34.1001 94.6378C33.86 94.4932 33.58 94.4209 33.2599 94.4209C32.9183 94.4209 32.6182 94.504 32.3597 94.6701C32.1012 94.8333 31.8996 95.0487 31.7549 95.3165C31.6134 95.5811 31.541 95.872 31.538 96.189V97.1723C31.538 97.5847 31.6134 97.9386 31.7642 98.2341C31.915 98.5264 32.1258 98.7511 32.3966 98.9081C32.6675 99.062 32.9844 99.1389 33.3476 99.1389C33.5907 99.1389 33.8108 99.105 34.0078 99.0373C34.2047 98.9665 34.3755 98.8634 34.5202 98.728C34.6648 98.5926 34.7741 98.4249 34.848 98.2248L36.4083 98.4003C36.3099 98.8127 36.1221 99.1727 35.8451 99.4805C35.5712 99.7852 35.2204 100.022 34.7926 100.191C34.3648 100.358 33.8754 100.441 33.3245 100.441ZM37.9652 100.302V90.8477H39.6364V94.3839H39.7057C39.7918 94.2116 39.9134 94.0285 40.0704 93.8346C40.2273 93.6376 40.4397 93.4699 40.7074 93.3314C40.9752 93.1898 41.3168 93.119 41.7323 93.119C42.2801 93.119 42.7741 93.259 43.2142 93.5391C43.6574 93.8161 44.0082 94.227 44.2667 94.7717C44.5283 95.3134 44.6591 95.9781 44.6591 96.766C44.6591 97.5447 44.5314 98.2064 44.276 98.7511C44.0205 99.2959 43.6727 99.7113 43.2326 99.9976C42.7925 100.284 42.294 100.427 41.7369 100.427C41.3307 100.427 40.9937 100.359 40.7259 100.224C40.4581 100.088 40.2427 99.9252 40.0796 99.7344C39.9196 99.5405 39.7949 99.3574 39.7057 99.1851H39.6087V100.302H37.9652ZM39.6041 96.7568C39.6041 97.2154 39.6687 97.617 39.798 97.9617C39.9303 98.3064 40.1196 98.5757 40.3658 98.7696C40.6151 98.9604 40.9167 99.0558 41.2706 99.0558C41.64 99.0558 41.9493 98.9573 42.1986 98.7603C42.4478 98.5603 42.6356 98.2879 42.7618 97.9432C42.891 97.5955 42.9557 97.2 42.9557 96.7568C42.9557 96.3167 42.8926 95.9258 42.7664 95.5842C42.6402 95.2426 42.4525 94.9748 42.2032 94.7809C41.9539 94.587 41.643 94.4901 41.2706 94.4901C40.9136 94.4901 40.6105 94.584 40.3612 94.7717C40.1119 94.9594 39.9226 95.2226 39.7934 95.5611C39.6672 95.8997 39.6041 96.2982 39.6041 96.7568ZM49.6207 93.2113V94.504H45.5443V93.2113H49.6207ZM46.5507 91.5125H48.2219V98.1694C48.2219 98.3941 48.2558 98.5665 48.3235 98.6865C48.3943 98.8034 48.4866 98.8834 48.6005 98.9265C48.7143 98.9696 48.8405 98.9912 48.979 98.9912C49.0836 98.9912 49.1791 98.9835 49.2652 98.9681C49.3545 98.9527 49.4222 98.9388 49.4684 98.9265L49.75 100.233C49.6607 100.264 49.533 100.298 49.3668 100.335C49.2037 100.371 49.0036 100.393 48.7666 100.399C48.3481 100.412 47.9711 100.348 47.6356 100.21C47.3001 100.068 47.0339 99.8498 46.837 99.5544C46.6431 99.2589 46.5477 98.8896 46.5507 98.4464V91.5125Z" fill="white"/>
<path d="M29.2874 127.575C29.2874 128.594 29.0966 129.466 28.715 130.193C28.3364 130.916 27.8194 131.47 27.1638 131.854C26.5114 132.239 25.7712 132.432 24.9433 132.432C24.1154 132.432 23.3737 132.239 22.7182 131.854C22.0657 131.467 21.5487 130.911 21.167 130.188C20.7885 129.462 20.5992 128.591 20.5992 127.575C20.5992 126.556 20.7885 125.685 21.167 124.962C21.5487 124.236 22.0657 123.68 22.7182 123.295C23.3737 122.911 24.1154 122.718 24.9433 122.718C25.7712 122.718 26.5114 122.911 27.1638 123.295C27.8194 123.68 28.3364 124.236 28.715 124.962C29.0966 125.685 29.2874 126.556 29.2874 127.575ZM27.5655 127.575C27.5655 126.858 27.4531 126.253 27.2285 125.761C27.0069 125.265 26.6991 124.891 26.3052 124.639C25.9112 124.383 25.4573 124.256 24.9433 124.256C24.4293 124.256 23.9754 124.383 23.5815 124.639C23.1875 124.891 22.8782 125.265 22.6535 125.761C22.432 126.253 22.3212 126.858 22.3212 127.575C22.3212 128.292 22.432 128.898 22.6535 129.394C22.8782 129.886 23.1875 130.26 23.5815 130.516C23.9754 130.768 24.4293 130.894 24.9433 130.894C25.4573 130.894 25.9112 130.768 26.3052 130.516C26.6991 130.26 27.0069 129.886 27.2285 129.394C27.4531 128.898 27.5655 128.292 27.5655 127.575ZM34.3736 125.211V126.504H30.2973V125.211H34.3736ZM31.3037 123.512H32.9748V130.169C32.9748 130.394 33.0087 130.566 33.0764 130.686C33.1472 130.803 33.2395 130.883 33.3534 130.927C33.4673 130.97 33.5934 130.991 33.7319 130.991C33.8366 130.991 33.932 130.983 34.0182 130.968C34.1074 130.953 34.1751 130.939 34.2213 130.927L34.5029 132.233C34.4136 132.264 34.2859 132.298 34.1197 132.335C33.9566 132.371 33.7566 132.393 33.5196 132.399C33.101 132.412 32.724 132.348 32.3885 132.21C32.0531 132.068 31.7869 131.85 31.5899 131.554C31.396 131.259 31.3006 130.89 31.3037 130.446V123.512ZM37.5948 128.147V132.302H35.9236V122.848H37.5578V126.416H37.6409C37.8071 126.016 38.0641 125.701 38.4119 125.47C38.7627 125.236 39.209 125.119 39.7507 125.119C40.2431 125.119 40.6724 125.222 41.0387 125.428C41.4049 125.635 41.688 125.936 41.8881 126.333C42.0912 126.73 42.1928 127.215 42.1928 127.787V132.302H40.5216V128.046C40.5216 127.569 40.3985 127.198 40.1523 126.933C39.9092 126.666 39.5675 126.532 39.1274 126.532C38.832 126.532 38.5673 126.596 38.3334 126.726C38.1026 126.852 37.921 127.035 37.7887 127.275C37.6594 127.515 37.5948 127.806 37.5948 128.147ZM47.0355 132.441C46.3245 132.441 45.7105 132.293 45.1935 131.998C44.6795 131.699 44.284 131.277 44.0071 130.733C43.7301 130.185 43.5916 129.54 43.5916 128.798C43.5916 128.069 43.7301 127.429 44.0071 126.878C44.2871 126.324 44.678 125.893 45.1796 125.585C45.6813 125.274 46.2707 125.119 46.9478 125.119C47.3848 125.119 47.7972 125.19 48.185 125.331C48.5758 125.47 48.9205 125.685 49.2191 125.978C49.5207 126.27 49.7576 126.642 49.93 127.095C50.1023 127.544 50.1885 128.08 50.1885 128.701V129.214H44.3764V128.087H48.5866C48.5835 127.767 48.5143 127.483 48.3789 127.233C48.2434 126.981 48.0542 126.782 47.811 126.638C47.571 126.493 47.2909 126.421 46.9708 126.421C46.6292 126.421 46.3291 126.504 46.0706 126.67C45.8121 126.833 45.6105 127.049 45.4659 127.316C45.3243 127.581 45.252 127.872 45.2489 128.189V129.172C45.2489 129.585 45.3243 129.939 45.4751 130.234C45.6259 130.526 45.8367 130.751 46.1076 130.908C46.3784 131.062 46.6954 131.139 47.0585 131.139C47.3017 131.139 47.5217 131.105 47.7187 131.037C47.9157 130.967 48.0865 130.863 48.2311 130.728C48.3758 130.593 48.485 130.425 48.5589 130.225L50.1193 130.4C50.0208 130.813 49.8331 131.173 49.5561 131.481C49.2822 131.785 48.9313 132.022 48.5035 132.191C48.0757 132.358 47.5864 132.441 47.0355 132.441ZM51.6023 132.302V125.211H53.2227V126.393H53.2966C53.4258 125.984 53.6474 125.668 53.9613 125.447C54.2783 125.222 54.64 125.11 55.0462 125.11C55.1385 125.11 55.2416 125.114 55.3555 125.124C55.4725 125.13 55.5694 125.141 55.6464 125.156V126.693C55.5756 126.669 55.4632 126.647 55.3093 126.629C55.1585 126.607 55.0124 126.596 54.8708 126.596C54.5661 126.596 54.2922 126.662 54.0491 126.795C53.809 126.924 53.6197 127.104 53.4812 127.335C53.3427 127.566 53.2735 127.832 53.2735 128.134V132.302H51.6023ZM62.361 127.086L60.8376 127.252C60.7945 127.098 60.7191 126.953 60.6114 126.818C60.5067 126.682 60.3652 126.573 60.1867 126.49C60.0082 126.407 59.7896 126.365 59.5311 126.365C59.1833 126.365 58.891 126.441 58.654 126.592C58.4201 126.742 58.3047 126.938 58.3078 127.178C58.3047 127.384 58.3801 127.552 58.534 127.681C58.6909 127.81 58.9494 127.917 59.3095 128L60.519 128.258C61.19 128.403 61.6886 128.632 62.0148 128.946C62.3441 129.26 62.5103 129.671 62.5134 130.179C62.5103 130.625 62.3795 131.019 62.121 131.36C61.8655 131.699 61.51 131.964 61.0546 132.155C60.5991 132.345 60.0759 132.441 59.485 132.441C58.6171 132.441 57.9184 132.259 57.3891 131.896C56.8597 131.53 56.5443 131.02 56.4427 130.368L58.0723 130.211C58.1462 130.531 58.3031 130.773 58.5432 130.936C58.7832 131.099 59.0956 131.18 59.4803 131.18C59.8774 131.18 60.1959 131.099 60.4359 130.936C60.6791 130.773 60.8006 130.571 60.8006 130.331C60.8006 130.128 60.7222 129.96 60.5652 129.828C60.4113 129.695 60.1713 129.594 59.845 129.523L58.6355 129.269C57.9554 129.128 57.4522 128.889 57.1259 128.554C56.7997 128.215 56.6381 127.787 56.6412 127.27C56.6381 126.833 56.7566 126.455 56.9967 126.135C57.2398 125.811 57.5768 125.562 58.0077 125.387C58.4416 125.208 58.9417 125.119 59.508 125.119C60.339 125.119 60.993 125.296 61.47 125.65C61.9502 126.004 62.2471 126.482 62.361 127.086Z" fill="white"/>
<path d="M133.308 68.4315C132.856 68.4284 132.414 68.3499 131.983 68.1961C131.552 68.0391 131.165 67.7852 130.82 67.4343C130.475 67.0804 130.201 66.6111 129.998 66.0263C129.795 65.4385 129.695 64.7106 129.698 63.8427C129.698 63.0333 129.784 62.3116 129.957 61.6776C130.129 61.0436 130.377 60.5081 130.7 60.0711C131.023 59.631 131.412 59.2955 131.868 59.0647C132.326 58.8339 132.839 58.7184 133.405 58.7184C133.999 58.7184 134.525 58.8354 134.984 59.0693C135.446 59.3032 135.818 59.6233 136.101 60.0295C136.384 60.4327 136.56 60.8882 136.627 61.396H134.942C134.856 61.0328 134.679 60.7435 134.412 60.5281C134.147 60.3096 133.811 60.2003 133.405 60.2003C132.75 60.2003 132.245 60.485 131.891 61.0544C131.54 61.6237 131.363 62.4055 131.36 63.3995H131.425C131.575 63.1287 131.771 62.8964 132.011 62.7025C132.251 62.5086 132.522 62.3593 132.823 62.2547C133.128 62.1469 133.45 62.0931 133.788 62.0931C134.342 62.0931 134.839 62.2254 135.279 62.4901C135.723 62.7548 136.073 63.1195 136.332 63.5842C136.59 64.0459 136.718 64.5752 136.715 65.1723C136.718 65.794 136.577 66.3526 136.29 66.8481C136.004 67.3405 135.606 67.7283 135.095 68.0114C134.584 68.2946 133.988 68.4346 133.308 68.4315ZM133.299 67.0466C133.634 67.0466 133.934 66.965 134.199 66.8019C134.464 66.6388 134.673 66.4187 134.827 66.1417C134.981 65.8647 135.056 65.5539 135.053 65.2092C135.056 64.8707 134.982 64.5644 134.832 64.2905C134.684 64.0166 134.479 63.7996 134.218 63.6396C133.956 63.4796 133.657 63.3995 133.322 63.3995C133.073 63.3995 132.84 63.4473 132.625 63.5427C132.409 63.6381 132.222 63.7704 132.062 63.9397C131.902 64.1059 131.776 64.2998 131.683 64.5214C131.594 64.7399 131.548 64.9738 131.545 65.2231C131.548 65.5524 131.625 65.8555 131.776 66.1325C131.926 66.4095 132.134 66.6311 132.399 66.7973C132.663 66.9635 132.963 67.0466 133.299 67.0466ZM141.636 68.4315C140.95 68.4315 140.341 68.3161 139.808 68.0853C139.279 67.8544 138.863 67.539 138.562 67.1389C138.263 66.7357 138.115 66.2787 138.119 65.7678C138.115 65.3708 138.202 65.0061 138.377 64.6737C138.552 64.3413 138.789 64.0643 139.088 63.8427C139.39 63.6181 139.725 63.4749 140.094 63.4134V63.3488C139.608 63.241 139.214 62.9933 138.913 62.6055C138.614 62.2147 138.466 61.7638 138.469 61.2529C138.466 60.7666 138.602 60.3327 138.876 59.951C139.15 59.5694 139.525 59.2693 140.002 59.0508C140.479 58.8292 141.024 58.7184 141.636 58.7184C142.243 58.7184 142.783 58.8292 143.257 59.0508C143.734 59.2693 144.109 59.5694 144.383 59.951C144.66 60.3327 144.799 60.7666 144.799 61.2529C144.799 61.7638 144.646 62.2147 144.342 62.6055C144.04 62.9933 143.651 63.241 143.174 63.3488V63.4134C143.543 63.4749 143.875 63.6181 144.171 63.8427C144.469 64.0643 144.706 64.3413 144.882 64.6737C145.06 65.0061 145.149 65.3708 145.149 65.7678C145.149 66.2787 144.999 66.7357 144.697 67.1389C144.395 67.539 143.98 67.8544 143.451 68.0853C142.924 68.3161 142.32 68.4315 141.636 68.4315ZM141.636 67.1112C141.99 67.1112 142.298 67.0512 142.56 66.9312C142.821 66.808 143.024 66.6357 143.169 66.4141C143.314 66.1925 143.387 65.9371 143.391 65.6478C143.387 65.3462 143.309 65.0799 143.155 64.8491C143.004 64.6152 142.797 64.4321 142.532 64.2998C142.27 64.1674 141.972 64.1013 141.636 64.1013C141.298 64.1013 140.996 64.1674 140.731 64.2998C140.467 64.4321 140.258 64.6152 140.104 64.8491C139.953 65.0799 139.879 65.3462 139.882 65.6478C139.879 65.9371 139.95 66.1925 140.094 66.4141C140.239 66.6326 140.442 66.8034 140.704 66.9265C140.968 67.0496 141.279 67.1112 141.636 67.1112ZM141.636 62.804C141.926 62.804 142.181 62.7455 142.403 62.6286C142.627 62.5116 142.804 62.3485 142.934 62.1392C143.063 61.93 143.129 61.6884 143.132 61.4145C143.129 61.1436 143.064 60.9066 142.938 60.7035C142.812 60.4973 142.637 60.3388 142.412 60.228C142.187 60.1142 141.929 60.0572 141.636 60.0572C141.338 60.0572 141.075 60.1142 140.847 60.228C140.622 60.3388 140.447 60.4973 140.321 60.7035C140.197 60.9066 140.137 61.1436 140.141 61.4145C140.137 61.6884 140.199 61.93 140.325 62.1392C140.454 62.3455 140.631 62.5086 140.856 62.6286C141.084 62.7455 141.344 62.804 141.636 62.804ZM147.436 68.4038C147.156 68.4038 146.916 68.3053 146.716 68.1084C146.516 67.9114 146.417 67.6713 146.42 67.3882C146.417 67.1112 146.516 66.8742 146.716 66.6772C146.916 66.4803 147.156 66.3818 147.436 66.3818C147.707 66.3818 147.942 66.4803 148.142 66.6772C148.345 66.8742 148.448 67.1112 148.451 67.3882C148.448 67.5759 148.399 67.7467 148.304 67.9006C148.211 68.0545 148.088 68.1776 147.934 68.2699C147.784 68.3592 147.617 68.4038 147.436 68.4038ZM150.158 68.3022V67.065L153.441 63.8473C153.755 63.5303 154.016 63.2487 154.225 63.0025C154.435 62.7563 154.592 62.5178 154.696 62.287C154.801 62.0562 154.853 61.8099 154.853 61.5483C154.853 61.2498 154.786 60.9944 154.65 60.782C154.515 60.5666 154.329 60.4004 154.092 60.2834C153.855 60.1665 153.585 60.108 153.284 60.108C152.973 60.108 152.7 60.1726 152.467 60.3019C152.233 60.4281 152.051 60.6081 151.922 60.842C151.796 61.0759 151.733 61.3544 151.733 61.6776H150.103C150.103 61.0775 150.24 60.5558 150.514 60.1126C150.788 59.6694 151.165 59.3263 151.645 59.0831C152.128 58.84 152.682 58.7184 153.307 58.7184C153.941 58.7184 154.498 58.8369 154.978 59.0739C155.458 59.3109 155.83 59.6356 156.095 60.048C156.363 60.4604 156.497 60.9313 156.497 61.4606C156.497 61.8146 156.429 62.1623 156.294 62.504C156.158 62.8456 155.92 63.2241 155.578 63.6396C155.24 64.0551 154.764 64.5583 154.152 65.1492L152.522 66.8065V66.8711H156.64V68.3022H150.158ZM162.078 58.8477V68.3022H160.365V60.5142H160.31L158.099 61.9269V60.3573L160.448 58.8477H162.078ZM169.534 66.5295V66.0309C169.534 65.6647 169.611 65.3277 169.764 65.0199C169.921 64.7122 170.149 64.4644 170.448 64.2767C170.746 64.0889 171.108 63.9951 171.533 63.9951C171.97 63.9951 172.336 64.0889 172.631 64.2767C172.927 64.4613 173.15 64.7075 173.301 65.0153C173.455 65.3231 173.532 65.6616 173.532 66.0309V66.5295C173.532 66.8958 173.455 67.2328 173.301 67.5405C173.147 67.8483 172.921 68.096 172.622 68.2838C172.327 68.4715 171.963 68.5654 171.533 68.5654C171.102 68.5654 170.737 68.4715 170.438 68.2838C170.14 68.096 169.914 67.8483 169.76 67.5405C169.609 67.2328 169.534 66.8958 169.534 66.5295ZM170.739 66.0309V66.5295C170.739 66.7727 170.797 66.9958 170.914 67.1989C171.031 67.402 171.237 67.5036 171.533 67.5036C171.831 67.5036 172.036 67.4036 172.147 67.2035C172.26 67.0004 172.317 66.7757 172.317 66.5295V66.0309C172.317 65.7847 172.264 65.5601 172.156 65.3569C172.048 65.1507 171.84 65.0476 171.533 65.0476C171.243 65.0476 171.039 65.1507 170.919 65.3569C170.799 65.5601 170.739 65.7847 170.739 66.0309ZM164.728 61.119V60.6204C164.728 60.2511 164.806 59.9126 164.963 59.6048C165.12 59.297 165.348 59.0508 165.647 58.8662C165.945 58.6784 166.307 58.5846 166.731 58.5846C167.165 58.5846 167.53 58.6784 167.826 58.8662C168.124 59.0508 168.349 59.297 168.5 59.6048C168.65 59.9126 168.726 60.2511 168.726 60.6204V61.119C168.726 61.4883 168.649 61.8269 168.495 62.1346C168.344 62.4393 168.119 62.684 167.821 62.8687C167.522 63.0533 167.159 63.1456 166.731 63.1456C166.298 63.1456 165.931 63.0533 165.633 62.8687C165.337 62.684 165.113 62.4378 164.959 62.13C164.805 61.8223 164.728 61.4852 164.728 61.119ZM165.942 60.6204V61.119C165.942 61.3652 165.999 61.5899 166.113 61.793C166.23 61.9931 166.436 62.0931 166.731 62.0931C167.027 62.0931 167.23 61.9931 167.341 61.793C167.455 61.5899 167.512 61.3652 167.512 61.119V60.6204C167.512 60.3742 167.458 60.1495 167.35 59.9464C167.242 59.7402 167.036 59.6371 166.731 59.6371C166.439 59.6371 166.234 59.7402 166.117 59.9464C166.001 60.1526 165.942 60.3773 165.942 60.6204ZM165.254 68.3022L171.754 58.8477H172.908L166.408 68.3022H165.254Z" fill="white"/>
<path d="M127.637 100.302V99.065L130.919 95.8473C131.233 95.5303 131.495 95.2487 131.704 95.0025C131.913 94.7563 132.07 94.5178 132.175 94.287C132.279 94.0562 132.332 93.8099 132.332 93.5483C132.332 93.2498 132.264 92.9944 132.129 92.782C131.993 92.5666 131.807 92.4004 131.57 92.2834C131.333 92.1665 131.064 92.108 130.762 92.108C130.451 92.108 130.179 92.1726 129.945 92.3019C129.711 92.4281 129.53 92.6081 129.4 92.842C129.274 93.0759 129.211 93.3544 129.211 93.6776H127.581C127.581 93.0775 127.718 92.5558 127.992 92.1126C128.266 91.6694 128.643 91.3263 129.123 91.0831C129.607 90.84 130.161 90.7184 130.785 90.7184C131.419 90.7184 131.976 90.8369 132.456 91.0739C132.937 91.3109 133.309 91.6356 133.574 92.048C133.841 92.4604 133.975 92.9313 133.975 93.4606C133.975 93.8146 133.908 94.1623 133.772 94.504C133.637 94.8456 133.398 95.2241 133.057 95.6396C132.718 96.0551 132.243 96.5583 131.63 97.1492L130 98.8065V98.8711H134.118V100.302H127.637ZM139.072 100.432C138.386 100.432 137.776 100.316 137.244 100.085C136.714 99.8544 136.299 99.539 135.997 99.1389C135.699 98.7357 135.551 98.2787 135.554 97.7678C135.551 97.3708 135.637 97.0061 135.813 96.6737C135.988 96.3413 136.225 96.0643 136.524 95.8427C136.825 95.6181 137.161 95.4749 137.53 95.4134V95.3488C137.044 95.241 136.65 94.9933 136.348 94.6055C136.05 94.2147 135.902 93.7638 135.905 93.2529C135.902 92.7666 136.037 92.3327 136.311 91.951C136.585 91.5694 136.961 91.2693 137.438 91.0508C137.915 90.8292 138.459 90.7184 139.072 90.7184C139.678 90.7184 140.218 90.8292 140.692 91.0508C141.169 91.2693 141.545 91.5694 141.819 91.951C142.096 92.3327 142.234 92.7666 142.234 93.2529C142.234 93.7638 142.082 94.2147 141.777 94.6055C141.475 94.9933 141.086 95.241 140.609 95.3488V95.4134C140.978 95.4749 141.311 95.6181 141.606 95.8427C141.905 96.0643 142.142 96.3413 142.317 96.6737C142.496 97.0061 142.585 97.3708 142.585 97.7678C142.585 98.2787 142.434 98.7357 142.133 99.1389C141.831 99.539 141.415 99.8544 140.886 100.085C140.36 100.316 139.755 100.432 139.072 100.432ZM139.072 99.1112C139.426 99.1112 139.734 99.0512 139.995 98.9312C140.257 98.808 140.46 98.6357 140.605 98.4141C140.749 98.1925 140.823 97.9371 140.826 97.6478C140.823 97.3462 140.745 97.0799 140.591 96.8491C140.44 96.6152 140.232 96.4321 139.967 96.2998C139.706 96.1674 139.407 96.1013 139.072 96.1013C138.733 96.1013 138.432 96.1674 138.167 96.2998C137.902 96.4321 137.693 96.6152 137.539 96.8491C137.388 97.0799 137.315 97.3462 137.318 97.6478C137.315 97.9371 137.385 98.1925 137.53 98.4141C137.675 98.6326 137.878 98.8034 138.139 98.9265C138.404 99.0496 138.715 99.1112 139.072 99.1112ZM139.072 94.804C139.361 94.804 139.617 94.7455 139.838 94.6286C140.063 94.5116 140.24 94.3485 140.369 94.1392C140.498 93.93 140.565 93.6884 140.568 93.4145C140.565 93.1436 140.5 92.9066 140.374 92.7035C140.248 92.4973 140.072 92.3388 139.847 92.228C139.623 92.1142 139.364 92.0572 139.072 92.0572C138.773 92.0572 138.51 92.1142 138.282 92.228C138.058 92.3388 137.882 92.4973 137.756 92.7035C137.633 92.9066 137.573 93.1436 137.576 93.4145C137.573 93.6884 137.635 93.93 137.761 94.1392C137.89 94.3455 138.067 94.5086 138.292 94.6286C138.519 94.7455 138.779 94.804 139.072 94.804ZM144.871 100.404C144.591 100.404 144.351 100.305 144.151 100.108C143.951 99.9114 143.853 99.6713 143.856 99.3882C143.853 99.1112 143.951 98.8742 144.151 98.6772C144.351 98.4803 144.591 98.3818 144.871 98.3818C145.142 98.3818 145.378 98.4803 145.578 98.6772C145.781 98.8742 145.884 99.1112 145.887 99.3882C145.884 99.5759 145.835 99.7467 145.739 99.9006C145.647 100.054 145.524 100.178 145.37 100.27C145.219 100.359 145.053 100.404 144.871 100.404ZM147.423 98.548V97.1861L151.435 90.8477H152.57V92.7866H151.878L149.177 97.0661V97.14H154.777V98.548H147.423ZM151.933 100.302V98.1325L151.952 97.5231V90.8477H153.568V100.302H151.933ZM159.539 100.432C158.923 100.432 158.373 100.316 157.886 100.085C157.4 99.8514 157.014 99.5313 156.728 99.125C156.444 98.7188 156.294 98.2541 156.275 97.7309H157.937C157.968 98.1187 158.136 98.4357 158.44 98.6819C158.745 98.925 159.111 99.0466 159.539 99.0466C159.874 99.0466 160.173 98.9696 160.435 98.8157C160.696 98.6619 160.902 98.448 161.053 98.1741C161.204 97.9001 161.278 97.5878 161.275 97.2369C161.278 96.8799 161.202 96.5629 161.049 96.2859C160.895 96.0089 160.684 95.7919 160.416 95.635C160.148 95.4749 159.841 95.3949 159.493 95.3949C159.21 95.3919 158.931 95.4442 158.657 95.5519C158.383 95.6596 158.166 95.8012 158.006 95.9766L156.46 95.7227L156.954 90.8477H162.438V92.2788H158.371L158.099 94.7856H158.154C158.329 94.5794 158.577 94.4085 158.897 94.2731C159.217 94.1346 159.568 94.0654 159.95 94.0654C160.522 94.0654 161.033 94.2008 161.483 94.4716C161.932 94.7394 162.286 95.1087 162.544 95.5796C162.803 96.0505 162.932 96.5891 162.932 97.1954C162.932 97.8201 162.787 98.3772 162.498 98.8665C162.212 99.3528 161.813 99.736 161.302 100.016C160.795 100.293 160.207 100.432 159.539 100.432ZM169.534 98.5295V98.0309C169.534 97.6647 169.611 97.3277 169.764 97.0199C169.921 96.7122 170.149 96.4644 170.448 96.2767C170.746 96.0889 171.108 95.9951 171.533 95.9951C171.97 95.9951 172.336 96.0889 172.631 96.2767C172.927 96.4613 173.15 96.7075 173.301 97.0153C173.455 97.3231 173.532 97.6616 173.532 98.0309V98.5295C173.532 98.8958 173.455 99.2328 173.301 99.5405C173.147 99.8483 172.921 100.096 172.622 100.284C172.327 100.472 171.963 100.565 171.533 100.565C171.102 100.565 170.737 100.472 170.438 100.284C170.14 100.096 169.914 99.8483 169.76 99.5405C169.609 99.2328 169.534 98.8958 169.534 98.5295ZM170.739 98.0309V98.5295C170.739 98.7727 170.797 98.9958 170.914 99.1989C171.031 99.402 171.237 99.5036 171.533 99.5036C171.831 99.5036 172.036 99.4036 172.147 99.2035C172.26 99.0004 172.317 98.7757 172.317 98.5295V98.0309C172.317 97.7847 172.264 97.5601 172.156 97.3569C172.048 97.1507 171.84 97.0476 171.533 97.0476C171.243 97.0476 171.039 97.1507 170.919 97.3569C170.799 97.5601 170.739 97.7847 170.739 98.0309ZM164.728 93.119V92.6204C164.728 92.2511 164.806 91.9126 164.963 91.6048C165.12 91.297 165.348 91.0508 165.647 90.8662C165.945 90.6784 166.307 90.5846 166.731 90.5846C167.165 90.5846 167.53 90.6784 167.826 90.8662C168.124 91.0508 168.349 91.297 168.5 91.6048C168.65 91.9126 168.726 92.2511 168.726 92.6204V93.119C168.726 93.4883 168.649 93.8269 168.495 94.1346C168.344 94.4393 168.119 94.684 167.821 94.8687C167.522 95.0533 167.159 95.1456 166.731 95.1456C166.298 95.1456 165.931 95.0533 165.633 94.8687C165.337 94.684 165.113 94.4378 164.959 94.13C164.805 93.8223 164.728 93.4852 164.728 93.119ZM165.942 92.6204V93.119C165.942 93.3652 165.999 93.5899 166.113 93.793C166.23 93.9931 166.436 94.0931 166.731 94.0931C167.027 94.0931 167.23 93.9931 167.341 93.793C167.455 93.5899 167.512 93.3652 167.512 93.119V92.6204C167.512 92.3742 167.458 92.1495 167.35 91.9464C167.242 91.7402 167.036 91.6371 166.731 91.6371C166.439 91.6371 166.234 91.7402 166.117 91.9464C166.001 92.1526 165.942 92.3773 165.942 92.6204ZM165.254 100.302L171.754 90.8477H172.908L166.408 100.302H165.254Z" fill="white"/>
<path d="M139.104 132.432C138.439 132.432 137.848 132.318 137.331 132.09C136.817 131.862 136.411 131.545 136.113 131.139C135.814 130.733 135.656 130.263 135.637 129.731H137.373C137.388 129.986 137.473 130.209 137.627 130.4C137.781 130.588 137.985 130.734 138.241 130.839C138.496 130.943 138.783 130.996 139.1 130.996C139.438 130.996 139.738 130.937 140 130.82C140.261 130.7 140.466 130.534 140.614 130.322C140.761 130.109 140.834 129.865 140.831 129.588C140.834 129.302 140.76 129.049 140.609 128.831C140.458 128.612 140.24 128.441 139.954 128.318C139.67 128.195 139.329 128.134 138.929 128.134H138.093V126.813H138.929C139.258 126.813 139.546 126.756 139.792 126.642C140.041 126.529 140.237 126.369 140.378 126.162C140.52 125.953 140.589 125.711 140.586 125.438C140.589 125.17 140.529 124.937 140.406 124.74C140.286 124.54 140.115 124.385 139.894 124.274C139.675 124.163 139.418 124.108 139.123 124.108C138.833 124.108 138.566 124.16 138.319 124.265C138.073 124.37 137.875 124.519 137.724 124.713C137.573 124.904 137.493 125.131 137.484 125.396H135.836C135.848 124.867 136 124.402 136.293 124.002C136.588 123.599 136.982 123.285 137.475 123.06C137.967 122.832 138.519 122.718 139.132 122.718C139.763 122.718 140.311 122.837 140.775 123.074C141.243 123.308 141.605 123.623 141.86 124.02C142.116 124.417 142.243 124.856 142.243 125.336C142.246 125.868 142.089 126.315 141.772 126.675C141.459 127.035 141.046 127.27 140.535 127.381V127.455C141.2 127.547 141.709 127.793 142.063 128.194C142.42 128.591 142.597 129.085 142.594 129.675C142.594 130.205 142.443 130.679 142.142 131.097C141.843 131.513 141.431 131.839 140.905 132.076C140.381 132.313 139.781 132.432 139.104 132.432ZM144.947 132.404C144.667 132.404 144.427 132.305 144.227 132.108C144.027 131.911 143.929 131.671 143.932 131.388C143.929 131.111 144.027 130.874 144.227 130.677C144.427 130.48 144.667 130.382 144.947 130.382C145.218 130.382 145.454 130.48 145.654 130.677C145.857 130.874 145.96 131.111 145.963 131.388C145.96 131.576 145.911 131.747 145.815 131.901C145.723 132.054 145.6 132.178 145.446 132.27C145.295 132.359 145.129 132.404 144.947 132.404ZM150.746 132.432C150.081 132.432 149.49 132.318 148.973 132.09C148.459 131.862 148.053 131.545 147.754 131.139C147.456 130.733 147.297 130.263 147.279 129.731H149.015C149.03 129.986 149.115 130.209 149.268 130.4C149.422 130.588 149.627 130.734 149.882 130.839C150.138 130.943 150.424 130.996 150.741 130.996C151.08 130.996 151.38 130.937 151.641 130.82C151.903 130.7 152.108 130.534 152.255 130.322C152.403 130.109 152.475 129.865 152.472 129.588C152.475 129.302 152.402 129.049 152.251 128.831C152.1 128.612 151.881 128.441 151.595 128.318C151.312 128.195 150.97 128.134 150.57 128.134H149.735V126.813H150.57C150.9 126.813 151.187 126.756 151.434 126.642C151.683 126.529 151.878 126.369 152.02 126.162C152.161 125.953 152.231 125.711 152.228 125.438C152.231 125.17 152.171 124.937 152.048 124.74C151.928 124.54 151.757 124.385 151.535 124.274C151.317 124.163 151.06 124.108 150.764 124.108C150.475 124.108 150.207 124.16 149.961 124.265C149.715 124.37 149.516 124.519 149.365 124.713C149.215 124.904 149.135 125.131 149.125 125.396H147.477C147.49 124.867 147.642 124.402 147.934 124.002C148.23 123.599 148.624 123.285 149.116 123.06C149.609 122.832 150.161 122.718 150.773 122.718C151.404 122.718 151.952 122.837 152.417 123.074C152.885 123.308 153.246 123.623 153.502 124.02C153.757 124.417 153.885 124.856 153.885 125.336C153.888 125.868 153.731 126.315 153.414 126.675C153.1 127.035 152.688 127.27 152.177 127.381V127.455C152.842 127.547 153.351 127.793 153.705 128.194C154.062 128.591 154.239 129.085 154.236 129.675C154.236 130.205 154.085 130.679 153.783 131.097C153.485 131.513 153.072 131.839 152.546 132.076C152.023 132.313 151.423 132.432 150.746 132.432ZM155.65 130.548V129.186L159.661 122.848H160.797V124.787H160.105L157.404 129.066V129.14H163.004V130.548H155.65ZM160.16 132.302V130.133L160.178 129.523V122.848H161.794V132.302H160.16ZM169.534 130.53V130.031C169.534 129.665 169.611 129.328 169.764 129.02C169.921 128.712 170.149 128.464 170.448 128.277C170.746 128.089 171.108 127.995 171.533 127.995C171.97 127.995 172.336 128.089 172.631 128.277C172.927 128.461 173.15 128.708 173.301 129.015C173.455 129.323 173.532 129.662 173.532 130.031V130.53C173.532 130.896 173.455 131.233 173.301 131.541C173.147 131.848 172.921 132.096 172.622 132.284C172.327 132.472 171.963 132.565 171.533 132.565C171.102 132.565 170.737 132.472 170.438 132.284C170.14 132.096 169.914 131.848 169.76 131.541C169.609 131.233 169.534 130.896 169.534 130.53ZM170.739 130.031V130.53C170.739 130.773 170.797 130.996 170.914 131.199C171.031 131.402 171.237 131.504 171.533 131.504C171.831 131.504 172.036 131.404 172.147 131.204C172.26 131 172.317 130.776 172.317 130.53V130.031C172.317 129.785 172.264 129.56 172.156 129.357C172.048 129.151 171.84 129.048 171.533 129.048C171.243 129.048 171.039 129.151 170.919 129.357C170.799 129.56 170.739 129.785 170.739 130.031ZM164.728 125.119V124.62C164.728 124.251 164.806 123.913 164.963 123.605C165.12 123.297 165.348 123.051 165.647 122.866C165.945 122.678 166.307 122.585 166.731 122.585C167.165 122.585 167.53 122.678 167.826 122.866C168.124 123.051 168.349 123.297 168.5 123.605C168.65 123.913 168.726 124.251 168.726 124.62V125.119C168.726 125.488 168.649 125.827 168.495 126.135C168.344 126.439 168.119 126.684 167.821 126.869C167.522 127.053 167.159 127.146 166.731 127.146C166.298 127.146 165.931 127.053 165.633 126.869C165.337 126.684 165.113 126.438 164.959 126.13C164.805 125.822 164.728 125.485 164.728 125.119ZM165.942 124.62V125.119C165.942 125.365 165.999 125.59 166.113 125.793C166.23 125.993 166.436 126.093 166.731 126.093C167.027 126.093 167.23 125.993 167.341 125.793C167.455 125.59 167.512 125.365 167.512 125.119V124.62C167.512 124.374 167.458 124.15 167.35 123.946C167.242 123.74 167.036 123.637 166.731 123.637C166.439 123.637 166.234 123.74 166.117 123.946C166.001 124.153 165.942 124.377 165.942 124.62ZM165.254 132.302L171.754 122.848H172.908L166.408 132.302H165.254Z" fill="white"/>
<path d="M23.4823 167.87C23.3508 167.87 23.244 167.837 23.1701 167.78C23.0962 167.714 23.0469 167.632 22.9976 167.525L20.0647 159.08C20.0483 159.022 20.04 158.973 20.04 158.932C20.04 158.858 20.0647 158.801 20.1222 158.751C20.1715 158.694 20.2372 158.669 20.3029 158.669H20.9848C21.0916 158.669 21.1655 158.702 21.2231 158.759C21.2806 158.817 21.3216 158.858 21.3299 158.907L23.9095 166.359L26.4891 158.907C26.5055 158.858 26.5384 158.817 26.5959 158.759C26.6452 158.702 26.7274 158.669 26.8342 158.669H27.516C27.59 158.669 27.6475 158.694 27.6968 158.751C27.7543 158.801 27.7871 158.858 27.7871 158.932C27.7871 158.973 27.7789 159.022 27.7625 159.08L24.8214 167.525C24.7885 167.632 24.731 167.714 24.6489 167.78C24.5749 167.837 24.4763 167.87 24.3449 167.87H23.4905H23.4823ZM29.3152 167.87C29.2248 167.87 29.1509 167.846 29.0934 167.788C29.0441 167.731 29.0112 167.657 29.0112 167.566V161.339C29.0112 161.249 29.0359 161.183 29.0934 161.125C29.1509 161.068 29.233 161.035 29.3152 161.035H29.9478C30.0382 161.035 30.1039 161.068 30.1614 161.125C30.2107 161.183 30.2435 161.249 30.2435 161.339V167.566C30.2435 167.657 30.2189 167.731 30.1614 167.788C30.1121 167.846 30.0382 167.87 29.9478 167.87H29.3152ZM29.2084 159.762C29.118 159.762 29.0441 159.737 28.9866 159.68C28.9373 159.622 28.9044 159.548 28.9044 159.458V158.751C28.9044 158.661 28.9291 158.587 28.9866 158.538C29.0441 158.48 29.1262 158.447 29.2084 158.447H30.0382C30.1285 158.447 30.1942 158.48 30.2518 158.538C30.3093 158.587 30.3421 158.661 30.3421 158.751V159.458C30.3421 159.548 30.3093 159.622 30.2518 159.68C30.2025 159.737 30.1285 159.762 30.0382 159.762H29.2084ZM34.9427 168.002C34.039 168.002 33.3243 167.722 32.7903 167.172C32.2563 166.613 31.9605 165.849 31.9113 164.888C31.903 164.773 31.8948 164.625 31.8948 164.453C31.8948 164.28 31.8948 164.116 31.9113 164.009C31.9441 163.385 32.092 162.842 32.3467 162.374C32.6013 161.906 32.9464 161.536 33.3818 161.282C33.8254 161.027 34.3512 160.904 34.9427 160.904C35.6082 160.904 36.1668 161.043 36.6105 161.323C37.0623 161.602 37.4156 162.005 37.6456 162.522C37.8838 163.04 37.9989 163.639 37.9989 164.338V164.56C37.9989 164.658 37.966 164.732 37.9085 164.781C37.8592 164.831 37.7853 164.863 37.6949 164.863H33.1436V164.978C33.16 165.34 33.2421 165.677 33.3818 165.989C33.5215 166.301 33.7269 166.548 33.9897 166.737C34.2526 166.934 34.5648 167.032 34.9345 167.032C35.2467 167.032 35.5096 166.983 35.7232 166.884C35.9368 166.786 36.1011 166.679 36.2325 166.572C36.364 166.449 36.4544 166.35 36.4954 166.293C36.5776 166.178 36.6351 166.112 36.6762 166.096C36.7173 166.071 36.7912 166.055 36.8898 166.055H37.5224C37.6127 166.055 37.6785 166.079 37.736 166.137C37.7935 166.178 37.8263 166.244 37.8181 166.334C37.8099 166.465 37.736 166.63 37.6045 166.819C37.4731 166.999 37.2841 167.188 37.0377 167.369C36.7912 167.558 36.4954 167.706 36.1422 167.829C35.7889 167.944 35.3864 168.002 34.9345 168.002H34.9427ZM33.1518 163.952H36.7501V163.91C36.7501 163.516 36.6762 163.171 36.5283 162.859C36.3886 162.555 36.1833 162.317 35.9121 162.136C35.641 161.955 35.3124 161.865 34.9427 161.865C34.573 161.865 34.2444 161.955 33.9733 162.136C33.7104 162.317 33.505 162.555 33.3654 162.859C33.2257 163.171 33.1518 163.516 33.1518 163.91V163.952ZM41.2111 167.87C41.096 167.87 41.0057 167.846 40.9482 167.788C40.8907 167.731 40.8332 167.648 40.7921 167.542L38.9272 161.446C38.9108 161.397 38.9025 161.356 38.9025 161.314C38.9025 161.232 38.9272 161.167 38.9847 161.117C39.0422 161.06 39.1079 161.035 39.1819 161.035H39.7569C39.8555 161.035 39.9295 161.06 39.9788 161.117C40.028 161.167 40.0691 161.216 40.0856 161.257L41.5479 166.211L43.1088 161.314C43.1252 161.249 43.1581 161.191 43.2156 161.125C43.2731 161.068 43.3635 161.035 43.4785 161.035H43.9221C44.0372 161.035 44.1275 161.068 44.185 161.125C44.2425 161.191 44.2836 161.249 44.2918 161.314L45.8528 166.211L47.3151 161.257C47.3151 161.257 47.3562 161.167 47.4055 161.117C47.4548 161.06 47.5287 161.035 47.6273 161.035H48.2023C48.2845 161.035 48.3502 161.06 48.3995 161.117C48.4488 161.167 48.4817 161.232 48.4817 161.314C48.4817 161.356 48.4735 161.397 48.457 161.446L46.5921 167.542C46.5675 167.648 46.5182 167.731 46.4443 167.788C46.3867 167.846 46.2882 167.87 46.1649 167.87H45.6556C45.5406 167.87 45.442 167.846 45.368 167.788C45.2941 167.731 45.253 167.648 45.2202 167.542L43.6921 162.834L42.164 167.542C42.1312 167.648 42.0737 167.731 42.008 167.788C41.934 167.846 41.8436 167.87 41.7204 167.87H41.2111V167.87ZM54.7582 168.002C54.3228 168.002 53.9202 167.911 53.5588 167.739C53.1973 167.566 52.9098 167.328 52.6879 167.032C52.4661 166.728 52.3593 166.392 52.3593 166.014C52.3593 165.414 52.6058 164.929 53.0987 164.568C53.5916 164.214 54.2324 163.976 55.0211 163.861L56.9764 163.582V163.204C56.9764 162.785 56.8531 162.456 56.6067 162.218C56.3684 161.98 55.9823 161.865 55.4401 161.865C55.0458 161.865 54.7254 161.939 54.4789 162.103C54.2407 162.259 54.0763 162.456 53.9778 162.703C53.9285 162.834 53.8299 162.9 53.6984 162.9H53.1069C53.0083 162.9 52.9344 162.875 52.8851 162.826C52.844 162.76 52.8194 162.695 52.8194 162.612C52.8194 162.481 52.8687 162.317 52.9673 162.128C53.0741 161.931 53.2302 161.742 53.4438 161.561C53.6574 161.38 53.9202 161.224 54.2489 161.101C54.5857 160.969 54.9882 160.904 55.4565 160.904C55.9823 160.904 56.4259 160.978 56.7874 161.117C57.1489 161.249 57.4282 161.421 57.6254 161.651C57.839 161.881 57.9869 162.136 58.069 162.432C58.1676 162.719 58.2169 163.015 58.2169 163.311V167.566C58.2169 167.657 58.184 167.731 58.1265 167.788C58.0772 167.846 58.0033 167.87 57.9129 167.87H57.305C57.2064 167.87 57.1325 167.846 57.0832 167.788C57.0339 167.731 57.001 167.657 57.001 167.566V166.999C56.886 167.164 56.7299 167.32 56.541 167.476C56.352 167.624 56.1055 167.755 55.818 167.854C55.5305 167.952 55.1772 168.002 54.75 168.002H54.7582ZM55.0375 167.016C55.399 167.016 55.7276 166.942 56.0234 166.794C56.3191 166.638 56.5574 166.392 56.7217 166.071C56.8942 165.743 56.9846 165.34 56.9846 164.847V164.477L55.4565 164.699C54.8322 164.79 54.3639 164.937 54.0517 165.151C53.7395 165.348 53.5752 165.611 53.5752 165.923C53.5752 166.17 53.6491 166.375 53.7888 166.539C53.9367 166.704 54.1256 166.819 54.3392 166.901C54.5693 166.975 54.7993 167.016 55.0375 167.016V167.016ZM60.4268 167.87C60.3365 167.87 60.2625 167.846 60.205 167.788C60.1557 167.731 60.1229 167.657 60.1229 167.566V158.842C60.1229 158.751 60.1475 158.686 60.205 158.628C60.2625 158.57 60.3447 158.538 60.4268 158.538H61.043C61.1416 158.538 61.2155 158.57 61.2648 158.628C61.3141 158.686 61.3469 158.751 61.3469 158.842V167.566C61.3469 167.657 61.3223 167.731 61.2648 167.788C61.2155 167.846 61.1416 167.87 61.043 167.87H60.4268ZM63.6226 167.87C63.5322 167.87 63.4583 167.846 63.4008 167.788C63.3515 167.731 63.3186 167.657 63.3186 167.566V158.842C63.3186 158.751 63.3433 158.686 63.4008 158.628C63.4583 158.57 63.5405 158.538 63.6226 158.538H64.2388C64.3373 158.538 64.4113 158.57 64.4606 158.628C64.5099 158.686 64.5427 158.751 64.5427 158.842V167.566C64.5427 167.657 64.5181 167.731 64.4606 167.788C64.4113 167.846 64.3373 167.87 64.2388 167.87H63.6226ZM70.0388 167.87C69.9484 167.87 69.8745 167.846 69.817 167.788C69.7677 167.731 69.7349 167.657 69.7349 167.566V158.842C69.7349 158.751 69.7595 158.686 69.817 158.628C69.8745 158.57 69.9567 158.538 70.0388 158.538H70.696C70.7946 158.538 70.8686 158.57 70.9179 158.628C70.9672 158.686 71 158.751 71 158.842V161.906C71.2383 161.602 71.5258 161.364 71.8708 161.183C72.2159 160.994 72.6431 160.904 73.1689 160.904C73.7357 160.904 74.2204 161.027 74.6148 161.282C75.0173 161.528 75.3213 161.873 75.5185 162.325C75.7321 162.76 75.8307 163.278 75.8307 163.861V167.566C75.8307 167.657 75.806 167.731 75.7485 167.788C75.6992 167.846 75.6171 167.87 75.5267 167.87H74.8695C74.7791 167.87 74.7051 167.846 74.6476 167.788C74.5983 167.731 74.5655 167.657 74.5655 167.566V163.927C74.5655 163.311 74.4176 162.834 74.1219 162.497C73.8261 162.144 73.3825 161.972 72.8074 161.972C72.2652 161.972 71.8298 162.144 71.4929 162.497C71.1561 162.834 70.9918 163.311 70.9918 163.927V167.566C70.9918 167.657 70.9672 167.731 70.9096 167.788C70.8604 167.846 70.7864 167.87 70.6878 167.87H70.0306H70.0388ZM80.5299 168.002C79.8644 168.002 79.3058 167.879 78.8621 167.624C78.4185 167.369 78.0735 167.016 77.8352 166.572C77.597 166.112 77.4655 165.595 77.4409 165.02C77.4327 164.872 77.4244 164.683 77.4244 164.453C77.4244 164.223 77.4244 164.026 77.4409 163.886C77.4655 163.303 77.597 162.785 77.8352 162.333C78.0817 161.89 78.4267 161.536 78.8703 161.282C79.314 161.027 79.8726 160.904 80.5299 160.904C81.1871 160.904 81.7375 161.027 82.1894 161.282C82.633 161.536 82.978 161.89 83.2163 162.333C83.4627 162.785 83.5942 163.303 83.627 163.886C83.6353 164.026 83.6435 164.214 83.6435 164.453C83.6435 164.691 83.6435 164.872 83.627 165.02C83.6024 165.595 83.471 166.112 83.2327 166.572C82.9945 167.016 82.6576 167.369 82.2058 167.624C81.7622 167.879 81.2035 168.002 80.5381 168.002H80.5299ZM80.5299 166.991C81.0721 166.991 81.5075 166.819 81.8279 166.474C82.1483 166.129 82.329 165.619 82.3537 164.954C82.3619 164.822 82.3701 164.658 82.3701 164.453C82.3701 164.247 82.3701 164.083 82.3537 163.952C82.329 163.286 82.1483 162.785 81.8279 162.44C81.5075 162.095 81.0721 161.914 80.5299 161.914C79.9876 161.914 79.5522 162.095 79.2154 162.44C78.895 162.785 78.7225 163.286 78.706 163.952C78.6978 164.083 78.6896 164.247 78.6896 164.453C78.6896 164.658 78.6896 164.822 78.706 164.954C78.7225 165.619 78.895 166.129 79.2154 166.474C79.544 166.819 79.9876 166.991 80.5299 166.991ZM85.5905 167.87C85.5002 167.87 85.4262 167.846 85.3687 167.788C85.3194 167.731 85.2866 167.657 85.2866 167.566V158.842C85.2866 158.751 85.3112 158.686 85.3687 158.628C85.4344 158.57 85.5084 158.538 85.5905 158.538H86.2067C86.3053 158.538 86.3792 158.57 86.4285 158.628C86.4778 158.686 86.5106 158.751 86.5106 158.842V167.566C86.5106 167.657 86.486 167.731 86.4285 167.788C86.3792 167.846 86.297 167.87 86.2067 167.87H85.5905ZM90.9716 168.002C90.4869 168.002 90.0761 167.92 89.7229 167.755C89.3696 167.575 89.0821 167.345 88.852 167.057C88.6302 166.761 88.4659 166.416 88.3509 166.046C88.2441 165.669 88.1866 165.266 88.1701 164.847C88.1619 164.707 88.1537 164.576 88.1537 164.453C88.1537 164.329 88.1537 164.198 88.1701 164.058C88.1866 163.648 88.2523 163.253 88.3509 162.875C88.4659 162.497 88.6302 162.161 88.852 161.865C89.0821 161.569 89.3696 161.331 89.7229 161.167C90.0761 160.994 90.4869 160.904 90.9716 160.904C91.4892 160.904 91.9164 160.994 92.2614 161.183C92.6065 161.364 92.8858 161.594 93.0994 161.865V158.842C93.0994 158.751 93.124 158.686 93.1815 158.628C93.239 158.57 93.3212 158.538 93.4033 158.538H94.0359C94.1263 158.538 94.192 158.57 94.2495 158.628C94.307 158.686 94.3399 158.751 94.3399 158.842V167.566C94.3399 167.657 94.307 167.731 94.2495 167.788C94.2002 167.846 94.1263 167.87 94.0359 167.87H93.4444C93.3458 167.87 93.2719 167.846 93.2226 167.788C93.1733 167.731 93.1405 167.657 93.1405 167.566V167.016C92.9186 167.295 92.6393 167.533 92.2861 167.722C91.9328 167.911 91.4974 168.002 90.9716 168.002V168.002ZM91.2509 166.934C91.6863 166.934 92.0396 166.835 92.3025 166.638C92.5654 166.433 92.7625 166.178 92.894 165.874C93.0254 165.554 93.0994 165.233 93.1076 164.913C93.1158 164.773 93.124 164.609 93.124 164.412C93.124 164.214 93.124 164.042 93.1076 163.902C93.0994 163.59 93.0254 163.294 92.8858 162.99C92.7543 162.695 92.5489 162.448 92.2778 162.259C92.0149 162.062 91.6699 161.972 91.2509 161.972C90.8073 161.972 90.4458 162.07 90.1829 162.267C89.92 162.465 89.7311 162.719 89.6161 163.048C89.501 163.36 89.4353 163.705 89.4189 164.075C89.4107 164.329 89.4107 164.576 89.4189 164.831C89.4353 165.2 89.501 165.545 89.6161 165.874C89.7311 166.186 89.92 166.449 90.1829 166.646C90.4458 166.843 90.7991 166.934 91.2509 166.934V166.934ZM96.5991 167.87C96.5088 167.87 96.4348 167.846 96.3773 167.788C96.328 167.731 96.2952 167.657 96.2952 167.566V161.339C96.2952 161.249 96.3198 161.183 96.3773 161.125C96.443 161.068 96.517 161.035 96.5991 161.035H97.2317C97.3221 161.035 97.3878 161.068 97.4453 161.125C97.4946 161.183 97.5275 161.249 97.5275 161.339V167.566C97.5275 167.657 97.5028 167.731 97.4453 167.788C97.396 167.846 97.3221 167.87 97.2317 167.87H96.5991ZM96.4923 159.762C96.402 159.762 96.328 159.737 96.2705 159.68C96.2212 159.622 96.1884 159.548 96.1884 159.458V158.751C96.1884 158.661 96.213 158.587 96.2705 158.538C96.3362 158.48 96.4102 158.447 96.4923 158.447H97.3221C97.4125 158.447 97.4782 158.48 97.5357 158.538C97.5932 158.587 97.626 158.661 97.626 158.751V159.458C97.626 159.548 97.5932 159.622 97.5357 159.68C97.4864 159.737 97.4125 159.762 97.3221 159.762H96.4923ZM99.9099 167.87C99.8196 167.87 99.7456 167.846 99.6881 167.788C99.6388 167.731 99.606 167.657 99.606 167.566V161.339C99.606 161.249 99.6306 161.183 99.6881 161.125C99.7456 161.068 99.8196 161.035 99.9099 161.035H100.526C100.616 161.035 100.682 161.068 100.74 161.125C100.797 161.183 100.83 161.249 100.83 161.339V161.914C101.06 161.618 101.339 161.38 101.684 161.191C102.038 161.002 102.481 160.904 103.024 160.904C103.566 160.904 104.075 161.027 104.469 161.282C104.872 161.528 105.176 161.873 105.373 162.325C105.579 162.76 105.677 163.278 105.677 163.861V167.566C105.677 167.657 105.652 167.731 105.595 167.788C105.546 167.846 105.472 167.87 105.381 167.87H104.724C104.634 167.87 104.56 167.846 104.502 167.788C104.453 167.731 104.42 167.657 104.42 167.566V163.927C104.42 163.311 104.272 162.834 103.977 162.497C103.681 162.144 103.237 161.972 102.662 161.972C102.12 161.972 101.676 162.144 101.348 162.497C101.019 162.834 100.863 163.311 100.863 163.927V167.566C100.863 167.657 100.83 167.731 100.773 167.788C100.723 167.846 100.649 167.87 100.559 167.87H99.9017H99.9099ZM110.376 170.762C109.777 170.762 109.292 170.68 108.906 170.524C108.528 170.368 108.232 170.179 108.01 169.949C107.797 169.727 107.649 169.505 107.55 169.275C107.46 169.062 107.411 168.881 107.402 168.749C107.394 168.667 107.419 168.585 107.484 168.528C107.558 168.47 107.632 168.437 107.706 168.437H108.339C108.421 168.437 108.487 168.454 108.536 168.486C108.585 168.519 108.635 168.601 108.668 168.708C108.717 168.84 108.799 168.988 108.906 169.144C109.013 169.308 109.177 169.456 109.39 169.563C109.612 169.686 109.916 169.752 110.311 169.752C110.705 169.752 111.066 169.694 111.346 169.579C111.625 169.472 111.839 169.283 111.978 169.004C112.126 168.733 112.2 168.355 112.2 167.87V166.975C111.987 167.246 111.715 167.476 111.37 167.657C111.025 167.837 110.598 167.92 110.081 167.92C109.563 167.92 109.169 167.837 108.815 167.673C108.462 167.501 108.175 167.262 107.945 166.975C107.723 166.679 107.558 166.342 107.443 165.964C107.337 165.586 107.279 165.192 107.263 164.781C107.254 164.535 107.254 164.297 107.263 164.058C107.279 163.648 107.345 163.253 107.443 162.875C107.558 162.497 107.723 162.161 107.945 161.865C108.175 161.569 108.462 161.331 108.815 161.167C109.169 160.994 109.588 160.904 110.081 160.904C110.606 160.904 111.042 161.002 111.379 161.208C111.732 161.397 112.011 161.635 112.233 161.914V161.347C112.233 161.265 112.258 161.191 112.315 161.125C112.373 161.068 112.455 161.035 112.537 161.035H113.145C113.235 161.035 113.309 161.068 113.367 161.125C113.424 161.191 113.457 161.265 113.457 161.347V167.722C113.457 168.314 113.358 168.831 113.153 169.292C112.956 169.743 112.636 170.105 112.184 170.368C111.74 170.631 111.132 170.762 110.368 170.762H110.376ZM110.352 166.868C110.787 166.868 111.14 166.769 111.403 166.572C111.674 166.367 111.872 166.112 111.995 165.808C112.126 165.496 112.192 165.192 112.208 164.872C112.208 164.748 112.225 164.601 112.225 164.428C112.225 164.239 112.225 164.091 112.208 163.968C112.2 163.648 112.126 163.344 111.995 163.031C111.872 162.727 111.674 162.473 111.403 162.267C111.14 162.07 110.787 161.972 110.352 161.972C109.916 161.972 109.563 162.07 109.3 162.267C109.037 162.465 108.848 162.719 108.733 163.048C108.618 163.36 108.552 163.705 108.536 164.075C108.528 164.297 108.528 164.535 108.536 164.765C108.552 165.135 108.618 165.48 108.733 165.808C108.848 166.12 109.037 166.383 109.3 166.58C109.563 166.778 109.916 166.868 110.352 166.868ZM117.787 168.002C117.294 168.002 116.875 167.944 116.521 167.821C116.168 167.698 115.889 167.55 115.667 167.369C115.445 167.197 115.281 167.024 115.166 166.843C115.059 166.671 115.002 166.531 114.993 166.424C114.985 166.326 115.018 166.252 115.084 166.203C115.158 166.145 115.223 166.12 115.297 166.12H115.872C115.922 166.12 115.963 166.129 115.987 166.145C116.02 166.153 116.07 166.194 116.119 166.252C116.234 166.375 116.357 166.498 116.497 166.622C116.636 166.745 116.809 166.843 117.006 166.926C117.22 166.999 117.474 167.041 117.778 167.041C118.222 167.041 118.592 166.958 118.879 166.794C119.167 166.613 119.315 166.367 119.315 166.03C119.315 165.808 119.257 165.636 119.134 165.504C119.019 165.373 118.805 165.258 118.501 165.151C118.206 165.044 117.795 164.937 117.269 164.822C116.743 164.699 116.324 164.551 116.02 164.371C115.716 164.19 115.494 163.976 115.363 163.73C115.232 163.475 115.166 163.188 115.166 162.875C115.166 162.563 115.264 162.243 115.453 161.939C115.642 161.635 115.93 161.388 116.291 161.191C116.669 161.002 117.138 160.904 117.696 160.904C118.148 160.904 118.542 160.961 118.863 161.076C119.183 161.191 119.454 161.331 119.668 161.512C119.882 161.676 120.038 161.84 120.144 162.005C120.251 162.177 120.309 162.317 120.317 162.432C120.317 162.514 120.3 162.588 120.235 162.654C120.177 162.703 120.103 162.727 120.021 162.727H119.471C119.413 162.727 119.356 162.719 119.315 162.695C119.282 162.662 119.241 162.637 119.208 162.596C119.117 162.489 119.011 162.374 118.896 162.259C118.781 162.144 118.625 162.054 118.436 161.98C118.255 161.906 118.008 161.865 117.696 161.865C117.261 161.865 116.932 161.955 116.71 162.136C116.489 162.325 116.382 162.555 116.382 162.834C116.382 162.999 116.431 163.155 116.53 163.286C116.628 163.418 116.809 163.533 117.08 163.639C117.351 163.746 117.754 163.853 118.288 163.976C118.863 164.091 119.323 164.247 119.651 164.436C119.98 164.633 120.218 164.855 120.358 165.11C120.498 165.365 120.572 165.66 120.572 165.989C120.572 166.359 120.465 166.696 120.243 166.999C120.029 167.312 119.717 167.558 119.298 167.739C118.887 167.911 118.37 168.002 117.762 168.002H117.787Z" fill="#35CB5D"/>
</svg>
