<svg width="59" height="54" viewBox="0 0 59 54" fill="none" xmlns="http://www.w3.org/2000/svg">
<g clip-path="url(#clip0_970_4693)">
<path d="M21.2162 47.7298C20.8277 47.4403 20.4643 47.2263 20.0884 47.0878C19.7124 46.9494 19.3114 46.8864 18.8978 46.8613C18.0707 46.8235 17.181 46.9746 16.3163 47.1885C15.4516 47.4025 14.637 47.6543 14.0229 47.8683C13.4214 48.0697 13.0204 48.2333 13.0204 48.2333C13.0204 48.2333 13.4089 48.4599 14.0355 48.7242C14.6621 48.9885 15.5268 49.2906 16.4666 49.4543C17.4065 49.6179 18.4216 49.6431 19.3114 49.3787C20.2011 49.127 20.9531 48.5857 21.2037 47.7172L21.2162 47.7298Z" fill="#C1A866"/>
<path d="M18.6025 43.9053C18.9409 44.6606 19.4171 45.4032 20.0562 45.8815C20.3695 46.1207 20.7329 46.2969 21.1089 46.3724C21.4848 46.448 21.8984 46.4228 22.2869 46.2592C22.3119 45.3529 22.0613 44.648 21.6728 44.0186C21.2843 43.4018 20.7454 42.8606 20.169 42.3948C19.605 41.9291 19.0286 41.5515 18.59 41.2745C18.1514 40.9976 17.8506 40.834 17.8506 40.834C17.8506 40.834 17.8506 40.9347 17.8757 41.0983C17.8882 41.262 17.9258 41.5137 17.9634 41.8032C18.0636 42.3822 18.2391 43.1501 18.5774 43.9053H18.6025Z" fill="#C1A866"/>
<path d="M12.398 45.9165C13.2627 45.8787 14.0146 45.5389 14.5535 44.8214C14.1274 44.0536 13.4758 43.6382 12.6988 43.399C11.9218 43.1598 11.0195 43.0969 10.1297 43.0717C9.23999 43.0466 8.36276 43.0717 7.69857 43.0717C7.02185 43.0843 6.59576 43.0969 6.59576 43.0969C6.59576 43.0969 6.68349 43.185 6.83387 43.3361C6.98425 43.4745 7.20983 43.6885 7.48553 43.9151C8.04946 44.3808 8.83897 44.9221 9.70367 45.3123C10.5809 45.7151 11.5333 45.9668 12.3855 45.9165H12.398Z" fill="#C1A866"/>
<path d="M14.0502 42.5079C14.5389 43.1246 15.2157 43.54 16.0678 43.4897C16.4062 42.6589 16.3561 41.8659 16.118 41.1358C15.8799 40.4058 15.4663 39.7386 15.0528 39.1596C14.6267 38.5806 14.2006 38.0897 13.8873 37.7246C13.7369 37.5484 13.5991 37.41 13.5113 37.3093C13.4236 37.2086 13.3735 37.1582 13.3735 37.1582C13.3735 37.1582 13.3484 37.2463 13.2983 37.4099C13.2607 37.5736 13.2106 37.8002 13.1604 38.0771C13.0727 38.6435 13.0226 39.4113 13.1604 40.2295C13.2732 41.0351 13.5615 41.8659 14.0502 42.4953V42.5079Z" fill="#C1A866"/>
<path d="M3.50707 36.3119C2.893 36.1231 2.50452 36.0098 2.50452 36.0098C2.50452 36.0098 2.54211 36.1105 2.6173 36.2867C2.70503 36.4503 2.81781 36.6895 2.98073 36.979C3.14364 37.2559 3.33162 37.5832 3.55719 37.9231C3.66998 38.0993 3.78277 38.2629 3.90808 38.4391L4.00834 38.5776L4.13366 38.7412C4.22138 38.8545 4.3091 38.9552 4.39683 39.0685C5.11114 39.9245 5.98837 40.5664 6.85307 40.8433C7.71777 41.1203 8.55741 41.0321 9.27172 40.4909C9.07121 39.6223 8.58247 39.0433 7.93081 38.5272C7.7679 38.4014 7.59245 38.2755 7.41701 38.1496C7.24156 38.0238 7.05358 37.9105 6.85307 37.7972C6.66509 37.6713 6.46458 37.558 6.26407 37.4447C6.0761 37.344 5.88812 37.2433 5.68761 37.1552C4.91063 36.7902 4.12113 36.5007 3.50707 36.3119Z" fill="#C1A866"/>
<path d="M9.48703 37.8386C9.71261 38.5812 10.2515 39.198 11.066 39.3868C11.63 38.6945 11.818 37.9267 11.8556 37.2092C11.8931 36.4917 11.8054 35.812 11.7302 35.233C11.7052 34.9938 11.6049 34.5784 11.5172 34.2638C11.4295 33.9365 11.3292 33.6344 11.229 33.3826C11.1412 33.1309 11.0535 32.9295 10.9909 32.791C10.9407 32.6526 10.9031 32.5645 10.9031 32.5645C10.9031 32.5645 10.8405 32.64 10.7528 32.791C10.6525 32.9421 10.5397 33.1435 10.4019 33.4078C10.1387 33.9239 9.81286 34.654 9.58729 35.447C9.52463 35.6484 9.48703 35.8498 9.43691 36.0638C9.39931 36.2526 9.37425 36.454 9.34918 36.6554C9.34918 36.8568 9.34918 37.0582 9.36171 37.2596C9.38678 37.461 9.42437 37.6498 9.4745 37.8386H9.48703Z" fill="#C1A866"/>
<path d="M2.58281 33.2836C2.72066 33.4599 2.88358 33.6109 3.05902 33.7494C3.22194 33.8878 3.39738 34.0263 3.57283 34.1396C4.28714 34.5927 5.06412 34.7941 5.92882 34.5424C6.00401 34.1144 5.96641 33.7242 5.85363 33.3592C5.8035 33.1829 5.71578 33.0067 5.62805 32.8305C5.54033 32.6668 5.41501 32.5032 5.31476 32.3396C4.85108 31.6976 4.13676 31.1438 3.42245 30.6403C2.72066 30.1368 1.99381 29.7088 1.42988 29.3941C0.853414 29.0794 0.48999 28.8906 0.48999 28.8906C0.48999 28.8906 0.502522 29.0039 0.55265 29.1927C0.602777 29.3815 0.677968 29.6333 0.790755 29.948C1.0038 30.5773 1.30456 31.4081 1.7933 32.1759C2.03141 32.5661 2.29458 32.9438 2.58281 33.2836Z" fill="#C1A866"/>
<path d="M7.222 32.9397C7.38491 33.2796 7.63555 33.5817 7.97391 33.8209C8.75089 33.3677 9.20203 32.7006 9.42761 31.9705C9.49027 31.7943 9.52786 31.6055 9.56546 31.4167C9.57799 31.3286 9.60305 31.2279 9.61558 31.1397C9.61558 31.039 9.64065 30.9509 9.65318 30.8502C9.70331 30.46 9.71584 30.0824 9.70331 29.7048C9.65318 28.9621 9.61558 28.2698 9.51533 27.7663C9.47773 27.5146 9.42761 27.3006 9.39001 27.1621C9.36495 27.0111 9.35241 26.9355 9.35241 26.9355C9.35241 26.9355 9.27722 26.9985 9.16444 27.1244C9.03912 27.2502 8.88874 27.4265 8.70076 27.6404C8.33733 28.0936 7.88619 28.7355 7.51023 29.4782C7.15934 30.2083 6.93377 31.0516 6.9463 31.8321C6.9463 32.0335 6.97136 32.2223 7.02149 32.3985C7.07162 32.5873 7.13428 32.7635 7.20947 32.9272L7.222 32.9397Z" fill="#C1A866"/>
<path d="M1.09027 26.1823C1.20306 26.3837 1.31585 26.5725 1.44116 26.7487C1.57901 26.925 1.7294 27.0886 1.87978 27.2396C2.49384 27.8313 3.23322 28.1837 4.12298 28.0956C4.27336 27.6928 4.32349 27.29 4.27336 26.925C4.2483 26.7362 4.2107 26.5473 4.14805 26.3711C4.08539 26.1823 4.03526 26.0061 3.94754 25.8299C3.78462 25.4648 3.55905 25.1124 3.29588 24.7725C3.15803 24.5963 3.02018 24.4327 2.89486 24.2564C2.75701 24.0928 2.61916 23.9292 2.46878 23.7655C1.89231 23.1236 1.24065 22.532 0.789507 22.0914C0.325828 21.6383 0 21.3613 0 21.3613C0 21.3613 0 21.8019 0.0250637 22.4816C0.0501274 22.8215 0.112787 23.2117 0.187978 23.6271C0.225573 23.841 0.275701 24.055 0.325828 24.269C0.375956 24.483 0.426083 24.7096 0.513806 24.9236C0.67672 25.3641 0.852166 25.7921 1.07774 26.1949L1.09027 26.1823Z" fill="#C1A866"/>
<path d="M6.22698 27.619C7.07915 27.3295 7.64308 26.7631 8.01904 26.1085C8.11929 25.9449 8.19448 25.7812 8.26967 25.605C8.3574 25.4288 8.42005 25.2526 8.48271 25.0764C8.60803 24.7239 8.69576 24.3589 8.75841 24.0064C8.82107 23.654 8.89627 23.3141 8.93386 22.9994C8.95892 22.8358 8.97146 22.6847 8.97146 22.5463C8.97146 22.4078 8.98399 22.2694 9.00905 22.1435C9.05918 21.6526 9.05918 21.3379 9.05918 21.3379C9.05918 21.3379 8.73335 21.5141 8.25714 21.854C8.14435 21.9421 8.01903 22.0302 7.88118 22.1435C7.74333 22.2442 7.61802 22.3701 7.48016 22.4833C7.217 22.7351 6.95383 23.012 6.69066 23.3267C6.56534 23.4903 6.44002 23.654 6.32723 23.8176C6.27711 23.9057 6.21445 23.9938 6.16432 24.0819C6.11419 24.1701 6.06407 24.2582 6.02647 24.3463C5.85102 24.7113 5.71317 25.0889 5.63798 25.4666C5.60039 25.6554 5.57532 25.8442 5.58785 26.033C5.58785 26.2218 5.62545 26.4106 5.67558 26.5868C5.77583 26.9519 5.96381 27.2917 6.25204 27.5812L6.22698 27.619Z" fill="#C1A866"/>
<path d="M3.13896 16.8411C2.93845 16.4634 2.72541 16.0858 2.51236 15.7334C2.29932 15.3809 2.09881 15.0662 1.9359 14.8019C1.59754 14.2607 1.35943 13.9082 1.35943 13.9082C1.35943 13.9082 1.23411 14.3362 1.09626 14.9907C1.04614 15.3306 0.996009 15.7208 0.970945 16.1362C0.958413 16.3502 0.945881 16.5641 0.93335 16.7907C0.93335 17.0173 0.945881 17.2439 0.970945 17.483C1.00854 17.9488 1.0712 18.4145 1.18399 18.8551C1.30931 19.2956 1.48475 19.711 1.69779 20.076C2.12388 20.8061 2.8006 21.3096 3.67783 21.4355C3.79061 21.2593 3.87834 21.0704 3.941 20.8942C4.00366 20.7054 4.06631 20.5292 4.09138 20.3404C4.15404 19.9627 4.12897 19.5851 4.02872 19.1949C3.95353 18.8047 3.84074 18.4145 3.6653 18.0117C3.50238 17.6215 3.28934 17.2187 3.10136 16.8285L3.13896 16.8411Z" fill="#C1A866"/>
<path d="M7.9488 20.2409C8.21197 19.9765 8.43754 19.687 8.62552 19.3723C8.83856 19.0702 9.01401 18.7556 9.16439 18.4409C9.23958 18.2898 9.30224 18.1262 9.37743 17.9751C9.45262 17.8241 9.51528 17.673 9.57794 17.5346C9.70326 17.2451 9.77845 16.9807 9.86617 16.7542C10.0416 16.301 10.1168 15.9863 10.1168 15.9863C10.1168 15.9863 9.75339 16.0744 9.21452 16.2758C8.66312 16.4772 7.99893 16.8171 7.33474 17.2828C7.17183 17.3961 6.99638 17.522 6.85853 17.6605C6.70815 17.7989 6.5703 17.9374 6.43245 18.0884C6.16928 18.3905 5.93117 18.7178 5.76826 19.0702C5.61787 19.4227 5.53015 19.7877 5.53015 20.1653C5.53015 20.3542 5.54268 20.5304 5.60534 20.7192C5.668 20.908 5.74319 21.0842 5.85598 21.2605C6.74574 21.1723 7.3974 20.757 7.93627 20.2409H7.9488Z" fill="#C1A866"/>
<path d="M5.34147 14.4886C5.45426 14.3376 5.55451 14.174 5.62971 13.9977C5.7049 13.8215 5.75502 13.6453 5.79262 13.4565C5.83022 13.2677 5.84275 13.0788 5.86781 12.8774C5.89287 12.4872 5.86781 12.0719 5.80515 11.6439C5.74249 11.2159 5.6673 10.8005 5.55451 10.3726C5.34147 9.5292 5.10337 8.7236 4.89033 8.11941C4.67729 7.51521 4.53943 7.125 4.53943 7.125C4.53943 7.125 4.47678 7.21311 4.38905 7.38934C4.30133 7.56556 4.17601 7.80472 4.05069 8.10682C3.76246 8.69843 3.48676 9.55437 3.29878 10.4481C3.22359 10.9012 3.17346 11.367 3.17346 11.8201C3.17346 12.0467 3.18599 12.2733 3.22359 12.4872C3.26118 12.7138 3.29878 12.9152 3.36144 13.1166C3.48676 13.5194 3.64967 13.8844 3.92537 14.1991C4.18854 14.5138 4.5269 14.7656 4.92792 14.9418C5.09084 14.8033 5.21615 14.6523 5.32894 14.4886H5.34147Z" fill="#C1A866"/>
<path d="M12.3691 11.2533C12.4443 11.1274 12.4819 11.0645 12.4819 11.0645C12.4819 11.0645 12.3816 11.0645 12.2187 11.0645C12.0432 11.0645 11.8177 11.0896 11.5294 11.1274C11.2412 11.1652 10.9154 11.2155 10.5519 11.3036C10.3765 11.3414 10.1885 11.3917 10.0005 11.4421C9.8251 11.505 9.63712 11.5679 9.44914 11.6435C9.08572 11.7945 8.69723 11.9707 8.3714 12.1973C8.04557 12.4239 7.74481 12.6882 7.49417 12.9777C7.36885 13.1162 7.2686 13.2798 7.18087 13.4435C7.10568 13.6071 7.03049 13.7833 6.9929 13.9596C6.94277 14.1358 6.93024 14.3246 6.93024 14.5134C6.93024 14.7022 6.98036 14.9036 7.04302 15.0924C7.48164 15.1679 7.89519 15.1428 8.25861 15.0673C8.62204 14.9791 8.98546 14.8407 9.31129 14.6645C9.4742 14.5763 9.62459 14.4631 9.77497 14.3624C9.85016 14.312 9.91282 14.2491 9.98801 14.1861C10.0632 14.1232 10.1384 14.0728 10.2011 14.0099C10.4768 13.7707 10.7274 13.5064 10.953 13.2421C11.1911 12.9777 11.4041 12.7134 11.5796 12.4617C11.6297 12.3987 11.6673 12.3358 11.7049 12.2728C11.755 12.2099 11.7926 12.147 11.8302 12.0966C11.9179 11.9833 11.9931 11.87 12.0558 11.7693C12.1936 11.568 12.2939 11.3917 12.3691 11.2659V11.2533Z" fill="#C1A866"/>
<path d="M7.76828 9.01187C8.14424 8.82306 8.43247 8.55872 8.64551 8.25662C8.87109 7.96711 9.034 7.61467 9.14679 7.23704C9.37236 6.49439 9.40996 5.61327 9.40996 4.75732C9.40996 4.54334 9.40996 4.32935 9.38489 4.11537C9.38489 3.91397 9.35983 3.69998 9.3473 3.51117C9.32223 3.12096 9.28464 2.74334 9.24704 2.42865C9.18438 1.81187 9.10919 1.39648 9.10919 1.39648C9.10919 1.39648 9.034 1.47201 8.90868 1.61047C8.78336 1.74893 8.60792 1.95033 8.41994 2.21467C8.23196 2.479 8.00639 2.7811 7.79335 3.13355C7.59284 3.48599 7.37979 3.8762 7.20435 4.29159C7.0289 4.70697 6.87852 5.13495 6.77827 5.5755C6.67801 6.01606 6.64041 6.45662 6.66548 6.87201C6.71561 7.71537 7.05397 8.47061 7.75575 9.01187H7.76828Z" fill="#C1A866"/>
<path d="M13.9876 8.55435C14.2758 8.34036 14.5515 8.13896 14.7771 7.92498C15.0152 7.71099 15.2408 7.52218 15.4037 7.34596C15.5791 7.16973 15.7295 7.03127 15.8298 6.91799C15.93 6.81729 15.9802 6.75435 15.9802 6.75435C15.9802 6.75435 15.6167 6.66624 15.0277 6.61589C14.7395 6.59071 14.4137 6.57812 14.0377 6.57812C13.6618 6.57812 13.2733 6.6033 12.8848 6.66624C12.0953 6.77952 11.2932 7.05645 10.6792 7.50959C10.3784 7.74875 10.1278 8.02568 9.95234 8.34036C9.78942 8.66764 9.7017 9.04526 9.72676 9.44806C10.5539 9.81309 11.3308 9.77533 12.0326 9.57393C12.3961 9.47323 12.7344 9.32218 13.0602 9.14596C13.3861 8.96973 13.6994 8.76833 13.9751 8.55435H13.9876Z" fill="#C1A866"/>
<path d="M12.3883 42.3684C14.7318 44.3194 17.5891 45.6537 20.3837 46.7865C22.677 47.718 25.622 49.2411 28.6171 50.6635C25.9228 51.5068 23.266 52.1991 21.123 52.5516C20.8473 52.6019 22.276 54.0621 22.5517 53.9865C25.033 53.2313 27.5519 52.325 30.0332 51.318C32.7401 52.5516 35.4219 53.6215 37.6275 53.9865C37.9032 54.0369 38.7679 52.5516 38.4922 52.5012C36.3994 52.1488 33.9807 51.532 31.4493 50.7264C35.6099 48.9768 39.6201 46.9879 43.0789 45.0872C46.8384 43.0229 49.6581 40.1026 51.5253 36.2257C53.2422 32.6257 54.4578 28.6481 54.6332 24.6579C54.8839 19.132 53.0292 13.6942 50.1594 9.03689C49.3197 7.67745 48.3798 6.30543 47.3397 5.04668C47.4274 4.69424 47.44 4.35438 47.3773 4.0271C47.3021 3.64948 47.1643 3.28445 46.9387 2.95717C46.5001 2.29004 45.7983 1.74878 45.0714 1.34598C44.3446 0.943187 43.5927 0.691439 43.0162 0.552978C42.728 0.477453 42.5024 0.439691 42.3395 0.427103C42.2518 0.427103 42.1891 0.414516 42.1515 0.401929C42.1139 0.401929 42.0889 0.401929 42.0889 0.401929C42.0889 0.401929 42.0889 0.427103 42.1139 0.464866C42.139 0.502628 42.164 0.565565 42.2016 0.628502C42.2768 0.779551 42.3771 0.98095 42.5149 1.2327C42.7781 1.73619 43.1541 2.39074 43.5801 3.0327C43.7932 3.35997 44.0438 3.66207 44.2945 3.95158C44.4198 4.09004 44.5576 4.2285 44.6955 4.35438C44.8333 4.48025 44.9712 4.60612 45.1216 4.70682C45.4223 4.90822 45.7482 5.08445 46.1116 5.17256C46.3873 5.2355 46.6755 5.27326 46.9763 5.24808C48.9814 7.6271 50.6105 10.3837 51.8637 13.153C53.4552 16.6775 54.2949 20.5166 54.2072 24.3935C54.1069 28.6103 52.7033 32.9026 50.8236 36.6537C49.3573 39.574 47.2144 41.953 44.4824 43.7278C42.0387 45.3138 39.3569 46.5096 36.7002 47.6677C34.7076 48.5362 32.3391 49.4299 29.9329 50.2229C24.7824 48.4984 19.4062 46.1572 15.6842 44.0425C13.7418 42.9348 11.9748 41.5879 10.5086 39.8761C9.05487 38.1642 8.00219 36.1376 7.16255 34.0733C5.55848 30.146 4.5434 26.0802 4.79403 21.8131C5.08227 16.8411 7.0247 12.083 9.74412 7.95438C10.4459 6.89703 11.1978 5.83969 12.0124 4.84528C12.3132 4.85787 12.5889 4.8327 12.852 4.76976C13.2154 4.68165 13.5287 4.50542 13.842 4.30403C13.9924 4.20333 14.1303 4.07745 14.2681 3.95158C14.406 3.8257 14.5438 3.68724 14.6691 3.54878C14.9198 3.25927 15.1579 2.94459 15.3835 2.6299C15.8221 1.98794 16.1855 1.3334 16.4487 0.829901C16.5865 0.578152 16.6868 0.364166 16.762 0.225705C16.7996 0.15018 16.8246 0.0998306 16.8497 0.0620684C16.8622 0.0243062 16.8747 0.0117188 16.8747 0.0117188C16.8747 0.0117188 16.8497 0.0117188 16.8121 0.0117188C16.7745 0.0117188 16.7118 0.0117188 16.6241 0.0368936C16.4612 0.0620684 16.2231 0.0998306 15.9474 0.175355C15.3835 0.313817 14.6315 0.565565 13.8922 0.968362C13.1653 1.37116 12.4635 1.91242 12.0249 2.57955C11.7993 2.90682 11.649 3.27186 11.5863 3.64948C11.5236 3.96417 11.5362 4.30403 11.6239 4.64389C9.70652 6.92221 8.12751 9.55298 6.89939 12.1963C5.38303 15.4565 4.4682 18.9809 4.33035 22.5684C4.17997 26.697 5.29531 30.6621 6.83673 34.4509C8.07738 37.497 9.85691 40.2663 12.3883 42.3935V42.3684Z" fill="#119A4B"/>
<path d="M42.5227 49.884C43.4626 49.7203 44.3273 49.4182 44.9539 49.1539C45.5805 48.8896 45.969 48.663 45.969 48.663C45.969 48.663 45.5679 48.4993 44.9664 48.2979C44.3523 48.084 43.5378 47.8322 42.6856 47.6182C41.8209 47.4042 40.9311 47.2532 40.104 47.291C39.6905 47.3035 39.302 47.3791 38.9135 47.5175C38.5376 47.656 38.1741 47.8574 37.7856 48.1595C38.0363 49.028 38.7882 49.5693 39.678 49.821C40.5677 50.0854 41.5953 50.0602 42.5227 49.8965V49.884Z" fill="#C1A866"/>
<path d="M37.8921 46.7728C38.268 46.6973 38.6189 46.5211 38.9448 46.2819C39.5839 45.8036 40.0726 45.061 40.3985 44.3057C40.7368 43.5505 40.9123 42.7826 41.0125 42.2036C41.0626 41.9141 41.0877 41.6749 41.1002 41.4987C41.1128 41.3351 41.1253 41.2344 41.1253 41.2344C41.1253 41.2344 40.8245 41.398 40.3985 41.6623C39.9598 41.9393 39.3834 42.3295 38.8194 42.7826C38.2555 43.2484 37.7041 43.777 37.3156 44.4064C36.9271 45.0358 36.689 45.7407 36.7141 46.647C37.1026 46.8106 37.5161 46.8358 37.8921 46.7603V46.7728Z" fill="#C1A866"/>
<path d="M48.844 43.4878C47.9543 43.5129 47.052 43.5759 46.275 43.815C45.498 44.0542 44.8464 44.4696 44.4203 45.2374C44.9466 45.9549 45.7111 46.2947 46.5758 46.3325C47.4405 46.3703 48.3929 46.1185 49.2576 45.7283C50.1348 45.3255 50.9243 44.7968 51.4757 44.3311C51.7514 44.1045 51.977 43.8905 52.1274 43.7521C52.2778 43.601 52.3655 43.5129 52.3655 43.5129C52.3655 43.5129 51.9394 43.5129 51.2627 43.4878C50.5985 43.4878 49.7213 43.4626 48.8315 43.4878H48.844Z" fill="#C1A866"/>
<path d="M42.9349 43.9009C43.7745 43.9513 44.4638 43.5359 44.9525 42.9191C45.4413 42.2897 45.7295 41.4715 45.8423 40.6534C45.9551 39.8478 45.9175 39.0673 45.8297 38.5009C45.7922 38.224 45.742 37.9848 45.6919 37.8338C45.6543 37.6701 45.6167 37.582 45.6167 37.582C45.6167 37.582 45.5666 37.6324 45.4789 37.7331C45.3786 37.8338 45.2533 37.9722 45.1029 38.1485C44.7896 38.5009 44.3635 38.9918 43.9374 39.5834C43.5239 40.1625 43.1103 40.8296 42.8722 41.5597C42.6467 42.2897 42.584 43.0827 42.9224 43.9135L42.9349 43.9009Z" fill="#C1A866"/>
<path d="M54.6106 39.4884C54.6983 39.3877 54.786 39.2744 54.8738 39.1612L54.9991 38.9975L55.0993 38.8591C55.2247 38.6828 55.35 38.5066 55.4502 38.343C55.6758 38.0031 55.8638 37.6758 56.0267 37.3989C56.1771 37.122 56.3024 36.8828 56.3901 36.7066C56.4653 36.5304 56.5029 36.4297 56.5029 36.4297C56.5029 36.4297 56.1144 36.543 55.5004 36.7318C54.8988 36.9206 54.0968 37.2101 53.3323 37.5751C53.1318 37.6633 52.9439 37.764 52.7559 37.8647C52.5554 37.9779 52.3549 38.1038 52.1669 38.2171C51.9789 38.3304 51.7784 38.4563 51.6029 38.5695C51.4275 38.6954 51.2395 38.8087 51.0891 38.9346C50.4375 39.4507 49.9487 40.0297 49.7482 40.8982C50.4625 41.4395 51.3022 41.5276 52.1669 41.2507C53.0316 40.9737 53.9088 40.3318 54.6231 39.4758L54.6106 39.4884Z" fill="#C1A866"/>
<path d="M49.4012 35.8728C49.1757 35.0672 48.8498 34.3497 48.5741 33.8336C48.4363 33.5693 48.3235 33.3679 48.2232 33.2168C48.123 33.0658 48.0729 32.9902 48.0729 32.9902C48.0729 32.9902 48.0353 33.0658 47.9851 33.2168C47.9225 33.3553 47.8348 33.5567 47.747 33.8084C47.6593 34.0602 47.5591 34.3497 47.4588 34.6895C47.3711 35.0042 47.2708 35.4196 47.2458 35.6588C47.1706 36.2252 47.0828 36.9175 47.1204 37.635C47.1706 38.3525 47.346 39.1203 47.91 39.8126C48.7245 39.6238 49.2634 39.007 49.489 38.2644C49.5391 38.0756 49.5892 37.8867 49.6143 37.6853C49.6268 37.4839 49.6393 37.2825 49.6143 37.0811C49.6017 36.8797 49.5642 36.6783 49.5266 36.4895C49.489 36.2881 49.4388 36.0742 49.3762 35.8728H49.4012Z" fill="#C1A866"/>
<path d="M58.4506 29.6059C58.5007 29.4171 58.5132 29.3164 58.5132 29.3164C58.5132 29.3164 58.1498 29.5052 57.5734 29.8199C57.0094 30.1346 56.2826 30.5626 55.5808 31.0661C54.8539 31.557 54.1522 32.1234 53.6885 32.7654C53.5757 32.929 53.4629 33.0926 53.3627 33.2563C53.2624 33.4199 53.1872 33.5961 53.1371 33.7849C53.0243 34.15 52.9867 34.5402 53.0619 34.9682C53.9141 35.2199 54.7036 35.0311 55.4179 34.5654C55.5933 34.4521 55.7688 34.3262 55.9317 34.1751C56.0946 34.0367 56.2575 33.873 56.4079 33.7094C56.6961 33.3696 56.9593 32.9919 57.1974 32.6017C57.6861 31.8339 57.9869 30.9905 58.1999 30.3737C58.3002 30.0591 58.3879 29.7947 58.4381 29.6185L58.4506 29.6059Z" fill="#C1A866"/>
<path d="M51.0327 34.2466C51.3711 34.0075 51.6217 33.7054 51.7846 33.3655C51.8724 33.2019 51.935 33.0257 51.9726 32.8369C52.0227 32.648 52.0478 32.4592 52.0478 32.2704C52.0478 31.4774 51.8222 30.6466 51.4713 29.904C51.0954 29.1613 50.6442 28.5194 50.2808 28.0788C50.0928 27.8522 49.9425 27.676 49.8171 27.5501C49.7043 27.4243 49.6292 27.3613 49.6292 27.3613C49.6292 27.3613 49.6166 27.4494 49.5916 27.5879C49.554 27.7264 49.5164 27.9403 49.4662 28.1921C49.366 28.6956 49.3284 29.3879 49.2783 30.1306C49.2657 30.4956 49.2783 30.8858 49.3284 31.276C49.3409 31.3767 49.3535 31.4648 49.366 31.5655C49.3785 31.6662 49.391 31.7543 49.4036 31.855C49.4412 32.0438 49.4788 32.2327 49.5414 32.4089C49.7795 33.139 50.2182 33.8061 50.9951 34.2592L51.0327 34.2466Z" fill="#C1A866"/>
<path d="M56.5257 24.1677C56.3754 24.3313 56.2375 24.4949 56.0997 24.6586C55.9618 24.8222 55.824 24.9984 55.6861 25.1621C55.4229 25.5019 55.1974 25.8544 55.0345 26.2194C54.9467 26.3956 54.8841 26.5844 54.8339 26.7607C54.7713 26.9495 54.7337 27.1257 54.7086 27.3145C54.671 27.6921 54.7086 28.0823 54.859 28.4851C55.7488 28.5732 56.4882 28.2334 57.1022 27.6292C57.2526 27.4781 57.403 27.3145 57.5408 27.1383C57.6787 26.9621 57.7789 26.7732 57.8917 26.5718C58.1048 26.1691 58.2927 25.7411 58.4557 25.3005C58.5434 25.0865 58.5935 24.86 58.6436 24.646C58.6938 24.432 58.7439 24.218 58.7815 24.004C58.8567 23.5886 58.9319 23.1984 58.9444 22.8586C58.982 22.1914 58.9695 21.7383 58.9695 21.7383C58.9695 21.7383 58.6436 22.0152 58.18 22.4558C57.7288 22.8963 57.0897 23.4879 56.5132 24.1299L56.5257 24.1677Z" fill="#C1A866"/>
<path d="M53.3388 27.0387C53.389 26.8624 53.414 26.6736 53.4265 26.4848C53.4265 26.296 53.4015 26.1072 53.3639 25.9058C53.2887 25.5282 53.1508 25.138 52.9754 24.7729C52.9253 24.6848 52.8877 24.5967 52.8375 24.5086C52.7874 24.4205 52.7248 24.3324 52.6746 24.2443C52.5618 24.068 52.4365 23.9044 52.3112 23.7534C52.0606 23.4387 51.7849 23.1492 51.5217 22.91C51.3964 22.7841 51.2585 22.6708 51.1207 22.5701C50.9954 22.4694 50.8575 22.3687 50.7447 22.2806C50.2685 21.9408 49.9427 21.752 49.9427 21.752C49.9427 21.752 49.9427 22.0792 49.9928 22.5701C50.0179 22.696 50.0179 22.8219 50.0304 22.9729C50.0304 23.1114 50.0555 23.2624 50.0805 23.4261C50.1181 23.7408 50.1808 24.0806 50.256 24.4331C50.3186 24.7855 50.4064 25.1506 50.5317 25.503C50.5943 25.6792 50.6695 25.8554 50.7447 26.0317C50.8199 26.2079 50.8951 26.3715 50.9954 26.5352C51.3713 27.1897 51.9353 27.7561 52.7749 28.0457C53.0631 27.7436 53.2511 27.4037 53.3514 27.0513L53.3388 27.0387Z" fill="#C1A866"/>
<path d="M54.9044 19.609C54.8167 19.9992 54.7916 20.3768 54.8543 20.7544C54.8793 20.9432 54.942 21.1195 55.0047 21.3083C55.0673 21.4971 55.155 21.6733 55.2678 21.8495C56.145 21.7237 56.8343 21.2202 57.2478 20.4901C57.4609 20.1251 57.6363 19.7097 57.7742 19.2691C57.887 18.8286 57.9496 18.3628 57.9872 17.8971C57.9998 17.6705 58.0248 17.4314 58.0248 17.2048C58.0248 16.9782 57.9998 16.7642 57.9872 16.5502C57.9496 16.1223 57.912 15.7321 57.8619 15.4048C57.7241 14.7502 57.5987 14.3223 57.5987 14.3223C57.5987 14.3223 57.3606 14.6747 57.0223 15.216C56.8594 15.4803 56.6589 15.795 56.4458 16.1474C56.2328 16.4999 56.0197 16.8649 55.8318 17.2551C55.6438 17.6328 55.4307 18.0356 55.2678 18.4258C55.1049 18.8286 54.9796 19.2188 54.9044 19.609Z" fill="#C1A866"/>
<path d="M53.2412 19.4941C53.0783 19.1416 52.8402 18.8144 52.577 18.5123C52.4392 18.3612 52.3013 18.2102 52.1509 18.0843C52.0005 17.9458 51.8376 17.8199 51.6747 17.7067C51.0105 17.2409 50.3463 16.9011 49.7949 16.6997C49.2561 16.4983 48.8926 16.4102 48.8926 16.4102C48.8926 16.4102 48.9678 16.7248 49.1433 17.1654C49.2185 17.392 49.3062 17.6689 49.4315 17.9584C49.4942 18.0969 49.5568 18.2479 49.632 18.399C49.7072 18.55 49.7573 18.7137 49.8451 18.8647C49.9954 19.1794 50.1709 19.4941 50.3839 19.7962C50.5719 20.0983 50.7975 20.4004 51.0607 20.6647C51.6121 21.1808 52.2512 21.5962 53.1409 21.6843C53.2537 21.5081 53.3289 21.3318 53.3916 21.143C53.4542 20.9542 53.4668 20.778 53.4668 20.5892C53.4668 20.2241 53.379 19.8465 53.2287 19.5067L53.2412 19.4941Z" fill="#C1A866"/>
<path d="M54.4547 7.55273C54.4547 7.55273 54.3044 7.94294 54.1039 8.54714C53.8908 9.15134 53.6652 9.95693 53.4397 10.8003C53.3394 11.2283 53.2642 11.6436 53.2016 12.0716C53.1389 12.4996 53.1013 12.915 53.1389 13.3052C53.164 13.494 53.1765 13.6954 53.2141 13.8842C53.2517 14.073 53.3018 14.2492 53.377 14.4255C53.4522 14.6017 53.5399 14.7653 53.6652 14.9164C53.778 15.08 53.9033 15.2311 54.0663 15.3695C54.4798 15.1933 54.8182 14.9415 55.0813 14.6269C55.3445 14.3122 55.52 13.9471 55.6453 13.5443C55.7079 13.3429 55.7455 13.129 55.7831 12.915C55.8082 12.701 55.8332 12.4744 55.8332 12.2478C55.8332 11.7947 55.7831 11.329 55.7079 10.8758C55.5325 9.98211 55.2443 9.12616 54.956 8.53455C54.8182 8.23245 54.7054 7.98071 54.6177 7.81707C54.5299 7.65343 54.4673 7.56532 54.4673 7.56532L54.4547 7.55273Z" fill="#C1A866"/>
<path d="M51.801 13.8556C51.7133 13.6919 51.6256 13.5283 51.4877 13.3898C51.2371 13.1003 50.9363 12.836 50.6105 12.6094C50.2847 12.3829 49.8962 12.2066 49.5328 12.0556C49.3448 11.9801 49.1568 11.9171 48.9814 11.8542C48.8059 11.7912 48.6054 11.7535 48.4299 11.7157C48.0791 11.6276 47.7407 11.5773 47.465 11.5395C47.1768 11.5017 46.9512 11.4891 46.7757 11.4766C46.6003 11.4766 46.5126 11.4766 46.5126 11.4766C46.5126 11.4766 46.5502 11.5521 46.6254 11.6654C46.7006 11.7912 46.8008 11.9675 46.9387 12.1689C47.0013 12.2696 47.0765 12.3829 47.1642 12.4961C47.2018 12.5591 47.252 12.6094 47.3021 12.6724C47.3397 12.7353 47.3898 12.7982 47.4274 12.8612C47.6028 13.1129 47.8159 13.3773 48.054 13.6416C48.267 13.9059 48.5177 14.1703 48.8059 14.4094C48.8811 14.4724 48.9563 14.5227 49.0189 14.5857C49.0941 14.6486 49.1568 14.6989 49.232 14.7619C49.3824 14.8752 49.5328 14.9759 49.6957 15.064C50.009 15.2528 50.3724 15.3912 50.7483 15.4794C51.1243 15.5675 51.5253 15.5801 51.9639 15.5045C52.0266 15.3031 52.0642 15.1143 52.0642 14.9255C52.0642 14.7367 52.0391 14.5605 52.0015 14.3717C51.9514 14.1954 51.8887 14.0192 51.8135 13.8556H51.801Z" fill="#C1A866"/>
<path d="M51.2296 9.43092C51.9439 8.88966 52.2697 8.13442 52.3199 7.30365C52.3449 6.88827 52.2948 6.44771 52.2071 6.00715C52.1068 5.56659 51.9565 5.13861 51.781 4.72323C51.6056 4.30785 51.3925 3.93022 51.192 3.56519C50.9915 3.21274 50.7659 2.91064 50.5779 2.64631C50.39 2.38197 50.2145 2.18057 50.0892 2.04211C49.9639 1.90365 49.9012 1.82812 49.9012 1.82812C49.9012 1.82812 49.8386 2.24351 49.7634 2.86029C49.7258 3.17498 49.6882 3.5526 49.6631 3.94281C49.6506 4.14421 49.6381 4.34561 49.6255 4.54701C49.6255 4.76099 49.6005 4.97498 49.6005 5.18896C49.6005 6.04491 49.6255 6.92603 49.8511 7.68127C49.9639 8.05889 50.1143 8.39875 50.3524 8.70085C50.5654 9.00295 50.8536 9.2547 51.2421 9.4561L51.2296 9.43092Z" fill="#C1A866"/>
<path d="M48.2931 7.92952C47.6791 7.47637 46.877 7.19945 46.0875 7.08616C45.699 7.02322 45.298 6.99805 44.9346 6.99805C44.5712 6.99805 44.2328 7.01063 43.9446 7.03581C43.3681 7.09875 43.0047 7.17427 43.0047 7.17427C43.0047 7.17427 43.0548 7.23721 43.1551 7.33791C43.2553 7.43861 43.4057 7.57707 43.5812 7.76588C43.7566 7.9421 43.9822 8.13091 44.2203 8.3449C44.4584 8.55889 44.7216 8.77287 45.0098 8.97427C45.298 9.18826 45.5988 9.38966 45.9246 9.55329C46.2379 9.72952 46.5888 9.88056 46.9397 9.98126C47.654 10.1952 48.4185 10.2204 49.2456 9.85539C49.2706 9.44 49.1829 9.07497 49.02 8.7477C48.8445 8.43301 48.5939 8.15609 48.2931 7.91693V7.92952Z" fill="#C1A866"/>
</g>
<defs>
<clipPath id="clip0_970_4693">
<rect width="59" height="54" fill="white"/>
</clipPath>
</defs>
</svg>
