<?xml version="1.0" encoding="UTF-8"?>
<svg id="Layer_2" data-name="Layer 2" xmlns="http://www.w3.org/2000/svg" viewBox="0 0 38.93 30.77">
  <defs>
    <style>
      .cls-1 {
        fill: #a7a9ac;
      }

      .cls-2 {
        fill: none;
        stroke: #a7a9ac;
        stroke-miterlimit: 10;
      }
    </style>
  </defs>
  <g id="Layer_1-2" data-name="Layer 1">
    <g>
      <g>
        <path class="cls-1" d="M18.83,14.78h2.03c.12,0,.22-.1,.22-.22s-.1-.22-.22-.22h-2.03c-.12,0-.22,.1-.22,.22s.1,.22,.22,.22Z"/>
        <path class="cls-1" d="M19.34,14.22h1.01c.12,0,.22-.1,.22-.22s-.1-.22-.22-.22h-.29v-.29c0-.12-.1-.22-.22-.22s-.22,.1-.22,.22v.29h-.29c-.12,0-.22,.1-.22,.22s.1,.22,.22,.22Z"/>
        <path class="cls-1" d="M19.34,18.5h1.01c.12,0,.22-.1,.22-.22s-.1-.22-.22-.22h-1.01c-.12,0-.22,.1-.22,.22s.1,.22,.22,.22Z"/>
        <path class="cls-1" d="M18.83,1.5h2.03c.12,0,.22-.1,.22-.22s-.1-.22-.22-.22h-2.03c-.12,0-.22,.1-.22,.22s.1,.22,.22,.22Z"/>
        <path class="cls-1" d="M19.34,.94h1.01c.12,0,.22-.1,.22-.22s-.1-.22-.22-.22h-.29V.22c0-.12-.1-.22-.22-.22s-.22,.1-.22,.22v.29h-.29c-.12,0-.22,.1-.22,.22s.1,.22,.22,.22Z"/>
        <path class="cls-1" d="M20.35,4.78h-1.01c-.12,0-.22,.1-.22,.22s.1,.22,.22,.22h1.01c.12,0,.22-.1,.22-.22s-.1-.22-.22-.22Z"/>
        <path class="cls-1" d="M13.48,3.77c0,.12,.1,.22,.22,.22h2.03c.12,0,.22-.1,.22-.22s-.1-.22-.22-.22h-2.03c-.12,0-.22,.1-.22,.22Z"/>
        <path class="cls-1" d="M15.22,7.27h-1.01c-.12,0-.22,.1-.22,.22s.1,.22,.22,.22h1.01c.12,0,.22-.1,.22-.22s-.1-.22-.22-.22Z"/>
        <path class="cls-1" d="M14.49,3h-.29c-.12,0-.22,.1-.22,.22s.1,.22,.22,.22h1.01c.12,0,.22-.1,.22-.22s-.1-.22-.22-.22h-.29v-.29c0-.12-.1-.22-.22-.22s-.22,.1-.22,.22v.29Z"/>
        <path class="cls-1" d="M8.55,9.39h2.03c.12,0,.22-.1,.22-.22s-.1-.22-.22-.22h-2.03c-.12,0-.22,.1-.22,.22s.1,.22,.22,.22Z"/>
        <path class="cls-1" d="M10.07,12.67h-1.01c-.12,0-.22,.1-.22,.22s.1,.22,.22,.22h1.01c.12,0,.22-.1,.22-.22s-.1-.22-.22-.22Z"/>
        <path class="cls-1" d="M9.57,7.89c-.12,0-.22,.1-.22,.22v.29h-.29c-.12,0-.22,.1-.22,.22s.1,.22,.22,.22h1.01c.12,0,.22-.1,.22-.22s-.1-.22-.22-.22h-.29v-.29c0-.12-.1-.22-.22-.22Z"/>
        <path class="cls-1" d="M3.41,14.46h2.03c.12,0,.22-.1,.22-.22s-.1-.22-.22-.22H3.41c-.12,0-.22,.1-.22,.22s.1,.22,.22,.22Z"/>
        <path class="cls-1" d="M3.91,13.91h1.01c.12,0,.22-.1,.22-.22s-.1-.22-.22-.22h-.29v-.29c0-.12-.1-.22-.22-.22s-.22,.1-.22,.22v.29h-.29c-.12,0-.22,.1-.22,.22s.1,.22,.22,.22Z"/>
        <path class="cls-1" d="M4.93,17.46h-1.01c-.12,0-.22,.1-.22,.22s.1,.22,.22,.22h1.01c.12,0,.22-.1,.22-.22s-.1-.22-.22-.22Z"/>
        <path class="cls-1" d="M23.74,3.77c0,.12,.1,.22,.22,.22h2.03c.12,0,.22-.1,.22-.22s-.1-.22-.22-.22h-2.03c-.12,0-.22,.1-.22,.22Z"/>
        <path class="cls-1" d="M24.47,3.43h1.01c.12,0,.22-.1,.22-.22s-.1-.22-.22-.22h-.29v-.29c0-.12-.1-.22-.22-.22s-.22,.1-.22,.22v.29h-.29c-.12,0-.22,.1-.22,.22s.1,.22,.22,.22Z"/>
        <path class="cls-1" d="M25.48,7.27h-1.01c-.12,0-.22,.1-.22,.22s.1,.22,.22,.22h1.01c.12,0,.22-.1,.22-.22s-.1-.22-.22-.22Z"/>
        <path class="cls-1" d="M29.11,9.39h2.03c.12,0,.22-.1,.22-.22s-.1-.22-.22-.22h-2.03c-.12,0-.22,.1-.22,.22s.1,.22,.22,.22Z"/>
        <path class="cls-1" d="M29.61,8.83h1.01c.12,0,.22-.1,.22-.22s-.1-.22-.22-.22h-.29v-.29c0-.12-.1-.22-.22-.22s-.22,.1-.22,.22v.29h-.29c-.12,0-.22,.1-.22,.22s.1,.22,.22,.22Z"/>
        <path class="cls-1" d="M30.63,12.67h-1.01c-.12,0-.22,.1-.22,.22s.1,.22,.22,.22h1.01c.12,0,.22-.1,.22-.22s-.1-.22-.22-.22Z"/>
        <path class="cls-1" d="M34.03,14.25c0,.12,.1,.22,.22,.22h2.03c.12,0,.22-.1,.22-.22s-.1-.22-.22-.22h-2.03c-.12,0-.22,.1-.22,.22Z"/>
        <path class="cls-1" d="M35.77,17.46h-1.01c-.12,0-.22,.1-.22,.22s.1,.22,.22,.22h1.01c.12,0,.22-.1,.22-.22s-.1-.22-.22-.22Z"/>
        <path class="cls-1" d="M35.26,12.97c-.12,0-.22,.1-.22,.22v.29h-.29c-.12,0-.22,.1-.22,.22s.1,.22,.22,.22h1.01c.12,0,.22-.1,.22-.22s-.1-.22-.22-.22h-.29v-.29c0-.12-.1-.22-.22-.22Z"/>
        <path class="cls-1" d="M37.69,20.36h-.18c-.04-4.64-1.22-5.66-1.27-5.7-.04-.03-.09-.05-.14-.05h-1.67s-.1,.02-.14,.05c-.05,.04-1.24,1.06-1.27,5.7h-.18c-.12,0-.22,.1-.22,.22v.7c0,.12,.1,.22,.22,.22h.18v2.34h-.65v-4.95h.18c.12,0,.22-.1,.22-.22v-.7c0-.12-.1-.22-.22-.22h-.18c-.04-4.65-1.19-8.03-1.21-8.07-.03-.09-.11-.15-.21-.15h-1.67c-.09,0-.17,.06-.21,.15-.01,.03-1.17,3.41-1.21,8.07h-.18c-.12,0-.22,.1-.22,.22v.7c0,.12,.1,.22,.22,.22h.18v4.95h-.65V13.48h.18c.12,0,.22-.1,.22-.22v-.7c0-.12-.1-.22-.22-.22h-.18c-.04-4.65-1.19-8.03-1.21-8.07-.03-.09-.11-.15-.21-.15h-1.67c-.09,0-.17,.06-.21,.15-.01,.03-1.17,3.41-1.21,8.07h-.18c-.12,0-.22,.1-.22,.22v.7c0,.12,.1,.22,.22,.22h.18v10.35h-.24v-.48c0-.12-.1-.22-.22-.22h-.18V10.99h.18c.12,0,.22-.1,.22-.22v-.7c0-.12-.1-.22-.22-.22h-.18c-.04-4.65-1.19-8.03-1.21-8.07-.03-.09-.11-.15-.21-.15h-1.67c-.09,0-.17,.06-.21,.15-.01,.03-1.17,3.41-1.21,8.07h-.18c-.12,0-.22,.1-.22,.22v.7c0,.12,.1,.22,.22,.22h.18v12.14h-.18c-.12,0-.22,.1-.22,.22v.48h-.24V13.48h.18c.12,0,.22-.1,.22-.22v-.7c0-.12-.1-.22-.22-.22h-.18c-.04-4.65-1.19-8.03-1.21-8.07-.03-.09-.11-.15-.21-.15h-1.67c-.09,0-.17,.06-.21,.15-.01,.03-1.17,3.41-1.21,8.07h-.18c-.12,0-.22,.1-.22,.22v.7c0,.12,.1,.22,.22,.22h.18v10.35h-.65v-4.95h.18c.12,0,.22-.1,.22-.22v-.7c0-.12-.1-.22-.22-.22h-.18c-.04-4.65-1.19-8.03-1.21-8.07-.03-.09-.11-.15-.21-.15h-1.67c-.09,0-.17,.06-.21,.15-.01,.03-1.17,3.41-1.21,8.07h-.18c-.12,0-.22,.1-.22,.22v.7c0,.12,.1,.22,.22,.22h.18v4.95h-.65v-2.34h.18c.12,0,.22-.1,.22-.22v-.7c0-.12-.1-.22-.22-.22h-.18c-.04-4.64-1.22-5.66-1.28-5.7-.04-.03-.09-.05-.14-.05h-1.67s-.1,.02-.14,.05c-.05,.04-1.24,1.06-1.28,5.7h-.18c-.12,0-.22,.1-.22,.22v.7c0,.12,.1,.22,.22,.22h.18v8.44c0,.12,.1,.22,.22,.22H37.29c.12,0,.22-.1,.22-.22v-8.44h.18c.12,0,.22-.1,.22-.22v-.7c0-.12-.1-.22-.22-.22Zm-.22,.7h-4.42v-.27h4.42v.27Zm-2.95-6.01h1.48c.2,.24,1.04,1.47,1.07,5.31h-3.62c.03-3.85,.86-5.07,1.07-5.31Zm1.78,9.22l-5.9,5.45h-1.67l5.9-5.45h1.67Zm-2.95,5.45l3.72-3.43v1.54l-2.05,1.89h-1.67Zm-2.31,0l5.9-5.45h.13v1.42l-4.36,4.03h-1.67Zm2.95-5.45l-5.9,5.45h-1.67l5.9-5.45h1.67Zm-9.87,5.45l5.9-5.45h1.67l-5.9,5.45h-1.67Zm-2.31,0l5.9-5.45h1.67l-5.9,5.45h-1.67Zm-2.31,0l5.9-5.45h1.67l-5.9,5.45h-1.67Zm-2.31,0l5.9-5.45h1.67l-5.9,5.45h-1.67Zm-2.31,0l5.9-5.45h1.67l-5.9,5.45h-1.67Zm-2.31,0l5.9-5.45h1.67l-5.9,5.45h-1.67Zm-2.31,0l5.9-5.45h1.67l-5.9,5.45h-1.67Zm-2.31,0l5.9-5.45h1.67l-5.9,5.45h-1.67Zm-2.31,0l5.9-5.45h1.67l-5.9,5.45h-1.67Zm-2.31,0l5.9-5.45h1.67l-5.9,5.45h-1.67Zm-.74,0v-1.44l4.33-4h1.67l-5.9,5.45h-.1Zm1.39-5.45l-1.39,1.28v-1.28h1.39Zm-1.39,1.87l2.03-1.87h1.67l-3.69,3.41v-1.54Zm29.54-7.7h-4.06s-.04,0-.06,0h-.12v-.27h4.42v.27h-.12s-.04,0-.06,0Zm-2.7-8.47h1.35c.22,.69,1.1,3.74,1.13,7.78h-3.62c.03-4.03,.92-7.09,1.13-7.78Zm-1.14,8.91h3.62v4.95h-.46v-2.2c0-.12-.1-.22-.22-.22s-.22,.1-.22,.22v2.2h-.68v-2.64c0-.12-.1-.22-.22-.22s-.22,.1-.22,.22v2.64h-.72v-1.87c0-.12-.1-.22-.22-.22s-.22,.1-.22,.22v1.87h-.46v-4.95Zm-5.54-5.84v-.27h4.42v.27h-4.42Zm1.53-8.48h1.35c.22,.69,1.1,3.74,1.13,7.78h-3.62c.03-4.03,.92-7.09,1.13-7.78Zm-1.14,8.91h3.62v10.35h-.46v-1.33c0-.12-.1-.22-.22-.22s-.22,.1-.22,.22v1.33h-.68v-2.2c0-.12-.1-.22-.22-.22s-.22,.1-.22,.22v2.2h-.72v-1.87c0-.12-.1-.22-.22-.22s-.22,.1-.22,.22v1.87h-.46V13.48Zm-3.32,1.88h.68c.22,.69,1.1,3.74,1.13,7.78h-3.62c.03-4.03,.92-7.09,1.13-7.78h.68Zm-2.21-4.8v-.27h4.42v.27h-4.42Zm1.53-8.48h1.35c.22,.69,1.1,3.74,1.13,7.78h-3.62c.03-4.03,.92-7.09,1.13-7.78Zm2.49,8.91v7.32c-.34-1.99-.77-3.22-.77-3.24-.03-.09-.11-.15-.21-.15h-1.67c-.09,0-.17,.06-.21,.15,0,.02-.43,1.25-.77,3.24v-7.32h3.62Zm-4.02,12.58h4.42v.27h-4.42v-.27Zm-5.13-10.52v-.27h4.42v.27h-4.42Zm1.53-8.48h1.35c.22,.69,1.1,3.74,1.13,7.78h-3.62c.03-4.03,.92-7.09,1.13-7.78Zm-1.14,8.91h3.62v10.35h-.46v-2.2c0-.12-.1-.22-.22-.22s-.22,.1-.22,.22v2.2h-.68v-2.64c0-.12-.1-.22-.22-.22s-.22,.1-.22,.22v2.64h-.72v-1.87c0-.12-.1-.22-.22-.22s-.22,.1-.22,.22v1.87h-.46V13.48Zm-1.3,4.96H7.54s-.04,0-.06,0h-.12v-.27h4.42v.27h-.12s-.04,0-.06,0Zm-2.7-8.47h1.35c.22,.69,1.1,3.74,1.13,7.78h-3.62c.03-4.03,.92-7.09,1.13-7.78Zm-1.14,8.91h3.62v4.95h-.46v-1.33c0-.12-.1-.22-.22-.22s-.22,.1-.22,.22v1.33h-.68v-2.2c0-.12-.1-.22-.22-.22s-.22,.1-.22,.22v2.2h-.72v-1.87c0-.12-.1-.22-.22-.22s-.22,.1-.22,.22v1.87h-.46v-4.95Zm-5.54,2.18v-.27H6.63v.27H2.21Zm1.47-6.01h1.48c.2,.24,1.04,1.47,1.07,5.31H2.61c.03-3.85,.86-5.07,1.07-5.31Zm2.55,6.45v2.34h-.46v-.47c0-.12-.1-.22-.22-.22s-.22,.1-.22,.22v.47h-.68v-1.04c0-.12-.1-.22-.22-.22s-.22,.1-.22,.22v1.04h-.72v-.28c0-.12-.1-.22-.22-.22s-.22,.1-.22,.22v.28h-.46v-2.34h3.62Zm29.43,8.22l1.41-1.3v1.3h-1.41Zm1.41-5.88h-.46v-.47c0-.12-.1-.22-.22-.22s-.22,.1-.22,.22v.47h-.68v-1.04c0-.12-.1-.22-.22-.22s-.22,.1-.22,.22v1.04h-.72v-.28c0-.12-.1-.22-.22-.22s-.22,.1-.22,.22v.28h-.46v-2.34h3.62v2.34Z"/>
        <path class="cls-1" d="M14.73,19.46c.12,0,.22-.1,.22-.22v-.07c0-.12-.1-.22-.22-.22s-.22,.1-.22,.22v.07c0,.12,.1,.22,.22,.22Z"/>
        <path class="cls-1" d="M13.57,21.1c.12,0,.22-.1,.22-.22v-.45c0-.12-.1-.22-.22-.22s-.22,.1-.22,.22v.45c0,.12,.1,.22,.22,.22Z"/>
        <path class="cls-1" d="M30.14,20.33c.12,0,.22-.1,.22-.22v-.07c0-.12-.1-.22-.22-.22s-.22,.1-.22,.22v.07c0,.12,.1,.22,.22,.22Z"/>
        <path class="cls-1" d="M28.98,21.1c.12,0,.22-.1,.22-.22v-.45c0-.12-.1-.22-.22-.22s-.22,.1-.22,.22v.45c0,.12,.1,.22,.22,.22Z"/>
        <path class="cls-1" d="M25,20.04c.12,0,.22-.1,.22-.22v-.65c0-.12-.1-.22-.22-.22s-.22,.1-.22,.22v.65c0,.12,.1,.22,.22,.22Z"/>
        <path class="cls-1" d="M23.84,21.1c.12,0,.22-.1,.22-.22v-.16c0-.12-.1-.22-.22-.22s-.22,.1-.22,.22v.16c0,.12,.1,.22,.22,.22Z"/>
        <path class="cls-1" d="M26.11,21.82c.12,0,.22-.1,.22-.22v-.16c0-.12-.1-.22-.22-.22s-.22,.1-.22,.22v.16c0,.12,.1,.22,.22,.22Z"/>
        <path class="cls-1" d="M9.59,20.62c.12,0,.22-.1,.22-.22v-.65c0-.12-.1-.22-.22-.22s-.22,.1-.22,.22v.65c0,.12,.1,.22,.22,.22Z"/>
        <path class="cls-1" d="M8.43,21.1c.12,0,.22-.1,.22-.22v-.16c0-.12-.1-.22-.22-.22s-.22,.1-.22,.22v.16c0,.12,.1,.22,.22,.22Z"/>
        <path class="cls-1" d="M10.7,21.82c.12,0,.22-.1,.22-.22v-.16c0-.12-.1-.22-.22-.22s-.22,.1-.22,.22v.16c0,.12,.1,.22,.22,.22Z"/>
      </g>
      <line class="cls-2" y1="30.27" x2="38.93" y2="30.27"/>
    </g>
  </g>
</svg>