<?xml version="1.0" encoding="UTF-8"?>
<svg id="Layer_2" data-name="Layer 2" xmlns="http://www.w3.org/2000/svg" viewBox="0 0 40 24.38">
  <defs>
    <style>
      .cls-1 {
        fill: #a7a9ac;
      }
    </style>
  </defs>
  <g id="Layer_1-2" data-name="Layer 1">
    <g>
      <rect class="cls-1" x="31.25" y="13.12" width="1.25" height="1.25"/>
      <rect class="cls-1" x="33.75" y="13.12" width="1.25" height="1.25"/>
      <rect class="cls-1" x="36.25" y="13.12" width="1.25" height="1.25"/>
      <rect class="cls-1" x="31.25" y="15.62" width="1.25" height="1.25"/>
      <rect class="cls-1" x="33.75" y="15.62" width="1.25" height="1.25"/>
      <rect class="cls-1" x="36.25" y="15.62" width="1.25" height="1.25"/>
      <rect class="cls-1" x="2.5" y="13.12" width="1.25" height="1.25"/>
      <rect class="cls-1" x="5" y="13.12" width="1.25" height="1.25"/>
      <rect class="cls-1" x="7.5" y="13.12" width="1.25" height="1.25"/>
      <rect class="cls-1" x="2.5" y="15.62" width="1.25" height="1.25"/>
      <rect class="cls-1" x="5" y="15.62" width="1.25" height="1.25"/>
      <rect class="cls-1" x="7.5" y="15.62" width="1.25" height="1.25"/>
      <rect class="cls-1" x="31.25" y="18.13" width="1.25" height="1.25"/>
      <rect class="cls-1" x="33.75" y="18.13" width="1.25" height="1.25"/>
      <rect class="cls-1" x="36.25" y="18.13" width="1.25" height="1.25"/>
      <rect class="cls-1" x="2.5" y="18.13" width="1.25" height="1.25"/>
      <rect class="cls-1" x="5" y="18.13" width="1.25" height="1.25"/>
      <rect class="cls-1" x="7.5" y="18.13" width="1.25" height="1.25"/>
      <path class="cls-1" d="M40,21.87v-1.25h-10V11.87h7.5v-1.25h-7.5v-3.75c0-.79-.5-1.5-1.25-1.76v-.74h-1.25v.74c-.75,.26-1.25,.97-1.25,1.76v2.5h-1.25v-3.75h-1.33c.05-.2,.07-.41,.07-.63,0-1.55-1.35-2.83-3.12-3.08V0h-1.25V1.92c-1.77,.25-3.12,1.53-3.12,3.08,0,.21,.03,.42,.07,.63h-1.33v3.75h-1.25v-2.5c0-.79-.5-1.5-1.25-1.76v-.74h-1.25v.74c-.75,.26-1.25,.97-1.25,1.76v3.75H2.5v1.25h7.5v8.75H0v1.25H10v1.25H0v1.25H40v-1.25h-10v-1.25h10ZM12.5,15.62h-1.25v-1.25h1.25v1.25Zm3.75-5h1.25v7.5h-1.25v-7.5Zm2.19-3.75h.94v1.25h1.25v-1.25h.94v2.5h-3.12v-2.5Zm6.56,6.25h1.25v1.25h-1.25v-1.25Zm1.25,5h-1.25v-2.5h1.25v2.5Zm-2.5,0h-1.25v-7.5h1.25v7.5Zm-5-2.5h2.5v2.5h-2.5v-2.5Zm2.5-3.75h-2.5v-1.25h2.5v1.25Zm0,2.5h-2.5v-1.25h2.5v1.25Zm-6.25,3.75h-1.25v-2.5h1.25v2.5Zm0-3.75h-1.25v-1.25h1.25v1.25Zm-1.25,5h12.5v1.25H13.75v-1.25Zm13.75-5h1.25v1.25h-1.25v-1.25Zm0,2.5h1.25v3.75h-1.25v-3.75Zm1.25-5v1.25h-1.25v-2.5h1.25v1.25Zm-.63-5.62c.35,0,.63,.28,.63,.63h-1.25c0-.35,.28-.63,.62-.63m-.62,1.87h1.25v1.25h-1.25v-1.25Zm-1.25,3.75h-1.25v-1.25h1.25v1.25Zm-2.5-2.5h-.94v-2.5h.94v2.5Zm-6.25-4.37c0-1.03,1.12-1.87,2.5-1.87s2.5,.84,2.5,1.87c0,.22-.06,.43-.15,.63h-4.69c-.1-.19-.15-.41-.15-.63m-1.25,1.88h.94v2.5h-.94v-2.5Zm-1.25,5h-1.25v-1.25h1.25v1.25Zm-3.12-5.62c.35,0,.62,.28,.62,.63h-1.25c0-.35,.28-.63,.63-.63m-.63,1.87h1.25v1.25h-1.25v-1.25Zm0,2.5h1.25v2.5h-1.25v-2.5Zm0,6.25h1.25v3.75h-1.25v-3.75Zm17.5,6.25H11.25v-1.25H28.75v1.25Z"/>
    </g>
  </g>
</svg>