<svg width="16" height="16" viewBox="0 0 16 16" fill="none" xmlns="http://www.w3.org/2000/svg">
<path d="M9.45215 13.7116H6.54297L6.78552 11.4236H9.20984L9.45215 13.7116Z" fill="#132056" stroke="#132056" stroke-width="0.499962" stroke-linecap="round" stroke-linejoin="round"/>
<path d="M9.45215 13.7116H6.54297L6.78552 11.4236H9.20984L9.45215 13.7116Z" fill="#4F2DA7" stroke="#4F2DA7" stroke-width="0.499962" stroke-linecap="round" stroke-linejoin="round"/>
<path d="M0 1.99985C0 0.895362 0.895363 0 1.99985 0H13.9698C15.0743 0 15.9697 0.895363 15.9697 1.99985V9.88586C15.9697 10.9903 15.0743 11.8857 13.9698 11.8857H1.99985C0.895362 11.8857 0 10.9903 0 9.88586V1.99985Z" fill="white"/>
<path d="M0 1.99985C0 0.895362 0.895363 0 1.99985 0H13.9698C15.0743 0 15.9697 0.895363 15.9697 1.99985V9.88586C15.9697 10.9903 15.0743 11.8857 13.9698 11.8857H1.99985C0.895362 11.8857 0 10.9903 0 9.88586V1.99985Z" fill="#4F2DA7"/>
<path d="M0.65625 2.55853C0.65625 1.45405 1.55161 0.558685 2.6561 0.558685H13.3109C14.4154 0.558685 15.3108 1.45405 15.3108 2.55853V8.21597C15.3108 9.32046 14.4154 10.2158 13.3109 10.2158H2.6561C1.55161 10.2158 0.65625 9.32046 0.65625 8.21597V2.55853Z" fill="white"/>
<path opacity="0.1" d="M0.554688 1.63283C0.554688 1.08059 1.00237 0.632904 1.55461 0.632904H14.2093C14.7615 0.632904 15.2092 1.08059 15.2092 1.63283V9.29012C15.2092 9.84236 14.7615 10.29 14.2093 10.29H1.55461C1.00237 10.29 0.554688 9.84236 0.554688 9.29012V1.63283Z" fill="white"/>
<path d="M10.908 14.8582H5.08984C5.08981 14.7323 5.11487 14.6076 5.16359 14.4913C5.21232 14.375 5.28374 14.2693 5.3738 14.1803C5.46385 14.0913 5.57077 14.0207 5.68843 13.9725C5.8061 13.9244 5.93221 13.8996 6.05957 13.8996H9.93749C10.0649 13.8995 10.1911 13.9243 10.3088 13.9724C10.4266 14.0205 10.5335 14.0911 10.6237 14.1801C10.7138 14.2692 10.7853 14.3749 10.8341 14.4912C10.8829 14.6076 10.908 14.7323 10.908 14.8582Z" fill="#132056" stroke="#132056" stroke-width="0.499962" stroke-linecap="round" stroke-linejoin="round"/>
<path opacity="0.96" d="M10.908 14.8582H5.08984C5.08981 14.7323 5.11487 14.6076 5.16359 14.4913C5.21232 14.375 5.28374 14.2693 5.3738 14.1803C5.46385 14.0913 5.57077 14.0207 5.68843 13.9725C5.8061 13.9244 5.93221 13.8996 6.05957 13.8996H9.93749C10.0649 13.8995 10.1911 13.9243 10.3088 13.9724C10.4266 14.0205 10.5335 14.0911 10.6237 14.1801C10.7138 14.2692 10.7853 14.3749 10.8341 14.4912C10.8829 14.6076 10.908 14.7323 10.908 14.8582Z" fill="#4F2DA7" stroke="#4F2DA7" stroke-width="0.499962" stroke-linecap="round" stroke-linejoin="round"/>
<path d="M10.8945 14.6022H5.07031C5.07028 14.4803 5.09537 14.3595 5.14414 14.2468C5.19291 14.1342 5.26442 14.0318 5.35457 13.9455C5.44471 13.8593 5.55174 13.7909 5.66953 13.7443C5.78732 13.6976 5.91357 13.6736 6.04106 13.6736H9.92305C10.0506 13.6735 10.1769 13.6975 10.2948 13.7441C10.4126 13.7907 10.5197 13.8591 10.61 13.9454C10.7002 14.0316 10.7717 14.134 10.8206 14.2467C10.8694 14.3594 10.8945 14.4802 10.8945 14.6022Z" fill="#132056"/>
<path opacity="0.9" d="M10.8945 14.6022H5.07031C5.07028 14.4803 5.09537 14.3595 5.14414 14.2468C5.19291 14.1342 5.26442 14.0318 5.35457 13.9455C5.44471 13.8593 5.55174 13.7909 5.66953 13.7443C5.78732 13.6976 5.91357 13.6736 6.04106 13.6736H9.92305C10.0506 13.6735 10.1769 13.6975 10.2948 13.7441C10.4126 13.7907 10.5197 13.8591 10.61 13.9454C10.7002 14.0316 10.7717 14.134 10.8206 14.2467C10.8694 14.3594 10.8945 14.4802 10.8945 14.6022Z" fill="white"/>
<path opacity="0.9" d="M10.8945 14.6022H5.07031C5.07028 14.4803 5.09537 14.3595 5.14414 14.2468C5.19291 14.1342 5.26442 14.0318 5.35457 13.9455C5.44471 13.8593 5.55174 13.7909 5.66953 13.7443C5.78732 13.6976 5.91357 13.6736 6.04106 13.6736H9.92305C10.0506 13.6735 10.1769 13.6975 10.2948 13.7441C10.4126 13.7907 10.5197 13.8591 10.61 13.9454C10.7002 14.0316 10.7717 14.134 10.8206 14.2467C10.8694 14.3594 10.8945 14.4802 10.8945 14.6022Z" fill="#4F2DA7"/>
<path d="M7.69141 11.0908C7.69141 11.1396 7.70113 11.1879 7.72001 11.233C7.73889 11.278 7.76657 11.319 7.80146 11.3535C7.83635 11.388 7.87778 11.4153 7.92337 11.434C7.96896 11.4526 8.01782 11.4623 8.06716 11.4623C8.11651 11.4623 8.16537 11.4526 8.21096 11.434C8.25655 11.4153 8.29797 11.388 8.33286 11.3535C8.36776 11.319 8.39543 11.278 8.41432 11.233C8.4332 11.1879 8.44292 11.1396 8.44292 11.0908C8.44292 11.0421 8.4332 10.9938 8.41432 10.9487C8.39543 10.9036 8.36776 10.8627 8.33286 10.8282C8.29797 10.7937 8.25655 10.7663 8.21096 10.7477C8.16537 10.729 8.11651 10.7194 8.06716 10.7194C8.01782 10.7194 7.96896 10.729 7.92337 10.7477C7.87778 10.7663 7.83635 10.7937 7.80146 10.8282C7.76657 10.8627 7.73889 10.9036 7.72001 10.9487C7.70113 10.9938 7.69141 11.0421 7.69141 11.0908V11.0908Z" fill="white"/>
<g opacity="0.8">
<rect x="2" y="2" width="9" height="4" fill="#9D95F8"/>
<rect x="2" y="7" width="9" height="1" fill="#119A4B"/>
<rect x="12" y="2" width="2" height="1" fill="#119A4B"/>
<rect x="12" y="4" width="2" height="1" fill="#119A4B"/>
<rect x="12" y="6" width="2" height="2" fill="#119A4B"/>
</g>
</svg>
