<?xml version="1.0" encoding="UTF-8"?>
<svg xmlns="http://www.w3.org/2000/svg" xmlns:xlink="http://www.w3.org/1999/xlink" width="352.178" height="164.417" viewBox="0 0 352.178 164.417">
  <defs>
    <linearGradient id="a" x1="0.5" y1="1" x2="0.485" y2="-0.173" gradientUnits="objectBoundingBox">
      <stop offset="0" stop-color="#006ca0"></stop>
      <stop offset="1" stop-color="#001b27"></stop>
    </linearGradient>
  </defs>
  <g transform="translate(0.5)">
    <path fill="#2b2b2b" stroke="rgba(0, 0, 0, 0)" stroke-miterlimit="10" d="M161.8,29.975l.653-3.417a5.089,5.089,0,0,0,2.143.559q2.049,0,3.293-2.734l.4-.933L160.934,6.739h4.691l4.567,11.4,4.008-11.4h4.409l-6.833,17.954a12.2,12.2,0,0,1-2.874,4.613,5.726,5.726,0,0,1-3.992,1.476A5.407,5.407,0,0,1,161.8,29.975ZM333.979,24.7h5.949a2.39,2.39,0,0,0,2.486,1.392c1.993,0,2.682-1.148,2.682-2.84v-1.2h-.132a5.476,5.476,0,0,1-4.219,1.835c-3.792,0-7.093-2.592-7.093-7.668,0-4.647,2.714-8.269,6.8-8.269a5.264,5.264,0,0,1,4.743,2.26h.1V8.433h5.889V22.507a7.362,7.362,0,0,1-2.452,5.827,9.672,9.672,0,0,1-6.214,1.777C337.833,30.111,334.566,28.334,333.979,24.7Zm5.689-8.752c0,2.173,1.11,3.746,2.844,3.746,1.8,0,2.842-1.6,2.842-3.746,0-2.021-1.044-3.652-2.842-3.652C340.779,12.3,339.668,13.744,339.668,15.951Zm-50.461,6.614h-.064v2.115h-5.887V1.913h6.18v8.211h.1a6.048,6.048,0,0,1,5-2.173c4.415,0,6.961,3.682,6.961,8.571,0,5.531-2.778,8.7-7.354,8.7A5.663,5.663,0,0,1,289.207,22.565Zm0-6.1c0,2.6,1.21,4.319,3.105,4.319s2.913-1.691,2.913-4.319-1.046-4.315-2.913-4.315C290.418,12.149,289.207,13.84,289.207,16.464Zm-54.445.122c0-5.134,3.594-8.607,9.152-8.607s9.092,3.473,9.092,8.607c0,5.162-3.533,8.6-9.092,8.6S234.763,21.748,234.763,16.586Zm6.276,0c0,2.866.915,4.651,2.812,4.651s2.88-1.785,2.88-4.651c0-2.842-.986-4.617-2.88-4.617S241.039,13.744,241.039,16.586Zm-25.244,0c0-5.134,3.594-8.607,9.152-8.607s9.092,3.473,9.092,8.607c0,5.162-3.532,8.6-9.092,8.6S215.794,21.748,215.794,16.586Zm6.276,0c0,2.866.915,4.651,2.812,4.651s2.879-1.785,2.879-4.651c0-2.842-.98-4.617-2.879-4.617S222.07,13.744,222.07,16.586Zm80.222-.064c0-5.07,3.628-8.6,8.892-8.6a8.98,8.98,0,0,1,6.18,2.111c2.027,1.817,2.941,4.653,2.874,8.005h-11.8c.258,2.019,1.308,3.051,3.171,3.051a2.378,2.378,0,0,0,2.42-1.546h5.949c-1.044,3.714-4.15,5.589-8.565,5.589C305.953,25.131,302.293,21.718,302.293,16.522Zm6.146-1.689h5.623c-.1-1.963-1.278-2.985-2.748-2.985C309.615,11.847,308.667,12.962,308.439,14.833Zm-100.2,9.847V1.913h6.346V24.679Zm112.953,0V8.433h5.889v2.782h.1a5.386,5.386,0,0,1,5.066-3.109,2.6,2.6,0,0,1,1.018.15v4.984h-.132c-3.632-.605-5.757.988-5.757,4.649v6.787Zm-45.718,0V15.5c0-1.661-.559-2.75-2.127-2.75-1.54,0-2.324,1.328-2.324,3.081v8.842h-6.174V15.5c0-1.661-.561-2.75-2.127-2.75-1.54,0-2.322,1.328-2.322,3.081v8.842h-6.182V8.435H260.1v2.444h.1a5.71,5.71,0,0,1,5.3-2.927,4.946,4.946,0,0,1,4.743,2.808h.1a6.025,6.025,0,0,1,5.455-2.808c4.092,0,5.859,2.776,5.859,6.52v10.2Zm-89.013,0V1.913h12.1a8.636,8.636,0,0,1,5.3,1.454,5.405,5.405,0,0,1,2.157,4.493,4.333,4.333,0,0,1-2.911,4.379v.086a5.522,5.522,0,0,1,4.022,5.467,6.4,6.4,0,0,1-2.682,5.5,9.961,9.961,0,0,1-5.655,1.386Zm6.7-5.042h4.8a2.277,2.277,0,0,0,2.552-2.324,2.306,2.306,0,0,0-2.584-2.324h-4.773Zm0-8.814h4.185c1.306,0,2.254-.665,2.254-1.993,0-1.3-.978-1.933-2.286-1.933h-4.154ZM20.1,21.494a8.655,8.655,0,0,1-2.516-6.336A8.585,8.585,0,0,1,20.1,8.882,8.812,8.812,0,0,1,26.59,6.3a8.638,8.638,0,0,1,6.46,2.578A8.534,8.534,0,0,1,35.6,15.158a8.6,8.6,0,0,1-2.548,6.336,8.691,8.691,0,0,1-6.46,2.548A8.8,8.8,0,0,1,20.1,21.494Zm2.983-9.94a4.955,4.955,0,0,0-1.43,3.6,4.992,4.992,0,0,0,1.43,3.634,4.879,4.879,0,0,0,7.019,0,4.992,4.992,0,0,0,1.43-3.634,4.955,4.955,0,0,0-1.43-3.6,4.879,4.879,0,0,0-7.019,0Zm123.629,9.817v2.236h-3.976V0h4.038V8.914a6.7,6.7,0,0,1,5.374-2.578,7.785,7.785,0,0,1,5.965,2.546,8.8,8.8,0,0,1,2.422,6.306,8.864,8.864,0,0,1-2.422,6.306,7.927,7.927,0,0,1-5.995,2.516A6.677,6.677,0,0,1,146.708,21.371Zm1.274-9.817a5.071,5.071,0,0,0-1.368,3.6,5.288,5.288,0,0,0,1.368,3.664,4.987,4.987,0,0,0,7.051,0,5.3,5.3,0,0,0,1.366-3.664,5.078,5.078,0,0,0-1.366-3.6,4.917,4.917,0,0,0-7.051,0Zm-31.932,9.94a8.968,8.968,0,0,1-2.392-6.336,8.891,8.891,0,0,1,2.392-6.276,7.9,7.9,0,0,1,5.963-2.546,6.56,6.56,0,0,1,5.312,2.546V0h4.038V23.607h-3.944V21.4a6.618,6.618,0,0,1-5.374,2.61A7.86,7.86,0,0,1,116.05,21.494Zm3.011-9.97a5.253,5.253,0,0,0-1.366,3.634,5.3,5.3,0,0,0,1.366,3.664,4.523,4.523,0,0,0,3.542,1.492,4.622,4.622,0,0,0,3.572-1.492,5.3,5.3,0,0,0,1.366-3.664,5.111,5.111,0,0,0-1.4-3.634,4.95,4.95,0,0,0-7.083,0ZM99.57,23.234a7.578,7.578,0,0,1-2.874-2,8.641,8.641,0,0,1-1.629-2.8,9.744,9.744,0,0,1-.543-3.277,8.594,8.594,0,0,1,2.422-6.306,8.461,8.461,0,0,1,6.336-2.516,8.24,8.24,0,0,1,5.995,2.3,8.164,8.164,0,0,1,2.362,6.182,14.479,14.479,0,0,1-.126,1.8H98.654a4.834,4.834,0,0,0,1.725,2.842,5.384,5.384,0,0,0,3.433,1.04,9.469,9.469,0,0,0,5.559-1.739l1.615,2.889a11.954,11.954,0,0,1-7.331,2.328A10.528,10.528,0,0,1,99.57,23.234Zm.715-12.486a4.948,4.948,0,0,0-1.631,2.8h9.01a4.232,4.232,0,0,0-4.381-3.822A4.524,4.524,0,0,0,100.285,10.747ZM68.447,23.234a7.563,7.563,0,0,1-2.873-2,8.683,8.683,0,0,1-1.631-2.8,9.794,9.794,0,0,1-.543-3.277,8.594,8.594,0,0,1,2.422-6.306,8.462,8.462,0,0,1,6.338-2.516,8.243,8.243,0,0,1,5.995,2.3,8.17,8.17,0,0,1,2.36,6.182,14.843,14.843,0,0,1-.124,1.8H67.53a4.831,4.831,0,0,0,1.723,2.842,5.388,5.388,0,0,0,3.433,1.04,9.46,9.46,0,0,0,5.559-1.739l1.615,2.889a11.954,11.954,0,0,1-7.331,2.328A10.518,10.518,0,0,1,68.447,23.234Zm.713-12.486a4.957,4.957,0,0,0-1.629,2.8h9.008a4.229,4.229,0,0,0-4.379-3.822A4.525,4.525,0,0,0,69.16,10.747Zm14.274,12.86V6.739h3.884V9.07A5.049,5.049,0,0,1,92.008,6.3a6,6,0,0,1,2.019.341l-.341,3.884a6.61,6.61,0,0,0-1.957-.341,3.907,3.907,0,0,0-3.107,1.32,5.729,5.729,0,0,0-1.15,3.868v8.231ZM0,23.607V.651H8.293a7.637,7.637,0,0,1,5.933,2.207,7.541,7.541,0,0,1,1.989,5.28,7.115,7.115,0,0,1-2.081,5.25Q12.082,15.5,7.952,15.5H4.225v8.107ZM4.225,11.616h3.85a3.8,3.8,0,0,0,2.812-1.008A3.436,3.436,0,0,0,11.9,8.075a3.439,3.439,0,0,0-.949-2.5A3.4,3.4,0,0,0,8.387,4.6H4.225ZM53.49,23.575,49.483,12.548,45.537,23.575H42.028L36.281,6.739H40.5l3.542,11.432L48.053,6.739H50.88l4.1,11.432L58.429,6.739h4.225L57,23.575Z" transform="translate(0 133.135)"></path>
    <g transform="translate(119.806)">
      <path fill="url(#a)" d="M0,0H111.276V114.983H0Z"></path>
      <g transform="translate(12.953 13.736)">
        <path fill="#fff" d="M102.574,168.852c-2.382-1.214-3.68-3.211-5.087-5.414a20.121,20.121,0,0,0-4.657-5.18,12.181,12.181,0,0,0-7.47-3.305c2.382-.661,7.361-1.872,10.069-2.975,10.5-4.3,18.511-16.86,18.511-29.312,0-10.909-5.845-17.741-15.373-17.741-13.423,0-26.09,14.985-26.09,30.853,0,9.036,4.114,15.208,10.827,17.081-.652.111-1.192.33-1.732.442-.759.218-1.516.44-2.275.659-.541.111-1.082.33-1.622.441a9.5,9.5,0,0,0-2.492.883c-.325.109-1.191.441-.975,1.21.109.553.539.994,1.407,1.653a11.006,11.006,0,0,1,3.031-.991c3.141,0,4.873,2.644,6.93,5.509a21.5,21.5,0,0,0,8.66,7.274,23.413,23.413,0,0,0,5.955,1.874c1.191.221,2.488.329,3.789.441.758.108,2.848.02,3.6.02.109-.549.418-1.992.526-2.433-.866-.111-3.046-.22-3.586-.329A5.907,5.907,0,0,1,102.574,168.852ZM81.355,143.6c0-7.055,6.494-26.228,8.768-30.526,2.056-3.746,4.33-5.18,8.337-5.18,4.548,0,6.5,1.984,6.6,6.5,0,7.054-6.5,26.007-8.878,30.526-2.055,3.746-4.33,5.177-8.336,5.177C83.3,150.1,81.355,148.119,81.355,143.6Z" transform="translate(-26.269 -104.343)"></path>
        <path fill="#fff" d="M27.009,49.486H0V46.4H4.963V2.9H0V0H25.59a27.649,27.649,0,0,1,7.443.885,15.221,15.221,0,0,1,5.14,2.446A9.666,9.666,0,0,1,41.153,7.02a11.164,11.164,0,0,1,.956,4.607,11.09,11.09,0,0,1-.884,4.536,10.357,10.357,0,0,1-2.375,3.369,13.592,13.592,0,0,1-3.44,2.3A17.644,17.644,0,0,1,31.4,23.182v.356a20.113,20.113,0,0,1,4.4,1.133,14.751,14.751,0,0,1,4.111,2.341,11.861,11.861,0,0,1,3.014,3.651,10.529,10.529,0,0,1,1.171,5.069A15.061,15.061,0,0,1,43.03,41.57a11.3,11.3,0,0,1-3.19,4.333,14.06,14.06,0,0,1-5.332,2.686A28.141,28.141,0,0,1,27.009,49.486ZM16.444,26.514h0V44.451h7.872a8.5,8.5,0,0,0,5.921-1.913,6.975,6.975,0,0,0,2.089-5.388V33.819a6.991,6.991,0,0,0-2.089-5.391,8.5,8.5,0,0,0-5.921-1.913H16.444Zm0-21.479h0V21.622h6.595a7.863,7.863,0,0,0,5.477-1.683,6.572,6.572,0,0,0,1.825-5.051V11.769a6.572,6.572,0,0,0-1.825-5.051,7.863,7.863,0,0,0-5.477-1.683H16.444Z" transform="translate(0 0)"></path>
      </g>
      <path fill="#fff" d="M.82-7.39H5.728A4.52,4.52,0,0,1,9.234-6.114,4.361,4.361,0,0,1,10.42-3,4.268,4.268,0,0,1,9.2.089,4.981,4.981,0,0,1,5.53,1.311H3.481V5.9H.82ZM3.481-1.1H5.62a2.078,2.078,0,0,0,1.537-.548,1.888,1.888,0,0,0,.548-1.393,1.846,1.846,0,0,0-.53-1.348,1.89,1.89,0,0,0-1.411-.539H3.481ZM30.861,5.9H27.75l-2.8-4.836H23.364V5.9H20.7V-7.39h5.088a4.457,4.457,0,0,1,3.38,1.222,4.158,4.158,0,0,1,1.169,2.984A4.236,4.236,0,0,1,29.647-.8a3.866,3.866,0,0,1-2,1.519ZM25.773-4.927H23.364v3.6h2.175a2.149,2.149,0,0,0,1.537-.5,1.727,1.727,0,0,0,.53-1.312,1.746,1.746,0,0,0-.494-1.276A1.792,1.792,0,0,0,25.773-4.927ZM41.234,5.9V-7.39h2.679V5.9Zm16.647,0H55.256V-7.39h1.762L62.231.143l5.16-7.533h1.8V5.9H66.528V-1.637L62.663,3.918h-.917L57.881-1.637Zm31.659,0H80.533V-7.39h9.007v2.481H83.211v2.858h5.861V.43H83.211V3.415h6.328Z" transform="translate(10.472 96.099)"></path>
    </g>
  </g>
</svg>
