<?xml version="1.0" encoding="UTF-8"?>
<svg id="Layer_2" data-name="Layer 2" xmlns="http://www.w3.org/2000/svg" viewBox="0 0 38.93 36.16">
  <defs>
    <style>
      .cls-1 {
        fill: #a7a9ac;
        stroke-width: .5px;
      }

      .cls-1, .cls-2 {
        stroke: #a7a9ac;
        stroke-miterlimit: 10;
      }

      .cls-2 {
        fill: none;
      }
    </style>
  </defs>
  <g id="Layer_1-2" data-name="Layer 1">
    <path class="cls-1" d="M30.85,22.92h-.61v-2.15c0-.11-.09-.19-.19-.19h-.78v-1.92c0-.11-.09-.19-.19-.19h-.61v-1.99c0-.11-.09-.19-.19-.19h-.73v-1.78c0-.11-.09-.19-.19-.19h-.57v-1.69c0-.11-.09-.19-.19-.19h-.4v-1.51c0-.11-.09-.19-.19-.19h-.37v-1.22c0-.11-.09-.19-.19-.19h-.31v-1.08c0-.11-.09-.19-.19-.19h-.22v-1c0-.11-.09-.19-.19-.19h-.13v-.89c0-.11-.09-.19-.19-.19h-.15v-.76c0-.11-.09-.19-.19-.19h-.13v-.67c0-.11-.09-.19-.19-.19h-.39v-.35c.66-.23,1.08-.86,1.07-1.65,0-.7-.39-1.5-1.24-1.71-.07-.02-.15,0-.2,.07-.05,.06-.05,.14-.02,.21,.3,.56,.18,.81,.12,.89h-3.36c-.06-.09-.14-.18-.21-.27-.18-.23-.39-.49-.57-.81,0,0,0,0,0,0,0,0,0-.01-.01-.02,0,0,0,0-.01-.01,0,0,0,0-.01-.01,0,0-.01,0-.02-.01,0,0,0,0,0,0,0,0,0,0,0,0,0,0-.01,0-.02,0,0,0-.01,0-.02,0,0,0-.01,0-.02,0,0,0-.01,0-.02,0,0,0-.01,0-.02,0,0,0-.01,0-.02,0,0,0-.01,0-.02,0,0,0-.01,0-.02,0,0,0-.01,0-.02,0,0,0-.01,0-.02,0,0,0,0,0,0,0,0,0,0,0,0,0,0,0-.01,0-.02,.01,0,0,0,0-.01,.01,0,0,0,0-.01,.01,0,0,0,.01-.01,.02,0,0,0,0,0,0-.18,.32-.39,.58-.57,.81-.07,.09-.14,.18-.21,.27h-3.36c-.06-.08-.18-.33,.12-.89,.04-.07,.03-.15-.02-.21-.05-.06-.12-.09-.2-.07-.85,.2-1.24,1-1.24,1.71,0,.79,.41,1.42,1.07,1.65v.35h-.39c-.11,0-.19,.09-.19,.19v.67h-.13c-.11,0-.19,.09-.19,.19v.76h-.15c-.11,0-.19,.09-.19,.19v.89h-.13c-.11,0-.19,.09-.19,.19v1h-.22c-.11,0-.19,.09-.19,.19v1.08h-.31c-.11,0-.19,.09-.19,.19v1.22h-.37c-.11,0-.19,.09-.19,.19v1.51h-.4c-.11,0-.19,.09-.19,.19v1.69h-.57c-.11,0-.19,.09-.19,.19v1.78h-.73c-.11,0-.19,.09-.19,.19v1.99h-.61c-.11,0-.19,.09-.19,.19v1.92h-.78c-.11,0-.19,.09-.19,.19v2.15h-.61c-.11,0-.19,.09-.19,.19v12.36c0,.11,.09,.19,.19,.19H15.46c.11,0,.19-.09,.19-.19v-9.89h5.82v9.89c0,.11,.09,.19,.19,.19h9.19c.11,0,.19-.09,.19-.19v-12.36c0-.11-.09-.19-.19-.19Zm-3.18,12.36l-5.17-4v-.38h.84l5.67,4.39h-1.34Zm-1.96,0l-3.21-2.48v-1.03l4.55,3.52h-1.34Zm-1.96,0l-1.25-.96v-1.03l2.58,2h-1.34Zm-5.18-10.09h-3.55v-.61h7.1v.61h-3.55Zm-6.52,10.09l2.58-2v1.03l-1.25,.96h-1.34Zm-1.96,0l4.55-3.52v1.03l-3.21,2.48h-1.34Zm-1.96,0l5.67-4.39h.84v.38l-5.17,4h-1.34Zm6.51-.48v.48h-.62l.62-.48Zm0-9.42v5.12H6.46v-5.92H14.62v.8Zm-8.16,6.62l1.43-1.11h1.34l-2.77,2.14v-1.03Zm0-.49v-.62h.81l-.81,.62Zm0,2.01l3.4-2.63h1.34l-4.73,3.66v-1.03Zm16.04,1.28l.62,.48h-.62v-.48Zm0-4.29v-5.92h8.16v5.92h-8.16Zm6.73,.38l1.43,1.11v1.03l-2.77-2.14h1.34Zm.63,0h.81v.62l-.81-.62Zm-2.59,0l3.4,2.63v1.03l-4.73-3.66h1.34Zm2.59-7.97h-10.5v-1.95h10.5v1.95Zm-11.29,0h-.41v-1.95h.83v1.95h-.41Zm-.16-18.51v-.06h.32v.06c0,.11,.09,.19,.19,.19h.37v.06c0,.08,.04,.14,.11,.17h-1.66c.06-.03,.11-.1,.11-.17v-.06h.37c.11,0,.19-.09,.19-.19Zm.1,.81h.11v.57h-.11v-.57Zm-.19,1.07v-.12h.5v.12c0,.11,.09,.19,.19,.19h.51v.12c0,.11,.09,.19,.19,.19h.38v.07h-3.04v-.07h.38c.11,0,.19-.09,.19-.19v-.12h.51c.11,0,.19-.09,.19-.19Zm.13,.96h.23v.81h-.23v-.81Zm-.21,1.37v-.18h.66v.18c0,.11,.09,.19,.19,.19h.64v.18c0,.11,.09,.19,.19,.19h.48v.16h-3.67v-.16h.48c.11,0,.19-.09,.19-.19v-.18h.64c.11,0,.19-.09,.19-.19Zm.15,1.1h.35v1.03h-.35v-1.03Zm-.33,1.71v-.3h1v.3c0,.11,.09,.19,.19,.19h.91v.3c0,.11,.09,.19,.19,.19h.71v.34h-5.02v-.34h.71c.11,0,.19-.09,.19-.19v-.3h.91c.11,0,.19-.09,.19-.19Zm.21,1.4h.59v1.49h-.59v-1.49Zm-.32,2.25v-.38h1.22v.38c0,.11,.09,.19,.19,.19h1.09v.38c0,.11,.09,.19,.19,.19h.85v.45h-5.89v-.45h.85c.11,0,.19-.09,.19-.19v-.38h1.09c.11,0,.19-.09,.19-.19Zm.24,1.6h.75v1.8h-.75v-1.8Zm-.3,2.6v-.42h1.34v.42c0,.11,.09,.19,.19,.19h1.18v.42c0,.11,.09,.19,.19,.19h.93v.51h-6.33v-.51h.93c.11,0,.19-.09,.19-.19v-.42h1.18c.11,0,.19-.09,.19-.19Zm10.18-.8h-6.15c-.11,0-.19,.09-.19,.19s.09,.19,.19,.19h6.96v1.73h-6.77v-.7c0-.11-.09-.19-.19-.19h-.93v-.42c0-.11-.09-.19-.19-.19h-1.18v-.42c0-.11-.09-.19-.19-.19h-.1v-1.8h8.75v1.8Zm-1.69-4.15h-4.67c-.11,0-.19,.09-.19,.19s.09,.19,.19,.19h5.43v1.59h-5.26v-.64c0-.11-.09-.19-.19-.19h-.85v-.38c0-.11-.09-.19-.19-.19h-1.09v-.38c0-.11-.09-.19-.19-.19h-.13v-1.49h7.15v1.49Zm-1.16-3.58h-3.97c-.11,0-.19,.09-.19,.19s.09,.19,.19,.19h4.53v1.31h-4.34v-.53c0-.11-.09-.19-.19-.19h-.71v-.3c0-.11-.09-.19-.19-.19h-.91v-.3c0-.11-.09-.19-.19-.19h-.14v-1.03h6.11v1.03Zm-4.64-2.69c-.11,0-.19,.09-.19,.19s.09,.19,.19,.19h4.14v.89h-3.94v-.35c0-.11-.09-.19-.19-.19h-.48v-.18c0-.11-.09-.19-.19-.19h-.64v-.18c0-.11-.09-.19-.19-.19h-.02v-.81h5.25v.81h-3.72Zm-.31-2.27c-.11,0-.19,.09-.19,.19s.09,.19,.19,.19h3.72v.69h-3.52v-.27c0-.11-.09-.19-.19-.19h-.38v-.12c0-.11-.09-.19-.19-.19h-.51v-.12c0-.11-.09-.19-.19-.19h0v-.57h4.65v.57h-3.37Zm3.55-3.82c0,.44-.18,.99-.69,1.24V1.7c.11-.12,.28-.4,.14-.89,.37,.27,.55,.73,.55,1.15Zm-5.26-1.16c.15,.22,.3,.42,.44,.59,.33,.42,.5,.65,.42,.92-.13,.45-.74,.58-.86,.6-.13-.02-.73-.15-.86-.6-.08-.27,.09-.5,.42-.92,.14-.17,.29-.37,.44-.59Zm-5.26,1.16c0-.42,.18-.89,.55-1.15-.14,.49,.03,.77,.14,.89v1.5c-.51-.25-.69-.8-.69-1.24Zm.49,2.39h3.42c.11,0,.19-.09,.19-.19s-.09-.19-.19-.19h-2.84V1.81h3c-.09,.19-.12,.39-.05,.62,.22,.74,1.17,.87,1.21,.88,0,0,.02,0,.02,0h0s0,0,0,0h0s.02,0,.02,0c.04,0,.99-.13,1.21-.88,.07-.22,.04-.42-.05-.62h3.01V3.97h-2.84c-.11,0-.19,.09-.19,.19s.09,.19,.19,.19h3.42v.48h-3.21v-.17c0-.11-.09-.19-.19-.19h-.26v-.06c0-.11-.09-.19-.19-.19h-.37v-.06c0-.11-.09-.19-.19-.19h-.7c-.11,0-.19,.09-.19,.19v.06h-.37c-.11,0-.19,.09-.19,.19v.06h-.26c-.11,0-.19,.09-.19,.19v.17h-3.21v-.48Zm-.66,1.81h3.72c.11,0,.19-.09,.19-.19s-.09-.19-.19-.19h-3.37v-.57h4.65v.57h0c-.11,0-.19,.09-.19,.19v.12h-.51c-.11,0-.19,.09-.19,.19v.12h-.38c-.11,0-.19,.09-.19,.19v.27h-3.52v-.69Zm-.73,2.27h4.14c.11,0,.19-.09,.19-.19s-.09-.19-.19-.19h-3.72v-.81h5.25v.81h-.02c-.11,0-.19,.09-.19,.19v.18h-.64c-.11,0-.19,.09-.19,.19v.18h-.48c-.11,0-.19,.09-.19,.19v.35h-3.94v-.89Zm-1.07,2.69h4.53c.11,0,.19-.09,.19-.19s-.09-.19-.19-.19h-3.97v-1.03h6.11v1.03h-.14c-.11,0-.19,.09-.19,.19v.3h-.91c-.11,0-.19,.09-.19,.19v.3h-.71c-.11,0-.19,.09-.19,.19v.53h-4.34v-1.31Zm-1.36,3.58h5.43c.11,0,.19-.09,.19-.19s-.09-.19-.19-.19h-4.67v-1.49h7.15v1.49h-.13c-.11,0-.19,.09-.19,.19v.38h-1.09c-.11,0-.19,.09-.19,.19v.38h-.85c-.11,0-.19,.09-.19,.19v.64h-5.26v-1.59Zm-1.73,4.15h6.96c.11,0,.19-.09,.19-.19s-.09-.19-.19-.19h-6.15v-1.8h8.75v1.8h-.1c-.11,0-.19,.09-.19,.19v.42h-1.18c-.11,0-.19,.09-.19,.19v.42h-.93c-.11,0-.19,.09-.19,.19v.7h-6.77v-1.73Zm-.98,2.11h10.5v1.95H7.26v-1.95Zm-.81,2.34H30.66v.9H6.46v-.9Zm0,11.74l5.36-4.15h1.34l-5.67,4.39h-1.03v-.24Zm8.81,.24h-.26v-9.7h.26v9.7Zm6.59-9.7h.26v9.7h-.26v-9.7Zm7.78,9.7l-5.67-4.39h1.34l5.36,4.15v.24h-1.03Z"/>
    <line class="cls-2" y1="35.66" x2="38.93" y2="35.66"/>
  </g>
</svg>