<svg width="153" height="34" viewBox="0 0 153 34" fill="none" xmlns="http://www.w3.org/2000/svg">
<path fill-rule="evenodd" clip-rule="evenodd" d="M31.4348 0H152.062V22.1502H31.4348V0Z" fill="#2E3192"/>
<path fill-rule="evenodd" clip-rule="evenodd" d="M31.4348 33.3215H152.062V23.457H31.4348V33.3215Z" fill="#EC008C"/>
<path fill-rule="evenodd" clip-rule="evenodd" d="M24.9408 24.5057H21.1226V23.4331H25.0935C25.7877 23.4331 25.7739 24.5057 24.9408 24.5057ZM24.9408 21.9931H21.1226V20.9205H24.9825C25.635 20.9205 25.5656 21.9931 24.9408 21.9931ZM19.1233 26.1299H25.2463C27.0513 26.1299 27.7593 25.8285 27.7593 24.0461C27.7593 23.6406 27.6483 23.3253 27.4678 23.0824C27.329 22.8983 27.1346 22.7875 26.9263 22.7111C26.8013 22.6656 26.7596 22.6916 26.6902 22.607C26.8429 22.594 26.9957 22.4748 27.079 22.3856C27.44 22.0265 27.5232 21.3782 27.5232 20.8293C27.5232 19.6415 26.5931 19.2971 25.413 19.2971H19.1233V26.1299Z" fill="#EB1565"/>
<path fill-rule="evenodd" clip-rule="evenodd" d="M-0.000244141 21.042V24.2588C-0.000244141 24.7444 0.263549 25.3538 0.596774 25.6291C0.652311 25.6794 0.666233 25.6802 0.72177 25.737C0.860614 25.858 1.01328 25.9492 1.17989 26.0199C1.42981 26.1214 1.6798 26.1892 2.0269 26.1892H6.65034C7.26125 26.1892 7.7472 25.9249 8.12208 25.5231C8.6358 25.0005 8.63579 24.3119 8.63579 23.5844C8.63579 23.5146 8.62191 23.4932 8.55249 23.4932H6.55314C6.55314 23.9593 6.60871 24.0552 6.33103 24.3139C6.20607 24.4301 6.05334 24.4738 5.81731 24.4738H2.81832C2.40179 24.4738 2.11021 24.2114 2.11021 23.7995V21.5928C2.11021 21.2756 2.41567 20.9798 2.72112 20.9798H5.97002C6.27547 20.9798 6.55314 21.2327 6.55314 21.5621C6.56702 21.7045 6.5115 21.869 6.65034 21.869H8.55249C8.67745 21.869 8.63579 21.7723 8.63579 21.5313C8.63579 20.9033 8.58032 20.3435 8.17767 19.8848C8.12213 19.8327 8.09434 19.7917 8.06657 19.7501L7.60836 19.4076C7.4001 19.2943 7.08079 19.1724 6.77534 19.1724H1.8325C0.90225 19.1724 -0.000244141 20.1044 -0.000244141 21.042Z" fill="#EB1565"/>
<path fill-rule="evenodd" clip-rule="evenodd" d="M9.33911 24.1996C9.33911 24.5176 9.42244 24.7959 9.53351 25.0173C9.61682 25.1765 9.70016 25.3384 9.82512 25.4639L9.89452 25.5429C9.89452 25.5477 9.90842 25.5551 9.90842 25.5586L9.93613 25.5912C10.2832 25.9327 10.7553 26.1914 11.4218 26.1914H16.1147C16.434 26.1914 16.7118 26.1456 16.9478 26.047C17.642 25.7568 18.2251 25.0945 18.2251 24.3224V19.2971H16.1147V23.8016C16.1147 24.155 15.8092 24.4146 15.4344 24.4146H12.1577C11.7967 24.4146 11.519 24.0907 11.519 23.7094V19.2971H9.33911V24.1996Z" fill="#EB1565"/>
<path fill-rule="evenodd" clip-rule="evenodd" d="M9.95585 11.514V9.27671C10.4835 9.26546 10.9695 8.54181 10.9695 8.02101C11.1083 8.18554 11.261 8.33174 11.4832 8.42935C11.6359 8.4953 11.6914 8.47031 11.8719 8.4953C12.2884 8.55014 12.6633 8.15027 12.6911 8.14194C12.8161 8.0907 12.6911 8.3577 12.941 8.92973C13.2326 9.59299 13.5242 10.0506 14.149 10.4777C14.2461 10.5464 14.3156 10.6034 14.4267 10.6665C14.4822 10.6953 14.5099 10.7094 14.5655 10.7354L14.7321 10.809C14.7321 11.115 14.8015 12.0954 14.5516 12.0954H10.2058C10.053 12.0954 9.95585 11.6852 9.95585 11.514ZM17.1896 10.5949C17.1758 10.0881 17.0924 9.66005 16.6203 9.41916C16.4954 9.35862 16.3427 9.28045 16.1761 9.27671V8.41921H15.94V9.24603C15.6207 9.24603 15.2597 9.35029 15.0376 9.5437C14.8154 9.74364 14.7321 10.0219 14.7321 10.4415C14.385 10.3576 13.8018 9.76225 13.6213 9.50941C13.0521 8.72522 12.9549 7.89522 13.1215 6.95219C13.1493 6.79766 13.2048 6.68978 13.2603 6.53802C13.3159 6.37904 13.3436 6.32226 13.4408 6.19494C13.5241 6.06178 13.5519 5.98653 13.6491 5.8581C13.6908 5.79576 13.7185 5.78368 13.7602 5.72981L13.9407 5.51113C13.9684 5.486 13.9962 5.4692 14.024 5.43852C14.0934 5.37617 14.0934 5.36882 14.1768 5.3112C14.3295 5.2004 14.6766 4.93895 14.8571 4.89535C15.0376 5.23941 15.468 5.47767 15.8706 5.47767C16.2177 5.47767 16.4121 5.486 16.7175 5.27662C16.8147 5.21067 16.8564 5.16415 16.9119 5.08043C16.9814 5.00032 17.0508 4.92965 17.0646 4.80316C17.4673 4.81246 18.2449 5.41449 18.5087 5.78368C18.7586 6.14175 19.0224 6.53622 19.0918 7.00148C19.1751 7.45064 19.189 7.27194 19.189 7.77539C19.189 8.53251 18.828 9.35029 18.3004 9.86748C18.2726 9.89997 18.2587 9.91109 18.2171 9.94191C18.2171 9.94857 18.2032 9.96426 18.1893 9.97065L18.1616 9.9987C17.6895 10.3951 17.6201 10.3698 17.1896 10.5949ZM9.83094 8.96972C9.26168 8.96972 8.91452 8.44601 8.91452 7.99032C8.91452 7.48424 8.85898 6.08802 8.99782 5.6758C9.09501 5.37714 9.38664 5.07947 9.74763 5.07947C9.9559 5.07947 10.067 5.08779 10.2474 5.22636C10.3446 5.30633 10.414 5.40144 10.4835 5.50932C10.7611 5.9893 10.664 7.1642 10.664 7.83662C10.664 8.00434 10.6223 8.09529 10.5807 8.24885C10.5529 8.36992 10.5807 8.33909 10.5252 8.43865C10.5252 8.44795 10.4835 8.51113 10.4835 8.51585L10.4557 8.55306C10.4002 8.64706 10.4974 8.50016 10.4419 8.58846L10.2891 8.75299C10.2891 8.75952 10.2613 8.77548 10.2613 8.78089C10.2197 8.80713 10.2197 8.80616 10.1919 8.83116C10.0809 8.91113 10.0114 8.96972 9.83094 8.96972ZM10.9972 7.07131V5.38548C10.9972 5.10182 11.1083 4.83107 11.2194 4.65529L11.4276 4.40885C11.622 4.25612 11.983 4.2414 12.219 4.3522C12.8993 4.68029 12.7188 5.61526 12.7188 6.24422C12.7188 6.88152 12.8716 7.48424 12.4134 7.93714C12.344 8.01712 12.3301 8.03475 12.2329 8.08237C11.4554 8.4367 10.9972 7.64876 10.9972 7.07131ZM13.0521 6.15203C13.0521 5.66261 13.0104 5.06724 13.1076 4.6739C13.1632 4.46258 13.2326 4.29708 13.3714 4.16684C13.6491 3.88777 13.7047 3.88512 14.0657 3.88512C14.3572 3.88512 14.6627 4.23376 14.7321 4.58934C14.0517 4.95395 13.6769 5.21539 13.2187 5.89434C13.1632 5.99681 13.1354 6.0915 13.0521 6.15203ZM15.0792 4.46646V3.3324C15.0792 2.91309 15.579 2.62818 15.8706 2.62818C16.2594 2.62818 16.5232 2.65901 16.7453 3.04596C16.8842 3.29241 16.8286 4.03939 16.8286 4.43579C16.8286 4.62836 16.7175 4.85982 16.5648 4.97992C16.1205 5.35563 15.0792 5.13708 15.0792 4.46646ZM14.7321 3.88512C14.6765 3.84125 14.6766 3.82182 14.6072 3.77531C13.6353 3.09997 12.8716 4.06285 12.8438 4.46646C12.8022 4.43953 12.2468 3.60411 11.3443 4.07854C11.1916 4.1624 11.1777 4.19114 11.0666 4.31666C11.0527 4.33526 11.0389 4.3429 11.025 4.364C10.9278 4.46744 10.8445 4.58101 10.8029 4.72513L10.664 5.20234C10.6084 5.16235 10.0391 4.364 9.16443 4.93063C8.44244 5.40047 8.55351 6.48331 8.55351 7.2861C8.55351 7.47396 8.58131 7.52325 8.58131 7.68334C8.59519 8.09432 8.56743 8.1157 8.67851 8.44601C8.80347 8.82658 9.21996 9.26838 9.59484 9.27671C9.59484 9.58008 9.62264 9.83014 9.62264 10.1652C9.62264 10.6935 9.46988 12.434 10.2058 12.434H14.6211C14.8987 12.434 15.0376 11.9939 15.0515 11.8191C15.0792 11.2506 15.0098 10.1038 15.2042 9.83972C15.2736 9.7578 15.2597 9.77446 15.343 9.72989L15.4263 9.68699C15.4957 9.64992 15.4541 9.66658 15.5235 9.63964C15.8428 9.52982 16.4676 9.57634 16.7175 9.93261C16.8703 10.1575 16.8286 10.5381 16.8286 10.901C16.8286 11.288 16.8564 11.579 16.8564 11.942V14.302H17.1896V10.9316C17.7172 10.8098 18.467 10.2526 18.8002 9.78557C19.5083 8.80519 19.7165 7.71111 19.3139 6.53704C19.0779 5.83477 18.3559 4.9577 17.6478 4.67668C17.4812 4.60879 17.3562 4.51284 17.1618 4.46646C17.1618 3.79488 17.3007 2.84227 16.6898 2.48961C16.2872 2.25983 15.8012 2.21526 15.3847 2.41797C14.6905 2.75758 14.7321 3.28782 14.7321 3.88512Z" fill="#3046A3"/>
<path fill-rule="evenodd" clip-rule="evenodd" d="M13.6017 0.880152C14.6707 0.880152 15.004 0.867246 16.1008 1.13966C16.7395 1.29877 17.0172 1.45135 17.5726 1.68475C18.4056 2.03741 19.2942 2.72955 19.9329 3.36934C20.5161 3.95471 20.8493 4.4215 21.252 5.08768C22.3349 6.88959 22.6404 9.2423 22.1128 11.2979C22.0434 11.5872 21.974 11.8003 21.8907 12.0757C21.7935 12.3586 21.6962 12.5548 21.5852 12.8171C21.488 13.0459 21.363 13.2767 21.2381 13.4795C21.0992 13.7092 20.9882 13.9027 20.8215 14.1121C20.5022 14.5503 20.294 14.8153 19.8913 15.2283C19.7802 15.3298 19.7386 15.3716 19.6275 15.461C19.1832 15.8143 19.0582 15.9958 18.4751 16.3594C18.1002 16.5966 17.531 16.8962 17.1283 17.0591C17.0034 17.1074 16.8784 17.1549 16.7395 17.2005C14.3375 18.02 11.9634 17.7726 9.75574 16.5473C8.47838 15.8313 7.40922 14.6943 6.65947 13.4302C6.28459 12.7959 5.95136 11.9361 5.78474 11.2125C5.61813 10.5063 5.57649 10.0588 5.53484 9.3678L5.60424 8.4152C5.67366 7.6467 5.90973 6.61509 6.24295 5.93615C6.59006 5.21333 6.9788 4.46816 7.52029 3.87543L7.7702 3.6001C7.89516 3.47084 7.92295 3.37698 8.1451 3.20481C8.47833 2.93143 8.51996 2.85687 8.99203 2.49616C9.39468 2.19181 9.82508 1.9405 10.2833 1.70807C11.0608 1.31737 12.4492 0.880152 13.6017 0.880152ZM5.17383 9.27561C5.17383 11.8942 6.35405 14.0506 7.65918 15.3659C7.83968 15.5493 8.00623 15.74 8.20061 15.8943C8.99202 16.497 9.06148 16.6248 10.1445 17.1708C11.1025 17.648 12.477 18.0386 13.6017 18.0386C14.8512 18.0386 15.7537 17.9771 16.92 17.5315C18.2252 17.0313 19.1832 16.4609 20.169 15.473C21.0576 14.5864 21.7657 13.4944 22.21 12.2748C22.9875 10.0887 22.9181 7.56118 21.8907 5.51656C21.488 4.71085 21.0854 4.07744 20.5022 3.41613L20.0856 3.00225C19.5303 2.44493 18.9333 2.01034 18.253 1.61686C18.1419 1.54716 18.0169 1.50162 17.892 1.42525C17.7809 1.35472 17.642 1.30807 17.5171 1.24754C16.1842 0.58428 14.4209 0.389069 12.963 0.549017C12.241 0.628158 11.4218 0.829893 10.7554 1.09869C10.6304 1.15187 10.5054 1.20949 10.3666 1.26545C9.72789 1.5305 8.70052 2.18625 8.1868 2.66526L7.75639 3.06333C7.57589 3.24772 7.42308 3.42725 7.24259 3.62899C7.07597 3.83739 6.90941 4.02621 6.77056 4.25058C5.78477 5.73704 5.17383 7.25238 5.17383 9.27561Z" fill="#2E46A3"/>
<path fill-rule="evenodd" clip-rule="evenodd" d="M15.8719 14.4237H15.136V13.9336C15.4137 13.9336 15.733 13.9019 15.9968 13.9643C15.9968 14.0098 16.1079 14.4237 15.8719 14.4237ZM15.136 13.0758H15.8441C15.9551 13.0758 15.9691 13.2109 15.9691 13.3206V13.5037H15.136V13.0758ZM14.3723 12.7688V14.7912C14.3723 14.8619 14.4001 14.8833 14.4695 14.8833H16.1218C16.816 14.8833 16.705 14.5233 16.705 14.0258C16.705 13.8053 16.5522 13.8379 16.5245 13.6881C16.816 13.6081 16.6911 12.8787 16.6078 12.7708C16.5522 12.6965 16.4133 12.6776 16.2745 12.6776H14.4695C14.4001 12.6776 14.3723 12.6982 14.3723 12.7688Z" fill="#2E46A3"/>
<path fill-rule="evenodd" clip-rule="evenodd" d="M11.3459 14.4854C11.3459 14.7645 11.5126 14.8835 11.8042 14.8835H13.3592C13.5536 14.8835 13.6924 14.7523 13.7202 14.5711L13.7341 13.2278C13.7341 12.6016 14.0256 12.6778 12.9982 12.6778V14.4239H12.1096C12.1096 14.1106 12.0819 13.9144 12.0819 13.5962V12.6778H11.3459V14.4854Z" fill="#3046A3"/>
<path fill-rule="evenodd" clip-rule="evenodd" d="M8.42798 13.2914V14.3026C8.42798 14.6432 8.51128 14.8848 8.85839 14.8848C9.19162 14.8848 10.2885 14.921 10.5245 14.8384C10.6634 14.7911 10.6911 14.7527 10.7188 14.6672C10.7605 14.5398 10.7883 14.1425 10.7883 13.9659H10.0524V14.4252H9.1916V13.1072H10.0524V13.4755H10.7883C10.7883 13.2857 10.7189 12.8664 10.6633 12.7396C10.5523 12.6337 9.08051 12.6791 8.83059 12.6791C8.4696 12.6791 8.42798 12.9387 8.42798 13.2914Z" fill="#2E46A3"/>
<path fill-rule="evenodd" clip-rule="evenodd" d="M15.3159 7.00964L16.0934 8.1129L16.7877 7.00964L16.7044 6.88774C16.5516 6.671 16.1628 5.99941 16.0239 5.90625C15.9962 6.0394 15.774 6.33611 15.6907 6.45788L15.3159 7.00964Z" fill="#2E46A3"/>
<path fill-rule="evenodd" clip-rule="evenodd" d="M16.1729 8.35645H17.4363C17.5474 8.18428 17.6307 7.99448 17.7418 7.81037C17.8112 7.70346 18.0194 7.35358 18.0472 7.25403H16.756C16.7143 7.41606 16.2284 8.13971 16.1729 8.35645Z" fill="#2E45A2"/>
<path fill-rule="evenodd" clip-rule="evenodd" d="M14.6795 8.35645H15.943C15.8874 8.1554 15.4015 7.44286 15.3598 7.25403H14.0686C14.0964 7.35649 14.4435 7.95449 14.5268 8.08666C14.5823 8.18524 14.624 8.2662 14.6795 8.35645Z" fill="#2E45A2"/>
<path d="M2.71144 27.8699H2.12832V29.7027H1.90612V27.8699H1.323V27.6653H2.71144V27.8699ZM3.50285 28.4728C3.4612 28.4421 3.40567 28.4262 3.33625 28.4262C3.22517 28.4262 3.14186 28.4754 3.07244 28.573C3.00302 28.6709 2.97524 28.7994 2.97524 28.9585V29.7027H2.75304V28.2476H2.97524V28.549H2.98914C3.01691 28.4448 3.07243 28.3648 3.14185 28.308C3.19738 28.2513 3.28065 28.2226 3.36396 28.2226C3.4195 28.2226 3.47509 28.229 3.50285 28.242V28.4728ZM4.919 29.7027H4.69689V29.4719C4.5997 29.6495 4.44696 29.737 4.25258 29.737C3.90547 29.737 3.72497 29.5305 3.72497 29.1175V28.2476H3.94716V29.0801C3.94716 29.3937 4.07205 29.55 4.30809 29.55C4.41916 29.55 4.51637 29.5071 4.58579 29.4197C4.6691 29.3332 4.69689 29.2216 4.69689 29.0858V28.2476H4.919V29.7027ZM5.30781 29.4067C5.43276 29.5007 5.57159 29.5472 5.72432 29.5472C5.93259 29.5472 6.02982 29.4773 6.02982 29.3378C6.02982 29.2773 6.01588 29.2263 5.97423 29.188C5.91869 29.1499 5.83537 29.1054 5.69652 29.0561C5.5438 28.9937 5.43276 28.9303 5.39111 28.8673C5.33557 28.8039 5.30781 28.7258 5.30781 28.6319C5.30781 28.5071 5.36334 28.4057 5.47441 28.3295C5.5716 28.2523 5.7104 28.2143 5.86313 28.2143C5.98809 28.2143 6.09923 28.2354 6.19643 28.2793V28.5081C6.08535 28.4384 5.96036 28.4031 5.82152 28.4031C5.73821 28.4031 5.66876 28.4217 5.61322 28.4607C5.55768 28.4988 5.54382 28.551 5.54382 28.6141C5.54382 28.6775 5.55774 28.7248 5.58551 28.7584C5.62716 28.7917 5.71047 28.8346 5.84932 28.8886C6.01593 28.9518 6.12699 29.0151 6.18253 29.0801C6.23807 29.1444 6.26583 29.2235 6.26583 29.3173C6.26583 29.4467 6.2103 29.55 6.09922 29.6242C6.00203 29.6998 5.86314 29.737 5.69652 29.737C5.5438 29.737 5.41888 29.7081 5.30781 29.6495V29.4067ZM7.29326 29.6885C7.23772 29.7193 7.16834 29.7341 7.07115 29.7341C6.82123 29.7341 6.69624 29.5938 6.69624 29.3118V28.4374H6.44633V28.2476H6.69624V27.8894L6.91836 27.8187V28.2476H7.29326V28.4374H6.91836V29.2728C6.91836 29.3714 6.93229 29.4421 6.97395 29.484C7.00172 29.5257 7.05725 29.5472 7.14055 29.5472C7.19609 29.5472 7.25161 29.5305 7.29326 29.4987V29.6885ZM8.30679 28.3519C8.45952 28.2597 8.61231 28.2143 8.80669 28.2143C9.13992 28.2143 9.30651 28.3928 9.30651 28.7517V29.7027H9.08431V29.4737C8.98712 29.6495 8.83438 29.737 8.64 29.737C8.48728 29.737 8.3762 29.6988 8.29289 29.6216C8.20959 29.5452 8.16798 29.444 8.16798 29.3173C8.16798 29.0478 8.33456 28.8903 8.6539 28.8449L9.08431 28.7815C9.08431 28.5286 8.98718 28.4031 8.7928 28.4031C8.6123 28.4031 8.44564 28.4634 8.30679 28.5823V28.3519ZM8.7372 29.0122C8.61225 29.0289 8.51505 29.0587 8.4734 29.1025C8.41786 29.1454 8.40399 29.2123 8.40399 29.3025C8.40399 29.3751 8.43174 29.4337 8.4734 29.4802C8.52894 29.5257 8.59839 29.549 8.6817 29.549C8.79277 29.549 8.88999 29.5071 8.9733 29.4235C9.04272 29.3407 9.08431 29.2366 9.08431 29.1127V28.9639L8.7372 29.0122ZM10.9449 29.7027H10.7366V28.8707C10.7366 28.5574 10.6116 28.4002 10.3894 28.4002C10.2645 28.4002 10.1673 28.4448 10.084 28.535C10.0146 28.6243 9.97293 28.7379 9.97293 28.8727V29.7027H9.75082V28.2476H9.97293V28.4914C10.084 28.3062 10.2507 28.2143 10.4589 28.2143C10.6117 28.2143 10.7366 28.2652 10.8199 28.3676C10.9032 28.47 10.9449 28.6189 10.9449 28.8131V29.7027ZM12.6249 29.7027H12.4027V29.4523C12.2916 29.6421 12.125 29.737 11.9029 29.737C11.7085 29.737 11.5696 29.671 11.4586 29.5406C11.3475 29.4094 11.292 29.2319 11.292 29.0094C11.292 28.7705 11.3614 28.5779 11.4725 28.4328C11.5974 28.2866 11.764 28.2143 11.9584 28.2143C12.1528 28.2143 12.3055 28.2933 12.4027 28.4514V27.5491H12.6249V29.7027ZM12.4027 28.8263C12.4027 28.7072 12.3611 28.6066 12.2778 28.5238C12.1945 28.4411 12.0973 28.4002 11.9862 28.4002C11.8335 28.4002 11.7224 28.4541 11.6391 28.5612C11.5558 28.6691 11.5141 28.8141 11.5141 28.9975C11.5141 29.1649 11.5558 29.2988 11.6391 29.4001C11.7224 29.4997 11.8195 29.55 11.9584 29.55C12.0833 29.55 12.1945 29.5036 12.2778 29.4085C12.3611 29.3148 12.4027 29.1937 12.4027 29.0477V28.8263ZM14.8742 29.7027H13.805V27.6653H14.8325V27.8699H14.0271V28.5639H14.7631V28.7687H14.0271V29.4979H14.8742V29.7027ZM16.2764 28.2476L15.7905 28.9872L16.2764 29.7027H16.0127L15.7211 29.2245C15.7072 29.1919 15.6795 29.1556 15.6656 29.1157H15.6517C15.6517 29.1166 15.6377 29.1527 15.5961 29.2245L15.2907 29.7027H15.0408L15.5406 28.9908L15.0685 28.2476H15.3185L15.6656 28.8616C15.6795 28.8467 15.6933 28.8317 15.6933 28.8151L16.0404 28.2476H16.2764ZM17.526 29.6338C17.415 29.7027 17.2761 29.737 17.1234 29.737C16.9152 29.737 16.7485 29.6691 16.6235 29.535C16.4986 29.4001 16.4431 29.2245 16.4431 29.0094C16.4431 28.7677 16.5125 28.575 16.6374 28.431C16.7763 28.2856 16.9568 28.2143 17.1928 28.2143C17.3178 28.2143 17.4288 28.2373 17.526 28.2847V28.5146C17.415 28.4384 17.3039 28.4002 17.1789 28.4002C17.0262 28.4002 16.9012 28.4541 16.804 28.5612C16.7068 28.6691 16.6652 28.8123 16.6652 28.9892C16.6652 29.164 16.7069 29.3006 16.7902 29.4001C16.8874 29.5007 17.0123 29.55 17.165 29.55C17.29 29.55 17.415 29.507 17.526 29.4217V29.6338ZM19.0395 29.0289H18.012C18.012 29.1966 18.0536 29.3249 18.137 29.4143C18.2203 29.5045 18.3452 29.549 18.4841 29.549C18.6507 29.549 18.8034 29.4943 18.9423 29.3844V29.5955C18.8173 29.6895 18.6368 29.737 18.4286 29.737C18.2342 29.737 18.0675 29.671 17.9564 29.5379C17.8315 29.406 17.7759 29.2196 17.7759 28.9796C17.7759 28.7584 17.8454 28.575 17.9703 28.431C18.0953 28.2856 18.2481 28.2143 18.4425 28.2143C18.6368 28.2143 18.7756 28.2747 18.8867 28.3974C18.9839 28.5203 19.0395 28.6915 19.0395 28.9099V29.0289ZM18.8173 28.8356C18.8034 28.6988 18.7756 28.5926 18.7062 28.5164C18.6506 28.4402 18.5535 28.4031 18.4425 28.4031C18.3314 28.4031 18.2342 28.4402 18.1647 28.5164C18.0814 28.5936 18.0258 28.6998 18.012 28.8356H18.8173ZM19.4004 29.7027V27.5491H19.6087V29.7027H19.4004ZM20.0946 29.7027V27.5491H20.3168V29.7027H20.0946ZM21.9552 29.0289H20.9277C20.9277 29.1966 20.9693 29.3249 21.0526 29.4143C21.1359 29.5045 21.2609 29.549 21.3997 29.549C21.5664 29.549 21.7191 29.4943 21.858 29.3844V29.5955C21.733 29.6895 21.5525 29.737 21.3442 29.737C21.1499 29.737 20.9833 29.671 20.8722 29.5379C20.7473 29.406 20.6917 29.2196 20.6917 28.9796C20.6917 28.7584 20.7611 28.575 20.886 28.431C21.011 28.2856 21.1638 28.2143 21.3581 28.2143C21.5525 28.2143 21.6914 28.2747 21.8024 28.3974C21.8996 28.5203 21.9552 28.6915 21.9552 28.9099V29.0289ZM21.733 28.8356C21.7192 28.6988 21.6914 28.5926 21.6219 28.5164C21.5664 28.4402 21.4692 28.4031 21.3581 28.4031C21.2471 28.4031 21.1499 28.4402 21.0804 28.5164C20.9971 28.5936 20.9416 28.6998 20.9277 28.8356H21.733ZM23.5102 29.7027H23.2881V28.8707C23.2881 28.5574 23.177 28.4002 22.941 28.4002C22.816 28.4002 22.7188 28.4448 22.6494 28.535C22.5661 28.6243 22.5383 28.7379 22.5383 28.8727V29.7027H22.3162V28.2476H22.5383V28.4914C22.6493 28.3062 22.8021 28.2143 23.0104 28.2143C23.177 28.2143 23.302 28.2652 23.3853 28.3676C23.4686 28.47 23.5102 28.6189 23.5102 28.8131V29.7027ZM24.9403 29.6338C24.8293 29.7027 24.6904 29.737 24.5376 29.737C24.3294 29.737 24.1628 29.6691 24.0378 29.535C23.9128 29.4001 23.8573 29.2245 23.8573 29.0094C23.8573 28.7677 23.9129 28.575 24.0517 28.431C24.1905 28.2856 24.371 28.2143 24.607 28.2143C24.732 28.2143 24.8431 28.2373 24.9403 28.2847V28.5146C24.8293 28.4384 24.7182 28.4002 24.5932 28.4002C24.4405 28.4002 24.3155 28.4541 24.2183 28.5612C24.1211 28.6691 24.0795 28.8123 24.0795 28.9892C24.0795 29.164 24.1211 29.3006 24.2044 29.4001C24.3016 29.5007 24.4266 29.55 24.5793 29.55C24.7043 29.55 24.8293 29.507 24.9403 29.4217V29.6338ZM26.4538 29.0289H25.4124C25.4263 29.1966 25.4679 29.3249 25.5512 29.4143C25.6345 29.5045 25.7456 29.549 25.8984 29.549C26.065 29.549 26.2176 29.4943 26.3565 29.3844V29.5955C26.2315 29.6895 26.051 29.737 25.8428 29.737C25.6484 29.737 25.4818 29.671 25.3707 29.5379C25.2458 29.406 25.1902 29.2196 25.1902 28.9796C25.1902 28.7584 25.2597 28.575 25.3846 28.431C25.5096 28.2856 25.6623 28.2143 25.8567 28.2143C26.051 28.2143 26.1898 28.2747 26.3009 28.3974C26.3981 28.5203 26.4538 28.6915 26.4538 28.9099V29.0289ZM26.2316 28.8356C26.2177 28.6988 26.19 28.5926 26.1205 28.5164C26.065 28.4402 25.9677 28.4031 25.8567 28.4031C25.7456 28.4031 25.6485 28.4402 25.579 28.5164C25.4957 28.5936 25.4402 28.6998 25.4263 28.8356H26.2316ZM6.75175 32.9333C6.82117 32.9855 6.89058 33.0281 7.00166 33.0635C7.11273 33.0978 7.20997 33.1157 7.30716 33.1157C7.59873 33.1157 7.75147 33.0079 7.75147 32.7908C7.75147 32.7313 7.73753 32.6775 7.69588 32.6302C7.66811 32.5824 7.6265 32.5408 7.57096 32.5064C7.52931 32.4721 7.41819 32.4151 7.26546 32.336C7.04331 32.2237 6.90449 32.1241 6.84895 32.0403C6.79341 31.9564 6.76565 31.8607 6.76565 31.7546C6.76565 31.5908 6.82121 31.4606 6.96005 31.361C7.09889 31.2634 7.26548 31.2141 7.45987 31.2141C7.66813 31.2141 7.80697 31.2384 7.89028 31.2867V31.5454C7.7792 31.4625 7.62645 31.4225 7.43207 31.4225C7.30711 31.4225 7.19606 31.4496 7.11276 31.5045C7.04333 31.5592 7.00166 31.6357 7.00166 31.7352C7.00166 31.7966 7.01558 31.8495 7.04335 31.8943C7.07112 31.9397 7.09891 31.9797 7.15445 32.0123C7.20999 32.0466 7.29324 32.0979 7.44597 32.1695C7.64035 32.2681 7.77918 32.3658 7.86248 32.4589C7.94579 32.5537 7.98748 32.6589 7.98748 32.7761C7.98748 32.949 7.91804 33.0841 7.79308 33.1778C7.66812 33.2729 7.48761 33.3212 7.26546 33.3212C7.19604 33.3212 7.09892 33.3092 6.98784 33.2857C6.87677 33.2636 6.80729 33.2364 6.75175 33.2031V32.9333ZM8.82051 31.4439H8.61229V33.0895H8.82051V33.2857H8.19578V33.0895H8.3901V31.4439H8.19578V31.2477H8.82051V31.4439ZM10.7921 33.2857H10.5005L9.44532 31.6401C9.41755 31.6021 9.40368 31.5611 9.37592 31.5175C9.37592 31.5601 9.38981 31.6514 9.38981 31.7919V33.2857H9.1538V31.2477H9.45922L10.4866 32.8776C10.5422 32.9612 10.57 33.0079 10.57 33.0162H10.5838C10.57 32.949 10.57 32.8468 10.57 32.7102V31.2477H10.7921V33.2857ZM12.7082 33.2003C12.5555 33.2803 12.3749 33.3212 12.1528 33.3212C11.8612 33.3212 11.6252 33.2263 11.4586 33.0376C11.2781 32.8487 11.1948 32.6049 11.1948 32.3063C11.1948 31.9919 11.292 31.7313 11.4864 31.5239C11.6807 31.3174 11.9306 31.2141 12.2361 31.2141C12.4305 31.2141 12.5832 31.242 12.7082 31.298V31.5406C12.5694 31.4606 12.4027 31.4199 12.2222 31.4199C11.9862 31.4199 11.7918 31.5006 11.6391 31.6636C11.5002 31.8271 11.4308 32.0365 11.4308 32.2934C11.4308 32.5351 11.5002 32.7352 11.6252 32.8868C11.764 33.0412 11.9446 33.1174 12.1806 33.1174C12.375 33.1174 12.5555 33.0719 12.7082 32.9816V33.2003ZM14.1938 33.2857H13.1247V31.2477H14.1521V31.4532H13.3468V32.1472H14.0966V32.352H13.3468V33.0812H14.1938V33.2857ZM16.3875 33.2857H15.249V33.0895H15.7072V31.4878L15.2351 31.6309V31.4199L15.9293 31.2019V33.0895H16.3875V33.2857ZM16.804 33.0376C16.9151 33.1017 17.0401 33.1334 17.165 33.1334C17.3455 33.1334 17.4982 33.0578 17.5954 32.9073C17.7065 32.7556 17.762 32.5398 17.762 32.2617C17.7482 32.2637 17.7482 32.2637 17.7482 32.2617C17.6649 32.4385 17.5122 32.5268 17.29 32.5268C17.1234 32.5268 16.9707 32.4672 16.8596 32.3463C16.7485 32.2271 16.693 32.0755 16.693 31.8934C16.693 31.6987 16.7624 31.5381 16.8735 31.4077C16.9985 31.2794 17.1511 31.2141 17.3455 31.2141C17.5538 31.2141 17.7066 31.2941 17.8176 31.4542C17.9287 31.6143 17.9842 31.8441 17.9842 32.1445C17.9842 32.5147 17.9009 32.8031 17.762 33.0105C17.6232 33.217 17.4149 33.3212 17.1511 33.3212C17.0262 33.3212 16.9012 33.2979 16.804 33.2524V33.0376ZM16.9151 31.8598C16.9151 32.0022 16.9568 32.1155 17.0262 32.2012C17.1095 32.2867 17.2067 32.3296 17.3455 32.3296C17.4566 32.3296 17.5538 32.2916 17.6232 32.2151C17.7065 32.1379 17.7482 32.045 17.7482 31.9361C17.7482 31.7845 17.7065 31.658 17.6232 31.5547C17.5538 31.4532 17.4566 31.402 17.3316 31.402C17.2067 31.402 17.1095 31.4468 17.0401 31.5361C16.9568 31.6244 16.9151 31.7333 16.9151 31.8598ZM18.248 32.3082C18.248 31.949 18.3036 31.6766 18.4286 31.4913C18.5396 31.3073 18.7062 31.2141 18.9284 31.2141C19.3588 31.2141 19.5671 31.5621 19.5671 32.2589C19.5671 32.5976 19.5115 32.859 19.3866 33.0431C19.2755 33.2281 19.1088 33.3212 18.8867 33.3212C18.6784 33.3212 18.5118 33.2329 18.4147 33.0542C18.3036 32.8776 18.248 32.6292 18.248 32.3082ZM18.4702 32.2979C18.4702 32.8551 18.6229 33.1334 18.9006 33.1334C19.1921 33.1334 19.3449 32.8514 19.3449 32.2848C19.3449 31.6962 19.1922 31.402 18.9145 31.402C18.6229 31.402 18.4702 31.7006 18.4702 32.2979ZM21.1498 32.7389H20.886V33.2857H20.6639V32.7389H19.7059V32.5937L20.6084 31.2477H20.886V32.5574H21.1498V32.7389ZM20.6639 32.5574V31.6597C20.6639 31.5985 20.6639 31.5268 20.6639 31.4478C20.6639 31.4682 20.6362 31.5195 20.5806 31.605L19.9419 32.5574H20.6639Z" fill="#2E3192"/>
<path d="M38.9754 14.0219H35.7126V18.4435H38.9754V16.9429L40.1833 17.2797V18.1075C40.1833 18.7456 40.1001 19.1811 39.9196 19.4118C39.7391 19.6445 39.392 19.7588 38.8921 19.7588H35.796C35.2961 19.7588 34.949 19.6445 34.7685 19.4118C34.6019 19.1811 34.5046 18.7456 34.5046 18.1075V14.4265C34.5046 13.7902 34.6019 13.3567 34.7685 13.1233C34.949 12.8898 35.2961 12.7726 35.796 12.7726H38.8921C39.392 12.7726 39.7391 12.8898 39.9196 13.1233C40.1001 13.3567 40.1833 13.7902 40.1833 14.4265V15.0871L38.9754 15.3448V14.0219ZM42.0439 19.7588V14.0359H43.0714V19.7588H42.0439ZM47.2645 15.0602V19.7588H46.2231V15.0602H44.1683V14.0359H49.3193V15.0602H47.2645ZM52.0128 19.7588V17.1875L49.6942 14.0359H51.0966L52.6099 16.1699L54.1511 14.0359H55.3729L53.0541 17.1625V19.7588H52.0128ZM61.607 12.7726V18.4435H65.0503V12.7726H66.2582V18.1075C66.2582 18.7456 66.175 19.1811 65.9945 19.4118C65.814 19.6445 65.4808 19.7588 64.967 19.7588H61.6903C61.1905 19.7588 60.8571 19.6445 60.6766 19.4118C60.4961 19.1811 60.399 18.7456 60.399 18.1075V12.7726H61.607ZM68.2854 19.7588V14.0359H69.0073L72.6173 17.8351V14.0359H73.5475V19.7588H72.8394L69.2295 15.8992V19.7588H68.2854ZM75.1998 19.7588V14.0359H76.2411V19.7588H75.1998ZM78.8236 18.6629H82.253V15.0871H78.8236V18.6629ZM77.7823 15.3848C77.7823 14.8637 77.8518 14.5103 78.0045 14.3205C78.1572 14.1308 78.4486 14.0359 78.8929 14.0359H82.1835C82.6139 14.0359 82.9055 14.1308 83.0582 14.3205C83.211 14.5103 83.2804 14.8637 83.2804 15.3848V18.4052C83.2804 18.9291 83.211 19.2853 83.0582 19.4751C82.9055 19.664 82.6139 19.7588 82.1835 19.7588H78.8929C78.4486 19.7588 78.1572 19.664 78.0045 19.4751C77.8518 19.2853 77.7823 18.9291 77.7823 18.4052V15.3848ZM84.8355 19.7588V14.0359H85.5436L89.1535 17.8351V14.0359H90.0977V19.7588H89.3757L85.7797 15.8992V19.7588H84.8355ZM99.9556 13.9101H97.2065V15.5746H99.9556C100.178 15.5746 100.317 15.5365 100.4 15.462C100.483 15.3867 100.511 15.2564 100.511 15.0721V14.4127C100.511 14.2331 100.483 14.1009 100.4 14.0247C100.317 13.9486 100.178 13.9101 99.9556 13.9101ZM99.9556 16.7244H97.2065V18.5021H99.9556C100.192 18.5021 100.344 18.4545 100.428 18.3626C100.511 18.2704 100.553 18.1075 100.553 17.8751V17.3447C100.553 17.1133 100.511 16.9504 100.428 16.861C100.344 16.7697 100.192 16.7244 99.9556 16.7244ZM96.0125 19.7588V12.7726H100.469C100.872 12.7726 101.177 12.8814 101.358 13.0982C101.538 13.3123 101.636 13.6563 101.636 14.1288V14.9792C101.636 15.3149 101.552 15.5839 101.4 15.782C101.247 15.9829 101.025 16.1066 100.733 16.1569C101.039 16.208 101.261 16.3531 101.427 16.5848C101.594 16.8192 101.677 17.1242 101.677 17.4983V18.3895C101.677 18.8517 101.538 19.197 101.288 19.4201C101.039 19.6452 100.664 19.7588 100.15 19.7588H96.0125ZM102.732 19.7588L105.26 14.0359H106.259L108.814 19.7588H107.648L107.12 18.5021H104.301L103.774 19.7588H102.732ZM104.746 17.4583H106.689L105.704 15.0731L104.746 17.4583ZM109.633 19.7588V14.0359H110.341L113.951 17.8351V14.0359H114.895V19.7588H114.173L110.577 15.8992V19.7588H109.633ZM116.547 19.7588V14.0359H117.589V16.3475L120.074 14.0359H121.574L118.63 16.6862L121.907 19.7588H120.268L117.589 17.1753V19.7588H116.547ZM126.808 19.7588V12.7726H128.016V18.4435H131.917V19.7588H126.808ZM135.597 15.0602V19.7588H134.555V15.0602H132.501V14.0359H137.652V15.0602H135.597ZM139.79 18.6872H141.123C141.859 18.6872 142.372 18.5457 142.65 18.2582C142.955 17.9727 143.094 17.4899 143.094 16.8109C143.094 16.2219 142.969 15.782 142.733 15.4936C142.483 15.2053 142.122 15.0602 141.609 15.0602H139.79V18.6872ZM138.749 19.7588V14.0359H141.609C142.428 14.0359 143.053 14.2814 143.497 14.7744C143.941 15.2638 144.163 15.9652 144.163 16.8776C144.163 17.8369 143.927 18.5587 143.455 19.0396C142.997 19.5197 142.289 19.7588 141.345 19.7588H138.749Z" fill="white"/>
</svg>
