<svg width="35" height="36" viewBox="0 0 35 36" fill="none" xmlns="http://www.w3.org/2000/svg">
<path d="M34.467 12.4028H8.67188V34.7729H34.467V12.4028Z" stroke="#101828" stroke-miterlimit="10"/>
<path d="M29.6523 12.4027H13.4902V8.65653C13.4902 4.16112 17.1294 0.521973 21.6248 0.521973C26.1202 0.521973 29.7593 4.16112 29.7593 8.65653V12.4027H29.6523V12.4027Z" stroke="#101828" stroke-miterlimit="10"/>
<path d="M26.3303 12.4028H0.535156V34.7729H26.3303V12.4028Z" stroke="#C1A866" stroke-miterlimit="10"/>
<path d="M21.5156 12.4027H5.35352V8.65653C5.35352 4.16112 8.99266 0.521973 13.4881 0.521973C17.9835 0.521973 21.6226 4.16112 21.6226 8.65653V12.4027H21.5156V12.4027Z" stroke="#C1A866" stroke-miterlimit="10"/>
<path d="M8.67188 35.308V11.8677" stroke="#101828" stroke-width="1.07034" stroke-miterlimit="10"/>
<path d="M18 24.1475C18.5523 24.1475 19 23.6997 19 23.1475C19 22.5952 18.5523 22.1475 18 22.1475C17.4477 22.1475 17 22.5952 17 23.1475C17 23.6997 17.4477 24.1475 18 24.1475Z" stroke="#101828" stroke-miterlimit="10"/>
<path d="M17.9902 29.3036V24.4336" stroke="#101828" stroke-miterlimit="10"/>
</svg>
