<?xml version="1.0" encoding="UTF-8"?>
<svg id="Layer_2" data-name="Layer 2" xmlns="http://www.w3.org/2000/svg" viewBox="0 0 40 35">
  <defs>
    <style>
      .cls-1 {
        fill: #a7a9ac;
      }
    </style>
  </defs>
  <g id="Layer_1-2" data-name="Layer 1">
    <g>
      <path class="cls-1" d="M33.75,33.75V12.5h1.25v-1.25h-2.5v-3.75h-2.5V2.5h-3.75V0H13.75V2.5h-3.75V7.5h-2.5v3.75h-2.5v1.25h1.25v21.25H0v1.25H40v-1.25h-6.25Zm-7.5-13.75h6.25v2.5h-6.25v-2.5Zm0,3.75h6.25v6.25h-6.25v-6.25ZM15,1.25h10v1.25H15V1.25Zm-3.75,2.5H28.75v3.75H11.25V3.75Zm-2.5,5H31.25v2.5H8.75v-2.5Zm23.75,3.75v6.25h-6.25v-5H13.75v5H7.5v-6.25h25ZM13.75,30H7.5v-6.25h6.25v6.25Zm-6.25-10h6.25v2.5H7.5v-2.5Zm0,11.25h6.25v2.5H7.5v-2.5Zm10,2.5v-13.75c0-1.38,1.12-2.5,2.5-2.5s2.5,1.12,2.5,2.5v13.75h-5Zm6.25,0v-13.75c0-2.07-1.68-3.75-3.75-3.75s-3.75,1.68-3.75,3.75v13.75h-1.25V15h10v18.75h-1.25Zm2.5-2.5h6.25v2.5h-6.25v-2.5Z"/>
      <path class="cls-1" d="M10.63,16.25c.35,0,.62-.28,.62-.63s-.28-.62-.62-.62-.63,.28-.63,.62,.28,.63,.63,.63"/>
      <path class="cls-1" d="M15.62,5c-.35,0-.62,.28-.62,.63s.28,.62,.62,.62,.63-.28,.63-.62-.28-.63-.63-.63"/>
      <path class="cls-1" d="M24.38,5c-.35,0-.63,.28-.63,.63s.28,.62,.63,.62,.62-.28,.62-.62-.28-.63-.62-.63"/>
      <path class="cls-1" d="M29.37,16.25c.35,0,.63-.28,.63-.63s-.28-.62-.63-.62-.62,.28-.62,.62,.28,.63,.62,.63"/>
      <rect class="cls-1" x="15" y="18.75" width="2.5" height="1.25"/>
      <rect class="cls-1" x="22.5" y="18.75" width="2.5" height="1.25"/>
      <rect class="cls-1" x="17.5" y="5" width="5" height="1.25"/>
    </g>
  </g>
</svg>