<svg width="34" height="36" viewBox="0 0 34 36" fill="none" xmlns="http://www.w3.org/2000/svg">
<path d="M19.1451 11.6192C15.229 15.5353 13.4624 20.771 13.803 25.9003C18.9216 26.2408 24.1679 24.4743 28.084 20.5582C32.0002 16.642 33.7667 11.4064 33.4261 6.27709C28.3075 5.93656 23.0612 7.70307 19.1451 11.6192V11.6192Z" stroke="#101828" stroke-miterlimit="10"/>
<path d="M13.7578 13.918V35.4566" stroke="#101828" stroke-miterlimit="10"/>
<path d="M4.01172 35.4565H22.4537" stroke="#101828" stroke-miterlimit="10"/>
<path d="M4.15021 10.2995C6.77869 12.928 10.2904 14.1199 13.7383 13.8858C13.9618 10.4485 12.7806 6.92615 10.1521 4.29767C7.5236 1.66919 4.01187 0.477323 0.563978 0.711439C0.329862 4.15933 1.52172 7.67106 4.15021 10.2995V10.2995Z" stroke="#C1A866" stroke-miterlimit="10"/>
</svg>
