<svg width="279" height="111" viewBox="0 0 279 111" fill="none" xmlns="http://www.w3.org/2000/svg">
<g filter="url(#filter0_d_2443_7332)">
<g clip-path="url(#clip0_2443_7332)">
<rect x="8" y="4" width="263.403" height="95.4164" rx="7.3346" fill="white"/>
<g clip-path="url(#clip1_2443_7332)">
<path d="M21.0347 27.6675C20.9614 27.6675 20.8991 27.6418 20.8477 27.5905C20.7964 27.5391 20.7707 27.4768 20.7707 27.4035V20.2425C20.7707 20.1618 20.7964 20.0958 20.8477 20.0445C20.8991 19.9931 20.9614 19.9675 21.0347 19.9675H24.2247C24.8187 19.9675 25.3027 20.0591 25.6767 20.2425C26.0507 20.4185 26.3257 20.6641 26.5017 20.9795C26.6851 21.2948 26.7767 21.6615 26.7767 22.0795C26.7767 22.3581 26.7254 22.6038 26.6227 22.8165C26.5274 23.0218 26.4064 23.1905 26.2597 23.3225C26.1204 23.4545 25.9811 23.5571 25.8417 23.6305C26.1277 23.7625 26.3807 23.9825 26.6007 24.2905C26.8207 24.5985 26.9307 24.9651 26.9307 25.3905C26.9307 25.8305 26.8317 26.2228 26.6337 26.5675C26.4357 26.9121 26.1424 27.1835 25.7537 27.3815C25.3651 27.5721 24.8847 27.6675 24.3127 27.6675H21.0347ZM22.2997 26.5015H24.1367C24.5327 26.5015 24.8334 26.3951 25.0387 26.1825C25.2441 25.9625 25.3467 25.6985 25.3467 25.3905C25.3467 25.0678 25.2404 24.8001 25.0277 24.5875C24.8224 24.3748 24.5254 24.2685 24.1367 24.2685H22.2997V26.5015ZM22.2997 23.1245H24.0267C24.4154 23.1245 24.7051 23.0328 24.8957 22.8495C25.0937 22.6588 25.1927 22.4131 25.1927 22.1125C25.1927 21.8045 25.0937 21.5661 24.8957 21.3975C24.7051 21.2215 24.4154 21.1335 24.0267 21.1335H22.2997V23.1245ZM30.3027 27.7775C29.8554 27.7775 29.4667 27.6785 29.1367 27.4805C28.8141 27.2751 28.5647 26.9891 28.3887 26.6225C28.2127 26.2485 28.1247 25.8085 28.1247 25.3025V22.2115C28.1247 22.1381 28.1504 22.0758 28.2017 22.0245C28.2531 21.9731 28.3154 21.9475 28.3887 21.9475H29.3567C29.4374 21.9475 29.4997 21.9731 29.5437 22.0245C29.5951 22.0758 29.6207 22.1381 29.6207 22.2115V25.2365C29.6207 26.1458 30.0204 26.6005 30.8197 26.6005C31.2011 26.6005 31.5017 26.4795 31.7217 26.2375C31.9491 25.9955 32.0627 25.6618 32.0627 25.2365V22.2115C32.0627 22.1381 32.0884 22.0758 32.1397 22.0245C32.1911 21.9731 32.2534 21.9475 32.3267 21.9475H33.2947C33.3681 21.9475 33.4304 21.9731 33.4817 22.0245C33.5331 22.0758 33.5587 22.1381 33.5587 22.2115V27.4035C33.5587 27.4768 33.5331 27.5391 33.4817 27.5905C33.4304 27.6418 33.3681 27.6675 33.2947 27.6675H32.4037C32.3231 27.6675 32.2571 27.6418 32.2057 27.5905C32.1617 27.5391 32.1397 27.4768 32.1397 27.4035V26.9525C31.9417 27.2091 31.6961 27.4108 31.4027 27.5575C31.1094 27.7041 30.7427 27.7775 30.3027 27.7775ZM36.0458 29.7575C35.9871 29.7575 35.9358 29.7355 35.8918 29.6915C35.8478 29.6475 35.8258 29.5961 35.8258 29.5375C35.8258 29.5081 35.8258 29.4788 35.8258 29.4495C35.8331 29.4275 35.8478 29.3981 35.8698 29.3615L36.7278 27.3265L34.6158 22.3435C34.5864 22.2701 34.5718 22.2188 34.5718 22.1895C34.5791 22.1235 34.6048 22.0685 34.6488 22.0245C34.6928 21.9731 34.7478 21.9475 34.8138 21.9475H35.7048C35.7928 21.9475 35.8588 21.9695 35.9028 22.0135C35.9468 22.0575 35.9798 22.1051 36.0018 22.1565L37.4648 25.7535L38.9718 22.1565C38.9938 22.0978 39.0268 22.0501 39.0708 22.0135C39.1148 21.9695 39.1808 21.9475 39.2688 21.9475H40.1488C40.2074 21.9475 40.2588 21.9695 40.3028 22.0135C40.3541 22.0575 40.3798 22.1088 40.3798 22.1675C40.3798 22.2115 40.3651 22.2701 40.3358 22.3435L37.2228 29.5485C37.1934 29.6071 37.1568 29.6548 37.1128 29.6915C37.0688 29.7355 37.0028 29.7575 36.9148 29.7575H36.0458ZM41.5592 23.8175C41.4858 23.8175 41.4235 23.7918 41.3722 23.7405C41.3208 23.6891 41.2952 23.6268 41.2952 23.5535V22.5085C41.2952 22.4278 41.3208 22.3618 41.3722 22.3105C41.4235 22.2591 41.4858 22.2335 41.5592 22.2335H42.6482C42.7288 22.2335 42.7948 22.2591 42.8462 22.3105C42.8975 22.3618 42.9232 22.4278 42.9232 22.5085V23.5535C42.9232 23.6268 42.8975 23.6891 42.8462 23.7405C42.7948 23.7918 42.7288 23.8175 42.6482 23.8175H41.5592ZM41.5592 27.6675C41.4858 27.6675 41.4235 27.6418 41.3722 27.5905C41.3208 27.5391 41.2952 27.4768 41.2952 27.4035V26.3585C41.2952 26.2778 41.3208 26.2118 41.3722 26.1605C41.4235 26.1091 41.4858 26.0835 41.5592 26.0835H42.6482C42.7288 26.0835 42.7948 26.1091 42.8462 26.1605C42.8975 26.2118 42.9232 26.2778 42.9232 26.3585V27.4035C42.9232 27.4768 42.8975 27.5391 42.8462 27.5905C42.7948 27.6418 42.7288 27.6675 42.6482 27.6675H41.5592Z" fill="#52A377"/>
<path d="M53.4553 28.6675C53.3698 28.6675 53.297 28.6418 53.2371 28.5905C53.1858 28.5306 53.1601 28.4578 53.1601 28.3723V21.1844L51.0294 22.8273C50.961 22.8786 50.8882 22.9 50.8112 22.8915C50.7342 22.8829 50.67 22.8444 50.6187 22.776L50.285 22.3524C50.2336 22.2754 50.2122 22.1984 50.2208 22.1213C50.2379 22.0443 50.2807 21.9802 50.3491 21.9288L53.1473 19.7724C53.2072 19.7297 53.2628 19.704 53.3141 19.6954C53.3655 19.6869 53.4211 19.6826 53.481 19.6826H54.1356C54.2212 19.6826 54.2896 19.7125 54.341 19.7724C54.3923 19.8238 54.418 19.8922 54.418 19.9778V28.3723C54.418 28.4578 54.3923 28.5306 54.341 28.5905C54.2896 28.6418 54.2212 28.6675 54.1356 28.6675H53.4553ZM59.5818 28.7958C58.9914 28.7958 58.4908 28.706 58.0801 28.5263C57.6779 28.338 57.3484 28.0813 57.0917 27.7562C56.835 27.431 56.6468 27.0588 56.527 26.6395C56.4157 26.2202 56.3515 25.7752 56.3344 25.3046C56.3259 25.0735 56.3173 24.8297 56.3087 24.5729C56.3087 24.3162 56.3087 24.0595 56.3087 23.8028C56.3173 23.5375 56.3259 23.2851 56.3344 23.0455C56.343 22.5749 56.4072 22.1299 56.527 21.7106C56.6553 21.2828 56.8436 20.9105 57.0917 20.5939C57.3484 20.2688 57.6822 20.0163 58.0929 19.8366C58.5036 19.6484 58.9999 19.5542 59.5818 19.5542C60.1722 19.5542 60.6686 19.6484 61.0707 19.8366C61.4815 20.0163 61.8152 20.2688 62.0719 20.5939C62.3286 20.9105 62.5169 21.2828 62.6367 21.7106C62.765 22.1299 62.8335 22.5749 62.842 23.0455C62.8506 23.2851 62.8549 23.5375 62.8549 23.8028C62.8634 24.0595 62.8634 24.3162 62.8549 24.5729C62.8549 24.8297 62.8506 25.0735 62.842 25.3046C62.8335 25.7752 62.765 26.2202 62.6367 26.6395C62.5169 27.0588 62.3286 27.431 62.0719 27.7562C61.8238 28.0813 61.4943 28.338 61.0836 28.5263C60.6814 28.706 60.1808 28.7958 59.5818 28.7958ZM59.5818 27.7048C60.2493 27.7048 60.7413 27.4866 61.0579 27.0502C61.3831 26.6052 61.5499 26.002 61.5585 25.2404C61.5756 24.9922 61.5842 24.7526 61.5842 24.5216C61.5842 24.282 61.5842 24.0467 61.5842 23.8156C61.5842 23.576 61.5756 23.3407 61.5585 23.1097C61.5499 22.3652 61.3831 21.7705 61.0579 21.3255C60.7413 20.872 60.2493 20.6453 59.5818 20.6453C58.9229 20.6453 58.4309 20.872 58.1057 21.3255C57.7891 21.7705 57.6223 22.3652 57.6051 23.1097C57.6051 23.3407 57.6009 23.576 57.5923 23.8156C57.5923 24.0467 57.5923 24.282 57.5923 24.5216C57.6009 24.7526 57.6051 24.9922 57.6051 25.2404C57.6223 26.002 57.7934 26.6052 58.1186 27.0502C58.4437 27.4866 58.9315 27.7048 59.5818 27.7048ZM67.8394 28.7958C67.249 28.7958 66.7484 28.706 66.3376 28.5263C65.9355 28.338 65.606 28.0813 65.3493 27.7562C65.0926 27.431 64.9043 27.0588 64.7845 26.6395C64.6733 26.2202 64.6091 25.7752 64.592 25.3046C64.5834 25.0735 64.5749 24.8297 64.5663 24.5729C64.5663 24.3162 64.5663 24.0595 64.5663 23.8028C64.5749 23.5375 64.5834 23.2851 64.592 23.0455C64.6006 22.5749 64.6647 22.1299 64.7845 21.7106C64.9129 21.2828 65.1011 20.9105 65.3493 20.5939C65.606 20.2688 65.9397 20.0163 66.3505 19.8366C66.7612 19.6484 67.2575 19.5542 67.8394 19.5542C68.4298 19.5542 68.9261 19.6484 69.3283 19.8366C69.7391 20.0163 70.0728 20.2688 70.3295 20.5939C70.5862 20.9105 70.7745 21.2828 70.8943 21.7106C71.0226 22.1299 71.0911 22.5749 71.0996 23.0455C71.1082 23.2851 71.1125 23.5375 71.1125 23.8028C71.121 24.0595 71.121 24.3162 71.1125 24.5729C71.1125 24.8297 71.1082 25.0735 71.0996 25.3046C71.0911 25.7752 71.0226 26.2202 70.8943 26.6395C70.7745 27.0588 70.5862 27.431 70.3295 27.7562C70.0813 28.0813 69.7519 28.338 69.3412 28.5263C68.939 28.706 68.4384 28.7958 67.8394 28.7958ZM67.8394 27.7048C68.5068 27.7048 68.9989 27.4866 69.3155 27.0502C69.6407 26.6052 69.8075 26.002 69.8161 25.2404C69.8332 24.9922 69.8417 24.7526 69.8417 24.5216C69.8417 24.282 69.8417 24.0467 69.8417 23.8156C69.8417 23.576 69.8332 23.3407 69.8161 23.1097C69.8075 22.3652 69.6407 21.7705 69.3155 21.3255C68.9989 20.872 68.5068 20.6453 67.8394 20.6453C67.1805 20.6453 66.6885 20.872 66.3633 21.3255C66.0467 21.7705 65.8798 22.3652 65.8627 23.1097C65.8627 23.3407 65.8584 23.576 65.8499 23.8156C65.8499 24.0467 65.8499 24.282 65.8499 24.5216C65.8584 24.7526 65.8627 24.9922 65.8627 25.2404C65.8798 26.002 66.051 26.6052 66.3761 27.0502C66.7013 27.4866 67.1891 27.7048 67.8394 27.7048ZM82.1899 29.5018C82.0786 29.5018 81.9888 29.4633 81.9203 29.3863C81.8519 29.3178 81.7962 29.2579 81.7535 29.2066L81.2272 28.4878C80.7651 28.6932 80.2303 28.7958 79.6228 28.7958C78.8869 28.7958 78.2579 28.6718 77.7359 28.4236C77.2225 28.1669 76.8203 27.7775 76.5294 27.2556C76.247 26.725 76.093 26.0619 76.0673 25.2661C76.0588 24.8896 76.0545 24.5302 76.0545 24.1879C76.0545 23.837 76.0588 23.4734 76.0673 23.0969C76.093 22.3096 76.2556 21.655 76.5551 21.133C76.8546 20.6025 77.2653 20.2089 77.7873 19.9521C78.3178 19.6869 78.9296 19.5542 79.6228 19.5542C80.3244 19.5542 80.9363 19.6869 81.4582 19.9521C81.9888 20.2089 82.4038 20.6025 82.7033 21.133C83.0028 21.655 83.1611 22.3096 83.1782 23.0969C83.1953 23.4734 83.2039 23.837 83.2039 24.1879C83.2039 24.5302 83.1953 24.8896 83.1782 25.2661C83.1354 26.4469 82.8274 27.324 82.2541 27.8973L83.1012 29.1039C83.1098 29.1124 83.1183 29.1253 83.1269 29.1424C83.1354 29.1681 83.1397 29.2023 83.1397 29.2451C83.1483 29.3135 83.1269 29.3734 83.0755 29.4248C83.0242 29.4761 82.96 29.5018 82.883 29.5018H82.1899ZM79.6228 27.7048C80.2731 27.7048 80.8079 27.508 81.2272 27.1144C81.6465 26.7208 81.8733 26.0833 81.9075 25.2019C81.9246 24.8168 81.9332 24.4745 81.9332 24.175C81.9332 23.867 81.9246 23.5247 81.9075 23.1482C81.8904 22.5578 81.7791 22.0786 81.5738 21.7106C81.377 21.3427 81.1117 21.0731 80.778 20.902C80.4442 20.7308 80.0592 20.6453 79.6228 20.6453C79.2035 20.6453 78.8227 20.7308 78.4804 20.902C78.1467 21.0731 77.8814 21.3427 77.6846 21.7106C77.4878 22.0786 77.3765 22.5578 77.3509 23.1482C77.3423 23.5247 77.338 23.867 77.338 24.175C77.338 24.4745 77.3423 24.8168 77.3509 25.2019C77.3851 26.0833 77.6119 26.7208 78.0312 27.1144C78.4504 27.508 78.981 27.7048 79.6228 27.7048ZM87.6364 28.6675C87.1572 28.6675 86.7678 28.5776 86.4683 28.3979C86.1688 28.2097 85.9506 27.9487 85.8137 27.615C85.6768 27.2727 85.6084 26.8705 85.6084 26.4084V23.0198H84.6072C84.5216 23.0198 84.4489 22.9942 84.389 22.9428C84.3376 22.8829 84.312 22.8102 84.312 22.7246V22.2882C84.312 22.2026 84.3376 22.1342 84.389 22.0828C84.4489 22.0229 84.5216 21.993 84.6072 21.993H85.6084V19.8495C85.6084 19.7639 85.634 19.6954 85.6854 19.6441C85.7453 19.5842 85.818 19.5542 85.9036 19.5542H86.5068C86.5924 19.5542 86.6609 19.5842 86.7122 19.6441C86.7721 19.6954 86.8021 19.7639 86.8021 19.8495V21.993H88.3937C88.4792 21.993 88.5477 22.0229 88.599 22.0828C88.6589 22.1342 88.6889 22.2026 88.6889 22.2882V22.7246C88.6889 22.8102 88.6589 22.8829 88.599 22.9428C88.5477 22.9942 88.4792 23.0198 88.3937 23.0198H86.8021V26.3186C86.8021 26.7208 86.8705 27.0374 87.0074 27.2684C87.1443 27.4994 87.3882 27.615 87.7391 27.615H88.522C88.6076 27.615 88.6761 27.6449 88.7274 27.7048C88.7873 27.7562 88.8172 27.8246 88.8172 27.9102V28.3723C88.8172 28.4578 88.7873 28.5306 88.7274 28.5905C88.6761 28.6418 88.6076 28.6675 88.522 28.6675H87.6364ZM91.3227 31.1062C91.2542 31.1062 91.1943 31.0806 91.143 31.0292C91.0917 30.9779 91.066 30.918 91.066 30.8495C91.066 30.8153 91.0703 30.7811 91.0788 30.7468C91.0874 30.7126 91.1045 30.6698 91.1302 30.6185L92.1185 28.2696L89.6669 22.4807C89.6241 22.3781 89.6027 22.3053 89.6027 22.2625C89.6027 22.1855 89.6284 22.1214 89.6797 22.07C89.7311 22.0187 89.7953 21.993 89.8723 21.993H90.5012C90.5868 21.993 90.6552 22.0144 90.7066 22.0572C90.7579 22.1 90.7922 22.1513 90.8093 22.2112L92.7603 26.8833L94.7626 22.2112C94.7883 22.1513 94.8225 22.1 94.8653 22.0572C94.9166 22.0144 94.9894 21.993 95.0835 21.993H95.6868C95.7638 21.993 95.828 22.0187 95.8793 22.07C95.9307 22.1214 95.9563 22.1812 95.9563 22.2497C95.9563 22.2925 95.9349 22.3695 95.8922 22.4807L92.2469 30.888C92.2212 30.9479 92.1827 30.9993 92.1313 31.0421C92.0886 31.0848 92.0201 31.1062 91.926 31.1062H91.3227ZM104.578 30.1821C103.662 30.1821 102.883 30.028 102.242 29.72C101.6 29.4119 101.099 28.967 100.74 28.3851C100.38 27.7947 100.158 27.0887 100.072 26.2672C100.064 26.1474 100.055 25.9891 100.047 25.7923C100.038 25.5955 100.034 25.3859 100.034 25.1634C100.034 24.9409 100.038 24.7312 100.047 24.5344C100.055 24.3376 100.064 24.1836 100.072 24.0724C100.132 23.4905 100.273 22.9557 100.496 22.4679C100.718 21.9802 101.014 21.5651 101.382 21.2229C101.758 20.872 102.207 20.6025 102.729 20.4142C103.251 20.226 103.85 20.1318 104.526 20.1318C105.305 20.1318 105.977 20.2217 106.541 20.4014C107.115 20.5811 107.59 20.8421 107.966 21.1844C108.351 21.5266 108.642 21.9417 108.839 22.4294C109.036 22.9172 109.151 23.4648 109.186 24.0724C109.203 24.2948 109.211 24.5173 109.211 24.7398C109.211 24.9623 109.207 25.1677 109.198 25.3559C109.198 25.5356 109.194 25.6682 109.186 25.7538C109.16 26.1731 109.074 26.5239 108.929 26.8063C108.783 27.0887 108.582 27.3026 108.326 27.4481C108.077 27.585 107.782 27.6535 107.44 27.6535C107.158 27.6535 106.918 27.6064 106.721 27.5123C106.524 27.4182 106.37 27.3155 106.259 27.2042C106.148 27.0844 106.067 26.9903 106.015 26.9218C105.947 27.0331 105.848 27.1572 105.72 27.2941C105.6 27.431 105.433 27.5465 105.219 27.6406C105.005 27.7348 104.727 27.7818 104.385 27.7818C103.752 27.7818 103.247 27.5551 102.871 27.1015C102.494 26.648 102.306 26.002 102.306 25.1634C102.306 24.3248 102.494 23.6787 102.871 23.2252C103.247 22.7631 103.752 22.5321 104.385 22.5321C104.736 22.5321 105.01 22.5963 105.207 22.7246C105.412 22.853 105.575 22.9942 105.694 23.1482V22.93C105.694 22.8444 105.72 22.776 105.771 22.7246C105.831 22.6647 105.904 22.6348 105.99 22.6348H106.336C106.422 22.6348 106.49 22.6647 106.541 22.7246C106.601 22.776 106.631 22.8444 106.631 22.93V25.664C106.631 26.0319 106.708 26.3057 106.862 26.4854C107.016 26.6651 107.209 26.755 107.44 26.755C107.671 26.755 107.842 26.6908 107.953 26.5625C108.073 26.4341 108.15 26.2843 108.184 26.1132C108.227 25.9335 108.249 25.7838 108.249 25.664C108.257 25.5356 108.266 25.3302 108.274 25.0479C108.283 24.7655 108.274 24.4617 108.249 24.1365C108.197 23.4605 108.039 22.8915 107.774 22.4294C107.517 21.9673 107.123 21.6165 106.593 21.3769C106.071 21.1373 105.382 21.0175 104.526 21.0175C103.825 21.0175 103.226 21.1458 102.729 21.4026C102.233 21.6507 101.839 22.0058 101.548 22.4679C101.266 22.93 101.086 23.4862 101.009 24.1365C100.992 24.282 100.979 24.4874 100.971 24.7526C100.971 25.0179 100.971 25.2875 100.971 25.5613C100.979 25.8265 100.992 26.0405 101.009 26.2031C101.112 27.1871 101.463 27.9487 102.062 28.4878C102.669 29.0183 103.508 29.2836 104.578 29.2836C105.194 29.2836 105.681 29.2322 106.041 29.1296C106.4 29.0354 106.674 28.9199 106.862 28.783C107.059 28.6546 107.217 28.5477 107.337 28.4621C107.38 28.4279 107.427 28.3937 107.478 28.3594C107.53 28.3166 107.594 28.2952 107.671 28.2952H108.184C108.261 28.2952 108.326 28.3252 108.377 28.3851C108.437 28.4364 108.467 28.5006 108.467 28.5776C108.467 28.6119 108.458 28.6418 108.441 28.6675C108.433 28.7017 108.415 28.7317 108.39 28.7573C108.167 29.0055 107.889 29.2365 107.555 29.4504C107.222 29.6729 106.811 29.8484 106.323 29.9767C105.844 30.1136 105.262 30.1821 104.578 30.1821ZM104.462 26.8833C104.916 26.8833 105.232 26.7293 105.412 26.4213C105.6 26.1046 105.694 25.6854 105.694 25.1634C105.694 24.6414 105.6 24.2221 105.412 23.9055C105.232 23.5889 104.916 23.4306 104.462 23.4306C104.026 23.4306 103.713 23.5889 103.525 23.9055C103.337 24.2221 103.243 24.6414 103.243 25.1634C103.243 25.4714 103.281 25.7581 103.358 26.0234C103.444 26.2801 103.576 26.4897 103.756 26.6523C103.936 26.8063 104.171 26.8833 104.462 26.8833ZM118.072 28.6675C117.969 28.6675 117.888 28.6461 117.828 28.6033C117.768 28.5605 117.712 28.5092 117.661 28.4493L114.721 25.0864C114.653 25.0179 114.606 24.958 114.58 24.9067C114.563 24.8468 114.555 24.7569 114.555 24.6371V24.3547C114.555 24.2692 114.58 24.2007 114.632 24.1494C114.692 24.0895 114.764 24.0595 114.85 24.0595H115.543C116.142 24.0595 116.6 23.9825 116.916 23.8285C117.233 23.6745 117.447 23.4691 117.558 23.2124C117.678 22.9557 117.738 22.6604 117.738 22.3267C117.738 22.0101 117.678 21.7234 117.558 21.4667C117.447 21.2015 117.242 20.9918 116.942 20.8378C116.643 20.6838 116.219 20.6068 115.671 20.6068H114.734C114.649 20.6068 114.576 20.5811 114.516 20.5297C114.465 20.4698 114.439 20.3971 114.439 20.3115V19.9778C114.439 19.8922 114.465 19.8238 114.516 19.7724C114.576 19.7125 114.649 19.6826 114.734 19.6826H119.843C119.928 19.6826 119.997 19.7125 120.048 19.7724C120.108 19.8238 120.138 19.8922 120.138 19.9778V20.3115C120.138 20.3971 120.108 20.4698 120.048 20.5297C119.997 20.5811 119.928 20.6068 119.843 20.6068H117.892L117.571 20.2602C118.127 20.3971 118.508 20.6581 118.713 21.0432C118.919 21.4282 119.021 21.8732 119.021 22.3781C119.021 22.8487 118.919 23.2808 118.713 23.6745C118.517 24.0681 118.2 24.3847 117.763 24.6243C117.336 24.8553 116.784 24.9794 116.108 24.9965L115.723 25.0093L115.735 24.4959L119.021 28.2696C119.09 28.338 119.124 28.4022 119.124 28.4621C119.124 28.5306 119.098 28.5819 119.047 28.6161C118.996 28.6504 118.932 28.6675 118.855 28.6675H118.072ZM114.734 22.6604C114.64 22.6604 114.567 22.6348 114.516 22.5834C114.465 22.5321 114.439 22.4594 114.439 22.3652V22.0443C114.439 21.9502 114.465 21.8775 114.516 21.8261C114.576 21.7748 114.649 21.7491 114.734 21.7491H119.843C119.928 21.7491 119.997 21.7748 120.048 21.8261C120.108 21.8775 120.138 21.9502 120.138 22.0443V22.3652C120.138 22.4594 120.108 22.5321 120.048 22.5834C119.997 22.6348 119.928 22.6604 119.843 22.6604H114.734ZM121.903 28.6675C121.817 28.6675 121.745 28.6418 121.685 28.5905C121.634 28.5306 121.608 28.4578 121.608 28.3723V27.9615C121.608 27.8845 121.629 27.7989 121.672 27.7048C121.715 27.6107 121.8 27.508 121.929 27.3968L124.65 24.6756C125.086 24.3077 125.429 23.9953 125.677 23.7386C125.933 23.4734 126.113 23.2209 126.216 22.9813C126.327 22.7417 126.383 22.4936 126.383 22.2369C126.383 21.7491 126.246 21.3641 125.972 21.0817C125.698 20.7907 125.292 20.6453 124.753 20.6453C124.41 20.6453 124.115 20.718 123.867 20.8635C123.619 21.0004 123.422 21.1929 123.276 21.4411C123.14 21.6807 123.05 21.9545 123.007 22.2625C122.99 22.3738 122.943 22.4508 122.866 22.4936C122.797 22.5364 122.733 22.5578 122.673 22.5578H122.006C121.929 22.5578 121.865 22.5364 121.813 22.4936C121.762 22.4422 121.736 22.3823 121.736 22.3139C121.745 21.9887 121.813 21.6635 121.942 21.3384C122.07 21.0047 122.258 20.7052 122.506 20.4399C122.763 20.1746 123.075 19.9607 123.443 19.7981C123.82 19.627 124.256 19.5414 124.753 19.5414C125.429 19.5414 125.98 19.6655 126.408 19.9136C126.845 20.1532 127.166 20.4741 127.371 20.8763C127.576 21.2785 127.679 21.7192 127.679 22.1984C127.679 22.5749 127.615 22.9214 127.487 23.238C127.358 23.5461 127.17 23.8499 126.922 24.1494C126.682 24.4403 126.383 24.7398 126.023 25.0479L123.559 27.5508H127.564C127.658 27.5508 127.73 27.5765 127.782 27.6278C127.842 27.6791 127.872 27.7519 127.872 27.846V28.3723C127.872 28.4578 127.842 28.5306 127.782 28.5905C127.73 28.6418 127.658 28.6675 127.564 28.6675H121.903ZM129.546 28.6675C129.461 28.6675 129.388 28.6418 129.328 28.5905C129.277 28.5306 129.251 28.4578 129.251 28.3723V27.9615C129.251 27.8845 129.273 27.7989 129.315 27.7048C129.358 27.6107 129.444 27.508 129.572 27.3968L132.293 24.6756C132.73 24.3077 133.072 23.9953 133.32 23.7386C133.577 23.4734 133.757 23.2209 133.859 22.9813C133.97 22.7417 134.026 22.4936 134.026 22.2369C134.026 21.7491 133.889 21.3641 133.615 21.0817C133.341 20.7907 132.935 20.6453 132.396 20.6453C132.054 20.6453 131.758 20.718 131.51 20.8635C131.262 21.0004 131.065 21.1929 130.92 21.4411C130.783 21.6807 130.693 21.9545 130.65 22.2625C130.633 22.3738 130.586 22.4508 130.509 22.4936C130.441 22.5364 130.376 22.5578 130.317 22.5578H129.649C129.572 22.5578 129.508 22.5364 129.457 22.4936C129.405 22.4422 129.38 22.3823 129.38 22.3139C129.388 21.9887 129.457 21.6635 129.585 21.3384C129.713 21.0047 129.902 20.7052 130.15 20.4399C130.406 20.1746 130.719 19.9607 131.087 19.7981C131.463 19.627 131.9 19.5414 132.396 19.5414C133.072 19.5414 133.624 19.6655 134.052 19.9136C134.488 20.1532 134.809 20.4741 135.014 20.8763C135.22 21.2785 135.322 21.7192 135.322 22.1984C135.322 22.5749 135.258 22.9214 135.13 23.238C135.002 23.5461 134.813 23.8499 134.565 24.1494C134.326 24.4403 134.026 24.7398 133.667 25.0479L131.202 27.5508H135.207C135.301 27.5508 135.374 27.5765 135.425 27.6278C135.485 27.6791 135.515 27.7519 135.515 27.846V28.3723C135.515 28.4578 135.485 28.5306 135.425 28.5905C135.374 28.6418 135.301 28.6675 135.207 28.6675H129.546ZM139.808 28.6675C139.723 28.6675 139.65 28.6418 139.59 28.5905C139.539 28.5306 139.513 28.4578 139.513 28.3723V21.1844L137.382 22.8273C137.314 22.8786 137.241 22.9 137.164 22.8915C137.087 22.8829 137.023 22.8444 136.972 22.776L136.638 22.3524C136.587 22.2754 136.565 22.1984 136.574 22.1213C136.591 22.0443 136.634 21.9802 136.702 21.9288L139.5 19.7724C139.56 19.7297 139.616 19.704 139.667 19.6954C139.718 19.6869 139.774 19.6826 139.834 19.6826H140.489C140.574 19.6826 140.643 19.7125 140.694 19.7724C140.745 19.8238 140.771 19.8922 140.771 19.9778V28.3723C140.771 28.4578 140.745 28.5306 140.694 28.5905C140.643 28.6418 140.574 28.6675 140.489 28.6675H139.808Z" fill="#132056"/>
</g>
<path d="M182.151 85C182.065 85 181.993 84.9701 181.933 84.9102C181.873 84.8503 181.843 84.7775 181.843 84.6919V76.3232C181.843 76.2376 181.873 76.1649 181.933 76.105C181.993 76.0451 182.065 76.0151 182.151 76.0151H183.345C183.43 76.0151 183.503 76.0451 183.563 76.105C183.623 76.1649 183.653 76.2376 183.653 76.3232V83.4726H187.721C187.816 83.4726 187.893 83.5025 187.953 83.5624C188.012 83.6223 188.042 83.6993 188.042 83.7935V84.6919C188.042 84.7775 188.012 84.8503 187.953 84.9102C187.893 84.9701 187.816 85 187.721 85H182.151ZM190.247 85C190.162 85 190.089 84.9701 190.029 84.9102C189.969 84.8503 189.939 84.7775 189.939 84.6919V77.5939H187.565C187.479 77.5939 187.407 77.5639 187.347 77.504C187.287 77.4441 187.257 77.3714 187.257 77.2858V76.336C187.257 76.2419 187.287 76.1649 187.347 76.105C187.407 76.0451 187.479 76.0151 187.565 76.0151H194.111C194.205 76.0151 194.282 76.0451 194.342 76.105C194.402 76.1649 194.432 76.2419 194.432 76.336V77.2858C194.432 77.3714 194.402 77.4441 194.342 77.504C194.282 77.5639 194.205 77.5939 194.111 77.5939H191.749V84.6919C191.749 84.7775 191.719 84.8503 191.659 84.9102C191.599 84.9701 191.522 85 191.428 85H190.247ZM196.171 85C196.085 85 196.012 84.9701 195.952 84.9102C195.893 84.8503 195.863 84.7775 195.863 84.6919V76.336C195.863 76.2419 195.893 76.1649 195.952 76.105C196.012 76.0451 196.085 76.0151 196.171 76.0151H199.611C200.278 76.0151 200.86 76.1221 201.356 76.336C201.853 76.5414 202.238 76.858 202.511 77.2858C202.785 77.7051 202.922 78.2314 202.922 78.8646C202.922 79.5064 202.785 80.0369 202.511 80.4562C202.238 80.867 201.853 81.175 201.356 81.3804C200.86 81.5857 200.278 81.6884 199.611 81.6884H197.698V84.6919C197.698 84.7775 197.668 84.8503 197.608 84.9102C197.557 84.9701 197.484 85 197.39 85H196.171ZM197.672 80.2637H199.546C200.043 80.2637 200.424 80.1482 200.689 79.9171C200.954 79.6775 201.087 79.3267 201.087 78.8646C201.087 78.4368 200.963 78.0945 200.714 77.8378C200.466 77.5725 200.077 77.4399 199.546 77.4399H197.672V80.2637ZM204.567 80.5076C204.482 80.5076 204.409 80.4776 204.349 80.4177C204.289 80.3578 204.259 80.2851 204.259 80.1995V78.9801C204.259 78.886 204.289 78.809 204.349 78.7491C204.409 78.6892 204.482 78.6592 204.567 78.6592H205.838C205.932 78.6592 206.009 78.6892 206.069 78.7491C206.129 78.809 206.159 78.886 206.159 78.9801V80.1995C206.159 80.2851 206.129 80.3578 206.069 80.4177C206.009 80.4776 205.932 80.5076 205.838 80.5076H204.567ZM204.567 85C204.482 85 204.409 84.9701 204.349 84.9102C204.289 84.8503 204.259 84.7775 204.259 84.6919V83.4726C204.259 83.3784 204.289 83.3014 204.349 83.2415C204.409 83.1816 204.482 83.1517 204.567 83.1517H205.838C205.932 83.1517 206.009 83.1816 206.069 83.2415C206.129 83.3014 206.159 83.3784 206.159 83.4726V84.6919C206.159 84.7775 206.129 84.8503 206.069 84.9102C206.009 84.9701 205.932 85 205.838 85H204.567ZM211.048 85C210.963 85 210.89 84.9701 210.83 84.9102C210.77 84.8503 210.74 84.7775 210.74 84.6919V84.0373C210.74 83.9603 210.758 83.8705 210.792 83.7678C210.835 83.6565 210.924 83.5453 211.061 83.4341L213.089 81.4189C213.654 80.9739 214.108 80.5974 214.45 80.2894C214.801 79.9727 215.053 79.6861 215.207 79.4294C215.37 79.1641 215.451 78.9031 215.451 78.6464C215.451 78.2613 215.344 77.949 215.13 77.7094C214.925 77.4698 214.595 77.35 214.142 77.35C213.842 77.35 213.59 77.4142 213.385 77.5425C213.179 77.6623 213.017 77.8249 212.897 78.0303C212.786 78.2357 212.709 78.4624 212.666 78.7106C212.649 78.8218 212.602 78.8988 212.525 78.9416C212.448 78.9844 212.371 79.0058 212.294 79.0058H211.151C211.074 79.0058 211.01 78.9801 210.959 78.9288C210.907 78.8774 210.882 78.8175 210.882 78.7491C210.89 78.3811 210.967 78.026 211.113 77.6837C211.258 77.3329 211.468 77.0248 211.742 76.7596C212.024 76.4858 212.366 76.2675 212.768 76.105C213.171 75.9424 213.624 75.8611 214.129 75.8611C214.839 75.8611 215.425 75.9809 215.887 76.2205C216.358 76.4601 216.709 76.7852 216.94 77.196C217.18 77.6067 217.299 78.0688 217.299 78.5822C217.299 78.9844 217.222 79.3566 217.068 79.6989C216.914 80.0326 216.692 80.3578 216.401 80.6744C216.11 80.9825 215.759 81.2991 215.348 81.6243L213.526 83.4726H217.184C217.278 83.4726 217.351 83.5025 217.402 83.5624C217.462 83.6138 217.492 83.6865 217.492 83.7806V84.6919C217.492 84.7775 217.462 84.8503 217.402 84.9102C217.351 84.9701 217.278 85 217.184 85H211.048ZM219.124 85C219.038 85 218.966 84.9701 218.906 84.9102C218.846 84.8503 218.816 84.7775 218.816 84.6919V84.0373C218.816 83.9603 218.833 83.8705 218.867 83.7678C218.91 83.6565 219 83.5453 219.137 83.4341L221.165 81.4189C221.729 80.9739 222.183 80.5974 222.525 80.2894C222.876 79.9727 223.129 79.6861 223.283 79.4294C223.445 79.1641 223.526 78.9031 223.526 78.6464C223.526 78.2613 223.419 77.949 223.206 77.7094C223 77.4698 222.671 77.35 222.217 77.35C221.918 77.35 221.665 77.4142 221.46 77.5425C221.255 77.6623 221.092 77.8249 220.972 78.0303C220.861 78.2357 220.784 78.4624 220.741 78.7106C220.724 78.8218 220.677 78.8988 220.6 78.9416C220.523 78.9844 220.446 79.0058 220.369 79.0058H219.227C219.15 79.0058 219.085 78.9801 219.034 78.9288C218.983 78.8774 218.957 78.8175 218.957 78.7491C218.966 78.3811 219.043 78.026 219.188 77.6837C219.334 77.3329 219.543 77.0248 219.817 76.7596C220.099 76.4858 220.442 76.2675 220.844 76.105C221.246 75.9424 221.7 75.8611 222.204 75.8611C222.915 75.8611 223.501 75.9809 223.963 76.2205C224.433 76.4601 224.784 76.7852 225.015 77.196C225.255 77.6067 225.375 78.0688 225.375 78.5822C225.375 78.9844 225.298 79.3566 225.144 79.6989C224.99 80.0326 224.767 80.3578 224.476 80.6744C224.185 80.9825 223.835 81.2991 223.424 81.6243L221.601 83.4726H225.259C225.353 83.4726 225.426 83.5025 225.477 83.5624C225.537 83.6138 225.567 83.6865 225.567 83.7806V84.6919C225.567 84.7775 225.537 84.8503 225.477 84.9102C225.426 84.9701 225.353 85 225.259 85H219.124ZM227.199 85C227.114 85 227.041 84.9701 226.981 84.9102C226.921 84.8503 226.891 84.7775 226.891 84.6919V84.0373C226.891 83.9603 226.908 83.8705 226.943 83.7678C226.985 83.6565 227.075 83.5453 227.212 83.4341L229.24 81.4189C229.805 80.9739 230.258 80.5974 230.601 80.2894C230.951 79.9727 231.204 79.6861 231.358 79.4294C231.521 79.1641 231.602 78.9031 231.602 78.6464C231.602 78.2613 231.495 77.949 231.281 77.7094C231.076 77.4698 230.746 77.35 230.293 77.35C229.993 77.35 229.741 77.4142 229.535 77.5425C229.33 77.6623 229.167 77.8249 229.048 78.0303C228.936 78.2357 228.859 78.4624 228.817 78.7106C228.799 78.8218 228.752 78.8988 228.675 78.9416C228.598 78.9844 228.521 79.0058 228.444 79.0058H227.302C227.225 79.0058 227.161 78.9801 227.109 78.9288C227.058 78.8774 227.032 78.8175 227.032 78.7491C227.041 78.3811 227.118 78.026 227.263 77.6837C227.409 77.3329 227.619 77.0248 227.892 76.7596C228.175 76.4858 228.517 76.2675 228.919 76.105C229.321 75.9424 229.775 75.8611 230.28 75.8611C230.99 75.8611 231.576 75.9809 232.038 76.2205C232.509 76.4601 232.86 76.7852 233.091 77.196C233.33 77.6067 233.45 78.0688 233.45 78.5822C233.45 78.9844 233.373 79.3566 233.219 79.6989C233.065 80.0326 232.843 80.3578 232.552 80.6744C232.261 80.9825 231.91 81.2991 231.499 81.6243L229.676 83.4726H233.335C233.429 83.4726 233.501 83.5025 233.553 83.5624C233.613 83.6138 233.643 83.6865 233.643 83.7806V84.6919C233.643 84.7775 233.613 84.8503 233.553 84.9102C233.501 84.9701 233.429 85 233.335 85H227.199ZM235.467 85C235.382 85 235.309 84.9701 235.249 84.9102C235.189 84.8503 235.159 84.7775 235.159 84.6919V83.4212C235.159 83.3271 235.189 83.2501 235.249 83.1902C235.309 83.1303 235.382 83.1003 235.467 83.1003H236.751C236.836 83.1003 236.909 83.1303 236.969 83.1902C237.029 83.2501 237.059 83.3271 237.059 83.4212V84.6919C237.059 84.7775 237.029 84.8503 236.969 84.9102C236.909 84.9701 236.836 85 236.751 85H235.467ZM241.944 85.1284C241.345 85.1284 240.827 85.0556 240.391 84.9102C239.954 84.7647 239.59 84.5764 239.3 84.3454C239.017 84.1058 238.803 83.8491 238.658 83.5753C238.512 83.2929 238.435 83.0148 238.427 82.7409C238.427 82.6639 238.452 82.604 238.504 82.5612C238.564 82.5099 238.632 82.4842 238.709 82.4842H239.864C239.95 82.4842 240.023 82.5013 240.083 82.5356C240.142 82.5698 240.194 82.6383 240.237 82.7409C240.314 82.972 240.438 83.156 240.609 83.2929C240.788 83.4298 240.994 83.5282 241.225 83.5881C241.456 83.6394 241.7 83.6651 241.956 83.6651C242.47 83.6651 242.876 83.5453 243.176 83.3057C243.484 83.0576 243.638 82.7067 243.638 82.2532C243.638 81.7997 243.497 81.4745 243.214 81.2777C242.932 81.0723 242.538 80.9696 242.034 80.9696H240.711C240.617 80.9696 240.54 80.944 240.48 80.8926C240.421 80.8327 240.391 80.7557 240.391 80.6616V80.1225C240.391 80.0369 240.408 79.9642 240.442 79.9043C240.485 79.8358 240.527 79.7802 240.57 79.7374L242.868 77.4912H239.197C239.103 77.4912 239.026 77.4613 238.966 77.4014C238.914 77.3415 238.889 77.2687 238.889 77.1832V76.336C238.889 76.2419 238.914 76.1649 238.966 76.105C239.026 76.0451 239.103 76.0151 239.197 76.0151H244.703C244.797 76.0151 244.874 76.0451 244.934 76.105C244.994 76.1649 245.024 76.2419 245.024 76.336V77.1061C245.024 77.1832 245.007 77.2516 244.973 77.3115C244.939 77.3714 244.9 77.4227 244.857 77.4655L242.637 79.7503L242.791 79.7631C243.313 79.8059 243.775 79.9257 244.177 80.1225C244.588 80.3107 244.904 80.5888 245.127 80.9568C245.358 81.3248 245.473 81.7868 245.473 82.343C245.473 82.9249 245.319 83.4255 245.011 83.8448C244.712 84.2555 244.297 84.5721 243.766 84.7946C243.236 85.0171 242.628 85.1284 241.944 85.1284ZM247.051 85C246.965 85 246.892 84.9701 246.832 84.9102C246.773 84.8503 246.743 84.7775 246.743 84.6919V84.0373C246.743 83.9603 246.76 83.8705 246.794 83.7678C246.837 83.6565 246.927 83.5453 247.064 83.4341L249.092 81.4189C249.656 80.9739 250.11 80.5974 250.452 80.2894C250.803 79.9727 251.055 79.6861 251.209 79.4294C251.372 79.1641 251.453 78.9031 251.453 78.6464C251.453 78.2613 251.346 77.949 251.132 77.7094C250.927 77.4698 250.598 77.35 250.144 77.35C249.845 77.35 249.592 77.4142 249.387 77.5425C249.181 77.6623 249.019 77.8249 248.899 78.0303C248.788 78.2357 248.711 78.4624 248.668 78.7106C248.651 78.8218 248.604 78.8988 248.527 78.9416C248.45 78.9844 248.373 79.0058 248.296 79.0058H247.153C247.076 79.0058 247.012 78.9801 246.961 78.9288C246.91 78.8774 246.884 78.8175 246.884 78.7491C246.892 78.3811 246.969 78.026 247.115 77.6837C247.26 77.3329 247.47 77.0248 247.744 76.7596C248.026 76.4858 248.368 76.2675 248.771 76.105C249.173 75.9424 249.626 75.8611 250.131 75.8611C250.841 75.8611 251.428 75.9809 251.89 76.2205C252.36 76.4601 252.711 76.7852 252.942 77.196C253.182 77.6067 253.302 78.0688 253.302 78.5822C253.302 78.9844 253.225 79.3566 253.071 79.6989C252.917 80.0326 252.694 80.3578 252.403 80.6744C252.112 80.9825 251.761 81.2991 251.351 81.6243L249.528 83.4726H253.186C253.28 83.4726 253.353 83.5025 253.404 83.5624C253.464 83.6138 253.494 83.6865 253.494 83.7806V84.6919C253.494 84.7775 253.464 84.8503 253.404 84.9102C253.353 84.9701 253.28 85 253.186 85H247.051Z" fill="#28A573"/>
<path d="M62.4645 65H24.5355C22.0306 65 20 66.7786 20 68.9726V87.0274C20 89.2214 22.0306 91 24.5355 91H62.4645C64.9694 91 67 89.2214 67 87.0274V68.9726C67 66.7786 64.9694 65 62.4645 65Z" fill="#C1F0DE"/>
<path d="M35.21 82C35.1293 82 35.067 81.978 35.023 81.934C34.979 81.8827 34.957 81.8203 34.957 81.747V74.564C34.957 74.4833 34.979 74.421 35.023 74.377C35.067 74.3257 35.1293 74.3 35.21 74.3H39.753C39.8337 74.3 39.896 74.3257 39.94 74.377C39.984 74.421 40.006 74.4833 40.006 74.564V74.982C40.006 75.0627 39.984 75.125 39.94 75.169C39.896 75.213 39.8337 75.235 39.753 75.235H36.013V77.644H39.511C39.5917 77.644 39.654 77.6697 39.698 77.721C39.742 77.765 39.764 77.8273 39.764 77.908V78.315C39.764 78.3883 39.742 78.4507 39.698 78.502C39.654 78.546 39.5917 78.568 39.511 78.568H36.013V81.065H39.841C39.9217 81.065 39.984 81.087 40.028 81.131C40.072 81.175 40.094 81.2373 40.094 81.318V81.747C40.094 81.8203 40.072 81.8827 40.028 81.934C39.984 81.978 39.9217 82 39.841 82H35.21ZM43.5639 82C43.4906 82 43.4282 81.978 43.3769 81.934C43.3329 81.8827 43.3109 81.8203 43.3109 81.747V75.279H41.1989C41.1256 75.279 41.0632 75.257 41.0119 75.213C40.9679 75.1617 40.9459 75.0993 40.9459 75.026V74.564C40.9459 74.4833 40.9679 74.421 41.0119 74.377C41.0632 74.3257 41.1256 74.3 41.1989 74.3H46.5009C46.5816 74.3 46.6439 74.3257 46.6879 74.377C46.7392 74.421 46.7649 74.4833 46.7649 74.564V75.026C46.7649 75.0993 46.7392 75.1617 46.6879 75.213C46.6439 75.257 46.5816 75.279 46.5009 75.279H44.3999V81.747C44.3999 81.8203 44.3742 81.8827 44.3229 81.934C44.2789 81.978 44.2166 82 44.1359 82H43.5639ZM48.251 82C48.1703 82 48.108 81.978 48.064 81.934C48.02 81.8827 47.998 81.8203 47.998 81.747V74.564C47.998 74.4833 48.02 74.421 48.064 74.377C48.108 74.3257 48.1703 74.3 48.251 74.3H52.739C52.8197 74.3 52.882 74.3257 52.926 74.377C52.97 74.421 52.992 74.4833 52.992 74.564V75.004C52.992 75.0847 52.97 75.147 52.926 75.191C52.882 75.235 52.8197 75.257 52.739 75.257H49.065V77.82H52.519C52.5997 77.82 52.662 77.8457 52.706 77.897C52.75 77.941 52.772 78.0033 52.772 78.084V78.524C52.772 78.5973 52.75 78.6597 52.706 78.711C52.662 78.755 52.5997 78.777 52.519 78.777H49.065V81.747C49.065 81.8203 49.0393 81.8827 48.988 81.934C48.944 81.978 48.8817 82 48.801 82H48.251Z" fill="#2E5642"/>
<path d="M202.729 28.11C202.054 28.11 201.493 27.9853 201.046 27.736C200.606 27.4867 200.272 27.1383 200.045 26.691C199.818 26.2437 199.693 25.723 199.671 25.129C199.664 24.8283 199.66 24.5057 199.66 24.161C199.66 23.8163 199.664 23.4863 199.671 23.171C199.693 22.577 199.818 22.0563 200.045 21.609C200.272 21.1617 200.606 20.8133 201.046 20.564C201.493 20.3147 202.054 20.19 202.729 20.19C203.235 20.19 203.679 20.2597 204.06 20.399C204.441 20.5383 204.757 20.7253 205.006 20.96C205.263 21.1947 205.457 21.4587 205.589 21.752C205.721 22.038 205.794 22.335 205.809 22.643C205.816 22.709 205.794 22.764 205.743 22.808C205.699 22.852 205.644 22.874 205.578 22.874H204.973C204.907 22.874 204.848 22.8557 204.797 22.819C204.753 22.7823 204.72 22.7163 204.698 22.621C204.573 22.049 204.339 21.6567 203.994 21.444C203.657 21.2313 203.231 21.125 202.718 21.125C202.131 21.125 201.666 21.2937 201.321 21.631C200.976 21.961 200.789 22.4927 200.76 23.226C200.738 23.8273 200.738 24.4433 200.76 25.074C200.789 25.8073 200.976 26.3427 201.321 26.68C201.666 27.01 202.131 27.175 202.718 27.175C203.231 27.175 203.657 27.0687 203.994 26.856C204.339 26.6433 204.573 26.251 204.698 25.679C204.72 25.5837 204.753 25.5177 204.797 25.481C204.848 25.4443 204.907 25.426 204.973 25.426H205.578C205.644 25.426 205.699 25.448 205.743 25.492C205.794 25.536 205.816 25.591 205.809 25.657C205.794 25.965 205.721 26.2657 205.589 26.559C205.457 26.845 205.263 27.1053 205.006 27.34C204.757 27.5747 204.441 27.7617 204.06 27.901C203.679 28.0403 203.235 28.11 202.729 28.11ZM209.483 28.11C208.926 28.11 208.46 28.0037 208.086 27.791C207.712 27.5783 207.426 27.285 207.228 26.911C207.03 26.5297 206.92 26.097 206.898 25.613C206.891 25.4883 206.887 25.3307 206.887 25.14C206.887 24.942 206.891 24.7843 206.898 24.667C206.92 24.1757 207.03 23.743 207.228 23.369C207.434 22.995 207.723 22.7017 208.097 22.489C208.471 22.2763 208.933 22.17 209.483 22.17C210.033 22.17 210.495 22.2763 210.869 22.489C211.243 22.7017 211.529 22.995 211.727 23.369C211.933 23.743 212.046 24.1757 212.068 24.667C212.076 24.7843 212.079 24.942 212.079 25.14C212.079 25.3307 212.076 25.4883 212.068 25.613C212.046 26.097 211.936 26.5297 211.738 26.911C211.54 27.285 211.254 27.5783 210.88 27.791C210.506 28.0037 210.041 28.11 209.483 28.11ZM209.483 27.263C209.938 27.263 210.301 27.12 210.572 26.834C210.844 26.5407 210.99 26.1153 211.012 25.558C211.02 25.448 211.023 25.3087 211.023 25.14C211.023 24.9713 211.02 24.832 211.012 24.722C210.99 24.1647 210.844 23.743 210.572 23.457C210.301 23.1637 209.938 23.017 209.483 23.017C209.029 23.017 208.662 23.1637 208.383 23.457C208.112 23.743 207.969 24.1647 207.954 24.722C207.947 24.832 207.943 24.9713 207.943 25.14C207.943 25.3087 207.947 25.448 207.954 25.558C207.969 26.1153 208.112 26.5407 208.383 26.834C208.662 27.12 209.029 27.263 209.483 27.263ZM213.71 28C213.636 28 213.574 27.978 213.523 27.934C213.479 27.8827 213.457 27.8203 213.457 27.747V22.533C213.457 22.4597 213.479 22.401 213.523 22.357C213.574 22.3057 213.636 22.28 213.71 22.28H214.205C214.278 22.28 214.337 22.3057 214.381 22.357C214.432 22.401 214.458 22.4597 214.458 22.533V22.918C214.626 22.6907 214.839 22.511 215.096 22.379C215.352 22.2397 215.66 22.17 216.02 22.17C216.848 22.1627 217.435 22.5 217.78 23.182C217.948 22.874 218.194 22.6283 218.517 22.445C218.839 22.2617 219.206 22.17 219.617 22.17C219.998 22.17 220.343 22.258 220.651 22.434C220.966 22.61 221.212 22.8777 221.388 23.237C221.571 23.589 221.663 24.0327 221.663 24.568V27.747C221.663 27.8203 221.637 27.8827 221.586 27.934C221.542 27.978 221.483 28 221.41 28H220.893C220.819 28 220.757 27.978 220.706 27.934C220.662 27.8827 220.64 27.8203 220.64 27.747V24.667C220.64 24.2563 220.581 23.9337 220.464 23.699C220.346 23.4643 220.189 23.2993 219.991 23.204C219.793 23.1087 219.576 23.061 219.342 23.061C219.151 23.061 218.957 23.1087 218.759 23.204C218.561 23.2993 218.396 23.4643 218.264 23.699C218.139 23.9337 218.077 24.2563 218.077 24.667V27.747C218.077 27.8203 218.051 27.8827 218 27.934C217.956 27.978 217.897 28 217.824 28H217.307C217.233 28 217.171 27.978 217.12 27.934C217.076 27.8827 217.054 27.8203 217.054 27.747V24.667C217.054 24.2563 216.991 23.9337 216.867 23.699C216.742 23.4643 216.581 23.2993 216.383 23.204C216.185 23.1087 215.976 23.061 215.756 23.061C215.565 23.061 215.371 23.1087 215.173 23.204C214.975 23.2993 214.81 23.4643 214.678 23.699C214.553 23.9337 214.491 24.2527 214.491 24.656V27.747C214.491 27.8203 214.465 27.8827 214.414 27.934C214.37 27.978 214.311 28 214.238 28H213.71ZM223.496 30.09C223.423 30.09 223.36 30.0643 223.309 30.013C223.265 29.969 223.243 29.9103 223.243 29.837V22.533C223.243 22.4597 223.265 22.401 223.309 22.357C223.36 22.3057 223.423 22.28 223.496 22.28H224.002C224.075 22.28 224.134 22.3057 224.178 22.357C224.229 22.401 224.255 22.4597 224.255 22.533V23.017C224.431 22.775 224.666 22.5733 224.959 22.412C225.252 22.2507 225.619 22.17 226.059 22.17C226.47 22.17 226.818 22.2397 227.104 22.379C227.397 22.5183 227.636 22.709 227.819 22.951C228.01 23.193 228.153 23.468 228.248 23.776C228.343 24.084 228.395 24.414 228.402 24.766C228.409 24.8833 228.413 25.008 228.413 25.14C228.413 25.272 228.409 25.3967 228.402 25.514C228.395 25.8587 228.343 26.1887 228.248 26.504C228.153 26.812 228.01 27.087 227.819 27.329C227.636 27.5637 227.397 27.7543 227.104 27.901C226.818 28.0403 226.47 28.11 226.059 28.11C225.634 28.11 225.274 28.033 224.981 27.879C224.695 27.7177 224.46 27.5197 224.277 27.285V29.837C224.277 29.9103 224.255 29.969 224.211 30.013C224.167 30.0643 224.105 30.09 224.024 30.09H223.496ZM225.828 27.219C226.209 27.219 226.506 27.1383 226.719 26.977C226.939 26.8083 227.097 26.592 227.192 26.328C227.287 26.0567 227.342 25.767 227.357 25.459C227.364 25.2463 227.364 25.0337 227.357 24.821C227.342 24.513 227.287 24.227 227.192 23.963C227.097 23.6917 226.939 23.4753 226.719 23.314C226.506 23.1453 226.209 23.061 225.828 23.061C225.469 23.061 225.175 23.1453 224.948 23.314C224.728 23.4827 224.563 23.699 224.453 23.963C224.35 24.2197 224.292 24.4837 224.277 24.755C224.27 24.8723 224.266 25.0117 224.266 25.173C224.266 25.3343 224.27 25.4773 224.277 25.602C224.284 25.8587 224.343 26.1117 224.453 26.361C224.57 26.6103 224.743 26.8157 224.97 26.977C225.197 27.1383 225.483 27.219 225.828 27.219ZM230.049 28C229.975 28 229.913 27.978 229.862 27.934C229.818 27.8827 229.796 27.8203 229.796 27.747V20.443C229.796 20.3697 229.818 20.311 229.862 20.267C229.913 20.2157 229.975 20.19 230.049 20.19H230.566C230.646 20.19 230.709 20.2157 230.753 20.267C230.797 20.311 230.819 20.3697 230.819 20.443V27.747C230.819 27.8203 230.797 27.8827 230.753 27.934C230.709 27.978 230.646 28 230.566 28H230.049ZM234.737 28.11C233.981 28.11 233.38 27.879 232.933 27.417C232.485 26.9477 232.24 26.3097 232.196 25.503C232.188 25.4077 232.185 25.2867 232.185 25.14C232.185 24.986 232.188 24.8613 232.196 24.766C232.225 24.2453 232.346 23.7907 232.559 23.402C232.771 23.006 233.061 22.7017 233.428 22.489C233.802 22.2763 234.238 22.17 234.737 22.17C235.294 22.17 235.76 22.2873 236.134 22.522C236.515 22.7567 236.805 23.0903 237.003 23.523C237.201 23.9557 237.3 24.4617 237.3 25.041V25.228C237.3 25.3087 237.274 25.371 237.223 25.415C237.179 25.459 237.12 25.481 237.047 25.481H233.241C233.241 25.4883 233.241 25.503 233.241 25.525C233.241 25.547 233.241 25.5653 233.241 25.58C233.255 25.8807 233.321 26.163 233.439 26.427C233.556 26.6837 233.725 26.8927 233.945 27.054C234.165 27.2153 234.429 27.296 234.737 27.296C235.001 27.296 235.221 27.2557 235.397 27.175C235.573 27.0943 235.716 27.0063 235.826 26.911C235.936 26.8083 236.009 26.7313 236.046 26.68C236.112 26.5847 236.163 26.5297 236.2 26.515C236.236 26.493 236.295 26.482 236.376 26.482H236.904C236.977 26.482 237.036 26.504 237.08 26.548C237.131 26.5847 237.153 26.6397 237.146 26.713C237.138 26.823 237.08 26.9587 236.97 27.12C236.86 27.274 236.702 27.428 236.497 27.582C236.291 27.736 236.042 27.8643 235.749 27.967C235.455 28.0623 235.118 28.11 234.737 28.11ZM233.241 24.722H236.255V24.689C236.255 24.359 236.192 24.0657 236.068 23.809C235.95 23.5523 235.778 23.3507 235.551 23.204C235.323 23.05 235.052 22.973 234.737 22.973C234.421 22.973 234.15 23.05 233.923 23.204C233.703 23.3507 233.534 23.5523 233.417 23.809C233.299 24.0657 233.241 24.359 233.241 24.689V24.722ZM240.816 28C240.405 28 240.071 27.923 239.815 27.769C239.558 27.6077 239.371 27.384 239.254 27.098C239.136 26.8047 239.078 26.46 239.078 26.064V23.16H238.22C238.146 23.16 238.084 23.138 238.033 23.094C237.989 23.0427 237.967 22.9803 237.967 22.907V22.533C237.967 22.4597 237.989 22.401 238.033 22.357C238.084 22.3057 238.146 22.28 238.22 22.28H239.078V20.443C239.078 20.3697 239.1 20.311 239.144 20.267C239.195 20.2157 239.257 20.19 239.331 20.19H239.848C239.921 20.19 239.98 20.2157 240.024 20.267C240.075 20.311 240.101 20.3697 240.101 20.443V22.28H241.465C241.538 22.28 241.597 22.3057 241.641 22.357C241.692 22.401 241.718 22.4597 241.718 22.533V22.907C241.718 22.9803 241.692 23.0427 241.641 23.094C241.597 23.138 241.538 23.16 241.465 23.16H240.101V25.987C240.101 26.3317 240.159 26.603 240.277 26.801C240.394 26.999 240.603 27.098 240.904 27.098H241.575C241.648 27.098 241.707 27.1237 241.751 27.175C241.802 27.219 241.828 27.2777 241.828 27.351V27.747C241.828 27.8203 241.802 27.8827 241.751 27.934C241.707 27.978 241.648 28 241.575 28H240.816ZM245.156 28.11C244.401 28.11 243.8 27.879 243.352 27.417C242.905 26.9477 242.659 26.3097 242.615 25.503C242.608 25.4077 242.604 25.2867 242.604 25.14C242.604 24.986 242.608 24.8613 242.615 24.766C242.645 24.2453 242.766 23.7907 242.978 23.402C243.191 23.006 243.481 22.7017 243.847 22.489C244.221 22.2763 244.658 22.17 245.156 22.17C245.714 22.17 246.179 22.2873 246.553 22.522C246.935 22.7567 247.224 23.0903 247.422 23.523C247.62 23.9557 247.719 24.4617 247.719 25.041V25.228C247.719 25.3087 247.694 25.371 247.642 25.415C247.598 25.459 247.54 25.481 247.466 25.481H243.66C243.66 25.4883 243.66 25.503 243.66 25.525C243.66 25.547 243.66 25.5653 243.66 25.58C243.675 25.8807 243.741 26.163 243.858 26.427C243.976 26.6837 244.144 26.8927 244.364 27.054C244.584 27.2153 244.848 27.296 245.156 27.296C245.42 27.296 245.64 27.2557 245.816 27.175C245.992 27.0943 246.135 27.0063 246.245 26.911C246.355 26.8083 246.429 26.7313 246.465 26.68C246.531 26.5847 246.583 26.5297 246.619 26.515C246.656 26.493 246.715 26.482 246.795 26.482H247.323C247.397 26.482 247.455 26.504 247.499 26.548C247.551 26.5847 247.573 26.6397 247.565 26.713C247.558 26.823 247.499 26.9587 247.389 27.12C247.279 27.274 247.122 27.428 246.916 27.582C246.711 27.736 246.462 27.8643 246.168 27.967C245.875 28.0623 245.538 28.11 245.156 28.11ZM243.66 24.722H246.674V24.689C246.674 24.359 246.612 24.0657 246.487 23.809C246.37 23.5523 246.198 23.3507 245.97 23.204C245.743 23.05 245.472 22.973 245.156 22.973C244.841 22.973 244.57 23.05 244.342 23.204C244.122 23.3507 243.954 23.5523 243.836 23.809C243.719 24.0657 243.66 24.359 243.66 24.689V24.722ZM251.125 28.11C250.721 28.11 250.373 28.0403 250.08 27.901C249.786 27.7543 249.544 27.56 249.354 27.318C249.17 27.0687 249.031 26.7863 248.936 26.471C248.848 26.1557 248.796 25.822 248.782 25.47C248.774 25.3527 248.771 25.2427 248.771 25.14C248.771 25.0373 248.774 24.9273 248.782 24.81C248.796 24.4653 248.848 24.1353 248.936 23.82C249.031 23.5047 249.17 23.2223 249.354 22.973C249.544 22.7237 249.786 22.5293 250.08 22.39C250.373 22.2433 250.721 22.17 251.125 22.17C251.557 22.17 251.917 22.247 252.203 22.401C252.489 22.555 252.723 22.7457 252.907 22.973V20.443C252.907 20.3697 252.929 20.311 252.973 20.267C253.024 20.2157 253.086 20.19 253.16 20.19H253.688C253.761 20.19 253.82 20.2157 253.864 20.267C253.915 20.311 253.941 20.3697 253.941 20.443V27.747C253.941 27.8203 253.915 27.8827 253.864 27.934C253.82 27.978 253.761 28 253.688 28H253.193C253.112 28 253.05 27.978 253.006 27.934C252.962 27.8827 252.94 27.8203 252.94 27.747V27.285C252.756 27.5197 252.518 27.7177 252.225 27.879C251.931 28.033 251.565 28.11 251.125 28.11ZM251.356 27.219C251.722 27.219 252.016 27.1347 252.236 26.966C252.456 26.7973 252.621 26.5847 252.731 26.328C252.841 26.064 252.899 25.7963 252.907 25.525C252.914 25.4077 252.918 25.2683 252.918 25.107C252.918 24.9383 252.914 24.7953 252.907 24.678C252.899 24.4213 252.837 24.1683 252.72 23.919C252.61 23.6697 252.441 23.4643 252.214 23.303C251.994 23.1417 251.708 23.061 251.356 23.061C250.982 23.061 250.685 23.1453 250.465 23.314C250.245 23.4753 250.087 23.6917 249.992 23.963C249.896 24.227 249.841 24.513 249.827 24.821C249.819 25.0337 249.819 25.2463 249.827 25.459C249.841 25.767 249.896 26.0567 249.992 26.328C250.087 26.592 250.245 26.8083 250.465 26.977C250.685 27.1383 250.982 27.219 251.356 27.219Z" fill="#52A377"/>
<path d="M189.037 58C188.963 58 188.901 57.978 188.849 57.934C188.805 57.8826 188.783 57.8203 188.783 57.747V51.5859L186.957 52.9941C186.898 53.0381 186.836 53.0565 186.77 53.0491C186.704 53.0418 186.649 53.0088 186.605 52.9501L186.319 52.5871C186.275 52.5211 186.257 52.455 186.264 52.389C186.279 52.323 186.315 52.268 186.374 52.224L188.772 50.3757C188.824 50.339 188.871 50.317 188.916 50.3097C188.96 50.3023 189.007 50.2987 189.059 50.2987H189.62C189.693 50.2987 189.752 50.3243 189.796 50.3757C189.84 50.4197 189.862 50.4784 189.862 50.5517V57.747C189.862 57.8203 189.84 57.8826 189.796 57.934C189.752 57.978 189.693 58 189.62 58H189.037ZM194.193 58.11C193.687 58.11 193.258 58.033 192.906 57.879C192.562 57.7176 192.279 57.4976 192.059 57.2189C191.839 56.9402 191.678 56.6211 191.575 56.2617C191.48 55.9023 191.425 55.5209 191.41 55.1175C191.403 54.9195 191.395 54.7104 191.388 54.4904C191.388 54.2704 191.388 54.0503 191.388 53.8303C191.395 53.6029 191.403 53.3865 191.41 53.1812C191.417 52.7778 191.472 52.3964 191.575 52.037C191.685 51.6702 191.846 51.3512 192.059 51.0798C192.279 50.8011 192.565 50.5847 192.917 50.4307C193.269 50.2693 193.695 50.1887 194.193 50.1887C194.7 50.1887 195.125 50.2693 195.47 50.4307C195.822 50.5847 196.108 50.8011 196.328 51.0798C196.548 51.3512 196.709 51.6702 196.812 52.037C196.922 52.3964 196.981 52.7778 196.988 53.1812C196.995 53.3865 196.999 53.6029 196.999 53.8303C197.006 54.0503 197.006 54.2704 196.999 54.4904C196.999 54.7104 196.995 54.9195 196.988 55.1175C196.981 55.5209 196.922 55.9023 196.812 56.2617C196.709 56.6211 196.548 56.9402 196.328 57.2189C196.115 57.4976 195.833 57.7176 195.481 57.879C195.136 58.033 194.707 58.11 194.193 58.11ZM194.193 57.1749C194.766 57.1749 195.187 56.9878 195.459 56.6138C195.737 56.2324 195.88 55.7153 195.888 55.0625C195.902 54.8498 195.91 54.6444 195.91 54.4464C195.91 54.241 195.91 54.0393 195.91 53.8413C195.91 53.6359 195.902 53.4342 195.888 53.2362C195.88 52.5981 195.737 52.0883 195.459 51.7069C195.187 51.3182 194.766 51.1238 194.193 51.1238C193.629 51.1238 193.207 51.3182 192.928 51.7069C192.657 52.0883 192.514 52.5981 192.499 53.2362C192.499 53.4342 192.496 53.6359 192.488 53.8413C192.488 54.0393 192.488 54.241 192.488 54.4464C192.496 54.6444 192.499 54.8498 192.499 55.0625C192.514 55.7153 192.661 56.2324 192.939 56.6138C193.218 56.9878 193.636 57.1749 194.193 57.1749ZM201.177 58.11C200.671 58.11 200.242 58.033 199.89 57.879C199.545 57.7176 199.263 57.4976 199.043 57.2189C198.823 56.9402 198.661 56.6211 198.559 56.2617C198.463 55.9023 198.408 55.5209 198.394 55.1175C198.386 54.9195 198.379 54.7104 198.372 54.4904C198.372 54.2704 198.372 54.0503 198.372 53.8303C198.379 53.6029 198.386 53.3865 198.394 53.1812C198.401 52.7778 198.456 52.3964 198.559 52.037C198.669 51.6702 198.83 51.3512 199.043 51.0798C199.263 50.8011 199.549 50.5847 199.901 50.4307C200.253 50.2693 200.678 50.1887 201.177 50.1887C201.683 50.1887 202.109 50.2693 202.453 50.4307C202.805 50.5847 203.091 50.8011 203.311 51.0798C203.532 51.3512 203.693 51.6702 203.796 52.037C203.906 52.3964 203.964 52.7778 203.972 53.1812C203.979 53.3865 203.983 53.6029 203.983 53.8303C203.99 54.0503 203.99 54.2704 203.983 54.4904C203.983 54.7104 203.979 54.9195 203.972 55.1175C203.964 55.5209 203.906 55.9023 203.796 56.2617C203.693 56.6211 203.532 56.9402 203.311 57.2189C203.099 57.4976 202.816 57.7176 202.464 57.879C202.12 58.033 201.691 58.11 201.177 58.11ZM201.177 57.1749C201.749 57.1749 202.171 56.9878 202.442 56.6138C202.721 56.2324 202.864 55.7153 202.871 55.0625C202.886 54.8498 202.893 54.6444 202.893 54.4464C202.893 54.241 202.893 54.0393 202.893 53.8413C202.893 53.6359 202.886 53.4342 202.871 53.2362C202.864 52.5981 202.721 52.0883 202.442 51.7069C202.171 51.3182 201.749 51.1238 201.177 51.1238C200.612 51.1238 200.191 51.3182 199.912 51.7069C199.641 52.0883 199.497 52.5981 199.483 53.2362C199.483 53.4342 199.479 53.6359 199.472 53.8413C199.472 54.0393 199.472 54.241 199.472 54.4464C199.479 54.6444 199.483 54.8498 199.483 55.0625C199.497 55.7153 199.644 56.2324 199.923 56.6138C200.202 56.9878 200.62 57.1749 201.177 57.1749ZM207.876 58.9242C207.817 58.9242 207.766 58.9022 207.722 58.8581C207.678 58.8141 207.656 58.7628 207.656 58.7041C207.656 58.6674 207.667 58.6234 207.689 58.5721L211.452 49.5505C211.474 49.5065 211.503 49.4625 211.54 49.4185C211.584 49.3745 211.65 49.3525 211.738 49.3525H212.167C212.225 49.3525 212.277 49.3745 212.321 49.4185C212.365 49.4625 212.387 49.5139 212.387 49.5725C212.387 49.6019 212.379 49.6459 212.365 49.7046L208.591 58.7261C208.576 58.7628 208.543 58.8031 208.492 58.8471C208.448 58.8985 208.386 58.9242 208.305 58.9242H207.876ZM218.4 58C218.327 58 218.264 57.978 218.213 57.934C218.169 57.8826 218.147 57.8203 218.147 57.747V51.5859L216.321 52.9941C216.262 53.0381 216.2 53.0565 216.134 53.0491C216.068 53.0418 216.013 53.0088 215.969 52.9501L215.683 52.5871C215.639 52.5211 215.62 52.455 215.628 52.389C215.642 52.323 215.679 52.268 215.738 52.224L218.136 50.3757C218.187 50.339 218.235 50.317 218.279 50.3097C218.323 50.3023 218.371 50.2987 218.422 50.2987H218.983C219.056 50.2987 219.115 50.3243 219.159 50.3757C219.203 50.4197 219.225 50.4784 219.225 50.5517V57.747C219.225 57.8203 219.203 57.8826 219.159 57.934C219.115 57.978 219.056 58 218.983 58H218.4ZM223.557 58.11C223.051 58.11 222.622 58.033 222.27 57.879C221.925 57.7176 221.643 57.4976 221.423 57.2189C221.203 56.9402 221.041 56.6211 220.939 56.2617C220.843 55.9023 220.788 55.5209 220.773 55.1175C220.766 54.9195 220.759 54.7104 220.751 54.4904C220.751 54.2704 220.751 54.0503 220.751 53.8303C220.759 53.6029 220.766 53.3865 220.773 53.1812C220.781 52.7778 220.836 52.3964 220.939 52.037C221.049 51.6702 221.21 51.3512 221.423 51.0798C221.643 50.8011 221.929 50.5847 222.281 50.4307C222.633 50.2693 223.058 50.1887 223.557 50.1887C224.063 50.1887 224.488 50.2693 224.833 50.4307C225.185 50.5847 225.471 50.8011 225.691 51.0798C225.911 51.3512 226.073 51.6702 226.175 52.037C226.285 52.3964 226.344 52.7778 226.351 53.1812C226.359 53.3865 226.362 53.6029 226.362 53.8303C226.37 54.0503 226.37 54.2704 226.362 54.4904C226.362 54.7104 226.359 54.9195 226.351 55.1175C226.344 55.5209 226.285 55.9023 226.175 56.2617C226.073 56.6211 225.911 56.9402 225.691 57.2189C225.479 57.4976 225.196 57.7176 224.844 57.879C224.499 58.033 224.07 58.11 223.557 58.11ZM223.557 57.1749C224.129 57.1749 224.551 56.9878 224.822 56.6138C225.101 56.2324 225.244 55.7153 225.251 55.0625C225.266 54.8498 225.273 54.6444 225.273 54.4464C225.273 54.241 225.273 54.0393 225.273 53.8413C225.273 53.6359 225.266 53.4342 225.251 53.2362C225.244 52.5981 225.101 52.0883 224.822 51.7069C224.551 51.3182 224.129 51.1238 223.557 51.1238C222.992 51.1238 222.57 51.3182 222.292 51.7069C222.02 52.0883 221.877 52.5981 221.863 53.2362C221.863 53.4342 221.859 53.6359 221.852 53.8413C221.852 54.0393 221.852 54.241 221.852 54.4464C221.859 54.6444 221.863 54.8498 221.863 55.0625C221.877 55.7153 222.024 56.2324 222.303 56.6138C222.581 56.9878 223 57.1749 223.557 57.1749ZM230.541 58.11C230.034 58.11 229.605 58.033 229.253 57.879C228.909 57.7176 228.626 57.4976 228.406 57.2189C228.186 56.9402 228.025 56.6211 227.922 56.2617C227.827 55.9023 227.772 55.5209 227.757 55.1175C227.75 54.9195 227.742 54.7104 227.735 54.4904C227.735 54.2704 227.735 54.0503 227.735 53.8303C227.742 53.6029 227.75 53.3865 227.757 53.1812C227.764 52.7778 227.819 52.3964 227.922 52.037C228.032 51.6702 228.194 51.3512 228.406 51.0798C228.626 50.8011 228.912 50.5847 229.264 50.4307C229.616 50.2693 230.042 50.1887 230.541 50.1887C231.047 50.1887 231.472 50.2693 231.817 50.4307C232.169 50.5847 232.455 50.8011 232.675 51.0798C232.895 51.3512 233.056 51.6702 233.159 52.037C233.269 52.3964 233.328 52.7778 233.335 53.1812C233.342 53.3865 233.346 53.6029 233.346 53.8303C233.353 54.0503 233.353 54.2704 233.346 54.4904C233.346 54.7104 233.342 54.9195 233.335 55.1175C233.328 55.5209 233.269 55.9023 233.159 56.2617C233.056 56.6211 232.895 56.9402 232.675 57.2189C232.462 57.4976 232.18 57.7176 231.828 57.879C231.483 58.033 231.054 58.11 230.541 58.11ZM230.541 57.1749C231.113 57.1749 231.534 56.9878 231.806 56.6138C232.085 56.2324 232.228 55.7153 232.235 55.0625C232.25 54.8498 232.257 54.6444 232.257 54.4464C232.257 54.241 232.257 54.0393 232.257 53.8413C232.257 53.6359 232.25 53.4342 232.235 53.2362C232.228 52.5981 232.085 52.0883 231.806 51.7069C231.534 51.3182 231.113 51.1238 230.541 51.1238C229.976 51.1238 229.554 51.3182 229.275 51.7069C229.004 52.0883 228.861 52.5981 228.846 53.2362C228.846 53.4342 228.843 53.6359 228.835 53.8413C228.835 54.0393 228.835 54.241 228.835 54.4464C228.843 54.6444 228.846 54.8498 228.846 55.0625C228.861 55.7153 229.008 56.2324 229.286 56.6138C229.565 56.9878 229.983 57.1749 230.541 57.1749ZM242.652 58.7151C242.557 58.7151 242.48 58.6821 242.421 58.6161C242.363 58.5574 242.315 58.5061 242.278 58.4621L241.827 57.846C241.431 58.022 240.973 58.11 240.452 58.11C239.821 58.11 239.282 58.0037 238.835 57.791C238.395 57.5709 238.05 57.2372 237.801 56.7898C237.559 56.335 237.426 55.7666 237.404 55.0845C237.397 54.7618 237.393 54.4537 237.393 54.1603C237.393 53.8596 237.397 53.5479 237.404 53.2252C237.426 52.5504 237.566 51.9893 237.823 51.5419C238.079 51.0871 238.431 50.7497 238.879 50.5297C239.333 50.3023 239.858 50.1887 240.452 50.1887C241.053 50.1887 241.578 50.3023 242.025 50.5297C242.48 50.7497 242.836 51.0871 243.092 51.5419C243.349 51.9893 243.485 52.5504 243.5 53.2252C243.514 53.5479 243.522 53.8596 243.522 54.1603C243.522 54.4537 243.514 54.7618 243.5 55.0845C243.463 56.0967 243.199 56.8485 242.707 57.3399L243.434 58.3741C243.441 58.3814 243.448 58.3924 243.456 58.4071C243.463 58.4291 243.467 58.4584 243.467 58.4951C243.474 58.5538 243.456 58.6051 243.412 58.6491C243.368 58.6931 243.312 58.7151 243.246 58.7151H242.652ZM240.452 57.1749C241.009 57.1749 241.468 57.0062 241.827 56.6688C242.187 56.3314 242.381 55.785 242.41 55.0295C242.425 54.6994 242.432 54.406 242.432 54.1493C242.432 53.8853 242.425 53.5919 242.41 53.2692C242.396 52.7631 242.3 52.3524 242.124 52.037C241.956 51.7216 241.728 51.4905 241.442 51.3439C241.156 51.1972 240.826 51.1238 240.452 51.1238C240.093 51.1238 239.766 51.1972 239.473 51.3439C239.187 51.4905 238.959 51.7216 238.791 52.037C238.622 52.3524 238.527 52.7631 238.505 53.2692C238.497 53.5919 238.494 53.8853 238.494 54.1493C238.494 54.406 238.497 54.6994 238.505 55.0295C238.534 55.785 238.728 56.3314 239.088 56.6688C239.447 57.0062 239.902 57.1749 240.452 57.1749ZM247.227 58C246.816 58 246.482 57.923 246.225 57.769C245.969 57.6076 245.782 57.3839 245.664 57.0978C245.547 56.8045 245.488 56.4597 245.488 56.0637V53.1592H244.63C244.557 53.1592 244.494 53.1372 244.443 53.0932C244.399 53.0418 244.377 52.9795 244.377 52.9061V52.5321C244.377 52.4587 244.399 52.4 244.443 52.356C244.494 52.3047 244.557 52.279 244.63 52.279H245.488V50.4417C245.488 50.3683 245.51 50.3097 245.554 50.2657C245.606 50.2143 245.668 50.1887 245.741 50.1887H246.258C246.332 50.1887 246.39 50.2143 246.434 50.2657C246.486 50.3097 246.511 50.3683 246.511 50.4417V52.279H247.876C247.949 52.279 248.008 52.3047 248.052 52.356C248.103 52.4 248.129 52.4587 248.129 52.5321V52.9061C248.129 52.9795 248.103 53.0418 248.052 53.0932C248.008 53.1372 247.949 53.1592 247.876 53.1592H246.511V55.9867C246.511 56.3314 246.57 56.6028 246.687 56.8008C246.805 56.9988 247.014 57.0978 247.315 57.0978H247.986C248.059 57.0978 248.118 57.1235 248.162 57.1749C248.213 57.2189 248.239 57.2775 248.239 57.3509V57.747C248.239 57.8203 248.213 57.8826 248.162 57.934C248.118 57.978 248.059 58 247.986 58H247.227ZM250.292 60.0904C250.233 60.0904 250.182 60.0684 250.138 60.0243C250.094 59.9803 250.072 59.929 250.072 59.8703C250.072 59.841 250.076 59.8116 250.083 59.7823C250.09 59.753 250.105 59.7163 250.127 59.6723L250.974 57.6589L248.873 52.6971C248.836 52.6091 248.818 52.5467 248.818 52.5101C248.818 52.444 248.84 52.389 248.884 52.345C248.928 52.301 248.983 52.279 249.049 52.279H249.588C249.661 52.279 249.72 52.2973 249.764 52.334C249.808 52.3707 249.837 52.4147 249.852 52.466L251.524 56.4707L253.24 52.466C253.262 52.4147 253.292 52.3707 253.328 52.334C253.372 52.2973 253.435 52.279 253.515 52.279H254.033C254.099 52.279 254.154 52.301 254.198 52.345C254.242 52.389 254.264 52.4404 254.264 52.4991C254.264 52.5357 254.245 52.6017 254.209 52.6971L251.084 59.9033C251.062 59.9547 251.029 59.9987 250.985 60.0354C250.948 60.072 250.89 60.0904 250.809 60.0904H250.292Z" fill="#888FAF"/>
</g>
</g>
<defs>
<filter id="filter0_d_2443_7332" x="0.6654" y="0.3327" width="278.072" height="110.086" filterUnits="userSpaceOnUse" color-interpolation-filters="sRGB">
<feFlood flood-opacity="0" result="BackgroundImageFix"/>
<feColorMatrix in="SourceAlpha" type="matrix" values="0 0 0 0 0 0 0 0 0 0 0 0 0 0 0 0 0 0 127 0" result="hardAlpha"/>
<feOffset dy="3.6673"/>
<feGaussianBlur stdDeviation="3.6673"/>
<feComposite in2="hardAlpha" operator="out"/>
<feColorMatrix type="matrix" values="0 0 0 0 0.0235294 0 0 0 0 0.054902 0 0 0 0 0.129412 0 0 0 0.05 0"/>
<feBlend mode="normal" in2="BackgroundImageFix" result="effect1_dropShadow_2443_7332"/>
<feBlend mode="normal" in="SourceGraphic" in2="effect1_dropShadow_2443_7332" result="shape"/>
</filter>
<clipPath id="clip0_2443_7332">
<rect x="8" y="4" width="263.403" height="95.4164" rx="7.3346" fill="white"/>
</clipPath>
<clipPath id="clip1_2443_7332">
<rect x="12.5781" y="12" width="129.335" height="24.3346" rx="3.6673" fill="white"/>
</clipPath>
</defs>
</svg>
