<svg width="1232" height="430" viewBox="0 0 1232 430" fill="none" xmlns="http://www.w3.org/2000/svg">
<path d="M313.31 258H271.56V45.0448H406.121V84.3919H313.009V136.955H395.909V175.101H313.31V258ZM470.569 258H430.621V110.223H470.569V258ZM425.816 61.8649C425.816 55.0568 428.219 49.2498 433.024 44.444C437.83 39.438 443.637 36.935 450.445 36.935C457.253 36.935 463.06 39.3379 467.866 44.1437C472.672 48.9494 475.075 54.8565 475.075 61.8649C475.075 68.4728 472.672 74.1797 467.866 78.9854C463.06 83.7912 457.253 86.1941 450.445 86.1941C443.637 86.1941 437.83 83.7912 433.024 78.9854C428.219 74.1797 425.816 68.4728 425.816 61.8649ZM494.715 216.851L528.956 209.342C529.357 215.749 531.86 221.156 536.465 225.561C541.271 229.766 547.779 231.869 555.989 231.869C562.196 231.869 567.002 230.467 570.406 227.664C573.81 224.86 575.512 221.356 575.512 217.151C575.512 209.742 570.206 204.936 559.593 202.734L540.07 198.228C526.253 195.225 515.841 189.818 508.832 182.009C502.024 174.2 498.62 164.888 498.62 154.075C498.62 140.659 503.826 129.246 514.239 119.834C524.852 110.423 538.067 105.717 553.886 105.717C563.898 105.717 572.709 107.219 580.318 110.223C587.927 113.026 593.834 116.731 598.039 121.336C602.244 125.741 605.448 130.247 607.651 134.852C609.853 139.458 611.255 143.963 611.856 148.369L578.516 155.878C577.715 150.671 575.312 146.066 571.307 142.061C567.503 138.056 561.796 136.054 554.187 136.054C548.98 136.054 544.475 137.456 540.67 140.259C537.066 143.062 535.264 146.566 535.264 150.771C535.264 157.98 539.769 162.385 548.78 163.987L569.805 168.493C584.022 171.496 594.835 177.003 602.244 185.013C609.853 193.022 613.658 202.634 613.658 213.847C613.658 227.063 608.652 238.477 598.64 248.088C588.628 257.7 574.511 262.505 556.289 262.505C545.877 262.505 536.566 261.004 528.356 258C520.146 254.796 513.738 250.791 509.133 245.986C504.727 240.98 501.323 236.074 498.92 231.268C496.718 226.262 495.316 221.456 494.715 216.851ZM780.053 40.5394V231.268C780.053 241.08 780.453 249.99 781.254 258H743.108C742.107 252.994 741.607 247.287 741.607 240.879C738.203 247.087 732.796 252.093 725.387 255.897C718.179 259.702 709.768 261.604 700.157 261.604C679.132 261.604 661.811 254.296 648.195 239.678C634.779 224.86 628.071 206.238 628.071 183.811C628.071 161.985 634.678 143.663 647.894 128.845C661.31 114.027 678.331 106.619 698.955 106.619C720.181 106.619 734.098 112.726 740.706 124.941V40.5394H780.053ZM668.319 183.811C668.319 196.827 671.723 207.139 678.531 214.748C685.339 222.157 694.15 225.861 704.963 225.861C715.575 225.861 724.286 222.057 731.094 214.448C737.902 206.839 741.306 196.526 741.306 183.511C741.306 170.695 737.902 160.683 731.094 153.475C724.286 146.066 715.575 142.361 704.963 142.361C694.35 142.361 685.539 146.066 678.531 153.475C671.723 160.884 668.319 170.996 668.319 183.811ZM857.029 215.049C864.438 222.457 873.349 226.162 883.761 226.162C894.174 226.162 902.984 222.457 910.193 215.049C917.602 207.64 921.306 197.327 921.306 184.111C921.306 170.896 917.602 160.583 910.193 153.174C902.984 145.765 894.174 142.061 883.761 142.061C873.349 142.061 864.438 145.765 857.029 153.174C849.821 160.583 846.216 170.896 846.216 184.111C846.216 197.327 849.821 207.64 857.029 215.049ZM828.195 127.944C843.013 113.126 861.535 105.717 883.761 105.717C905.988 105.717 924.41 113.126 939.028 127.944C953.845 142.762 961.254 161.484 961.254 184.111C961.254 206.739 953.845 225.461 939.028 240.279C924.41 255.097 905.988 262.505 883.761 262.505C861.535 262.505 843.013 255.097 828.195 240.279C813.577 225.461 806.269 206.739 806.269 184.111C806.269 161.484 813.577 142.762 828.195 127.944ZM1026.73 258H986.78V110.223H1024.93V128.244C1028.73 121.436 1034.74 116.03 1042.95 112.025C1051.16 108.02 1059.57 106.018 1068.18 106.018C1089.6 106.018 1104.22 114.228 1112.03 130.647C1122.64 114.228 1138.26 106.018 1158.89 106.018C1173.9 106.018 1186.52 110.723 1196.73 120.135C1207.14 129.546 1212.35 143.563 1212.35 162.185V258H1173.6V170.295C1173.6 161.885 1171.4 155.177 1167 150.171C1162.79 144.965 1156.28 142.361 1147.47 142.361C1139.26 142.361 1132.65 145.165 1127.65 150.771C1122.64 156.378 1120.14 163.286 1120.14 171.496V258H1080.49V170.295C1080.49 161.885 1078.29 155.177 1073.88 150.171C1069.48 144.965 1062.97 142.361 1054.36 142.361C1045.95 142.361 1039.24 145.165 1034.24 150.771C1029.23 156.178 1026.73 163.086 1026.73 171.496V258Z" fill="#C1A866"/>
<path d="M105.453 179.986V110.398C105.453 109.106 106.093 107.898 107.161 107.172L196.906 46.1453C199.496 44.3838 203.002 46.2392 203.002 49.3719V116.633C203.002 119.38 201.642 121.949 199.37 123.494L111.549 183.212C108.959 184.974 105.453 183.119 105.453 179.986Z" fill="#C1A866"/>
<path d="M93.6465 253.021V106.59C93.6465 105.245 92.9535 103.995 91.8126 103.282L5.07771 49.0722C2.86725 47.6907 0 49.2799 0 51.8866V199.814C0 201.159 0.693064 202.409 1.83392 203.122L87.2994 256.538C90.0625 258.265 93.6465 256.279 93.6465 253.021Z" fill="#C1A866"/>
<path d="M105.453 253.09V204.031C105.453 202.746 106.086 201.544 107.145 200.816L161.772 163.26C164.361 161.48 167.884 163.333 167.884 166.475V212.349C167.884 215.628 166.27 218.696 163.568 220.554L111.566 256.305C108.977 258.085 105.453 256.232 105.453 253.09Z" fill="#C1A866"/>
<path d="M8.28 403H32.76V374.08H42C63.24 374.08 75.36 364.36 75.36 346.36V345.88C75.36 327.64 64.44 317.2 40.92 317.2H8.28V403ZM32.76 357.28V335.68H39.96C47.64 335.68 51.96 338.68 51.96 346V346.48C51.96 353.56 47.76 357.28 39.84 357.28H32.76ZM99.7612 403H124.241V372.28H130.001L147.401 403H173.321L152.801 367.48C161.801 364 168.281 357.16 168.281 344.92V344.44C168.281 326.32 155.801 317.2 133.361 317.2H99.7612V403ZM124.241 356.32V335.68H132.281C140.201 335.68 144.521 338.44 144.521 345.4V345.88C144.521 352.84 140.441 356.32 132.161 356.32H124.241ZM197.113 403H221.953V317.2H197.113V403ZM273.621 403H301.581L329.661 317.2H306.621L289.101 377.44L271.701 317.2H245.181L273.621 403ZM336.196 403H359.116L363.676 387.04H392.116L396.676 403H422.716L395.476 317.2H363.676L336.196 403ZM377.956 337.12L387.316 370.12H368.476L377.956 337.12ZM454.353 403H479.073V336.16H501.273V317.2H432.153V336.16H454.353V403ZM525.293 403H586.493V384.04H549.773V368.44H577.493V350.92H549.773V336.16H584.573V317.2H525.293V403ZM662.161 403H686.161L699.481 348.52L712.681 403H738.361L758.401 317.2H735.601L723.961 371.2L711.481 317.2H689.641L678.121 370.72L667.081 317.2H642.241L662.161 403ZM781.572 403H842.772V384.04H806.052V368.44H833.772V350.92H806.052V336.16H840.852V317.2H781.572V403ZM861.529 403H884.449L889.009 387.04H917.449L922.009 403H948.049L920.809 317.2H889.009L861.529 403ZM903.289 337.12L912.649 370.12H893.809L903.289 337.12ZM971.097 403H1028.22V383.92H995.817V317.2H971.097V403ZM1060.15 403H1084.87V336.16H1107.07V317.2H1037.95V336.16H1060.15V403ZM1131.09 403H1155.81V369.16H1184.01V403H1208.61V317.2H1184.01V349.96H1155.81V317.2H1131.09V403Z" fill="#C1A866"/>
</svg>
