<svg width="803" height="152" viewBox="0 0 803 152" fill="none" xmlns="http://www.w3.org/2000/svg">
<path d="M201.878 148.47H174V5.94202H263.85V32.2762H201.677V67.4564H257.031V92.986H201.878V148.47Z" fill="#1E0D50"/>
<path d="M306.884 148.47H280.209V49.5645H306.884V148.47ZM277 17.1998C277 12.6428 278.606 8.75615 281.814 5.53975C285.023 2.18935 288.901 0.514648 293.446 0.514648C297.993 0.514648 301.87 2.12225 305.079 5.33985C308.288 8.55625 309.892 12.5087 309.892 17.1998C309.892 21.6227 308.288 25.4424 305.079 28.6588C301.87 31.8751 297.993 33.4827 293.446 33.4827C288.901 33.4827 285.023 31.8751 281.814 28.6588C278.606 25.4424 277 21.6227 277 17.1998Z" fill="#1E0D50"/>
<path d="M323.008 120.929L345.871 115.904C346.139 120.192 347.811 123.81 350.886 126.759C354.095 129.573 358.439 130.98 363.922 130.98C368.066 130.98 371.276 130.042 373.549 128.166C375.821 126.289 376.958 123.944 376.958 121.13C376.958 116.171 373.415 112.955 366.328 111.481L353.292 108.466C344.067 106.455 337.114 102.836 332.434 97.61C327.887 92.384 325.615 86.1512 325.615 78.9153C325.615 69.9353 329.091 62.2972 336.044 55.9973C343.131 49.6986 351.955 46.5493 362.518 46.5493C369.203 46.5493 375.086 47.5548 380.167 49.5646C385.247 51.4415 389.192 53.9205 392 57.0028C394.807 59.951 396.947 62.9663 398.417 66.0486C399.889 69.1309 400.825 72.1474 401.226 75.0956L378.963 80.1207C378.428 76.6362 376.824 73.5539 374.151 70.8738C371.609 68.1937 367.8 66.853 362.718 66.853C359.242 66.853 356.234 67.7915 353.694 69.6672C351.286 71.5441 350.083 73.889 350.083 76.7032C350.083 81.5284 353.092 84.4766 359.108 85.5491L373.147 88.5644C382.64 90.574 389.861 94.26 394.807 99.62C399.889 104.981 402.429 111.414 402.429 118.919C402.429 127.764 399.086 135.403 392.401 141.836C385.715 148.269 376.289 151.485 364.123 151.485C357.17 151.485 350.953 150.48 345.47 148.47C339.989 146.325 335.71 143.645 332.635 140.428C329.693 137.078 327.421 133.795 325.815 130.578C324.345 127.228 323.409 124.011 323.008 120.929Z" fill="#1E0D50"/>
<path d="M513.535 2.92676V130.578C513.535 137.145 513.802 143.109 514.337 148.47H488.867C488.198 145.12 487.863 141.3 487.863 137.011C485.591 141.166 481.981 144.516 477.033 147.062C472.22 149.61 466.604 150.882 460.186 150.882C446.148 150.882 434.582 145.991 425.49 136.207C416.531 126.289 412.053 113.826 412.053 98.817C412.053 84.2086 416.464 71.9464 425.29 62.0292C434.247 52.1119 445.613 47.1527 459.385 47.1527C473.557 47.1527 482.85 51.2405 487.262 59.4149V2.92676H513.535ZM438.928 98.817C438.928 107.528 441.2 114.429 445.747 119.522C450.292 124.481 456.176 126.96 463.395 126.96C470.481 126.96 476.299 124.414 480.844 119.322C485.39 114.228 487.663 107.326 487.663 98.616C487.663 90.038 485.39 83.3371 480.844 78.5132C476.299 73.554 470.481 71.075 463.395 71.075C456.31 71.075 450.426 73.554 445.747 78.5132C441.2 83.4712 438.928 90.239 438.928 98.817Z" fill="#1E0D50"/>
<path d="M564.932 119.723C569.88 124.682 575.829 127.161 582.782 127.161C589.735 127.161 595.617 124.682 600.431 119.723C605.378 114.765 607.852 107.863 607.852 99.018C607.852 90.172 605.378 83.27 600.431 78.312C595.617 73.3528 589.735 70.8738 582.782 70.8738C575.829 70.8738 569.88 73.3528 564.932 78.312C560.119 83.27 557.713 90.172 557.713 99.018C557.713 107.863 560.119 114.765 564.932 119.723ZM545.679 61.4258C555.573 51.5086 567.941 46.5493 582.782 46.5493C597.624 46.5493 609.924 51.5086 619.685 61.4258C629.579 71.343 634.527 83.8733 634.527 99.018C634.527 114.161 629.579 126.692 619.685 136.609C609.924 146.526 597.624 151.485 582.782 151.485C567.941 151.485 555.573 146.526 545.679 136.609C535.918 126.692 531.039 114.161 531.039 99.018C531.039 83.8733 535.918 71.343 545.679 61.4258Z" fill="#1E0D50"/>
<path d="M678.246 148.47H651.572V49.5646H677.042V61.6269C679.584 57.0699 683.594 53.4514 689.076 50.7712C694.558 48.0911 700.173 46.7505 705.923 46.7505C720.229 46.7505 729.991 52.246 735.205 63.2345C742.291 52.246 752.72 46.7505 766.492 46.7505C776.52 46.7505 784.943 49.8998 791.762 56.1985C798.715 62.4972 802.191 71.8793 802.191 84.3426V148.47H776.32V89.77C776.32 84.1415 774.848 79.6515 771.907 76.3011C769.099 72.8166 764.753 71.0749 758.871 71.0749C753.389 71.0749 748.976 72.9506 745.634 76.7033C742.291 80.4559 740.619 85.08 740.619 90.574V148.47H714.146V89.77C714.146 84.1415 712.676 79.6515 709.734 76.3011C706.793 72.8166 702.447 71.0749 696.698 71.0749C691.082 71.0749 686.603 72.9506 683.261 76.7033C679.918 80.3218 678.246 84.9459 678.246 90.574V148.47Z" fill="#1E0D50"/>
<path d="M71.7793 95.403V48.3036C71.7793 47.4283 72.2144 46.6104 72.9416 46.1191L134.028 4.8149C135.791 3.6217 138.177 4.8785 138.177 6.9981V52.5229C138.177 54.3832 137.252 56.1213 135.705 57.1674L75.9284 97.586C74.1654 98.778 71.7793 97.523 71.7793 95.403Z" fill="#35CB5D"/>
<path d="M63.742 144.835V45.726C63.742 44.8145 63.2705 43.9692 62.4943 43.4867L3.45574 6.79579C1.95232 5.86059 0 6.93539 0 8.69969V108.823C0 109.733 0.471469 110.579 1.24889 111.062L59.4223 147.215C61.3031 148.385 63.742 147.04 63.742 144.835Z" fill="#4F2DA7"/>
<path d="M71.7793 144.882V111.677C71.7793 110.808 72.2094 109.994 72.9303 109.501L110.114 84.082C111.875 82.8776 114.274 84.1319 114.274 86.259V117.308C114.274 119.526 113.175 121.603 111.336 122.86L75.9397 147.059C74.1767 148.263 71.7793 147.009 71.7793 144.882Z" fill="#8D61FF"/>
</svg>
