<svg width="279" height="111" viewBox="0 0 279 111" fill="none" xmlns="http://www.w3.org/2000/svg">
<g filter="url(#filter0_d_2210_6661)">
<g clip-path="url(#clip0_2210_6661)">
<rect x="8" y="4" width="263.403" height="95.4164" rx="7.3346" fill="white"/>
<g clip-path="url(#clip1_2210_6661)">
<path d="M21.1229 28.7612C21.0422 28.7612 20.9799 28.7392 20.9359 28.6952C20.8919 28.6439 20.8699 28.5815 20.8699 28.5082V21.3239C20.8699 21.2433 20.8919 21.1809 20.9359 21.1369C20.9799 21.0856 21.0422 21.0599 21.1229 21.0599H23.9174C24.4602 21.0599 24.9296 21.1479 25.3257 21.3239C25.7291 21.5 26.0408 21.764 26.2608 22.1161C26.4809 22.4608 26.5909 22.8936 26.5909 23.4143C26.5909 23.9351 26.4809 24.3678 26.2608 24.7125C26.0408 25.0573 25.7291 25.3176 25.3257 25.4937C24.9296 25.6697 24.4602 25.7577 23.9174 25.7577H21.9701V28.5082C21.9701 28.5815 21.9444 28.6439 21.8931 28.6952C21.8491 28.7392 21.7867 28.7612 21.706 28.7612H21.1229ZM21.9591 24.8336H23.8624C24.4052 24.8336 24.8122 24.7125 25.0836 24.4705C25.355 24.2284 25.4907 23.8764 25.4907 23.4143C25.4907 22.9596 25.3587 22.6075 25.0946 22.3581C24.8306 22.1087 24.4198 21.9841 23.8624 21.9841H21.9591V24.8336ZM30.0539 28.8712C29.4965 28.8712 29.0307 28.7649 28.6567 28.5522C28.2826 28.3395 27.9965 28.0461 27.7985 27.672C27.6005 27.2906 27.4904 26.8579 27.4684 26.3738C27.4611 26.2491 27.4574 26.0914 27.4574 25.9007C27.4574 25.7027 27.4611 25.545 27.4684 25.4277C27.4904 24.9362 27.6005 24.5035 27.7985 24.1294C28.0039 23.7554 28.2936 23.462 28.6677 23.2493C29.0417 23.0366 29.5038 22.9302 30.0539 22.9302C30.604 22.9302 31.0661 23.0366 31.4401 23.2493C31.8142 23.462 32.1002 23.7554 32.2983 24.1294C32.5036 24.5035 32.6173 24.9362 32.6393 25.4277C32.6467 25.545 32.6503 25.7027 32.6503 25.9007C32.6503 26.0914 32.6467 26.2491 32.6393 26.3738C32.6173 26.8579 32.5073 27.2906 32.3093 27.672C32.1112 28.0461 31.8252 28.3395 31.4511 28.5522C31.0771 28.7649 30.6113 28.8712 30.0539 28.8712ZM30.0539 28.0241C30.5086 28.0241 30.8717 27.8811 31.1431 27.595C31.4145 27.3016 31.5612 26.8762 31.5832 26.3188C31.5905 26.2088 31.5942 26.0694 31.5942 25.9007C31.5942 25.732 31.5905 25.5927 31.5832 25.4827C31.5612 24.9252 31.4145 24.5035 31.1431 24.2174C30.8717 23.9241 30.5086 23.7774 30.0539 23.7774C29.5991 23.7774 29.2324 23.9241 28.9537 24.2174C28.6823 24.5035 28.5393 24.9252 28.5246 25.4827C28.5173 25.5927 28.5136 25.732 28.5136 25.9007C28.5136 26.0694 28.5173 26.2088 28.5246 26.3188C28.5393 26.8762 28.6823 27.3016 28.9537 27.595C29.2324 27.8811 29.5991 28.0241 30.0539 28.0241ZM34.281 28.7612C34.2077 28.7612 34.1453 28.7392 34.094 28.6952C34.05 28.6439 34.028 28.5815 34.028 28.5082V23.3043C34.028 23.2309 34.05 23.1686 34.094 23.1173C34.1453 23.0659 34.2077 23.0402 34.281 23.0402H34.7871C34.8605 23.0402 34.9228 23.0659 34.9741 23.1173C35.0255 23.1686 35.0512 23.2309 35.0512 23.3043V23.7884C35.1979 23.539 35.3996 23.352 35.6563 23.2273C35.913 23.1026 36.221 23.0402 36.5804 23.0402H37.0205C37.0938 23.0402 37.1525 23.0659 37.1965 23.1173C37.2405 23.1613 37.2625 23.2199 37.2625 23.2933V23.7444C37.2625 23.8177 37.2405 23.8764 37.1965 23.9204C37.1525 23.9644 37.0938 23.9864 37.0205 23.9864H36.3604C35.9643 23.9864 35.6526 24.1038 35.4252 24.3385C35.1979 24.5658 35.0842 24.8776 35.0842 25.2736V28.5082C35.0842 28.5815 35.0585 28.6439 35.0072 28.6952C34.9558 28.7392 34.8935 28.7612 34.8201 28.7612H34.281ZM40.4408 28.7612C40.0301 28.7612 39.6963 28.6842 39.4396 28.5302C39.1829 28.3688 38.9959 28.1451 38.8785 27.8591C38.7612 27.5657 38.7025 27.221 38.7025 26.8249V23.9204H37.8444C37.771 23.9204 37.7087 23.8984 37.6573 23.8544C37.6133 23.803 37.5913 23.7407 37.5913 23.6674V23.2933C37.5913 23.2199 37.6133 23.1613 37.6573 23.1173C37.7087 23.0659 37.771 23.0402 37.8444 23.0402H38.7025V21.2029C38.7025 21.1296 38.7245 21.0709 38.7685 21.0269C38.8199 20.9756 38.8822 20.9499 38.9555 20.9499H39.4726C39.546 20.9499 39.6047 20.9756 39.6487 21.0269C39.7 21.0709 39.7257 21.1296 39.7257 21.2029V23.0402H41.0899C41.1633 23.0402 41.2219 23.0659 41.2659 23.1173C41.3173 23.1613 41.343 23.2199 41.343 23.2933V23.6674C41.343 23.7407 41.3173 23.803 41.2659 23.8544C41.2219 23.8984 41.1633 23.9204 41.0899 23.9204H39.7257V26.7479C39.7257 27.0926 39.7844 27.364 39.9017 27.562C40.0191 27.7601 40.2281 27.8591 40.5288 27.8591H41.1999C41.2733 27.8591 41.332 27.8847 41.376 27.9361C41.4273 27.9801 41.453 28.0388 41.453 28.1121V28.5082C41.453 28.5815 41.4273 28.6439 41.376 28.6952C41.332 28.7392 41.2733 28.7612 41.1999 28.7612H40.4408ZM43.3302 28.7612C43.2568 28.7612 43.1945 28.7392 43.1431 28.6952C43.0991 28.6439 43.0771 28.5815 43.0771 28.5082V23.9204H42.142C42.0686 23.9204 42.0063 23.8984 41.9549 23.8544C41.9109 23.803 41.8889 23.7407 41.8889 23.6674V23.2933C41.8889 23.2199 41.9109 23.1613 41.9549 23.1173C42.0063 23.0659 42.0686 23.0402 42.142 23.0402H43.0771V22.4901C43.0771 22.1161 43.1395 21.7897 43.2642 21.511C43.3889 21.2249 43.5869 21.0049 43.8583 20.8509C44.137 20.6968 44.5074 20.6198 44.9695 20.6198H45.6296C45.7029 20.6198 45.7616 20.6455 45.8056 20.6968C45.8496 20.7408 45.8716 20.7995 45.8716 20.8729V21.2469C45.8716 21.3203 45.8496 21.3826 45.8056 21.434C45.7616 21.478 45.7029 21.5 45.6296 21.5H44.9915C44.6467 21.5 44.412 21.5917 44.2873 21.775C44.1627 21.9511 44.1003 22.2078 44.1003 22.5452V23.0402H45.5196C45.5929 23.0402 45.6516 23.0659 45.6956 23.1173C45.7396 23.1613 45.7616 23.2199 45.7616 23.2933V23.6674C45.7616 23.7407 45.7396 23.803 45.6956 23.8544C45.6516 23.8984 45.5929 23.9204 45.5196 23.9204H44.1003V28.5082C44.1003 28.5815 44.0746 28.6439 44.0233 28.6952C43.9793 28.7392 43.9206 28.7612 43.8473 28.7612H43.3302ZM48.9741 28.8712C48.4167 28.8712 47.951 28.7649 47.5769 28.5522C47.2028 28.3395 46.9168 28.0461 46.7188 27.672C46.5207 27.2906 46.4107 26.8579 46.3887 26.3738C46.3814 26.2491 46.3777 26.0914 46.3777 25.9007C46.3777 25.7027 46.3814 25.545 46.3887 25.4277C46.4107 24.9362 46.5207 24.5035 46.7188 24.1294C46.9241 23.7554 47.2138 23.462 47.5879 23.2493C47.962 23.0366 48.4241 22.9302 48.9741 22.9302C49.5242 22.9302 49.9863 23.0366 50.3604 23.2493C50.7345 23.462 51.0205 23.7554 51.2185 24.1294C51.4239 24.5035 51.5376 24.9362 51.5596 25.4277C51.5669 25.545 51.5706 25.7027 51.5706 25.9007C51.5706 26.0914 51.5669 26.2491 51.5596 26.3738C51.5376 26.8579 51.4276 27.2906 51.2295 27.672C51.0315 28.0461 50.7455 28.3395 50.3714 28.5522C49.9973 28.7649 49.5316 28.8712 48.9741 28.8712ZM48.9741 28.0241C49.4289 28.0241 49.792 27.8811 50.0633 27.595C50.3347 27.3016 50.4814 26.8762 50.5034 26.3188C50.5107 26.2088 50.5144 26.0694 50.5144 25.9007C50.5144 25.732 50.5107 25.5927 50.5034 25.4827C50.4814 24.9252 50.3347 24.5035 50.0633 24.2174C49.792 23.9241 49.4289 23.7774 48.9741 23.7774C48.5194 23.7774 48.1527 23.9241 47.874 24.2174C47.6026 24.5035 47.4596 24.9252 47.4449 25.4827C47.4376 25.5927 47.4339 25.732 47.4339 25.9007C47.4339 26.0694 47.4376 26.2088 47.4449 26.3188C47.4596 26.8762 47.6026 27.3016 47.874 27.595C48.1527 27.8811 48.5194 28.0241 48.9741 28.0241ZM53.2123 28.7612C53.1389 28.7612 53.0766 28.7392 53.0253 28.6952C52.9812 28.6439 52.9592 28.5815 52.9592 28.5082V21.2029C52.9592 21.1296 52.9812 21.0709 53.0253 21.0269C53.0766 20.9756 53.1389 20.9499 53.2123 20.9499H53.7294C53.8101 20.9499 53.8724 20.9756 53.9164 21.0269C53.9604 21.0709 53.9824 21.1296 53.9824 21.2029V28.5082C53.9824 28.5815 53.9604 28.6439 53.9164 28.6952C53.8724 28.7392 53.8101 28.7612 53.7294 28.7612H53.2123ZM55.984 28.7612C55.9106 28.7612 55.8483 28.7392 55.797 28.6952C55.753 28.6439 55.7309 28.5815 55.7309 28.5082V23.2933C55.7309 23.2199 55.753 23.1613 55.797 23.1173C55.8483 23.0659 55.9106 23.0402 55.984 23.0402H56.5121C56.5854 23.0402 56.6441 23.0659 56.6881 23.1173C56.7321 23.1613 56.7541 23.2199 56.7541 23.2933V28.5082C56.7541 28.5815 56.7321 28.6439 56.6881 28.6952C56.6441 28.7392 56.5854 28.7612 56.5121 28.7612H55.984ZM55.896 21.9731C55.8226 21.9731 55.7603 21.9511 55.7089 21.907C55.6649 21.8557 55.6429 21.7934 55.6429 21.72V21.1259C55.6429 21.0526 55.6649 20.9939 55.7089 20.9499C55.7603 20.8985 55.8226 20.8729 55.896 20.8729H56.5891C56.6624 20.8729 56.7211 20.8985 56.7651 20.9499C56.8165 20.9939 56.8421 21.0526 56.8421 21.1259V21.72C56.8421 21.7934 56.8165 21.8557 56.7651 21.907C56.7211 21.9511 56.6624 21.9731 56.5891 21.9731H55.896ZM60.7604 28.8712C60.2029 28.8712 59.7372 28.7649 59.3631 28.5522C58.9891 28.3395 58.703 28.0461 58.505 27.672C58.3069 27.2906 58.1969 26.8579 58.1749 26.3738C58.1676 26.2491 58.1639 26.0914 58.1639 25.9007C58.1639 25.7027 58.1676 25.545 58.1749 25.4277C58.1969 24.9362 58.3069 24.5035 58.505 24.1294C58.7103 23.7554 59.0001 23.462 59.3741 23.2493C59.7482 23.0366 60.2103 22.9302 60.7604 22.9302C61.3105 22.9302 61.7725 23.0366 62.1466 23.2493C62.5207 23.462 62.8067 23.7554 63.0048 24.1294C63.2101 24.5035 63.3238 24.9362 63.3458 25.4277C63.3531 25.545 63.3568 25.7027 63.3568 25.9007C63.3568 26.0914 63.3531 26.2491 63.3458 26.3738C63.3238 26.8579 63.2138 27.2906 63.0158 27.672C62.8177 28.0461 62.5317 28.3395 62.1576 28.5522C61.7835 28.7649 61.3178 28.8712 60.7604 28.8712ZM60.7604 28.0241C61.2151 28.0241 61.5782 27.8811 61.8496 27.595C62.1209 27.3016 62.2676 26.8762 62.2896 26.3188C62.297 26.2088 62.3006 26.0694 62.3006 25.9007C62.3006 25.732 62.297 25.5927 62.2896 25.4827C62.2676 24.9252 62.1209 24.5035 61.8496 24.2174C61.5782 23.9241 61.2151 23.7774 60.7604 23.7774C60.3056 23.7774 59.9389 23.9241 59.6602 24.2174C59.3888 24.5035 59.2458 24.9252 59.2311 25.4827C59.2238 25.5927 59.2201 25.732 59.2201 25.9007C59.2201 26.0694 59.2238 26.2088 59.2311 26.3188C59.2458 26.8762 59.3888 27.3016 59.6602 27.595C59.9389 27.8811 60.3056 28.0241 60.7604 28.0241Z" fill="#28A573"/>
</g>
<path d="M193.964 79.1719C193.845 79.1719 193.75 79.1462 193.682 79.0949C193.622 79.035 193.566 78.9751 193.515 78.9152L190.755 75.8475C190.678 75.7619 190.627 75.6806 190.601 75.6036C190.584 75.5266 190.576 75.4196 190.576 75.2827V74.8206C190.576 74.7351 190.601 74.6623 190.653 74.6024C190.713 74.5425 190.79 74.5126 190.884 74.5126H191.487C192.026 74.5126 192.441 74.4441 192.732 74.3072C193.023 74.1617 193.22 73.9692 193.323 73.7296C193.434 73.49 193.489 73.2119 193.489 72.8953C193.489 72.5958 193.434 72.3262 193.323 72.0867C193.22 71.8471 193.032 71.6545 192.758 71.5091C192.484 71.355 192.099 71.278 191.603 71.278H190.794C190.708 71.278 190.636 71.2523 190.576 71.201C190.516 71.1411 190.486 71.0641 190.486 70.97V70.495C190.486 70.4095 190.516 70.3367 190.576 70.2768C190.636 70.2169 190.708 70.187 190.794 70.187H196.095C196.181 70.187 196.253 70.2169 196.313 70.2768C196.373 70.3367 196.403 70.4095 196.403 70.495V70.97C196.403 71.0641 196.373 71.1411 196.313 71.201C196.253 71.2523 196.181 71.278 196.095 71.278H194.054L194.08 70.97C194.55 71.1154 194.876 71.3764 195.055 71.7529C195.235 72.1209 195.325 72.5359 195.325 72.998C195.325 73.4943 195.218 73.9435 195.004 74.3457C194.79 74.7479 194.465 75.0688 194.028 75.3084C193.601 75.548 193.07 75.6849 192.437 75.7191L191.988 75.7576L192.129 75.026L195.428 78.7483C195.496 78.8253 195.53 78.8895 195.53 78.9408C195.53 79.0178 195.505 79.0777 195.453 79.1205C195.402 79.1548 195.338 79.1719 195.261 79.1719H193.964ZM190.794 73.3574C190.7 73.3574 190.623 73.3274 190.563 73.2675C190.512 73.2076 190.486 73.1349 190.486 73.0493V72.5744C190.486 72.4803 190.516 72.4075 190.576 72.3562C190.636 72.2963 190.708 72.2663 190.794 72.2663H196.095C196.181 72.2663 196.253 72.2963 196.313 72.3562C196.373 72.4075 196.403 72.4803 196.403 72.5744L196.39 73.0493C196.39 73.1349 196.36 73.2076 196.3 73.2675C196.249 73.3274 196.176 73.3574 196.082 73.3574H190.794ZM202.266 79.1719C202.18 79.1719 202.108 79.1419 202.048 79.082C201.988 79.0221 201.958 78.9494 201.958 78.8638V77.2209H197.889C197.795 77.2209 197.718 77.1909 197.658 77.131C197.607 77.0711 197.581 76.9984 197.581 76.9128V76.04C197.581 75.9887 197.59 75.9288 197.607 75.8603C197.632 75.7833 197.671 75.7148 197.722 75.6549L201.509 70.4052C201.62 70.2597 201.778 70.187 201.984 70.187H203.383C203.468 70.187 203.541 70.2169 203.601 70.2768C203.661 70.3367 203.691 70.4095 203.691 70.495V75.7063H204.833C204.936 75.7063 205.013 75.7362 205.064 75.7961C205.124 75.8475 205.154 75.9202 205.154 76.0143V76.9128C205.154 76.9984 205.124 77.0711 205.064 77.131C205.004 77.1909 204.932 77.2209 204.846 77.2209H203.691V78.8638C203.691 78.9494 203.661 79.0221 203.601 79.082C203.541 79.1419 203.468 79.1719 203.383 79.1719H202.266ZM199.365 75.7576H201.996V72.0481L199.365 75.7576ZM206.33 80.1345C206.253 80.1345 206.193 80.1089 206.15 80.0575C206.107 80.0062 206.09 79.942 206.099 79.865L206.445 77.683C206.462 77.5717 206.501 77.4776 206.561 77.4006C206.629 77.315 206.728 77.2722 206.856 77.2722H208.037C208.105 77.2722 208.161 77.2979 208.204 77.3492C208.247 77.392 208.268 77.4476 208.268 77.5161C208.268 77.576 208.255 77.6316 208.229 77.683L207.408 79.8137C207.374 79.8992 207.322 79.972 207.254 80.0319C207.194 80.1003 207.104 80.1345 206.984 80.1345H206.33ZM213.145 79.3002C212.537 79.3002 212.019 79.2104 211.591 79.0307C211.164 78.851 210.813 78.6028 210.539 78.2862C210.265 77.9696 210.06 77.6059 209.923 77.1952C209.786 76.7759 209.705 76.3309 209.679 75.8603C209.67 75.6293 209.662 75.3768 209.653 75.103C209.653 74.8206 209.653 74.5382 209.653 74.2559C209.662 73.9735 209.67 73.7125 209.679 73.4729C209.696 73.0023 209.777 72.5616 209.923 72.1508C210.068 71.7315 210.278 71.3679 210.552 71.0598C210.834 70.7518 211.189 70.5079 211.617 70.3282C212.045 70.1485 212.554 70.0586 213.145 70.0586C213.744 70.0586 214.257 70.1485 214.685 70.3282C215.113 70.5079 215.463 70.7518 215.737 71.0598C216.02 71.3679 216.229 71.7315 216.366 72.1508C216.512 72.5616 216.593 73.0023 216.61 73.4729C216.627 73.7125 216.636 73.9735 216.636 74.2559C216.636 74.5382 216.636 74.8206 216.636 75.103C216.636 75.3768 216.627 75.6293 216.61 75.8603C216.593 76.3309 216.516 76.7759 216.379 77.1952C216.242 77.6059 216.037 77.9696 215.763 78.2862C215.489 78.6028 215.134 78.851 214.698 79.0307C214.27 79.2104 213.752 79.3002 213.145 79.3002ZM213.145 77.8241C213.701 77.8241 214.107 77.6444 214.364 77.285C214.629 76.9171 214.766 76.4208 214.775 75.7961C214.792 75.548 214.8 75.2998 214.8 75.0517C214.8 74.795 214.8 74.5382 214.8 74.2815C214.8 74.0248 214.792 73.7809 214.775 73.5499C214.766 72.9424 214.629 72.4546 214.364 72.0867C214.107 71.7101 213.701 71.5219 213.145 71.5219C212.597 71.5219 212.19 71.7101 211.925 72.0867C211.668 72.4546 211.532 72.9424 211.514 73.5499C211.514 73.7809 211.51 74.0248 211.502 74.2815C211.502 74.5382 211.502 74.795 211.502 75.0517C211.51 75.2998 211.514 75.548 211.514 75.7961C211.532 76.4208 211.673 76.9171 211.938 77.285C212.203 77.6444 212.605 77.8241 213.145 77.8241ZM221.426 79.3131C220.69 79.3131 220.07 79.1933 219.565 78.9537C219.06 78.7055 218.675 78.3846 218.41 77.991C218.153 77.5974 218.016 77.1781 217.999 76.7331C217.991 76.6561 218.012 76.5962 218.063 76.5534C218.123 76.5021 218.192 76.4764 218.269 76.4764H219.463C219.557 76.4764 219.634 76.4978 219.694 76.5406C219.762 76.5748 219.813 76.639 219.848 76.7331C219.933 76.9898 220.053 77.1995 220.207 77.3621C220.37 77.5246 220.554 77.6444 220.759 77.7215C220.973 77.7985 221.195 77.837 221.426 77.837C221.734 77.837 222.013 77.7771 222.261 77.6573C222.517 77.5289 222.723 77.3407 222.877 77.0925C223.031 76.8444 223.108 76.5406 223.108 76.1812C223.108 75.8646 223.035 75.5908 222.89 75.3597C222.744 75.1287 222.543 74.949 222.286 74.8206C222.038 74.6837 221.752 74.6153 221.426 74.6153C221.187 74.6153 220.99 74.6452 220.836 74.7051C220.682 74.765 220.549 74.8335 220.438 74.9105C220.335 74.9875 220.241 75.0559 220.156 75.1158C220.079 75.1757 219.989 75.2057 219.886 75.2057H218.705C218.628 75.2057 218.56 75.18 218.5 75.1287C218.449 75.0688 218.423 75.0003 218.423 74.9233L218.872 70.5335C218.881 70.4223 218.919 70.3367 218.988 70.2768C219.056 70.2169 219.137 70.187 219.231 70.187H224.058C224.143 70.187 224.216 70.2169 224.276 70.2768C224.336 70.3367 224.366 70.4095 224.366 70.495V71.355C224.366 71.4406 224.336 71.5133 224.276 71.5732C224.216 71.6331 224.143 71.6631 224.058 71.6631H220.348L220.143 73.7553C220.297 73.6526 220.502 73.5542 220.759 73.4601C221.016 73.3659 221.371 73.3189 221.824 73.3189C222.235 73.3189 222.624 73.3873 222.992 73.5242C223.369 73.6526 223.703 73.8451 223.993 74.1018C224.284 74.35 224.511 74.6538 224.674 75.0132C224.845 75.364 224.93 75.7662 224.93 76.2197C224.93 76.8444 224.785 77.3877 224.494 77.8498C224.203 78.3119 223.797 78.6713 223.275 78.928C222.753 79.1847 222.137 79.3131 221.426 79.3131ZM226.282 80.1345C226.204 80.1345 226.145 80.1089 226.102 80.0575C226.059 80.0062 226.042 79.942 226.05 79.865L226.397 77.683C226.414 77.5717 226.453 77.4776 226.513 77.4006C226.581 77.315 226.679 77.2722 226.808 77.2722H227.989C228.057 77.2722 228.113 77.2979 228.156 77.3492C228.198 77.392 228.22 77.4476 228.22 77.5161C228.22 77.576 228.207 77.6316 228.181 77.683L227.36 79.8137C227.325 79.8992 227.274 79.972 227.206 80.0319C227.146 80.1003 227.056 80.1345 226.936 80.1345H226.282ZM232.952 79.3131C232.216 79.3131 231.595 79.1933 231.091 78.9537C230.586 78.7055 230.201 78.3846 229.935 77.991C229.679 77.5974 229.542 77.1781 229.525 76.7331C229.516 76.6561 229.538 76.5962 229.589 76.5534C229.649 76.5021 229.717 76.4764 229.794 76.4764H230.988C231.082 76.4764 231.159 76.4978 231.219 76.5406C231.287 76.5748 231.339 76.639 231.373 76.7331C231.459 76.9898 231.578 77.1995 231.732 77.3621C231.895 77.5246 232.079 77.6444 232.284 77.7215C232.498 77.7985 232.721 77.837 232.952 77.837C233.26 77.837 233.538 77.7771 233.786 77.6573C234.043 77.5289 234.248 77.3407 234.402 77.0925C234.556 76.8444 234.633 76.5406 234.633 76.1812C234.633 75.8646 234.561 75.5908 234.415 75.3597C234.27 75.1287 234.068 74.949 233.812 74.8206C233.564 74.6837 233.277 74.6153 232.952 74.6153C232.712 74.6153 232.515 74.6452 232.361 74.7051C232.207 74.765 232.075 74.8335 231.963 74.9105C231.861 74.9875 231.767 75.0559 231.681 75.1158C231.604 75.1757 231.514 75.2057 231.412 75.2057H230.231C230.154 75.2057 230.085 75.18 230.025 75.1287C229.974 75.0688 229.948 75.0003 229.948 74.9233L230.398 70.5335C230.406 70.4223 230.445 70.3367 230.513 70.2768C230.581 70.2169 230.663 70.187 230.757 70.187H235.583C235.669 70.187 235.741 70.2169 235.801 70.2768C235.861 70.3367 235.891 70.4095 235.891 70.495V71.355C235.891 71.4406 235.861 71.5133 235.801 71.5732C235.741 71.6331 235.669 71.6631 235.583 71.6631H231.874L231.668 73.7553C231.822 73.6526 232.028 73.5542 232.284 73.4601C232.541 73.3659 232.896 73.3189 233.35 73.3189C233.76 73.3189 234.15 73.3873 234.518 73.5242C234.894 73.6526 235.228 73.8451 235.519 74.1018C235.81 74.35 236.037 74.6538 236.199 75.0132C236.37 75.364 236.456 75.7662 236.456 76.2197C236.456 76.8444 236.31 77.3877 236.019 77.8498C235.729 78.3119 235.322 78.6713 234.8 78.928C234.278 79.1847 233.662 79.3131 232.952 79.3131ZM241.322 79.3002C240.715 79.3002 240.197 79.2104 239.769 79.0307C239.341 78.851 238.99 78.6028 238.716 78.2862C238.443 77.9696 238.237 77.6059 238.1 77.1952C237.963 76.7759 237.882 76.3309 237.856 75.8603C237.848 75.6293 237.839 75.3768 237.831 75.103C237.831 74.8206 237.831 74.5382 237.831 74.2559C237.839 73.9735 237.848 73.7125 237.856 73.4729C237.874 73.0023 237.955 72.5616 238.1 72.1508C238.246 71.7315 238.455 71.3679 238.729 71.0598C239.012 70.7518 239.367 70.5079 239.795 70.3282C240.222 70.1485 240.732 70.0586 241.322 70.0586C241.921 70.0586 242.434 70.1485 242.862 70.3282C243.29 70.5079 243.641 70.7518 243.915 71.0598C244.197 71.3679 244.407 71.7315 244.544 72.1508C244.689 72.5616 244.771 73.0023 244.788 73.4729C244.805 73.7125 244.813 73.9735 244.813 74.2559C244.813 74.5382 244.813 74.8206 244.813 75.103C244.813 75.3768 244.805 75.6293 244.788 75.8603C244.771 76.3309 244.694 76.7759 244.557 77.1952C244.42 77.6059 244.214 77.9696 243.941 78.2862C243.667 78.6028 243.312 78.851 242.875 79.0307C242.447 79.2104 241.93 79.3002 241.322 79.3002ZM241.322 77.8241C241.878 77.8241 242.285 77.6444 242.541 77.285C242.807 76.9171 242.944 76.4208 242.952 75.7961C242.969 75.548 242.978 75.2998 242.978 75.0517C242.978 74.795 242.978 74.5382 242.978 74.2815C242.978 74.0248 242.969 73.7809 242.952 73.5499C242.944 72.9424 242.807 72.4546 242.541 72.0867C242.285 71.7101 241.878 71.5219 241.322 71.5219C240.774 71.5219 240.368 71.7101 240.103 72.0867C239.846 72.4546 239.709 72.9424 239.692 73.5499C239.692 73.7809 239.688 74.0248 239.679 74.2815C239.679 74.5382 239.679 74.795 239.679 75.0517C239.688 75.2998 239.692 75.548 239.692 75.7961C239.709 76.4208 239.85 76.9171 240.116 77.285C240.381 77.6444 240.783 77.8241 241.322 77.8241ZM249.886 79.3002C249.279 79.3002 248.761 79.2104 248.333 79.0307C247.905 78.851 247.555 78.6028 247.281 78.2862C247.007 77.9696 246.801 77.6059 246.665 77.1952C246.528 76.7759 246.446 76.3309 246.421 75.8603C246.412 75.6293 246.404 75.3768 246.395 75.103C246.395 74.8206 246.395 74.5382 246.395 74.2559C246.404 73.9735 246.412 73.7125 246.421 73.4729C246.438 73.0023 246.519 72.5616 246.665 72.1508C246.81 71.7315 247.02 71.3679 247.294 71.0598C247.576 70.7518 247.931 70.5079 248.359 70.3282C248.787 70.1485 249.296 70.0586 249.886 70.0586C250.485 70.0586 250.999 70.1485 251.427 70.3282C251.854 70.5079 252.205 70.7518 252.479 71.0598C252.761 71.3679 252.971 71.7315 253.108 72.1508C253.253 72.5616 253.335 73.0023 253.352 73.4729C253.369 73.7125 253.378 73.9735 253.378 74.2559C253.378 74.5382 253.378 74.8206 253.378 75.103C253.378 75.3768 253.369 75.6293 253.352 75.8603C253.335 76.3309 253.258 76.7759 253.121 77.1952C252.984 77.6059 252.779 77.9696 252.505 78.2862C252.231 78.6028 251.876 78.851 251.439 79.0307C251.012 79.2104 250.494 79.3002 249.886 79.3002ZM249.886 77.8241C250.442 77.8241 250.849 77.6444 251.106 77.285C251.371 76.9171 251.508 76.4208 251.516 75.7961C251.534 75.548 251.542 75.2998 251.542 75.0517C251.542 74.795 251.542 74.5382 251.542 74.2815C251.542 74.0248 251.534 73.7809 251.516 73.5499C251.508 72.9424 251.371 72.4546 251.106 72.0867C250.849 71.7101 250.442 71.5219 249.886 71.5219C249.339 71.5219 248.932 71.7101 248.667 72.0867C248.41 72.4546 248.273 72.9424 248.256 73.5499C248.256 73.7809 248.252 74.0248 248.243 74.2815C248.243 74.5382 248.243 74.795 248.243 75.0517C248.252 75.2998 248.256 75.548 248.256 75.7961C248.273 76.4208 248.414 76.9171 248.68 77.285C248.945 77.6444 249.347 77.8241 249.886 77.8241Z" fill="#28A573"/>
<path d="M22.4119 56.3281C22.3178 56.3281 22.245 56.3025 22.1937 56.2511C22.1424 56.1912 22.1167 56.1185 22.1167 56.0329V47.6385C22.1167 47.5529 22.1424 47.4844 22.1937 47.4331C22.245 47.3732 22.3178 47.3432 22.4119 47.3432H23.0922C23.1778 47.3432 23.2462 47.3732 23.2976 47.4331C23.3575 47.4844 23.3874 47.5529 23.3874 47.6385V56.0329C23.3874 56.1185 23.3575 56.1912 23.2976 56.2511C23.2462 56.3025 23.1778 56.3281 23.0922 56.3281H22.4119ZM25.8648 56.3281C25.7792 56.3281 25.7065 56.3025 25.6466 56.2511C25.5952 56.1912 25.5696 56.1185 25.5696 56.0329V49.9489C25.5696 49.8633 25.5952 49.7948 25.6466 49.7435C25.7065 49.6836 25.7792 49.6536 25.8648 49.6536H26.4681C26.5536 49.6536 26.6221 49.6836 26.6734 49.7435C26.7333 49.7948 26.7633 49.8633 26.7633 49.9489V50.5136C26.9858 50.2227 27.2639 49.9874 27.5976 49.8077C27.9399 49.6194 28.3763 49.5253 28.9068 49.5253C29.463 49.5253 29.9337 49.6494 30.3187 49.8975C30.7123 50.1371 31.0076 50.4751 31.2044 50.9115C31.4012 51.3394 31.4996 51.84 31.4996 52.4133V56.0329C31.4996 56.1185 31.4739 56.1912 31.4226 56.2511C31.3712 56.3025 31.3028 56.3281 31.2172 56.3281H30.5754C30.4899 56.3281 30.4171 56.3025 30.3572 56.2511C30.3059 56.1912 30.2802 56.1185 30.2802 56.0329V52.4775C30.2802 51.8785 30.1347 51.4121 29.8438 51.0784C29.5529 50.7361 29.125 50.565 28.5603 50.565C28.0297 50.565 27.6019 50.7361 27.2767 51.0784C26.9601 51.4121 26.8018 51.8785 26.8018 52.4775V56.0329C26.8018 56.1185 26.7718 56.1912 26.7119 56.2511C26.6606 56.3025 26.5921 56.3281 26.5066 56.3281H25.8648ZM35.5989 56.3281C35.4705 56.3281 35.3678 56.2982 35.2908 56.2383C35.2224 56.1784 35.1667 56.1014 35.1239 56.0072L32.7494 50.0515C32.7323 50.0088 32.7237 49.966 32.7237 49.9232C32.7237 49.8462 32.7494 49.782 32.8007 49.7307C32.8521 49.6793 32.9162 49.6536 32.9932 49.6536H33.6094C33.7035 49.6536 33.7762 49.6793 33.8276 49.7307C33.8789 49.782 33.9088 49.8291 33.9174 49.8718L35.8812 54.9291L37.8322 49.8718C37.8494 49.8291 37.8793 49.782 37.9221 49.7307C37.9734 49.6793 38.0462 49.6536 38.1403 49.6536H38.7692C38.8377 49.6536 38.8976 49.6793 38.9489 49.7307C39.0088 49.782 39.0388 49.8462 39.0388 49.9232C39.0388 49.966 39.0302 50.0088 39.0131 50.0515L36.6257 56.0072C36.5915 56.1014 36.5359 56.1784 36.4588 56.2383C36.3904 56.2982 36.2877 56.3281 36.1508 56.3281H35.5989ZM42.9116 56.4565C42.0303 56.4565 41.3286 56.1869 40.8066 55.6478C40.2846 55.1002 39.998 54.3557 39.9466 53.4145C39.9381 53.3032 39.9338 53.162 39.9338 52.9909C39.9338 52.8112 39.9381 52.6657 39.9466 52.5545C39.9808 51.9469 40.122 51.4164 40.3702 50.9629C40.6183 50.5008 40.9563 50.1457 41.3842 49.8975C41.8206 49.6494 42.3298 49.5253 42.9116 49.5253C43.562 49.5253 44.1053 49.6622 44.5417 49.936C44.9867 50.2098 45.3247 50.5992 45.5558 51.1041C45.7868 51.6089 45.9023 52.1994 45.9023 52.8754V53.0936C45.9023 53.1877 45.8724 53.2604 45.8125 53.3118C45.7611 53.3631 45.6927 53.3888 45.6071 53.3888H41.166C41.166 53.3973 41.166 53.4145 41.166 53.4401C41.166 53.4658 41.166 53.4872 41.166 53.5043C41.1831 53.8551 41.2601 54.1846 41.397 54.4926C41.5339 54.7921 41.7308 55.036 41.9875 55.2243C42.2442 55.4125 42.5522 55.5066 42.9116 55.5066C43.2197 55.5066 43.4764 55.4596 43.6818 55.3655C43.8871 55.2713 44.054 55.1686 44.1823 55.0574C44.3107 54.9376 44.3963 54.8478 44.4391 54.7879C44.5161 54.6766 44.576 54.6124 44.6188 54.5953C44.6615 54.5697 44.73 54.5568 44.8241 54.5568H45.4402C45.5258 54.5568 45.5943 54.5825 45.6456 54.6338C45.7055 54.6766 45.7312 54.7408 45.7226 54.8264C45.7141 54.9547 45.6456 55.113 45.5172 55.3013C45.3889 55.481 45.2049 55.6607 44.9653 55.8404C44.7257 56.0201 44.4348 56.1698 44.0925 56.2896C43.7502 56.4009 43.3566 56.4565 42.9116 56.4565ZM41.166 52.5031H44.6829V52.4646C44.6829 52.0796 44.6102 51.7373 44.4647 51.4378C44.3278 51.1383 44.1267 50.903 43.8615 50.7318C43.5962 50.5521 43.2796 50.4623 42.9116 50.4623C42.5437 50.4623 42.2271 50.5521 41.9618 50.7318C41.7051 50.903 41.5083 51.1383 41.3714 51.4378C41.2345 51.7373 41.166 52.0796 41.166 52.4646V52.5031ZM49.8575 56.4565C49.3783 56.4565 48.9676 56.3966 48.6253 56.2768C48.283 56.157 48.0049 56.0115 47.791 55.8404C47.577 55.6692 47.4144 55.4981 47.3032 55.327C47.2005 55.1558 47.1449 55.0189 47.1363 54.9162C47.1278 54.8221 47.1577 54.7494 47.2262 54.698C47.2947 54.6467 47.3631 54.621 47.4316 54.621H47.9963C48.0477 54.621 48.0862 54.6296 48.1118 54.6467C48.1461 54.6552 48.1889 54.6895 48.2402 54.7494C48.3514 54.8692 48.4755 54.9889 48.6124 55.1087C48.7493 55.2285 48.9162 55.327 49.113 55.404C49.3184 55.481 49.5708 55.5195 49.8703 55.5195C50.3067 55.5195 50.6661 55.4382 50.9485 55.2756C51.2309 55.1045 51.3721 54.8563 51.3721 54.5311C51.3721 54.3172 51.3122 54.1461 51.1924 54.0177C51.0811 53.8894 50.8758 53.7739 50.5763 53.6712C50.2853 53.5685 49.8832 53.4615 49.3697 53.3503C48.8563 53.2305 48.4498 53.085 48.1504 52.9139C47.8509 52.7342 47.6369 52.5245 47.5086 52.2849C47.3802 52.0368 47.316 51.7587 47.316 51.4506C47.316 51.134 47.4102 50.8302 47.5984 50.5393C47.7867 50.2398 48.0605 49.9959 48.4199 49.8077C48.7879 49.6194 49.2457 49.5253 49.7933 49.5253C50.2383 49.5253 50.6191 49.5809 50.9357 49.6921C51.2523 49.8034 51.5133 49.9446 51.7186 50.1157C51.924 50.2783 52.078 50.4409 52.1807 50.6035C52.2834 50.7661 52.339 50.903 52.3476 51.0142C52.3561 51.0998 52.3305 51.1725 52.2706 51.2324C52.2107 51.2838 52.1422 51.3094 52.0652 51.3094H51.5261C51.4662 51.3094 51.4149 51.2966 51.3721 51.2709C51.3378 51.2452 51.3036 51.2153 51.2694 51.1811C51.1838 51.0698 51.0811 50.9586 50.9613 50.8473C50.8501 50.7361 50.7003 50.6463 50.5121 50.5778C50.3324 50.5008 50.0928 50.4623 49.7933 50.4623C49.3655 50.4623 49.0446 50.5521 48.8306 50.7318C48.6167 50.9115 48.5097 51.1383 48.5097 51.4121C48.5097 51.5747 48.5568 51.7202 48.6509 51.8485C48.7451 51.9769 48.9248 52.0924 49.19 52.1951C49.4553 52.2978 49.8489 52.409 50.3709 52.5288C50.9357 52.64 51.3806 52.7898 51.7058 52.978C52.031 53.1663 52.262 53.3845 52.3989 53.6327C52.5358 53.8808 52.6043 54.1675 52.6043 54.4926C52.6043 54.852 52.4973 55.1815 52.2834 55.481C52.078 55.7805 51.77 56.0201 51.3592 56.1998C50.9571 56.3709 50.4565 56.4565 49.8575 56.4565ZM56.7933 56.3281C56.3141 56.3281 55.9248 56.2383 55.6253 56.0586C55.3258 55.8703 55.1076 55.6093 54.9707 55.2756C54.8337 54.9333 54.7653 54.5311 54.7653 54.0691V50.6805H53.7641C53.6785 50.6805 53.6058 50.6548 53.5459 50.6035C53.4946 50.5436 53.4689 50.4708 53.4689 50.3853V49.9489C53.4689 49.8633 53.4946 49.7948 53.5459 49.7435C53.6058 49.6836 53.6785 49.6536 53.7641 49.6536H54.7653V47.5101C54.7653 47.4245 54.791 47.3561 54.8423 47.3047C54.9022 47.2448 54.9749 47.2149 55.0605 47.2149H55.6638C55.7493 47.2149 55.8178 47.2448 55.8691 47.3047C55.929 47.3561 55.959 47.4245 55.959 47.5101V49.6536H57.5506C57.6362 49.6536 57.7046 49.6836 57.756 49.7435C57.8159 49.7948 57.8458 49.8633 57.8458 49.9489V50.3853C57.8458 50.4708 57.8159 50.5436 57.756 50.6035C57.7046 50.6548 57.6362 50.6805 57.5506 50.6805H55.959V53.9792C55.959 54.3814 56.0275 54.698 56.1644 54.9291C56.3013 55.1601 56.5452 55.2756 56.896 55.2756H57.679C57.7645 55.2756 57.833 55.3056 57.8843 55.3655C57.9442 55.4168 57.9742 55.4853 57.9742 55.5708V56.0329C57.9742 56.1185 57.9442 56.1912 57.8843 56.2511C57.833 56.3025 57.7645 56.3281 57.679 56.3281H56.7933ZM61.9686 56.4565C61.0872 56.4565 60.3855 56.1869 59.8635 55.6478C59.3415 55.1002 59.0549 54.3557 59.0035 53.4145C58.995 53.3032 58.9907 53.162 58.9907 52.9909C58.9907 52.8112 58.995 52.6657 59.0035 52.5545C59.0378 51.9469 59.179 51.4164 59.4271 50.9629C59.6753 50.5008 60.0133 50.1457 60.4411 49.8975C60.8775 49.6494 61.3867 49.5253 61.9686 49.5253C62.6189 49.5253 63.1623 49.6622 63.5987 49.936C64.0436 50.2098 64.3816 50.5992 64.6127 51.1041C64.8437 51.6089 64.9592 52.1994 64.9592 52.8754V53.0936C64.9592 53.1877 64.9293 53.2604 64.8694 53.3118C64.818 53.3631 64.7496 53.3888 64.664 53.3888H60.2229C60.2229 53.3973 60.2229 53.4145 60.2229 53.4401C60.2229 53.4658 60.2229 53.4872 60.2229 53.5043C60.24 53.8551 60.317 54.1846 60.454 54.4926C60.5909 54.7921 60.7877 55.036 61.0444 55.2243C61.3011 55.4125 61.6092 55.5066 61.9686 55.5066C62.2766 55.5066 62.5333 55.4596 62.7387 55.3655C62.9441 55.2713 63.1109 55.1686 63.2393 55.0574C63.3676 54.9376 63.4532 54.8478 63.496 54.7879C63.573 54.6766 63.6329 54.6124 63.6757 54.5953C63.7185 54.5697 63.7869 54.5568 63.881 54.5568H64.4972C64.5827 54.5568 64.6512 54.5825 64.7025 54.6338C64.7624 54.6766 64.7881 54.7408 64.7795 54.8264C64.771 54.9547 64.7025 55.113 64.5742 55.3013C64.4458 55.481 64.2618 55.6607 64.0222 55.8404C63.7826 56.0201 63.4917 56.1698 63.1494 56.2896C62.8071 56.4009 62.4135 56.4565 61.9686 56.4565ZM60.2229 52.5031H63.7399V52.4646C63.7399 52.0796 63.6671 51.7373 63.5217 51.4378C63.3847 51.1383 63.1837 50.903 62.9184 50.7318C62.6531 50.5521 62.3365 50.4623 61.9686 50.4623C61.6006 50.4623 61.284 50.5521 61.0187 50.7318C60.762 50.903 60.5652 51.1383 60.4283 51.4378C60.2914 51.7373 60.2229 52.0796 60.2229 52.4646V52.5031ZM69.0428 56.4565C68.5721 56.4565 68.1657 56.3752 67.8234 56.2126C67.4811 56.0415 67.1987 55.8147 66.9762 55.5323C66.7623 55.2414 66.5997 54.9119 66.4885 54.544C66.3858 54.176 66.3259 53.7867 66.3088 53.3759C66.3002 53.239 66.296 53.1107 66.296 52.9909C66.296 52.8711 66.3002 52.7427 66.3088 52.6058C66.3259 52.2036 66.3858 51.8186 66.4885 51.4506C66.5997 51.0827 66.7623 50.7532 66.9762 50.4623C67.1987 50.1713 67.4811 49.9446 67.8234 49.782C68.1657 49.6109 68.5721 49.5253 69.0428 49.5253C69.5476 49.5253 69.9669 49.6151 70.3006 49.7948C70.6344 49.9745 70.9082 50.197 71.1221 50.4623V47.5101C71.1221 47.4245 71.1478 47.3561 71.1991 47.3047C71.259 47.2448 71.3318 47.2149 71.4173 47.2149H72.0334C72.119 47.2149 72.1875 47.2448 72.2388 47.3047C72.2987 47.3561 72.3287 47.4245 72.3287 47.5101V56.0329C72.3287 56.1185 72.2987 56.1912 72.2388 56.2511C72.1875 56.3025 72.119 56.3281 72.0334 56.3281H71.4558C71.3617 56.3281 71.289 56.3025 71.2376 56.2511C71.1863 56.1912 71.1606 56.1185 71.1606 56.0329V55.4938C70.9467 55.7676 70.6686 55.9987 70.3263 56.1869C69.984 56.3666 69.5562 56.4565 69.0428 56.4565ZM69.3123 55.4168C69.7402 55.4168 70.0824 55.3184 70.3392 55.1216C70.5959 54.9248 70.7884 54.6766 70.9168 54.3771C71.0451 54.0691 71.1136 53.7567 71.1221 53.4401C71.1307 53.3032 71.135 53.1406 71.135 52.9524C71.135 52.7556 71.1307 52.5887 71.1221 52.4518C71.1136 52.1523 71.0408 51.8571 70.9039 51.5661C70.7756 51.2752 70.5787 51.0356 70.3135 50.8473C70.0568 50.6591 69.723 50.565 69.3123 50.565C68.8759 50.565 68.5293 50.6634 68.2726 50.8602C68.0159 51.0484 67.8319 51.3009 67.7207 51.6175C67.6095 51.9255 67.5453 52.2593 67.5282 52.6187C67.5196 52.8668 67.5196 53.115 67.5282 53.3631C67.5453 53.7225 67.6095 54.0605 67.7207 54.3771C67.8319 54.6852 68.0159 54.9376 68.2726 55.1344C68.5293 55.3227 68.8759 55.4168 69.3123 55.4168Z" fill="#132056"/>
<path d="M212.246 56.1284C211.458 56.1284 210.804 55.9829 210.282 55.6919C209.768 55.401 209.379 54.9945 209.114 54.4726C208.848 53.9506 208.703 53.343 208.677 52.6499C208.669 52.2991 208.664 51.9226 208.664 51.5204C208.664 51.1182 208.669 50.7331 208.677 50.3652C208.703 49.6721 208.848 49.0645 209.114 48.5425C209.379 48.0206 209.768 47.6141 210.282 47.3232C210.804 47.0322 211.458 46.8868 212.246 46.8868C212.836 46.8868 213.354 46.9681 213.799 47.1306C214.244 47.2932 214.612 47.5114 214.903 47.7852C215.202 48.0591 215.429 48.3671 215.583 48.7094C215.737 49.0431 215.822 49.3897 215.84 49.7491C215.848 49.8261 215.822 49.8903 215.763 49.9416C215.711 49.993 215.647 50.0186 215.57 50.0186H214.864C214.787 50.0186 214.719 49.9972 214.659 49.9545C214.607 49.9117 214.569 49.8347 214.543 49.7234C214.398 49.056 214.124 48.5982 213.722 48.35C213.328 48.1019 212.832 47.9778 212.233 47.9778C211.548 47.9778 211.005 48.1746 210.603 48.5682C210.2 48.9533 209.982 49.5737 209.948 50.4294C209.922 51.131 209.922 51.8498 209.948 52.5857C209.982 53.4414 210.2 54.0661 210.603 54.4597C211.005 54.8448 211.548 55.0373 212.233 55.0373C212.832 55.0373 213.328 54.9133 213.722 54.6651C214.124 54.4169 214.398 53.9591 214.543 53.2917C214.569 53.1805 214.607 53.1034 214.659 53.0607C214.719 53.0179 214.787 52.9965 214.864 52.9965H215.57C215.647 52.9965 215.711 53.0222 215.763 53.0735C215.822 53.1248 215.848 53.189 215.84 53.266C215.822 53.6254 215.737 53.9763 215.583 54.3185C215.429 54.6523 215.202 54.956 214.903 55.2299C214.612 55.5037 214.244 55.7219 213.799 55.8845C213.354 56.0471 212.836 56.1284 212.246 56.1284ZM219.993 56.1284C219.445 56.1284 218.979 56.0086 218.594 55.769C218.217 55.5208 217.931 55.1785 217.734 54.7421C217.537 54.3057 217.439 53.8051 217.439 53.2404V49.6207C217.439 49.5352 217.464 49.4667 217.516 49.4154C217.576 49.3555 217.648 49.3255 217.734 49.3255H218.376C218.461 49.3255 218.53 49.3555 218.581 49.4154C218.641 49.4667 218.671 49.5352 218.671 49.6207V53.1762C218.671 54.4512 219.227 55.0887 220.34 55.0887C220.87 55.0887 221.294 54.9218 221.61 54.5881C221.935 54.2458 222.098 53.7752 222.098 53.1762V49.6207C222.098 49.5352 222.124 49.4667 222.175 49.4154C222.235 49.3555 222.308 49.3255 222.393 49.3255H223.022C223.116 49.3255 223.189 49.3555 223.24 49.4154C223.292 49.4667 223.317 49.5352 223.317 49.6207V55.7048C223.317 55.7904 223.292 55.8631 223.24 55.923C223.189 55.9743 223.116 56 223.022 56H222.432C222.346 56 222.273 55.9743 222.213 55.923C222.162 55.8631 222.136 55.7904 222.136 55.7048V55.14C221.905 55.4395 221.623 55.6791 221.289 55.8588C220.964 56.0385 220.532 56.1284 219.993 56.1284ZM225.629 56C225.544 56 225.471 55.9743 225.411 55.923C225.36 55.8631 225.334 55.7904 225.334 55.7048V49.6336C225.334 49.548 225.36 49.4753 225.411 49.4154C225.471 49.3555 225.544 49.3255 225.629 49.3255H226.22C226.305 49.3255 226.378 49.3555 226.438 49.4154C226.498 49.4753 226.528 49.548 226.528 49.6336V50.1983C226.699 49.9074 226.934 49.6892 227.234 49.5437C227.533 49.3982 227.893 49.3255 228.312 49.3255H228.826C228.911 49.3255 228.98 49.3555 229.031 49.4154C229.082 49.4667 229.108 49.5352 229.108 49.6207V50.147C229.108 50.2326 229.082 50.301 229.031 50.3524C228.98 50.4037 228.911 50.4294 228.826 50.4294H228.055C227.593 50.4294 227.23 50.5663 226.964 50.8401C226.699 51.1054 226.566 51.4691 226.566 51.9311V55.7048C226.566 55.7904 226.537 55.8631 226.477 55.923C226.417 55.9743 226.344 56 226.258 56H225.629ZM230.615 56C230.53 56 230.457 55.9743 230.397 55.923C230.346 55.8631 230.32 55.7904 230.32 55.7048V49.6336C230.32 49.548 230.346 49.4753 230.397 49.4154C230.457 49.3555 230.53 49.3255 230.615 49.3255H231.206C231.291 49.3255 231.364 49.3555 231.424 49.4154C231.484 49.4753 231.514 49.548 231.514 49.6336V50.1983C231.685 49.9074 231.92 49.6892 232.22 49.5437C232.519 49.3982 232.879 49.3255 233.298 49.3255H233.812C233.897 49.3255 233.966 49.3555 234.017 49.4154C234.068 49.4667 234.094 49.5352 234.094 49.6207V50.147C234.094 50.2326 234.068 50.301 234.017 50.3524C233.966 50.4037 233.897 50.4294 233.812 50.4294H233.041C232.579 50.4294 232.216 50.5663 231.95 50.8401C231.685 51.1054 231.552 51.4691 231.552 51.9311V55.7048C231.552 55.7904 231.523 55.8631 231.463 55.923C231.403 55.9743 231.33 56 231.244 56H230.615ZM237.838 56.1284C236.957 56.1284 236.255 55.8588 235.733 55.3197C235.211 54.7721 234.924 54.0276 234.873 53.0863C234.864 52.9751 234.86 52.8339 234.86 52.6628C234.86 52.4831 234.864 52.3376 234.873 52.2263C234.907 51.6188 235.048 51.0883 235.296 50.6347C235.545 50.1727 235.883 49.8175 236.31 49.5694C236.747 49.3212 237.256 49.1972 237.838 49.1972C238.488 49.1972 239.032 49.3341 239.468 49.6079C239.913 49.8817 240.251 50.2711 240.482 50.7759C240.713 51.2808 240.829 51.8712 240.829 52.5472V52.7654C240.829 52.8596 240.799 52.9323 240.739 52.9836C240.687 53.035 240.619 53.0607 240.533 53.0607H236.092C236.092 53.0692 236.092 53.0863 236.092 53.112C236.092 53.1377 236.092 53.1591 236.092 53.1762C236.109 53.527 236.186 53.8565 236.323 54.1645C236.46 54.464 236.657 54.7079 236.914 54.8961C237.17 55.0844 237.479 55.1785 237.838 55.1785C238.146 55.1785 238.403 55.1315 238.608 55.0373C238.813 54.9432 238.98 54.8405 239.109 54.7293C239.237 54.6095 239.323 54.5196 239.365 54.4597C239.442 54.3485 239.502 54.2843 239.545 54.2672C239.588 54.2415 239.656 54.2287 239.75 54.2287H240.367C240.452 54.2287 240.521 54.2544 240.572 54.3057C240.632 54.3485 240.657 54.4127 240.649 54.4982C240.64 54.6266 240.572 54.7849 240.444 54.9732C240.315 55.1529 240.131 55.3326 239.892 55.5122C239.652 55.6919 239.361 55.8417 239.019 55.9615C238.676 56.0727 238.283 56.1284 237.838 56.1284ZM236.092 52.175H239.609V52.1365C239.609 51.7514 239.536 51.4092 239.391 51.1097C239.254 50.8102 239.053 50.5748 238.788 50.4037C238.522 50.224 238.206 50.1342 237.838 50.1342C237.47 50.1342 237.153 50.224 236.888 50.4037C236.631 50.5748 236.435 50.8102 236.298 51.1097C236.161 51.4092 236.092 51.7514 236.092 52.1365V52.175ZM242.769 56C242.683 56 242.61 55.9743 242.55 55.923C242.499 55.8631 242.473 55.7904 242.473 55.7048V49.6207C242.473 49.5352 242.499 49.4667 242.55 49.4154C242.61 49.3555 242.683 49.3255 242.769 49.3255H243.372C243.457 49.3255 243.526 49.3555 243.577 49.4154C243.637 49.4667 243.667 49.5352 243.667 49.6207V50.1855C243.89 49.8946 244.168 49.6592 244.501 49.4795C244.844 49.2913 245.28 49.1972 245.811 49.1972C246.367 49.1972 246.837 49.3212 247.223 49.5694C247.616 49.809 247.911 50.147 248.108 50.5834C248.305 51.0112 248.403 51.5118 248.403 52.0852V55.7048C248.403 55.7904 248.378 55.8631 248.326 55.923C248.275 55.9743 248.207 56 248.121 56H247.479C247.394 56 247.321 55.9743 247.261 55.923C247.21 55.8631 247.184 55.7904 247.184 55.7048V52.1493C247.184 51.5503 247.039 51.084 246.748 50.7503C246.457 50.408 246.029 50.2368 245.464 50.2368C244.934 50.2368 244.506 50.408 244.18 50.7503C243.864 51.084 243.706 51.5503 243.706 52.1493V55.7048C243.706 55.7904 243.676 55.8631 243.616 55.923C243.564 55.9743 243.496 56 243.41 56H242.769ZM252.885 56C252.406 56 252.017 55.9102 251.717 55.7305C251.418 55.5422 251.2 55.2812 251.063 54.9475C250.926 54.6052 250.857 54.203 250.857 53.7409V50.3524H249.856C249.771 50.3524 249.698 50.3267 249.638 50.2753C249.587 50.2154 249.561 50.1427 249.561 50.0571V49.6207C249.561 49.5352 249.587 49.4667 249.638 49.4154C249.698 49.3555 249.771 49.3255 249.856 49.3255H250.857V47.182C250.857 47.0964 250.883 47.028 250.934 46.9766C250.994 46.9167 251.067 46.8868 251.153 46.8868H251.756C251.841 46.8868 251.91 46.9167 251.961 46.9766C252.021 47.028 252.051 47.0964 252.051 47.182V49.3255H253.643C253.728 49.3255 253.797 49.3555 253.848 49.4154C253.908 49.4667 253.938 49.5352 253.938 49.6207V50.0571C253.938 50.1427 253.908 50.2154 253.848 50.2753C253.797 50.3267 253.728 50.3524 253.643 50.3524H252.051V53.6511C252.051 54.0533 252.119 54.3699 252.256 54.6009C252.393 54.832 252.637 54.9475 252.988 54.9475H253.771C253.857 54.9475 253.925 54.9774 253.976 55.0373C254.036 55.0887 254.066 55.1571 254.066 55.2427V55.7048C254.066 55.7904 254.036 55.8631 253.976 55.923C253.925 55.9743 253.857 56 253.771 56H252.885Z" fill="#132056"/>
<path d="M25.0643 78.1719C24.9763 78.1719 24.9066 78.1535 24.8553 78.1169C24.8039 78.0802 24.7563 78.0362 24.7123 77.9848L22.1928 75.1023C22.1342 75.0437 22.0938 74.9923 22.0718 74.9483C22.0571 74.897 22.0498 74.82 22.0498 74.7173V74.4752C22.0498 74.4019 22.0718 74.3432 22.1158 74.2992C22.1672 74.2479 22.2295 74.2222 22.3028 74.2222H22.8969C23.4104 74.2222 23.8028 74.1562 24.0742 74.0242C24.3455 73.8921 24.5289 73.7161 24.6242 73.4961C24.7269 73.276 24.7783 73.023 24.7783 72.7369C24.7783 72.4656 24.7269 72.2198 24.6242 71.9998C24.5289 71.7724 24.3529 71.5927 24.0962 71.4607C23.8394 71.3287 23.4764 71.2627 23.007 71.2627H22.2038C22.1305 71.2627 22.0681 71.2407 22.0168 71.1967C21.9728 71.1453 21.9508 71.083 21.9508 71.0096V70.7236C21.9508 70.6502 21.9728 70.5916 22.0168 70.5476C22.0681 70.4962 22.1305 70.4705 22.2038 70.4705H26.5826C26.6559 70.4705 26.7146 70.4962 26.7586 70.5476C26.81 70.5916 26.8356 70.6502 26.8356 70.7236V71.0096C26.8356 71.083 26.81 71.1453 26.7586 71.1967C26.7146 71.2407 26.6559 71.2627 26.5826 71.2627H24.9103L24.6352 70.9656C25.112 71.083 25.4384 71.3067 25.6144 71.6367C25.7904 71.9668 25.8785 72.3482 25.8785 72.7809C25.8785 73.1843 25.7904 73.5547 25.6144 73.8921C25.4457 74.2295 25.1743 74.5009 24.8003 74.7063C24.4335 74.9043 23.9605 75.0107 23.381 75.0253L23.051 75.0363L23.062 74.5963L25.8785 77.8308C25.9371 77.8895 25.9665 77.9445 25.9665 77.9958C25.9665 78.0545 25.9445 78.0985 25.9005 78.1279C25.8565 78.1572 25.8015 78.1719 25.7354 78.1719H25.0643ZM22.2038 73.023C22.1231 73.023 22.0608 73.001 22.0168 72.957C21.9728 72.913 21.9508 72.8506 21.9508 72.7699V72.4949C21.9508 72.4142 21.9728 72.3519 22.0168 72.3079C22.0681 72.2639 22.1305 72.2419 22.2038 72.2419H26.5826C26.6559 72.2419 26.7146 72.2639 26.7586 72.3079C26.81 72.3519 26.8356 72.4142 26.8356 72.4949V72.7699C26.8356 72.8506 26.81 72.913 26.7586 72.957C26.7146 73.001 26.6559 73.023 26.5826 73.023H22.2038ZM30.7406 78.2819C30.2785 78.2819 29.8751 78.2269 29.5304 78.1169C29.1857 77.9995 28.896 77.8455 28.6613 77.6548C28.4265 77.4641 28.2469 77.2551 28.1222 77.0277C28.0048 76.8003 27.9425 76.5656 27.9351 76.3236C27.9351 76.2575 27.9571 76.2062 28.0011 76.1695C28.0452 76.1329 28.1002 76.1145 28.1662 76.1145H28.7053C28.7713 76.1145 28.83 76.1292 28.8813 76.1585C28.9326 76.1879 28.9766 76.2502 29.0133 76.3456C29.0867 76.6096 29.2114 76.815 29.3874 76.9617C29.5707 77.1084 29.7798 77.211 30.0145 77.2697C30.2565 77.3211 30.4986 77.3467 30.7406 77.3467C31.2467 77.3467 31.6574 77.2257 31.9728 76.9837C32.2882 76.7416 32.4459 76.3859 32.4459 75.9165C32.4459 75.4397 32.3029 75.0987 32.0168 74.8933C31.7308 74.6879 31.3347 74.5853 30.8286 74.5853H29.7835C29.7101 74.5853 29.6478 74.5633 29.5964 74.5192C29.5524 74.4752 29.5304 74.4129 29.5304 74.3322V74.0352C29.5304 73.9691 29.5414 73.9141 29.5634 73.8701C29.5928 73.8188 29.6221 73.7748 29.6514 73.7381L31.7858 71.4057H28.5402C28.4669 71.4057 28.4045 71.3837 28.3532 71.3397C28.3092 71.2957 28.2872 71.2333 28.2872 71.1527V70.7346C28.2872 70.6539 28.3092 70.5916 28.3532 70.5476C28.4045 70.4962 28.4669 70.4705 28.5402 70.4705H32.93C33.0107 70.4705 33.073 70.4962 33.117 70.5476C33.1684 70.5916 33.194 70.6539 33.194 70.7346V71.1307C33.194 71.182 33.1794 71.2297 33.15 71.2737C33.128 71.3104 33.1024 71.347 33.073 71.3837L30.9497 73.7491L31.1257 73.7601C31.6098 73.7748 32.0315 73.8628 32.3909 74.0242C32.7576 74.1855 33.04 74.4276 33.238 74.7503C33.4434 75.0657 33.5461 75.4654 33.5461 75.9495C33.5461 76.4409 33.4251 76.8626 33.183 77.2147C32.941 77.5594 32.6073 77.8235 32.1819 78.0068C31.7565 78.1902 31.276 78.2819 30.7406 78.2819ZM34.8068 78.997C34.7481 78.997 34.7004 78.975 34.6637 78.931C34.6344 78.887 34.6234 78.832 34.6307 78.766L34.8838 77.1927C34.8984 77.1047 34.9278 77.0313 34.9718 76.9727C35.0231 76.9067 35.0965 76.8737 35.1918 76.8737H35.929C35.9803 76.8737 36.0206 76.892 36.05 76.9287C36.0867 76.9653 36.105 77.0093 36.105 77.0607C36.105 77.1194 36.0903 77.178 36.061 77.2367L35.4889 78.744C35.4595 78.8173 35.4192 78.876 35.3679 78.92C35.3239 78.9713 35.2578 78.997 35.1698 78.997H34.8068ZM40.0879 78.2819C39.6259 78.2819 39.2224 78.2269 38.8777 78.1169C38.533 77.9995 38.2433 77.8455 38.0086 77.6548C37.7739 77.4641 37.5942 77.2551 37.4695 77.0277C37.3521 76.8003 37.2898 76.5656 37.2824 76.3236C37.2824 76.2575 37.3045 76.2062 37.3485 76.1695C37.3925 76.1329 37.4475 76.1145 37.5135 76.1145H38.0526C38.1186 76.1145 38.1773 76.1292 38.2286 76.1585C38.28 76.1879 38.324 76.2502 38.3606 76.3456C38.434 76.6096 38.5587 76.815 38.7347 76.9617C38.9181 77.1084 39.1271 77.211 39.3618 77.2697C39.6038 77.3211 39.8459 77.3467 40.0879 77.3467C40.594 77.3467 41.0048 77.2257 41.3201 76.9837C41.6355 76.7416 41.7932 76.3859 41.7932 75.9165C41.7932 75.4397 41.6502 75.0987 41.3642 74.8933C41.0781 74.6879 40.682 74.5853 40.1759 74.5853H39.1308C39.0574 74.5853 38.9951 74.5633 38.9437 74.5192C38.8997 74.4752 38.8777 74.4129 38.8777 74.3322V74.0352C38.8777 73.9691 38.8887 73.9141 38.9107 73.8701C38.9401 73.8188 38.9694 73.7748 38.9987 73.7381L41.1331 71.4057H37.8876C37.8142 71.4057 37.7519 71.3837 37.7005 71.3397C37.6565 71.2957 37.6345 71.2333 37.6345 71.1527V70.7346C37.6345 70.6539 37.6565 70.5916 37.7005 70.5476C37.7519 70.4962 37.8142 70.4705 37.8876 70.4705H42.2773C42.358 70.4705 42.4203 70.4962 42.4643 70.5476C42.5157 70.5916 42.5414 70.6539 42.5414 70.7346V71.1307C42.5414 71.182 42.5267 71.2297 42.4973 71.2737C42.4753 71.3104 42.4497 71.347 42.4203 71.3837L40.297 73.7491L40.473 73.7601C40.9571 73.7748 41.3788 73.8628 41.7382 74.0242C42.1049 74.1855 42.3873 74.4276 42.5854 74.7503C42.7907 75.0657 42.8934 75.4654 42.8934 75.9495C42.8934 76.4409 42.7724 76.8626 42.5304 77.2147C42.2883 77.5594 41.9546 77.8235 41.5292 78.0068C41.1038 78.1902 40.6234 78.2819 40.0879 78.2819ZM46.9046 78.2819C46.3985 78.2819 45.9694 78.2049 45.6173 78.0509C45.2726 77.8895 44.9902 77.6695 44.7702 77.3907C44.5501 77.112 44.3888 76.793 44.2861 76.4336C44.1908 76.0742 44.1357 75.6928 44.1211 75.2894C44.1137 75.0913 44.1064 74.8823 44.0991 74.6623C44.0991 74.4422 44.0991 74.2222 44.0991 74.0022C44.1064 73.7748 44.1137 73.5584 44.1211 73.353C44.1284 72.9496 44.1834 72.5682 44.2861 72.2088C44.3961 71.8421 44.5575 71.5231 44.7702 71.2517C44.9902 70.973 45.2763 70.7566 45.6283 70.6026C45.9804 70.4412 46.4058 70.3605 46.9046 70.3605C47.4106 70.3605 47.836 70.4412 48.1808 70.6026C48.5328 70.7566 48.8189 70.973 49.0389 71.2517C49.259 71.5231 49.4203 71.8421 49.523 72.2088C49.633 72.5682 49.6917 72.9496 49.699 73.353C49.7064 73.5584 49.71 73.7748 49.71 74.0022C49.7174 74.2222 49.7174 74.4422 49.71 74.6623C49.71 74.8823 49.7064 75.0913 49.699 75.2894C49.6917 75.6928 49.633 76.0742 49.523 76.4336C49.4203 76.793 49.259 77.112 49.0389 77.3907C48.8262 77.6695 48.5438 77.8895 48.1918 78.0509C47.8471 78.2049 47.418 78.2819 46.9046 78.2819ZM46.9046 77.3467C47.4767 77.3467 47.8984 77.1597 48.1698 76.7856C48.4485 76.4042 48.5915 75.8871 48.5988 75.2344C48.6135 75.0217 48.6209 74.8163 48.6209 74.6183C48.6209 74.4129 48.6209 74.2112 48.6209 74.0132C48.6209 73.8078 48.6135 73.6061 48.5988 73.4081C48.5915 72.7699 48.4485 72.2602 48.1698 71.8788C47.8984 71.4901 47.4767 71.2957 46.9046 71.2957C46.3398 71.2957 45.9181 71.4901 45.6393 71.8788C45.368 72.2602 45.2249 72.7699 45.2103 73.4081C45.2103 73.6061 45.2066 73.8078 45.1993 74.0132C45.1993 74.2112 45.1993 74.4129 45.1993 74.6183C45.2066 74.8163 45.2103 75.0217 45.2103 75.2344C45.2249 75.8871 45.3716 76.4042 45.6503 76.7856C45.9291 77.1597 46.3471 77.3467 46.9046 77.3467ZM50.9765 78.997C50.9179 78.997 50.8702 78.975 50.8335 78.931C50.8042 78.887 50.7932 78.832 50.8005 78.766L51.0536 77.1927C51.0682 77.1047 51.0976 77.0313 51.1416 76.9727C51.1929 76.9067 51.2663 76.8737 51.3616 76.8737H52.0987C52.1501 76.8737 52.1904 76.892 52.2198 76.9287C52.2564 76.9653 52.2748 77.0093 52.2748 77.0607C52.2748 77.1194 52.2601 77.178 52.2308 77.2367L51.6587 78.744C51.6293 78.8173 51.589 78.876 51.5376 78.92C51.4936 78.9713 51.4276 78.997 51.3396 78.997H50.9765ZM56.1917 78.2819C55.6123 78.2819 55.1209 78.1829 54.7174 77.9848C54.3214 77.7795 54.017 77.5154 53.8043 77.1927C53.5989 76.87 53.4889 76.5289 53.4742 76.1695C53.4669 76.1035 53.4852 76.0522 53.5292 76.0155C53.5733 75.9788 53.6283 75.9605 53.6943 75.9605H54.2884C54.3544 75.9605 54.4131 75.9752 54.4644 76.0045C54.5157 76.0338 54.5561 76.0962 54.5854 76.1915C54.6588 76.4629 54.7761 76.6866 54.9375 76.8626C55.1062 77.0313 55.2969 77.156 55.5096 77.2367C55.7296 77.3101 55.957 77.3467 56.1917 77.3467C56.5071 77.3467 56.7931 77.2844 57.0499 77.1597C57.3139 77.0277 57.5229 76.837 57.677 76.5876C57.831 76.3309 57.908 76.0228 57.908 75.6634C57.908 75.3334 57.831 75.051 57.677 74.8163C57.5303 74.5743 57.3249 74.3909 57.0609 74.2662C56.8041 74.1342 56.5144 74.0682 56.1917 74.0682C55.9497 74.0682 55.7516 74.0975 55.5976 74.1562C55.4436 74.2149 55.3116 74.2845 55.2015 74.3652C55.0988 74.4459 55.0035 74.5156 54.9155 74.5743C54.8348 74.6329 54.7431 74.6623 54.6404 74.6623H54.0683C54.0023 74.6623 53.9436 74.6403 53.8923 74.5963C53.841 74.5449 53.819 74.4862 53.8263 74.4202L54.1784 70.7456C54.1857 70.6576 54.2114 70.5916 54.2554 70.5476C54.3067 70.4962 54.3727 70.4705 54.4534 70.4705H58.2931C58.3664 70.4705 58.4251 70.4962 58.4691 70.5476C58.5204 70.5916 58.5461 70.6502 58.5461 70.7236V71.1527C58.5461 71.2333 58.5204 71.2957 58.4691 71.3397C58.4251 71.3837 58.3664 71.4057 58.2931 71.4057H55.1245L54.9155 73.5731C55.0182 73.5071 55.1832 73.4301 55.4106 73.342C55.6379 73.2467 55.9497 73.199 56.3457 73.199C56.7051 73.199 57.0425 73.254 57.3579 73.364C57.6806 73.4741 57.9667 73.6354 58.2161 73.8481C58.4654 74.0608 58.6598 74.3212 58.7992 74.6293C58.9385 74.93 59.0082 75.2784 59.0082 75.6744C59.0082 76.2319 58.8835 76.705 58.6341 77.0937C58.3921 77.4824 58.0584 77.7795 57.633 77.9848C57.2149 78.1829 56.7345 78.2819 56.1917 78.2819ZM62.9991 78.2819C62.493 78.2819 62.064 78.2049 61.7119 78.0509C61.3672 77.8895 61.0848 77.6695 60.8648 77.3907C60.6447 77.112 60.4834 76.793 60.3807 76.4336C60.2853 76.0742 60.2303 75.6928 60.2156 75.2894C60.2083 75.0913 60.201 74.8823 60.1936 74.6623C60.1936 74.4422 60.1936 74.2222 60.1936 74.0022C60.201 73.7748 60.2083 73.5584 60.2156 73.353C60.223 72.9496 60.278 72.5682 60.3807 72.2088C60.4907 71.8421 60.6521 71.5231 60.8648 71.2517C61.0848 70.973 61.3708 70.7566 61.7229 70.6026C62.075 70.4412 62.5004 70.3605 62.9991 70.3605C63.5052 70.3605 63.9306 70.4412 64.2754 70.6026C64.6274 70.7566 64.9135 70.973 65.1335 71.2517C65.3535 71.5231 65.5149 71.8421 65.6176 72.2088C65.7276 72.5682 65.7863 72.9496 65.7936 73.353C65.8009 73.5584 65.8046 73.7748 65.8046 74.0022C65.8119 74.2222 65.8119 74.4422 65.8046 74.6623C65.8046 74.8823 65.8009 75.0913 65.7936 75.2894C65.7863 75.6928 65.7276 76.0742 65.6176 76.4336C65.5149 76.793 65.3535 77.112 65.1335 77.3907C64.9208 77.6695 64.6384 77.8895 64.2864 78.0509C63.9416 78.2049 63.5126 78.2819 62.9991 78.2819ZM62.9991 77.3467C63.5712 77.3467 63.993 77.1597 64.2643 76.7856C64.5431 76.4042 64.6861 75.8871 64.6934 75.2344C64.7081 75.0217 64.7154 74.8163 64.7154 74.6183C64.7154 74.4129 64.7154 74.2112 64.7154 74.0132C64.7154 73.8078 64.7081 73.6061 64.6934 73.4081C64.6861 72.7699 64.5431 72.2602 64.2643 71.8788C63.993 71.4901 63.5712 71.2957 62.9991 71.2957C62.4344 71.2957 62.0126 71.4901 61.7339 71.8788C61.4625 72.2602 61.3195 72.7699 61.3048 73.4081C61.3048 73.6061 61.3012 73.8078 61.2938 74.0132C61.2938 74.2112 61.2938 74.4129 61.2938 74.6183C61.3012 74.8163 61.3048 75.0217 61.3048 75.2344C61.3195 75.8871 61.4662 76.4042 61.7449 76.7856C62.0236 77.1597 62.4417 77.3467 62.9991 77.3467ZM69.9828 78.2819C69.4767 78.2819 69.0476 78.2049 68.6955 78.0509C68.3508 77.8895 68.0684 77.6695 67.8484 77.3907C67.6284 77.112 67.467 76.793 67.3643 76.4336C67.269 76.0742 67.2139 75.6928 67.1993 75.2894C67.1919 75.0913 67.1846 74.8823 67.1773 74.6623C67.1773 74.4422 67.1773 74.2222 67.1773 74.0022C67.1846 73.7748 67.1919 73.5584 67.1993 73.353C67.2066 72.9496 67.2616 72.5682 67.3643 72.2088C67.4743 71.8421 67.6357 71.5231 67.8484 71.2517C68.0684 70.973 68.3545 70.7566 68.7065 70.6026C69.0586 70.4412 69.484 70.3605 69.9828 70.3605C70.4888 70.3605 70.9143 70.4412 71.259 70.6026C71.611 70.7566 71.8971 70.973 72.1171 71.2517C72.3372 71.5231 72.4985 71.8421 72.6012 72.2088C72.7112 72.5682 72.7699 72.9496 72.7772 73.353C72.7846 73.5584 72.7882 73.7748 72.7882 74.0022C72.7956 74.2222 72.7956 74.4422 72.7882 74.6623C72.7882 74.8823 72.7846 75.0913 72.7772 75.2894C72.7699 75.6928 72.7112 76.0742 72.6012 76.4336C72.4985 76.793 72.3372 77.112 72.1171 77.3907C71.9044 77.6695 71.622 77.8895 71.27 78.0509C70.9253 78.2049 70.4962 78.2819 69.9828 78.2819ZM69.9828 77.3467C70.5549 77.3467 70.9766 77.1597 71.248 76.7856C71.5267 76.4042 71.6697 75.8871 71.677 75.2344C71.6917 75.0217 71.6991 74.8163 71.6991 74.6183C71.6991 74.4129 71.6991 74.2112 71.6991 74.0132C71.6991 73.8078 71.6917 73.6061 71.677 73.4081C71.6697 72.7699 71.5267 72.2602 71.248 71.8788C70.9766 71.4901 70.5549 71.2957 69.9828 71.2957C69.418 71.2957 68.9963 71.4901 68.7175 71.8788C68.4462 72.2602 68.3031 72.7699 68.2885 73.4081C68.2885 73.6061 68.2848 73.8078 68.2775 74.0132C68.2775 74.2112 68.2775 74.4129 68.2775 74.6183C68.2848 74.8163 68.2885 75.0217 68.2885 75.2344C68.3031 75.8871 68.4498 76.4042 68.7285 76.7856C69.0073 77.1597 69.4253 77.3467 69.9828 77.3467Z" fill="#888FAF"/>
</g>
</g>
<defs>
<filter id="filter0_d_2210_6661" x="0.6654" y="0.3327" width="278.072" height="110.086" filterUnits="userSpaceOnUse" color-interpolation-filters="sRGB">
<feFlood flood-opacity="0" result="BackgroundImageFix"/>
<feColorMatrix in="SourceAlpha" type="matrix" values="0 0 0 0 0 0 0 0 0 0 0 0 0 0 0 0 0 0 127 0" result="hardAlpha"/>
<feOffset dy="3.6673"/>
<feGaussianBlur stdDeviation="3.6673"/>
<feComposite in2="hardAlpha" operator="out"/>
<feColorMatrix type="matrix" values="0 0 0 0 0.0235294 0 0 0 0 0.054902 0 0 0 0 0.129412 0 0 0 0.05 0"/>
<feBlend mode="normal" in2="BackgroundImageFix" result="effect1_dropShadow_2210_6661"/>
<feBlend mode="normal" in="SourceGraphic" in2="effect1_dropShadow_2210_6661" result="shape"/>
</filter>
<clipPath id="clip0_2210_6661">
<rect x="8" y="4" width="263.403" height="95.4164" rx="7.3346" fill="white"/>
</clipPath>
<clipPath id="clip1_2210_6661">
<rect x="12.5781" y="15.0938" width="52.3346" height="20.3346" rx="3.6673" fill="white"/>
</clipPath>
</defs>
</svg>
