<svg width="279" height="111" viewBox="0 0 279 111" fill="none" xmlns="http://www.w3.org/2000/svg">
<g filter="url(#filter0_d_2210_6675)">
<g clip-path="url(#clip0_2210_6675)">
<rect x="8" y="4" width="263.403" height="95.4164" rx="7.3346" fill="white"/>
<path d="M29.0061 22.5767L23.6579 27.9248" stroke="#28A573" stroke-width="1.06963" stroke-linecap="round" stroke-linejoin="round"/>
<path d="M29.0061 27.9248L23.6579 27.9248L23.6579 22.5767" stroke="#28A573" stroke-width="1.06963" stroke-linecap="round" stroke-linejoin="round"/>
<path d="M39.8482 28.8615C39.2101 28.8615 38.6746 28.7661 38.2419 28.5754C37.8091 28.3774 37.4754 28.1244 37.2407 27.8163C37.0133 27.5009 36.8923 27.1672 36.8777 26.8151C36.8777 26.7565 36.8997 26.7051 36.9437 26.6611C36.995 26.6098 37.0537 26.5841 37.1197 26.5841H37.6808C37.7688 26.5841 37.8348 26.6061 37.8788 26.6501C37.9228 26.6941 37.9522 26.7455 37.9668 26.8041C38.0035 26.9802 38.0915 27.1562 38.2309 27.3322C38.3776 27.5009 38.5793 27.6439 38.836 27.7613C39.1 27.8713 39.4374 27.9263 39.8482 27.9263C40.4789 27.9263 40.941 27.8163 41.2344 27.5963C41.5351 27.3689 41.6855 27.0682 41.6855 26.6941C41.6855 26.4374 41.6048 26.232 41.4434 26.078C41.2894 25.9166 41.051 25.7736 40.7283 25.6489C40.4056 25.5242 39.9875 25.3886 39.4741 25.2419C38.9387 25.0878 38.4949 24.9191 38.1429 24.7358C37.7908 24.5524 37.5268 24.325 37.3507 24.0537C37.182 23.7823 37.0977 23.4375 37.0977 23.0195C37.0977 22.6234 37.204 22.2713 37.4167 21.9633C37.6294 21.6479 37.9338 21.3985 38.3299 21.2152C38.7333 21.0318 39.2211 20.9401 39.7932 20.9401C40.2479 20.9401 40.644 21.0025 40.9814 21.1271C41.3261 21.2445 41.6121 21.4059 41.8395 21.6112C42.0669 21.8093 42.2392 22.0256 42.3566 22.2603C42.474 22.4877 42.5363 22.7114 42.5436 22.9315C42.5436 22.9828 42.5253 23.0341 42.4886 23.0855C42.4519 23.1295 42.3933 23.1515 42.3126 23.1515H41.7295C41.6781 23.1515 41.6231 23.1368 41.5645 23.1075C41.5131 23.0782 41.4728 23.0231 41.4434 22.9425C41.3994 22.6417 41.2307 22.3887 40.9374 22.1833C40.644 21.978 40.2626 21.8753 39.7932 21.8753C39.3164 21.8753 38.9277 21.967 38.627 22.1503C38.3336 22.3337 38.1869 22.6197 38.1869 23.0085C38.1869 23.2578 38.2566 23.4669 38.3959 23.6356C38.5353 23.7969 38.7553 23.94 39.056 24.0647C39.3567 24.1893 39.7491 24.3214 40.2332 24.4607C40.82 24.6221 41.3004 24.7944 41.6745 24.9778C42.0485 25.1538 42.3236 25.3775 42.4996 25.6489C42.683 25.913 42.7747 26.254 42.7747 26.6721C42.7747 27.1342 42.6536 27.5303 42.4116 27.8603C42.1696 28.183 41.8285 28.4324 41.3884 28.6084C40.9557 28.7771 40.4423 28.8615 39.8482 28.8615ZM44.4697 28.7515C44.3891 28.7515 44.3267 28.7295 44.2827 28.6855C44.2387 28.6341 44.2167 28.5718 44.2167 28.4984V21.3032C44.2167 21.2298 44.2387 21.1712 44.2827 21.1271C44.3267 21.0758 44.3891 21.0501 44.4697 21.0501H45.0528C45.1262 21.0501 45.1849 21.0758 45.2289 21.1271C45.2802 21.1712 45.3059 21.2298 45.3059 21.3032V28.4984C45.3059 28.5718 45.2802 28.6341 45.2289 28.6855C45.1849 28.7295 45.1262 28.7515 45.0528 28.7515H44.4697ZM47.4781 28.7515C47.3974 28.7515 47.335 28.7295 47.291 28.6855C47.247 28.6341 47.225 28.5718 47.225 28.4984V21.3142C47.225 21.2335 47.247 21.1712 47.291 21.1271C47.335 21.0758 47.3974 21.0501 47.4781 21.0501H50.2726C50.8153 21.0501 51.2847 21.1382 51.6808 21.3142C52.0842 21.4902 52.3959 21.7543 52.616 22.1063C52.836 22.451 52.946 22.8838 52.946 23.4045C52.946 23.9253 52.836 24.358 52.616 24.7028C52.3959 25.0475 52.0842 25.3079 51.6808 25.4839C51.2847 25.6599 50.8153 25.7479 50.2726 25.7479H48.3252V28.4984C48.3252 28.5718 48.2995 28.6341 48.2482 28.6855C48.2042 28.7295 48.1418 28.7515 48.0612 28.7515H47.4781ZM48.3142 24.8238H50.2175C50.7603 24.8238 51.1674 24.7028 51.4388 24.4607C51.7101 24.2187 51.8458 23.8666 51.8458 23.4045C51.8458 22.9498 51.7138 22.5977 51.4498 22.3484C51.1857 22.099 50.775 21.9743 50.2175 21.9743H48.3142V24.8238ZM56.9865 28.7515C56.9059 28.7515 56.8435 28.7295 56.7995 28.6855C56.7555 28.6341 56.7335 28.5718 56.7335 28.4984V21.3142C56.7335 21.2335 56.7555 21.1712 56.7995 21.1271C56.8435 21.0758 56.9059 21.0501 56.9865 21.0501H59.781C60.3238 21.0501 60.7932 21.1382 61.1893 21.3142C61.5927 21.4902 61.9044 21.7543 62.1244 22.1063C62.3445 22.451 62.4545 22.8838 62.4545 23.4045C62.4545 23.9253 62.3445 24.358 62.1244 24.7028C61.9044 25.0475 61.5927 25.3079 61.1893 25.4839C60.7932 25.6599 60.3238 25.7479 59.781 25.7479H57.8337V28.4984C57.8337 28.5718 57.808 28.6341 57.7567 28.6855C57.7127 28.7295 57.6503 28.7515 57.5696 28.7515H56.9865ZM57.8227 24.8238H59.726C60.2688 24.8238 60.6758 24.7028 60.9472 24.4607C61.2186 24.2187 61.3543 23.8666 61.3543 23.4045C61.3543 22.9498 61.2223 22.5977 60.9582 22.3484C60.6942 22.099 60.2834 21.9743 59.726 21.9743H57.8227V24.8238ZM65.7837 28.8615C65.3143 28.8615 64.9145 28.7588 64.5845 28.5534C64.2618 28.3407 64.016 28.0473 63.8473 27.6733C63.6786 27.2992 63.5943 26.8701 63.5943 26.3861V23.2835C63.5943 23.2102 63.6163 23.1515 63.6603 23.1075C63.7117 23.0561 63.774 23.0305 63.8473 23.0305H64.3974C64.4708 23.0305 64.5295 23.0561 64.5735 23.1075C64.6248 23.1515 64.6505 23.2102 64.6505 23.2835V26.331C64.6505 27.4239 65.1272 27.9703 66.0807 27.9703C66.5355 27.9703 66.8985 27.8273 67.1699 27.5413C67.4486 27.2479 67.588 26.8445 67.588 26.331V23.2835C67.588 23.2102 67.61 23.1515 67.654 23.1075C67.7053 23.0561 67.7677 23.0305 67.841 23.0305H68.3801C68.4608 23.0305 68.5232 23.0561 68.5672 23.1075C68.6112 23.1515 68.6332 23.2102 68.6332 23.2835V28.4984C68.6332 28.5718 68.6112 28.6341 68.5672 28.6855C68.5232 28.7295 68.4608 28.7515 68.3801 28.7515H67.874C67.8007 28.7515 67.7384 28.7295 67.687 28.6855C67.643 28.6341 67.621 28.5718 67.621 28.4984V28.0143C67.423 28.271 67.1809 28.4764 66.8949 28.6304C66.6162 28.7845 66.2458 28.8615 65.7837 28.8615ZM70.5207 28.7515C70.4473 28.7515 70.385 28.7295 70.3337 28.6855C70.2896 28.6341 70.2676 28.5718 70.2676 28.4984V23.2945C70.2676 23.2212 70.2896 23.1588 70.3337 23.1075C70.385 23.0561 70.4473 23.0305 70.5207 23.0305H71.0268C71.1001 23.0305 71.1625 23.0561 71.2138 23.1075C71.2651 23.1588 71.2908 23.2212 71.2908 23.2945V23.7786C71.4375 23.5292 71.6392 23.3422 71.8959 23.2175C72.1526 23.0928 72.4607 23.0305 72.8201 23.0305H73.2602C73.3335 23.0305 73.3922 23.0561 73.4362 23.1075C73.4802 23.1515 73.5022 23.2102 73.5022 23.2835V23.7346C73.5022 23.8079 73.4802 23.8666 73.4362 23.9106C73.3922 23.9546 73.3335 23.9766 73.2602 23.9766H72.6C72.204 23.9766 71.8923 24.094 71.6649 24.3287C71.4375 24.5561 71.3238 24.8678 71.3238 25.2639V28.4984C71.3238 28.5718 71.2982 28.6341 71.2468 28.6855C71.1955 28.7295 71.1331 28.7515 71.0598 28.7515H70.5207ZM76.65 28.8615C76.1293 28.8615 75.6782 28.7625 75.2968 28.5644C74.9227 28.3591 74.633 28.0693 74.4276 27.6953C74.2223 27.3139 74.1123 26.8591 74.0976 26.331C74.0903 26.221 74.0866 26.0743 74.0866 25.891C74.0866 25.7076 74.0903 25.5609 74.0976 25.4509C74.1123 24.9228 74.2223 24.4717 74.4276 24.0977C74.633 23.7163 74.9227 23.4265 75.2968 23.2285C75.6782 23.0231 76.1293 22.9205 76.65 22.9205C77.0754 22.9205 77.4385 22.9791 77.7392 23.0965C78.0473 23.2138 78.3003 23.3642 78.4984 23.5476C78.6964 23.7309 78.8431 23.929 78.9384 24.1417C79.0411 24.3544 79.0961 24.5561 79.1035 24.7468C79.1108 24.8201 79.0888 24.8788 79.0374 24.9228C78.9861 24.9668 78.9238 24.9888 78.8504 24.9888H78.3223C78.249 24.9888 78.194 24.9741 78.1573 24.9448C78.1206 24.9081 78.0839 24.8495 78.0473 24.7688C77.9153 24.4094 77.7356 24.1563 77.5082 24.0096C77.2808 23.863 76.9984 23.7896 76.661 23.7896C76.221 23.7896 75.8616 23.9253 75.5828 24.1967C75.3115 24.4681 75.1648 24.9045 75.1428 25.5059C75.1354 25.77 75.1354 26.0267 75.1428 26.276C75.1648 26.8848 75.3115 27.3249 75.5828 27.5963C75.8616 27.8603 76.221 27.9923 76.661 27.9923C76.9984 27.9923 77.2808 27.919 77.5082 27.7723C77.7356 27.6256 77.9153 27.3726 78.0473 27.0132C78.0839 26.9325 78.1206 26.8775 78.1573 26.8481C78.194 26.8115 78.249 26.7931 78.3223 26.7931H78.8504C78.9238 26.7931 78.9861 26.8151 79.0374 26.8591C79.0888 26.9031 79.1108 26.9618 79.1035 27.0352C79.0961 27.1892 79.0631 27.3469 79.0044 27.5083C78.9458 27.6696 78.8504 27.8346 78.7184 28.0033C78.5937 28.1647 78.436 28.3114 78.2453 28.4434C78.0546 28.5681 77.8236 28.6708 77.5522 28.7515C77.2881 28.8248 76.9874 28.8615 76.65 28.8615ZM80.6741 28.7515C80.6007 28.7515 80.5384 28.7295 80.487 28.6855C80.443 28.6341 80.421 28.5718 80.421 28.4984V21.1932C80.421 21.1198 80.443 21.0611 80.487 21.0171C80.5384 20.9658 80.6007 20.9401 80.6741 20.9401H81.2242C81.3048 20.9401 81.3672 20.9658 81.4112 21.0171C81.4552 21.0611 81.4772 21.1198 81.4772 21.1932V23.7566C81.6752 23.5072 81.9173 23.3055 82.2033 23.1515C82.4894 22.9975 82.8524 22.9205 83.2925 22.9205C83.7693 22.9205 84.1727 23.0268 84.5027 23.2395C84.8401 23.4449 85.0932 23.7346 85.2619 24.1087C85.4379 24.4754 85.5259 24.9045 85.5259 25.3959V28.4984C85.5259 28.5718 85.5039 28.6341 85.4599 28.6855C85.4159 28.7295 85.3535 28.7515 85.2729 28.7515H84.7228C84.6494 28.7515 84.5871 28.7295 84.5357 28.6855C84.4917 28.6341 84.4697 28.5718 84.4697 28.4984V25.4509C84.4697 24.9375 84.345 24.5377 84.0957 24.2517C83.8463 23.9583 83.4795 23.8116 82.9955 23.8116C82.5407 23.8116 82.174 23.9583 81.8953 24.2517C81.6166 24.5377 81.4772 24.9375 81.4772 25.4509V28.4984C81.4772 28.5718 81.4552 28.6341 81.4112 28.6855C81.3672 28.7295 81.3048 28.7515 81.2242 28.7515H80.6741ZM88.7096 28.8615C88.3428 28.8615 88.0091 28.7881 87.7084 28.6414C87.4077 28.4948 87.1656 28.2967 86.9823 28.0473C86.7989 27.798 86.7072 27.5156 86.7072 27.2002C86.7072 26.6941 86.9126 26.2907 87.3233 25.99C87.7341 25.6893 88.2695 25.4912 88.9296 25.3959L90.5689 25.1648V24.8458C90.5689 24.4937 90.4662 24.2187 90.2608 24.0206C90.0628 23.8226 89.7364 23.7236 89.2817 23.7236C88.9516 23.7236 88.6839 23.7896 88.4785 23.9216C88.2805 24.0537 88.1411 24.2223 88.0605 24.4277C88.0165 24.5377 87.9394 24.5927 87.8294 24.5927H87.3343C87.2537 24.5927 87.1913 24.5707 87.1473 24.5267C87.1106 24.4754 87.0923 24.4167 87.0923 24.3507C87.0923 24.2407 87.1326 24.105 87.2133 23.9436C87.3013 23.7823 87.4334 23.6246 87.6094 23.4706C87.7854 23.3165 88.0091 23.1882 88.2805 23.0855C88.5592 22.9755 88.8966 22.9205 89.2927 22.9205C89.7328 22.9205 90.1031 22.9791 90.4039 23.0965C90.7046 23.2065 90.9393 23.3569 91.108 23.5476C91.284 23.7383 91.4087 23.9546 91.4821 24.1967C91.5627 24.4387 91.6031 24.6844 91.6031 24.9338V28.4984C91.6031 28.5718 91.5774 28.6341 91.5261 28.6855C91.4821 28.7295 91.4234 28.7515 91.35 28.7515H90.8439C90.7633 28.7515 90.7009 28.7295 90.6569 28.6855C90.6129 28.6341 90.5909 28.5718 90.5909 28.4984V28.0253C90.4956 28.1574 90.3672 28.2894 90.2058 28.4214C90.0445 28.5461 89.8428 28.6524 89.6007 28.7405C89.3587 28.8211 89.0616 28.8615 88.7096 28.8615ZM88.9406 28.0363C89.2413 28.0363 89.5164 27.974 89.7658 27.8493C90.0151 27.7173 90.2095 27.5156 90.3489 27.2442C90.4956 26.9728 90.5689 26.6318 90.5689 26.221V25.913L89.2927 26.1C88.7719 26.1734 88.3795 26.298 88.1155 26.4741C87.8514 26.6428 87.7194 26.8591 87.7194 27.1232C87.7194 27.3286 87.7781 27.5009 87.8954 27.6403C88.0201 27.7723 88.1741 27.8713 88.3575 27.9373C88.5482 28.0033 88.7426 28.0363 88.9406 28.0363ZM95.165 28.8615C94.7543 28.8615 94.4022 28.8101 94.1088 28.7075C93.8155 28.6048 93.5771 28.4801 93.3937 28.3334C93.2104 28.1867 93.071 28.04 92.9756 27.8933C92.8876 27.7466 92.84 27.6293 92.8326 27.5413C92.8253 27.4606 92.851 27.3982 92.9096 27.3542C92.9683 27.3102 93.027 27.2882 93.0857 27.2882H93.5698C93.6138 27.2882 93.6468 27.2955 93.6688 27.3102C93.6981 27.3176 93.7348 27.3469 93.7788 27.3982C93.8741 27.5009 93.9805 27.6036 94.0978 27.7063C94.2152 27.809 94.3582 27.8933 94.5269 27.9593C94.7029 28.0253 94.9193 28.0583 95.176 28.0583C95.5501 28.0583 95.8581 27.9887 96.1002 27.8493C96.3422 27.7026 96.4633 27.4899 96.4633 27.2112C96.4633 27.0278 96.4119 26.8811 96.3092 26.7711C96.2139 26.6611 96.0378 26.5621 95.7811 26.4741C95.5318 26.3861 95.187 26.2944 94.747 26.199C94.3069 26.0963 93.9585 25.9717 93.7018 25.825C93.4451 25.6709 93.2617 25.4912 93.1517 25.2859C93.0417 25.0732 92.9867 24.8348 92.9867 24.5707C92.9867 24.2994 93.0673 24.039 93.2287 23.7896C93.3901 23.5329 93.6248 23.3239 93.9328 23.1625C94.2482 23.0011 94.6406 22.9205 95.11 22.9205C95.4914 22.9205 95.8178 22.9681 96.0892 23.0635C96.3606 23.1588 96.5843 23.2799 96.7603 23.4265C96.9363 23.5659 97.0684 23.7053 97.1564 23.8446C97.2444 23.984 97.2921 24.1013 97.2994 24.1967C97.3067 24.27 97.2847 24.3324 97.2334 24.3837C97.182 24.4277 97.1234 24.4497 97.0574 24.4497H96.5953C96.5439 24.4497 96.4999 24.4387 96.4633 24.4167C96.4339 24.3947 96.4046 24.369 96.3752 24.3397C96.3019 24.2444 96.2139 24.149 96.1112 24.0537C96.0158 23.9583 95.8875 23.8813 95.7261 23.8226C95.5721 23.7566 95.3667 23.7236 95.11 23.7236C94.7433 23.7236 94.4682 23.8006 94.2849 23.9546C94.1015 24.1087 94.0098 24.303 94.0098 24.5377C94.0098 24.6771 94.0502 24.8018 94.1308 24.9118C94.2115 25.0218 94.3656 25.1208 94.5929 25.2089C94.8203 25.2969 95.1577 25.3922 95.6051 25.4949C96.0892 25.5903 96.4706 25.7186 96.7493 25.88C97.028 26.0413 97.226 26.2284 97.3434 26.4411C97.4608 26.6538 97.5194 26.8995 97.5194 27.1782C97.5194 27.4862 97.4278 27.7686 97.2444 28.0253C97.0684 28.2821 96.8043 28.4874 96.4522 28.6414C96.1075 28.7881 95.6784 28.8615 95.165 28.8615ZM101.07 28.8615C100.315 28.8615 99.7136 28.6304 99.2662 28.1684C98.8187 27.6989 98.573 27.0608 98.529 26.254C98.5217 26.1587 98.518 26.0377 98.518 25.891C98.518 25.7369 98.5217 25.6123 98.529 25.5169C98.5584 24.9961 98.6794 24.5414 98.8921 24.1527C99.1048 23.7566 99.3945 23.4522 99.7612 23.2395C100.135 23.0268 100.572 22.9205 101.07 22.9205C101.628 22.9205 102.094 23.0378 102.468 23.2725C102.849 23.5072 103.139 23.841 103.337 24.2737C103.535 24.7064 103.634 25.2125 103.634 25.792V25.979C103.634 26.0597 103.608 26.122 103.557 26.166C103.513 26.21 103.454 26.232 103.381 26.232H99.5742C99.5742 26.2394 99.5742 26.254 99.5742 26.276C99.5742 26.298 99.5742 26.3164 99.5742 26.331C99.5889 26.6318 99.6549 26.9141 99.7722 27.1782C99.8896 27.4349 100.058 27.6439 100.278 27.8053C100.498 27.9667 100.762 28.0473 101.07 28.0473C101.335 28.0473 101.555 28.007 101.731 27.9263C101.907 27.8456 102.05 27.7576 102.16 27.6623C102.27 27.5596 102.343 27.4826 102.38 27.4312C102.446 27.3359 102.497 27.2809 102.534 27.2662C102.57 27.2442 102.629 27.2332 102.71 27.2332H103.238C103.311 27.2332 103.37 27.2552 103.414 27.2992C103.465 27.3359 103.487 27.3909 103.48 27.4642C103.473 27.5743 103.414 27.71 103.304 27.8713C103.194 28.0253 103.036 28.1794 102.831 28.3334C102.625 28.4874 102.376 28.6158 102.083 28.7185C101.789 28.8138 101.452 28.8615 101.07 28.8615ZM99.5742 25.4729H102.589V25.4399C102.589 25.1098 102.526 24.8165 102.402 24.5597C102.284 24.303 102.112 24.1013 101.885 23.9546C101.657 23.8006 101.386 23.7236 101.07 23.7236C100.755 23.7236 100.484 23.8006 100.256 23.9546C100.036 24.1013 99.8676 24.303 99.7502 24.5597C99.6329 24.8165 99.5742 25.1098 99.5742 25.4399V25.4729Z" fill="#28A573"/>
<path d="M207.788 81.168C207.669 81.168 207.575 81.1423 207.506 81.091C207.446 81.0311 207.391 80.9712 207.339 80.9113L204.58 77.8436C204.503 77.758 204.451 77.6767 204.426 77.5997C204.408 77.5227 204.4 77.4157 204.4 77.2788V76.8167C204.4 76.7311 204.426 76.6584 204.477 76.5985C204.537 76.5386 204.614 76.5087 204.708 76.5087H205.311C205.85 76.5087 206.265 76.4402 206.556 76.3033C206.847 76.1578 207.044 75.9653 207.147 75.7257C207.258 75.4861 207.314 75.208 207.314 74.8914C207.314 74.5919 207.258 74.3223 207.147 74.0827C207.044 73.8431 206.856 73.6506 206.582 73.5051C206.308 73.3511 205.923 73.2741 205.427 73.2741H204.618C204.533 73.2741 204.46 73.2484 204.4 73.1971C204.34 73.1372 204.31 73.0602 204.31 72.9661V72.4911C204.31 72.4056 204.34 72.3328 204.4 72.2729C204.46 72.213 204.533 72.1831 204.618 72.1831H209.919C210.005 72.1831 210.077 72.213 210.137 72.2729C210.197 72.3328 210.227 72.4056 210.227 72.4911V72.9661C210.227 73.0602 210.197 73.1372 210.137 73.1971C210.077 73.2484 210.005 73.2741 209.919 73.2741H207.878L207.904 72.9661C208.375 73.1115 208.7 73.3725 208.879 73.749C209.059 74.117 209.149 74.532 209.149 74.9941C209.149 75.4904 209.042 75.9396 208.828 76.3418C208.614 76.744 208.289 77.0649 207.853 77.3045C207.425 77.5441 206.894 77.681 206.261 77.7152L205.812 77.7537L205.953 77.0221L209.252 80.7444C209.32 80.8214 209.354 80.8856 209.354 80.9369C209.354 81.0139 209.329 81.0738 209.277 81.1166C209.226 81.1509 209.162 81.168 209.085 81.168H207.788ZM204.618 75.3535C204.524 75.3535 204.447 75.3235 204.387 75.2636C204.336 75.2037 204.31 75.131 204.31 75.0454V74.5705C204.31 74.4764 204.34 74.4036 204.4 74.3523C204.46 74.2924 204.533 74.2624 204.618 74.2624H209.919C210.005 74.2624 210.077 74.2924 210.137 74.3523C210.197 74.4036 210.227 74.4764 210.227 74.5705L210.214 75.0454C210.214 75.131 210.184 75.2037 210.125 75.2636C210.073 75.3235 210 75.3535 209.906 75.3535H204.618ZM214.576 81.168C214.481 81.168 214.404 81.138 214.345 81.0781C214.293 81.0182 214.268 80.9455 214.268 80.8599V74.2111L212.317 75.7129C212.24 75.7642 212.162 75.7856 212.085 75.777C212.008 75.7599 211.94 75.7129 211.88 75.6358L211.341 74.9427C211.29 74.8657 211.268 74.7844 211.277 74.6989C211.294 74.6133 211.341 74.5448 211.418 74.4935L214.293 72.2729C214.345 72.2301 214.396 72.2045 214.447 72.1959C214.499 72.1874 214.554 72.1831 214.614 72.1831H215.744C215.829 72.1831 215.902 72.213 215.962 72.2729C216.022 72.3328 216.052 72.4056 216.052 72.4911V80.8599C216.052 80.9455 216.022 81.0182 215.962 81.0781C215.902 81.138 215.829 81.168 215.744 81.168H214.576ZM221.018 81.3092C220.282 81.3092 219.661 81.1894 219.156 80.9498C218.652 80.7016 218.267 80.3807 218.001 79.9871C217.745 79.5935 217.608 79.1742 217.591 78.7292C217.582 78.6522 217.603 78.5923 217.655 78.5495C217.715 78.4982 217.783 78.4725 217.86 78.4725H219.054C219.148 78.4725 219.225 78.4939 219.285 78.5367C219.353 78.5709 219.405 78.6351 219.439 78.7292C219.524 78.9859 219.644 79.1956 219.798 79.3582C219.961 79.5207 220.145 79.6405 220.35 79.7176C220.564 79.7946 220.787 79.8331 221.018 79.8331C221.326 79.8331 221.604 79.7732 221.852 79.6534C222.109 79.525 222.314 79.3368 222.468 79.0886C222.622 78.8405 222.699 78.5367 222.699 78.1773C222.699 77.8607 222.626 77.5869 222.481 77.3558C222.335 77.1248 222.134 76.9451 221.878 76.8167C221.629 76.6798 221.343 76.6113 221.018 76.6113C220.778 76.6113 220.581 76.6413 220.427 76.7012C220.273 76.7611 220.141 76.8296 220.029 76.9066C219.927 76.9836 219.832 77.052 219.747 77.1119C219.67 77.1718 219.58 77.2018 219.477 77.2018H218.296C218.219 77.2018 218.151 77.1761 218.091 77.1248C218.04 77.0649 218.014 76.9964 218.014 76.9194L218.463 72.5296C218.472 72.4184 218.51 72.3328 218.579 72.2729C218.647 72.213 218.729 72.1831 218.823 72.1831H223.649C223.734 72.1831 223.807 72.213 223.867 72.2729C223.927 72.3328 223.957 72.4056 223.957 72.4911V73.3511C223.957 73.4367 223.927 73.5094 223.867 73.5693C223.807 73.6292 223.734 73.6592 223.649 73.6592H219.939L219.734 75.7514C219.888 75.6487 220.093 75.5503 220.35 75.4561C220.607 75.362 220.962 75.315 221.416 75.315C221.826 75.315 222.216 75.3834 222.584 75.5203C222.96 75.6487 223.294 75.8412 223.585 76.0979C223.876 76.3461 224.102 76.6499 224.265 77.0093C224.436 77.3601 224.522 77.7623 224.522 78.2158C224.522 78.8405 224.376 79.3838 224.085 79.8459C223.794 80.308 223.388 80.6674 222.866 80.9241C222.344 81.1808 221.728 81.3092 221.018 81.3092ZM225.873 82.1306C225.796 82.1306 225.736 82.105 225.693 82.0536C225.65 82.0023 225.633 81.9381 225.642 81.8611L225.988 79.679C226.005 79.5678 226.044 79.4737 226.104 79.3967C226.172 79.3111 226.271 79.2683 226.399 79.2683H227.58C227.648 79.2683 227.704 79.294 227.747 79.3453C227.79 79.3881 227.811 79.4437 227.811 79.5122C227.811 79.5721 227.798 79.6277 227.772 79.679L226.951 81.8097C226.917 81.8953 226.865 81.9681 226.797 82.028C226.737 82.0964 226.647 82.1306 226.527 82.1306H225.873ZM232.688 81.2963C232.08 81.2963 231.562 81.2065 231.134 81.0268C230.707 80.8471 230.356 80.5989 230.082 80.2823C229.808 79.9657 229.603 79.602 229.466 79.1913C229.329 78.772 229.248 78.327 229.222 77.8564C229.213 77.6254 229.205 77.3729 229.196 77.0991C229.196 76.8167 229.196 76.5343 229.196 76.252C229.205 75.9696 229.213 75.7086 229.222 75.469C229.239 74.9983 229.32 74.5577 229.466 74.1469C229.611 73.7276 229.821 73.364 230.095 73.0559C230.377 72.7478 230.732 72.504 231.16 72.3243C231.588 72.1446 232.097 72.0547 232.688 72.0547C233.287 72.0547 233.8 72.1446 234.228 72.3243C234.656 72.504 235.006 72.7478 235.28 73.0559C235.563 73.364 235.772 73.7276 235.909 74.1469C236.055 74.5577 236.136 74.9983 236.153 75.469C236.17 75.7086 236.179 75.9696 236.179 76.252C236.179 76.5343 236.179 76.8167 236.179 77.0991C236.179 77.3729 236.17 77.6254 236.153 77.8564C236.136 78.327 236.059 78.772 235.922 79.1913C235.785 79.602 235.58 79.9657 235.306 80.2823C235.032 80.5989 234.677 80.8471 234.241 81.0268C233.813 81.2065 233.295 81.2963 232.688 81.2963ZM232.688 79.8202C233.244 79.8202 233.65 79.6405 233.907 79.2811C234.172 78.9132 234.309 78.4169 234.318 77.7922C234.335 77.5441 234.343 77.2959 234.343 77.0478C234.343 76.791 234.343 76.5343 234.343 76.2776C234.343 76.0209 234.335 75.777 234.318 75.546C234.309 74.9384 234.172 74.4507 233.907 74.0827C233.65 73.7062 233.244 73.518 232.688 73.518C232.14 73.518 231.733 73.7062 231.468 74.0827C231.211 74.4507 231.075 74.9384 231.057 75.546C231.057 75.777 231.053 76.0209 231.045 76.2776C231.045 76.5343 231.045 76.791 231.045 77.0478C231.053 77.2959 231.057 77.5441 231.057 77.7922C231.075 78.4169 231.216 78.9132 231.481 79.2811C231.746 79.6405 232.148 79.8202 232.688 79.8202ZM241.252 81.2963C240.644 81.2963 240.127 81.2065 239.699 81.0268C239.271 80.8471 238.92 80.5989 238.646 80.2823C238.372 79.9657 238.167 79.602 238.03 79.1913C237.893 78.772 237.812 78.327 237.786 77.8564C237.778 77.6254 237.769 77.3729 237.76 77.0991C237.76 76.8167 237.76 76.5343 237.76 76.252C237.769 75.9696 237.778 75.7086 237.786 75.469C237.803 74.9983 237.885 74.5577 238.03 74.1469C238.176 73.7276 238.385 73.364 238.659 73.0559C238.941 72.7478 239.296 72.504 239.724 72.3243C240.152 72.1446 240.661 72.0547 241.252 72.0547C241.851 72.0547 242.364 72.1446 242.792 72.3243C243.22 72.504 243.571 72.7478 243.845 73.0559C244.127 73.364 244.337 73.7276 244.473 74.1469C244.619 74.5577 244.7 74.9983 244.717 75.469C244.734 75.7086 244.743 75.9696 244.743 76.252C244.743 76.5343 244.743 76.8167 244.743 77.0991C244.743 77.3729 244.734 77.6254 244.717 77.8564C244.7 78.327 244.623 78.772 244.486 79.1913C244.349 79.602 244.144 79.9657 243.87 80.2823C243.596 80.5989 243.241 80.8471 242.805 81.0268C242.377 81.2065 241.859 81.2963 241.252 81.2963ZM241.252 79.8202C241.808 79.8202 242.214 79.6405 242.471 79.2811C242.736 78.9132 242.873 78.4169 242.882 77.7922C242.899 77.5441 242.908 77.2959 242.908 77.0478C242.908 76.791 242.908 76.5343 242.908 76.2776C242.908 76.0209 242.899 75.777 242.882 75.546C242.873 74.9384 242.736 74.4507 242.471 74.0827C242.214 73.7062 241.808 73.518 241.252 73.518C240.704 73.518 240.298 73.7062 240.032 74.0827C239.776 74.4507 239.639 74.9384 239.622 75.546C239.622 75.777 239.617 76.0209 239.609 76.2776C239.609 76.5343 239.609 76.791 239.609 77.0478C239.617 77.2959 239.622 77.5441 239.622 77.7922C239.639 78.4169 239.78 78.9132 240.045 79.2811C240.31 79.6405 240.713 79.8202 241.252 79.8202ZM249.816 81.2963C249.208 81.2963 248.691 81.2065 248.263 81.0268C247.835 80.8471 247.484 80.5989 247.21 80.2823C246.937 79.9657 246.731 79.602 246.594 79.1913C246.457 78.772 246.376 78.327 246.35 77.8564C246.342 77.6254 246.333 77.3729 246.325 77.0991C246.325 76.8167 246.325 76.5343 246.325 76.252C246.333 75.9696 246.342 75.7086 246.35 75.469C246.367 74.9983 246.449 74.5577 246.594 74.1469C246.74 73.7276 246.949 73.364 247.223 73.0559C247.506 72.7478 247.861 72.504 248.289 72.3243C248.716 72.1446 249.226 72.0547 249.816 72.0547C250.415 72.0547 250.928 72.1446 251.356 72.3243C251.784 72.504 252.135 72.7478 252.409 73.0559C252.691 73.364 252.901 73.7276 253.038 74.1469C253.183 74.5577 253.264 74.9983 253.282 75.469C253.299 75.7086 253.307 75.9696 253.307 76.252C253.307 76.5343 253.307 76.8167 253.307 77.0991C253.307 77.3729 253.299 77.6254 253.282 77.8564C253.264 78.327 253.187 78.772 253.051 79.1913C252.914 79.602 252.708 79.9657 252.434 80.2823C252.161 80.5989 251.805 80.8471 251.369 81.0268C250.941 81.2065 250.424 81.2963 249.816 81.2963ZM249.816 79.8202C250.372 79.8202 250.779 79.6405 251.035 79.2811C251.301 78.9132 251.438 78.4169 251.446 77.7922C251.463 77.5441 251.472 77.2959 251.472 77.0478C251.472 76.791 251.472 76.5343 251.472 76.2776C251.472 76.0209 251.463 75.777 251.446 75.546C251.438 74.9384 251.301 74.4507 251.035 74.0827C250.779 73.7062 250.372 73.518 249.816 73.518C249.268 73.518 248.862 73.7062 248.597 74.0827C248.34 74.4507 248.203 74.9384 248.186 75.546C248.186 75.777 248.182 76.0209 248.173 76.2776C248.173 76.5343 248.173 76.791 248.173 77.0478C248.182 77.2959 248.186 77.5441 248.186 77.7922C248.203 78.4169 248.344 78.9132 248.609 79.2811C248.875 79.6405 249.277 79.8202 249.816 79.8202Z" fill="#28A573"/>
<path d="M26.4969 56.6323C25.9578 56.6323 25.4871 56.5681 25.085 56.4397C24.6828 56.3028 24.3448 56.1231 24.0709 55.9006C23.7971 55.6782 23.5875 55.4343 23.442 55.169C23.3051 54.9037 23.2324 54.6299 23.2238 54.3475C23.2238 54.2705 23.2495 54.2106 23.3008 54.1678C23.3522 54.1251 23.4163 54.1037 23.4934 54.1037H24.1223C24.1993 54.1037 24.2678 54.1208 24.3277 54.155C24.3876 54.1892 24.4389 54.262 24.4817 54.3732C24.5673 54.6813 24.7127 54.9209 24.9181 55.092C25.132 55.2631 25.3759 55.3829 25.6497 55.4514C25.9321 55.5113 26.2145 55.5412 26.4969 55.5412C27.0873 55.5412 27.5665 55.4 27.9345 55.1177C28.3024 54.8353 28.4864 54.4203 28.4864 53.8726C28.4864 53.3164 28.3195 52.9185 27.9858 52.6789C27.6521 52.4393 27.19 52.3195 26.5996 52.3195H25.3802C25.2946 52.3195 25.2219 52.2938 25.162 52.2425C25.1106 52.1912 25.085 52.1184 25.085 52.0243V51.6777C25.085 51.6007 25.0978 51.5365 25.1235 51.4852C25.1577 51.4253 25.1919 51.374 25.2261 51.3312L27.7162 48.61H23.9298C23.8442 48.61 23.7715 48.5844 23.7116 48.533C23.6602 48.4817 23.6345 48.409 23.6345 48.3148V47.8271C23.6345 47.7329 23.6602 47.6602 23.7116 47.6089C23.7715 47.549 23.8442 47.519 23.9298 47.519H29.0511C29.1453 47.519 29.218 47.549 29.2693 47.6089C29.3292 47.6602 29.3592 47.7329 29.3592 47.8271V48.2892C29.3592 48.3491 29.3421 48.4047 29.3079 48.456C29.2822 48.4988 29.2522 48.5416 29.218 48.5844L26.7407 51.344L26.9461 51.3569C27.5109 51.374 28.0029 51.4766 28.4222 51.6649C28.8501 51.8532 29.1795 52.1355 29.4105 52.5121C29.6501 52.88 29.7699 53.3464 29.7699 53.9111C29.7699 54.4844 29.6287 54.9765 29.3464 55.3872C29.064 55.7894 28.6746 56.0974 28.1783 56.3114C27.682 56.5253 27.1215 56.6323 26.4969 56.6323ZM31.7358 56.5039C31.6502 56.5039 31.5775 56.4782 31.5176 56.4269C31.4662 56.367 31.4406 56.2943 31.4406 56.2087V50.1375C31.4406 50.0519 31.4662 49.9792 31.5176 49.9193C31.5775 49.8594 31.6502 49.8294 31.7358 49.8294H32.3262C32.4118 49.8294 32.4845 49.8594 32.5444 49.9193C32.6043 49.9792 32.6343 50.0519 32.6343 50.1375V50.7022C32.8054 50.4113 33.0407 50.1931 33.3402 50.0476C33.6397 49.9022 33.9991 49.8294 34.4184 49.8294H34.9318C35.0174 49.8294 35.0859 49.8594 35.1372 49.9193C35.1886 49.9706 35.2142 50.0391 35.2142 50.1246V50.6509C35.2142 50.7365 35.1886 50.8049 35.1372 50.8563C35.0859 50.9076 35.0174 50.9333 34.9318 50.9333H34.1617C33.6996 50.9333 33.336 51.0702 33.0707 51.344C32.8054 51.6093 32.6728 51.973 32.6728 52.435V56.2087C32.6728 56.2943 32.6428 56.367 32.5829 56.4269C32.523 56.4782 32.4503 56.5039 32.3647 56.5039H31.7358ZM38.7275 56.6323C38.2568 56.6323 37.8504 56.551 37.5081 56.3884C37.1658 56.2172 36.8834 55.9905 36.6609 55.7081C36.447 55.4172 36.2844 55.0877 36.1732 54.7198C36.0705 54.3518 36.0106 53.9625 35.9935 53.5517C35.9849 53.4148 35.9807 53.2865 35.9807 53.1667C35.9807 53.0469 35.9849 52.9185 35.9935 52.7816C36.0106 52.3794 36.0705 51.9943 36.1732 51.6264C36.2844 51.2584 36.447 50.929 36.6609 50.6381C36.8834 50.3471 37.1658 50.1204 37.5081 49.9578C37.8504 49.7866 38.2568 49.7011 38.7275 49.7011C39.2323 49.7011 39.6516 49.7909 39.9854 49.9706C40.3191 50.1503 40.5929 50.3728 40.8068 50.6381V47.6859C40.8068 47.6003 40.8325 47.5319 40.8838 47.4805C40.9437 47.4206 41.0165 47.3907 41.102 47.3907H41.7182C41.8037 47.3907 41.8722 47.4206 41.9235 47.4805C41.9834 47.5319 42.0134 47.6003 42.0134 47.6859V56.2087C42.0134 56.2943 41.9834 56.367 41.9235 56.4269C41.8722 56.4782 41.8037 56.5039 41.7182 56.5039H41.1406C41.0464 56.5039 40.9737 56.4782 40.9224 56.4269C40.871 56.367 40.8453 56.2943 40.8453 56.2087V55.6696C40.6314 55.9434 40.3533 56.1745 40.011 56.3627C39.6687 56.5424 39.2409 56.6323 38.7275 56.6323ZM38.997 55.5926C39.4249 55.5926 39.7672 55.4942 40.0239 55.2974C40.2806 55.1006 40.4731 54.8524 40.6015 54.5529C40.7298 54.2448 40.7983 53.9325 40.8068 53.6159C40.8154 53.479 40.8197 53.3164 40.8197 53.1282C40.8197 52.9313 40.8154 52.7645 40.8068 52.6276C40.7983 52.3281 40.7255 52.0329 40.5886 51.7419C40.4603 51.451 40.2635 51.2114 39.9982 51.0231C39.7415 50.8349 39.4078 50.7407 38.997 50.7407C38.5606 50.7407 38.214 50.8392 37.9573 51.036C37.7006 51.2242 37.5167 51.4766 37.4054 51.7933C37.2942 52.1013 37.23 52.435 37.2129 52.7944C37.2043 53.0426 37.2043 53.2907 37.2129 53.5389C37.23 53.8983 37.2942 54.2363 37.4054 54.5529C37.5167 54.861 37.7006 55.1134 37.9573 55.3102C38.214 55.4985 38.5606 55.5926 38.997 55.5926ZM50.3435 56.6323C49.599 56.6323 48.9743 56.521 48.4695 56.2985C47.9646 56.0675 47.5753 55.7723 47.3014 55.4129C47.0362 55.0449 46.895 54.6556 46.8779 54.2448C46.8779 54.1764 46.9035 54.1165 46.9549 54.0652C47.0148 54.0053 47.0832 53.9753 47.1603 53.9753H47.8149C47.9176 53.9753 47.9946 54.001 48.0459 54.0523C48.0972 54.1037 48.1315 54.1636 48.1486 54.232C48.1914 54.4374 48.2941 54.6428 48.4566 54.8481C48.6278 55.0449 48.8631 55.2118 49.1626 55.3487C49.4707 55.4771 49.8643 55.5412 50.3435 55.5412C51.0794 55.5412 51.6185 55.4129 51.9608 55.1562C52.3116 54.8909 52.487 54.5401 52.487 54.1037C52.487 53.8042 52.3929 53.5646 52.2046 53.3849C52.0249 53.1966 51.7468 53.0298 51.3703 52.8843C50.9938 52.7388 50.5061 52.5805 49.9071 52.4094C49.2824 52.2297 48.7647 52.0329 48.354 51.8189C47.9432 51.605 47.6352 51.3397 47.4298 51.0231C47.233 50.7065 47.1346 50.3043 47.1346 49.8166C47.1346 49.3545 47.2587 48.9438 47.5068 48.5844C47.755 48.2164 48.1101 47.9255 48.5722 47.7116C49.0428 47.4976 49.6118 47.3907 50.2793 47.3907C50.8098 47.3907 51.2719 47.4634 51.6655 47.6089C52.0677 47.7458 52.4014 47.934 52.6667 48.1736C52.932 48.4047 53.1331 48.6571 53.27 48.9309C53.4069 49.1962 53.4796 49.4572 53.4882 49.7139C53.4882 49.7738 53.4668 49.8337 53.424 49.8936C53.3812 49.9449 53.3128 49.9706 53.2186 49.9706H52.5383C52.4785 49.9706 52.4143 49.9535 52.3458 49.9193C52.2859 49.885 52.2389 49.8209 52.2046 49.7267C52.1533 49.3759 51.9565 49.0807 51.6142 48.8411C51.2719 48.6015 50.8269 48.4817 50.2793 48.4817C49.7231 48.4817 49.2696 48.5887 48.9187 48.8026C48.5764 49.0165 48.4053 49.3502 48.4053 49.8037C48.4053 50.0947 48.4866 50.3386 48.6492 50.5354C48.8118 50.7236 49.0685 50.8905 49.4193 51.036C49.7701 51.1814 50.228 51.3355 50.7927 51.498C51.4773 51.6863 52.0378 51.8874 52.4742 52.1013C52.9106 52.3067 53.2315 52.5677 53.4368 52.8843C53.6508 53.1923 53.7577 53.5902 53.7577 54.078C53.7577 54.6171 53.6165 55.0792 53.3342 55.4642C53.0518 55.8407 52.6539 56.1317 52.1404 56.337C51.6356 56.5339 51.0366 56.6323 50.3435 56.6323ZM55.8453 56.5039C55.7512 56.5039 55.6785 56.4782 55.6271 56.4269C55.5758 56.367 55.5501 56.2943 55.5501 56.2087V47.8142C55.5501 47.7287 55.5758 47.6602 55.6271 47.6089C55.6785 47.549 55.7512 47.519 55.8453 47.519H56.5256C56.6112 47.519 56.6796 47.549 56.731 47.6089C56.7909 47.6602 56.8208 47.7287 56.8208 47.8142V56.2087C56.8208 56.2943 56.7909 56.367 56.731 56.4269C56.6796 56.4782 56.6112 56.5039 56.5256 56.5039H55.8453ZM59.4651 56.5039C59.3709 56.5039 59.2982 56.4782 59.2469 56.4269C59.1955 56.367 59.1698 56.2943 59.1698 56.2087V47.8271C59.1698 47.7329 59.1955 47.6602 59.2469 47.6089C59.2982 47.549 59.3709 47.519 59.4651 47.519H62.7253C63.3585 47.519 63.9062 47.6217 64.3682 47.8271C64.8389 48.0324 65.2026 48.3405 65.4593 48.7512C65.716 49.1534 65.8443 49.6583 65.8443 50.2658C65.8443 50.8734 65.716 51.3782 65.4593 51.7804C65.2026 52.1826 64.8389 52.4864 64.3682 52.6917C63.9062 52.8971 63.3585 52.9998 62.7253 52.9998H60.4534V56.2087C60.4534 56.2943 60.4235 56.367 60.3636 56.4269C60.3122 56.4782 60.2395 56.5039 60.1453 56.5039H59.4651ZM60.4406 51.9216H62.6611C63.2943 51.9216 63.7693 51.7804 64.0859 51.498C64.4025 51.2157 64.5608 50.8049 64.5608 50.2658C64.5608 49.7353 64.4068 49.3246 64.0987 49.0336C63.7906 48.7427 63.3115 48.5972 62.6611 48.5972H60.4406V51.9216Z" fill="#132056"/>
<path d="M159.752 28.2838C159.173 28.2838 158.681 28.1848 158.278 27.9868C157.882 27.7814 157.577 27.5174 157.365 27.1947C157.159 26.8719 157.049 26.5309 157.035 26.1715C157.027 26.1055 157.046 26.0541 157.09 26.0175C157.134 25.9808 157.189 25.9624 157.255 25.9624H157.849C157.915 25.9624 157.974 25.9771 158.025 26.0065C158.076 26.0358 158.117 26.0981 158.146 26.1935C158.219 26.4649 158.337 26.6886 158.498 26.8646C158.667 27.0333 158.857 27.158 159.07 27.2387C159.29 27.312 159.517 27.3487 159.752 27.3487C160.068 27.3487 160.354 27.2863 160.61 27.1617C160.874 27.0296 161.083 26.8389 161.237 26.5896C161.391 26.3328 161.468 26.0248 161.468 25.6654C161.468 25.3353 161.391 25.053 161.237 24.8182C161.091 24.5762 160.885 24.3928 160.621 24.2682C160.365 24.1361 160.075 24.0701 159.752 24.0701C159.51 24.0701 159.312 24.0995 159.158 24.1581C159.004 24.2168 158.872 24.2865 158.762 24.3672C158.659 24.4479 158.564 24.5175 158.476 24.5762C158.395 24.6349 158.304 24.6642 158.201 24.6642H157.629C157.563 24.6642 157.504 24.6422 157.453 24.5982C157.401 24.5469 157.379 24.4882 157.387 24.4222L157.739 20.7475C157.746 20.6595 157.772 20.5935 157.816 20.5495C157.867 20.4982 157.933 20.4725 158.014 20.4725H161.854C161.927 20.4725 161.986 20.4982 162.03 20.5495C162.081 20.5935 162.107 20.6522 162.107 20.7255V21.1546C162.107 21.2353 162.081 21.2976 162.03 21.3416C161.986 21.3857 161.927 21.4077 161.854 21.4077H158.685L158.476 23.575C158.579 23.509 158.744 23.432 158.971 23.344C159.198 23.2486 159.51 23.201 159.906 23.201C160.266 23.201 160.603 23.256 160.918 23.366C161.241 23.476 161.527 23.6374 161.777 23.8501C162.026 24.0628 162.22 24.3232 162.36 24.6312C162.499 24.9319 162.569 25.2803 162.569 25.6764C162.569 26.2338 162.444 26.7069 162.195 27.0956C161.953 27.4844 161.619 27.7814 161.193 27.9868C160.775 28.1848 160.295 28.2838 159.752 28.2838ZM166.12 28.1738C165.709 28.1738 165.375 28.0968 165.118 27.9428C164.862 27.7814 164.675 27.5577 164.557 27.2717C164.44 26.9783 164.381 26.6336 164.381 26.2375V23.333H163.523C163.45 23.333 163.387 23.311 163.336 23.267C163.292 23.2156 163.27 23.1533 163.27 23.0799V22.7059C163.27 22.6325 163.292 22.5739 163.336 22.5299C163.387 22.4785 163.45 22.4528 163.523 22.4528H164.381V20.6155C164.381 20.5422 164.403 20.4835 164.447 20.4395C164.499 20.3882 164.561 20.3625 164.634 20.3625H165.151C165.225 20.3625 165.283 20.3882 165.327 20.4395C165.379 20.4835 165.404 20.5422 165.404 20.6155V22.4528H166.769C166.842 22.4528 166.901 22.4785 166.945 22.5299C166.996 22.5739 167.022 22.6325 167.022 22.7059V23.0799C167.022 23.1533 166.996 23.2156 166.945 23.267C166.901 23.311 166.842 23.333 166.769 23.333H165.404V26.1605C165.404 26.5052 165.463 26.7766 165.58 26.9746C165.698 27.1727 165.907 27.2717 166.208 27.2717H166.879C166.952 27.2717 167.011 27.2973 167.055 27.3487C167.106 27.3927 167.132 27.4514 167.132 27.5247V27.9208C167.132 27.9941 167.106 28.0565 167.055 28.1078C167.011 28.1518 166.952 28.1738 166.879 28.1738H166.12ZM168.448 28.1738C168.374 28.1738 168.312 28.1518 168.261 28.1078C168.217 28.0565 168.195 27.9941 168.195 27.9208V20.6155C168.195 20.5422 168.217 20.4835 168.261 20.4395C168.312 20.3882 168.374 20.3625 168.448 20.3625H168.998C169.079 20.3625 169.141 20.3882 169.185 20.4395C169.229 20.4835 169.251 20.5422 169.251 20.6155V23.179C169.449 22.9296 169.691 22.7279 169.977 22.5739C170.263 22.4198 170.626 22.3428 171.066 22.3428C171.543 22.3428 171.946 22.4492 172.276 22.6619C172.614 22.8672 172.867 23.157 173.036 23.531C173.212 23.8978 173.3 24.3268 173.3 24.8182V27.9208C173.3 27.9941 173.278 28.0565 173.234 28.1078C173.19 28.1518 173.127 28.1738 173.047 28.1738H172.496C172.423 28.1738 172.361 28.1518 172.309 28.1078C172.265 28.0565 172.243 27.9941 172.243 27.9208V24.8733C172.243 24.3598 172.119 23.9601 171.869 23.6741C171.62 23.3807 171.253 23.234 170.769 23.234C170.314 23.234 169.948 23.3807 169.669 23.6741C169.39 23.9601 169.251 24.3598 169.251 24.8733V27.9208C169.251 27.9941 169.229 28.0565 169.185 28.1078C169.141 28.1518 169.079 28.1738 168.998 28.1738H168.448ZM179.928 28.2838C179.371 28.2838 178.905 28.1775 178.531 27.9648C178.157 27.7521 177.871 27.4587 177.673 27.0846C177.475 26.7032 177.365 26.2705 177.343 25.7864C177.335 25.6617 177.332 25.504 177.332 25.3133C177.332 25.1153 177.335 24.9576 177.343 24.8403C177.365 24.3488 177.475 23.9161 177.673 23.542C177.878 23.168 178.168 22.8746 178.542 22.6619C178.916 22.4492 179.378 22.3428 179.928 22.3428C180.478 22.3428 180.94 22.4492 181.314 22.6619C181.688 22.8746 181.975 23.168 182.173 23.542C182.378 23.9161 182.492 24.3488 182.514 24.8403C182.521 24.9576 182.525 25.1153 182.525 25.3133C182.525 25.504 182.521 25.6617 182.514 25.7864C182.492 26.2705 182.382 26.7032 182.184 27.0846C181.986 27.4587 181.699 27.7521 181.325 27.9648C180.951 28.1775 180.486 28.2838 179.928 28.2838ZM179.928 27.4367C180.383 27.4367 180.746 27.2937 181.017 27.0076C181.289 26.7142 181.435 26.2888 181.457 25.7314C181.465 25.6214 181.468 25.482 181.468 25.3133C181.468 25.1446 181.465 25.0053 181.457 24.8953C181.435 24.3378 181.289 23.9161 181.017 23.63C180.746 23.3367 180.383 23.19 179.928 23.19C179.473 23.19 179.107 23.3367 178.828 23.63C178.557 23.9161 178.414 24.3378 178.399 24.8953C178.392 25.0053 178.388 25.1446 178.388 25.3133C178.388 25.482 178.392 25.6214 178.399 25.7314C178.414 26.2888 178.557 26.7142 178.828 27.0076C179.107 27.2937 179.473 27.4367 179.928 27.4367ZM184.663 28.1738C184.59 28.1738 184.527 28.1518 184.476 28.1078C184.432 28.0565 184.41 27.9941 184.41 27.9208V23.333H183.475C183.401 23.333 183.339 23.311 183.288 23.267C183.244 23.2156 183.222 23.1533 183.222 23.0799V22.7059C183.222 22.6325 183.244 22.5739 183.288 22.5299C183.339 22.4785 183.401 22.4528 183.475 22.4528H184.41V21.9027C184.41 21.5287 184.472 21.2023 184.597 20.9236C184.722 20.6375 184.92 20.4175 185.191 20.2635C185.47 20.1094 185.84 20.0324 186.302 20.0324H186.962C187.036 20.0324 187.094 20.0581 187.138 20.1094C187.182 20.1534 187.204 20.2121 187.204 20.2855V20.6595C187.204 20.7329 187.182 20.7952 187.138 20.8466C187.094 20.8906 187.036 20.9126 186.962 20.9126H186.324C185.98 20.9126 185.745 21.0043 185.62 21.1876C185.495 21.3637 185.433 21.6204 185.433 21.9578V22.4528H186.852C186.926 22.4528 186.984 22.4785 187.028 22.5299C187.072 22.5739 187.094 22.6325 187.094 22.7059V23.0799C187.094 23.1533 187.072 23.2156 187.028 23.267C186.984 23.311 186.926 23.333 186.852 23.333H185.433V27.9208C185.433 27.9941 185.407 28.0565 185.356 28.1078C185.312 28.1518 185.253 28.1738 185.18 28.1738H184.663ZM192.798 28.2838C192.043 28.2838 191.441 28.0528 190.994 27.5907C190.546 27.1213 190.301 26.4832 190.257 25.6764C190.249 25.581 190.246 25.46 190.246 25.3133C190.246 25.1593 190.249 25.0346 190.257 24.9393C190.286 24.4185 190.407 23.9638 190.62 23.575C190.832 23.179 191.122 22.8746 191.489 22.6619C191.863 22.4492 192.299 22.3428 192.798 22.3428C193.355 22.3428 193.821 22.4602 194.195 22.6949C194.577 22.9296 194.866 23.2633 195.064 23.6961C195.262 24.1288 195.361 24.6349 195.361 25.2143V25.4013C195.361 25.482 195.336 25.5444 195.284 25.5884C195.24 25.6324 195.182 25.6544 195.108 25.6544H191.302C191.302 25.6617 191.302 25.6764 191.302 25.6984C191.302 25.7204 191.302 25.7387 191.302 25.7534C191.316 26.0541 191.382 26.3365 191.5 26.6006C191.617 26.8573 191.786 27.0663 192.006 27.2277C192.226 27.389 192.49 27.4697 192.798 27.4697C193.062 27.4697 193.282 27.4294 193.458 27.3487C193.634 27.268 193.777 27.18 193.887 27.0846C193.997 26.982 194.071 26.9049 194.107 26.8536C194.173 26.7583 194.225 26.7032 194.261 26.6886C194.298 26.6666 194.357 26.6556 194.437 26.6556H194.965C195.039 26.6556 195.097 26.6776 195.141 26.7216C195.193 26.7583 195.215 26.8133 195.207 26.8866C195.2 26.9966 195.141 27.1323 195.031 27.2937C194.921 27.4477 194.764 27.6017 194.558 27.7558C194.353 27.9098 194.104 28.0381 193.81 28.1408C193.517 28.2362 193.179 28.2838 192.798 28.2838ZM191.302 24.8953H194.316V24.8623C194.316 24.5322 194.254 24.2388 194.129 23.9821C194.012 23.7254 193.84 23.5237 193.612 23.377C193.385 23.223 193.113 23.146 192.798 23.146C192.483 23.146 192.211 23.223 191.984 23.377C191.764 23.5237 191.595 23.7254 191.478 23.9821C191.36 24.2388 191.302 24.5322 191.302 24.8623V24.8953ZM198.475 28.1738C198.365 28.1738 198.277 28.1482 198.211 28.0968C198.152 28.0455 198.104 27.9795 198.068 27.8988L196.032 22.7939C196.018 22.7572 196.01 22.7206 196.01 22.6839C196.01 22.6179 196.032 22.5629 196.076 22.5189C196.12 22.4748 196.175 22.4528 196.242 22.4528H196.77C196.85 22.4528 196.913 22.4748 196.957 22.5189C197.001 22.5629 197.026 22.6032 197.034 22.6399L198.717 26.9746L200.389 22.6399C200.404 22.6032 200.43 22.5629 200.466 22.5189C200.51 22.4748 200.573 22.4528 200.653 22.4528H201.192C201.251 22.4528 201.302 22.4748 201.346 22.5189C201.398 22.5629 201.423 22.6179 201.423 22.6839C201.423 22.7206 201.416 22.7572 201.401 22.7939L199.355 27.8988C199.326 27.9795 199.278 28.0455 199.212 28.0968C199.153 28.1482 199.065 28.1738 198.948 28.1738H198.475ZM204.649 28.2838C203.893 28.2838 203.292 28.0528 202.844 27.5907C202.397 27.1213 202.151 26.4832 202.107 25.6764C202.1 25.581 202.096 25.46 202.096 25.3133C202.096 25.1593 202.1 25.0346 202.107 24.9393C202.137 24.4185 202.258 23.9638 202.47 23.575C202.683 23.179 202.973 22.8746 203.339 22.6619C203.714 22.4492 204.15 22.3428 204.649 22.3428C205.206 22.3428 205.672 22.4602 206.046 22.6949C206.427 22.9296 206.717 23.2633 206.915 23.6961C207.113 24.1288 207.212 24.6349 207.212 25.2143V25.4013C207.212 25.482 207.186 25.5444 207.135 25.5884C207.091 25.6324 207.032 25.6544 206.959 25.6544H203.152C203.152 25.6617 203.152 25.6764 203.152 25.6984C203.152 25.7204 203.152 25.7387 203.152 25.7534C203.167 26.0541 203.233 26.3365 203.35 26.6006C203.468 26.8573 203.637 27.0663 203.857 27.2277C204.077 27.389 204.341 27.4697 204.649 27.4697C204.913 27.4697 205.133 27.4294 205.309 27.3487C205.485 27.268 205.628 27.18 205.738 27.0846C205.848 26.982 205.921 26.9049 205.958 26.8536C206.024 26.7583 206.075 26.7032 206.112 26.6886C206.149 26.6666 206.207 26.6556 206.288 26.6556H206.816C206.889 26.6556 206.948 26.6776 206.992 26.7216C207.043 26.7583 207.065 26.8133 207.058 26.8866C207.051 26.9966 206.992 27.1323 206.882 27.2937C206.772 27.4477 206.614 27.6017 206.409 27.7558C206.204 27.9098 205.954 28.0381 205.661 28.1408C205.367 28.2362 205.03 28.2838 204.649 28.2838ZM203.152 24.8953H206.167V24.8623C206.167 24.5322 206.105 24.2388 205.98 23.9821C205.863 23.7254 205.69 23.5237 205.463 23.377C205.235 23.223 204.964 23.146 204.649 23.146C204.333 23.146 204.062 23.223 203.835 23.377C203.615 23.5237 203.446 23.7254 203.328 23.9821C203.211 24.2388 203.152 24.5322 203.152 24.8623V24.8953ZM208.781 28.1738C208.707 28.1738 208.645 28.1518 208.594 28.1078C208.55 28.0565 208.528 27.9941 208.528 27.9208V22.7169C208.528 22.6435 208.55 22.5812 208.594 22.5299C208.645 22.4785 208.707 22.4528 208.781 22.4528H209.287C209.36 22.4528 209.422 22.4785 209.474 22.5299C209.525 22.5812 209.551 22.6435 209.551 22.7169V23.201C209.697 22.9516 209.899 22.7646 210.156 22.6399C210.413 22.5152 210.721 22.4528 211.08 22.4528H211.52C211.593 22.4528 211.652 22.4785 211.696 22.5299C211.74 22.5739 211.762 22.6325 211.762 22.7059V23.157C211.762 23.2303 211.74 23.289 211.696 23.333C211.652 23.377 211.593 23.399 211.52 23.399H210.86C210.464 23.399 210.152 23.5164 209.925 23.7511C209.697 23.9784 209.584 24.2902 209.584 24.6862V27.9208C209.584 27.9941 209.558 28.0565 209.507 28.1078C209.455 28.1518 209.393 28.1738 209.32 28.1738H208.781ZM213.708 30.2642C213.65 30.2642 213.598 30.2422 213.554 30.1982C213.51 30.1542 213.488 30.1028 213.488 30.0442C213.488 30.0148 213.492 29.9855 213.499 29.9561C213.507 29.9268 213.521 29.8901 213.543 29.8461L214.39 27.8328L212.289 22.8709C212.252 22.7829 212.234 22.7206 212.234 22.6839C212.234 22.6179 212.256 22.5629 212.3 22.5189C212.344 22.4748 212.399 22.4528 212.465 22.4528H213.004C213.077 22.4528 213.136 22.4712 213.18 22.5078C213.224 22.5445 213.253 22.5885 213.268 22.6399L214.94 26.6446L216.657 22.6399C216.679 22.5885 216.708 22.5445 216.745 22.5078C216.789 22.4712 216.851 22.4528 216.932 22.4528H217.449C217.515 22.4528 217.57 22.4748 217.614 22.5189C217.658 22.5629 217.68 22.6142 217.68 22.6729C217.68 22.7096 217.662 22.7756 217.625 22.8709L214.5 30.0772C214.478 30.1285 214.445 30.1725 214.401 30.2092C214.365 30.2459 214.306 30.2642 214.225 30.2642H213.708ZM221.426 28.1738C221.353 28.1738 221.291 28.1518 221.239 28.1078C221.195 28.0565 221.173 27.9941 221.173 27.9208V22.7059C221.173 22.6325 221.195 22.5739 221.239 22.5299C221.291 22.4785 221.353 22.4528 221.426 22.4528H221.921C221.995 22.4528 222.054 22.4785 222.098 22.5299C222.149 22.5739 222.175 22.6325 222.175 22.7059V23.091C222.343 22.8636 222.556 22.6839 222.813 22.5519C223.069 22.4125 223.377 22.3428 223.737 22.3428C224.566 22.3355 225.152 22.6729 225.497 23.355C225.666 23.0469 225.912 22.8012 226.234 22.6179C226.557 22.4345 226.924 22.3428 227.334 22.3428C227.716 22.3428 228.061 22.4308 228.369 22.6069C228.684 22.7829 228.93 23.0506 229.106 23.41C229.289 23.7621 229.381 24.2058 229.381 24.7412V27.9208C229.381 27.9941 229.355 28.0565 229.304 28.1078C229.26 28.1518 229.201 28.1738 229.128 28.1738H228.611C228.537 28.1738 228.475 28.1518 228.424 28.1078C228.38 28.0565 228.358 27.9941 228.358 27.9208V24.8403C228.358 24.4295 228.299 24.1068 228.182 23.8721C228.064 23.6374 227.907 23.4723 227.708 23.377C227.51 23.2817 227.294 23.234 227.059 23.234C226.869 23.234 226.674 23.2817 226.476 23.377C226.278 23.4723 226.113 23.6374 225.981 23.8721C225.857 24.1068 225.794 24.4295 225.794 24.8403V27.9208C225.794 27.9941 225.768 28.0565 225.717 28.1078C225.673 28.1518 225.614 28.1738 225.541 28.1738H225.024C224.951 28.1738 224.888 28.1518 224.837 28.1078C224.793 28.0565 224.771 27.9941 224.771 27.9208V24.8403C224.771 24.4295 224.709 24.1068 224.584 23.8721C224.459 23.6374 224.298 23.4723 224.1 23.377C223.902 23.2817 223.693 23.234 223.473 23.234C223.282 23.234 223.088 23.2817 222.89 23.377C222.692 23.4723 222.527 23.6374 222.395 23.8721C222.27 24.1068 222.208 24.4258 222.208 24.8293V27.9208C222.208 27.9941 222.182 28.0565 222.131 28.1078C222.087 28.1518 222.028 28.1738 221.954 28.1738H221.426ZM233.294 28.2838C232.736 28.2838 232.271 28.1775 231.897 27.9648C231.523 27.7521 231.236 27.4587 231.038 27.0846C230.84 26.7032 230.73 26.2705 230.708 25.7864C230.701 25.6617 230.697 25.504 230.697 25.3133C230.697 25.1153 230.701 24.9576 230.708 24.8403C230.73 24.3488 230.84 23.9161 231.038 23.542C231.244 23.168 231.534 22.8746 231.908 22.6619C232.282 22.4492 232.744 22.3428 233.294 22.3428C233.844 22.3428 234.306 22.4492 234.68 22.6619C235.054 22.8746 235.34 23.168 235.538 23.542C235.744 23.9161 235.857 24.3488 235.879 24.8403C235.887 24.9576 235.89 25.1153 235.89 25.3133C235.89 25.504 235.887 25.6617 235.879 25.7864C235.857 26.2705 235.747 26.7032 235.549 27.0846C235.351 27.4587 235.065 27.7521 234.691 27.9648C234.317 28.1775 233.851 28.2838 233.294 28.2838ZM233.294 27.4367C233.749 27.4367 234.112 27.2937 234.383 27.0076C234.654 26.7142 234.801 26.2888 234.823 25.7314C234.83 25.6214 234.834 25.482 234.834 25.3133C234.834 25.1446 234.83 25.0053 234.823 24.8953C234.801 24.3378 234.654 23.9161 234.383 23.63C234.112 23.3367 233.749 23.19 233.294 23.19C232.839 23.19 232.472 23.3367 232.194 23.63C231.922 23.9161 231.779 24.3378 231.765 24.8953C231.757 25.0053 231.754 25.1446 231.754 25.3133C231.754 25.482 231.757 25.6214 231.765 25.7314C231.779 26.2888 231.922 26.7142 232.194 27.0076C232.472 27.2937 232.839 27.4367 233.294 27.4367ZM237.521 28.1738C237.448 28.1738 237.385 28.1518 237.334 28.1078C237.29 28.0565 237.268 27.9941 237.268 27.9208V22.7059C237.268 22.6325 237.29 22.5739 237.334 22.5299C237.385 22.4785 237.448 22.4528 237.521 22.4528H238.038C238.111 22.4528 238.17 22.4785 238.214 22.5299C238.265 22.5739 238.291 22.6325 238.291 22.7059V23.19C238.482 22.9406 238.72 22.7389 239.006 22.5849C239.3 22.4235 239.674 22.3428 240.128 22.3428C240.605 22.3428 241.009 22.4492 241.339 22.6619C241.676 22.8672 241.929 23.157 242.098 23.531C242.266 23.8978 242.351 24.3268 242.351 24.8182V27.9208C242.351 27.9941 242.329 28.0565 242.285 28.1078C242.241 28.1518 242.182 28.1738 242.109 28.1738H241.559C241.485 28.1738 241.423 28.1518 241.372 28.1078C241.328 28.0565 241.306 27.9941 241.306 27.9208V24.8733C241.306 24.3598 241.181 23.9601 240.932 23.6741C240.682 23.3807 240.315 23.234 239.831 23.234C239.377 23.234 239.01 23.3807 238.731 23.6741C238.46 23.9601 238.324 24.3598 238.324 24.8733V27.9208C238.324 27.9941 238.298 28.0565 238.247 28.1078C238.203 28.1518 238.144 28.1738 238.071 28.1738H237.521ZM246.098 28.1738C245.687 28.1738 245.354 28.0968 245.097 27.9428C244.84 27.7814 244.653 27.5577 244.536 27.2717C244.419 26.9783 244.36 26.6336 244.36 26.2375V23.333H243.502C243.428 23.333 243.366 23.311 243.315 23.267C243.271 23.2156 243.249 23.1533 243.249 23.0799V22.7059C243.249 22.6325 243.271 22.5739 243.315 22.5299C243.366 22.4785 243.428 22.4528 243.502 22.4528H244.36V20.6155C244.36 20.5422 244.382 20.4835 244.426 20.4395C244.477 20.3882 244.54 20.3625 244.613 20.3625H245.13C245.203 20.3625 245.262 20.3882 245.306 20.4395C245.357 20.4835 245.383 20.5422 245.383 20.6155V22.4528H246.747C246.821 22.4528 246.879 22.4785 246.923 22.5299C246.975 22.5739 247 22.6325 247 22.7059V23.0799C247 23.1533 246.975 23.2156 246.923 23.267C246.879 23.311 246.821 23.333 246.747 23.333H245.383V26.1605C245.383 26.5052 245.442 26.7766 245.559 26.9746C245.676 27.1727 245.885 27.2717 246.186 27.2717H246.857C246.931 27.2717 246.989 27.2973 247.033 27.3487C247.085 27.3927 247.11 27.4514 247.11 27.5247V27.9208C247.11 27.9941 247.085 28.0565 247.033 28.1078C246.989 28.1518 246.931 28.1738 246.857 28.1738H246.098ZM248.426 28.1738C248.353 28.1738 248.291 28.1518 248.239 28.1078C248.195 28.0565 248.173 27.9941 248.173 27.9208V20.6155C248.173 20.5422 248.195 20.4835 248.239 20.4395C248.291 20.3882 248.353 20.3625 248.426 20.3625H248.977C249.057 20.3625 249.12 20.3882 249.164 20.4395C249.208 20.4835 249.23 20.5422 249.23 20.6155V23.179C249.428 22.9296 249.67 22.7279 249.956 22.5739C250.242 22.4198 250.605 22.3428 251.045 22.3428C251.522 22.3428 251.925 22.4492 252.255 22.6619C252.592 22.8672 252.846 23.157 253.014 23.531C253.19 23.8978 253.278 24.3268 253.278 24.8182V27.9208C253.278 27.9941 253.256 28.0565 253.212 28.1078C253.168 28.1518 253.106 28.1738 253.025 28.1738H252.475C252.402 28.1738 252.339 28.1518 252.288 28.1078C252.244 28.0565 252.222 27.9941 252.222 27.9208V24.8733C252.222 24.3598 252.097 23.9601 251.848 23.6741C251.599 23.3807 251.232 23.234 250.748 23.234C250.293 23.234 249.926 23.3807 249.648 23.6741C249.369 23.9601 249.23 24.3598 249.23 24.8733V27.9208C249.23 27.9941 249.208 28.0565 249.164 28.1078C249.12 28.1518 249.057 28.1738 248.977 28.1738H248.426Z" fill="#888FAF"/>
<rect x="22.6719" y="64.5898" width="47.6749" height="20.1701" rx="3.6673" fill="#C1F0DE"/>
<path opacity="0.87" d="M30.4479 78.2598C30.3892 78.2598 30.3379 78.2378 30.2939 78.1938C30.2499 78.1497 30.2279 78.0984 30.2279 78.0397C30.2279 78.0031 30.2315 77.9627 30.2389 77.9187L32.9673 70.8005C32.9967 70.7271 33.037 70.6685 33.0883 70.6244C33.1397 70.5804 33.2167 70.5584 33.3194 70.5584H34.0675C34.1629 70.5584 34.2362 70.5804 34.2876 70.6244C34.3462 70.6685 34.3902 70.7271 34.4196 70.8005L37.137 77.9187C37.1517 77.9627 37.159 78.0031 37.159 78.0397C37.159 78.0984 37.137 78.1497 37.093 78.1938C37.049 78.2378 36.9977 78.2598 36.939 78.2598H36.3779C36.2899 78.2598 36.2239 78.2378 36.1799 78.1938C36.1432 78.1497 36.1175 78.1094 36.1029 78.0727L35.4978 76.5105H31.8891L31.284 78.0727C31.2767 78.1094 31.251 78.1497 31.207 78.1938C31.163 78.2378 31.097 78.2598 31.009 78.2598H30.4479ZM32.2082 75.5643H35.1787L33.6934 71.6586L32.2082 75.5643ZM40.4383 78.3698C39.9175 78.3698 39.4665 78.2708 39.0851 78.0727C38.711 77.8674 38.4213 77.5776 38.2159 77.2036C38.0105 76.8222 37.9005 76.3674 37.8859 75.8393C37.8785 75.7293 37.8749 75.5826 37.8749 75.3993C37.8749 75.2159 37.8785 75.0692 37.8859 74.9592C37.9005 74.4311 38.0105 73.98 38.2159 73.606C38.4213 73.2246 38.711 72.9348 39.0851 72.7368C39.4665 72.5314 39.9175 72.4288 40.4383 72.4288C40.8637 72.4288 41.2268 72.4874 41.5275 72.6048C41.8355 72.7221 42.0886 72.8725 42.2866 73.0559C42.4847 73.2392 42.6313 73.4373 42.7267 73.65C42.8294 73.8627 42.8844 74.0644 42.8917 74.2551C42.8991 74.3284 42.8771 74.3871 42.8257 74.4311C42.7744 74.4751 42.712 74.4971 42.6387 74.4971H42.1106C42.0372 74.4971 41.9822 74.4824 41.9456 74.4531C41.9089 74.4164 41.8722 74.3578 41.8355 74.2771C41.7035 73.9177 41.5238 73.6646 41.2964 73.5179C41.0691 73.3713 40.7867 73.2979 40.4493 73.2979C40.0092 73.2979 39.6498 73.4336 39.3711 73.705C39.0997 73.9764 38.953 74.4128 38.931 75.0142C38.9237 75.2783 38.9237 75.535 38.931 75.7843C38.953 76.3931 39.0997 76.8332 39.3711 77.1046C39.6498 77.3686 40.0092 77.5006 40.4493 77.5006C40.7867 77.5006 41.0691 77.4273 41.2964 77.2806C41.5238 77.1339 41.7035 76.8809 41.8355 76.5215C41.8722 76.4408 41.9089 76.3858 41.9456 76.3564C41.9822 76.3198 42.0372 76.3014 42.1106 76.3014H42.6387C42.712 76.3014 42.7744 76.3234 42.8257 76.3674C42.8771 76.4114 42.8991 76.4701 42.8917 76.5435C42.8844 76.6975 42.8514 76.8552 42.7927 77.0166C42.734 77.1779 42.6387 77.3429 42.5067 77.5116C42.382 77.673 42.2243 77.8197 42.0336 77.9517C41.8429 78.0764 41.6118 78.1791 41.3405 78.2598C41.0764 78.3331 40.7757 78.3698 40.4383 78.3698ZM46.4317 78.2598C46.0209 78.2598 45.6872 78.1828 45.4305 78.0287C45.1738 77.8674 44.9868 77.6437 44.8694 77.3576C44.752 77.0642 44.6934 76.7195 44.6934 76.3234V73.4189H43.8352C43.7619 73.4189 43.6995 73.3969 43.6482 73.3529C43.6042 73.3016 43.5822 73.2392 43.5822 73.1659V72.7918C43.5822 72.7185 43.6042 72.6598 43.6482 72.6158C43.6995 72.5644 43.7619 72.5388 43.8352 72.5388H44.6934V70.7015C44.6934 70.6281 44.7154 70.5694 44.7594 70.5254C44.8107 70.4741 44.8731 70.4484 44.9464 70.4484H45.4635C45.5368 70.4484 45.5955 70.4741 45.6395 70.5254C45.6909 70.5694 45.7165 70.6281 45.7165 70.7015V72.5388H47.0808C47.1541 72.5388 47.2128 72.5644 47.2568 72.6158C47.3082 72.6598 47.3338 72.7185 47.3338 72.7918V73.1659C47.3338 73.2392 47.3082 73.3016 47.2568 73.3529C47.2128 73.3969 47.1541 73.4189 47.0808 73.4189H45.7165V76.2464C45.7165 76.5911 45.7752 76.8625 45.8926 77.0606C46.0099 77.2586 46.219 77.3576 46.5197 77.3576H47.1908C47.2641 77.3576 47.3228 77.3833 47.3668 77.4346C47.4182 77.4786 47.4438 77.5373 47.4438 77.6107V78.0067C47.4438 78.0801 47.4182 78.1424 47.3668 78.1938C47.3228 78.2378 47.2641 78.2598 47.1908 78.2598H46.4317ZM48.7489 78.2598C48.6756 78.2598 48.6133 78.2378 48.5619 78.1938C48.5179 78.1424 48.4959 78.0801 48.4959 78.0067V72.7918C48.4959 72.7185 48.5179 72.6598 48.5619 72.6158C48.6133 72.5644 48.6756 72.5388 48.7489 72.5388H49.277C49.3504 72.5388 49.4091 72.5644 49.4531 72.6158C49.4971 72.6598 49.5191 72.7185 49.5191 72.7918V78.0067C49.5191 78.0801 49.4971 78.1424 49.4531 78.1938C49.4091 78.2378 49.3504 78.2598 49.277 78.2598H48.7489ZM48.6609 71.4716C48.5876 71.4716 48.5252 71.4496 48.4739 71.4056C48.4299 71.3542 48.4079 71.2919 48.4079 71.2185V70.6244C48.4079 70.5511 48.4299 70.4924 48.4739 70.4484C48.5252 70.3971 48.5876 70.3714 48.6609 70.3714H49.354C49.4274 70.3714 49.4861 70.3971 49.5301 70.4484C49.5814 70.4924 49.6071 70.5511 49.6071 70.6244V71.2185C49.6071 71.2919 49.5814 71.3542 49.5301 71.4056C49.4861 71.4496 49.4274 71.4716 49.354 71.4716H48.6609ZM53.1518 78.2598C53.0417 78.2598 52.9537 78.2341 52.8877 78.1828C52.829 78.1314 52.7814 78.0654 52.7447 77.9847L50.7093 72.8798C50.6947 72.8432 50.6873 72.8065 50.6873 72.7698C50.6873 72.7038 50.7093 72.6488 50.7534 72.6048C50.7974 72.5608 50.8524 72.5388 50.9184 72.5388H51.4465C51.5272 72.5388 51.5895 72.5608 51.6335 72.6048C51.6775 72.6488 51.7032 72.6891 51.7105 72.7258L53.3938 77.0606L55.0661 72.7258C55.0808 72.6891 55.1064 72.6488 55.1431 72.6048C55.1871 72.5608 55.2495 72.5388 55.3301 72.5388H55.8692C55.9279 72.5388 55.9793 72.5608 56.0233 72.6048C56.0746 72.6488 56.1003 72.7038 56.1003 72.7698C56.1003 72.8065 56.0929 72.8432 56.0783 72.8798L54.0319 77.9847C54.0026 78.0654 53.9549 78.1314 53.8889 78.1828C53.8302 78.2341 53.7422 78.2598 53.6248 78.2598H53.1518ZM59.3256 78.3698C58.5701 78.3698 57.9687 78.1387 57.5212 77.6767C57.0738 77.2073 56.8281 76.5691 56.7841 75.7623C56.7768 75.667 56.7731 75.546 56.7731 75.3993C56.7731 75.2452 56.7768 75.1206 56.7841 75.0252C56.8135 74.5045 56.9345 74.0497 57.1472 73.661C57.3599 73.2649 57.6496 72.9605 58.0163 72.7478C58.3904 72.5351 58.8268 72.4288 59.3256 72.4288C59.883 72.4288 60.3487 72.5461 60.7228 72.7808C61.1042 73.0155 61.3939 73.3493 61.5919 73.782C61.79 74.2147 61.889 74.7208 61.889 75.3003V75.4873C61.889 75.568 61.8633 75.6303 61.812 75.6743C61.768 75.7183 61.7093 75.7403 61.636 75.7403H57.8293C57.8293 75.7477 57.8293 75.7623 57.8293 75.7843C57.8293 75.8063 57.8293 75.8247 57.8293 75.8393C57.844 76.1401 57.91 76.4224 58.0273 76.6865C58.1447 76.9432 58.3134 77.1522 58.5334 77.3136C58.7535 77.475 59.0175 77.5556 59.3256 77.5556C59.5896 77.5556 59.8096 77.5153 59.9857 77.4346C60.1617 77.3539 60.3047 77.2659 60.4147 77.1706C60.5248 77.0679 60.5981 76.9909 60.6348 76.9395C60.7008 76.8442 60.7521 76.7892 60.7888 76.7745C60.8255 76.7525 60.8842 76.7415 60.9648 76.7415H61.4929C61.5663 76.7415 61.6249 76.7635 61.669 76.8075C61.7203 76.8442 61.7423 76.8992 61.735 76.9725C61.7276 77.0826 61.669 77.2183 61.5589 77.3796C61.4489 77.5336 61.2912 77.6877 61.0859 77.8417C60.8805 77.9957 60.6311 78.1241 60.3377 78.2268C60.0443 78.3221 59.707 78.3698 59.3256 78.3698ZM57.8293 74.9812H60.8438V74.9482C60.8438 74.6181 60.7815 74.3248 60.6568 74.068C60.5394 73.8113 60.3671 73.6096 60.1397 73.4629C59.9123 73.3089 59.6409 73.2319 59.3256 73.2319C59.0102 73.2319 58.7388 73.3089 58.5114 73.4629C58.2914 73.6096 58.1227 73.8113 58.0053 74.068C57.888 74.3248 57.8293 74.6181 57.8293 74.9482V74.9812Z" fill="#064129"/>
<path d="M78.8899 79.6875C78.8092 79.6875 78.7469 79.6655 78.7029 79.6215C78.6589 79.5701 78.6369 79.5078 78.6369 79.4345V72.2502C78.6369 72.1695 78.6589 72.1072 78.7029 72.0632C78.7469 72.0118 78.8092 71.9862 78.8899 71.9862H81.6844C82.2271 71.9862 82.6966 72.0742 83.0926 72.2502C83.496 72.4262 83.8077 72.6903 84.0278 73.0424C84.2478 73.3871 84.3578 73.8198 84.3578 74.3406C84.3578 74.8613 84.2478 75.2941 84.0278 75.6388C83.8077 75.9835 83.496 76.2439 83.0926 76.4199C82.6966 76.596 82.2271 76.684 81.6844 76.684H79.737V79.4345C79.737 79.5078 79.7114 79.5701 79.66 79.6215C79.616 79.6655 79.5537 79.6875 79.473 79.6875H78.8899ZM79.726 75.7598H81.6294C82.1721 75.7598 82.5792 75.6388 82.8506 75.3968C83.122 75.1547 83.2577 74.8027 83.2577 74.3406C83.2577 73.8858 83.1256 73.5338 82.8616 73.2844C82.5975 73.035 82.1868 72.9103 81.6294 72.9103H79.726V75.7598ZM87.0405 79.7975C86.6738 79.7975 86.34 79.7242 86.0393 79.5775C85.7386 79.4308 85.4966 79.2328 85.3132 78.9834C85.1298 78.734 85.0382 78.4516 85.0382 78.1362C85.0382 77.6301 85.2435 77.2267 85.6543 76.926C86.065 76.6253 86.6004 76.4273 87.2605 76.3319L88.8998 76.1009V75.7818C88.8998 75.4298 88.7971 75.1547 88.5918 74.9567C88.3937 74.7586 88.0673 74.6596 87.6126 74.6596C87.2825 74.6596 87.0148 74.7256 86.8095 74.8577C86.6114 74.9897 86.4721 75.1584 86.3914 75.3638C86.3474 75.4738 86.2704 75.5288 86.1603 75.5288H85.6653C85.5846 75.5288 85.5222 75.5068 85.4782 75.4628C85.4416 75.4114 85.4232 75.3528 85.4232 75.2867C85.4232 75.1767 85.4636 75.041 85.5442 74.8797C85.6323 74.7183 85.7643 74.5606 85.9403 74.4066C86.1163 74.2526 86.34 74.1242 86.6114 74.0215C86.8901 73.9115 87.2275 73.8565 87.6236 73.8565C88.0637 73.8565 88.4341 73.9152 88.7348 74.0325C89.0355 74.1425 89.2702 74.2929 89.4389 74.4836C89.6149 74.6743 89.7396 74.8907 89.813 75.1327C89.8937 75.3748 89.934 75.6205 89.934 75.8698V79.4345C89.934 79.5078 89.9083 79.5701 89.857 79.6215C89.813 79.6655 89.7543 79.6875 89.681 79.6875H89.1749C89.0942 79.6875 89.0318 79.6655 88.9878 79.6215C88.9438 79.5701 88.9218 79.5078 88.9218 79.4345V78.9614C88.8265 79.0934 88.6981 79.2254 88.5368 79.3574C88.3754 79.4821 88.1737 79.5885 87.9317 79.6765C87.6896 79.7572 87.3926 79.7975 87.0405 79.7975ZM87.2715 78.9724C87.5723 78.9724 87.8473 78.91 88.0967 78.7853C88.3461 78.6533 88.5404 78.4516 88.6798 78.1802C88.8265 77.9089 88.8998 77.5678 88.8998 77.1571V76.849L87.6236 77.036C87.1028 77.1094 86.7104 77.2341 86.4464 77.4101C86.1824 77.5788 86.0503 77.7952 86.0503 78.0592C86.0503 78.2646 86.109 78.437 86.2264 78.5763C86.351 78.7083 86.5051 78.8073 86.6884 78.8734C86.8791 78.9394 87.0735 78.9724 87.2715 78.9724ZM91.7686 79.6875C91.6953 79.6875 91.633 79.6655 91.5816 79.6215C91.5376 79.5701 91.5156 79.5078 91.5156 79.4345V74.2196C91.5156 74.1462 91.5376 74.0875 91.5816 74.0435C91.633 73.9922 91.6953 73.9665 91.7686 73.9665H92.2967C92.3701 73.9665 92.4288 73.9922 92.4728 74.0435C92.5168 74.0875 92.5388 74.1462 92.5388 74.2196V79.4345C92.5388 79.5078 92.5168 79.5701 92.4728 79.6215C92.4288 79.6655 92.3701 79.6875 92.2967 79.6875H91.7686ZM91.6806 72.8993C91.6073 72.8993 91.5449 72.8773 91.4936 72.8333C91.4496 72.782 91.4276 72.7196 91.4276 72.6463V72.0522C91.4276 71.9788 91.4496 71.9202 91.4936 71.8762C91.5449 71.8248 91.6073 71.7991 91.6806 71.7991H92.3738C92.4471 71.7991 92.5058 71.8248 92.5498 71.8762C92.6011 71.9202 92.6268 71.9788 92.6268 72.0522V72.6463C92.6268 72.7196 92.6011 72.782 92.5498 72.8333C92.5058 72.8773 92.4471 72.8993 92.3738 72.8993H91.6806ZM96.2705 79.7975C95.8671 79.7975 95.5187 79.7278 95.2253 79.5885C94.9319 79.4418 94.6899 79.2474 94.4992 79.0054C94.3158 78.756 94.1765 78.4736 94.0811 78.1582C93.9931 77.8428 93.9418 77.5091 93.9271 77.1571C93.9198 77.0397 93.9161 76.9297 93.9161 76.827C93.9161 76.7243 93.9198 76.6143 93.9271 76.4969C93.9418 76.1522 93.9931 75.8222 94.0811 75.5068C94.1765 75.1914 94.3158 74.909 94.4992 74.6596C94.6899 74.4103 94.9319 74.2159 95.2253 74.0765C95.5187 73.9298 95.8671 73.8565 96.2705 73.8565C96.7032 73.8565 97.0626 73.9335 97.3487 74.0875C97.6347 74.2416 97.8694 74.4323 98.0528 74.6596V72.1292C98.0528 72.0558 98.0748 71.9972 98.1188 71.9532C98.1702 71.9018 98.2325 71.8762 98.3058 71.8762H98.8339C98.9073 71.8762 98.966 71.9018 99.01 71.9532C99.0613 71.9972 99.087 72.0558 99.087 72.1292V79.4345C99.087 79.5078 99.0613 79.5701 99.01 79.6215C98.966 79.6655 98.9073 79.6875 98.8339 79.6875H98.3388C98.2582 79.6875 98.1958 79.6655 98.1518 79.6215C98.1078 79.5701 98.0858 79.5078 98.0858 79.4345V78.9724C97.9024 79.2071 97.6641 79.4051 97.3707 79.5665C97.0773 79.7205 96.7106 79.7975 96.2705 79.7975ZM96.5015 78.9064C96.8683 78.9064 97.1616 78.822 97.3817 78.6533C97.6017 78.4846 97.7667 78.2719 97.8768 78.0152C97.9868 77.7512 98.0455 77.4835 98.0528 77.2121C98.0601 77.0947 98.0638 76.9554 98.0638 76.794C98.0638 76.6253 98.0601 76.4823 98.0528 76.3649C98.0455 76.1082 97.9831 75.8552 97.8658 75.6058C97.7557 75.3564 97.5871 75.1511 97.3597 74.9897C97.1396 74.8283 96.8536 74.7476 96.5015 74.7476C96.1275 74.7476 95.8304 74.832 95.6104 75.0007C95.3903 75.1621 95.2326 75.3784 95.1373 75.6498C95.0419 75.9138 94.9869 76.1999 94.9723 76.508C94.9649 76.7207 94.9649 76.9334 94.9723 77.1461C94.9869 77.4541 95.0419 77.7438 95.1373 78.0152C95.2326 78.2793 95.3903 78.4956 95.6104 78.6643C95.8304 78.8257 96.1275 78.9064 96.5015 78.9064ZM105.121 79.6875C105.011 79.6875 104.923 79.6618 104.857 79.6105C104.799 79.5591 104.751 79.4931 104.714 79.4125L102.679 74.3076C102.664 74.2709 102.657 74.2342 102.657 74.1976C102.657 74.1315 102.679 74.0765 102.723 74.0325C102.767 73.9885 102.822 73.9665 102.888 73.9665H103.416C103.497 73.9665 103.559 73.9885 103.603 74.0325C103.647 74.0765 103.673 74.1169 103.68 74.1535L105.363 78.4883L107.036 74.1535C107.05 74.1169 107.076 74.0765 107.113 74.0325C107.157 73.9885 107.219 73.9665 107.3 73.9665H107.839C107.897 73.9665 107.949 73.9885 107.993 74.0325C108.044 74.0765 108.07 74.1315 108.07 74.1976C108.07 74.2342 108.062 74.2709 108.048 74.3076L106.001 79.4125C105.972 79.4931 105.924 79.5591 105.858 79.6105C105.8 79.6618 105.712 79.6875 105.594 79.6875H105.121ZM109.475 79.6875C109.401 79.6875 109.339 79.6655 109.288 79.6215C109.244 79.5701 109.222 79.5078 109.222 79.4345V74.2196C109.222 74.1462 109.244 74.0875 109.288 74.0435C109.339 73.9922 109.401 73.9665 109.475 73.9665H110.003C110.076 73.9665 110.135 73.9922 110.179 74.0435C110.223 74.0875 110.245 74.1462 110.245 74.2196V79.4345C110.245 79.5078 110.223 79.5701 110.179 79.6215C110.135 79.6655 110.076 79.6875 110.003 79.6875H109.475ZM109.387 72.8993C109.313 72.8993 109.251 72.8773 109.2 72.8333C109.156 72.782 109.134 72.7196 109.134 72.6463V72.0522C109.134 71.9788 109.156 71.9202 109.2 71.8762C109.251 71.8248 109.313 71.7991 109.387 71.7991H110.08C110.153 71.7991 110.212 71.8248 110.256 71.8762C110.307 71.9202 110.333 71.9788 110.333 72.0522V72.6463C110.333 72.7196 110.307 72.782 110.256 72.8333C110.212 72.8773 110.153 72.8993 110.08 72.8993H109.387ZM113.482 79.7975C113.115 79.7975 112.781 79.7242 112.48 79.5775C112.18 79.4308 111.938 79.2328 111.754 78.9834C111.571 78.734 111.479 78.4516 111.479 78.1362C111.479 77.6301 111.685 77.2267 112.095 76.926C112.506 76.6253 113.042 76.4273 113.702 76.3319L115.341 76.1009V75.7818C115.341 75.4298 115.238 75.1547 115.033 74.9567C114.835 74.7586 114.508 74.6596 114.054 74.6596C113.724 74.6596 113.456 74.7256 113.251 74.8577C113.053 74.9897 112.913 75.1584 112.832 75.3638C112.788 75.4738 112.711 75.5288 112.601 75.5288H112.106C112.026 75.5288 111.963 75.5068 111.919 75.4628C111.883 75.4114 111.864 75.3528 111.864 75.2867C111.864 75.1767 111.905 75.041 111.985 74.8797C112.073 74.7183 112.205 74.5606 112.381 74.4066C112.557 74.2526 112.781 74.1242 113.053 74.0215C113.331 73.9115 113.669 73.8565 114.065 73.8565C114.505 73.8565 114.875 73.9152 115.176 74.0325C115.477 74.1425 115.711 74.2929 115.88 74.4836C116.056 74.6743 116.181 74.8907 116.254 75.1327C116.335 75.3748 116.375 75.6205 116.375 75.8698V79.4345C116.375 79.5078 116.349 79.5701 116.298 79.6215C116.254 79.6655 116.195 79.6875 116.122 79.6875H115.616C115.535 79.6875 115.473 79.6655 115.429 79.6215C115.385 79.5701 115.363 79.5078 115.363 79.4345V78.9614C115.268 79.0934 115.139 79.2254 114.978 79.3574C114.816 79.4821 114.615 79.5885 114.373 79.6765C114.131 79.7572 113.834 79.7975 113.482 79.7975ZM113.713 78.9724C114.013 78.9724 114.288 78.91 114.538 78.7853C114.787 78.6533 114.982 78.4516 115.121 78.1802C115.268 77.9089 115.341 77.5678 115.341 77.1571V76.849L114.065 77.036C113.544 77.1094 113.152 77.2341 112.887 77.4101C112.623 77.5788 112.491 77.7952 112.491 78.0592C112.491 78.2646 112.55 78.437 112.667 78.5763C112.792 78.7083 112.946 78.8073 113.13 78.8734C113.32 78.9394 113.515 78.9724 113.713 78.9724ZM119.989 79.6875C119.931 79.6875 119.879 79.6655 119.835 79.6215C119.791 79.5775 119.769 79.5261 119.769 79.4675C119.769 79.4308 119.773 79.3904 119.78 79.3464L122.509 72.2282C122.538 72.1549 122.578 72.0962 122.63 72.0522C122.681 72.0082 122.758 71.9862 122.861 71.9862H123.609C123.704 71.9862 123.778 72.0082 123.829 72.0522C123.888 72.0962 123.932 72.1549 123.961 72.2282L126.678 79.3464C126.693 79.3904 126.7 79.4308 126.7 79.4675C126.7 79.5261 126.678 79.5775 126.634 79.6215C126.59 79.6655 126.539 79.6875 126.48 79.6875H125.919C125.831 79.6875 125.765 79.6655 125.721 79.6215C125.685 79.5775 125.659 79.5371 125.644 79.5005L125.039 77.9382H121.431L120.825 79.5005C120.818 79.5371 120.792 79.5775 120.748 79.6215C120.704 79.6655 120.638 79.6875 120.55 79.6875H119.989ZM121.75 76.992H124.72L123.235 73.0864L121.75 76.992ZM129.793 79.7975C129.324 79.7975 128.924 79.6948 128.594 79.4895C128.271 79.2768 128.025 78.9834 127.857 78.6093C127.688 78.2352 127.604 77.8062 127.604 77.3221V74.2196C127.604 74.1462 127.626 74.0875 127.67 74.0435C127.721 73.9922 127.783 73.9665 127.857 73.9665H128.407C128.48 73.9665 128.539 73.9922 128.583 74.0435C128.634 74.0875 128.66 74.1462 128.66 74.2196V77.2671C128.66 78.3599 129.136 78.9064 130.09 78.9064C130.545 78.9064 130.908 78.7633 131.179 78.4773C131.458 78.1839 131.597 77.7805 131.597 77.2671V74.2196C131.597 74.1462 131.619 74.0875 131.663 74.0435C131.715 73.9922 131.777 73.9665 131.85 73.9665H132.389C132.47 73.9665 132.532 73.9922 132.576 74.0435C132.62 74.0875 132.642 74.1462 132.642 74.2196V79.4345C132.642 79.5078 132.62 79.5701 132.576 79.6215C132.532 79.6655 132.47 79.6875 132.389 79.6875H131.883C131.81 79.6875 131.748 79.6655 131.696 79.6215C131.652 79.5701 131.63 79.5078 131.63 79.4345V78.9504C131.432 79.2071 131.19 79.4125 130.904 79.5665C130.625 79.7205 130.255 79.7975 129.793 79.7975ZM136.51 79.6875C136.1 79.6875 135.766 79.6105 135.509 79.4565C135.252 79.2951 135.065 79.0714 134.948 78.7853C134.831 78.492 134.772 78.1472 134.772 77.7512V74.8467H133.914C133.84 74.8467 133.778 74.8247 133.727 74.7807C133.683 74.7293 133.661 74.667 133.661 74.5936V74.2196C133.661 74.1462 133.683 74.0875 133.727 74.0435C133.778 73.9922 133.84 73.9665 133.914 73.9665H134.772V72.1292C134.772 72.0558 134.794 71.9972 134.838 71.9532C134.889 71.9018 134.952 71.8762 135.025 71.8762H135.542C135.615 71.8762 135.674 71.9018 135.718 71.9532C135.769 71.9972 135.795 72.0558 135.795 72.1292V73.9665H137.159C137.233 73.9665 137.291 73.9922 137.335 74.0435C137.387 74.0875 137.412 74.1462 137.412 74.2196V74.5936C137.412 74.667 137.387 74.7293 137.335 74.7807C137.291 74.8247 137.233 74.8467 137.159 74.8467H135.795V77.6742C135.795 78.0189 135.854 78.2903 135.971 78.4883C136.089 78.6863 136.298 78.7853 136.598 78.7853H137.269C137.343 78.7853 137.401 78.811 137.445 78.8624C137.497 78.9064 137.522 78.965 137.522 79.0384V79.4345C137.522 79.5078 137.497 79.5701 137.445 79.6215C137.401 79.6655 137.343 79.6875 137.269 79.6875H136.51ZM140.918 79.7975C140.36 79.7975 139.895 79.6912 139.521 79.4785C139.147 79.2658 138.861 78.9724 138.663 78.5983C138.464 78.2169 138.354 77.7842 138.332 77.3001C138.325 77.1754 138.321 77.0177 138.321 76.827C138.321 76.629 138.325 76.4713 138.332 76.3539C138.354 75.8625 138.464 75.4298 138.663 75.0557C138.868 74.6816 139.158 74.3883 139.532 74.1755C139.906 73.9628 140.368 73.8565 140.918 73.8565C141.468 73.8565 141.93 73.9628 142.304 74.1755C142.678 74.3883 142.964 74.6816 143.162 75.0557C143.368 75.4298 143.481 75.8625 143.503 76.3539C143.511 76.4713 143.514 76.629 143.514 76.827C143.514 77.0177 143.511 77.1754 143.503 77.3001C143.481 77.7842 143.371 78.2169 143.173 78.5983C142.975 78.9724 142.689 79.2658 142.315 79.4785C141.941 79.6912 141.475 79.7975 140.918 79.7975ZM140.918 78.9504C141.373 78.9504 141.736 78.8073 142.007 78.5213C142.278 78.2279 142.425 77.8025 142.447 77.2451C142.455 77.1351 142.458 76.9957 142.458 76.827C142.458 76.6583 142.455 76.519 142.447 76.4089C142.425 75.8515 142.278 75.4298 142.007 75.1437C141.736 74.8503 141.373 74.7036 140.918 74.7036C140.463 74.7036 140.096 74.8503 139.818 75.1437C139.546 75.4298 139.403 75.8515 139.389 76.4089C139.381 76.519 139.378 76.6583 139.378 76.827C139.378 76.9957 139.381 77.1351 139.389 77.2451C139.403 77.8025 139.546 78.2279 139.818 78.5213C140.096 78.8073 140.463 78.9504 140.918 78.9504ZM149.679 79.7975C149.276 79.7975 148.927 79.7278 148.634 79.5885C148.341 79.4418 148.099 79.2474 147.908 79.0054C147.724 78.756 147.585 78.4736 147.49 78.1582C147.402 77.8428 147.35 77.5091 147.336 77.1571C147.328 77.0397 147.325 76.9297 147.325 76.827C147.325 76.7243 147.328 76.6143 147.336 76.4969C147.35 76.1522 147.402 75.8222 147.49 75.5068C147.585 75.1914 147.724 74.909 147.908 74.6596C148.099 74.4103 148.341 74.2159 148.634 74.0765C148.927 73.9298 149.276 73.8565 149.679 73.8565C150.112 73.8565 150.471 73.9335 150.757 74.0875C151.043 74.2416 151.278 74.4323 151.461 74.6596V72.1292C151.461 72.0558 151.483 71.9972 151.527 71.9532C151.579 71.9018 151.641 71.8762 151.714 71.8762H152.243C152.316 71.8762 152.375 71.9018 152.419 71.9532C152.47 71.9972 152.496 72.0558 152.496 72.1292V79.4345C152.496 79.5078 152.47 79.5701 152.419 79.6215C152.375 79.6655 152.316 79.6875 152.243 79.6875H151.747C151.667 79.6875 151.604 79.6655 151.56 79.6215C151.516 79.5701 151.494 79.5078 151.494 79.4345V78.9724C151.311 79.2071 151.073 79.4051 150.779 79.5665C150.486 79.7205 150.119 79.7975 149.679 79.7975ZM149.91 78.9064C150.277 78.9064 150.57 78.822 150.79 78.6533C151.01 78.4846 151.175 78.2719 151.285 78.0152C151.395 77.7512 151.454 77.4835 151.461 77.2121C151.469 77.0947 151.472 76.9554 151.472 76.794C151.472 76.6253 151.469 76.4823 151.461 76.3649C151.454 76.1082 151.392 75.8552 151.274 75.6058C151.164 75.3564 150.996 75.1511 150.768 74.9897C150.548 74.8283 150.262 74.7476 149.91 74.7476C149.536 74.7476 149.239 74.832 149.019 75.0007C148.799 75.1621 148.641 75.3784 148.546 75.6498C148.451 75.9138 148.396 76.1999 148.381 76.508C148.374 76.7207 148.374 76.9334 148.381 77.1461C148.396 77.4541 148.451 77.7438 148.546 78.0152C148.641 78.2793 148.799 78.4956 149.019 78.6643C149.239 78.8257 149.536 78.9064 149.91 78.9064ZM156.409 79.7975C155.654 79.7975 155.052 79.5665 154.605 79.1044C154.158 78.635 153.912 77.9969 153.868 77.1901C153.861 77.0947 153.857 76.9737 153.857 76.827C153.857 76.673 153.861 76.5483 153.868 76.4529C153.897 75.9322 154.018 75.4774 154.231 75.0887C154.444 74.6926 154.733 74.3883 155.1 74.1755C155.474 73.9628 155.911 73.8565 156.409 73.8565C156.967 73.8565 157.432 73.9738 157.807 74.2086C158.188 74.4433 158.478 74.777 158.676 75.2097C158.874 75.6425 158.973 76.1486 158.973 76.728V76.915C158.973 76.9957 158.947 77.058 158.896 77.1021C158.852 77.1461 158.793 77.1681 158.72 77.1681H154.913C154.913 77.1754 154.913 77.1901 154.913 77.2121C154.913 77.2341 154.913 77.2524 154.913 77.2671C154.928 77.5678 154.994 77.8502 155.111 78.1142C155.228 78.3709 155.397 78.58 155.617 78.7413C155.837 78.9027 156.101 78.9834 156.409 78.9834C156.673 78.9834 156.893 78.943 157.069 78.8624C157.245 78.7817 157.388 78.6937 157.498 78.5983C157.608 78.4956 157.682 78.4186 157.719 78.3673C157.785 78.2719 157.836 78.2169 157.873 78.2022C157.909 78.1802 157.968 78.1692 158.049 78.1692H158.577C158.65 78.1692 158.709 78.1912 158.753 78.2352C158.804 78.2719 158.826 78.3269 158.819 78.4003C158.811 78.5103 158.753 78.646 158.643 78.8073C158.533 78.9614 158.375 79.1154 158.17 79.2694C157.964 79.4235 157.715 79.5518 157.421 79.6545C157.128 79.7498 156.791 79.7975 156.409 79.7975ZM154.913 76.4089H157.928V76.3759C157.928 76.0459 157.865 75.7525 157.741 75.4958C157.623 75.2391 157.451 75.0374 157.223 74.8907C156.996 74.7366 156.725 74.6596 156.409 74.6596C156.094 74.6596 155.823 74.7366 155.595 74.8907C155.375 75.0374 155.206 75.2391 155.089 75.4958C154.972 75.7525 154.913 76.0459 154.913 76.3759V76.4089ZM163.116 79.7975C162.676 79.7975 162.309 79.7205 162.016 79.5665C161.722 79.4051 161.487 79.2071 161.311 78.9724V79.4345C161.311 79.5078 161.286 79.5701 161.234 79.6215C161.19 79.6655 161.132 79.6875 161.058 79.6875H160.552C160.479 79.6875 160.417 79.6655 160.365 79.6215C160.321 79.5701 160.299 79.5078 160.299 79.4345V72.1292C160.299 72.0558 160.321 71.9972 160.365 71.9532C160.417 71.9018 160.479 71.8762 160.552 71.8762H161.08C161.161 71.8762 161.223 71.9018 161.267 71.9532C161.311 71.9972 161.333 72.0558 161.333 72.1292V74.6596C161.517 74.4323 161.751 74.2416 162.038 74.0875C162.331 73.9335 162.69 73.8565 163.116 73.8565C163.526 73.8565 163.875 73.9298 164.161 74.0765C164.454 74.2159 164.693 74.4103 164.876 74.6596C165.067 74.909 165.21 75.1914 165.305 75.5068C165.4 75.8222 165.452 76.1522 165.459 76.4969C165.466 76.6143 165.47 76.7243 165.47 76.827C165.47 76.9297 165.466 77.0397 165.459 77.1571C165.452 77.5091 165.4 77.8428 165.305 78.1582C165.21 78.4736 165.067 78.756 164.876 79.0054C164.693 79.2474 164.454 79.4418 164.161 79.5885C163.875 79.7278 163.526 79.7975 163.116 79.7975ZM162.885 78.9064C163.266 78.9064 163.563 78.8257 163.776 78.6643C163.996 78.4956 164.154 78.2793 164.249 78.0152C164.344 77.7438 164.399 77.4541 164.414 77.1461C164.421 76.9334 164.421 76.7207 164.414 76.508C164.399 76.1999 164.344 75.9138 164.249 75.6498C164.154 75.3784 163.996 75.1621 163.776 75.0007C163.563 74.832 163.266 74.7476 162.885 74.7476C162.54 74.7476 162.254 74.8283 162.027 74.9897C161.799 75.1511 161.627 75.3564 161.509 75.6058C161.399 75.8552 161.341 76.1082 161.333 76.3649C161.326 76.4823 161.322 76.6253 161.322 76.794C161.322 76.9554 161.326 77.0947 161.333 77.2121C161.348 77.4835 161.407 77.7512 161.509 78.0152C161.619 78.2719 161.784 78.4846 162.005 78.6533C162.232 78.822 162.525 78.9064 162.885 78.9064ZM167.084 79.6875C167.011 79.6875 166.949 79.6655 166.897 79.6215C166.853 79.5701 166.831 79.5078 166.831 79.4345V74.2196C166.831 74.1462 166.853 74.0875 166.897 74.0435C166.949 73.9922 167.011 73.9665 167.084 73.9665H167.612C167.686 73.9665 167.744 73.9922 167.789 74.0435C167.833 74.0875 167.855 74.1462 167.855 74.2196V79.4345C167.855 79.5078 167.833 79.5701 167.789 79.6215C167.744 79.6655 167.686 79.6875 167.612 79.6875H167.084ZM166.996 72.8993C166.923 72.8993 166.861 72.8773 166.809 72.8333C166.765 72.782 166.743 72.7196 166.743 72.6463V72.0522C166.743 71.9788 166.765 71.9202 166.809 71.8762C166.861 71.8248 166.923 71.7991 166.996 71.7991H167.689C167.763 71.7991 167.822 71.8248 167.866 71.8762C167.917 71.9202 167.943 71.9788 167.943 72.0522V72.6463C167.943 72.7196 167.917 72.782 167.866 72.8333C167.822 72.8773 167.763 72.8993 167.689 72.8993H166.996ZM171.729 79.6875C171.319 79.6875 170.985 79.6105 170.728 79.4565C170.471 79.2951 170.284 79.0714 170.167 78.7853C170.05 78.492 169.991 78.1472 169.991 77.7512V74.8467H169.133C169.059 74.8467 168.997 74.8247 168.946 74.7807C168.902 74.7293 168.88 74.667 168.88 74.5936V74.2196C168.88 74.1462 168.902 74.0875 168.946 74.0435C168.997 73.9922 169.059 73.9665 169.133 73.9665H169.991V72.1292C169.991 72.0558 170.013 71.9972 170.057 71.9532C170.108 71.9018 170.171 71.8762 170.244 71.8762H170.761C170.834 71.8762 170.893 71.9018 170.937 71.9532C170.988 71.9972 171.014 72.0558 171.014 72.1292V73.9665H172.378C172.452 73.9665 172.51 73.9922 172.554 74.0435C172.606 74.0875 172.631 74.1462 172.631 74.2196V74.5936C172.631 74.667 172.606 74.7293 172.554 74.7807C172.51 74.8247 172.452 74.8467 172.378 74.8467H171.014V77.6742C171.014 78.0189 171.073 78.2903 171.19 78.4883C171.308 78.6863 171.517 78.7853 171.817 78.7853H172.488C172.562 78.7853 172.62 78.811 172.664 78.8624C172.716 78.9064 172.741 78.965 172.741 79.0384V79.4345C172.741 79.5078 172.716 79.5701 172.664 79.6215C172.62 79.6655 172.562 79.6875 172.488 79.6875H171.729Z" fill="#888FAF"/>
</g>
</g>
<defs>
<filter id="filter0_d_2210_6675" x="0.6654" y="0.3327" width="278.072" height="110.086" filterUnits="userSpaceOnUse" color-interpolation-filters="sRGB">
<feFlood flood-opacity="0" result="BackgroundImageFix"/>
<feColorMatrix in="SourceAlpha" type="matrix" values="0 0 0 0 0 0 0 0 0 0 0 0 0 0 0 0 0 0 127 0" result="hardAlpha"/>
<feOffset dy="3.6673"/>
<feGaussianBlur stdDeviation="3.6673"/>
<feComposite in2="hardAlpha" operator="out"/>
<feColorMatrix type="matrix" values="0 0 0 0 0.0235294 0 0 0 0 0.054902 0 0 0 0 0.129412 0 0 0 0.05 0"/>
<feBlend mode="normal" in2="BackgroundImageFix" result="effect1_dropShadow_2210_6675"/>
<feBlend mode="normal" in="SourceGraphic" in2="effect1_dropShadow_2210_6675" result="shape"/>
</filter>
<clipPath id="clip0_2210_6675">
<rect x="8" y="4" width="263.403" height="95.4164" rx="7.3346" fill="white"/>
</clipPath>
</defs>
</svg>
