<?xml version="1.0" encoding="UTF-8"?>
<svg xmlns="http://www.w3.org/2000/svg" width="408" height="263" viewBox="0 0 408 263" fill="none">
  <path d="M137.75 41.0687C140.518 26.201 136.161 9.28645 124.05 0.287018C124.736 16.7206 119.609 32.8681 109.576 45.8728C105.689 50.874 100.846 56.0303 100.997 62.3719C101.09 66.3178 103.216 69.9938 106.018 72.7631C108.82 75.5325 112.271 77.5292 115.681 79.4947L116.212 80.3236C126.209 69.0059 134.983 55.9364 137.75 41.0687Z" fill="#119A4B"></path>
  <path d="M123.829 0.514293C128.917 11.9444 130.288 24.6931 127.746 36.9497C127.186 39.5722 126.39 42.1836 125.04 44.5135C123.707 46.7744 121.796 48.6358 119.503 49.9042C117.39 51.13 115.087 52.1381 113.307 53.8583C111.431 55.6713 110.595 58.1459 110.665 60.7313C110.75 63.8946 111.963 66.8386 113.248 69.6761C114.675 72.8267 116.208 76.0765 116.115 79.6186C116.104 80.0478 116.768 80.0401 116.779 79.6116C116.94 73.4489 112.501 68.4996 111.512 62.5863C111.051 59.827 111.415 56.9114 113.348 54.7726C115.038 52.9023 117.412 51.8606 119.563 50.638C121.821 49.3543 123.743 47.7683 125.172 45.5695C126.634 43.3204 127.533 40.7347 128.158 38.1381C129.531 32.2394 129.971 26.1606 129.463 20.1246C128.921 13.2325 127.208 6.48425 124.399 0.171832C124.225 -0.218794 123.656 0.126218 123.829 0.514293H123.829Z" fill="white"></path>
  <path d="M128.796 33.0515C130.903 33.2003 132.994 32.5927 134.695 31.3371C136.397 30.0815 137.598 28.2597 138.085 26.1971C138.182 25.7794 137.54 25.6083 137.443 26.0266C136.993 27.9481 135.873 29.645 134.287 30.811C132.7 31.977 130.75 32.5352 128.789 32.3849C128.363 32.3528 128.373 33.0195 128.796 33.0515Z" fill="white"></path>
  <path d="M120.657 49.4243C117.797 46.1783 116.261 41.9697 116.356 37.6376C116.365 37.2084 115.701 37.2159 115.692 37.6446C115.602 42.1528 117.209 46.5293 120.192 49.9006C120.477 50.2217 120.94 49.7437 120.657 49.4243V49.4243Z" fill="white"></path>
  <path d="M128.143 13.6464C127.316 13.7593 126.474 13.6643 125.692 13.3698C124.911 13.0753 124.215 12.5907 123.666 11.9593C123.386 11.6347 122.923 12.1131 123.201 12.4356C123.811 13.1303 124.581 13.6646 125.443 13.9919C126.306 14.3191 127.235 14.4294 128.15 14.313C128.237 14.3093 128.32 14.2724 128.381 14.2098C128.442 14.1473 128.477 14.0637 128.479 13.9762C128.477 13.888 128.441 13.8038 128.378 13.7421C128.316 13.6803 128.231 13.6459 128.143 13.6464V13.6464Z" fill="white"></path>
  <path d="M74.5228 12.5849C74.6921 12.7925 74.8614 13.0002 75.0293 13.2134C77.2915 16.0173 79.3229 19.0011 81.1036 22.1353C81.2452 22.3754 81.3849 22.6209 81.5193 22.8646C85.7293 30.4615 88.4975 38.7769 89.6832 47.388C90.1519 50.815 90.3601 54.2729 90.3062 57.7316C90.2313 62.5083 89.7716 67.6814 91.2303 72.0746C91.3774 72.5346 91.5527 72.9851 91.7552 73.4234L115.163 80.9093C115.225 80.8995 115.285 80.8951 115.347 80.8854L116.268 81.2272C116.284 81.049 116.296 80.8639 116.311 80.6857C116.32 80.5824 116.324 80.4774 116.333 80.374C116.338 80.3046 116.342 80.2351 116.35 80.1727C116.352 80.1496 116.353 80.1265 116.353 80.1087C116.361 80.0463 116.362 79.9875 116.368 79.9305C116.438 78.8958 116.502 77.8595 116.556 76.8196C116.557 76.8142 116.557 76.8143 116.554 76.8072C116.955 68.8875 116.702 60.8646 115.244 53.1353C115.2 52.9027 115.158 52.6649 115.103 52.429C114.426 48.9486 113.467 45.5296 112.236 42.2061C111.555 40.3884 110.784 38.6065 109.924 36.8671C107.694 32.3771 104.774 28.2671 101.272 24.6878C94.2882 17.5536 85.1095 12.7406 75.2743 12.589C75.0227 12.5853 74.7761 12.5832 74.5228 12.5849Z" fill="#119A4B"></path>
  <path d="M74.4807 12.8999C85.3995 18.9513 94.141 28.3021 99.4637 39.6241C100.589 42.0567 101.52 44.6226 101.84 47.2986C102.132 49.9094 101.722 52.551 100.653 54.9489C99.7004 57.2049 98.4661 59.4017 98.0767 61.8507C97.6664 64.4321 98.4836 66.9127 100.09 68.935C102.056 71.4092 104.79 73.027 107.518 74.5158C110.547 76.1689 113.72 77.8377 115.771 80.7218C116.019 81.0713 116.545 80.6638 116.297 80.3149C112.729 75.297 106.216 74.0278 101.879 69.904C99.8556 67.9798 98.3975 65.4318 98.6577 62.5561C98.8853 60.0415 100.156 57.7749 101.14 55.4991C102.173 53.1095 102.757 50.6813 102.579 48.0622C102.397 45.383 101.564 42.7751 100.505 40.3243C98.0631 34.7848 94.7685 29.6652 90.742 25.1529C86.175 19.9776 80.7597 15.6245 74.7303 12.282C74.3571 12.0753 74.1099 12.6945 74.4807 12.8999V12.8999Z" fill="white"></path>
  <path d="M97.9638 35.8772C99.7351 34.723 101.04 32.9744 101.645 30.9436C102.251 28.9129 102.117 26.7322 101.269 24.7912C101.096 24.399 100.48 24.6505 100.654 25.0432C101.447 26.8492 101.571 28.8805 101.004 30.7704C100.436 32.6602 99.2142 34.2842 97.5585 35.3492C97.1989 35.5811 97.6064 36.1078 97.9639 35.8772H97.9638Z" fill="white"></path>
  <path d="M101.286 53.8689C97.0551 53.0054 93.3044 50.5731 90.7812 47.0571C90.5315 46.7086 90.0058 47.1159 90.2552 47.464C92.8876 51.1179 96.796 53.6411 101.2 54.53C101.62 54.6144 101.703 53.9529 101.286 53.8689H101.286Z" fill="white"></path>
  <path d="M85.8025 20.7783C85.2098 21.3682 84.4805 21.8012 83.68 22.0383C82.8794 22.2754 82.0327 22.3092 81.216 22.1367C80.7974 22.0469 80.7148 22.7086 81.1306 22.7978C82.0339 22.9841 82.9689 22.9457 83.854 22.6857C84.7391 22.4257 85.5472 21.9521 86.2079 21.3063C86.2752 21.2507 86.319 21.1714 86.3302 21.0845C86.3414 20.9977 86.3192 20.9099 86.2682 20.8388C86.2142 20.7692 86.1349 20.7238 86.0477 20.7124C85.9605 20.7011 85.8724 20.7248 85.8025 20.7783V20.7783Z" fill="white"></path>
  <path d="M224.945 23.3076C226.239 22.3912 227.654 21.4355 229.237 21.4737C233.067 21.5662 235.133 27.2029 238.96 27.0047C241.4 26.8782 243.02 24.3898 245.292 23.4875C248.251 22.3129 252.016 24.6102 252.338 27.787L251.958 27.4379C240.459 30.2519 228.525 30.8052 216.816 29.0675C219.525 27.1475 222.235 25.2276 224.945 23.3076Z" fill="#119A4B"></path>
  <path d="M217.777 30.0876C210.436 30.0876 204.485 24.1141 204.485 16.7454C204.485 9.37666 210.436 3.40314 217.777 3.40314C225.118 3.40314 231.07 9.37666 231.07 16.7454C231.07 24.1141 225.118 30.0876 217.777 30.0876Z" fill="white"></path>
  <path d="M186.662 14.1966C188.311 13.0287 190.114 11.8109 192.131 11.8595C197.013 11.9774 199.646 19.1609 204.523 18.9083C207.633 18.7471 209.697 15.5758 212.593 14.4259C216.364 12.929 221.161 15.8567 221.573 19.9053L221.089 19.4605C206.433 23.0466 191.225 23.7518 176.302 21.5372C179.755 19.0903 183.209 16.6435 186.662 14.1966Z" fill="#119A4B"></path>
  <path d="M67.0946 148.133L81.2012 72.3203C81.4425 71.0706 82.0997 69.9402 83.065 69.1146C84.0304 68.2889 85.2466 67.817 86.5142 67.7762C86.6283 67.7736 86.7424 67.7736 86.8564 67.7762L96.4661 68.1222L97.5003 68.1603L102.296 68.3334L103.331 68.369L106.415 68.4809L168.621 70.7225C168.715 70.7276 168.811 70.7276 168.905 70.725L182.844 70.4325L188.003 70.3256L188.167 70.323L191.975 70.2416L225.151 69.5496L233.947 69.3638L238.284 69.2748L239.324 69.2519L244.269 69.1501L245.306 69.1272L250.365 69.0229L251.402 69L256.961 68.883L257.833 68.8651L262.791 68.7608L263.575 68.7456H263.689C265.005 68.7509 266.277 69.2233 267.28 70.079C268.283 70.9348 268.952 72.1189 269.169 73.422L281.927 152.092C282.057 152.889 282.012 153.705 281.796 154.483C281.581 155.261 281.199 155.982 280.678 156.598C280.157 157.213 279.509 157.707 278.779 158.046C278.049 158.385 277.254 158.56 276.449 158.56H203.181C202.103 158.563 201.054 158.911 200.185 159.552L198.796 160.585C197.839 161.293 196.682 161.676 195.493 161.679H152.314C151.585 161.681 150.862 161.538 150.188 161.258C149.514 160.977 148.902 160.565 148.388 160.046C147.508 159.163 146.334 158.639 145.092 158.573L72.2607 154.721C71.4709 154.679 70.699 154.469 69.9968 154.104C69.2946 153.739 68.6783 153.227 68.1891 152.603C67.7 151.979 67.3493 151.258 67.1605 150.487C66.9717 149.716 66.9493 148.914 67.0946 148.133V148.133Z" fill="#CCCCCC"></path>
  <path d="M78.6383 146.073L86.5014 67.8779C86.504 67.8449 86.509 67.8093 86.5141 67.7762C86.6613 66.5268 87.2756 65.3801 88.2328 64.5678L105.148 50.4239C105.883 49.8042 106.798 49.4376 107.756 49.3782C115.495 48.8795 154.839 47.0323 169.361 59.6852C169.802 60.0701 170.321 60.3534 170.883 60.5152C171.444 60.677 172.034 60.7133 172.611 60.6216C173.189 60.5274 173.74 60.3091 174.227 59.9815C174.713 59.6539 175.124 59.2248 175.43 58.7235C176.664 56.7917 178.282 55.1357 180.183 53.8587C181.036 53.2641 181.925 52.7229 182.844 52.238C183.658 51.808 184.542 51.3907 185.506 50.9888C186.335 50.6427 187.219 50.3094 188.167 49.9914C193.082 48.3427 199.653 47.1112 208.434 46.699C212.076 46.526 216.036 46.5031 220.2 46.6278C224.003 46.7397 228.043 46.9713 232.208 47.3173L232.269 47.3198L260.449 64.5881C261.081 64.9835 261.615 65.5179 262.01 66.1509C262.406 66.7838 262.653 67.4988 262.733 68.2418L262.791 68.7608L271.739 149.011C271.817 149.693 271.754 150.384 271.556 151.04C271.357 151.697 271.027 152.306 270.586 152.83C270.156 153.341 269.621 153.752 269.018 154.035C268.414 154.318 267.756 154.466 267.09 154.469H197.655C196.732 154.474 195.838 154.792 195.118 155.372L192.086 157.81C191.296 158.446 190.318 158.802 189.305 158.822L158.776 159.323H158.702C157.931 159.322 157.173 159.124 156.499 158.748L150.611 155.466C150.074 155.166 149.476 154.992 148.862 154.957L83.0565 151.469C82.4152 151.435 81.7883 151.265 81.2166 150.971C80.6449 150.678 80.1412 150.266 79.7384 149.764C79.3198 149.253 79.0069 148.664 78.818 148.03C78.6291 147.396 78.568 146.73 78.6383 146.073Z" fill="#E6E6E6"></path>
  <path d="M101.607 131.971L102.528 119.8L106.414 68.4824L106.992 60.8907C107.138 58.8967 108.019 57.0288 109.462 55.6511C110.906 54.2733 112.809 53.4846 114.8 53.4386C129.039 53.0716 154.822 53.7174 167.474 62.2263C168.881 63.1865 170.588 63.6005 172.276 63.3912C173.965 63.182 175.521 62.3637 176.653 61.0889C178.403 59.1598 180.505 57.5843 182.845 56.4473C184.558 55.5853 186.338 54.8662 188.168 54.2972C193.523 52.58 200.281 51.5367 208.442 51.1673L227.809 51.0536H227.842C229.184 51.0548 230.474 51.5687 231.452 52.4908C232.43 53.4129 233.021 54.6741 233.106 56.018L233.947 69.363L237.621 127.887C237.689 128.977 237.537 130.07 237.172 131.099C236.807 132.129 236.237 133.073 235.498 133.874C234.759 134.676 233.864 135.318 232.87 135.762C231.876 136.207 230.802 136.443 229.714 136.458C197.205 136.943 183.003 143.83 176.81 149.517C175.493 150.73 173.811 151.467 172.03 151.612C170.249 151.757 168.471 151.301 166.976 150.317C155.736 142.927 137.048 140.872 122.174 140.553C117.619 140.458 113.422 140.52 109.905 140.645C108.775 140.686 107.649 140.487 106.601 140.061C105.553 139.634 104.606 138.991 103.822 138.172C103.039 137.353 102.437 136.377 102.055 135.309C101.673 134.24 101.521 133.103 101.607 131.971Z" fill="white"></path>
  <path d="M262.997 148.946C263.009 148.946 263.021 148.945 263.033 148.944C263.101 148.939 263.168 148.921 263.228 148.891C263.289 148.86 263.343 148.818 263.388 148.767C263.432 148.715 263.466 148.655 263.488 148.591C263.51 148.526 263.518 148.458 263.513 148.39L257.92 69.115C257.916 69.0467 257.898 68.9799 257.868 68.9184C257.838 68.857 257.796 68.8023 257.745 68.7574C257.693 68.7125 257.633 68.6784 257.568 68.6571C257.504 68.6358 257.435 68.6278 257.367 68.6334C257.299 68.6382 257.233 68.6563 257.172 68.6868C257.112 68.7173 257.057 68.7595 257.013 68.811C256.968 68.8625 256.934 68.9223 256.913 68.987C256.891 69.0517 256.883 69.1201 256.887 69.1881L262.481 148.463C262.49 148.594 262.548 148.716 262.644 148.806C262.74 148.896 262.866 148.946 262.997 148.946Z" fill="white"></path>
  <path d="M256.265 145.828C256.277 145.828 256.29 145.827 256.302 145.826C256.37 145.821 256.436 145.803 256.497 145.773C256.558 145.742 256.612 145.7 256.656 145.648C256.701 145.597 256.735 145.537 256.757 145.472C256.778 145.408 256.787 145.339 256.782 145.271L251.188 65.9967C251.184 65.9284 251.167 65.8616 251.137 65.8002C251.107 65.7387 251.065 65.684 251.013 65.6391C250.962 65.5942 250.902 65.5601 250.837 65.5388C250.772 65.5175 250.704 65.5095 250.636 65.5151C250.568 65.5199 250.502 65.538 250.441 65.5685C250.38 65.599 250.326 65.6412 250.281 65.6927C250.237 65.7442 250.203 65.804 250.181 65.8687C250.16 65.9335 250.151 66.0018 250.156 66.0698L255.749 145.344C255.758 145.475 255.817 145.598 255.912 145.688C256.008 145.778 256.134 145.827 256.265 145.828Z" fill="white"></path>
  <path d="M250.052 144.268C250.064 144.268 250.077 144.268 250.089 144.267C250.156 144.262 250.223 144.244 250.283 144.213C250.344 144.183 250.399 144.141 250.443 144.089C250.488 144.038 250.522 143.978 250.543 143.913C250.565 143.849 250.573 143.78 250.569 143.712L244.975 64.4376C244.971 64.3693 244.954 64.3024 244.923 64.241C244.893 64.1796 244.851 64.1248 244.8 64.08C244.748 64.0351 244.688 64.001 244.624 63.9797C244.559 63.9584 244.49 63.9503 244.422 63.956C244.355 63.9607 244.288 63.9789 244.228 64.0094C244.167 64.0398 244.113 64.082 244.068 64.1336C244.023 64.1851 243.989 64.2449 243.968 64.3096C243.946 64.3743 243.938 64.4426 243.943 64.5107L249.536 143.785C249.545 143.916 249.603 144.039 249.699 144.129C249.795 144.218 249.921 144.268 250.052 144.268Z" fill="white"></path>
  <path d="M243.838 141.15C243.851 141.15 243.863 141.15 243.875 141.149C243.943 141.144 244.009 141.126 244.07 141.095C244.131 141.065 244.185 141.022 244.23 140.971C244.274 140.919 244.308 140.86 244.33 140.795C244.351 140.73 244.36 140.662 244.355 140.594L238.762 61.3193C238.758 61.251 238.74 61.1842 238.71 61.1227C238.68 61.0613 238.638 61.0066 238.586 60.9617C238.535 60.9168 238.475 60.8827 238.41 60.8614C238.345 60.8401 238.277 60.832 238.209 60.8377C238.141 60.8425 238.075 60.8606 238.014 60.8911C237.953 60.9216 237.899 60.9638 237.855 61.0153C237.81 61.0668 237.776 61.1266 237.755 61.1913C237.733 61.256 237.724 61.3244 237.729 61.3924L243.323 140.667C243.332 140.798 243.39 140.921 243.486 141.01C243.581 141.1 243.707 141.15 243.838 141.15Z" fill="white"></path>
  <path d="M84.8807 149.466C84.8686 149.466 84.8559 149.465 84.8438 149.464C84.776 149.459 84.7098 149.441 84.649 149.411C84.5882 149.38 84.5339 149.338 84.4894 149.286C84.4448 149.235 84.4108 149.175 84.3893 149.11C84.3677 149.046 84.3591 148.977 84.3639 148.909L89.9574 69.6348C89.9614 69.5664 89.9789 69.4996 90.009 69.4382C90.0391 69.3767 90.0812 69.322 90.1327 69.2771C90.1842 69.2322 90.2441 69.1981 90.3089 69.1768C90.3737 69.1555 90.4421 69.1475 90.5101 69.1531C90.5779 69.1579 90.6441 69.176 90.7049 69.2065C90.7657 69.237 90.8199 69.2792 90.8645 69.3307C90.909 69.3822 90.9431 69.442 90.9646 69.5067C90.9861 69.5714 90.9947 69.6398 90.9899 69.7078L85.3965 148.982C85.3874 149.113 85.3291 149.236 85.2334 149.326C85.1376 149.416 85.0116 149.465 84.8807 149.466Z" fill="white"></path>
  <path d="M91.6117 144.788C91.5995 144.788 91.5869 144.788 91.5747 144.787C91.5069 144.782 91.4408 144.764 91.3799 144.733C91.3191 144.703 91.2649 144.66 91.2203 144.609C91.1758 144.557 91.1418 144.498 91.1202 144.433C91.0987 144.368 91.0901 144.3 91.0949 144.232L96.6883 64.9573C96.6923 64.889 96.7099 64.8222 96.74 64.7607C96.7701 64.6993 96.8121 64.6445 96.8636 64.5997C96.9151 64.5548 96.975 64.5207 97.0399 64.4994C97.1047 64.4781 97.1731 64.47 97.241 64.4757C97.3088 64.4805 97.375 64.4986 97.4358 64.5291C97.4967 64.5595 97.5509 64.6018 97.5954 64.6533C97.64 64.7048 97.674 64.7646 97.6956 64.8293C97.7171 64.894 97.7257 64.9624 97.7209 65.0304L92.1274 144.305C92.1183 144.436 92.06 144.559 91.9643 144.648C91.8686 144.738 91.7426 144.788 91.6117 144.788Z" fill="white"></path>
  <path d="M97.825 139.591C97.8129 139.591 97.8003 139.59 97.7881 139.589C97.7203 139.585 97.6541 139.567 97.5933 139.536C97.5325 139.506 97.4783 139.463 97.4337 139.412C97.3891 139.36 97.3551 139.301 97.3336 139.236C97.3121 139.171 97.3035 139.103 97.3083 139.035L102.902 59.7602C102.906 59.6919 102.923 59.625 102.953 59.5636C102.983 59.5022 103.026 59.4474 103.077 59.4026C103.129 59.3577 103.188 59.3236 103.253 59.3023C103.318 59.281 103.386 59.2729 103.454 59.2786C103.522 59.2834 103.588 59.3015 103.649 59.332C103.71 59.3624 103.764 59.4046 103.809 59.4562C103.853 59.5077 103.887 59.5675 103.909 59.6322C103.93 59.6969 103.939 59.7653 103.934 59.8333L98.3408 139.108C98.3317 139.239 98.2734 139.362 98.1777 139.451C98.082 139.541 97.956 139.591 97.825 139.591Z" fill="white"></path>
  <path d="M224.894 68.9617C213.223 65.2241 200.202 66.2137 189.145 71.4791C185.99 72.9737 183.011 74.8157 180.261 76.9711C179.484 77.5837 178.377 76.4878 179.163 75.8686C189.318 67.9623 202.079 64.2064 214.88 65.3556C218.421 65.6737 221.918 66.3788 225.307 67.4583C226.256 67.7621 225.85 69.2679 224.894 68.9617H224.894Z" fill="#3F3D56"></path>
  <path d="M160.671 77.5759C149.82 71.8511 136.826 70.6027 125.028 73.8523C121.664 74.7766 118.414 76.0738 115.336 77.7201C114.454 78.1923 113.669 76.8469 114.552 76.3739C125.797 70.3515 139.294 68.9651 151.574 72.3222C154.999 73.2604 158.313 74.5706 161.455 76.2296C162.34 76.6966 161.556 78.0428 160.671 77.5759Z" fill="#3F3D56"></path>
  <path d="M160.671 87.9701C149.82 82.2453 136.826 80.997 125.028 84.2466C121.664 85.1708 118.414 86.4681 115.336 88.1144C114.454 88.5866 113.669 87.2412 114.552 86.7681C125.797 80.7457 139.294 79.3594 151.574 82.7165C154.999 83.6547 158.312 84.9649 161.455 86.6239C162.34 87.0909 161.556 88.437 160.671 87.9701V87.9701Z" fill="#3F3D56"></path>
  <path d="M114.172 97.8068C114.164 97.673 114.196 97.5398 114.264 97.4245C114.332 97.3093 114.434 97.2173 114.555 97.1606C123.563 92.4261 133.776 90.5059 143.88 91.647C143.944 91.6521 144.002 91.6623 144.071 91.6674H144.073C144.135 91.673 144.197 91.6823 144.258 91.6954C150.268 92.3895 156.098 94.1932 161.455 97.0155C161.571 97.0853 161.668 97.1844 161.735 97.3031C161.802 97.4218 161.838 97.5559 161.837 97.6923V117.083C161.835 117.202 161.807 117.319 161.753 117.426C161.699 117.532 161.622 117.625 161.527 117.697C161.432 117.769 161.322 117.818 161.206 117.842C161.089 117.865 160.969 117.861 160.854 117.831C160.616 117.762 160.377 117.696 160.134 117.632C154.719 116.161 149.16 115.288 143.556 115.029C143.437 115.024 143.318 115.019 143.193 115.014C138.629 114.817 134.056 114.982 129.518 115.508C129.423 115.513 129.328 115.523 129.234 115.538C129.001 115.564 128.762 115.592 128.529 115.622C128.435 115.632 128.347 115.642 128.261 115.658C127.353 115.772 126.453 115.902 125.551 116.042C124.248 116.251 122.945 116.483 121.642 116.739C121.561 116.754 121.477 116.775 121.394 116.79C119.302 117.207 117.221 117.691 115.15 118.225C115.035 118.255 114.914 118.258 114.798 118.234C114.681 118.211 114.571 118.161 114.476 118.088C114.382 118.016 114.305 117.923 114.251 117.816C114.197 117.709 114.168 117.591 114.167 117.472V97.8373C114.166 97.8269 114.168 97.8164 114.172 97.8068Z" fill="#3F3D56"></path>
  <path d="M142.663 92.7043C143.232 92.4245 143.884 92.367 144.493 92.5429C144.762 92.6442 145.008 92.798 145.218 92.9956C145.427 93.1931 145.595 93.4304 145.712 93.6937C145.923 94.1985 146.059 94.732 146.114 95.2766C146.146 95.4909 146.148 95.7612 145.933 95.8612C145.855 95.8896 145.771 95.8961 145.69 95.8799C145.609 95.8638 145.533 95.8256 145.472 95.7696C145.361 95.66 145.27 95.5321 145.202 95.3916C144.83 94.8098 144.317 94.3317 143.712 94.0014C143.106 93.6711 142.428 93.4992 141.739 93.5016L141.165 93.7311C141.617 93.3232 142.12 92.9778 142.663 92.7043Z" fill="white"></path>
  <path d="M136.456 97.1735C136.901 96.5159 137.428 95.8138 138.254 95.599C139.211 95.3504 140.193 95.8443 141.027 96.3318C143.505 97.7804 145.905 99.3601 148.216 101.064L148.213 101.09L142.849 100.759C141.557 100.68 140.22 100.589 139.078 100.043C138.668 99.785 138.21 99.6138 137.732 99.5397C137.435 99.5559 137.145 99.6309 136.877 99.7603C136.609 99.8898 136.37 100.071 136.172 100.294C133.7 102.646 132.984 106.243 130.21 108.31C131.976 104.428 134.065 100.702 136.456 97.1735Z" fill="white"></path>
  <path d="M143.193 115.014C143.317 115.019 143.436 115.024 143.555 115.029C144.42 114.718 145.305 114.442 146.201 114.203C146.781 114.047 147.371 113.907 147.962 113.787C148.63 113.642 149.303 113.527 149.976 113.429C151.257 113.242 152.549 113.132 153.844 113.101C153.853 113.102 153.863 113.101 153.873 113.098C153.882 113.095 153.891 113.09 153.898 113.084C153.905 113.077 153.911 113.069 153.915 113.06C153.919 113.051 153.921 113.041 153.921 113.031C153.921 113.021 153.919 113.011 153.915 113.002C153.911 112.993 153.905 112.985 153.898 112.979C153.891 112.972 153.882 112.967 153.873 112.964C153.863 112.961 153.853 112.96 153.844 112.961C153.678 112.961 153.512 112.966 153.352 112.976C152.054 113.025 150.761 113.151 149.479 113.356C148.811 113.465 148.143 113.595 147.48 113.74C146.879 113.876 146.279 114.026 145.688 114.193C144.845 114.432 144.013 114.705 143.193 115.014Z" fill="white"></path>
  <path d="M128.26 115.658C128.348 115.643 128.436 115.632 128.529 115.622C128.886 115.326 129.249 115.045 129.627 114.769C130.098 114.426 130.585 114.104 131.082 113.803C132.183 113.132 133.332 112.545 134.52 112.046C136.398 111.261 138.342 110.645 140.329 110.206C142.596 109.708 144.89 109.347 147.2 109.125C149.51 108.886 151.829 108.741 154.149 108.595C154.247 108.59 154.252 108.445 154.149 108.45C153.859 108.471 153.569 108.486 153.274 108.507C150.928 108.652 148.583 108.819 146.253 109.084C143.942 109.332 141.651 109.732 139.392 110.279C137.464 110.756 135.582 111.405 133.769 112.218C132.726 112.688 131.716 113.228 130.745 113.834C130.129 114.224 129.534 114.64 128.964 115.081C128.726 115.268 128.488 115.456 128.26 115.658Z" fill="white"></path>
  <path d="M129.233 115.539C129.327 115.523 129.423 115.513 129.518 115.507C129.627 115.419 129.741 115.336 129.854 115.253C130.652 114.68 131.483 114.158 132.345 113.688C133.128 113.262 133.931 112.875 134.753 112.529C136.63 111.742 138.575 111.126 140.562 110.69C142.829 110.191 145.123 109.83 147.433 109.609C149.743 109.37 152.062 109.224 154.382 109.079C154.48 109.068 154.48 108.928 154.382 108.933C154.087 108.954 153.797 108.969 153.507 108.99C151.161 109.136 148.816 109.302 146.486 109.567C144.175 109.816 141.884 110.215 139.625 110.762C137.697 111.239 135.815 111.887 134.002 112.701C133.318 113.013 132.651 113.351 131.998 113.72C131.031 114.253 130.106 114.861 129.233 115.539Z" fill="white"></path>
  <path d="M121.394 116.791C121.477 116.776 121.56 116.755 121.643 116.739C121.736 116.64 121.824 116.536 121.912 116.433C122.357 115.918 122.797 115.398 123.232 114.873C124.946 112.826 126.572 110.716 128.105 108.564C129.42 106.724 130.668 104.848 131.848 102.936C132.413 102.031 132.956 101.117 133.489 100.191C133.904 99.4743 134.308 98.7554 134.701 98.0347C134.815 97.8268 134.924 97.6189 135.032 97.411C135.286 96.9225 135.54 96.4288 135.809 95.9455C136.102 95.3533 136.531 94.8401 137.062 94.4487C137.327 94.2704 137.634 94.1647 137.953 94.1421C138.402 94.1437 138.843 94.258 139.237 94.4746C142.134 95.8287 144.866 97.5114 147.382 99.4899C149.838 101.408 152.059 103.611 153.999 106.054C154.061 106.127 154.196 106.059 154.139 105.981C153.906 105.69 153.667 105.399 153.429 105.113C151.565 102.9 149.466 100.898 147.169 99.1417C147.164 99.1365 147.154 99.1313 147.149 99.1261C146.947 98.965 146.745 98.8091 146.538 98.6584C145.255 97.7105 143.921 96.836 142.54 96.039C141.836 95.6284 141.116 95.2386 140.381 94.8696C140.2 94.7761 140.013 94.6825 139.827 94.5942C139.641 94.5007 139.454 94.4124 139.268 94.3239C138.899 94.1351 138.495 94.0237 138.082 93.9966C136.643 93.9758 135.902 95.431 135.39 96.4132C135.229 96.7198 135.063 97.0265 134.903 97.3331C134.282 98.492 133.634 99.6458 132.961 100.784C132.552 101.491 132.128 102.192 131.698 102.889C131.082 103.882 130.45 104.864 129.792 105.841C129.792 105.842 129.792 105.842 129.792 105.843C129.792 105.843 129.791 105.844 129.791 105.845C129.79 105.845 129.79 105.845 129.789 105.846C129.789 105.846 129.788 105.846 129.787 105.846C129.026 107 128.234 108.133 127.416 109.261C126.013 111.189 124.542 113.073 123.004 114.915C122.476 115.549 121.939 116.174 121.394 116.791Z" fill="white"></path>
  <path d="M114.166 114.499V114.738C114.679 114.135 115.202 113.538 115.719 112.94C115.937 112.691 116.154 112.441 116.372 112.192C117.293 111.142 118.22 110.096 119.152 109.053C120.089 108.013 121.027 106.974 121.974 105.94C122.202 105.69 122.43 105.441 122.663 105.191C122.849 104.982 123.052 104.787 123.269 104.609C123.487 104.426 123.739 104.287 124.009 104.198C124.32 104.112 124.649 104.108 124.962 104.188C125.319 104.271 125.661 104.401 126.008 104.51C126.365 104.63 126.717 104.744 127.074 104.859C127.789 105.092 128.498 105.326 129.213 105.56C129.222 105.564 129.231 105.566 129.241 105.565C129.25 105.565 129.26 105.563 129.268 105.559C129.277 105.555 129.285 105.55 129.291 105.543C129.298 105.536 129.303 105.528 129.306 105.519C129.31 105.509 129.312 105.498 129.311 105.487C129.311 105.477 129.308 105.466 129.303 105.457C129.298 105.448 129.291 105.439 129.283 105.433C129.274 105.427 129.265 105.422 129.254 105.42C129.078 105.363 128.897 105.306 128.716 105.248C127.996 105.009 127.282 104.775 126.562 104.542C126.204 104.422 125.847 104.308 125.49 104.193C125.159 104.067 124.809 103.997 124.454 103.985C123.876 104.027 123.334 104.283 122.932 104.703C122.709 104.911 122.507 105.129 122.306 105.352C122.067 105.612 121.829 105.872 121.591 106.132C120.633 107.182 119.682 108.235 118.738 109.292C117.791 110.352 116.852 111.414 115.921 112.478C115.854 112.556 115.787 112.633 115.719 112.711C115.196 113.304 114.684 113.902 114.166 114.499Z" fill="white"></path>
  <path d="M139.867 93.8381L140.01 93.901C140.338 93.3449 140.798 92.8788 141.349 92.5442C141.9 92.2095 142.524 92.0165 143.167 91.9825C145.287 91.8314 147.149 93.2494 147.319 95.1432C147.387 95.923 147.162 96.7004 146.688 97.322L146.821 97.4008C147.315 96.7535 147.549 95.944 147.478 95.1319C147.301 93.1597 145.362 91.683 143.155 91.8404C142.485 91.8758 141.835 92.0767 141.261 92.4252C140.687 92.7737 140.209 93.2591 139.867 93.8381Z" fill="white"></path>
  <path d="M150.342 97.6698C150.898 97.4269 151.504 97.3204 152.11 97.3591C152.715 97.3978 153.303 97.5806 153.824 97.8923C151.921 98.1853 150.035 98.5786 148.174 99.0705C148.944 98.6669 149.547 98.0347 150.342 97.6698Z" fill="white"></path>
  <path d="M153.834 97.8906L154.044 98.0427C153.973 97.9895 153.899 97.9395 153.824 97.8923L153.834 97.8906Z" fill="white"></path>
  <path d="M123.349 105.567C123.545 105.314 123.805 105.119 124.103 105.004L124.397 105.015C122.087 108.624 119.059 111.716 115.504 114.099C118.119 111.255 120.734 108.411 123.349 105.567Z" fill="white"></path>
  <path d="M147.525 98.7729C147.609 98.6897 147.692 98.6066 147.776 98.5234C148.42 97.8194 149.196 97.2494 150.06 96.8457C150.5 96.6599 150.971 96.5622 151.448 96.5582C151.941 96.5697 152.428 96.6647 152.89 96.8391C153.107 96.9165 153.319 97.0045 153.528 97.0981C153.767 97.2055 154.002 97.32 154.235 97.4355C154.674 97.6522 155.106 97.8785 155.533 98.1142C156.383 98.5833 157.206 99.0882 158.002 99.6289C158.415 99.9093 158.819 100.199 159.215 100.498C159.583 100.775 159.944 101.06 160.297 101.353C160.372 101.415 160.485 101.314 160.41 101.252C160.316 101.174 160.222 101.097 160.128 101.021C159.862 100.807 159.592 100.596 159.317 100.389C158.817 100.012 158.303 99.6492 157.777 99.301C156.958 98.7591 156.111 98.2541 155.236 97.7858C154.799 97.552 154.356 97.328 153.906 97.1138C153.771 97.0491 153.634 96.9859 153.495 96.926C153.178 96.7833 152.85 96.6643 152.516 96.5701C152.036 96.432 151.534 96.388 151.038 96.4403C150.562 96.5012 150.101 96.6438 149.674 96.8619C148.827 97.3381 148.063 97.9494 147.412 98.6717C147.344 98.7401 147.456 98.8414 147.525 98.7729Z" fill="white"></path>
  <path d="M224.894 79.356C213.223 75.6184 200.202 76.6079 189.145 81.8733C185.99 83.3679 183.011 85.2099 180.261 87.3653C179.484 87.978 178.377 86.8821 179.163 86.2628C189.318 78.3565 202.079 74.6006 214.88 75.7499C218.421 76.068 221.918 76.773 225.307 77.8525C226.256 78.1563 225.85 79.6622 224.894 79.356H224.894Z" fill="#3F3D56"></path>
  <path d="M224.894 89.7502C213.223 86.0127 200.202 87.0022 189.145 92.2676C185.99 93.7622 183.011 95.6042 180.261 97.7596C179.484 98.3722 178.377 97.2764 179.163 96.6571C189.318 88.7508 202.079 84.9949 214.88 86.1441C218.421 86.4622 221.918 87.1673 225.307 88.2468C226.256 88.5506 225.85 90.0564 224.894 89.7502H224.894Z" fill="#3F3D56"></path>
  <path d="M224.894 100.144C213.223 96.4069 200.202 97.3964 189.145 102.662C185.99 104.156 183.011 105.998 180.261 108.154C179.484 108.766 178.377 107.671 179.163 107.051C189.318 99.145 202.079 95.3892 214.88 96.5384C218.421 96.8565 221.918 97.5615 225.307 98.641C226.256 98.9448 225.85 100.451 224.894 100.144H224.894Z" fill="#3F3D56"></path>
  <path d="M224.894 110.539C213.223 106.801 200.202 107.791 189.145 113.056C185.99 114.551 183.011 116.393 180.261 118.548C179.484 119.161 178.377 118.065 179.163 117.446C189.318 109.539 202.079 105.783 214.88 106.933C218.421 107.251 221.918 107.956 225.307 109.035C226.256 109.339 225.85 110.845 224.894 110.539H224.894Z" fill="#3F3D56"></path>
  <path d="M224.894 120.933C213.223 117.195 200.202 118.185 189.145 123.45C185.99 124.945 183.011 126.787 180.261 128.942C179.484 129.555 178.377 128.459 179.163 127.84C189.318 119.934 202.079 116.178 214.88 117.327C218.421 117.645 221.918 118.35 225.307 119.43C226.256 119.733 225.85 121.239 224.894 120.933L224.894 120.933Z" fill="#3F3D56"></path>
  <path d="M182.844 52.238V81.3705C182.844 81.8666 183.706 82.2813 184.869 82.3933C185.072 82.4136 185.285 82.4238 185.505 82.4238C186.146 82.436 186.783 82.3317 187.386 82.116C187.498 82.0724 187.607 82.0205 187.711 81.9607C188 81.7903 188.167 81.5893 188.167 81.3705V49.9913C187.219 50.3094 186.334 50.6427 185.505 50.9887C184.542 51.3907 183.657 51.808 182.844 52.238Z" fill="#4F2DA7"></path>
  <path d="M171.688 62.2271H172.448V156.464H171.688V62.2271Z" fill="#E6E6E6"></path>
  <path d="M103.819 138.168C104.603 138.987 105.55 139.631 106.599 140.058C107.648 140.485 108.774 140.685 109.905 140.645C113.422 140.52 117.619 140.458 122.174 140.553L122.199 140.531L102.459 114.847L101.607 131.971C101.522 133.102 101.675 134.238 102.056 135.306C102.437 136.374 103.038 137.349 103.819 138.168Z" fill="#F2F2F2"></path>
  <path d="M408 91.079H282.276V36H408L408 91.079ZM283.493 89.8623H406.784V37.2166H283.493V89.8623Z" fill="#E5E5E5"></path>
  <path d="M407.883 91.2212H282V36H407.883L407.883 91.2212Z" fill="#119A4B"></path>
  <path d="M344.993 80.4586L323.381 64.2429L302.063 80.2368L301.575 79.5845L323.381 63.2246L344.89 79.3628L366.265 55.9322L366.351 55.8975L387.912 47.1955L388.216 47.9516L366.741 56.6187L344.993 80.4586Z" fill="white"></path>
  <path d="M301.819 82.3557C303.167 82.3557 304.26 81.261 304.26 79.9106C304.26 78.5603 303.167 77.4656 301.819 77.4656C300.471 77.4656 299.378 78.5603 299.378 79.9106C299.378 81.261 300.471 82.3557 301.819 82.3557Z" fill="white"></path>
  <path d="M323.38 66.4631C324.728 66.4631 325.821 65.3684 325.821 64.0181C325.821 62.6678 324.728 61.5731 323.38 61.5731C322.032 61.5731 320.939 62.6678 320.939 64.0181C320.939 65.3684 322.032 66.4631 323.38 66.4631Z" fill="white"></path>
  <path d="M344.942 82.3557C346.29 82.3557 347.383 81.261 347.383 79.9106C347.383 78.5603 346.29 77.4656 344.942 77.4656C343.594 77.4656 342.501 78.5603 342.501 79.9106C342.501 81.261 343.594 82.3557 344.942 82.3557Z" fill="white"></path>
  <path d="M366.503 58.7206C367.851 58.7206 368.944 57.6259 368.944 56.2756C368.944 54.9252 367.851 53.8306 366.503 53.8306C365.155 53.8306 364.062 54.9252 364.062 56.2756C364.062 57.6259 365.155 58.7206 366.503 58.7206Z" fill="white"></path>
  <path d="M388.064 49.7555C389.412 49.7555 390.505 48.6609 390.505 47.3105C390.505 45.9602 389.412 44.8655 388.064 44.8655C386.716 44.8655 385.623 45.9602 385.623 47.3105C385.623 48.6609 386.716 49.7555 388.064 49.7555Z" fill="white"></path>
  <path d="M126 229.079H0.276367V174H126L126 229.079ZM1.49257 227.862H124.784V175.217H1.49257V227.862Z" fill="#E5E5E5"></path>
  <path d="M125.883 229.221H0V174H125.883L125.883 229.221Z" fill="white"></path>
  <path d="M62.9933 218.459L41.3805 202.243L20.0632 218.237L19.5752 217.585L41.3805 201.225L62.8902 217.363L84.2652 193.932L84.3511 193.898L105.912 185.195L106.216 185.952L84.7411 194.619L62.9933 218.459Z" fill="#4F2DA7"></path>
  <path d="M19.8193 220.356C21.1674 220.356 22.2602 219.261 22.2602 217.911C22.2602 216.56 21.1674 215.466 19.8193 215.466C18.4712 215.466 17.3784 216.56 17.3784 217.911C17.3784 219.261 18.4712 220.356 19.8193 220.356Z" fill="#4F2DA7"></path>
  <path d="M41.3804 204.463C42.7284 204.463 43.8213 203.368 43.8213 202.018C43.8213 200.668 42.7284 199.573 41.3804 199.573C40.0323 199.573 38.9395 200.668 38.9395 202.018C38.9395 203.368 40.0323 204.463 41.3804 204.463Z" fill="#4F2DA7"></path>
  <path d="M62.9419 220.356C64.29 220.356 65.3828 219.261 65.3828 217.911C65.3828 216.56 64.29 215.466 62.9419 215.466C61.5938 215.466 60.501 216.56 60.501 217.911C60.501 219.261 61.5938 220.356 62.9419 220.356Z" fill="#4F2DA7"></path>
  <path d="M84.5029 196.721C85.851 196.721 86.9438 195.626 86.9438 194.276C86.9438 192.925 85.851 191.831 84.5029 191.831C83.1548 191.831 82.062 192.925 82.062 194.276C82.062 195.626 83.1548 196.721 84.5029 196.721Z" fill="#4F2DA7"></path>
  <path d="M106.064 187.756C107.412 187.756 108.505 186.661 108.505 185.311C108.505 183.96 107.412 182.866 106.064 182.866C104.716 182.866 103.623 183.96 103.623 185.311C103.623 186.661 104.716 187.756 106.064 187.756Z" fill="#4F2DA7"></path>
  <path d="M201.122 249.427L201.805 252.429L201.641 252.608C201.677 252.7 201.714 252.792 201.758 252.883C202.121 253.707 202.536 254.506 203.001 255.276C203.615 256.3 204.302 257.287 205.015 258.255C205.406 258.791 205.808 259.323 206.21 259.851C206.221 259.869 206.233 259.886 206.247 259.903C206.242 259.884 206.236 259.865 206.228 259.848L206.36 259.818L207.117 256.523L207.347 257.044V257.048L207.72 257.91C207.691 258.068 207.661 258.222 207.625 258.376C207.629 258.373 207.629 258.365 207.632 258.362C207.636 258.358 207.636 258.358 207.636 258.354C207.683 258.252 207.735 258.152 207.782 258.05L208.352 259.363L209.508 259.099C210.114 258.784 210.721 258.464 211.324 258.134C219.564 253.647 227.193 247.919 232.329 240.122C234.371 237.016 235.914 233.607 236.903 230.021C238.851 222.895 238.515 215.226 234.969 208.86C234.969 208.86 234.969 208.859 234.968 208.859C234.968 208.858 234.968 208.858 234.968 208.858C234.967 208.857 234.967 208.857 234.966 208.857C234.966 208.857 234.966 208.856 234.965 208.856C234.877 208.695 234.786 208.534 234.691 208.372C234.621 208.556 234.556 208.739 234.483 208.923V208.926C233.529 211.418 232.379 213.829 231.043 216.136C230.94 216.316 230.838 216.496 230.728 216.672C227.463 222.173 223.209 227.018 218.182 230.96C218.169 230.973 218.154 230.985 218.138 230.997C218.121 231.011 218.103 231.025 218.084 231.037C216.965 231.918 215.809 232.746 214.614 233.521V233.525C213.682 234.134 212.724 234.71 211.752 235.257C209.679 236.416 207.424 237.531 205.486 238.922C203.604 240.269 202.017 241.872 201.173 244.019C201.107 244.191 201.045 244.364 200.99 244.536L202.496 249.2L201.122 249.427Z" fill="#119A4B"></path>
  <path d="M207.347 257.044V257.048L207.72 257.91C208.283 254.769 207.614 251.449 208.078 248.268C208.129 247.912 208.195 247.556 208.279 247.204C208.755 245.193 209.84 243.31 211.77 242.412C212.334 242.154 212.925 241.963 213.532 241.843C214.731 241.586 215.982 241.531 217.192 241.388C217.495 241.351 217.795 241.311 218.087 241.256C219.652 241.012 221.146 240.433 222.467 239.557C224.084 238.403 225.493 236.981 226.634 235.352C227.388 234.329 228.089 233.269 228.736 232.174C228.824 232.035 228.904 231.892 228.988 231.749C230.501 229.119 231.742 226.34 232.691 223.456C233.18 221.982 233.59 220.483 233.92 218.965C234.652 215.648 235.004 212.258 234.969 208.86C234.969 208.86 234.969 208.859 234.968 208.859C234.968 208.858 234.968 208.858 234.968 208.858C234.967 208.857 234.967 208.857 234.967 208.857C234.966 208.857 234.966 208.856 234.965 208.856C234.969 208.702 234.965 208.548 234.961 208.394C234.954 208.079 234.468 208.148 234.475 208.464C234.479 208.618 234.483 208.768 234.483 208.922V208.926C234.512 212.181 234.185 215.43 233.507 218.613C233.47 218.774 233.433 218.936 233.401 219.097C232.412 223.508 230.751 227.74 228.476 231.642C228.451 231.686 228.425 231.73 228.396 231.774C227.866 232.681 227.296 233.561 226.696 234.424C225.595 236.083 224.24 237.559 222.682 238.797C221.371 239.782 219.849 240.444 218.237 240.731C218.076 240.76 217.915 240.79 217.751 240.815C217.623 240.837 217.491 240.856 217.36 240.87C216.128 241.025 214.863 241.083 213.638 241.318C213.082 241.424 212.535 241.577 212.004 241.777C211.136 242.126 210.351 242.656 209.701 243.331C209.05 244.006 208.55 244.812 208.232 245.695C207.906 246.553 207.683 247.446 207.566 248.356C207.526 248.653 207.497 248.95 207.471 249.251V249.255C207.435 249.739 207.417 250.227 207.409 250.715C207.402 251.324 207.413 251.933 207.428 252.539C207.509 254.041 207.482 255.546 207.347 257.044Z" fill="white"></path>
  <path d="M228.528 232.072C229.921 232.782 231.52 232.972 233.04 232.608C234.56 232.244 235.901 231.35 236.824 230.085C237.01 229.828 236.622 229.526 236.436 229.783C235.578 230.962 234.328 231.795 232.913 232.131C231.497 232.467 230.008 232.284 228.715 231.615C228.434 231.47 228.249 231.927 228.528 232.072H228.528Z" fill="white"></path>
  <path d="M218.285 240.878C217.267 237.839 217.427 234.527 218.734 231.602C218.864 231.312 218.409 231.126 218.28 231.415C216.925 234.461 216.765 237.908 217.832 241.068C217.933 241.369 218.386 241.177 218.285 240.878H218.285Z" fill="white"></path>
  <path d="M233.649 218.658C233.053 218.496 232.506 218.188 232.058 217.762C231.61 217.335 231.274 216.804 231.082 216.215C230.984 215.913 230.531 216.105 230.628 216.405C230.844 217.055 231.216 217.641 231.71 218.114C232.204 218.586 232.805 218.93 233.462 219.115C233.523 219.137 233.589 219.136 233.649 219.111C233.709 219.086 233.756 219.039 233.783 218.98C233.807 218.92 233.807 218.852 233.782 218.792C233.757 218.731 233.709 218.683 233.649 218.658H233.649Z" fill="white"></path>
  <path d="M206.269 259.932C206.262 259.921 206.254 259.914 206.247 259.903C206.262 259.947 206.276 259.991 206.287 260.038L206.269 259.932Z" fill="#119A4B"></path>
  <path d="M195.401 237.344L195.913 239.142L199.057 238.551L200.099 241.777L200.278 242.331L200.99 244.536L202.497 249.2L201.122 249.427L201.806 252.428L201.641 252.608L201.59 252.663L201.25 253.038L199.181 255.305L204.84 260.167L205.746 259.958L206.211 259.851C206.222 259.869 206.234 259.886 206.247 259.903C206.243 259.884 206.237 259.865 206.229 259.848L206.361 259.818L207.117 256.523L207.348 257.044V257.048L207.72 257.91C207.691 258.068 207.662 258.222 207.625 258.376C207.629 258.373 207.629 258.365 207.633 258.362C207.636 258.358 207.636 258.358 207.636 258.354C207.684 258.252 207.735 258.152 207.783 258.05C208.506 256.534 209.197 254.997 209.837 253.441C211.414 249.694 212.651 245.813 213.533 241.843C213.569 241.67 213.61 241.498 213.639 241.322V241.318C214.175 238.751 214.501 236.145 214.615 233.525V233.521C214.673 232.087 214.659 230.65 214.571 229.217C214.34 225.513 213.529 221.869 212.169 218.418C212.162 218.4 212.155 218.385 212.147 218.367C209.541 211.784 204.953 206.075 198.717 203.033C198.457 202.901 198.19 202.777 197.923 202.659H197.916L197.912 202.655C197.744 202.582 197.58 202.512 197.412 202.439C197.466 202.63 197.525 202.821 197.576 203.015C198.314 205.579 198.842 208.199 199.155 210.849V210.853C199.185 211.054 199.21 211.263 199.232 211.469V211.473C199.922 217.864 199.424 224.329 197.763 230.538C197.759 230.556 197.752 230.571 197.748 230.589C197.128 232.894 196.343 235.152 195.401 237.344Z" fill="#119A4B"></path>
  <path d="M201.25 253.038C201.539 253.427 201.835 253.804 202.135 254.182C202.423 254.546 202.712 254.909 203.001 255.276C203.756 256.209 204.43 257.206 205.015 258.255C205.309 258.8 205.553 259.37 205.746 259.958L206.211 259.851C206.221 259.869 206.234 259.886 206.247 259.903C206.243 259.884 206.237 259.865 206.229 259.848C205.377 257.176 203.44 255.107 201.758 252.883C201.7 252.81 201.645 252.737 201.59 252.663L201.25 253.038Z" fill="white"></path>
  <path d="M197.291 202.644C197.386 202.766 197.485 202.89 197.576 203.015C198.289 203.943 198.963 204.901 199.598 205.888C200.728 207.63 201.732 209.451 202.602 211.337C202.672 211.484 202.741 211.634 202.807 211.784C204.669 215.906 205.882 220.293 206.404 224.788C206.412 224.832 206.415 224.873 206.419 224.917C206.54 225.966 206.618 227.019 206.653 228.076C206.769 230.066 206.573 232.062 206.072 233.991C205.999 234.244 205.918 234.493 205.83 234.735C205.61 235.329 205.335 235.9 205.008 236.442C204.773 236.837 204.511 237.216 204.226 237.575C204.054 237.796 203.875 238.012 203.685 238.221C203.575 238.342 203.462 238.463 203.348 238.584C203.253 238.676 203.162 238.772 203.067 238.863C202.08 239.825 200.99 240.716 200.098 241.777L200.278 242.331C201.137 241.237 202.244 240.331 203.242 239.377C203.869 238.786 204.439 238.137 204.946 237.44C205.012 237.344 205.081 237.249 205.143 237.15C205.482 236.653 205.774 236.126 206.017 235.576C206.141 235.301 206.254 235.018 206.357 234.724C206.954 232.827 207.226 230.842 207.161 228.854C207.149 227.58 207.074 226.308 206.934 225.041C206.92 224.876 206.901 224.715 206.88 224.55C206.509 221.536 205.833 218.568 204.862 215.692C203.633 212.044 201.942 208.569 199.832 205.352C199.228 204.431 198.589 203.532 197.912 202.655C197.825 202.534 197.733 202.417 197.638 202.296C197.444 202.046 197.097 202.395 197.291 202.644Z" fill="white"></path>
  <path d="M206.706 225.088C208.244 224.813 209.635 223.998 210.63 222.789C211.625 221.58 212.159 220.056 212.138 218.488C212.136 218.424 212.11 218.363 212.065 218.318C212.019 218.273 211.958 218.247 211.895 218.247C211.831 218.246 211.769 218.27 211.723 218.314C211.677 218.358 211.649 218.418 211.646 218.482C211.669 219.942 211.171 221.362 210.242 222.486C209.313 223.61 208.015 224.363 206.581 224.611C206.269 224.665 206.396 225.142 206.706 225.088Z" fill="white"></path>
  <path d="M203.809 238.309C201.173 236.498 199.315 233.757 198.604 230.631C198.534 230.322 198.058 230.447 198.128 230.757C198.874 234.007 200.814 236.856 203.561 238.735C203.823 238.914 204.069 238.487 203.809 238.309H203.809Z" fill="white"></path>
  <path d="M202.748 211.284C202.175 211.514 201.554 211.599 200.94 211.529C200.327 211.459 199.74 211.238 199.233 210.884C198.973 210.702 198.727 211.129 198.985 211.31C199.547 211.698 200.196 211.942 200.873 212.02C201.551 212.099 202.238 212.01 202.873 211.761C202.935 211.742 202.988 211.701 203.02 211.645C203.053 211.589 203.063 211.523 203.048 211.459C203.031 211.396 202.991 211.343 202.934 211.31C202.878 211.277 202.811 211.267 202.748 211.284Z" fill="white"></path>
  <path d="M165.845 235.429L166.898 244.008L167.702 250.528L168.024 253.159H172.601V250.821L172.604 243.087V235.429H165.845Z" fill="#FFB6B6"></path>
  <path d="M197.759 234.53L199.057 238.551L200.098 241.777L200.277 242.331L200.99 244.536L202.496 249.2L203.246 251.522L207.41 250.715L207.742 250.653L207.472 249.251L207.307 248.396L205.487 238.922L205.191 237.396L205.143 237.15L205.008 236.442L204.394 233.246L199.956 234.104L199.444 234.203L197.759 234.53Z" fill="#FFB6B6"></path>
  <path d="M158.969 184.342C161.587 198.781 162.241 205.015 162.241 205.015C162.241 205.015 160.278 207.312 161.587 208.625C162.895 209.939 161.587 212.562 161.587 212.562L164.529 244.393L166.898 244.008L172.605 243.087L174.663 242.753L173.354 212.893C173.354 212.893 174.663 210.265 174.008 209.609C173.354 208.952 174.663 205.015 174.663 205.015L176.297 173.841L186.434 207.968C186.434 207.968 185.45 209.282 186.434 210.265C187.413 211.249 189.373 216.173 189.373 216.173L195.401 237.344L195.913 239.142L199.057 238.551L202.478 237.906L203.107 237.788L204.226 237.575L204.946 237.44L205.191 237.396L206.375 237.172L206.017 235.576L205.83 234.735L200.731 212.001L200.614 211.476L200.49 210.922C200.49 210.922 201.144 209.282 200.164 208.295C199.878 207.994 199.668 207.628 199.554 207.228C199.44 206.828 199.425 206.406 199.51 205.998C199.542 205.964 199.571 205.927 199.598 205.888C199.713 205.729 199.793 205.546 199.831 205.352C199.919 204.941 199.842 204.365 199.181 203.701C198.994 203.502 198.838 203.278 198.717 203.033C197.722 201.144 197.221 197.141 197.221 197.141C197.221 197.141 196.337 165.435 193.442 160.591C193.327 160.38 193.166 160.198 192.97 160.059C189.702 158.093 158.319 160.059 158.319 160.059C158.319 160.059 158.275 160.287 158.205 160.72C157.829 163.153 156.75 172.095 158.969 184.342Z" fill="#2F2E41"></path>
  <path d="M159.998 126.094L159.082 120.553L142.206 123.404L118.264 125.123C117.744 124.546 117.053 124.153 116.293 124.002C115.533 123.852 114.745 123.951 114.046 124.287C113.346 124.622 112.774 125.175 112.413 125.863C112.053 126.551 111.923 127.338 112.044 128.106C112.165 128.874 112.529 129.583 113.084 130.126C113.638 130.669 114.352 131.018 115.12 131.121C115.888 131.224 116.669 131.075 117.346 130.697C118.023 130.318 118.56 129.731 118.877 129.021L133.561 130.013L159.998 126.094Z" fill="#FFB6B6"></path>
  <path d="M172.612 122.259L171.42 117.312C171.42 117.312 164.95 116.117 159.834 117.261L140.589 120.968L142.147 132.644L172.612 122.259Z" fill="#4F2DA7"></path>
  <path d="M217.281 162.989L206.514 139.512L198.657 122.902L191.842 126.927L213.056 165.573C212.87 166.262 212.891 166.99 213.117 167.667C213.344 168.344 213.765 168.938 214.328 169.375C214.891 169.811 215.57 170.07 216.28 170.119C216.989 170.168 217.697 170.005 218.314 169.65C218.932 169.295 219.43 168.764 219.747 168.125C220.063 167.486 220.184 166.767 220.093 166.058C220.003 165.35 219.705 164.685 219.238 164.147C218.771 163.609 218.155 163.222 217.468 163.035C217.406 163.018 217.344 163.002 217.281 162.989L217.281 162.989Z" fill="#FFB6B6"></path>
  <path d="M186.229 115.785L191.455 113.378C191.455 113.378 192.382 113.055 194.38 115.832C196.379 118.61 213.569 144.816 213.569 144.816L202.653 149.769L186.229 115.785Z" fill="#4F2DA7"></path>
  <path d="M159.931 258.266L166.734 253.548V250.469L167.703 250.528L172.601 250.821L173.892 250.898L174.783 261.62L174.794 261.77H171.581L171.552 261.62L171.007 258.725L169.614 261.62L169.541 261.77H161.017C160.761 261.77 160.507 261.719 160.271 261.62C159.954 261.486 159.68 261.269 159.476 260.992C159.272 260.714 159.146 260.387 159.111 260.044C159.076 259.701 159.134 259.355 159.278 259.042C159.422 258.73 159.648 258.462 159.931 258.266H159.931Z" fill="#2F2E41"></path>
  <path d="M196.216 258.549L199.181 255.305L201.25 253.038L201.59 252.663L201.641 252.608L201.805 252.428L201.122 249.427L202.496 249.2L207.307 248.396L207.567 248.356L208.078 248.268L208.195 248.249L209.837 253.441L211.325 258.134L211.485 258.648L209.508 259.099L208.353 259.363L207.782 258.05L207.72 257.91L207.347 257.048V257.044L207.117 256.523L206.36 259.818L206.229 259.848L206.21 259.851L205.746 259.958L204.839 260.167L198.501 261.62L198.051 261.723C197.556 261.833 197.037 261.743 196.608 261.472C196.178 261.2 195.873 260.769 195.759 260.273C195.69 259.97 195.696 259.655 195.775 259.354C195.855 259.054 196.006 258.777 196.216 258.549Z" fill="#2F2E41"></path>
  <path d="M166.876 100.647C167.616 102.009 168.642 103.192 169.884 104.115C171.126 105.038 172.553 105.677 174.067 105.989C174.235 106.026 174.403 106.055 174.575 106.081C176.95 106.454 179.381 106.009 181.471 104.819C183.562 103.628 185.19 101.763 186.091 99.5261C186.991 97.2891 187.111 94.812 186.431 92.498C185.75 90.184 184.31 88.1691 182.344 86.7813C180.378 85.3934 178.001 84.7142 175.602 84.8542C173.202 84.9942 170.92 85.9451 169.127 87.5523C167.334 89.1594 166.136 91.3282 165.728 93.7058C165.319 96.0833 165.724 98.5297 166.876 100.647Z" fill="#FFB6B6"></path>
  <path d="M171.11 86.1425C174.593 83.7377 177.661 83.3714 180.181 84.0534C180.508 83.5463 180.966 83.138 181.506 82.8724C183.472 77.9016 189.453 74.9164 194.586 76.3675C199.752 77.8281 203.317 83.5721 202.344 88.8702C201.742 92.1542 199.683 94.998 198.855 98.2322C197.251 104.493 201.162 111.664 207.281 113.683C201.488 114.85 195.111 111.298 193.033 105.747C192.024 103.05 191.963 100.106 191.834 97.2285C191.801 95.2422 191.558 93.265 191.111 91.3297C190.889 90.4615 190.576 89.6195 190.176 88.8181C189.305 87.0564 187.858 85.6478 186.078 84.8273C186.237 85.3223 186.277 85.8483 186.194 86.3618C186.111 86.8754 185.908 87.3618 185.601 87.7808C186.959 89.489 187.699 91.3363 187.699 92.4426C190.521 97.6199 186.485 102.067 181.327 104.9C179.269 106.035 176.894 106.451 174.575 106.081L174.359 105.156L174.067 105.989L173.091 108.782C171.965 109.328 170.849 109.928 169.742 110.58C170.163 108.598 170.503 106.621 170.737 104.687C171.061 102.055 169.931 98.1368 169.117 95.7541C168.612 94.2856 168.352 92.7432 168.349 91.1896V91.1217L167.556 93.6792L164.668 92.4426C165.206 89.3494 164.668 85.838 171.11 86.1425Z" fill="#2F2E41"></path>
  <path d="M193.298 157.107C192.918 155.599 192.918 154.02 193.298 152.513C193.952 150.216 192.644 149.231 192.644 149.231L192.317 113.792C190.936 112.406 187.235 112.383 185.165 112.491V110.931C185.165 110.356 184.938 109.805 184.533 109.398C184.128 108.992 183.579 108.764 183.006 108.764H173.433C172.86 108.764 172.311 108.992 171.906 109.398C171.501 109.805 171.274 110.356 171.274 110.931V112.801L168.466 112.846C163.576 113.211 159.298 118.058 159.298 118.058L163.548 134.465C163.548 134.465 162.24 147.919 160.606 149.56C158.971 151.2 159.625 152.185 159.625 152.185C159.625 152.185 160.606 155.794 158.644 157.107C156.683 158.419 157.99 160.716 157.99 160.716C157.99 160.716 193.298 161.373 194.279 160.388C195.259 159.404 193.298 157.107 193.298 157.107Z" fill="#4F2DA7"></path>
  <path d="M128.244 262.057C128.244 262.114 128.255 262.171 128.277 262.224C128.299 262.277 128.331 262.325 128.371 262.366C128.412 262.406 128.46 262.438 128.513 262.46C128.565 262.482 128.622 262.493 128.679 262.493H231.142C231.257 262.493 231.368 262.447 231.449 262.365C231.531 262.283 231.577 262.172 231.577 262.057C231.577 261.941 231.531 261.83 231.449 261.748C231.368 261.666 231.257 261.62 231.142 261.62H128.679C128.622 261.62 128.565 261.631 128.513 261.653C128.46 261.675 128.412 261.707 128.371 261.747C128.331 261.788 128.299 261.836 128.277 261.889C128.255 261.942 128.244 261.999 128.244 262.057Z" fill="#CCCCCC"></path>
</svg>
