<svg fill="none" height="71" viewBox="0 0 62 71" width="62" xmlns="http://www.w3.org/2000/svg" xmlns:xlink="http://www.w3.org/1999/xlink"><linearGradient id="a" gradientUnits="userSpaceOnUse" x1="31.1432" x2="41.0046" y1="28.4831" y2="47.9977"><stop offset="0" stop-color="#d9d5f9"/><stop offset="1" stop-color="#f5f4fd"/></linearGradient><linearGradient id="b" gradientUnits="userSpaceOnUse" x1="21.0895" x2="60.278" y1="39.602" y2="25.6429"><stop offset="0" stop-color="#c9c3f5"/><stop offset="1" stop-color="#0aba9a"/></linearGradient><linearGradient id="c"><stop offset="0" stop-color="#dee4ff"/><stop offset="1" stop-color="#33cf90"/></linearGradient><linearGradient id="d" gradientUnits="userSpaceOnUse" x1="27.2655" x2="51.527" xlink:href="#c" y1="22.8583" y2="14.1759"/><linearGradient id="e" gradientUnits="userSpaceOnUse" x1="35.7496" x2="55.7743" xlink:href="#c" y1="47.3518" y2="40.6423"/><path d="m35.0783 49.9289-10.7478-12.0949-24.3305 22.166v9.7975h8.50872l51.20018-1v-43.5064z" fill="url(#a)"/><path clip-rule="evenodd" d="m54.4557 22c-.3903 0-.7067.3178-.7067.7097 0 .392.3164.7098.7067.7098h4.1315l-23.4103 23.5107-10.2792-11.6137-.4611-.521-.527.4536-23.662825 21.7624-.246775.184v1.9184l1.16665-1.0247 23.13585-21.3087 10.316 11.6553.4979.5626.53-.5322 23.9402-24.043v3.6982c0 .392.3164.7098.7067.7098s.7067-.3178.7067-.7098v-5.4117-.7097h-.7067z" fill="url(#b)" fill-rule="evenodd"/><g fill="#33cf90"><circle cx="30.5" cy="17.5" r="1.5"/><circle cx="60.5" cy="5.5" r="1.5"/><circle cx="10" cy="67" r="1"/><circle cx="20" cy="1" r="1"/><circle cx="60" cy="61" r="1"/><circle cx="30" cy="51" r="1"/><circle cx="10.5" cy="7.5" r=".5"/><circle cx="20.5" cy="17.5" r=".5"/><circle cx="10.5" cy="27.5" r=".5"/><circle cx="30.5" cy="27.5" r=".5"/></g><path clip-rule="evenodd" d="m47.9442 12c-.2419 0-.438.196-.438.4378s.1961.4378.438.4378h2.5605l-20.5047 20.4973.6114.6271 20.5126-20.5052v2.2814c0 .2418.1961.4378.438.4378s.438-.196.438-.4378v-3.3384-.4378h-.438z" fill="url(#d)" fill-rule="evenodd" opacity=".5"/><path clip-rule="evenodd" d="m52.8755 38.8014c-.1983-.0041-.3622.1532-.3662.3513-.0041.1981.1533.362.3515.3661l2.0981.0428-30.9484 29.7048.4905.524 30.9551-29.7112-.0381 1.8692c-.0041.1981.1533.3619.3515.366.1982.004.3622-.1533.3662-.3514l.0558-2.7351.0074-.3587-.3589-.0073z" fill="url(#e)" fill-rule="evenodd" opacity=".5"/></svg>