<svg width="457" height="509" viewBox="0 0 457 509" fill="none" xmlns="http://www.w3.org/2000/svg">
<g opacity="0.2">
<mask id="path-1-inside-1_1614_4179" fill="white">
<path d="M121.602 86.1415C121.578 86.0679 121.63 85.9904 121.708 85.9879C124.499 85.897 124.636 90.3067 121.685 90.499C120.836 90.5642 119.039 89.7813 118.386 90.2054C117.047 91.0862 116.525 92.5541 114.827 92.9455C112.704 93.4022 112.704 94.2504 111.398 95.8162C110.124 97.3167 110.059 97.3494 111.332 99.0457C112.018 99.9917 112.312 102.047 112.377 103.221C112.443 105.015 109.863 105.244 110.875 107.494C111.626 109.191 111.169 108.506 109.667 109.289C108.197 110.071 108.132 112.094 107.348 113.334C105.748 115.845 102.123 117.02 101.372 120.086C101.078 121.293 102.319 123.479 101.143 124.359C100 125.24 98.6938 126.088 97.2895 126.512C95.9832 126.904 94.2197 126.806 93.2074 127.883C91.6398 129.546 91.9011 132.221 91.1826 134.244C90.5294 136.103 89.6477 136.821 88.5047 138.354C87.2637 139.985 86.5452 141.975 85.2063 143.541C84.5531 144.291 83.1488 146.509 82.2998 146.933C80.8302 147.618 78.6748 145.726 77.4664 147.553C76.4867 149.086 76.0295 150.065 74.6252 151.37C73.2536 152.642 73.4822 154.599 72.4699 156.067C71.5228 157.437 69.8246 157.731 68.5836 158.709C67.1467 159.818 67.7345 161.286 67.0487 162.656C66.069 164.614 60.7785 163.146 58.9497 163.472C57.3821 163.765 54.9328 163.635 53.5612 164.451C52.7447 164.94 50.5893 166.832 50.0015 165.755C49.2177 164.255 49.3157 163.211 49.577 161.612C49.7729 160.373 50.2954 159.264 48.6299 159.362C43.9272 159.623 40.8901 161.123 37.9835 164.875C36.3833 166.962 35.8608 168.789 33.4442 170.192C31.4847 171.334 29.2967 172.247 27.8924 174.139C25.9983 176.716 26.7167 184.806 30.6683 185.328C32.7584 185.589 34.0647 187.22 36.3507 187.057C38.898 186.894 37.4284 189.503 36.5793 190.939C35.4689 192.863 34.5219 194.592 35.3056 196.843C36.0568 199.029 37.2977 201.312 38.9306 202.976C40.0736 204.15 41.4452 203.922 42.9475 203.693C46.0499 203.237 43.666 205.39 44.1885 207.412C45.4948 212.175 51.3078 219.645 48.3033 224.636C47.6828 225.68 47.0623 225.223 46.8011 226.724C46.6051 227.768 45.756 226.724 45.0376 226.919C45.1682 226.887 44.9069 222.711 43.372 222.809C41.1513 222.907 39.3552 224.473 37.1671 224.734C36.3833 224.832 35.0444 224.277 34.4565 225.027V225.027C33.6203 226.176 32.5108 227.698 31.1072 227.478C30.6203 227.402 30.1431 227.292 29.6885 227.115C28.1863 226.528 27.6638 224.636 26.1289 224.049C24.5287 223.429 23.6143 224.93 22.2426 225.354C20.6424 225.843 17.8339 224.375 16.2337 224.016C15.0253 223.723 13.5558 222.842 12.3148 223.299C11.1064 223.755 10.5186 225.876 10.8778 226.985C11.2371 228.094 10.7472 229.986 9.24497 229.399C8.55916 229.138 7.87335 229.399 7.15489 229.301C6.20782 229.138 5.75062 228.192 4.80355 227.996C1.37451 227.246 1.99501 232.628 1.50514 234.129C1.11325 235.336 -1.04214 236.021 0.623391 237.423C1.0806 237.782 1.73375 238.696 2.32158 238.826C2.87676 238.957 3.33396 238.239 3.79117 238.826C5.2281 240.555 7.4488 241.795 8.00398 244.045C8.62447 246.59 11.629 248.906 13.817 250.113C16.5276 251.614 19.3035 253.277 22.2426 254.223C23.7775 254.712 25.4104 254.386 26.978 254.452C29.1987 254.549 27.2066 251.581 29.6885 252.494C31.0602 253.016 33.1502 253.049 34.2933 252.005C35.1423 251.255 36.0241 250.602 37.1998 251.45C37.6896 251.777 34.8158 254.191 34.5872 254.354C33.0196 255.691 31.4521 254.843 29.7865 255.822C28.4802 256.572 26.6841 256.702 25.5737 257.551C24.1041 258.692 22.9285 256.931 21.5568 257.779C20.9363 258.138 18.9769 259.443 18.487 258.464C17.7359 257.061 17.7686 256.017 15.9071 255.985C13.1639 255.919 11.4983 258.333 11.7596 260.878C12.0862 264.303 15.7111 267.174 17.8992 269.49C20.2832 272.067 22.6998 274.383 24.8879 277.123C27.2066 279.994 28.7741 283.386 31.4847 286.029C32.791 287.301 34.6525 287.594 35.4363 289.323C36.2854 291.28 38.2775 290.987 40.0083 291.705C41.4779 292.324 42.5556 294.249 44.3844 293.075C44.9069 292.716 45.6907 291.802 46.4418 291.9C47.5848 292.063 48.1727 292.259 49.3484 291.835C50.72 291.346 53.104 291.378 54.2143 290.432C55.7819 289.062 56.7289 288.703 58.6884 288.41C60.3213 288.182 60.9091 287.823 61.7909 286.616C62.7706 285.311 65.3505 286.159 66.2976 284.397C66.7221 283.615 66.7874 282.766 67.2447 281.984C67.8978 280.907 68.9755 280.385 69.6613 279.406C70.8043 277.775 69.6613 276.308 68.8775 274.872C68.5836 274.318 69.2368 274.089 69.5633 273.861C70.4124 273.209 69.8246 272.23 69.5633 271.447C68.8449 269.588 69.0735 267.369 71.0656 266.326C70.6084 266.554 70.8043 269.131 70.8043 269.555C70.8696 271.936 71.8494 270.697 73.3516 271.023C73.8415 271.121 71.0982 273.209 71.0982 273.698C71.0656 276.144 72.7638 276.144 74.3966 276.405C73.7108 276.308 73.2863 277.906 73.2863 278.428C73.2863 279.57 73.2863 279.374 72.5025 279.961C71.3922 280.777 71.2289 281.853 71.4248 283.158C71.6861 284.854 72.7638 284.854 73.4496 286.094C73.9068 286.942 72.7311 287.464 73.7435 288.573C75.0824 289.976 74.462 291.052 75.1478 292.683C75.5397 293.597 75.8662 294.249 75.8336 295.293C75.8009 296.924 73.3843 297.609 73.123 299.338C72.8291 301.458 72.9597 303.937 71.6208 305.797C69.596 308.57 73.5476 309.907 72.5352 312.321C71.8494 313.952 72.8617 314.18 73.221 315.583C73.5149 316.757 72.8944 318.291 72.9271 319.53C72.9924 321.129 73.8415 322.499 73.9394 323.967C74.0701 325.956 72.6985 326.12 74.2007 327.946C74.9845 328.892 73.7762 329.74 73.5802 330.654C73.3516 331.665 74.7885 332.872 75.5723 333.296C76.748 333.949 75.2457 335.351 75.8989 336.46C76.5194 337.537 77.6297 337.472 77.793 338.809C78.0543 340.962 79.4586 342.561 79.5565 344.974C79.5565 345.431 78.8054 347.617 79.0993 347.878C80.5222 349.009 80.0602 349.134 80.2618 350.478C80.3167 350.845 80.5469 351.15 80.8104 351.411V351.411C80.9864 351.585 81.0905 351.822 81.0782 352.069C81.0441 352.754 80.7048 353.616 80.7322 354.271C80.7975 355.935 81.1567 357.533 81.2874 359.197C81.6139 363.046 81.7446 365.623 83.5081 369.081C84.1612 370.386 84.2265 371.887 84.8797 373.192C85.1736 373.746 86.088 376.551 86.6105 376.682C87.4923 376.91 87.5903 378.574 87.8189 379.357C87.9822 379.911 87.9495 380.955 88.6027 381.282C89.0599 381.51 90.0396 381.249 90.3988 381.64C90.0722 381.282 87.1331 382.815 89.8436 384.446C91.6398 385.522 91.2806 388.132 92.5542 389.665C93.1747 390.415 94.0891 389.893 94.2197 390.97C94.2524 391.361 93.9911 392.992 94.4483 393.221C95.0688 393.482 96.865 393.416 96.8976 394.362C96.8976 395.308 96.2772 395.863 96.9956 396.776C98.1202 398.245 99.1429 399.434 99.6142 401.287C99.7405 401.783 99.6363 402.298 99.4325 402.768V402.768C99.3101 403.051 99.2343 403.365 99.3076 403.664C99.4658 404.311 99.9115 404.919 100.229 405.421C101.078 406.693 101.176 407.9 101.796 409.27C102.351 410.51 103.037 411.195 102.972 412.663C102.907 414.261 103.005 415.697 103.201 417.295C103.396 418.991 103.299 420.851 103.658 422.514C103.854 423.395 104.997 423.656 105.291 424.504C105.715 425.679 104.801 426.951 106.107 427.636C106.662 427.929 107.021 429.397 107.185 429.919C107.838 432.105 108.524 434.388 109.471 436.476C109.895 437.422 110.353 438.335 111.136 439.02C111.92 439.738 113.357 439.477 113.88 440.293C115.088 442.119 116.459 443.587 117.929 445.186C118.615 445.936 118.484 447.404 118.974 448.317C119.627 449.524 119.889 450.242 120.803 451.319C121.685 452.395 121.13 453.765 122.044 454.776C122.991 455.82 123.056 456.962 123.187 458.332C123.285 459.409 124.167 459.833 124.297 460.811C124.461 461.79 124.036 463.29 124.591 464.171C125.081 464.954 125.473 466.585 126.387 467.009C127.302 467.466 126.649 469.293 127.204 469.521C127.53 469.652 127.792 468.966 128.118 468.966V468.966C128.263 468.966 129.974 471.434 130.062 471.549C130.763 472.463 131.467 473.514 130.894 473.403C129.718 473.207 129.392 471.25 128.118 471.25C126.943 471.25 128.02 474.055 128.347 474.708C129.751 477.546 129.947 480.253 130.568 483.385C130.861 484.755 131.906 485.44 132.2 486.614C132.592 488.115 131.449 489.55 132.919 490.692C134.095 491.605 134.127 492.975 134.65 494.28C135.336 496.042 137.491 496.531 138.667 497.934C139.548 499.01 140.561 500.935 142.226 500.609C143.826 500.283 143.173 501.718 143.892 502.86C145.786 505.828 148.464 504.491 150.554 506.839C153.46 510.167 154.995 507.394 157.216 505.437C159.273 503.642 161.919 502.533 164.531 501.881C166.393 501.424 166.523 496.89 166.295 495.389C166.164 494.443 166.099 492.878 166.458 491.997C166.785 491.116 169.169 489.257 170.116 489.518C172.304 490.137 172.99 489.289 174.884 488.767C176.255 488.408 177.627 488.637 178.966 488.311C179.684 488.115 182.003 488.18 182.33 487.495C182.526 487.071 183.538 486.712 182.983 486.19C182.33 485.538 181.938 484.885 181.154 484.266C177.954 481.721 180.599 479.209 182.526 476.893C183.505 475.719 184.55 474.382 185.824 473.533C186.346 473.175 184.256 471.968 185.334 470.598C186.249 469.488 187.196 468.705 188.665 469.26C190.559 469.978 191.572 470.043 193.596 469.749C194.609 469.619 197.221 469.325 197.777 468.281C198.103 467.662 197.417 467.466 197.091 467.172C196.503 466.65 196.666 465.443 196.634 464.758C196.634 463.519 197.025 461.725 196.568 460.583C196.013 459.278 195.687 457.582 196.013 456.212C196.438 454.581 196.438 453.08 195.654 451.547C195.066 450.405 193.923 448.774 195.229 447.796C197.058 446.393 194.641 445.708 194.903 444.338C195.197 442.968 195.752 441.663 196.176 440.325C196.764 438.466 196.797 438.107 198.364 436.835C198.789 436.509 201.696 433.964 201.696 433.344C201.696 432.301 199.442 431.387 199.442 430.474C199.442 429.952 202.512 429.038 203.034 428.517C203.982 427.603 204.341 425.711 205.125 424.569C206.235 423.004 205.712 421.177 205.582 419.285C205.451 417.491 204.765 416.055 203.165 415.175C202.577 414.848 200.748 414.163 201.042 413.217C201.793 410.869 205.81 416.675 204.439 412.369C203.786 410.314 203.034 408.226 202.12 406.302C201.565 405.127 199.997 403.333 201.14 401.996C202.251 400.658 203.328 400.528 203.002 398.766C202.479 395.896 200.944 393.416 200.357 390.513C199.703 387.316 200.455 385.359 202.381 382.978C203.034 382.195 204.014 380.009 204.112 378.998C204.177 378.346 205.876 377.53 206.333 377.269C207.345 376.649 208.227 376.519 209.37 376.323C211.591 375.932 211.362 377.856 212.799 378.737C214.726 379.911 216.979 375.442 217.73 374.268C218.318 373.387 218.579 372.115 219.722 371.789C220.016 371.724 220.767 367.711 220.963 367.091C221.388 365.623 223.903 366.341 224.686 367.091C226.058 368.396 227.332 368.494 229.291 367.776C230.859 367.222 232.426 366.276 234.026 365.623C236.084 364.808 237.162 364.156 238.86 362.785C239.807 362.035 239.219 358.806 239.088 357.762C238.958 356.914 238.076 356.359 237.945 355.446C237.717 353.782 239.186 354.174 240.166 353.521C241.015 352.967 241.93 352.51 242.779 351.955C243.693 351.336 244.248 350.259 245.163 349.77C246.991 348.824 249.016 348.987 250.845 347.845C252.641 346.736 255.58 344.844 255.711 342.495C255.874 339.69 256.266 338.124 258.879 336.721C261.23 335.449 264.071 334.927 266.227 333.427C268.578 331.763 269.656 328.664 271.452 326.511C272.301 325.467 273.019 324.325 274.162 323.575C275.077 322.955 276.187 322.303 276.057 320.998C275.795 318.323 278.604 318.356 279.388 315.909C279.91 314.278 282.164 313.691 283.437 312.517C283.796 312.19 284.548 312.093 284.743 311.897C284.907 311.734 286.017 309.091 285.789 309.026C286.54 309.255 286.932 309.972 287.813 309.94C288.597 309.94 289.218 309.287 289.969 309.091C291.275 308.765 292.091 307.493 293.365 306.939C296.435 305.634 300.615 304.916 302.836 302.241C305.056 299.599 309.139 297.544 308.192 293.401C307.996 292.52 309.792 291.476 310.282 290.889C311.425 289.552 311.621 287.529 311.425 285.833C311.196 283.908 309.465 283.549 308.551 282.016C307.8 280.711 309.661 278.885 310.543 278.036C311.882 276.732 314.331 277.449 315.474 276.112C316.389 275.035 318.838 275.362 320.21 275.133C321.32 274.937 322.691 275.068 322.985 273.763C323.312 272.23 323.345 272.23 324.912 271.675C325.859 271.349 324.978 268.381 326.023 268.381C326.97 268.381 326.61 271.382 326.97 272.034C327.133 272.36 330.17 271.382 330.693 271.382C332.489 271.382 333.011 270.697 333.926 269.196C334.742 267.826 339.412 271.414 340.588 268.544C341.731 265.738 341.502 263.39 339.804 260.91C339.347 260.258 338.857 258.366 338.824 257.551C338.726 256.18 338.53 255.854 337.747 254.419C337.028 253.114 338.008 251.679 337.779 250.309C337.453 248.188 336.995 247.96 338.204 246.068C339.118 244.665 337.681 242.969 336.342 242.578C334.775 242.088 334.579 242.773 334.742 240.588C334.873 238.696 334.35 237.619 332.783 236.575C331.117 235.434 330.986 234.161 332.293 232.693C333.599 231.258 333.403 230.41 333.305 228.648C333.24 227.311 333.828 225.582 333.37 224.31C332.456 221.765 327.819 224.179 326.153 222.777C324.749 221.602 321.744 217.133 325.043 216.709C326.937 216.448 327.394 214.915 327.557 213.219C327.753 211.294 328.374 211.751 329.615 210.935C331.28 209.826 337.061 211.294 336.277 207.477C335.852 205.455 336.048 204.998 333.991 204.444C332.391 203.987 333.403 201.899 331.868 201.312C330.791 200.888 328.798 202.65 328.08 201.443C327.296 200.138 326.055 199.681 325.271 198.507C324.782 197.789 323.9 197.756 323.149 197.495C321.679 196.974 323.181 194.755 323.247 194.038C323.377 191.95 325.271 191.787 326.316 190.254C327.133 189.112 328.211 192.276 328.602 192.831C329.354 193.875 331.019 195.277 332.227 194.299C333.077 193.614 332.293 191.787 333.109 191.363C334.481 190.645 336.636 193.124 337.453 193.907C338.465 194.886 339.216 194.886 340.327 195.538C341.959 196.484 343.429 195.538 344.801 194.429C346.695 192.929 346.009 195.995 345.552 196.778C344.605 198.409 345.388 199.453 346.662 200.333C346.891 200.497 345.552 204.248 345.421 205.064C345.16 206.825 346.499 207.38 347.968 207.836C349.177 208.228 351.071 208.75 352.312 208.848C354.043 208.945 355.088 209.011 356.786 209.598C359.431 210.511 360.542 207.738 362.926 208.391C365.244 209.043 365.897 208.358 368.053 207.934C369.816 207.608 371.547 208.619 373.441 208.358C375.531 208.065 376.772 209.108 378.895 208.13C380.181 207.524 381.736 207.242 383.041 207.766C383.818 208.077 383.769 209.083 383.266 209.752V209.752C383.18 209.868 383.109 209.993 383.088 210.136C382.987 210.848 383.696 211.264 383.696 211.979C383.696 212.664 383.271 212.958 383.043 213.545C382.716 214.295 383.01 215.241 382.781 216.024C382.585 216.709 381.606 216.97 380.985 217.068V217.068C378.917 217.341 377.707 220.178 376.05 221.445C374.924 222.306 373.885 223.444 372.69 223.918C369.784 225.06 368.934 228.811 368.673 231.65C368.347 235.434 372.004 238.076 371.449 241.534C371.351 242.088 371.057 246.329 372.494 245.611C373.964 244.894 374.094 245.97 375.205 244.306C374.029 246.068 378.013 247.634 379.287 246.851C380.005 246.427 381.442 245.742 381.899 245.089C382.389 244.404 381.9 242.969 381.932 242.121C381.932 240.881 381.671 239.348 382.291 238.206C382.749 237.358 383.5 236.738 383.598 235.76C383.696 234.944 383.5 234.194 383.957 233.444C385.263 231.16 384.904 233.509 385.818 234.031C387.81 235.205 387.059 235.792 387.125 237.913C387.157 239.413 388.66 239.903 389.313 241.11C389.835 242.088 388.954 244.339 388.529 245.285C387.713 247.047 389.247 247.732 390.227 248.906C391.762 250.765 391.011 251.418 391.076 253.44C391.076 254.288 391.86 254.647 391.86 255.495C391.86 256.344 391.501 257.126 391.566 257.942C391.664 259.214 392.807 260.519 392.938 262.02C393.101 263.846 392.415 264.792 393.885 266.13C393.923 266.165 393.96 266.199 393.996 266.231C395.536 267.576 397.706 265.939 399.73 266.228V266.228C401.559 266.554 401.396 263.912 401.755 262.9C402.18 261.759 403.225 260.813 403.715 259.703C404.596 257.746 403.094 256.865 403.257 255.267C403.617 252.168 402.506 249.591 401.984 246.59C401.755 245.285 401.429 243.589 403.355 243.393C405.576 243.165 405.609 242.088 406.164 240.033C406.687 238.174 404.988 237.391 405.086 235.76C405.217 234.031 406.687 233.509 406.262 231.454C405.935 229.79 404.956 227.768 405.837 226.104C406.98 223.951 408.581 226.822 409.854 226.724C410.507 226.691 410.605 225.973 411.193 225.876C411.944 225.745 412.728 226.234 413.479 226.3C414.786 226.43 416.582 226.104 417.202 224.767C417.725 223.625 416.876 222.614 417.072 221.472C417.268 220.33 417.594 217.72 418.182 216.742C418.607 215.991 419.554 215.959 420.011 215.274C420.533 214.491 420.207 213.578 420.403 212.729C420.795 211.066 422.362 210.087 422.656 208.293C422.917 206.662 422.885 204.998 423.081 203.335C423.211 202.389 420.631 201.834 420.468 200.594C420.337 199.387 422.95 197.398 423.766 196.68C424.975 195.571 425.171 193.842 426.085 192.504C427.098 191.037 426.706 188.916 427.228 187.285C427.947 185.1 427.326 183.305 426.64 181.12C426.216 179.782 425.007 177.629 426.64 176.553C427.751 175.835 429.155 176.325 430.265 175.411C431.441 174.465 432.127 173.062 432.78 171.725C433.629 169.963 434.445 169.017 435.915 167.745C437.189 166.636 437.483 164.875 438.756 163.765C439.867 162.819 440.977 162.95 442.087 162.037C443.034 161.254 443.818 162.037 444.928 161.482C446.953 160.438 447.443 159.981 448.749 161.776C449.794 163.178 450.807 163.765 452.538 163.896C454.497 164.059 454.53 163.994 454.628 162.069C454.726 159.59 450.774 158.709 450.121 156.002C449.566 153.751 450.742 153.914 452.211 152.968C453.419 152.185 454.268 150.587 455.281 149.575C456.587 148.303 457.012 147.749 455.967 146.183C455.673 145.726 454.889 145.498 454.726 144.976C454.53 144.226 455.803 143.345 455.412 142.66C455.216 142.301 453.093 142.138 452.538 141.877C451.297 141.322 450.121 141.061 448.913 141.877C447.541 142.79 446.104 140.572 444.863 140.181C443.59 139.789 441.597 141.257 440.389 141.616C438.495 142.17 439.769 140.213 440.324 139.626C441.336 138.582 442.479 137.506 443.198 136.233C443.72 135.353 444.145 133.983 442.642 133.787C441.238 133.591 441.499 131.764 441.369 130.623C441.238 129.579 438.593 129.644 438.56 130.884C438.56 131.634 438.919 131.797 438.136 132.221C437.678 132.482 436.568 132.515 436.666 131.699C436.862 130.003 437.221 129.97 438.626 128.6C439.867 127.361 439.442 125.664 437.776 125.501C436.209 125.338 436.797 125.501 435.915 124.359C434.282 122.272 433.335 122.892 431.702 124.196C430.298 125.338 428.894 126.512 427.653 127.85C426.902 128.665 426.706 131.21 425.497 131.373C423.44 131.634 422.917 131.014 421.154 130.199C419.913 129.611 418.868 130.394 417.496 129.611C416.582 129.089 414.622 128.698 414.524 127.556C414.361 125.403 412.598 128.502 412.271 128.926C411.291 130.166 409.887 130.557 408.679 131.503C407.83 132.188 408.091 133.95 407.372 134.863C406.229 136.299 405.184 137.375 404.433 139.006C403.976 139.985 401.429 139.887 400.58 140.05C399.796 140.213 399.665 141.224 398.979 141.127C397.738 140.963 396.367 140.278 395.191 141.127C394.407 141.681 393.917 143.606 393.395 144.454C392.97 145.172 394.179 146.64 393.297 147.227C392.383 147.846 390.782 147.618 389.77 148.14C388.986 148.532 387.908 149.608 387.419 150.326C386.831 151.174 385.427 151.435 385.296 152.446C385.165 153.392 386.635 154.664 385.851 155.415C385.067 156.165 384.12 156.915 383.173 157.47C382.455 157.894 381.704 156.817 380.887 156.915C379.026 157.111 375.891 158.024 374.454 159.362C373.245 160.471 371.09 155.871 369.588 157.796C369 158.546 369.914 160.308 369.653 161.384C369.392 162.428 370.437 163.374 370.371 164.451C370.339 165.266 375.597 165.625 376.544 165.886C377.589 166.147 378.993 166.995 378.307 168.3C377.458 169.898 377.85 170.779 377.752 172.475C377.589 175.248 374.16 172.41 372.886 174.791C372.461 175.607 370.404 174.889 369.653 175.411C368.118 176.455 367.04 176.064 365.277 176.096C361.946 176.161 359.627 179.032 356.329 176.651C354.01 174.987 352.736 175.215 350.32 176.944C349.797 177.336 349.144 178.053 348.426 177.956C347.805 177.858 346.433 177.368 345.976 178.086C345.454 178.902 346.401 180.369 344.572 179.652V179.652C343.488 179.201 342.76 178.265 341.59 178.16C341.304 178.135 341.035 178.067 340.816 177.89C340.49 177.597 340.784 177.205 340.196 176.814C338.694 175.737 336.897 178.641 336.571 178.51C335.591 178.086 334.35 176.39 333.273 175.803C332.162 175.15 331.542 174.008 330.889 172.932C330.333 171.986 332.456 170.714 331.901 169.409C331.64 168.756 331.019 168.495 330.464 168.169C329.876 167.843 330.235 167.06 329.68 166.636C329.288 166.343 331.15 163.537 331.117 162.787C330.986 160.895 331.117 160.503 330.072 158.872C328.374 156.197 326.447 156.1 324.488 158.35C323.312 159.72 323.214 159.394 321.483 159.492C320.993 159.492 318.936 159.655 318.675 160.079C317.989 161.254 318.152 162.102 318.903 163.015C320.34 164.711 319.034 165.038 318.25 166.473C317.434 167.941 317.336 169.181 317.14 170.812C316.976 172.182 316.095 173.193 315.964 174.563C315.801 176.161 317.532 178.021 318.348 179.293C319.262 180.696 319.458 183.468 319.099 185.067C319.066 185.23 319.066 188.035 318.185 187.187C317.368 186.404 316.16 186.665 315.213 186.992C312.96 187.742 310.543 187.97 308.192 187.905C306.199 187.84 304.958 185.882 303.032 185.589C301.758 185.393 301.04 186.665 299.962 187.089C298.59 187.644 296.598 187.285 295.357 186.535C294.345 185.915 293.92 184.121 292.483 184.317C291.7 184.414 291.471 185.165 290.654 185.067C289.805 184.969 289.218 184.186 288.401 183.925C286.997 183.468 286.246 185.034 285.005 183.697C284.058 182.686 284.058 181.316 282.49 180.989C280.988 180.663 280.596 182.294 279.322 182.392C277.624 182.555 277.265 182.001 275.991 180.891C274.848 179.88 269.525 179.456 269.296 178.119C269.003 176.227 269.166 175.15 268.023 173.421C266.88 171.692 265.737 172.704 263.875 172.508C262.732 172.377 262.765 170.975 261.981 170.453C261.361 170.029 259.238 169.8 258.454 169.996C256.821 170.388 255.417 171.301 254.013 172.182C254.274 171.986 251.531 171.105 251.302 171.105C250.518 171.138 249.473 171.334 249.049 172.084C248.886 172.377 248.853 173.193 248.559 173.389C248.722 173.291 246.175 172.214 245.75 172.182C244.673 172.084 242.55 172.312 241.603 171.953C240.689 171.594 241.538 169.898 241.276 169.213C240.656 167.647 238.337 167.778 236.998 168.169C236.116 168.43 234.973 169.8 234.157 168.463C233.504 167.354 231.642 166.408 230.467 165.984C229.095 165.462 228.213 164.907 226.744 165.69C224.425 166.93 224.817 164.646 223.151 163.994C221.747 163.439 220.18 163.602 219.82 161.776C219.69 161.156 219.69 160.34 219.167 159.884V159.884C218.538 159.328 217.143 160.262 216.551 159.666C215.102 158.208 214.421 156.087 211.885 155.839C209.011 155.545 207.247 155.382 205.778 152.772C204.112 149.836 204.243 152.642 202.904 153.131C202.055 153.457 198.136 150.619 197.515 150.032C196.503 149.086 196.666 148.075 197.94 147.716C199.442 147.259 198.887 146.346 199.018 145.172C199.148 144.062 200.259 143.638 200.389 142.399C200.552 140.996 199.54 139.854 200.324 138.452C201.042 137.179 201.761 137.016 201.924 135.385C201.989 134.7 202.153 133.983 202.708 133.526C203.622 132.808 204.112 132.123 204.7 131.177C205.418 130.003 207.051 130.329 207.704 129.024C208.423 127.589 211.427 124.947 209.337 123.903C207.933 123.218 207.933 121.88 207.051 120.771C205.843 119.271 205.288 120.314 203.688 120.184C202.218 120.053 202.643 118.455 201.14 119.238C199.997 119.825 199.834 118.031 199.703 117.248C199.377 115.519 197.548 112.616 195.327 113.007C194.086 113.236 193.662 111.8 192.551 111.507C191.637 111.278 190.69 111.246 189.776 111.181C188.012 111.05 185.791 110.691 185.595 108.538C185.367 106.385 184.648 103.743 182.199 103.091C180.24 102.601 178.835 106.548 179.031 106.614C178.084 106.287 177.823 105.472 177.66 104.591C177.529 103.874 176.713 103.613 176.647 102.928C176.517 101.492 179.75 100.775 177.888 99.0457C176.092 97.382 177.66 95.49 177.398 93.5653C177.3 92.8477 176.092 92.2279 175.7 91.5755C174.982 90.3359 175.439 90.5316 175.863 89.7161C176.092 89.292 173.479 88.9984 173.447 88.607C173.316 87.4 173.512 86.0625 173.447 84.8229C173.381 83.6486 173.741 81.5282 175.374 82.409C177.268 83.4202 176.615 84.1379 177.366 86.1278C177.823 87.2695 179.39 88.9984 180.795 88.4765C182.95 87.661 181.807 87.5305 182.036 85.8342C182.166 84.7903 184.126 85.2796 184.485 84.2031C184.779 83.2898 187.196 83.7791 187.979 83.355C190.135 82.1807 190.951 80.8432 189.678 78.4619C188.404 76.1132 184.648 75.4281 186.608 72.1987C188.306 69.3933 183.897 68.2842 181.676 68.382C179.619 68.4799 179.423 68.0232 179.652 65.7397C179.75 64.9242 179.75 64.0108 180.109 63.2605C180.566 62.3145 181.742 61.9883 182.199 61.1402C182.33 60.8792 181.481 59.4439 181.415 59.1829C181.089 57.9433 180.174 59.2156 179.39 58.4653C178.639 57.715 178.672 57.2583 179.358 56.3449C180.729 54.5834 182.232 55.9861 184.06 56.7037C184.714 56.9647 187.228 58.1064 187.294 56.5406C187.359 55.2684 188.698 55.1053 189.122 53.8984C189.612 52.5609 189.743 51.1582 190.069 49.7881C190.233 49.0378 192.486 48.7116 193.009 48.5811C194.903 48.0918 192.813 46.3629 194.021 45.4822C195.066 44.7319 196.307 45.4822 197.221 44.7319C198.626 43.5249 198.168 42.9377 198.071 41.3393C198.005 39.9366 199.018 38.5339 199.181 37.1312C199.377 35.7938 200.912 35.1413 201.402 33.967C201.793 32.9884 201.761 30.5092 201.402 29.4979C200.944 28.0952 198.658 27.3449 197.679 26.4968C195.85 24.931 195.948 24.1155 193.27 24.0176C191.964 23.9524 189.841 23.2347 188.926 22.2887C188.273 21.6363 188.012 20.0705 186.836 20.6577C185.269 21.4406 184.06 22.6802 182.297 23.1369C181.448 23.3652 178.117 22.093 177.954 22.7128C177.17 25.5834 172.467 23.4631 170.312 24.7353C169.071 25.4529 169.201 27.2471 167.928 27.9647C166.752 28.6172 164.009 29.4001 162.735 29.4001C162.082 29.4001 161.657 29.7589 161.266 30.183C160.939 30.5744 159.927 30.2482 159.535 30.2482C158 30.183 158.359 28.6498 157.934 27.4754C156.824 24.3112 154.701 24.0829 151.697 24.4417C148.105 24.8984 147.811 22.4518 146.994 19.3855C146.602 17.9828 146.178 17.6892 144.806 17.1346C143.271 16.5148 143.173 14.3292 141.606 14.0356C139.94 13.742 138.667 13.5137 137.132 12.7308C135.499 11.9153 136.054 10.48 134.846 9.53395C132.854 7.93553 131.711 6.98952 130.47 4.73868C129.751 3.3686 129.718 3.85792 128.477 3.17288C127.498 2.65094 128.477 1.0199 127.334 0.661069C125.506 0.0738936 125.963 0.922037 124.363 1.47659C123.448 1.8028 122.207 0.334861 121.881 1.54183C121.489 2.87929 119.595 1.90066 119.203 1.21562C118.615 0.269619 117.831 -0.545903 116.917 0.465344C116.362 1.08514 115.741 2.19425 114.729 2.03115C113.128 1.73756 113.357 0.367482 111.659 1.57445C110.842 2.16163 108.818 2.61832 108.393 3.3686C107.609 4.73868 105.878 3.10764 104.866 3.00977C102.939 2.81405 104.768 5.48896 102.809 6.07614C101.633 6.43497 100.882 5.68469 99.8695 5.29323C98.0407 4.6082 96.4404 6.30448 94.6443 5.74993C92.097 4.9344 93.6319 9.79492 91.3459 9.59919C90.4315 9.53395 89.5171 10.4473 89.7457 11.3933C90.3008 13.5137 88.3414 12.3393 87.1984 13.4811C85.9901 14.688 85.6961 14.3945 84.2592 14.949C83.2468 15.3405 83.9326 18.2437 84.3898 18.8961C85.5655 20.625 83.6387 23.7567 87.2637 23.3326C88.7333 23.1695 90.758 22.9738 92.2276 23.3326C92.6848 23.4304 93.2074 24.0176 93.4686 24.3765C94.2524 25.5182 95.3954 26.138 96.1465 27.1818C96.6037 27.8016 96.963 28.6824 97.4528 29.237C98.9877 30.9659 99.4449 28.8129 100.588 28.4541C100.817 28.3888 101.339 32.76 101.894 33.1188C102.678 33.6082 103.331 34.5542 104.017 35.2392C104.703 35.9242 106.172 35.4675 106.989 35.9569C107.707 36.4136 107.381 37.6205 106.76 37.9467C105.617 38.5339 105.715 38.958 105.062 39.8714C103.952 41.4698 101.176 40.2954 100.229 42.3179C99.9495 42.9222 97.7968 44.2884 96.5939 45.0593C96.0438 45.4119 95.8444 45.9408 96.1336 46.5268C96.3295 46.9239 96.516 47.339 96.4404 47.9613C96.3098 48.9074 95.8526 50.0817 96.5058 50.9298C97.3549 52.1042 98.106 51.6149 97.6161 53.3438C97.2242 54.6813 95.8853 54.2898 96.2772 55.9208C96.6364 57.454 97.9427 57.3888 98.0407 58.7915C98.1713 60.4551 97.9753 62.1188 99.1837 63.4563C98.2693 62.445 97.9753 66.9467 97.9753 67.3708C97.91 69.4585 96.1139 71.3505 98.0733 73.2425C100.751 75.8522 104.18 74.9714 106.956 76.9613C107.903 77.6464 108.752 79.832 109.993 79.7015C110.483 79.6688 113.455 79.3426 113.847 79.8319C114.043 80.0929 113.194 82.148 113.488 82.8331C113.814 83.7138 114.99 84.6598 115.904 84.8556C117.047 85.1165 118.517 85.247 119.693 85.247C120.658 85.247 120.465 86.2559 121.494 86.2926C121.573 86.2955 121.627 86.2167 121.602 86.1415V86.1415Z"/>
</mask>
<path d="M121.602 86.1415C121.578 86.0679 121.63 85.9904 121.708 85.9879C124.499 85.897 124.636 90.3067 121.685 90.499C120.836 90.5642 119.039 89.7813 118.386 90.2054C117.047 91.0862 116.525 92.5541 114.827 92.9455C112.704 93.4022 112.704 94.2504 111.398 95.8162C110.124 97.3167 110.059 97.3494 111.332 99.0457C112.018 99.9917 112.312 102.047 112.377 103.221C112.443 105.015 109.863 105.244 110.875 107.494C111.626 109.191 111.169 108.506 109.667 109.289C108.197 110.071 108.132 112.094 107.348 113.334C105.748 115.845 102.123 117.02 101.372 120.086C101.078 121.293 102.319 123.479 101.143 124.359C100 125.24 98.6938 126.088 97.2895 126.512C95.9832 126.904 94.2197 126.806 93.2074 127.883C91.6398 129.546 91.9011 132.221 91.1826 134.244C90.5294 136.103 89.6477 136.821 88.5047 138.354C87.2637 139.985 86.5452 141.975 85.2063 143.541C84.5531 144.291 83.1488 146.509 82.2998 146.933C80.8302 147.618 78.6748 145.726 77.4664 147.553C76.4867 149.086 76.0295 150.065 74.6252 151.37C73.2536 152.642 73.4822 154.599 72.4699 156.067C71.5228 157.437 69.8246 157.731 68.5836 158.709C67.1467 159.818 67.7345 161.286 67.0487 162.656C66.069 164.614 60.7785 163.146 58.9497 163.472C57.3821 163.765 54.9328 163.635 53.5612 164.451C52.7447 164.94 50.5893 166.832 50.0015 165.755C49.2177 164.255 49.3157 163.211 49.577 161.612C49.7729 160.373 50.2954 159.264 48.6299 159.362C43.9272 159.623 40.8901 161.123 37.9835 164.875C36.3833 166.962 35.8608 168.789 33.4442 170.192C31.4847 171.334 29.2967 172.247 27.8924 174.139C25.9983 176.716 26.7167 184.806 30.6683 185.328C32.7584 185.589 34.0647 187.22 36.3507 187.057C38.898 186.894 37.4284 189.503 36.5793 190.939C35.4689 192.863 34.5219 194.592 35.3056 196.843C36.0568 199.029 37.2977 201.312 38.9306 202.976C40.0736 204.15 41.4452 203.922 42.9475 203.693C46.0499 203.237 43.666 205.39 44.1885 207.412C45.4948 212.175 51.3078 219.645 48.3033 224.636C47.6828 225.68 47.0623 225.223 46.8011 226.724C46.6051 227.768 45.756 226.724 45.0376 226.919C45.1682 226.887 44.9069 222.711 43.372 222.809C41.1513 222.907 39.3552 224.473 37.1671 224.734C36.3833 224.832 35.0444 224.277 34.4565 225.027V225.027C33.6203 226.176 32.5108 227.698 31.1072 227.478C30.6203 227.402 30.1431 227.292 29.6885 227.115C28.1863 226.528 27.6638 224.636 26.1289 224.049C24.5287 223.429 23.6143 224.93 22.2426 225.354C20.6424 225.843 17.8339 224.375 16.2337 224.016C15.0253 223.723 13.5558 222.842 12.3148 223.299C11.1064 223.755 10.5186 225.876 10.8778 226.985C11.2371 228.094 10.7472 229.986 9.24497 229.399C8.55916 229.138 7.87335 229.399 7.15489 229.301C6.20782 229.138 5.75062 228.192 4.80355 227.996C1.37451 227.246 1.99501 232.628 1.50514 234.129C1.11325 235.336 -1.04214 236.021 0.623391 237.423C1.0806 237.782 1.73375 238.696 2.32158 238.826C2.87676 238.957 3.33396 238.239 3.79117 238.826C5.2281 240.555 7.4488 241.795 8.00398 244.045C8.62447 246.59 11.629 248.906 13.817 250.113C16.5276 251.614 19.3035 253.277 22.2426 254.223C23.7775 254.712 25.4104 254.386 26.978 254.452C29.1987 254.549 27.2066 251.581 29.6885 252.494C31.0602 253.016 33.1502 253.049 34.2933 252.005C35.1423 251.255 36.0241 250.602 37.1998 251.45C37.6896 251.777 34.8158 254.191 34.5872 254.354C33.0196 255.691 31.4521 254.843 29.7865 255.822C28.4802 256.572 26.6841 256.702 25.5737 257.551C24.1041 258.692 22.9285 256.931 21.5568 257.779C20.9363 258.138 18.9769 259.443 18.487 258.464C17.7359 257.061 17.7686 256.017 15.9071 255.985C13.1639 255.919 11.4983 258.333 11.7596 260.878C12.0862 264.303 15.7111 267.174 17.8992 269.49C20.2832 272.067 22.6998 274.383 24.8879 277.123C27.2066 279.994 28.7741 283.386 31.4847 286.029C32.791 287.301 34.6525 287.594 35.4363 289.323C36.2854 291.28 38.2775 290.987 40.0083 291.705C41.4779 292.324 42.5556 294.249 44.3844 293.075C44.9069 292.716 45.6907 291.802 46.4418 291.9C47.5848 292.063 48.1727 292.259 49.3484 291.835C50.72 291.346 53.104 291.378 54.2143 290.432C55.7819 289.062 56.7289 288.703 58.6884 288.41C60.3213 288.182 60.9091 287.823 61.7909 286.616C62.7706 285.311 65.3505 286.159 66.2976 284.397C66.7221 283.615 66.7874 282.766 67.2447 281.984C67.8978 280.907 68.9755 280.385 69.6613 279.406C70.8043 277.775 69.6613 276.308 68.8775 274.872C68.5836 274.318 69.2368 274.089 69.5633 273.861C70.4124 273.209 69.8246 272.23 69.5633 271.447C68.8449 269.588 69.0735 267.369 71.0656 266.326C70.6084 266.554 70.8043 269.131 70.8043 269.555C70.8696 271.936 71.8494 270.697 73.3516 271.023C73.8415 271.121 71.0982 273.209 71.0982 273.698C71.0656 276.144 72.7638 276.144 74.3966 276.405C73.7108 276.308 73.2863 277.906 73.2863 278.428C73.2863 279.57 73.2863 279.374 72.5025 279.961C71.3922 280.777 71.2289 281.853 71.4248 283.158C71.6861 284.854 72.7638 284.854 73.4496 286.094C73.9068 286.942 72.7311 287.464 73.7435 288.573C75.0824 289.976 74.462 291.052 75.1478 292.683C75.5397 293.597 75.8662 294.249 75.8336 295.293C75.8009 296.924 73.3843 297.609 73.123 299.338C72.8291 301.458 72.9597 303.937 71.6208 305.797C69.596 308.57 73.5476 309.907 72.5352 312.321C71.8494 313.952 72.8617 314.18 73.221 315.583C73.5149 316.757 72.8944 318.291 72.9271 319.53C72.9924 321.129 73.8415 322.499 73.9394 323.967C74.0701 325.956 72.6985 326.12 74.2007 327.946C74.9845 328.892 73.7762 329.74 73.5802 330.654C73.3516 331.665 74.7885 332.872 75.5723 333.296C76.748 333.949 75.2457 335.351 75.8989 336.46C76.5194 337.537 77.6297 337.472 77.793 338.809C78.0543 340.962 79.4586 342.561 79.5565 344.974C79.5565 345.431 78.8054 347.617 79.0993 347.878C80.5222 349.009 80.0602 349.134 80.2618 350.478C80.3167 350.845 80.5469 351.15 80.8104 351.411V351.411C80.9864 351.585 81.0905 351.822 81.0782 352.069C81.0441 352.754 80.7048 353.616 80.7322 354.271C80.7975 355.935 81.1567 357.533 81.2874 359.197C81.6139 363.046 81.7446 365.623 83.5081 369.081C84.1612 370.386 84.2265 371.887 84.8797 373.192C85.1736 373.746 86.088 376.551 86.6105 376.682C87.4923 376.91 87.5903 378.574 87.8189 379.357C87.9822 379.911 87.9495 380.955 88.6027 381.282C89.0599 381.51 90.0396 381.249 90.3988 381.64C90.0722 381.282 87.1331 382.815 89.8436 384.446C91.6398 385.522 91.2806 388.132 92.5542 389.665C93.1747 390.415 94.0891 389.893 94.2197 390.97C94.2524 391.361 93.9911 392.992 94.4483 393.221C95.0688 393.482 96.865 393.416 96.8976 394.362C96.8976 395.308 96.2772 395.863 96.9956 396.776C98.1202 398.245 99.1429 399.434 99.6142 401.287C99.7405 401.783 99.6363 402.298 99.4325 402.768V402.768C99.3101 403.051 99.2343 403.365 99.3076 403.664C99.4658 404.311 99.9115 404.919 100.229 405.421C101.078 406.693 101.176 407.9 101.796 409.27C102.351 410.51 103.037 411.195 102.972 412.663C102.907 414.261 103.005 415.697 103.201 417.295C103.396 418.991 103.299 420.851 103.658 422.514C103.854 423.395 104.997 423.656 105.291 424.504C105.715 425.679 104.801 426.951 106.107 427.636C106.662 427.929 107.021 429.397 107.185 429.919C107.838 432.105 108.524 434.388 109.471 436.476C109.895 437.422 110.353 438.335 111.136 439.02C111.92 439.738 113.357 439.477 113.88 440.293C115.088 442.119 116.459 443.587 117.929 445.186C118.615 445.936 118.484 447.404 118.974 448.317C119.627 449.524 119.889 450.242 120.803 451.319C121.685 452.395 121.13 453.765 122.044 454.776C122.991 455.82 123.056 456.962 123.187 458.332C123.285 459.409 124.167 459.833 124.297 460.811C124.461 461.79 124.036 463.29 124.591 464.171C125.081 464.954 125.473 466.585 126.387 467.009C127.302 467.466 126.649 469.293 127.204 469.521C127.53 469.652 127.792 468.966 128.118 468.966V468.966C128.263 468.966 129.974 471.434 130.062 471.549C130.763 472.463 131.467 473.514 130.894 473.403C129.718 473.207 129.392 471.25 128.118 471.25C126.943 471.25 128.02 474.055 128.347 474.708C129.751 477.546 129.947 480.253 130.568 483.385C130.861 484.755 131.906 485.44 132.2 486.614C132.592 488.115 131.449 489.55 132.919 490.692C134.095 491.605 134.127 492.975 134.65 494.28C135.336 496.042 137.491 496.531 138.667 497.934C139.548 499.01 140.561 500.935 142.226 500.609C143.826 500.283 143.173 501.718 143.892 502.86C145.786 505.828 148.464 504.491 150.554 506.839C153.46 510.167 154.995 507.394 157.216 505.437C159.273 503.642 161.919 502.533 164.531 501.881C166.393 501.424 166.523 496.89 166.295 495.389C166.164 494.443 166.099 492.878 166.458 491.997C166.785 491.116 169.169 489.257 170.116 489.518C172.304 490.137 172.99 489.289 174.884 488.767C176.255 488.408 177.627 488.637 178.966 488.311C179.684 488.115 182.003 488.18 182.33 487.495C182.526 487.071 183.538 486.712 182.983 486.19C182.33 485.538 181.938 484.885 181.154 484.266C177.954 481.721 180.599 479.209 182.526 476.893C183.505 475.719 184.55 474.382 185.824 473.533C186.346 473.175 184.256 471.968 185.334 470.598C186.249 469.488 187.196 468.705 188.665 469.26C190.559 469.978 191.572 470.043 193.596 469.749C194.609 469.619 197.221 469.325 197.777 468.281C198.103 467.662 197.417 467.466 197.091 467.172C196.503 466.65 196.666 465.443 196.634 464.758C196.634 463.519 197.025 461.725 196.568 460.583C196.013 459.278 195.687 457.582 196.013 456.212C196.438 454.581 196.438 453.08 195.654 451.547C195.066 450.405 193.923 448.774 195.229 447.796C197.058 446.393 194.641 445.708 194.903 444.338C195.197 442.968 195.752 441.663 196.176 440.325C196.764 438.466 196.797 438.107 198.364 436.835C198.789 436.509 201.696 433.964 201.696 433.344C201.696 432.301 199.442 431.387 199.442 430.474C199.442 429.952 202.512 429.038 203.034 428.517C203.982 427.603 204.341 425.711 205.125 424.569C206.235 423.004 205.712 421.177 205.582 419.285C205.451 417.491 204.765 416.055 203.165 415.175C202.577 414.848 200.748 414.163 201.042 413.217C201.793 410.869 205.81 416.675 204.439 412.369C203.786 410.314 203.034 408.226 202.12 406.302C201.565 405.127 199.997 403.333 201.14 401.996C202.251 400.658 203.328 400.528 203.002 398.766C202.479 395.896 200.944 393.416 200.357 390.513C199.703 387.316 200.455 385.359 202.381 382.978C203.034 382.195 204.014 380.009 204.112 378.998C204.177 378.346 205.876 377.53 206.333 377.269C207.345 376.649 208.227 376.519 209.37 376.323C211.591 375.932 211.362 377.856 212.799 378.737C214.726 379.911 216.979 375.442 217.73 374.268C218.318 373.387 218.579 372.115 219.722 371.789C220.016 371.724 220.767 367.711 220.963 367.091C221.388 365.623 223.903 366.341 224.686 367.091C226.058 368.396 227.332 368.494 229.291 367.776C230.859 367.222 232.426 366.276 234.026 365.623C236.084 364.808 237.162 364.156 238.86 362.785C239.807 362.035 239.219 358.806 239.088 357.762C238.958 356.914 238.076 356.359 237.945 355.446C237.717 353.782 239.186 354.174 240.166 353.521C241.015 352.967 241.93 352.51 242.779 351.955C243.693 351.336 244.248 350.259 245.163 349.77C246.991 348.824 249.016 348.987 250.845 347.845C252.641 346.736 255.58 344.844 255.711 342.495C255.874 339.69 256.266 338.124 258.879 336.721C261.23 335.449 264.071 334.927 266.227 333.427C268.578 331.763 269.656 328.664 271.452 326.511C272.301 325.467 273.019 324.325 274.162 323.575C275.077 322.955 276.187 322.303 276.057 320.998C275.795 318.323 278.604 318.356 279.388 315.909C279.91 314.278 282.164 313.691 283.437 312.517C283.796 312.19 284.548 312.093 284.743 311.897C284.907 311.734 286.017 309.091 285.789 309.026C286.54 309.255 286.932 309.972 287.813 309.94C288.597 309.94 289.218 309.287 289.969 309.091C291.275 308.765 292.091 307.493 293.365 306.939C296.435 305.634 300.615 304.916 302.836 302.241C305.056 299.599 309.139 297.544 308.192 293.401C307.996 292.52 309.792 291.476 310.282 290.889C311.425 289.552 311.621 287.529 311.425 285.833C311.196 283.908 309.465 283.549 308.551 282.016C307.8 280.711 309.661 278.885 310.543 278.036C311.882 276.732 314.331 277.449 315.474 276.112C316.389 275.035 318.838 275.362 320.21 275.133C321.32 274.937 322.691 275.068 322.985 273.763C323.312 272.23 323.345 272.23 324.912 271.675C325.859 271.349 324.978 268.381 326.023 268.381C326.97 268.381 326.61 271.382 326.97 272.034C327.133 272.36 330.17 271.382 330.693 271.382C332.489 271.382 333.011 270.697 333.926 269.196C334.742 267.826 339.412 271.414 340.588 268.544C341.731 265.738 341.502 263.39 339.804 260.91C339.347 260.258 338.857 258.366 338.824 257.551C338.726 256.18 338.53 255.854 337.747 254.419C337.028 253.114 338.008 251.679 337.779 250.309C337.453 248.188 336.995 247.96 338.204 246.068C339.118 244.665 337.681 242.969 336.342 242.578C334.775 242.088 334.579 242.773 334.742 240.588C334.873 238.696 334.35 237.619 332.783 236.575C331.117 235.434 330.986 234.161 332.293 232.693C333.599 231.258 333.403 230.41 333.305 228.648C333.24 227.311 333.828 225.582 333.37 224.31C332.456 221.765 327.819 224.179 326.153 222.777C324.749 221.602 321.744 217.133 325.043 216.709C326.937 216.448 327.394 214.915 327.557 213.219C327.753 211.294 328.374 211.751 329.615 210.935C331.28 209.826 337.061 211.294 336.277 207.477C335.852 205.455 336.048 204.998 333.991 204.444C332.391 203.987 333.403 201.899 331.868 201.312C330.791 200.888 328.798 202.65 328.08 201.443C327.296 200.138 326.055 199.681 325.271 198.507C324.782 197.789 323.9 197.756 323.149 197.495C321.679 196.974 323.181 194.755 323.247 194.038C323.377 191.95 325.271 191.787 326.316 190.254C327.133 189.112 328.211 192.276 328.602 192.831C329.354 193.875 331.019 195.277 332.227 194.299C333.077 193.614 332.293 191.787 333.109 191.363C334.481 190.645 336.636 193.124 337.453 193.907C338.465 194.886 339.216 194.886 340.327 195.538C341.959 196.484 343.429 195.538 344.801 194.429C346.695 192.929 346.009 195.995 345.552 196.778C344.605 198.409 345.388 199.453 346.662 200.333C346.891 200.497 345.552 204.248 345.421 205.064C345.16 206.825 346.499 207.38 347.968 207.836C349.177 208.228 351.071 208.75 352.312 208.848C354.043 208.945 355.088 209.011 356.786 209.598C359.431 210.511 360.542 207.738 362.926 208.391C365.244 209.043 365.897 208.358 368.053 207.934C369.816 207.608 371.547 208.619 373.441 208.358C375.531 208.065 376.772 209.108 378.895 208.13C380.181 207.524 381.736 207.242 383.041 207.766C383.818 208.077 383.769 209.083 383.266 209.752V209.752C383.18 209.868 383.109 209.993 383.088 210.136C382.987 210.848 383.696 211.264 383.696 211.979C383.696 212.664 383.271 212.958 383.043 213.545C382.716 214.295 383.01 215.241 382.781 216.024C382.585 216.709 381.606 216.97 380.985 217.068V217.068C378.917 217.341 377.707 220.178 376.05 221.445C374.924 222.306 373.885 223.444 372.69 223.918C369.784 225.06 368.934 228.811 368.673 231.65C368.347 235.434 372.004 238.076 371.449 241.534C371.351 242.088 371.057 246.329 372.494 245.611C373.964 244.894 374.094 245.97 375.205 244.306C374.029 246.068 378.013 247.634 379.287 246.851C380.005 246.427 381.442 245.742 381.899 245.089C382.389 244.404 381.9 242.969 381.932 242.121C381.932 240.881 381.671 239.348 382.291 238.206C382.749 237.358 383.5 236.738 383.598 235.76C383.696 234.944 383.5 234.194 383.957 233.444C385.263 231.16 384.904 233.509 385.818 234.031C387.81 235.205 387.059 235.792 387.125 237.913C387.157 239.413 388.66 239.903 389.313 241.11C389.835 242.088 388.954 244.339 388.529 245.285C387.713 247.047 389.247 247.732 390.227 248.906C391.762 250.765 391.011 251.418 391.076 253.44C391.076 254.288 391.86 254.647 391.86 255.495C391.86 256.344 391.501 257.126 391.566 257.942C391.664 259.214 392.807 260.519 392.938 262.02C393.101 263.846 392.415 264.792 393.885 266.13C393.923 266.165 393.96 266.199 393.996 266.231C395.536 267.576 397.706 265.939 399.73 266.228V266.228C401.559 266.554 401.396 263.912 401.755 262.9C402.18 261.759 403.225 260.813 403.715 259.703C404.596 257.746 403.094 256.865 403.257 255.267C403.617 252.168 402.506 249.591 401.984 246.59C401.755 245.285 401.429 243.589 403.355 243.393C405.576 243.165 405.609 242.088 406.164 240.033C406.687 238.174 404.988 237.391 405.086 235.76C405.217 234.031 406.687 233.509 406.262 231.454C405.935 229.79 404.956 227.768 405.837 226.104C406.98 223.951 408.581 226.822 409.854 226.724C410.507 226.691 410.605 225.973 411.193 225.876C411.944 225.745 412.728 226.234 413.479 226.3C414.786 226.43 416.582 226.104 417.202 224.767C417.725 223.625 416.876 222.614 417.072 221.472C417.268 220.33 417.594 217.72 418.182 216.742C418.607 215.991 419.554 215.959 420.011 215.274C420.533 214.491 420.207 213.578 420.403 212.729C420.795 211.066 422.362 210.087 422.656 208.293C422.917 206.662 422.885 204.998 423.081 203.335C423.211 202.389 420.631 201.834 420.468 200.594C420.337 199.387 422.95 197.398 423.766 196.68C424.975 195.571 425.171 193.842 426.085 192.504C427.098 191.037 426.706 188.916 427.228 187.285C427.947 185.1 427.326 183.305 426.64 181.12C426.216 179.782 425.007 177.629 426.64 176.553C427.751 175.835 429.155 176.325 430.265 175.411C431.441 174.465 432.127 173.062 432.78 171.725C433.629 169.963 434.445 169.017 435.915 167.745C437.189 166.636 437.483 164.875 438.756 163.765C439.867 162.819 440.977 162.95 442.087 162.037C443.034 161.254 443.818 162.037 444.928 161.482C446.953 160.438 447.443 159.981 448.749 161.776C449.794 163.178 450.807 163.765 452.538 163.896C454.497 164.059 454.53 163.994 454.628 162.069C454.726 159.59 450.774 158.709 450.121 156.002C449.566 153.751 450.742 153.914 452.211 152.968C453.419 152.185 454.268 150.587 455.281 149.575C456.587 148.303 457.012 147.749 455.967 146.183C455.673 145.726 454.889 145.498 454.726 144.976C454.53 144.226 455.803 143.345 455.412 142.66C455.216 142.301 453.093 142.138 452.538 141.877C451.297 141.322 450.121 141.061 448.913 141.877C447.541 142.79 446.104 140.572 444.863 140.181C443.59 139.789 441.597 141.257 440.389 141.616C438.495 142.17 439.769 140.213 440.324 139.626C441.336 138.582 442.479 137.506 443.198 136.233C443.72 135.353 444.145 133.983 442.642 133.787C441.238 133.591 441.499 131.764 441.369 130.623C441.238 129.579 438.593 129.644 438.56 130.884C438.56 131.634 438.919 131.797 438.136 132.221C437.678 132.482 436.568 132.515 436.666 131.699C436.862 130.003 437.221 129.97 438.626 128.6C439.867 127.361 439.442 125.664 437.776 125.501C436.209 125.338 436.797 125.501 435.915 124.359C434.282 122.272 433.335 122.892 431.702 124.196C430.298 125.338 428.894 126.512 427.653 127.85C426.902 128.665 426.706 131.21 425.497 131.373C423.44 131.634 422.917 131.014 421.154 130.199C419.913 129.611 418.868 130.394 417.496 129.611C416.582 129.089 414.622 128.698 414.524 127.556C414.361 125.403 412.598 128.502 412.271 128.926C411.291 130.166 409.887 130.557 408.679 131.503C407.83 132.188 408.091 133.95 407.372 134.863C406.229 136.299 405.184 137.375 404.433 139.006C403.976 139.985 401.429 139.887 400.58 140.05C399.796 140.213 399.665 141.224 398.979 141.127C397.738 140.963 396.367 140.278 395.191 141.127C394.407 141.681 393.917 143.606 393.395 144.454C392.97 145.172 394.179 146.64 393.297 147.227C392.383 147.846 390.782 147.618 389.77 148.14C388.986 148.532 387.908 149.608 387.419 150.326C386.831 151.174 385.427 151.435 385.296 152.446C385.165 153.392 386.635 154.664 385.851 155.415C385.067 156.165 384.12 156.915 383.173 157.47C382.455 157.894 381.704 156.817 380.887 156.915C379.026 157.111 375.891 158.024 374.454 159.362C373.245 160.471 371.09 155.871 369.588 157.796C369 158.546 369.914 160.308 369.653 161.384C369.392 162.428 370.437 163.374 370.371 164.451C370.339 165.266 375.597 165.625 376.544 165.886C377.589 166.147 378.993 166.995 378.307 168.3C377.458 169.898 377.85 170.779 377.752 172.475C377.589 175.248 374.16 172.41 372.886 174.791C372.461 175.607 370.404 174.889 369.653 175.411C368.118 176.455 367.04 176.064 365.277 176.096C361.946 176.161 359.627 179.032 356.329 176.651C354.01 174.987 352.736 175.215 350.32 176.944C349.797 177.336 349.144 178.053 348.426 177.956C347.805 177.858 346.433 177.368 345.976 178.086C345.454 178.902 346.401 180.369 344.572 179.652V179.652C343.488 179.201 342.76 178.265 341.59 178.16C341.304 178.135 341.035 178.067 340.816 177.89C340.49 177.597 340.784 177.205 340.196 176.814C338.694 175.737 336.897 178.641 336.571 178.51C335.591 178.086 334.35 176.39 333.273 175.803C332.162 175.15 331.542 174.008 330.889 172.932C330.333 171.986 332.456 170.714 331.901 169.409C331.64 168.756 331.019 168.495 330.464 168.169C329.876 167.843 330.235 167.06 329.68 166.636C329.288 166.343 331.15 163.537 331.117 162.787C330.986 160.895 331.117 160.503 330.072 158.872C328.374 156.197 326.447 156.1 324.488 158.35C323.312 159.72 323.214 159.394 321.483 159.492C320.993 159.492 318.936 159.655 318.675 160.079C317.989 161.254 318.152 162.102 318.903 163.015C320.34 164.711 319.034 165.038 318.25 166.473C317.434 167.941 317.336 169.181 317.14 170.812C316.976 172.182 316.095 173.193 315.964 174.563C315.801 176.161 317.532 178.021 318.348 179.293C319.262 180.696 319.458 183.468 319.099 185.067C319.066 185.23 319.066 188.035 318.185 187.187C317.368 186.404 316.16 186.665 315.213 186.992C312.96 187.742 310.543 187.97 308.192 187.905C306.199 187.84 304.958 185.882 303.032 185.589C301.758 185.393 301.04 186.665 299.962 187.089C298.59 187.644 296.598 187.285 295.357 186.535C294.345 185.915 293.92 184.121 292.483 184.317C291.7 184.414 291.471 185.165 290.654 185.067C289.805 184.969 289.218 184.186 288.401 183.925C286.997 183.468 286.246 185.034 285.005 183.697C284.058 182.686 284.058 181.316 282.49 180.989C280.988 180.663 280.596 182.294 279.322 182.392C277.624 182.555 277.265 182.001 275.991 180.891C274.848 179.88 269.525 179.456 269.296 178.119C269.003 176.227 269.166 175.15 268.023 173.421C266.88 171.692 265.737 172.704 263.875 172.508C262.732 172.377 262.765 170.975 261.981 170.453C261.361 170.029 259.238 169.8 258.454 169.996C256.821 170.388 255.417 171.301 254.013 172.182C254.274 171.986 251.531 171.105 251.302 171.105C250.518 171.138 249.473 171.334 249.049 172.084C248.886 172.377 248.853 173.193 248.559 173.389C248.722 173.291 246.175 172.214 245.75 172.182C244.673 172.084 242.55 172.312 241.603 171.953C240.689 171.594 241.538 169.898 241.276 169.213C240.656 167.647 238.337 167.778 236.998 168.169C236.116 168.43 234.973 169.8 234.157 168.463C233.504 167.354 231.642 166.408 230.467 165.984C229.095 165.462 228.213 164.907 226.744 165.69C224.425 166.93 224.817 164.646 223.151 163.994C221.747 163.439 220.18 163.602 219.82 161.776C219.69 161.156 219.69 160.34 219.167 159.884V159.884C218.538 159.328 217.143 160.262 216.551 159.666C215.102 158.208 214.421 156.087 211.885 155.839C209.011 155.545 207.247 155.382 205.778 152.772C204.112 149.836 204.243 152.642 202.904 153.131C202.055 153.457 198.136 150.619 197.515 150.032C196.503 149.086 196.666 148.075 197.94 147.716C199.442 147.259 198.887 146.346 199.018 145.172C199.148 144.062 200.259 143.638 200.389 142.399C200.552 140.996 199.54 139.854 200.324 138.452C201.042 137.179 201.761 137.016 201.924 135.385C201.989 134.7 202.153 133.983 202.708 133.526C203.622 132.808 204.112 132.123 204.7 131.177C205.418 130.003 207.051 130.329 207.704 129.024C208.423 127.589 211.427 124.947 209.337 123.903C207.933 123.218 207.933 121.88 207.051 120.771C205.843 119.271 205.288 120.314 203.688 120.184C202.218 120.053 202.643 118.455 201.14 119.238C199.997 119.825 199.834 118.031 199.703 117.248C199.377 115.519 197.548 112.616 195.327 113.007C194.086 113.236 193.662 111.8 192.551 111.507C191.637 111.278 190.69 111.246 189.776 111.181C188.012 111.05 185.791 110.691 185.595 108.538C185.367 106.385 184.648 103.743 182.199 103.091C180.24 102.601 178.835 106.548 179.031 106.614C178.084 106.287 177.823 105.472 177.66 104.591C177.529 103.874 176.713 103.613 176.647 102.928C176.517 101.492 179.75 100.775 177.888 99.0457C176.092 97.382 177.66 95.49 177.398 93.5653C177.3 92.8477 176.092 92.2279 175.7 91.5755C174.982 90.3359 175.439 90.5316 175.863 89.7161C176.092 89.292 173.479 88.9984 173.447 88.607C173.316 87.4 173.512 86.0625 173.447 84.8229C173.381 83.6486 173.741 81.5282 175.374 82.409C177.268 83.4202 176.615 84.1379 177.366 86.1278C177.823 87.2695 179.39 88.9984 180.795 88.4765C182.95 87.661 181.807 87.5305 182.036 85.8342C182.166 84.7903 184.126 85.2796 184.485 84.2031C184.779 83.2898 187.196 83.7791 187.979 83.355C190.135 82.1807 190.951 80.8432 189.678 78.4619C188.404 76.1132 184.648 75.4281 186.608 72.1987C188.306 69.3933 183.897 68.2842 181.676 68.382C179.619 68.4799 179.423 68.0232 179.652 65.7397C179.75 64.9242 179.75 64.0108 180.109 63.2605C180.566 62.3145 181.742 61.9883 182.199 61.1402C182.33 60.8792 181.481 59.4439 181.415 59.1829C181.089 57.9433 180.174 59.2156 179.39 58.4653C178.639 57.715 178.672 57.2583 179.358 56.3449C180.729 54.5834 182.232 55.9861 184.06 56.7037C184.714 56.9647 187.228 58.1064 187.294 56.5406C187.359 55.2684 188.698 55.1053 189.122 53.8984C189.612 52.5609 189.743 51.1582 190.069 49.7881C190.233 49.0378 192.486 48.7116 193.009 48.5811C194.903 48.0918 192.813 46.3629 194.021 45.4822C195.066 44.7319 196.307 45.4822 197.221 44.7319C198.626 43.5249 198.168 42.9377 198.071 41.3393C198.005 39.9366 199.018 38.5339 199.181 37.1312C199.377 35.7938 200.912 35.1413 201.402 33.967C201.793 32.9884 201.761 30.5092 201.402 29.4979C200.944 28.0952 198.658 27.3449 197.679 26.4968C195.85 24.931 195.948 24.1155 193.27 24.0176C191.964 23.9524 189.841 23.2347 188.926 22.2887C188.273 21.6363 188.012 20.0705 186.836 20.6577C185.269 21.4406 184.06 22.6802 182.297 23.1369C181.448 23.3652 178.117 22.093 177.954 22.7128C177.17 25.5834 172.467 23.4631 170.312 24.7353C169.071 25.4529 169.201 27.2471 167.928 27.9647C166.752 28.6172 164.009 29.4001 162.735 29.4001C162.082 29.4001 161.657 29.7589 161.266 30.183C160.939 30.5744 159.927 30.2482 159.535 30.2482C158 30.183 158.359 28.6498 157.934 27.4754C156.824 24.3112 154.701 24.0829 151.697 24.4417C148.105 24.8984 147.811 22.4518 146.994 19.3855C146.602 17.9828 146.178 17.6892 144.806 17.1346C143.271 16.5148 143.173 14.3292 141.606 14.0356C139.94 13.742 138.667 13.5137 137.132 12.7308C135.499 11.9153 136.054 10.48 134.846 9.53395C132.854 7.93553 131.711 6.98952 130.47 4.73868C129.751 3.3686 129.718 3.85792 128.477 3.17288C127.498 2.65094 128.477 1.0199 127.334 0.661069C125.506 0.0738936 125.963 0.922037 124.363 1.47659C123.448 1.8028 122.207 0.334861 121.881 1.54183C121.489 2.87929 119.595 1.90066 119.203 1.21562C118.615 0.269619 117.831 -0.545903 116.917 0.465344C116.362 1.08514 115.741 2.19425 114.729 2.03115C113.128 1.73756 113.357 0.367482 111.659 1.57445C110.842 2.16163 108.818 2.61832 108.393 3.3686C107.609 4.73868 105.878 3.10764 104.866 3.00977C102.939 2.81405 104.768 5.48896 102.809 6.07614C101.633 6.43497 100.882 5.68469 99.8695 5.29323C98.0407 4.6082 96.4404 6.30448 94.6443 5.74993C92.097 4.9344 93.6319 9.79492 91.3459 9.59919C90.4315 9.53395 89.5171 10.4473 89.7457 11.3933C90.3008 13.5137 88.3414 12.3393 87.1984 13.4811C85.9901 14.688 85.6961 14.3945 84.2592 14.949C83.2468 15.3405 83.9326 18.2437 84.3898 18.8961C85.5655 20.625 83.6387 23.7567 87.2637 23.3326C88.7333 23.1695 90.758 22.9738 92.2276 23.3326C92.6848 23.4304 93.2074 24.0176 93.4686 24.3765C94.2524 25.5182 95.3954 26.138 96.1465 27.1818C96.6037 27.8016 96.963 28.6824 97.4528 29.237C98.9877 30.9659 99.4449 28.8129 100.588 28.4541C100.817 28.3888 101.339 32.76 101.894 33.1188C102.678 33.6082 103.331 34.5542 104.017 35.2392C104.703 35.9242 106.172 35.4675 106.989 35.9569C107.707 36.4136 107.381 37.6205 106.76 37.9467C105.617 38.5339 105.715 38.958 105.062 39.8714C103.952 41.4698 101.176 40.2954 100.229 42.3179C99.9495 42.9222 97.7968 44.2884 96.5939 45.0593C96.0438 45.4119 95.8444 45.9408 96.1336 46.5268C96.3295 46.9239 96.516 47.339 96.4404 47.9613C96.3098 48.9074 95.8526 50.0817 96.5058 50.9298C97.3549 52.1042 98.106 51.6149 97.6161 53.3438C97.2242 54.6813 95.8853 54.2898 96.2772 55.9208C96.6364 57.454 97.9427 57.3888 98.0407 58.7915C98.1713 60.4551 97.9753 62.1188 99.1837 63.4563C98.2693 62.445 97.9753 66.9467 97.9753 67.3708C97.91 69.4585 96.1139 71.3505 98.0733 73.2425C100.751 75.8522 104.18 74.9714 106.956 76.9613C107.903 77.6464 108.752 79.832 109.993 79.7015C110.483 79.6688 113.455 79.3426 113.847 79.8319C114.043 80.0929 113.194 82.148 113.488 82.8331C113.814 83.7138 114.99 84.6598 115.904 84.8556C117.047 85.1165 118.517 85.247 119.693 85.247C120.658 85.247 120.465 86.2559 121.494 86.2926C121.573 86.2955 121.627 86.2167 121.602 86.1415V86.1415Z" fill="#101828" stroke="white" stroke-width="2" mask="url(#path-1-inside-1_1614_4179)"/>
</g>
<circle opacity="0.6" cx="123.6" cy="54.8265" r="2.49053" stroke="#33CF90"/>
<circle opacity="0.6" cx="131.584" cy="23.9241" r="2.49053" stroke="#33CF90"/>
<circle opacity="0.6" cx="153.506" cy="63.7991" r="2.49053" stroke="#33CF90"/>
<circle opacity="0.6" cx="102.67" cy="17.9437" r="2.49053" stroke="#33CF90"/>
<circle opacity="0.6" cx="91.7093" cy="223.291" r="2.49053" stroke="#33CF90"/>
<circle opacity="0.6" cx="63.7952" cy="237.248" r="2.49053" stroke="#33CF90"/>
<circle opacity="0.6" cx="11.9593" cy="237.248" r="2.49053" stroke="#33CF90"/>
<circle opacity="0.6" cx="176.444" cy="448.58" r="2.49053" stroke="#33CF90"/>
<circle opacity="0.6" cx="43.8577" cy="181.424" r="2.49053" stroke="#33CF90"/>
<circle opacity="0.6" cx="120.616" cy="270.143" r="2.49053" stroke="#33CF90"/>
<circle opacity="0.6" cx="176.444" cy="267.155" r="2.49053" stroke="#33CF90"/>
<circle opacity="0.6" cx="170.459" cy="315.998" r="2.49053" stroke="#33CF90"/>
<circle opacity="0.6" cx="206.342" cy="307.03" r="2.49053" stroke="#33CF90"/>
<circle opacity="0.6" cx="305.03" cy="251.205" r="2.49053" stroke="#33CF90"/>
<circle opacity="0.6" cx="414.678" cy="184.416" r="2.49053" stroke="#33CF90"/>
<circle opacity="0.6" cx="324.967" cy="167.471" r="2.49053" stroke="#33CF90"/>
<circle opacity="0.6" cx="414.678" cy="144.541" r="2.49053" stroke="#33CF90"/>
<circle opacity="0.6" cx="238.241" cy="315.998" r="2.49053" stroke="#33CF90"/>
<circle opacity="0.6" cx="364.842" cy="190.397" r="2.49053" stroke="#33CF90"/>
<circle opacity="0.6" cx="403.717" cy="209.338" r="2.49053" stroke="#33CF90"/>
<circle opacity="0.6" cx="129.584" cy="395.744" r="2.49053" stroke="#33CF90"/>
<circle opacity="0.6" cx="121.616" cy="442.6" r="2.49053" stroke="#33CF90"/>
<circle opacity="0.6" cx="159.491" cy="411.698" r="2.49053" stroke="#33CF90"/>
<circle opacity="0.6" cx="193.381" cy="383.784" r="2.49053" stroke="#33CF90"/>
<circle opacity="0.6" cx="88.7171" cy="352.881" r="2.49053" stroke="#33CF90"/>
<circle opacity="0.6" cx="241.233" cy="264.162" r="2.49053" stroke="#33CF90"/>
<circle opacity="0.6" cx="244.225" cy="181.424" r="2.49053" stroke="#33CF90"/>
<circle opacity="0.6" cx="46.8499" cy="264.162" r="2.49053" stroke="#33CF90"/>
<circle opacity="0.6" cx="78.7483" cy="310.018" r="2.49053" stroke="#33CF90"/>
<circle opacity="0.6" cx="277.116" cy="203.358" r="2.49053" stroke="#33CF90"/>
<circle opacity="0.6" cx="277.116" cy="245.225" r="2.49053" stroke="#33CF90"/>
<circle opacity="0.6" cx="209.334" cy="187.405" r="2.49053" stroke="#33CF90"/>
<circle opacity="0.6" cx="293.069" cy="290.08" r="2.49053" stroke="#33CF90"/>
<circle opacity="0.6" cx="442.6" cy="154.51" r="2.49053" stroke="#33CF90"/>
<circle opacity="0.6" cx="156.506" cy="157.502" r="2.49053" stroke="#33CF90"/>
<circle opacity="0.6" cx="137.561" cy="124.604" r="2.49053" stroke="#33CF90"/>
<circle opacity="0.6" cx="193.381" cy="138.561" r="2.49053" stroke="#33CF90"/>
<circle opacity="0.6" cx="100.678" cy="138.561" r="2.49053" stroke="#33CF90"/>
<circle opacity="0.6" cx="156.506" cy="90.7132" r="2.49053" stroke="#33CF90"/>
<circle opacity="0.6" cx="179.428" cy="37.8812" r="2.49053" stroke="#33CF90"/>
<circle opacity="0.6" cx="173.451" cy="226.283" r="2.49053" stroke="#33CF90"/>
<circle opacity="0.6" cx="137.561" cy="205.35" r="2.49053" stroke="#33CF90"/>
<circle opacity="0.6" cx="150.522" cy="475.494" r="2.49053" stroke="#33CF90"/>
</svg>
