<svg width="31" height="39" viewBox="0 0 31 39" fill="none" xmlns="http://www.w3.org/2000/svg">
<path d="M15.5796 0.678711H15.5265C12.9971 3.50559 9.57513 5.24847 5.80242 5.24847C3.94263 5.24847 2.15724 4.82338 0.53125 4.04758V19.9036C0.53125 23.5382 2.221 26.9708 5.10101 29.1919L15.5158 37.2262" stroke="#C1A866" stroke-width="1.06274" stroke-miterlimit="10"/>
<path d="M15.4922 37.2368L25.8964 29.2025C28.7764 26.9814 30.4661 23.5488 30.4661 19.9142V4.10072C28.8614 4.83401 27.1291 5.24847 25.3012 5.24847C21.5285 5.24847 18.1065 3.50559 15.5772 0.678711" stroke="#101828" stroke-width="1.06274" stroke-miterlimit="10"/>
<path d="M15.5796 0.678711H15.5265C12.9971 3.50559 9.57513 5.24847 5.80242 5.24847C3.94263 5.24847 2.15724 4.82338 0.53125 4.04758V19.9036C0.53125 23.5382 2.221 26.9708 5.10101 29.1919L15.5158 37.2262L15.5796 0.678711Z" stroke="#C1A866" stroke-miterlimit="10"/>
<path d="M15.4922 37.2368L25.8964 29.2025C28.7764 26.9814 30.4661 23.5488 30.4661 19.9142V4.10072C28.8614 4.83401 27.1291 5.24847 25.3012 5.24847C21.5285 5.24847 18.1065 3.50559 15.5772 0.678711" stroke="#101828" stroke-miterlimit="10"/>
</svg>
