<?xml version="1.0" encoding="UTF-8"?>
<svg id="Layer_1" data-name="Layer 1" xmlns="http://www.w3.org/2000/svg" xmlns:xlink="http://www.w3.org/1999/xlink" viewBox="0 0 675.98 649.17">
  <defs>
    <style>
      .cls-1 {
        clip-path: url(#clippath);
      }

      .cls-2 {
        fill: #ffe066;
      }

      .cls-3 {
        fill: #ffa340;
      }

      .cls-4 {
        fill: #fff;
      }

      .cls-5 {
        fill: #f1f1f1;
      }

      .cls-6 {
        fill: #ffbd00;
      }

      .cls-7 {
        fill: #e85151;
      }

      .cls-8 {
        fill: #ff5959;
      }

      .cls-9, .cls-10 {
        fill: #9287fa;
      }

      .cls-11 {
        fill: #a18600;
      }

      .cls-12 {
        fill: #c43535;
      }

      .cls-13 {
        fill: #324f7d;
      }

      .cls-14 {
        fill: #d93b3b;
      }

      .cls-15 {
        fill: #d6d6d6;
      }

      .cls-16 {
        fill: #101828;
      }

      .cls-17 {
        fill: #1e0167;
      }

      .cls-18 {
        fill: #302a70;
      }

      .cls-19 {
        fill: #2f4b75;
      }

      .cls-20 {
        clip-path: url(#clippath-1);
      }

      .cls-10, .cls-21 {
        opacity: .95;
      }

      .cls-10, .cls-21, .cls-22, .cls-23 {
        isolation: isolate;
      }

      .cls-21 {
        fill: #d2d0fc;
      }

      .cls-24 {
        opacity: .17;
      }

      .cls-23 {
        opacity: .4;
      }
    </style>
    <clipPath id="clippath">
      <path class="cls-18" d="M343.05,401.66c-2.61,1.22-4.12,1.81-4.99,1.31l-4.67-2.71c.87,.5,2.38-.08,4.99-1.31"/>
    </clipPath>
    <clipPath id="clippath-1">
      <path class="cls-18" d="M371.58,385.27c-3.15,1.52-4.9,2.24-5.86,1.68l-4.67-2.71c.96,.56,2.71-.15,5.86-1.68"/>
    </clipPath>
  </defs>
  <g class="cls-24">
    <path d="M177.04,643.04L7.91,535.84c-2.67-1.7-4.82-4.11-6.2-6.96-1.38-2.85-1.94-6.03-1.62-9.18,.32-3.15,1.51-6.15,3.45-8.66,1.93-2.51,4.52-4.44,7.48-5.56l463.12-173.98c2.46-.92,5.1-1.26,7.71-.99s5.13,1.14,7.35,2.54l178.53,113.16c2.67,1.71,4.82,4.12,6.19,6.98,1.38,2.86,1.93,6.04,1.6,9.19-.33,3.15-1.53,6.15-3.47,8.66s-4.54,4.43-7.5,5.54l-452.66,170.13c-5.7,2.12-11.81,2.89-17.85,2.26-6.05-.64-11.86-2.66-17-5.92h0Z"/>
  </g>
  <path class="cls-16" d="M233.48,612.64l-169.14-107.23c-2.68-1.7-4.83-4.11-6.22-6.96-1.38-2.85-1.95-6.03-1.63-9.19,.32-3.15,1.52-6.16,3.45-8.67,1.93-2.51,4.53-4.44,7.49-5.56l406.69-151.16c2.46-.92,5.1-1.26,7.72-.99,2.61,.27,5.13,1.14,7.35,2.54l178.53,113.16c2.67,1.71,4.82,4.12,6.19,6.98,1.38,2.86,1.93,6.04,1.6,9.19-.33,3.15-1.53,6.15-3.47,8.66-1.94,2.51-4.54,4.43-7.5,5.54l-396.2,147.4c-5.7,2.11-11.82,2.87-17.87,2.23-6.05-.64-11.86-2.67-17-5.93h0Z"/>
  <path class="cls-9" d="M233.59,584.84L63.89,477.27c-2.64-1.67-4.76-4.04-6.12-6.85-1.36-2.81-1.91-5.94-1.59-9.05,.32-3.11,1.51-6.06,3.42-8.53s4.47-4.36,7.4-5.45l407.26-151.45c2.43-.9,5.03-1.23,7.6-.96,2.57,.27,5.05,1.13,7.23,2.51l179.09,113.5c2.64,1.67,4.76,4.05,6.12,6.86,1.36,2.81,1.91,5.95,1.59,9.05-.32,3.11-1.51,6.06-3.42,8.53-1.91,2.47-4.47,4.36-7.4,5.46l-396.85,147.59c-5.66,2.1-11.73,2.87-17.74,2.24-6.01-.63-11.79-2.64-16.89-5.87h0Z"/>
  <path class="cls-18" d="M302.52,575.21L87.84,439.13l329.47-121.79,214.68,136.08-329.47,121.78Z"/>
  <path class="cls-16" d="M561.53,379.58l-43.35-27.48c-.16-.11-.28-.26-.36-.44-.08-.18-.11-.37-.08-.56,.02-.19,.09-.37,.21-.52,.12-.15,.27-.27,.45-.34l5.62-2.06c.59-.21,1.21-.29,1.83-.22,.62,.07,1.21,.27,1.74,.61l42.76,27.11c.19,.12,.35,.29,.45,.49,.1,.2,.14,.43,.12,.65-.02,.22-.11,.44-.25,.61s-.32,.31-.53,.39l-5.77,2.11c-.46,.16-.96,.22-1.45,.16-.49-.06-.96-.23-1.37-.5h0Z"/>
  <path class="cls-4" d="M181.69,510.18c0,4.81-8.44,8.72-18.84,8.72s-18.84-3.91-18.84-8.72,8.42-8.74,18.84-8.74,18.84,3.96,18.84,8.74Z"/>
  <g>
    <path class="cls-16" d="M494,501.47c29.3,0,53.05-11.37,53.05-25.4s-23.75-25.4-53.05-25.4-53.05,11.37-53.05,25.4,23.75,25.4,53.05,25.4Z"/>
    <path class="cls-3" d="M500.74,494.45c29.3,0,53.05-11.37,53.05-25.4s-23.75-25.4-53.05-25.4-53.05,11.37-53.05,25.4,23.75,25.4,53.05,25.4Z"/>
    <path class="cls-3" d="M553.78,458.68h-106.1v12.44h106.1v-12.44Z"/>
    <path class="cls-6" d="M500.74,485c29.3,0,53.05-11.37,53.05-25.4s-23.75-25.4-53.05-25.4-53.05,11.37-53.05,25.4,23.75,25.4,53.05,25.4Z"/>
    <path class="cls-2" d="M500.74,479.15c23.3,0,42.19-8.75,42.19-19.55s-18.89-19.55-42.19-19.55-42.19,8.75-42.19,19.55,18.89,19.55,42.19,19.55Z"/>
    <path class="cls-3" d="M488.6,461.36l-6.61-3.49,5.15-2.68,6.61,3.49c1.79,.82,3.74,1.24,5.71,1.24s3.92-.42,5.71-1.24c3.18-1.65,3.24-4.35,.12-5.99l-6.9-3.66,5.17-2.68,6.9,3.66c5.9,3.1,5.8,8.22-.23,11.36-3.4,1.55-7.08,2.35-10.82,2.35s-7.42-.8-10.82-2.35h0Z"/>
    <path class="cls-3" d="M513.56,465.83l-23.52-12.47,5.17-2.68,23.52,12.47-5.17,2.68Z"/>
    <path class="cls-3" d="M521.91,461.5l-23.52-12.49,5.17-2.67,23.52,12.46-5.17,2.7Z"/>
    <path class="cls-3" d="M486.93,472.86l2.3-14.71-7.2-.26-1.78,11.44,6.69,3.54Z"/>
    <path class="cls-3" d="M500.74,473.78c29.3,0,53.05-11.37,53.05-25.4s-23.75-25.4-53.05-25.4-53.05,11.37-53.05,25.4,23.75,25.4,53.05,25.4Z"/>
    <path class="cls-3" d="M553.78,438.01h-106.1v12.44h106.1v-12.44Z"/>
    <path class="cls-6" d="M500.74,464.33c29.3,0,53.05-11.37,53.05-25.4s-23.75-25.4-53.05-25.4-53.05,11.37-53.05,25.4,23.75,25.4,53.05,25.4Z"/>
    <path class="cls-2" d="M500.74,458.47c23.3,0,42.19-8.75,42.19-19.55s-18.89-19.55-42.19-19.55-42.19,8.75-42.19,19.55,18.89,19.55,42.19,19.55Z"/>
    <path class="cls-3" d="M488.6,440.7l-6.61-3.49,5.15-2.68,6.61,3.49c1.79,.82,3.74,1.24,5.71,1.24s3.92-.42,5.71-1.24c3.18-1.65,3.24-4.35,.12-5.99l-6.9-3.68,5.17-2.68,6.9,3.68c5.9,3.1,5.8,8.22-.23,11.36-3.4,1.55-7.08,2.35-10.82,2.35s-7.42-.8-10.82-2.35h0Z"/>
    <path class="cls-3" d="M513.56,445.17l-23.52-12.47,5.17-2.68,23.52,12.47-5.17,2.68Z"/>
    <path class="cls-3" d="M521.91,440.84l-23.52-12.47,5.17-2.7,23.52,12.49-5.17,2.68Z"/>
    <path class="cls-3" d="M486.93,452.19l2.3-14.71-7.2-.26-1.78,11.42,6.69,3.55Z"/>
    <path class="cls-3" d="M500.74,453.11c29.3,0,53.05-11.37,53.05-25.4s-23.75-25.4-53.05-25.4-53.05,11.37-53.05,25.4,23.75,25.4,53.05,25.4Z"/>
    <path class="cls-3" d="M553.78,417.34h-106.1v12.44h106.1v-12.44Z"/>
    <path class="cls-6" d="M500.74,443.66c29.3,0,53.05-11.37,53.05-25.4s-23.75-25.4-53.05-25.4-53.05,11.37-53.05,25.4,23.75,25.4,53.05,25.4Z"/>
    <path class="cls-2" d="M500.74,437.81c23.3,0,42.19-8.75,42.19-19.55s-18.89-19.55-42.19-19.55-42.19,8.75-42.19,19.55,18.89,19.55,42.19,19.55Z"/>
    <path class="cls-3" d="M488.6,420.02l-6.61-3.48,5.15-2.68,6.61,3.49c1.79,.82,3.74,1.24,5.71,1.24s3.92-.42,5.71-1.24c3.18-1.66,3.24-4.34,.12-5.99l-6.9-3.68,5.17-2.68,6.9,3.68c5.9,3.1,5.8,8.22-.23,11.36-3.4,1.54-7.08,2.34-10.82,2.34-3.73,0-7.42-.81-10.81-2.36h0Z"/>
    <path class="cls-3" d="M513.56,424.5l-23.52-12.47,5.17-2.68,23.52,12.47-5.17,2.68Z"/>
    <path class="cls-3" d="M521.91,420.16l-23.52-12.47,5.17-2.68,23.52,12.48-5.17,2.68Z"/>
    <path class="cls-3" d="M486.93,431.53l2.3-14.71-7.2-.26-1.78,11.42,6.69,3.55Z"/>
  </g>
  <g>
    <g>
      <path class="cls-18" d="M347.16,221.31c27.64-15.96,52.67-17.44,70.75-6.93l30.74,17.86c-18.08-10.51-43.12-9.03-70.75,6.93-54.9,31.7-99.27,108.55-99.09,171.64,.09,31.34,11.16,53.39,29,63.76l-30.74-17.86c-17.85-10.37-28.91-32.42-29-63.76-.18-63.09,44.19-139.94,99.09-171.64Z"/>
      <path class="cls-10" d="M377.9,239.18c-54.9,31.7-99.27,108.55-99.09,171.64,.18,63.09,44.84,88.54,99.74,56.84,54.92-31.71,99.29-108.56,99.11-171.64-.18-63.09-44.84-88.54-99.75-56.83Z"/>
    </g>
    <g>
      <path class="cls-21" d="M319.01,449.09c14.21,6.57,33.02,4.71,53.64-7.2,44.1-25.46,79.72-87.17,79.58-137.84-.07-23.37-7.74-40.3-20.31-49.27-14.21-6.57-33.02-4.71-53.64,7.2-44.1,25.46-79.72,87.17-79.58,137.84,.07,23.37,7.74,40.3,20.31,49.27Z"/>
      <path class="cls-18" d="M321.99,451.03c-1.02-.59-2.01-1.25-2.98-1.94,14.21,6.57,33.02,4.71,53.64-7.2,44.1-25.46,79.72-87.17,79.58-137.84-.07-23.37-7.74-40.3-20.31-49.27,1.08,.5,2.14,1.03,3.17,1.63,14.33,8.33,23.22,26.04,23.29,51.21,.14,50.67-35.48,112.38-79.58,137.84-22.19,12.81-42.29,14-56.81,5.57,0,0,0,0,0,0Z"/>
    </g>
    <g class="cls-23">
      <g>
        <path class="cls-17" d="M445.24,230.45c.92,.44,1.82,.9,2.7,1.4l-30.74-17.86c-.88-.49-1.78-.96-2.7-1.4l30.74,17.86h0Z"/>
        <path class="cls-17" d="M439.55,228.17c.98,.32,1.94,.67,2.89,1.05l-30.74-17.86c-.95-.38-1.91-.73-2.89-1.05l30.74,17.86h0Z"/>
        <path class="cls-17" d="M433.51,226.59c1.03,.2,2.05,.44,3.06,.7l-30.74-17.86c-1.01-.26-2.03-.5-3.06-.7l30.74,17.86h0Z"/>
        <path class="cls-17" d="M427.14,225.72c1.09,.08,2.16,.2,3.23,.35l-30.74-17.86c-1.06-.15-2.14-.26-3.23-.35l30.74,17.86h0Z"/>
        <path class="cls-17" d="M420.46,225.57c1.14-.04,2.26-.04,3.38-.02l-30.74-17.86c-1.11-.02-2.24-.02-3.38,.02l30.74,17.86h0Z"/>
        <path class="cls-17" d="M413.5,226.17c1.18-.16,2.35-.29,3.52-.39l-30.74-17.86c-1.16,.1-2.33,.23-3.52,.39l30.74,17.86h0Z"/>
        <path class="cls-17" d="M406.29,227.51c1.22-.29,2.44-.54,3.64-.77l-30.74-17.86c-1.2,.22-2.42,.48-3.64,.77l30.74,17.86h0Z"/>
        <path class="cls-17" d="M398.84,229.63c1.26-.42,2.51-.8,3.76-1.15l-30.74-17.86c-1.24,.35-2.49,.74-3.76,1.15l30.74,17.86h0Z"/>
        <path class="cls-17" d="M391.18,232.52c1.29-.55,2.58-1.06,3.85-1.54l-30.74-17.86c-1.28,.48-2.56,1-3.85,1.54l30.74,17.86h0Z"/>
        <path class="cls-17" d="M383.34,236.21c1.32-.68,2.63-1.33,3.94-1.94l-30.74-17.86c-1.31,.61-2.62,1.26-3.94,1.94l30.74,17.86h0Z"/>
        <path class="cls-17" d="M377.91,239.17c.48-.28,.96-.55,1.44-.82l-30.74-17.86c-.48,.27-.96,.54-1.44,.82l30.74,17.86h0Z"/>
      </g>
      <g>
        <path class="cls-17" d="M375.45,240.63c.82-.5,1.64-.98,2.46-1.46l-30.74-17.86c-.82,.48-1.65,.96-2.46,1.46l30.74,17.86h0Z"/>
        <path class="cls-17" d="M367.54,245.77c1.3-.91,2.62-1.79,3.94-2.65l-30.74-17.86c-1.32,.86-2.63,1.74-3.94,2.65l30.74,17.86h0Z"/>
        <path class="cls-17" d="M359.82,251.51c1.27-1,2.55-1.98,3.83-2.94l-30.74-17.86c-1.29,.96-2.56,1.93-3.83,2.94l30.74,17.86h0Z"/>
        <path class="cls-17" d="M352.3,257.8c1.23-1.09,2.48-2.16,3.73-3.21l-30.74-17.86c-1.25,1.05-2.5,2.12-3.73,3.21l30.74,17.86h0Z"/>
        <path class="cls-17" d="M345.01,264.59c1.19-1.17,2.4-2.32,3.61-3.46l-30.74-17.86c-1.21,1.13-2.42,2.28-3.61,3.46l30.74,17.86h0Z"/>
        <path class="cls-17" d="M337.97,271.86c1.15-1.25,2.31-2.47,3.48-3.68l-30.74-17.86c-1.17,1.21-2.33,2.44-3.48,3.68l30.74,17.86h0Z"/>
        <path class="cls-17" d="M331.2,279.55c1.1-1.32,2.22-2.62,3.35-3.9l-30.74-17.86c-1.13,1.28-2.24,2.58-3.35,3.9l30.74,17.86h0Z"/>
        <path class="cls-17" d="M324.74,287.63c1.05-1.38,2.12-2.74,3.19-4.09l-30.74-17.86c-1.08,1.35-2.14,2.71-3.19,4.09l30.74,17.86h0Z"/>
        <path class="cls-17" d="M318.6,296.05c1-1.43,2.01-2.85,3.03-4.25l-30.74-17.86c-1.02,1.41-2.03,2.82-3.03,4.25l30.74,17.86h0Z"/>
        <path class="cls-17" d="M312.81,304.77c.94-1.48,1.89-2.95,2.85-4.4l-30.74-17.86c-.97,1.46-1.92,2.92-2.85,4.4l30.74,17.86h0Z"/>
        <path class="cls-17" d="M307.39,313.76c.87-1.52,1.76-3.03,2.66-4.53l-30.74-17.86c-.9,1.5-1.79,3.01-2.66,4.53l30.74,17.86h0Z"/>
        <path class="cls-17" d="M302.37,322.97c.8-1.55,1.62-3.09,2.46-4.62l-30.74-17.86c-.84,1.53-1.66,3.08-2.46,4.62l30.74,17.86h0Z"/>
        <path class="cls-17" d="M297.76,332.36c.73-1.58,1.48-3.15,2.25-4.71l-30.74-17.86c-.77,1.56-1.52,3.13-2.25,4.71l30.74,17.86h0Z"/>
        <path class="cls-17" d="M293.59,341.89c.66-1.6,1.33-3.19,2.02-4.77l-30.74-17.86c-.69,1.59-1.37,3.18-2.02,4.77l30.74,17.86h0Z"/>
        <path class="cls-17" d="M289.9,351.51c.58-1.61,1.17-3.22,1.79-4.82l-30.74-17.86c-.62,1.6-1.21,3.21-1.79,4.82l30.74,17.86h0Z"/>
        <path class="cls-17" d="M286.68,361.21c.49-1.62,1.01-3.24,1.54-4.85l-30.74-17.86c-.54,1.62-1.05,3.23-1.54,4.85l30.74,17.86h0Z"/>
        <path class="cls-17" d="M283.99,370.91c.41-1.62,.83-3.24,1.28-4.85l-30.74-17.86c-.45,1.62-.88,3.24-1.28,4.85l30.74,17.86h0Z"/>
        <path class="cls-17" d="M281.83,380.58c.31-1.61,.65-3.22,1.01-4.84l-30.74-17.86c-.36,1.61-.7,3.23-1.01,4.84l30.74,17.86h0Z"/>
        <path class="cls-17" d="M280.23,390.2c.22-1.6,.46-3.2,.73-4.8l-30.74-17.86c-.27,1.6-.51,3.2-.73,4.8l30.74,17.86h0Z"/>
        <path class="cls-17" d="M279.22,399.7c.12-1.57,.26-3.15,.43-4.74l-30.74-17.86c-.17,1.59-.31,3.17-.43,4.74l30.74,17.86h0Z"/>
        <path class="cls-17" d="M278.81,409.06c.02-1.54,.06-3.09,.13-4.65l-30.74-17.86c-.07,1.56-.11,3.11-.13,4.65l30.74,17.86h0Z"/>
        <path class="cls-17" d="M279.03,418.12c-.09-1.46-.15-2.95-.19-4.46l-30.74-17.86c.04,1.51,.1,3,.19,4.46l30.74,17.86h0Z"/>
        <path class="cls-17" d="M279.87,426.63c-.19-1.37-.35-2.77-.49-4.19l-30.74-17.86c.14,1.42,.3,2.81,.49,4.19l30.74,17.86h0Z"/>
        <path class="cls-17" d="M281.3,434.59c-.29-1.28-.55-2.58-.79-3.9l-30.74-17.86c.24,1.32,.5,2.63,.79,3.9l30.74,17.86h0Z"/>
        <path class="cls-17" d="M283.29,441.98c-.38-1.18-.74-2.39-1.07-3.62l-30.74-17.86c.33,1.23,.69,2.44,1.07,3.62l30.74,17.86h0Z"/>
        <path class="cls-17" d="M285.84,448.77c-.47-1.08-.91-2.19-1.34-3.32l-30.74-17.86c.42,1.13,.87,2.24,1.34,3.32l30.74,17.86h0Z"/>
        <path class="cls-17" d="M288.9,454.95c-.55-.98-1.08-1.99-1.6-3.02l-30.74-17.86c.51,1.03,1.04,2.04,1.6,3.02l30.74,17.86h0Z"/>
        <path class="cls-17" d="M292.46,460.52c-.63-.88-1.25-1.78-1.84-2.71l-30.74-17.86c.59,.93,1.21,1.83,1.84,2.71l30.74,17.86h0Z"/>
        <path class="cls-17" d="M296.49,465.46c-.71-.77-1.4-1.57-2.07-2.39l-30.74-17.86c.67,.82,1.36,1.62,2.07,2.39l30.74,17.86h0Z"/>
        <path class="cls-17" d="M300.97,469.76c-.78-.66-1.55-1.35-2.29-2.06l-30.74-17.86c.75,.72,1.51,1.4,2.29,2.06l30.74,17.86h0Z"/>
        <path class="cls-17" d="M305.87,473.4c-.85-.55-1.68-1.13-2.5-1.73l-30.74-17.86c.82,.61,1.65,1.18,2.5,1.73l30.74,17.86h0Z"/>
      </g>
    </g>
    <g>
      <polygon class="cls-18" points="321.01 417.35 316.34 414.64 316.33 411.68 321 414.39 321.01 417.35"/>
      <g>
        <g>
          <path class="cls-18" d="M343.05,401.66c-2.61,1.22-4.12,1.81-4.99,1.31l-4.67-2.71c.87,.5,2.38-.08,4.99-1.31"/>
          <g class="cls-1">
            <path class="cls-11" d="M338.06,402.97l-4.67-2.71s4.67,2.71,4.68,2.72c0,0,0,0-.01,0h0Z"/>
            <path class="cls-11" d="M338.07,402.98l-4.67-2.71s.08,.04,.13,.06l4.67,2.71s-.09-.04-.13-.06h0Z"/>
            <path class="cls-11" d="M338.2,403.04l-4.67-2.71s.09,.04,.14,.05l4.67,2.71s-.1-.03-.14-.05h0Z"/>
            <path class="cls-11" d="M338.34,403.09l-4.67-2.71c.05,.01,.1,.03,.16,.04l4.67,2.71c-.05,0-.11-.02-.16-.04h0Z"/>
            <path class="cls-11" d="M338.5,403.13l-4.67-2.71c.06,.01,.13,.02,.19,.02l4.67,2.71c-.07,0-.13-.01-.19-.02h0Z"/>
            <path class="cls-11" d="M338.69,403.15l-4.67-2.71c.07,0,.15,0,.22,0l4.67,2.71c-.08,0-.15,0-.22,0h0Z"/>
            <path class="cls-11" d="M338.92,403.15l-4.67-2.71c.11,0,.22-.02,.34-.03l4.67,2.71c-.12,.02-.23,.03-.34,.03h0Z"/>
            <path class="cls-11" d="M339.25,403.11l-4.67-2.71c.16-.03,.34-.06,.52-.11l4.67,2.71c-.19,.05-.36,.09-.52,.11h0Z"/>
          </g>
        </g>
        <path class="cls-18" d="M326.89,406.95c.17-1.46,.18-2.87,.18-4.36-.07-2.18,.07-35.13-.26-36.22-.13-.84-.25-1.79-.98-2.27,0,0-4.67-2.71-4.67-2.71,.95,.55,1.13,2.4,1.14,6.14l.09,32.35c.09,6.49-.58,8.21-6.08,11.8l4.67,2.71c2.77-1.88,5.64-3.8,5.89-7.44Z"/>
        <polygon class="cls-18" points="320.86 365.41 316.19 362.7 316.19 359.74 320.85 362.45 320.86 365.41"/>
        <polygon class="cls-18" points="320.85 362.45 316.19 359.74 338.23 347.01 342.9 349.72 320.85 362.45"/>
        <path class="cls-10" d="M342.9,349.72v2.96c-5.43,3.73-6.09,4.7-6.07,11.88l.09,32.35c.02,7.09,.68,7.3,6.12,4.75v2.95s-22.04,12.73-22.04,12.73v-2.95c5.43-3.73,6.09-4.71,6.07-11.8l-.09-32.35c-.02-7.18-.69-7.38-6.12-4.84v-2.96s22.04-12.73,22.04-12.73Z"/>
        <g>
          <path class="cls-18" d="M371.58,385.27c-3.15,1.52-4.9,2.24-5.86,1.68l-4.67-2.71c.96,.56,2.71-.15,5.86-1.68"/>
          <g class="cls-20">
            <path class="cls-11" d="M365.72,386.95l-4.67-2.71s4.67,2.71,4.68,2.72c0,0,0,0-.01,0h0Z"/>
            <path class="cls-11" d="M365.74,386.96l-4.67-2.71s.09,.05,.13,.07l4.67,2.71s-.09-.04-.13-.07h0Z"/>
            <path class="cls-11" d="M365.87,387.03l-4.67-2.71s.09,.04,.14,.05l4.67,2.71s-.1-.03-.14-.05h0Z"/>
            <path class="cls-11" d="M366.01,387.08l-4.67-2.71c.06,.02,.11,.03,.17,.04l4.67,2.71c-.06-.01-.12-.02-.17-.04h0Z"/>
            <path class="cls-11" d="M366.19,387.12l-4.67-2.71c.06,.01,.12,.02,.19,.02l4.67,2.71c-.07,0-.13-.01-.19-.02h0Z"/>
            <path class="cls-11" d="M366.38,387.14l-4.67-2.71c.08,0,.17,0,.26,0l4.67,2.71c-.09,0-.18,0-.26,0h0Z"/>
            <path class="cls-11" d="M366.64,387.14l-4.67-2.71c.11,0,.23-.02,.35-.04l4.67,2.71c-.12,.02-.24,.03-.35,.04h0Z"/>
            <path class="cls-11" d="M366.99,387.1l-4.67-2.71c.18-.03,.37-.07,.57-.13l4.67,2.71c-.2,.06-.39,.1-.57,.13h0Z"/>
          </g>
        </g>
        <polygon class="cls-18" points="348.73 401.34 344.06 398.63 344.05 395.76 348.72 398.47 348.73 401.34"/>
        <path class="cls-18" d="M376.8,350.09c.49-2.95,.39-8.17-.91-10.42,0-.01-.01-.02-.02-.03-.04-.08-.09-.16-.13-.23-.41-.74-.92-1.31-1.56-1.62l-4.67-2.71c.59,.34,1.11,.87,1.55,1.6,.05,.09,.1,.17,.15,.26,0,.01,.01,.02,.02,.04,3.54,8.76-.87,24.55-11.36,26.32l4.67,2.71c7.35-1.27,11.37-9.1,12.27-15.91Z"/>
        <path class="cls-18" d="M354.69,390.96c.17-1.47,.19-2.91,.18-4.41-.07-2.22,.07-35.1-.26-36.26-.12-.86-.27-1.82-.97-2.25,0,0-4.67-2.71-4.67-2.71,.93,.54,1.12,2.36,1.13,6.16l.09,32.35c.09,6.58-.59,8.29-6.15,11.92l4.67,2.71c2.8-1.9,5.71-3.83,5.97-7.51Z"/>
        <polygon class="cls-18" points="349.02 349.15 344.36 346.44 344.35 343.48 349.02 346.19 349.02 349.15"/>
        <path class="cls-10" d="M382.1,330.39c3.46,.71,5.45,3.79,5.47,9.28-.11,12.68-8.61,22.66-18.03,28.17l-5,1.53,.03,11.57c.02,7.17,.69,7.38,7.01,4.33v2.87s-22.85,13.2-22.85,13.2v-2.87c5.51-3.78,6.16-4.75,6.14-11.92l-.09-32.35c-.02-7.18-.68-7.3-5.76-5.05v-2.96s20.2-11.67,20.2-11.67c5.81-3.36,10-4.85,12.88-4.14Zm-13.6,34.17c2.72-1.57,8.59-7.17,8.56-18.57-.03-9.54-4.74-9.95-9.22-7.36-1.39,.81-2.28,1.74-2.72,2.41-.44,.77-.66,1.73-.66,3.01l.06,21.95c.89-.09,2.43-.55,3.97-1.44h0Z"/>
        <path class="cls-18" d="M370.97,333.55c3.42-1.73,7.19-3.88,11.13-3.16l-4.67-2.71c-1.86-.43-3.78,.02-5.57,.63-2.55,.88-4.95,2.16-7.31,3.51,0,0-20.21,11.67-20.21,11.67l4.67,2.71c.99-.56,21.48-12.44,21.96-12.64Z"/>
        <path class="cls-18" d="M431.19,337.23c1.32-7.14,1.15-18.86-1.93-24.87-.92-1.94-2.09-3.41-3.54-4.1l-4.06-2.36c-.2-.13-.4-.25-.6-.35,1.39,.81,2.58,2.18,3.54,4.1,4.95,11.66,3.22,32.09-5.36,42.05-3.06,3.57-8.42,7.16-13.1,4.55l4.67,2.71c.7,.4,1.46,.68,2.25,.81,3.26,.49,6.4-1.25,8.82-3.3,5.46-4.89,8.08-12.17,9.32-19.24Z"/>
        <path class="cls-18" d="M393.07,348.34c.25-15.32,8.2-30.34,20.1-39.88,6.3-4.87,15.26-10,23.1-5.79-1.53-.89-3.26-1.91-4.79-2.78l.1,.06c-.22-.12-.46-.24-.68-.35-.06-.03-.13-.07-.19-.1-.16-.08-.3-.14-.39-.17-7.73-2.95-15.8,1.79-21.83,6.42-10.66,8.49-17.89,21.26-19.77,34.75-.89,5.55-.2,13.24,2.69,17.58,1.06,1.73,2.4,3.12,4.03,3.96l4.02,2.34c.21,.13,.42,.26,.64,.37-1.6-.93-2.95-2.26-4.03-3.96-2.04-3.31-3.06-8.15-3.02-12.45Z"/>
        <path class="cls-10" d="M418.79,304.64c13.37-7.72,24.36-2.64,24.41,14.08,.05,18.24-11.31,35.88-25.13,43.86-14.7,8.49-24.95,1.97-24.99-14.24-.04-14.53,8.88-33.98,25.72-43.7Zm.59,53.63c6.98-4.03,12.62-15.16,12.58-30.69-.05-16.8-6.03-23.5-14.49-18.62-17.24,8.94-18.44,60.25,1.91,49.31h0Z"/>
      </g>
    </g>
    <g>
      <polygon class="cls-4" points="411.74 202.88 416.95 239.6 426.38 275.47 421.16 238.75 411.74 202.88"/>
      <polygon class="cls-4" points="382.76 246.49 419.48 241.28 455.35 231.85 418.63 237.07 382.76 246.49"/>
      <polygon class="cls-4" points="382.76 246.49 419.48 241.28 455.35 231.85 418.63 237.07 382.76 246.49"/>
    </g>
  </g>
  <g>
    <g class="cls-22">
      <polygon class="cls-15" points="500 0 506.95 6.9 496.66 86.14 489.72 79.24 500 0"/>
      <polygon class="cls-13" points="489.72 79.24 496.66 86.14 433.69 51.23 426.75 44.33 489.72 79.24"/>
      <polygon class="cls-5" points="500 0 489.72 79.24 426.75 44.33 500 0"/>
    </g>
    <path class="cls-15" d="M464.79,65.41l8.17,7.57-80.75,132.14c-.17-5.71-3.73-8.48-8.47-7.03l81.06-132.67Z"/>
    <polygon class="cls-5" points="383.74 198.08 368.15 189.02 449.2 56.35 464.79 65.41 383.74 198.08"/>
    <path class="cls-8" d="M368.15,189.02c-.82,.25-1.67,.62-2.54,1.13-3.1,1.79-5.89,4.87-7.88,8.39-1.91,3.38-3.09,7.17-3.08,10.58,0,2.38,.59,4.28,1.59,5.6,.45,.6,1,1.08,1.61,1.44l15.59,9.06c-.61-.36-1.16-.84-1.61-1.44-1-1.32-1.59-3.22-1.59-5.6,0-3.42,1.16-7.2,3.08-10.58,1.99-3.52,4.78-6.61,7.88-8.39,.87-.5,1.72-.88,2.54-1.13l-15.59-9.06Z"/>
    <path class="cls-15" d="M306.4,229.46l66.92-21.86c-1.91,3.38-3.09,7.17-3.08,10.58,0,2.38,.59,4.28,1.59,5.6l-66.21,21.63c1.7-3.21,2.73-6.73,2.72-9.93,0-2.65-.72-4.69-1.94-6.02Z"/>
    <path class="cls-14" d="M381.2,199.21c.87-.5,1.72-.88,2.54-1.13,4.74-1.44,8.3,1.33,8.47,7.03,0,.13,0,.25,0,.38,.02,6.97-4.88,15.46-10.95,18.96-4,2.31-7.5,1.88-9.43-.67-1-1.32-1.59-3.22-1.59-5.6,0-3.42,1.16-7.2,3.08-10.58,1.99-3.52,4.78-6.61,7.88-8.39Z"/>
    <path class="cls-8" d="M259.58,336.11l-15.59-9.06c-.86-.5-1.58-1.24-2.11-2.21-.7-1.25-1.09-2.88-1.09-4.84-.01-3.81,1.45-8.08,3.77-11.74,1.75-2.75,3.98-5.16,6.44-6.77,.24-.16,.49-.31,.74-.46l15.59,9.06c-.25,.14-.49,.3-.74,.46-2.46,1.61-4.69,4.01-6.44,6.77-2.32,3.66-3.79,7.93-3.77,11.74,0,1.96,.4,3.59,1.09,4.84,.54,.97,1.25,1.71,2.11,2.21Z"/>
    <polygon class="cls-5" points="306.4 229.46 290.81 220.4 357.73 198.54 373.32 207.6 306.4 229.46"/>
    <path class="cls-12" d="M297.33,229.21c3.76-2.17,7.09-1.91,9.08,.26,1.22,1.33,1.94,3.38,1.94,6.02,0,3.2-1.02,6.72-2.72,9.93-1.64,3.09-3.91,5.9-6.47,7.86-.57,.43-1.16,.83-1.75,1.17-4.45,2.57-8.28,1.74-10.02-1.63-.63-1.23-.99-2.79-.99-4.65-.02-6.97,4.88-15.46,10.95-18.96Z"/>
    <path class="cls-15" d="M287.37,252.82c1.74,3.37,5.58,4.2,10.02,1.63,.6-.34,1.18-.74,1.75-1.17l-21.38,59.42c-1.47-4.16-5.6-5.39-10.44-2.59-.25,.14-.49,.3-.74,.46l20.78-57.74Z"/>
    <path class="cls-14" d="M267.33,310.1c4.84-2.8,8.97-1.57,10.44,2.59,.37,1.05,.58,2.28,.58,3.69,.02,6.97-4.88,15.47-10.95,18.97-4.37,2.52-8.15,1.77-9.93-1.44-.7-1.25-1.09-2.88-1.09-4.84-.01-3.81,1.45-8.08,3.77-11.74,1.75-2.75,3.98-5.16,6.44-6.77,.24-.16,.49-.31,.74-.46Z"/>
    <polygon class="cls-5" points="266.59 310.55 251 301.49 271.78 243.76 287.37 252.82 266.59 310.55"/>
    <path class="cls-7" d="M289.55,219.38c-2-1.16-4.76-1-7.81,.76-6.07,3.5-10.97,11.99-10.95,18.96,0,1.86,.36,3.42,.99,4.65,.55,1.06,1.3,1.86,2.21,2.39l15.59,9.06c-.91-.53-1.66-1.34-2.21-2.39-.63-1.23-.99-2.79-.99-4.65-.02-6.97,4.88-15.46,10.95-18.96,3.05-1.76,5.82-1.93,7.81-.76l-15.59-9.06Z"/>
    <path class="cls-15" d="M184.58,348.69c0-2.17-.49-3.94-1.33-5.24l76.9-26.13c-2.32,3.66-3.79,7.93-3.77,11.74,0,1.96,.4,3.59,1.09,4.84l-76.29,25.92c2.1-3.52,3.41-7.53,3.4-11.13Z"/>
    <polygon class="cls-5" points="183.25 343.45 167.66 334.39 244.56 308.26 260.15 317.32 183.25 343.45"/>
    <path class="cls-8" d="M165.78,332.58c-2-1.16-4.77-1-7.82,.77-5.22,3.01-9.57,9.71-10.68,15.97-.18,1.02-.27,2.02-.27,3,0,3.46,1.23,5.9,3.2,7.04l15.59,9.06c-1.97-1.15-3.19-3.58-3.2-7.04,0-.98,.09-1.98,.27-3,1.1-6.26,5.46-12.96,10.68-15.97,3.05-1.76,5.82-1.93,7.82-.77l-15.59-9.06Z"/>
    <path class="cls-14" d="M173.55,342.41c4.18-2.41,7.82-1.83,9.69,1.05,.84,1.3,1.33,3.07,1.33,5.24,.01,3.6-1.3,7.62-3.4,11.13-1.96,3.29-4.62,6.14-7.55,7.83-1.79,1.03-3.47,1.51-4.97,1.51-3.58-.02-6.04-2.87-6.05-7.78,0-.98,.09-1.98,.27-3,1.1-6.26,5.46-12.96,10.68-15.97Z"/>
    <polygon class="cls-5" points="114.89 425.16 99.3 416.1 147.29 349.32 162.88 358.38 114.89 425.16"/>
    <path class="cls-15" d="M162.61,361.38c.01,4.92,2.47,7.76,6.05,7.79l-46.04,64.08-7.73-8.08,47.99-66.78c-.18,1.02-.27,2.02-.27,3Z"/>
    <polygon class="cls-19" points="122.62 433.24 107.03 424.18 99.3 416.1 114.89 425.16 122.62 433.24"/>
  </g>
  <g>
    <path class="cls-16" d="M254.2,520.1c29.3,0,53.05-11.37,53.05-25.4s-23.75-25.4-53.05-25.4-53.05,11.37-53.05,25.4,23.75,25.4,53.05,25.4Z"/>
    <path class="cls-3" d="M260.94,513.09c29.3,0,53.05-11.37,53.05-25.4s-23.75-25.4-53.05-25.4-53.05,11.37-53.05,25.4,23.75,25.4,53.05,25.4Z"/>
    <path class="cls-3" d="M313.99,477.33h-106.1v12.44h106.1v-12.44Z"/>
    <path class="cls-6" d="M260.94,503.64c29.3,0,53.05-11.37,53.05-25.4s-23.75-25.4-53.05-25.4-53.05,11.37-53.05,25.4,23.75,25.4,53.05,25.4Z"/>
    <path class="cls-2" d="M260.94,497.8c23.3,0,42.19-8.75,42.19-19.55s-18.89-19.55-42.19-19.55-42.19,8.75-42.19,19.55,18.89,19.55,42.19,19.55Z"/>
    <path class="cls-3" d="M248.8,480.01l-6.59-3.43,5.17-2.68,6.59,3.51c1.79,.81,3.74,1.23,5.71,1.23s3.92-.42,5.71-1.23c3.2-1.66,3.24-4.34,.12-6l-6.9-3.74,5.17-2.68,6.9,3.66c5.91,3.1,5.8,8.22-.23,11.36-3.4,1.55-7.09,2.36-10.82,2.36-3.74,0-7.43-.8-10.83-2.34h0Z"/>
    <path class="cls-3" d="M273.77,484.48l-23.52-12.48,5.17-2.68,23.52,12.48-5.17,2.68Z"/>
    <path class="cls-3" d="M282.13,480.14l-23.52-12.48,5.17-2.68,23.52,12.48-5.17,2.68Z"/>
    <path class="cls-3" d="M247.13,491.51l2.3-14.71-7.2-.28-1.78,11.43,6.69,3.55Z"/>
    <path class="cls-3" d="M260.94,495.11c29.3,0,53.05-11.37,53.05-25.4s-23.75-25.4-53.05-25.4-53.05,11.37-53.05,25.4,23.75,25.4,53.05,25.4Z"/>
    <path class="cls-3" d="M313.99,459.35h-106.1v12.44h106.1v-12.44Z"/>
    <path class="cls-6" d="M260.94,485.67c29.3,0,53.05-11.37,53.05-25.4s-23.75-25.4-53.05-25.4-53.05,11.37-53.05,25.4,23.75,25.4,53.05,25.4Z"/>
    <path class="cls-2" d="M260.94,479.81c23.3,0,42.19-8.75,42.19-19.55s-18.89-19.55-42.19-19.55-42.19,8.75-42.19,19.55,18.89,19.55,42.19,19.55Z"/>
    <path class="cls-3" d="M248.8,462.03l-6.59-3.51,5.17-2.68,6.59,3.51c1.79,.82,3.74,1.24,5.71,1.24s3.92-.42,5.71-1.24c3.2-1.65,3.24-4.35,.12-5.99l-6.9-3.68,5.17-2.68,6.9,3.66c5.91,3.1,5.8,8.22-.23,11.36-3.4,1.55-7.09,2.35-10.82,2.35-3.73,0-7.43-.79-10.83-2.34h0Z"/>
    <path class="cls-3" d="M273.77,466.5l-23.52-12.49,5.17-2.67,23.52,12.46-5.17,2.7Z"/>
    <path class="cls-3" d="M282.13,462.15l-23.52-12.47,5.17-2.68,23.52,12.48-5.17,2.68Z"/>
    <path class="cls-3" d="M247.13,473.51l2.3-14.71-7.2-.26-1.78,11.43,6.69,3.54Z"/>
    <path class="cls-3" d="M260.94,477.11c29.3,0,53.05-11.37,53.05-25.4s-23.75-25.4-53.05-25.4-53.05,11.37-53.05,25.4,23.75,25.4,53.05,25.4Z"/>
    <path class="cls-3" d="M313.99,441.35h-106.1v12.44h106.1v-12.44Z"/>
    <path class="cls-6" d="M260.94,467.67c29.3,0,53.05-11.37,53.05-25.4s-23.75-25.4-53.05-25.4-53.05,11.37-53.05,25.4,23.75,25.4,53.05,25.4Z"/>
    <path class="cls-2" d="M260.94,461.81c23.3,0,42.19-8.75,42.19-19.55s-18.89-19.55-42.19-19.55-42.19,8.75-42.19,19.55,18.89,19.55,42.19,19.55Z"/>
    <path class="cls-3" d="M248.8,444l-6.59-3.49,5.17-2.68,6.59,3.49c1.79,.82,3.74,1.24,5.71,1.24s3.92-.42,5.71-1.24c3.2-1.66,3.24-4.34,.12-5.99l-6.9-3.65,5.17-2.68,6.9,3.68c5.91,3.1,5.8,8.22-.23,11.36-3.4,1.54-7.09,2.34-10.83,2.33-3.73,0-7.42-.81-10.82-2.37h0Z"/>
    <path class="cls-3" d="M273.77,448.5l-23.52-12.47,5.17-2.68,23.52,12.47-5.17,2.68Z"/>
    <path class="cls-3" d="M282.13,444.15l-23.52-12.47,5.17-2.68,23.52,12.48-5.17,2.68Z"/>
    <path class="cls-3" d="M247.13,455.53l2.3-14.71-7.2-.26-1.78,11.42,6.69,3.55Z"/>
    <path class="cls-3" d="M260.94,459.13c29.3,0,53.05-11.37,53.05-25.4s-23.75-25.4-53.05-25.4-53.05,11.37-53.05,25.4,23.75,25.4,53.05,25.4Z"/>
    <path class="cls-3" d="M313.99,423.37h-106.1v12.44h106.1v-12.44Z"/>
    <path class="cls-6" d="M260.94,449.68c29.3,0,53.05-11.37,53.05-25.4s-23.75-25.4-53.05-25.4-53.05,11.37-53.05,25.4,23.75,25.4,53.05,25.4Z"/>
    <path class="cls-2" d="M260.94,443.83c23.3,0,42.19-8.75,42.19-19.55s-18.89-19.55-42.19-19.55-42.19,8.75-42.19,19.55,18.89,19.55,42.19,19.55Z"/>
    <path class="cls-3" d="M248.8,426.05l-6.59-3.51,5.17-2.68,6.58,3.51c1.79,.81,3.74,1.23,5.71,1.23s3.92-.42,5.71-1.23c3.2-1.66,3.24-4.35,.12-6l-6.89-3.66,5.17-2.68,6.9,3.66c5.91,3.1,5.8,8.22-.23,11.36-3.4,1.55-7.09,2.36-10.82,2.36-3.74,0-7.43-.8-10.83-2.34h0Z"/>
    <path class="cls-3" d="M273.77,430.52l-23.52-12.48,5.17-2.68,23.52,12.48-5.17,2.68Z"/>
    <path class="cls-3" d="M282.13,426.17l-23.52-12.48,5.17-2.68,23.52,12.48-5.17,2.68Z"/>
    <path class="cls-3" d="M247.13,437.54l2.3-14.71-7.2-.26-1.78,11.42,6.69,3.55Z"/>
    <path class="cls-3" d="M260.94,441.15c29.3,0,53.05-11.37,53.05-25.4s-23.75-25.4-53.05-25.4-53.05,11.37-53.05,25.4,23.75,25.4,53.05,25.4Z"/>
    <path class="cls-3" d="M313.99,405.38h-106.1v12.44h106.1v-12.44Z"/>
    <path class="cls-6" d="M260.94,431.7c29.3,0,53.05-11.37,53.05-25.4s-23.75-25.4-53.05-25.4-53.05,11.37-53.05,25.4,23.75,25.4,53.05,25.4Z"/>
    <path class="cls-2" d="M260.94,425.84c23.3,0,42.19-8.75,42.19-19.55s-18.89-19.55-42.19-19.55-42.19,8.75-42.19,19.55,18.89,19.55,42.19,19.55Z"/>
    <path class="cls-3" d="M248.8,408.07l-6.59-3.51,5.17-2.68,6.59,3.51c1.79,.82,3.74,1.24,5.71,1.24s3.92-.42,5.71-1.24c3.2-1.65,3.24-4.35,.12-5.99l-6.9-3.68,5.17-2.68,6.9,3.66c5.91,3.1,5.8,8.22-.23,11.36-3.4,1.55-7.09,2.35-10.82,2.35-3.73,0-7.43-.79-10.83-2.34h0Z"/>
    <path class="cls-3" d="M273.77,412.53l-23.52-12.47,5.17-2.7,23.52,12.49-5.17,2.68Z"/>
    <path class="cls-3" d="M282.13,408.19l-23.52-12.48,5.17-2.68,23.52,12.48-5.17,2.68Z"/>
    <path class="cls-3" d="M247.13,419.54l2.3-14.71-7.2-.26-1.78,11.43,6.69,3.54Z"/>
    <path class="cls-3" d="M260.94,423.15c29.3,0,53.05-11.37,53.05-25.4s-23.75-25.4-53.05-25.4-53.05,11.37-53.05,25.4,23.75,25.4,53.05,25.4Z"/>
    <path class="cls-3" d="M313.99,387.38h-106.1v12.44h106.1v-12.44Z"/>
    <path class="cls-6" d="M260.94,413.7c29.3,0,53.05-11.37,53.05-25.4s-23.75-25.4-53.05-25.4-53.05,11.37-53.05,25.4,23.75,25.4,53.05,25.4Z"/>
    <path class="cls-2" d="M260.94,407.85c23.3,0,42.19-8.75,42.19-19.55s-18.89-19.55-42.19-19.55-42.19,8.75-42.19,19.55,18.89,19.55,42.19,19.55Z"/>
    <path class="cls-3" d="M248.8,390.07l-6.59-3.48,5.17-2.68,6.59,3.49c1.79,.82,3.74,1.24,5.71,1.24s3.92-.42,5.71-1.24c3.2-1.66,3.24-4.34,.12-5.99l-6.9-3.69,5.17-2.68,6.9,3.68c5.91,3.1,5.8,8.22-.23,11.36-3.4,1.55-7.09,2.35-10.82,2.35s-7.42-.8-10.82-2.35h0Z"/>
    <path class="cls-3" d="M273.77,394.54l-23.52-12.47,5.17-2.68,23.52,12.48-5.17,2.68Z"/>
    <path class="cls-3" d="M282.13,390.19l-23.52-12.48,5.17-2.68,23.52,12.48-5.17,2.68Z"/>
    <path class="cls-3" d="M247.13,401.57l2.3-14.71-7.2-.26-1.78,11.42,6.69,3.55Z"/>
  </g>
  <g>
    <path class="cls-16" d="M361.43,531.1c29.3,0,53.05-11.37,53.05-25.4s-23.75-25.4-53.05-25.4-53.05,11.37-53.05,25.4,23.75,25.4,53.05,25.4Z"/>
    <path class="cls-3" d="M372.93,524.07c29.3,0,53.05-11.37,53.05-25.4s-23.75-25.4-53.05-25.4-53.05,11.37-53.05,25.4,23.75,25.4,53.05,25.4Z"/>
    <path class="cls-3" d="M425.98,488.3h-106.1v12.44h106.1v-12.44Z"/>
    <path class="cls-6" d="M372.93,514.62c29.3,0,53.05-11.37,53.05-25.4s-23.75-25.4-53.05-25.4-53.05,11.37-53.05,25.4,23.75,25.4,53.05,25.4Z"/>
    <path class="cls-2" d="M372.94,508.77c23.3,0,42.19-8.75,42.19-19.55s-18.89-19.55-42.19-19.55-42.19,8.75-42.19,19.55,18.89,19.55,42.19,19.55Z"/>
    <path class="cls-3" d="M360.8,490.99l-6.59-3.48,5.17-2.68,6.59,3.49c1.79,.82,3.74,1.25,5.71,1.25s3.92-.43,5.71-1.25c3.1-1.66,3.24-4.34,.12-5.99l-6.9-3.68,5.17-2.68,6.9,3.68c5.91,3.1,5.8,8.22-.23,11.36-3.4,1.55-7.09,2.35-10.82,2.34-3.73,0-7.42-.81-10.82-2.36h0Z"/>
    <path class="cls-3" d="M385.76,495.46l-23.52-12.47,5.17-2.68,23.52,12.47-5.17,2.68Z"/>
    <path class="cls-3" d="M394.12,491.12l-23.52-12.47,5.18-2.68,23.51,12.47-5.17,2.68Z"/>
    <path class="cls-3" d="M359.12,502.48l2.3-14.71-7.2-.26-1.78,11.42,6.69,3.55Z"/>
  </g>
</svg>