<svg width="16" height="16" viewBox="0 0 16 16" fill="none" xmlns="http://www.w3.org/2000/svg">
<path d="M9.45313 13.7116H6.54395L6.7865 11.4236H9.21082L9.45313 13.7116Z" fill="#132056" stroke="#132056" stroke-width="0.499962" stroke-linecap="round" stroke-linejoin="round"/>
<path d="M9.45313 13.7116H6.54395L6.7865 11.4236H9.21082L9.45313 13.7116Z" fill="#4F2DA7" stroke="#4F2DA7" stroke-width="0.499962" stroke-linecap="round" stroke-linejoin="round"/>
<path d="M0 1.99985C0 0.895362 0.895363 0 1.99985 0H13.9698C15.0743 0 15.9697 0.895363 15.9697 1.99985V9.88586C15.9697 10.9903 15.0743 11.8857 13.9698 11.8857H1.99985C0.895362 11.8857 0 10.9903 0 9.88586V1.99985Z" fill="white"/>
<path d="M0 1.99985C0 0.895362 0.895363 0 1.99985 0H13.9698C15.0743 0 15.9697 0.895363 15.9697 1.99985V9.88586C15.9697 10.9903 15.0743 11.8857 13.9698 11.8857H1.99985C0.895362 11.8857 0 10.9903 0 9.88586V1.99985Z" fill="#4F2DA7"/>
<path d="M0.656738 2.55844C0.656738 1.45396 1.5521 0.558594 2.65659 0.558594H13.3114C14.4159 0.558594 15.3113 1.45396 15.3113 2.55844V8.21588C15.3113 9.32037 14.4159 10.2157 13.3114 10.2157H2.65659C1.5521 10.2157 0.656738 9.32037 0.656738 8.21588V2.55844Z" fill="white"/>
<path opacity="0.1" d="M0.556152 1.63274C0.556152 1.08049 1.00383 0.632812 1.55608 0.632812H14.2107C14.763 0.632812 15.2107 1.08049 15.2107 1.63274V9.29003C15.2107 9.84227 14.763 10.29 14.2107 10.29H1.55608C1.00383 10.29 0.556152 9.84227 0.556152 9.29003V1.63274Z" fill="white"/>
<path d="M10.9094 14.8582H5.09131C5.09128 14.7323 5.11634 14.6077 5.16506 14.4914C5.21378 14.375 5.28521 14.2694 5.37526 14.1803C5.46532 14.0913 5.57223 14.0207 5.6899 13.9726C5.80757 13.9244 5.93368 13.8996 6.06104 13.8997H9.93896C10.0664 13.8996 10.1925 13.9243 10.3103 13.9724C10.428 14.0205 10.535 14.0911 10.6251 14.1802C10.7153 14.2692 10.7868 14.3749 10.8355 14.4912C10.8843 14.6076 10.9094 14.7323 10.9094 14.8582Z" fill="#132056" stroke="#132056" stroke-width="0.499962" stroke-linecap="round" stroke-linejoin="round"/>
<path opacity="0.96" d="M10.9094 14.8582H5.09131C5.09128 14.7323 5.11634 14.6077 5.16506 14.4914C5.21378 14.375 5.28521 14.2694 5.37526 14.1803C5.46532 14.0913 5.57223 14.0207 5.6899 13.9726C5.80757 13.9244 5.93368 13.8996 6.06104 13.8997H9.93896C10.0664 13.8996 10.1925 13.9243 10.3103 13.9724C10.428 14.0205 10.535 14.0911 10.6251 14.1802C10.7153 14.2692 10.7868 14.3749 10.8355 14.4912C10.8843 14.6076 10.9094 14.7323 10.9094 14.8582Z" fill="#4F2DA7" stroke="#4F2DA7" stroke-width="0.499962" stroke-linecap="round" stroke-linejoin="round"/>
<path d="M10.8955 14.6022H5.07129C5.07126 14.4802 5.09634 14.3594 5.14512 14.2468C5.19389 14.1341 5.26539 14.0317 5.35554 13.9455C5.44569 13.8593 5.55272 13.7909 5.67051 13.7442C5.7883 13.6975 5.91455 13.6736 6.04203 13.6736H9.92403C10.0516 13.6735 10.1779 13.6974 10.2957 13.7441C10.4136 13.7907 10.5207 13.8591 10.6109 13.9453C10.7012 14.0315 10.7727 14.1339 10.8216 14.2466C10.8704 14.3593 10.8955 14.4802 10.8955 14.6022Z" fill="#132056"/>
<path opacity="0.9" d="M10.8955 14.6022H5.07129C5.07126 14.4802 5.09634 14.3594 5.14512 14.2468C5.19389 14.1341 5.26539 14.0317 5.35554 13.9455C5.44569 13.8593 5.55272 13.7909 5.67051 13.7442C5.7883 13.6975 5.91455 13.6736 6.04203 13.6736H9.92403C10.0516 13.6735 10.1779 13.6974 10.2957 13.7441C10.4136 13.7907 10.5207 13.8591 10.6109 13.9453C10.7012 14.0315 10.7727 14.1339 10.8216 14.2466C10.8704 14.3593 10.8955 14.4802 10.8955 14.6022Z" fill="white"/>
<path opacity="0.9" d="M10.8955 14.6022H5.07129C5.07126 14.4802 5.09634 14.3594 5.14512 14.2468C5.19389 14.1341 5.26539 14.0317 5.35554 13.9455C5.44569 13.8593 5.55272 13.7909 5.67051 13.7442C5.7883 13.6975 5.91455 13.6736 6.04203 13.6736H9.92403C10.0516 13.6735 10.1779 13.6974 10.2957 13.7441C10.4136 13.7907 10.5207 13.8591 10.6109 13.9453C10.7012 14.0315 10.7727 14.1339 10.8216 14.2466C10.8704 14.3593 10.8955 14.4802 10.8955 14.6022Z" fill="#4F2DA7"/>
<path d="M7.69141 11.0909C7.69141 11.1397 7.70113 11.188 7.72001 11.2331C7.73889 11.2781 7.76657 11.3191 7.80146 11.3536C7.83635 11.388 7.87778 11.4154 7.92337 11.4341C7.96896 11.4527 8.01782 11.4623 8.06716 11.4623C8.11651 11.4623 8.16537 11.4527 8.21096 11.4341C8.25655 11.4154 8.29797 11.388 8.33286 11.3536C8.36776 11.3191 8.39543 11.2781 8.41432 11.2331C8.4332 11.188 8.44292 11.1397 8.44292 11.0909C8.44292 11.0421 8.4332 10.9938 8.41432 10.9488C8.39543 10.9037 8.36776 10.8628 8.33286 10.8283C8.29797 10.7938 8.25655 10.7664 8.21096 10.7478C8.16537 10.7291 8.11651 10.7195 8.06716 10.7195C8.01782 10.7195 7.96896 10.7291 7.92337 10.7478C7.87778 10.7664 7.83635 10.7938 7.80146 10.8283C7.76657 10.8628 7.73889 10.9037 7.72001 10.9488C7.70113 10.9938 7.69141 11.0421 7.69141 11.0909Z" fill="white"/>
<path fill-rule="evenodd" clip-rule="evenodd" d="M11.6956 2.23497C11.7132 2.21755 11.7371 2.20776 11.762 2.20776H12.9733C13.0252 2.20776 13.0673 2.24934 13.0673 2.30062C13.0673 2.3519 13.0252 2.39348 12.9733 2.39348H11.801L10.6164 3.56459C10.5798 3.60086 10.5203 3.60086 10.4836 3.5646C10.4469 3.52835 10.4469 3.46955 10.4836 3.43329L11.6956 2.23497Z" fill="#4F2DA7"/>
<path fill-rule="evenodd" clip-rule="evenodd" d="M7.8225 7.98063C7.86235 7.9478 7.92159 7.95312 7.9548 7.99252L9.13867 9.3967H10.7916C10.8435 9.3967 10.8855 9.43827 10.8855 9.48955C10.8855 9.54084 10.8435 9.58241 10.7916 9.58241H9.09467C9.06679 9.58241 9.04036 9.57017 9.02251 9.549L7.81047 8.11141C7.77726 8.07202 7.78264 8.01346 7.8225 7.98063Z" fill="#4F2DA7"/>
<path fill-rule="evenodd" clip-rule="evenodd" d="M2.69775 3.73845C2.69775 3.68717 2.73981 3.64559 2.79169 3.64559H4.7309C4.76461 3.64559 4.79573 3.66345 4.81246 3.69238L5.78219 5.36973C5.80793 5.41425 5.79228 5.47098 5.74724 5.49642C5.70219 5.52187 5.64481 5.5064 5.61907 5.46187L4.67639 3.83131H2.79169C2.73981 3.83131 2.69775 3.78973 2.69775 3.73845Z" fill="#4F2DA7"/>
<path d="M8.60645 1.33984V4.69479H12.0005C12.0005 3.805 11.6429 2.95166 11.0064 2.32248C10.3699 1.69331 9.5066 1.33984 8.60645 1.33984Z" fill="#119A4B"/>
<path d="M7.63948 2.29858C6.96822 2.29862 6.31205 2.4954 5.75394 2.86405C5.19582 3.2327 4.76083 3.75666 4.50395 4.36967C4.24708 4.98269 4.17987 5.65723 4.31081 6.308C4.44176 6.95878 4.76498 7.55655 5.23961 8.02575L7.63948 5.65353V2.29858Z" fill="#9D95F8"/>
<path d="M11.031 5.65479H7.63815L5.23828 8.02701C5.71295 8.49617 6.31769 8.81567 6.97605 8.94511C7.63441 9.07454 8.31681 9.0081 8.93697 8.75419C9.55713 8.50028 10.0872 8.07029 10.4601 7.5186C10.8331 6.96692 11.0322 6.31831 11.0322 5.65479H11.031Z" fill="#675AF6"/>
</svg>
