<?xml version="1.0" encoding="UTF-8"?>
<svg id="Layer_2" data-name="Layer 2" xmlns="http://www.w3.org/2000/svg" viewBox="0 0 40 34.38">
  <defs>
    <style>
      .cls-1 {
        fill: #a7a9ac;
      }
    </style>
  </defs>
  <g id="Layer_1-2" data-name="Layer 1">
    <g>
      <path class="cls-1" d="M36.25,33.12v-4.37h0v-1.25h0s1.25,0,1.25,0v-1.25h-1.25v-6.25h0s1.25,0,1.25,0v-1.25h-1.25v-6.25h0c0-1.04-.84-1.87-1.88-1.87-.22,0-.43,.05-.63,.11v-.11h-1.25v5h-1.25v-3.75c0-.35-.28-.63-.63-.63s-.63,.28-.63,.63v3.75h-1.25v-2.5s0,0,0,0v-2.5h5c0-.69-.56-1.25-1.25-1.25h-1.25v-1.25c0-.35-.28-.63-.63-.63s-.63,.28-.63,.63v1.25h-1.25v-2.5h0c0-1.16-.8-2.13-1.88-2.41v-1.34c0-.35-.28-.62-.63-.62s-.63,.28-.63,.62v1.34c-.65,.17-1.2,.59-1.53,1.16h-1.6v-1.25h0c0-1.16-.8-2.13-1.88-2.41V.63c0-.35-.28-.63-.62-.63s-.63,.28-.63,.63V1.96c-1.08,.28-1.88,1.25-1.88,2.41h0v1.25h-1.6c-.33-.57-.88-.99-1.53-1.16v-1.34c0-.35-.28-.62-.63-.62s-.62,.28-.62,.62v1.34c-1.08,.28-1.87,1.25-1.87,2.41h0v2.5h-1.25v-1.25c0-.35-.28-.63-.63-.63s-.62,.28-.62,.63v1.25h-1.25c-.69,0-1.25,.56-1.25,1.25h5v5h-1.25v-3.75c0-.35-.28-.63-.63-.63s-.62,.28-.62,.63v3.75h-1.25v-3.12h0s0,0,0,0v-1.87h-1.25v.11c-.2-.07-.4-.11-.62-.11-1.04,0-1.87,.84-1.87,1.87h0v6.25h-1.25v1.25h1.25v6.25h-1.25v1.25h1.25v3.75h0v.63h0v1.25H0v1.25H40v-1.25h-3.75Zm-2.5-13.12h0c0-.35,.28-.63,.62-.63s.62,.28,.62,.62v5.74c-.2-.07-.4-.11-.62-.11s-.43,.05-.63,.11v-5.74Zm0,7.5h0c0-.35,.28-.63,.62-.63s.62,.28,.62,.62v3.13h-1.25v-3.12Zm0-15h0c0-.35,.28-.62,.62-.62s.63,.28,.63,.62h0v5.74c-.2-.07-.4-.11-.62-.11s-.43,.05-.63,.11v-1.36h0v-1.25h0v-3.12Zm-3.75,4.37h0s1.25,0,1.25,0h0s1.25,0,1.25,0v13.75h-1.25v-3.75c0-.35-.28-.63-.63-.63s-.63,.28-.63,.63v3.75h-1.25v-2.5s0,0,0,0v-3.75h0v-3.75s0,0,0,0v-3.75h0s1.25,0,1.25,0ZM10,26.87c0-.35-.28-.63-.63-.63s-.62,.28-.62,.63v3.75h-1.25v-3.12h0s0,0,0,0v-3.12h1.25s1.25,0,1.25,0h0s1.25,0,1.25,0v3.75h0v2.5h-1.25v-3.75Zm-3.75-1.14c-.2-.07-.4-.11-.62-.11s-.43,.05-.63,.11v-5.74h0c0-.35,.28-.63,.63-.63s.62,.28,.62,.62v5.74Zm-1.25,3.01v-1.25h0c0-.35,.28-.63,.63-.63s.62,.28,.62,.62v3.13h-1.25v-1.87h0Zm10,1.87h-.63v-1.87c0-.35-.28-.63-.63-.63s-.62,.28-.62,.63v1.87h-.63v-2.5c0-.69,.56-1.25,1.25-1.25s1.25,.56,1.25,1.25h0s0,0,0,0h0v2.5Zm0-4.65c-.37-.21-.79-.35-1.25-.35s-.88,.13-1.25,.35v-1.6h0v-3.75c0-.69,.56-1.25,1.25-1.25s1.25,.56,1.25,1.25v5.35Zm1.25,2.15s0,0,0,0v-3.75h0v-3.75s0,0,0,0v-7.5h0s0,0,0,0v-2.5h1.25V28.12h0v2.5h-1.25v-2.5Zm5,2.5h-.63v-1.87c0-.35-.28-.63-.62-.63s-.63,.28-.63,.63v1.87h-.63v-2.5c0-.69,.56-1.25,1.25-1.25s1.25,.56,1.25,1.25h0s0,0,0,0h0v2.5Zm-2.5-6.25v-3.75c0-.69,.56-1.25,1.25-1.25s1.25,.56,1.25,1.25v5.35c-.37-.21-.79-.35-1.25-.35s-.88,.13-1.25,.35v-1.6h0Zm2.5-5.9c-.37-.21-.79-.35-1.25-.35s-.88,.13-1.25,.35v-1.6h0v-3.75c0-.69,.56-1.25,1.25-1.25s1.25,.56,1.25,1.25v5.35Zm1.25,9.65s0,0,0,0v-3.75h0v-3.75s0,0,0,0v-3.75h0v-3.75s0,0,0,0v-2.5h1.25V28.12h0v2.5h-1.25v-2.5Zm5,2.5h-.62v-1.87c0-.35-.28-.63-.63-.63s-.63,.28-.63,.63v1.87h-.62v-2.5c0-.69,.56-1.25,1.25-1.25s1.25,.56,1.25,1.25h0s0,0,0,0h0v2.5Zm-2.5-6.25v-3.75c0-.69,.56-1.25,1.25-1.25s1.25,.56,1.25,1.25v5.35c-.37-.21-.79-.35-1.25-.35s-.88,.13-1.25,.35v-1.6h0Zm2.5-5.9c-.37-.21-.79-.35-1.25-.35s-.88,.13-1.25,.35v-1.6h0v-3.75c0-.69,.56-1.25,1.25-1.25s1.25,.56,1.25,1.25v5.35Zm-1.25-12.85c.69,0,1.25,.56,1.25,1.25h0v4.1c-.37-.21-.79-.35-1.25-.35s-.88,.13-1.25,.35v-.35h0v-1.25h0v-2.5h0c0-.69,.56-1.25,1.25-1.25Zm-2.5,1.25v2.5h-1.25v-2.5h1.25Zm-5-2.5c0-.69,.56-1.25,1.25-1.25s1.25,.56,1.25,1.25v2.5h0v4.1c-.37-.21-.79-.35-1.25-.35s-.88,.13-1.25,.35v-.35h0v-1.25h0V4.37Zm-1.25,2.5v2.5h-1.25v-2.5h0s1.25,0,1.25,0Zm-5,2.5v-2.5h0c0-.69,.56-1.25,1.25-1.25s1.25,.56,1.25,1.25h0v4.1c-.37-.21-.79-.35-1.25-.35s-.88,.13-1.25,.35v-.35h0v-1.25h0Zm0,3.75h0c0-.69,.56-1.25,1.25-1.25s1.25,.56,1.25,1.25v5.35c-.37-.21-.79-.35-1.25-.35s-.88,.13-1.25,.35v-1.6h0v-1.25h0v-2.5Zm-3.75,3.75h0s1.25,0,1.25,0h0s1.25,0,1.25,0v6.25h-1.25v-3.75c0-.35-.28-.62-.63-.62s-.62,.28-.62,.62v3.75h-1.25v-3.12h0s0,0,0,0v-3.12h1.25Zm-3.75-4.37c0-.35,.28-.62,.63-.62s.62,.28,.62,.62v5.74c-.2-.07-.4-.11-.62-.11s-.43,.05-.63,.11v-5.74h0Zm0,19.37h3.75s1.25,0,1.25,0h0s1.25,0,1.25,0h0s1.25,0,1.25,0h3.75s1.25,0,1.25,0h0s1.25,0,1.25,0h3.75s1.25,0,1.25,0h0s1.25,0,1.25,0h3.75s1.25,0,1.25,0h0s1.25,0,1.25,0h0s1.25,0,1.25,0h2.5v1.25H5v-1.25Z"/>
      <path class="cls-1" d="M20,13.12c-.35,0-.63,.28-.63,.63v1.87c0,.35,.28,.63,.63,.63s.62-.28,.62-.63v-1.87c0-.35-.28-.63-.62-.63Z"/>
      <path class="cls-1" d="M26.25,13.12c-.35,0-.63,.28-.63,.63v1.87c0,.35,.28,.63,.63,.63s.63-.28,.63-.63v-1.87c0-.35-.28-.63-.63-.63Z"/>
      <path class="cls-1" d="M13.75,16.25c.35,0,.63-.28,.63-.63v-1.87c0-.35-.28-.63-.63-.63s-.62,.28-.62,.63v1.87c0,.35,.28,.63,.62,.63Z"/>
      <path class="cls-1" d="M20,8.75c.35,0,.62-.28,.62-.63v-1.87c0-.35-.28-.63-.62-.63s-.63,.28-.63,.63v1.87c0,.35,.28,.63,.63,.63Z"/>
      <path class="cls-1" d="M26.25,10c.35,0,.63-.28,.63-.62v-1.88c0-.35-.28-.62-.63-.62s-.63,.28-.63,.62v1.88c0,.35,.28,.62,.63,.62Z"/>
      <path class="cls-1" d="M13.75,10c.35,0,.63-.28,.63-.62v-1.88c0-.35-.28-.62-.63-.62s-.62,.28-.62,.62v1.88c0,.35,.28,.62,.62,.62Z"/>
      <path class="cls-1" d="M20,23.75c.35,0,.62-.28,.62-.62v-1.88c0-.35-.28-.62-.62-.62s-.63,.28-.63,.62v1.88c0,.35,.28,.62,.63,.62Z"/>
      <path class="cls-1" d="M26.25,23.75c.35,0,.63-.28,.63-.62v-1.88c0-.35-.28-.62-.63-.62s-.63,.28-.63,.62v1.88c0,.35,.28,.62,.63,.62Z"/>
      <path class="cls-1" d="M13.75,20.63c-.35,0-.62,.28-.62,.62v1.88c0,.35,.28,.62,.62,.62s.63-.28,.63-.62v-1.88c0-.35-.28-.62-.63-.62Z"/>
      <path class="cls-1" d="M31.25,19.37c0-.35-.28-.62-.63-.62s-.63,.28-.63,.62v5h1.25v-5Z"/>
    </g>
  </g>
</svg>