<svg width="157" height="30" viewBox="0 0 157 30" fill="none" xmlns="http://www.w3.org/2000/svg">
<path fill-rule="evenodd" clip-rule="evenodd" d="M-0.000488281 16.5693H5.7812L8.67871 22.1192L11.5761 16.5693H17.305L14.434 11.0589L17.305 5.5499H11.5761L8.67871 0L5.7812 5.5499H-0.000488281L2.88384 11.0589L-0.000488281 16.5693ZM8.52068 9.33762C9.3899 9.33762 10.101 10.1107 10.101 11.0589C10.101 12.0058 9.3899 12.7763 8.52068 12.7763C7.65145 12.7763 6.95335 12.0058 6.95335 11.0589C6.95335 10.1107 7.65145 9.33762 8.52068 9.33762ZM7.30897 16.5693H10.0483L8.67871 19.1954L7.30897 16.5693ZM13.6701 9.59441L12.3268 6.99729H15.0266L13.6701 9.59441ZM5.01739 6.99729L3.64765 9.601L2.29125 6.99729H5.01739ZM7.30897 5.5499H10.0483L8.67871 2.91982L7.30897 5.5499ZM13.6701 12.5248L12.3268 15.1193H15.0266L13.6701 12.5248ZM5.01739 15.1193L3.64765 12.5182L2.29125 15.1193H5.01739ZM6.54516 6.99729H10.7991L12.9063 11.0589L10.7991 15.1193H6.54516L4.4248 11.0589L6.54516 6.99729Z" fill="#92278F"/>
<path d="M25.0535 16.5117V5.47119H26.3837V10.946L31.362 5.47119H33.1663L28.9519 9.94768L33.3375 16.5117H31.5859L28.0299 10.9249L26.3837 12.6871V16.5117H25.0535ZM39.0401 15.5239C38.5791 15.9533 38.1313 16.2522 37.7231 16.4313C37.3016 16.6038 36.8408 16.6921 36.3535 16.6921C35.5633 16.6921 34.9575 16.4787 34.5228 16.0481C34.0882 15.6213 33.8775 15.0722 33.8775 14.4071C33.8775 14.0107 33.9565 13.6577 34.1277 13.3311C34.2857 13.0071 34.4964 12.7489 34.7598 12.5514C35.0232 12.3578 35.313 12.2077 35.6423 12.1049C35.8793 12.0365 36.248 11.9693 36.7353 11.9061C37.7231 11.7731 38.4607 11.619 38.9348 11.4372C38.9348 11.2515 38.9348 11.133 38.9348 11.0843C38.9348 10.5324 38.8294 10.1426 38.5923 9.92003C38.2763 9.61185 37.8022 9.45775 37.1832 9.45775C36.6037 9.45775 36.1822 9.5684 35.9056 9.79098C35.629 10.0149 35.4315 10.4113 35.2866 10.9815L34.0881 10.7971C34.1935 10.2321 34.3779 9.76988 34.6281 9.42483C34.8784 9.07582 35.2472 8.80585 35.7214 8.61488C36.1955 8.4305 36.7355 8.33173 37.3676 8.33173C37.9866 8.33173 38.4869 8.41076 38.8689 8.5767C39.264 8.73737 39.5538 8.93754 39.7381 9.18118C39.9093 9.42747 40.0411 9.73301 40.1201 10.1057C40.1596 10.3336 40.1727 10.7537 40.1727 11.3516V13.1599C40.1727 14.4242 40.1991 15.217 40.2518 15.5516C40.3045 15.8848 40.4098 16.2061 40.5679 16.5117H39.2772C39.1587 16.2338 39.0664 15.9019 39.0401 15.5239ZM38.9348 12.4987C38.487 12.7029 37.8153 12.8728 36.9197 13.0124C36.4193 13.0914 36.0506 13.1836 35.853 13.281C35.6423 13.3838 35.4711 13.53 35.3657 13.7249C35.2472 13.9185 35.1945 14.1292 35.1945 14.3663C35.1945 14.7271 35.3129 15.0287 35.5632 15.2723C35.8134 15.5107 36.1691 15.6319 36.6564 15.6319C37.1305 15.6319 37.5519 15.5173 37.9207 15.2869C38.2894 15.0616 38.566 14.7455 38.7372 14.3518C38.8689 14.0449 38.9348 13.5918 38.9348 12.9966V12.4987ZM42.0693 16.5117V8.51742H43.1755V9.72775C43.4653 9.16539 43.7286 8.78739 43.9657 8.60696C44.2027 8.42917 44.4663 8.33173 44.756 8.33173C45.1643 8.33173 45.5857 8.48055 46.0203 8.76898L45.5989 10.028C45.296 9.83311 44.993 9.73435 44.6901 9.73435C44.4135 9.73435 44.1764 9.82653 43.9657 10.0056C43.755 10.1821 43.597 10.4337 43.5048 10.7458C43.3731 11.2252 43.3072 11.7533 43.3072 12.3236V16.5117H42.0693ZM46.7577 16.5117V8.51742H47.8641V9.65006C48.3909 8.77162 49.168 8.33173 50.1689 8.33173C50.6035 8.33173 51.0117 8.42522 51.3804 8.59643C51.736 8.76896 52.0126 8.99548 52.197 9.27732C52.3814 9.55785 52.5131 9.89238 52.5921 10.2783C52.6317 10.5298 52.6449 10.9684 52.6449 11.5979V16.5117H51.42V11.6453C51.42 11.0961 51.3673 10.6839 51.2751 10.4113C51.183 10.1386 51.0117 9.92003 50.7747 9.75541C50.5244 9.59341 50.2347 9.50911 49.9054 9.50911C49.3786 9.50911 48.9309 9.69352 48.549 10.0583C48.1671 10.4231 47.9826 11.1198 47.9826 12.1445V16.5117H46.7577ZM59.2825 15.5239C58.8215 15.9533 58.3869 16.2522 57.9655 16.4313C57.544 16.6038 57.0832 16.6921 56.5959 16.6921C55.8057 16.6921 55.1867 16.4787 54.7652 16.0481C54.3306 15.6213 54.1199 15.0722 54.1199 14.4071C54.1199 14.0107 54.1989 13.6577 54.3701 13.3311C54.5281 13.0071 54.7388 12.7489 55.0022 12.5514C55.2524 12.3578 55.5554 12.2077 55.8847 12.1049C56.1217 12.0365 56.4904 11.9693 56.9777 11.9061C57.9787 11.7731 58.7031 11.619 59.1772 11.4372C59.1772 11.2515 59.1772 11.133 59.1772 11.0843C59.1772 10.5324 59.0718 10.1426 58.8348 9.92003C58.5187 9.61185 58.0446 9.45775 57.4256 9.45775C56.8461 9.45775 56.4246 9.5684 56.148 9.79098C55.8714 10.0149 55.6739 10.4113 55.5422 10.9815L54.3305 10.7971C54.4491 10.2321 54.6203 9.76988 54.8705 9.42483C55.1208 9.07582 55.4896 8.80585 55.9638 8.61488C56.4379 8.4305 56.9779 8.33173 57.61 8.33173C58.229 8.33173 58.7294 8.41076 59.1245 8.5767C59.5064 8.73737 59.7962 8.93754 59.9805 9.18118C60.1649 9.42747 60.2835 9.73301 60.3625 10.1057C60.402 10.3336 60.4153 10.7537 60.4153 11.3516V13.1599C60.4153 14.4242 60.4415 15.217 60.4942 15.5516C60.5469 15.8848 60.6522 16.2061 60.8103 16.5117H59.5196C59.4011 16.2338 59.322 15.9019 59.2825 15.5239ZM59.1772 12.4987C58.7294 12.7029 58.0577 12.8728 57.1621 13.0124C56.6617 13.0914 56.293 13.1836 56.0954 13.281C55.8847 13.3838 55.7135 13.53 55.6081 13.7249C55.4896 13.9185 55.4369 14.1292 55.4369 14.3663C55.4369 14.7271 55.5555 15.0287 55.8057 15.2723C56.056 15.5107 56.4247 15.6319 56.8988 15.6319C57.3729 15.6319 57.7943 15.5173 58.1631 15.2869C58.5318 15.0616 58.7952 14.7455 58.9796 14.3518C59.1113 14.0449 59.1772 13.5918 59.1772 12.9966V12.4987ZM65.0116 15.3L65.1958 16.4972C64.8534 16.5749 64.5374 16.6183 64.2608 16.6183C63.813 16.6183 63.4706 16.542 63.2203 16.3865C62.9833 16.2311 62.799 16.027 62.7068 15.7715C62.6015 15.5173 62.5488 14.9813 62.5488 14.1687V9.56839H61.6532V8.51742H62.5488V6.53531L63.7735 5.72404V8.51742H65.0116V9.56839H63.7735V14.2464C63.7735 14.631 63.7999 14.8799 63.8394 14.9918C63.8921 15.1012 63.9579 15.1867 64.0632 15.2566C64.1554 15.3198 64.2872 15.3514 64.4716 15.3514C64.6165 15.3514 64.7877 15.3356 65.0116 15.3ZM70.9643 15.5239C70.5034 15.9533 70.0688 16.2522 69.6473 16.4313C69.2259 16.6038 68.7651 16.6921 68.2778 16.6921C67.4876 16.6921 66.8685 16.4787 66.4471 16.0481C66.0125 15.6213 65.8018 15.0722 65.8018 14.4071C65.8018 14.0107 65.8807 13.6577 66.0519 13.3311C66.21 13.0071 66.4207 12.7489 66.6841 12.5514C66.9475 12.3578 67.2373 12.2077 67.5665 12.1049C67.8168 12.0365 68.1723 11.9693 68.6596 11.9061C69.6605 11.7731 70.3849 11.619 70.859 11.4372C70.859 11.2515 70.859 11.133 70.859 11.0843C70.859 10.5324 70.7405 10.1426 70.5166 9.92003C70.2005 9.61185 69.7265 9.45775 69.1207 9.45775C68.5412 9.45775 68.1064 9.5684 67.8299 9.79098C67.5533 10.0149 67.3558 10.4113 67.2109 10.9815L66.0125 10.7971C66.1311 10.2321 66.3022 9.76988 66.5524 9.42483C66.8026 9.07582 67.1715 8.80585 67.6456 8.61488C68.1197 8.4305 68.6597 8.33173 69.2919 8.33173C69.9109 8.33173 70.4112 8.41076 70.8063 8.5767C71.1882 8.73737 71.4648 8.93754 71.6624 9.18118C71.8468 9.42747 71.9654 9.73301 72.0444 10.1057C72.0839 10.3336 72.0971 10.7537 72.0971 11.3516V13.1599C72.0971 14.4242 72.1234 15.217 72.1761 15.5516C72.2287 15.8848 72.3341 16.2061 72.4921 16.5117H71.2015C71.0829 16.2338 70.9907 15.9019 70.9643 15.5239ZM70.859 12.4987C70.4113 12.7029 69.7395 12.8728 68.844 13.0124C68.3435 13.0914 67.988 13.1836 67.7773 13.281C67.5666 13.3838 67.3954 13.53 67.29 13.7249C67.1715 13.9185 67.1188 14.1292 67.1188 14.3663C67.1188 14.7271 67.2374 15.0287 67.4876 15.2723C67.7378 15.5107 68.1065 15.6319 68.5806 15.6319C69.0548 15.6319 69.4762 15.5173 69.8449 15.2869C70.2137 15.0616 70.4902 14.7455 70.6615 14.3518C70.7932 14.0449 70.859 13.5918 70.859 12.9966V12.4987ZM74.0199 16.5117V5.47119H75.2446V11.7691L78.1685 8.51742H79.7488L76.97 11.4846L80.0386 16.5117H78.5109L76.1139 12.4223L75.2446 13.3429V16.5117H74.0199ZM85.7545 15.5239C85.2935 15.9533 84.8589 16.2522 84.4375 16.4313C84.016 16.6038 83.5682 16.6921 83.0809 16.6921C82.2775 16.6921 81.6717 16.4787 81.2371 16.0481C80.8025 15.6213 80.5918 15.0722 80.5918 14.4071C80.5918 14.0107 80.6707 13.6577 80.8419 13.3311C80.9999 13.0071 81.2108 12.7489 81.4742 12.5514C81.7376 12.3578 82.0272 12.2077 82.3565 12.1049C82.6067 12.0365 82.9624 11.9693 83.4497 11.9061C84.4506 11.7731 85.1749 11.619 85.649 11.4372C85.6622 11.2515 85.6622 11.133 85.6622 11.0843C85.6622 10.5324 85.5436 10.1426 85.3066 9.92003C84.9905 9.61185 84.5296 9.45775 83.9106 9.45775C83.3312 9.45775 82.8966 9.5684 82.62 9.79098C82.3434 10.0149 82.1458 10.4113 82.0141 10.9815L80.8025 10.7971C80.921 10.2321 81.0921 9.76988 81.3424 9.42483C81.5926 9.07582 81.9615 8.80585 82.4356 8.61488C82.9097 8.4305 83.4629 8.33173 84.0819 8.33173C84.7008 8.33173 85.2013 8.41076 85.5964 8.5767C85.9784 8.73737 86.268 8.93754 86.4524 9.18118C86.6236 9.42747 86.7553 9.73301 86.8344 10.1057C86.8739 10.3336 86.8871 10.7537 86.8871 11.3516V13.1599C86.8871 14.4242 86.9265 15.217 86.966 15.5516C87.0319 15.8848 87.1241 16.2061 87.2821 16.5117H85.9915C85.8729 16.2338 85.794 15.9019 85.7545 15.5239ZM85.649 12.4987C85.2012 12.7029 84.5295 12.8728 83.634 13.0124C83.1335 13.0914 82.778 13.1836 82.5673 13.281C82.3565 13.3838 82.1985 13.53 82.08 13.7249C81.9614 13.9185 81.9088 14.1292 81.9088 14.3663C81.9088 14.7271 82.0405 15.0287 82.2776 15.2723C82.5278 15.5107 82.8965 15.6319 83.3706 15.6319C83.8447 15.6319 84.2661 15.5173 84.6349 15.2869C85.0037 15.0616 85.2802 14.7455 85.4514 14.3518C85.5831 14.0449 85.649 13.5918 85.649 12.9966V12.4987ZM92.7873 16.5117V5.47119H96.5539C97.3177 5.47119 97.9368 5.5884 98.3977 5.80571C98.8587 6.03223 99.2274 6.37728 99.4908 6.8435C99.7542 7.30577 99.886 7.78913 99.886 8.29881C99.886 8.76898 99.7674 9.21411 99.5303 9.62896C99.3064 10.0465 98.9508 10.3836 98.4767 10.6378C99.0825 10.838 99.5567 11.1712 99.8728 11.64C100.202 12.1129 100.36 12.6712 100.36 13.3126C100.36 13.8315 100.268 14.3096 100.07 14.7521C99.8728 15.2012 99.6225 15.5423 99.3328 15.7847C99.043 16.027 98.6743 16.2035 98.2397 16.326C97.7919 16.4524 97.252 16.5117 96.6198 16.5117H92.7873ZM94.1175 10.1123H96.2905C96.8832 10.1123 97.3046 10.0675 97.5548 9.98719C97.8972 9.87261 98.1474 9.68955 98.3186 9.43668C98.4898 9.17723 98.5689 8.85587 98.5689 8.46999C98.5689 8.10386 98.4899 7.78383 98.3318 7.50595C98.1738 7.22279 97.9499 7.0384 97.6469 6.93172C97.3572 6.829 96.8437 6.77634 96.1325 6.77634H94.1175V10.1123ZM94.1175 15.2078H96.6198C97.0544 15.2078 97.3441 15.1946 97.5285 15.1578C97.8314 15.0945 98.0815 14.9971 98.2923 14.8562C98.4898 14.7192 98.661 14.5098 98.7927 14.2438C98.9244 13.9725 98.9903 13.663 98.9903 13.3126C98.9903 12.9044 98.8982 12.5475 98.7006 12.2406C98.5162 11.9364 98.2529 11.7217 97.9104 11.6005C97.568 11.4781 97.0807 11.4161 96.4486 11.4161H94.1175V15.2078ZM106.774 15.5239C106.313 15.9533 105.878 16.2522 105.457 16.4313C105.035 16.6038 104.588 16.6921 104.1 16.6921C103.297 16.6921 102.691 16.4787 102.256 16.0481C101.835 15.6213 101.611 15.0722 101.611 14.4071C101.611 14.0107 101.703 13.6577 101.861 13.3311C102.02 13.0071 102.23 12.7489 102.494 12.5514C102.757 12.3578 103.047 12.2077 103.389 12.1049C103.626 12.0365 103.995 11.9693 104.482 11.9061C105.47 11.7731 106.208 11.619 106.669 11.4372C106.682 11.2515 106.682 11.133 106.682 11.0843C106.682 10.5324 106.563 10.1426 106.326 9.92003C106.01 9.61185 105.549 9.45775 104.93 9.45775C104.351 9.45775 103.929 9.5684 103.639 9.79098C103.376 10.0149 103.165 10.4113 103.034 10.9815L101.835 10.7971C101.94 10.2321 102.125 9.76988 102.375 9.42483C102.625 9.07582 102.981 8.80585 103.455 8.61488C103.929 8.4305 104.482 8.33173 105.101 8.33173C105.72 8.33173 106.234 8.41076 106.616 8.5767C106.998 8.73737 107.288 8.93754 107.472 9.18118C107.656 9.42747 107.788 9.73301 107.854 10.1057C107.893 10.3336 107.92 10.7537 107.92 11.3516V13.1599C107.92 14.4242 107.946 15.217 107.999 15.5516C108.051 15.8848 108.144 16.2061 108.302 16.5117H107.024C106.892 16.2338 106.813 15.9019 106.774 15.5239ZM106.669 12.4987C106.221 12.7029 105.549 12.8728 104.667 13.0124C104.153 13.0914 103.797 13.1836 103.587 13.281C103.376 13.3838 103.218 13.53 103.099 13.7249C102.994 13.9185 102.928 14.1292 102.928 14.3663C102.928 14.7271 103.06 15.0287 103.297 15.2723C103.547 15.5107 103.916 15.6319 104.39 15.6319C104.864 15.6319 105.286 15.5173 105.654 15.2869C106.023 15.0616 106.3 14.7455 106.471 14.3518C106.603 14.0449 106.669 13.5918 106.669 12.9966V12.4987ZM109.829 16.5117V8.51742H110.936V9.65006C111.462 8.77162 112.24 8.33173 113.24 8.33173C113.688 8.33173 114.083 8.42522 114.452 8.59643C114.821 8.76896 115.084 8.99548 115.282 9.27732C115.466 9.55785 115.585 9.89238 115.664 10.2783C115.703 10.5298 115.73 10.9684 115.73 11.5979V16.5117H114.492V11.6453C114.492 11.0961 114.452 10.6839 114.347 10.4113C114.254 10.1386 114.083 9.92003 113.846 9.75541C113.596 9.59341 113.319 9.50911 112.99 9.50911C112.463 9.50911 112.002 9.69352 111.62 10.0583C111.238 10.4231 111.054 11.1198 111.054 12.1445V16.5117H109.829ZM117.626 16.5117V5.47119H118.851V11.7691L121.761 8.51742H123.355L120.576 11.4846L123.645 16.5117H122.13L119.72 12.4223L118.851 13.3429V16.5117H117.626ZM128.61 16.5117V5.47119H129.94V15.2078H134.879V16.5117H128.61ZM138.988 15.3L139.159 16.4972C138.817 16.5749 138.514 16.6183 138.237 16.6183C137.789 16.6183 137.447 16.542 137.197 16.3865C136.947 16.2311 136.775 16.027 136.683 15.7715C136.578 15.5173 136.525 14.9813 136.525 14.1687V9.56839H135.616V8.51742H136.525V6.53531L137.75 5.72404V8.51742H138.988V9.56839H137.75V14.2464C137.75 14.631 137.776 14.8799 137.816 14.9918C137.855 15.1012 137.921 15.1867 138.026 15.2566C138.119 15.3198 138.264 15.3514 138.448 15.3514C138.58 15.3514 138.764 15.3356 138.988 15.3ZM144.901 16.5117V15.5015C144.44 16.297 143.769 16.6921 142.873 16.6921C142.294 16.6921 141.767 16.5169 141.266 16.164C140.792 15.8136 140.41 15.3277 140.147 14.6929C139.87 14.0633 139.752 13.3403 139.752 12.5225C139.752 11.723 139.87 11.0026 140.107 10.3481C140.357 9.69616 140.713 9.20356 141.2 8.85587C141.675 8.50818 142.215 8.33173 142.82 8.33173C143.255 8.33173 143.65 8.43574 143.979 8.63988C144.322 8.84402 144.612 9.10743 144.822 9.43668V5.47119H146.047V16.5117H144.901ZM141.003 12.5225C141.003 13.5471 141.214 14.3122 141.595 14.8167C141.991 15.3277 142.452 15.5805 142.992 15.5805C143.518 15.5805 143.979 15.3356 144.361 14.8509C144.73 14.3676 144.928 13.63 144.928 12.6344C144.928 11.5373 144.73 10.7392 144.348 10.2256C143.966 9.71062 143.492 9.45775 142.926 9.45775C142.386 9.45775 141.925 9.70142 141.569 10.194C141.201 10.6865 141.003 11.4636 141.003 12.5225ZM148.326 16.5117V14.9668H149.735V16.5117H148.326Z" fill="#92278F"/>
<path d="M92.5398 18.1835H93.3563L93.8174 19.0896L94.2915 18.1835H95.0949L94.1861 19.7402V20.861H93.4618V19.7402L92.5398 18.1835ZM94.9237 19.8982C94.9237 19.6019 95.0158 19.3569 95.187 19.1686C95.3582 18.975 95.5953 18.8789 95.8982 18.8789C96.2275 18.8789 96.4908 18.9908 96.662 19.2173C96.7937 19.4004 96.8728 19.619 96.8728 19.8864C96.8728 20.184 96.7807 20.4316 96.6095 20.6213C96.4383 20.8122 96.2011 20.9071 95.8982 20.9071C95.6217 20.9071 95.3978 20.8267 95.2265 20.6674C95.029 20.4711 94.9237 20.2156 94.9237 19.8982ZM95.569 19.8956C95.569 20.0668 95.6084 20.1972 95.6611 20.2802C95.7269 20.3605 95.806 20.4053 95.8982 20.4053C95.9904 20.4053 96.0695 20.3645 96.1222 20.2815C96.188 20.1998 96.2143 20.0668 96.2143 19.8864C96.2143 19.7191 96.188 19.5953 96.1222 19.5123C96.0695 19.4294 95.9904 19.3912 95.8982 19.3912C95.806 19.3912 95.727 19.4294 95.6743 19.5163C95.6084 19.598 95.569 19.727 95.569 19.8956ZM98.9668 20.861H98.361V20.5449C98.2688 20.6766 98.1767 20.7727 98.0845 20.8241C97.9923 20.8794 97.8869 20.9071 97.7421 20.9071C97.5709 20.9071 97.4391 20.8452 97.3205 20.724C97.2283 20.6002 97.1757 20.4119 97.1757 20.1537V18.9223H97.8342V19.9904C97.8342 20.1116 97.8474 20.1972 97.8869 20.2512C97.9264 20.2986 97.9791 20.3289 98.0581 20.3289C98.1372 20.3289 98.203 20.2933 98.2425 20.2222C98.2952 20.1537 98.3215 20.0312 98.3215 19.8521V18.9223H98.9668V20.861ZM99.3752 18.9223H99.9809V19.2344C100.034 19.1041 100.099 19.0066 100.152 18.9566C100.218 18.9052 100.297 18.8789 100.389 18.8789C100.481 18.8789 100.587 18.9131 100.705 18.9789L100.508 19.5111C100.429 19.4755 100.363 19.4557 100.323 19.4557C100.231 19.4557 100.165 19.4979 100.126 19.5769C100.06 19.6875 100.02 19.8995 100.02 20.2103V20.861H99.3752V18.9223ZM101.956 18.1835H103.734V18.7603H102.681V19.2266H103.576V19.7678H102.681V20.861H101.956V18.1835ZM104.59 19.5558L103.971 19.4768C103.998 19.3543 104.024 19.2555 104.077 19.1831C104.116 19.1106 104.182 19.0514 104.261 18.9948C104.314 18.9566 104.406 18.9289 104.512 18.9079C104.604 18.8907 104.722 18.8789 104.841 18.8789C105.038 18.8789 105.196 18.8933 105.315 18.9157C105.433 18.9408 105.526 18.9921 105.605 19.0725C105.657 19.1252 105.71 19.2055 105.736 19.3043C105.776 19.4057 105.789 19.5031 105.789 19.5927V20.4501C105.789 20.5396 105.789 20.6121 105.802 20.6608C105.815 20.7161 105.842 20.7806 105.868 20.861H105.262C105.236 20.8122 105.223 20.7754 105.209 20.7477C105.209 20.724 105.196 20.6805 105.183 20.6226C105.104 20.7214 105.012 20.7806 104.933 20.8241C104.814 20.8807 104.683 20.9071 104.538 20.9071C104.327 20.9071 104.182 20.8517 104.077 20.7451C103.971 20.6397 103.919 20.5041 103.919 20.3486C103.919 20.1998 103.958 20.0787 104.024 19.9878C104.103 19.889 104.248 19.8205 104.446 19.7718C104.683 19.7191 104.854 19.6783 104.92 19.6559C104.999 19.6335 105.078 19.6045 105.157 19.5664C105.157 19.4768 105.13 19.4136 105.104 19.378C105.065 19.3385 105.012 19.3214 104.933 19.3214C104.828 19.3214 104.735 19.3425 104.683 19.378C104.643 19.4109 104.617 19.4663 104.59 19.5558ZM105.157 19.943C105.065 19.9786 104.972 20.0075 104.867 20.0405C104.735 20.0787 104.656 20.1182 104.617 20.1537C104.59 20.1972 104.564 20.242 104.564 20.2933C104.564 20.3513 104.59 20.4013 104.617 20.4369C104.656 20.4711 104.709 20.4948 104.775 20.4948C104.854 20.4948 104.92 20.4711 104.986 20.4343C105.038 20.3895 105.091 20.3421 105.117 20.2868C105.144 20.2288 105.157 20.1524 105.157 20.0602V19.943ZM106.184 18.9223H106.79V19.2055C106.882 19.0896 106.961 19.0013 107.053 18.9552C107.145 18.9052 107.251 18.8789 107.369 18.8789C107.501 18.8789 107.62 18.9052 107.699 18.9566C107.778 19.0171 107.83 19.0988 107.883 19.2055C107.988 19.079 108.081 18.9921 108.16 18.9487C108.252 18.9026 108.357 18.8789 108.476 18.8789C108.66 18.8789 108.805 18.9408 108.897 19.0672C109.002 19.1897 109.055 19.3806 109.055 19.644V20.861H108.397V19.756C108.397 19.6717 108.383 19.6046 108.357 19.5611C108.318 19.4966 108.265 19.4584 108.199 19.4584C108.12 19.4584 108.054 19.4952 108.015 19.5558C107.962 19.6164 107.936 19.7218 107.936 19.8627V20.861H107.29V19.7955C107.29 19.7112 107.29 19.652 107.277 19.619C107.264 19.573 107.238 19.5321 107.211 19.5031C107.172 19.4728 107.132 19.457 107.08 19.457C107.014 19.457 106.948 19.4873 106.908 19.5558C106.856 19.6164 106.829 19.727 106.829 19.8719V20.861H106.184V18.9223ZM109.463 18.1835H110.109V18.6905H109.463V18.1835ZM109.463 18.9223H110.109V20.861H109.463V18.9223ZM110.557 18.1835H111.202V20.861H110.557V18.1835ZM111.478 18.9223H112.176L112.519 20.2103L112.848 18.9223H113.48L112.809 20.9953C112.743 21.231 112.664 21.3891 112.585 21.4721C112.466 21.5893 112.295 21.6512 112.058 21.6512C111.966 21.6512 111.821 21.6341 111.623 21.6038L111.584 21.0848C111.676 21.1217 111.781 21.1375 111.887 21.1375C111.966 21.1375 112.032 21.1178 112.071 21.0756C112.124 21.0374 112.163 20.9663 112.203 20.861L111.478 18.9223ZM114.81 18.1835H116.154C116.391 18.1835 116.549 18.2493 116.681 18.3745C116.799 18.5048 116.852 18.6629 116.852 18.8486C116.852 19.0106 116.812 19.1449 116.733 19.2595C116.667 19.3359 116.588 19.3912 116.47 19.4373C116.641 19.4847 116.76 19.5637 116.852 19.677C116.931 19.7902 116.97 19.9298 116.97 20.1037C116.97 20.238 116.931 20.3644 116.878 20.4711C116.826 20.587 116.746 20.674 116.654 20.7372C116.588 20.778 116.496 20.8083 116.378 20.8241C116.22 20.8478 116.101 20.861 116.049 20.861H114.81V18.1835ZM115.535 19.2344H115.851C115.956 19.2344 116.035 19.2134 116.088 19.1699C116.127 19.1225 116.154 19.0606 116.154 18.975C116.154 18.8999 116.127 18.8341 116.088 18.7919C116.035 18.7498 115.956 18.7274 115.851 18.7274H115.535V19.2344ZM115.535 20.2894H115.904C116.035 20.2894 116.114 20.2617 116.167 20.2091C116.22 20.159 116.246 20.0931 116.246 20.0075C116.246 19.9259 116.22 19.8666 116.167 19.8166C116.114 19.7705 116.035 19.7454 115.904 19.7454H115.535V20.2894ZM117.892 19.5558L117.273 19.4768C117.3 19.3543 117.326 19.2555 117.379 19.1831C117.418 19.1106 117.484 19.0514 117.563 18.9948C117.629 18.9566 117.708 18.9289 117.813 18.9079C117.919 18.8907 118.024 18.8789 118.143 18.8789C118.34 18.8789 118.498 18.8933 118.617 18.9157C118.735 18.9408 118.827 18.9921 118.906 19.0725C118.972 19.1252 119.012 19.2055 119.038 19.3043C119.078 19.4057 119.091 19.5031 119.091 19.5927V20.4501C119.091 20.5396 119.091 20.6121 119.104 20.6608C119.117 20.7161 119.13 20.7806 119.17 20.861H118.564C118.538 20.8122 118.524 20.7754 118.511 20.7477C118.511 20.724 118.498 20.6805 118.485 20.6226C118.406 20.7214 118.327 20.7806 118.235 20.8241C118.129 20.8807 117.998 20.9071 117.84 20.9071C117.642 20.9071 117.484 20.8517 117.379 20.7451C117.273 20.6397 117.221 20.5041 117.221 20.3486C117.221 20.1998 117.26 20.0787 117.326 19.9878C117.405 19.889 117.55 19.8205 117.747 19.7718C117.998 19.7191 118.156 19.6783 118.221 19.6559C118.3 19.6335 118.38 19.6045 118.459 19.5664C118.459 19.4768 118.445 19.4136 118.406 19.378C118.38 19.3385 118.314 19.3214 118.235 19.3214C118.129 19.3214 118.05 19.3425 117.998 19.378C117.958 19.4109 117.919 19.4663 117.892 19.5558ZM118.459 19.943C118.366 19.9786 118.274 20.0075 118.182 20.0405C118.037 20.0787 117.958 20.1182 117.919 20.1537C117.892 20.1972 117.879 20.242 117.879 20.2933C117.879 20.3513 117.892 20.4013 117.919 20.4369C117.958 20.4711 118.011 20.4948 118.09 20.4948C118.156 20.4948 118.222 20.4711 118.287 20.4343C118.34 20.3895 118.393 20.3421 118.419 20.2868C118.445 20.2288 118.459 20.1524 118.459 20.0602V19.943ZM119.473 18.9223H120.092V19.2344C120.171 19.1107 120.263 19.0172 120.355 18.9645C120.447 18.9052 120.566 18.8789 120.697 18.8789C120.882 18.8789 121.014 18.9408 121.119 19.0619C121.224 19.1844 121.277 19.374 121.277 19.6309V20.861H120.618V19.7981C120.618 19.6757 120.592 19.5874 120.566 19.536C120.526 19.4873 120.46 19.4584 120.395 19.4584C120.316 19.4584 120.25 19.4979 120.197 19.5637C120.157 19.6335 120.131 19.7547 120.131 19.9298V20.861H119.473V18.9223ZM121.659 18.1835H122.317V19.5664L122.805 18.9223H123.608L123.002 19.6019L123.648 20.861H122.91L122.568 20.0839L122.317 20.3579V20.861H121.659V18.1835ZM123.845 20.1169H124.53V20.861H123.845V20.1169ZM127.493 20.4224H126.677L126.558 20.861H125.821L126.703 18.1835H127.493L128.363 20.861H127.612L127.493 20.4224ZM127.348 19.8403L127.085 18.8789L126.835 19.8403H127.348ZM129.824 20.105L130.443 20.184C130.404 20.3328 130.351 20.4593 130.272 20.5673C130.193 20.674 130.088 20.7583 129.969 20.8162C129.851 20.8794 129.706 20.9097 129.508 20.9097C129.337 20.9097 129.179 20.8899 129.061 20.8478C128.942 20.8122 128.837 20.753 128.758 20.6608C128.665 20.5804 128.6 20.4804 128.547 20.3605C128.507 20.2459 128.481 20.0931 128.481 19.8995C128.481 19.702 128.507 19.5334 128.573 19.4043C128.613 19.3056 128.665 19.22 128.744 19.1396C128.823 19.0619 128.902 19.0053 128.981 18.9671C129.1 18.9078 129.271 18.8789 129.469 18.8789C129.745 18.8789 129.956 18.9382 130.101 19.0514C130.246 19.162 130.351 19.3267 130.404 19.5426L129.798 19.6401C129.772 19.5558 129.745 19.4952 129.693 19.4491C129.64 19.4109 129.574 19.3912 129.482 19.3912C129.377 19.3912 129.298 19.4333 129.219 19.5203C129.166 19.6111 129.126 19.7442 129.126 19.9193C129.126 20.0787 129.166 20.1998 129.219 20.2868C129.284 20.3671 129.377 20.4105 129.482 20.4105C129.561 20.4105 129.627 20.3829 129.693 20.3342C129.745 20.2868 129.798 20.209 129.824 20.105ZM130.746 18.9223H131.352V19.2344C131.405 19.1041 131.471 19.0066 131.537 18.9566C131.589 18.9052 131.668 18.8789 131.76 18.8789C131.853 18.8789 131.958 18.9131 132.076 18.9789L131.879 19.5111C131.8 19.4755 131.734 19.4557 131.695 19.4557C131.616 19.4557 131.55 19.4979 131.497 19.5769C131.431 19.6875 131.392 19.8995 131.392 20.2103V20.861H130.746V18.9223ZM132.155 19.8982C132.155 19.6019 132.248 19.3569 132.419 19.1686C132.59 18.975 132.827 18.8789 133.13 18.8789C133.472 18.8789 133.723 18.9908 133.894 19.2173C134.039 19.4004 134.105 19.619 134.105 19.8864C134.105 20.184 134.026 20.4316 133.841 20.6213C133.67 20.8122 133.433 20.9071 133.13 20.9071C132.854 20.9071 132.643 20.8267 132.472 20.6674C132.261 20.4711 132.155 20.2156 132.155 19.8982ZM132.814 19.8956C132.814 20.0668 132.84 20.1972 132.906 20.2802C132.959 20.3605 133.038 20.4053 133.13 20.4053C133.222 20.4053 133.301 20.3645 133.367 20.2815C133.42 20.1998 133.459 20.0668 133.459 19.8864C133.459 19.7191 133.42 19.5953 133.367 19.5123C133.301 19.4294 133.222 19.3912 133.143 19.3912C133.038 19.3912 132.972 19.4294 132.906 19.5163C132.84 19.598 132.814 19.727 132.814 19.8956ZM134.302 20.3289L134.948 20.2564C134.974 20.3421 135.013 20.4079 135.053 20.4448C135.106 20.4843 135.171 20.5001 135.25 20.5001C135.343 20.5001 135.409 20.4843 135.448 20.4369C135.488 20.4066 135.514 20.3645 135.514 20.3157C135.514 20.2644 135.488 20.2222 135.435 20.1946C135.408 20.1748 135.303 20.1445 135.158 20.1169C134.934 20.0721 134.776 20.0299 134.684 19.9931C134.605 19.9536 134.526 19.8864 134.46 19.7981C134.408 19.7112 134.381 19.6019 134.381 19.4873C134.381 19.357 134.408 19.2489 134.473 19.1541C134.539 19.0619 134.631 18.9921 134.737 18.9487C134.855 18.9026 135.013 18.8789 135.198 18.8789C135.395 18.8789 135.553 18.8999 135.646 18.9289C135.738 18.9645 135.83 19.0224 135.883 19.0975C135.948 19.1725 136.001 19.2687 136.054 19.4004L135.435 19.4662C135.422 19.4057 135.395 19.3569 135.356 19.3332C135.303 19.2911 135.237 19.2687 135.171 19.2687C135.092 19.2687 135.04 19.2858 135.013 19.3148C134.974 19.3451 134.961 19.3806 134.961 19.4267C134.961 19.4728 134.974 19.5097 135.026 19.5321C135.066 19.5558 135.158 19.5769 135.303 19.5979C135.514 19.6269 135.672 19.6664 135.777 19.7165C135.883 19.7626 135.962 19.8363 136.014 19.9285C136.08 20.022 136.107 20.1234 136.107 20.2327C136.107 20.346 136.08 20.454 136.014 20.562C135.962 20.666 135.869 20.753 135.738 20.8122C135.606 20.8781 135.435 20.9097 135.224 20.9097C134.908 20.9097 134.684 20.8557 134.552 20.7582C134.421 20.6555 134.342 20.5093 134.302 20.3289ZM136.304 20.3289L136.949 20.2564C136.976 20.3421 137.002 20.4079 137.055 20.4448C137.107 20.4843 137.16 20.5001 137.252 20.5001C137.331 20.5001 137.397 20.4843 137.45 20.4369C137.489 20.4066 137.502 20.3645 137.502 20.3157C137.502 20.2644 137.476 20.2222 137.437 20.1946C137.397 20.1748 137.305 20.1445 137.147 20.1169C136.923 20.0721 136.765 20.0299 136.686 19.9931C136.594 19.9536 136.528 19.8864 136.462 19.7981C136.396 19.7112 136.37 19.6019 136.37 19.4873C136.37 19.357 136.409 19.2489 136.462 19.1541C136.541 19.0619 136.62 18.9921 136.739 18.9487C136.857 18.9026 137.002 18.8789 137.186 18.8789C137.397 18.8789 137.542 18.8999 137.647 18.9289C137.74 18.9645 137.819 19.0224 137.884 19.0975C137.95 19.1725 138.003 19.2687 138.042 19.4004L137.424 19.4662C137.41 19.4057 137.384 19.3569 137.344 19.3332C137.292 19.2911 137.239 19.2687 137.16 19.2687C137.094 19.2687 137.042 19.2858 137.002 19.3148C136.976 19.3451 136.949 19.3806 136.949 19.4267C136.949 19.4728 136.976 19.5097 137.015 19.5321C137.055 19.5558 137.147 19.5769 137.292 19.5979C137.503 19.6269 137.674 19.6664 137.779 19.7165C137.871 19.7626 137.963 19.8363 138.016 19.9285C138.069 20.022 138.095 20.1234 138.095 20.2327C138.095 20.346 138.069 20.454 138.016 20.562C137.95 20.666 137.858 20.753 137.74 20.8122C137.608 20.8781 137.437 20.9097 137.213 20.9097C136.897 20.9097 136.686 20.8557 136.554 20.7582C136.423 20.6555 136.33 20.5093 136.304 20.3289ZM139.57 18.1835H140.295V20.861H139.57V18.1835ZM140.769 18.9223H141.375V19.2344C141.467 19.1107 141.559 19.0172 141.651 18.9645C141.743 18.9052 141.862 18.8789 141.994 18.8789C142.165 18.8789 142.31 18.9408 142.415 19.0619C142.507 19.1844 142.56 19.374 142.56 19.6309V20.861H141.914V19.7981C141.914 19.6757 141.888 19.5874 141.849 19.536C141.809 19.4873 141.756 19.4584 141.691 19.4584C141.612 19.4584 141.546 19.4979 141.493 19.5637C141.44 19.6335 141.414 19.7547 141.414 19.9298V20.861H140.769V18.9223ZM144.733 18.1835V20.861H144.127V20.5778C144.035 20.695 143.956 20.778 143.89 20.8241C143.798 20.8794 143.692 20.9071 143.587 20.9071C143.35 20.9071 143.179 20.8043 143.047 20.6055C142.929 20.4053 142.876 20.159 142.876 19.8719C142.876 19.5558 142.942 19.3042 143.073 19.1317C143.205 18.9645 143.376 18.8789 143.587 18.8789C143.679 18.8789 143.772 18.8999 143.864 18.9381C143.943 18.9763 144.008 19.0343 144.074 19.1107V18.1835H144.733ZM144.088 19.8864C144.088 19.7336 144.061 19.619 143.995 19.5426C143.943 19.4702 143.864 19.4333 143.785 19.4333C143.706 19.4333 143.653 19.4702 143.6 19.5413C143.534 19.6124 143.521 19.7336 143.521 19.9022C143.521 20.0602 143.548 20.1788 143.6 20.2525C143.653 20.3289 143.719 20.3605 143.798 20.3605C143.877 20.3605 143.943 20.3289 143.995 20.2525C144.061 20.1788 144.088 20.0549 144.088 19.8864ZM145.154 18.1835H145.8V18.6905H145.154V18.1835ZM145.154 18.9223H145.8V20.861H145.154V18.9223ZM146.814 19.5558L146.182 19.4768C146.208 19.3543 146.247 19.2555 146.287 19.1831C146.326 19.1106 146.392 19.0514 146.485 18.9948C146.537 18.9566 146.616 18.9289 146.722 18.9079C146.827 18.8907 146.945 18.8789 147.064 18.8789C147.262 18.8789 147.42 18.8933 147.525 18.9157C147.643 18.9408 147.749 18.9921 147.828 19.0725C147.881 19.1252 147.92 19.2055 147.96 19.3043C147.986 19.4057 148.012 19.5031 148.012 19.5927V20.4501C148.012 20.5396 148.012 20.6121 148.025 20.6608C148.025 20.7161 148.052 20.7806 148.091 20.861H147.485C147.459 20.8122 147.446 20.7754 147.433 20.7477C147.42 20.724 147.42 20.6805 147.406 20.6226C147.327 20.7214 147.235 20.7806 147.156 20.8241C147.038 20.8807 146.906 20.9071 146.761 20.9071C146.55 20.9071 146.392 20.8517 146.3 20.7451C146.182 20.6397 146.142 20.5041 146.142 20.3486C146.142 20.1998 146.168 20.0787 146.247 19.9878C146.326 19.889 146.471 19.8205 146.669 19.7718C146.906 19.7191 147.064 19.6783 147.143 19.6559C147.209 19.6335 147.288 19.6045 147.367 19.5664C147.367 19.4768 147.354 19.4136 147.327 19.378C147.288 19.3385 147.235 19.3214 147.143 19.3214C147.051 19.3214 146.959 19.3425 146.906 19.378C146.866 19.4109 146.84 19.4663 146.814 19.5558ZM147.367 19.943C147.288 19.9786 147.183 20.0075 147.09 20.0405C146.959 20.0787 146.88 20.1182 146.84 20.1537C146.801 20.1972 146.787 20.242 146.787 20.2933C146.787 20.3513 146.801 20.4013 146.84 20.4369C146.88 20.4711 146.932 20.4948 146.998 20.4948C147.077 20.4948 147.143 20.4711 147.196 20.4343C147.261 20.3895 147.301 20.3421 147.341 20.2868C147.354 20.2288 147.367 20.1524 147.367 20.0602V19.943ZM148.394 20.1169H149.092V20.861H148.394V20.1169Z" fill="white"/>
<path fill-rule="evenodd" clip-rule="evenodd" d="M156.88 29.8631H104.424L156.88 22.7776V29.8631Z" fill="#B13AAE"/>
</svg>
