<?xml version="1.0" encoding="UTF-8"?>
<svg id="Layer_2" data-name="Layer 2" xmlns="http://www.w3.org/2000/svg" viewBox="0 0 40 22.5">
  <defs>
    <style>
      .cls-1 {
        fill: #a7a9ac;
      }
    </style>
  </defs>
  <g id="Layer_1-2" data-name="Layer 1">
    <g>
      <path class="cls-1" d="M37.5,21.25V12.5c0-.79-.5-1.5-1.25-1.76v-1.99h-1.25v1.99c-.75,.26-1.25,.97-1.25,1.76v3.75h-1.25c0-1.04-.84-1.88-1.87-1.88s-1.87,.84-1.87,1.88h-1.25v-3.75h-2.5v-3.75c0-2.52-1.88-4.64-4.37-4.96V0h-1.25V3.79c-2.5,.31-4.37,2.44-4.37,4.96v3.75h-2.5v3.75h-1.25c0-1.04-.84-1.88-1.87-1.88s-1.87,.84-1.87,1.88h-1.25v-3.75c0-.79-.5-1.5-1.25-1.76v-1.99h-1.25v1.99c-.75,.26-1.25,.97-1.25,1.76v8.75H0v1.25H40v-1.25h-2.5Zm-1.87-9.37c.35,0,.62,.28,.62,.63h-1.25c0-.35,.28-.63,.63-.63m-5,3.75c.35,0,.62,.28,.62,.63h-1.25c0-.35,.28-.63,.63-.63m-4.37,.63h-1.25v-2.5h1.25v2.5Zm0,2.5h-1.25v-1.25h1.25v1.25Zm-10-10c0-2.07,1.68-3.75,3.75-3.75s3.75,1.68,3.75,3.75v1.25h-7.5v-1.25Zm0,2.5h7.5v1.25h-7.5v-1.25Zm-2.5,2.5h1.25v2.5h-1.25v-2.5Zm0,3.75h1.25v1.25h-1.25v-1.25Zm-4.37-1.87c.35,0,.63,.28,.63,.63h-1.25c0-.35,.28-.63,.63-.63m-5-3.75c.35,0,.63,.28,.63,.63h-1.25c0-.35,.28-.63,.62-.63m-.62,1.88h1.25v7.5h-1.25v-7.5Zm2.5,3.75h6.25v3.75H6.25v-3.75Zm7.5,2.5h1.25v1.25h-1.25v-1.25Zm5,1.25v-3.75c0-.69,.56-1.25,1.25-1.25s1.25,.56,1.25,1.25v3.75h-2.5Zm3.75,0v-3.75c0-1.38-1.12-2.5-2.5-2.5s-2.5,1.12-2.5,2.5v3.75h-1.25v-7.5h7.5v7.5h-1.25Zm2.5-1.25h1.25v1.25h-1.25v-1.25Zm2.5-2.5h6.25v3.75h-6.25v-3.75Zm7.5-3.75h1.25v7.5h-1.25v-7.5Z"/>
      <rect class="cls-1" x="7.5" y="18.75" width="1.25" height="1.25"/>
      <rect class="cls-1" x="10" y="18.75" width="1.25" height="1.25"/>
      <rect class="cls-1" x="28.75" y="18.75" width="1.25" height="1.25"/>
      <rect class="cls-1" x="31.25" y="18.75" width="1.25" height="1.25"/>
    </g>
  </g>
</svg>