<svg width="16" height="17" viewBox="0 0 16 17" fill="none" xmlns="http://www.w3.org/2000/svg">
<path d="M3.14307 8.34388C3.14307 9.68055 3.6849 10.9625 4.64937 11.9076C5.61384 12.8528 6.92194 13.3838 8.28591 13.3838C9.64988 13.3838 10.958 12.8528 11.9225 11.9076C12.8869 10.9625 13.4288 9.68055 13.4288 8.34388C13.4288 7.00721 12.8869 5.72528 11.9225 4.78011C10.958 3.83495 9.64988 3.30396 8.28591 3.30396C6.92194 3.30396 5.61384 3.83495 4.64937 4.78011C3.6849 5.72528 3.14307 7.00721 3.14307 8.34388Z" fill="#9D95F8"/>
<mask id="mask0_2536_8275" style="mask-type:alpha" maskUnits="userSpaceOnUse" x="3" y="3" width="11" height="11">
<path d="M3.14307 8.34388C3.14307 9.68055 3.6849 10.9625 4.64937 11.9076C5.61384 12.8528 6.92194 13.3838 8.28591 13.3838C9.64988 13.3838 10.958 12.8528 11.9225 11.9076C12.8869 10.9625 13.4288 9.68055 13.4288 8.34388C13.4288 7.00721 12.8869 5.72528 11.9225 4.78011C10.958 3.83495 9.64988 3.30396 8.28591 3.30396C6.92194 3.30396 5.61384 3.83495 4.64937 4.78011C3.6849 5.72528 3.14307 7.00721 3.14307 8.34388Z" fill="#9D95F8"/>
</mask>
<g mask="url(#mask0_2536_8275)">
<path d="M5.99974 5.92759C6.29669 5.26738 6.72416 4.67968 7.25428 4.20281C7.78439 3.72594 8.28545 3.59186 8.99973 3.15987C8.99973 3.15987 9.14259 3.01587 9.57116 3.01587C9.86335 3.01587 10.1326 3.2114 10.2578 3.31554C10.383 3.41967 10.4689 3.56627 10.5006 3.72966C10.5166 3.82791 10.5118 3.9286 10.4866 4.02472C10.4613 4.12084 10.4162 4.21008 10.3543 4.2862C10.2925 4.36233 10.2154 4.42352 10.1285 4.4655C10.0416 4.50748 9.94693 4.52925 9.85109 4.52928C9.77038 4.52937 9.69076 4.54871 9.61837 4.58581C9.54598 4.62291 9.48273 4.67678 9.43351 4.74328C9.38428 4.80978 9.35038 4.88714 9.33442 4.96939C9.31845 5.05165 9.32085 5.13662 9.34143 5.21776C9.37436 5.33698 9.4443 5.44152 9.54034 5.5151C9.63638 5.58868 9.75313 5.62716 9.8724 5.62455H11.7513C12.4643 5.62455 13.1034 6.17957 13.1407 6.91993C13.1503 7.10565 13.1234 7.29146 13.0617 7.46603C12.9999 7.64059 12.9046 7.80025 12.7816 7.93526C12.6585 8.07026 12.5103 8.1778 12.346 8.25129C12.1817 8.32478 12.0047 8.3627 11.8258 8.36272H11.0521C10.9606 8.36272 10.8727 8.40054 10.808 8.46787C10.7432 8.5352 10.7068 8.62651 10.7068 8.72173V9.01295C10.7072 9.05318 10.6999 9.0931 10.6854 9.13039C10.6708 9.16768 10.6494 9.20162 10.6222 9.23025C10.595 9.25889 10.5626 9.28165 10.5269 9.29724C10.4913 9.31283 10.453 9.32093 10.4143 9.32108C10.3751 9.32055 10.3361 9.32814 10.2998 9.34338C10.2634 9.35862 10.2303 9.38122 10.2024 9.40987C10.1745 9.43852 10.1523 9.47265 10.1372 9.51027C10.1221 9.54789 10.1143 9.58826 10.1143 9.62904V10.0055C10.1097 10.0638 10.125 10.1219 10.1575 10.1696C10.2745 10.3184 10.3377 10.505 10.3361 10.6972C10.3345 10.8893 10.2684 11.0748 10.149 11.2215C10.0685 11.3156 9.96919 11.3902 9.85808 11.4403C9.74696 11.4903 9.62669 11.5146 9.50563 11.5114H9.19254C8.33663 11.5114 8.07327 10.6907 8.07327 10.2793V8.91019C8.07345 8.77394 8.03765 8.64026 7.96978 8.52372C7.9019 8.40718 7.80455 8.31225 7.68835 8.24928C7.53437 8.15117 7.40717 8.01363 7.31893 7.8498C7.2307 7.68597 7.18436 7.50135 7.18437 7.31358C7.18462 7.3012 7.18951 7.28941 7.19801 7.28073C7.2065 7.27205 7.21793 7.26716 7.22984 7.26712H7.74424C7.81395 7.26695 7.88075 7.23805 7.93 7.18675C7.97924 7.13546 8.00692 7.06595 8.00696 6.99347V6.65136C8.00696 6.57874 7.97922 6.5091 7.92983 6.45775C7.88044 6.4064 7.81345 6.37755 7.74361 6.37755H6.61755C6.48264 6.3774 6.35103 6.33416 6.24052 6.25368C6.13002 6.1732 6.04597 6.05937 5.99974 5.92759Z" fill="#675AF6"/>
</g>
<path d="M8.85727 13.5278C8.12079 15.3435 7.53702 15.7829 6.85854 15.6492C5.75258 15.4311 5.50626 11.9774 6.30811 7.93532C7.10995 3.89322 8.65686 0.792775 9.76241 1.01083C10.4444 1.14521 10.8738 1.90461 10.8573 3.87995" stroke="#4F2DA7" stroke-width="0.285714" stroke-linecap="round" stroke-linejoin="round"/>
<path d="M3.57135 6.18379C1.95234 4.36502 1.518 3.71944 1.77555 3.45883C2.14869 3.08156 4.9141 5.19739 7.95216 8.18463C10.9902 11.1719 13.1517 13.8993 12.7783 14.2764C12.5741 14.4841 11.8721 13.9833 10.5713 12.9517" stroke="#4F2DA7" stroke-width="0.285714" stroke-linecap="round" stroke-linejoin="round"/>
<path d="M4.2855 11.6558C2.38117 12.0237 1.62619 11.7556 1.36946 11.1212C0.948728 10.0792 3.71311 7.98454 7.54567 6.44287C11.3782 4.9012 14.8282 4.49643 15.25 5.53847C15.5124 6.18714 15.2668 6.83501 13.5712 7.91186" stroke="#4F2DA7" stroke-width="0.285714" stroke-linecap="round" stroke-linejoin="round"/>
<path d="M4.19092 15.0854C4.19092 15.2993 4.23318 15.5111 4.31529 15.7087C4.3974 15.9063 4.51776 16.0859 4.66948 16.2371C4.8212 16.3883 5.00133 16.5083 5.19956 16.5902C5.3978 16.672 5.61027 16.7142 5.82484 16.7142C6.0394 16.7142 6.25187 16.672 6.45011 16.5902C6.64834 16.5083 6.82847 16.3883 6.98019 16.2371C7.13191 16.0859 7.25227 15.9063 7.33438 15.7087C7.41649 15.5111 7.45875 15.2993 7.45875 15.0854C7.45875 14.8715 7.41649 14.6597 7.33438 14.462C7.25227 14.2644 7.13191 14.0849 6.98019 13.9336C6.82847 13.7824 6.64834 13.6624 6.45011 13.5805C6.25187 13.4987 6.0394 13.4565 5.82484 13.4565C5.61027 13.4565 5.3978 13.4987 5.19956 13.5805C5.00133 13.6624 4.8212 13.7824 4.66948 13.9336C4.51776 14.0849 4.3974 14.2644 4.31529 14.462C4.23318 14.6597 4.19092 14.8715 4.19092 15.0854Z" fill="#119A4B"/>
<path fill-rule="evenodd" clip-rule="evenodd" d="M5.85211 13.9363C5.91523 13.9363 5.9664 13.9874 5.9664 14.0506V14.1455C5.99363 14.1518 6.02042 14.1603 6.04647 14.1711C6.13924 14.2094 6.2186 14.2743 6.27446 14.3576C6.33032 14.441 6.36016 14.539 6.36016 14.6393C6.36016 14.7024 6.30899 14.7536 6.24587 14.7536C6.18275 14.7536 6.13159 14.7024 6.13159 14.6393C6.13159 14.5844 6.11525 14.5306 6.08459 14.4849C6.05393 14.4392 6.01032 14.4035 5.95923 14.3824C5.92548 14.3684 5.88948 14.3613 5.85328 14.3611C5.85289 14.3611 5.8525 14.3611 5.85211 14.3611C5.85174 14.3611 5.85136 14.3611 5.85099 14.3611C5.83315 14.3612 5.81528 14.363 5.79762 14.3665C5.74336 14.3773 5.69356 14.4038 5.65451 14.4427C5.61547 14.4817 5.58892 14.5312 5.57816 14.5851C5.56741 14.639 5.57293 14.6948 5.59403 14.7456C5.61513 14.7964 5.65089 14.8399 5.69684 14.8705C5.74279 14.9011 5.79686 14.9175 5.8522 14.9175C5.95258 14.9175 6.05074 14.9471 6.13427 15.0028C6.21779 15.0584 6.28295 15.1375 6.32144 15.2302C6.35993 15.3228 6.37001 15.4247 6.35038 15.5231C6.33076 15.6215 6.28232 15.7118 6.21125 15.7826C6.14385 15.8498 6.05898 15.8966 5.9664 15.9179V16.0128C5.9664 16.0759 5.91523 16.127 5.85211 16.127C5.78899 16.127 5.73783 16.0759 5.73783 16.0128V15.9179C5.71065 15.9116 5.68392 15.9031 5.65793 15.8924C5.56515 15.8541 5.48579 15.7892 5.42994 15.7058C5.37408 15.6225 5.34424 15.5245 5.34424 15.4242C5.34424 15.3611 5.39541 15.3099 5.45852 15.3099C5.52164 15.3099 5.57281 15.3611 5.57281 15.4242C5.57281 15.4791 5.58915 15.5328 5.6198 15.5786C5.65046 15.6243 5.69407 15.66 5.74516 15.6811C5.77862 15.6949 5.81429 15.7021 5.85016 15.7023C5.85081 15.7023 5.85146 15.7023 5.85211 15.7023C5.85278 15.7023 5.85345 15.7023 5.85411 15.7023C5.87171 15.7022 5.88934 15.7004 5.90677 15.697C5.96103 15.6862 6.01083 15.6597 6.04988 15.6207C6.08893 15.5818 6.11548 15.5323 6.12623 15.4784C6.13698 15.4245 6.13147 15.3686 6.11037 15.3179C6.08926 15.2671 6.0535 15.2236 6.00755 15.193C5.9616 15.1624 5.90753 15.146 5.8522 15.146C5.75181 15.146 5.65365 15.1164 5.57013 15.0607C5.4866 15.0051 5.42144 14.926 5.38295 14.8333C5.34446 14.7407 5.33438 14.6387 5.35401 14.5404C5.37364 14.442 5.42208 14.3517 5.49314 14.2809C5.5605 14.2137 5.64531 14.1669 5.73783 14.1456V14.0506C5.73783 13.9874 5.78899 13.9363 5.85211 13.9363Z" fill="white"/>
<path d="M12.5278 4.60293C12.5278 5.06192 12.7107 5.5021 13.0363 5.82666C13.3619 6.15121 13.8034 6.33354 14.2639 6.33354C14.7243 6.33354 15.1659 6.15121 15.4914 5.82666C15.817 5.5021 15.9999 5.06192 15.9999 4.60293C15.9999 4.14394 15.817 3.70375 15.4914 3.3792C15.1659 3.05465 14.7243 2.87231 14.2639 2.87231C13.8034 2.87231 13.3619 3.05465 13.0363 3.3792C12.7107 3.70375 12.5278 4.14394 12.5278 4.60293Z" fill="#119A4B"/>
<path fill-rule="evenodd" clip-rule="evenodd" d="M14.5718 3.58423C14.3008 3.58423 14.0408 3.69154 13.8491 3.88268C13.6846 4.04661 13.5819 4.26069 13.556 4.48894H13.3013C13.2382 4.48894 13.187 4.54011 13.187 4.60323C13.187 4.66635 13.2382 4.71751 13.3013 4.71751H13.5559C13.5817 4.94606 13.6844 5.16045 13.8491 5.32457C14.0408 5.51571 14.3008 5.62302 14.5718 5.62302H14.7533C14.8164 5.62302 14.8676 5.57185 14.8676 5.50874C14.8676 5.44562 14.8164 5.39445 14.7533 5.39445H14.5718C14.3612 5.39445 14.1592 5.31105 14.0104 5.1627C13.8888 5.04149 13.8108 4.88505 13.7864 4.71751H14.5717C14.6348 4.71751 14.686 4.66635 14.686 4.60323C14.686 4.54011 14.6348 4.48894 14.5717 4.48894H13.7865C13.8111 4.32171 13.889 4.16557 14.0104 4.04455C14.1592 3.8962 14.3612 3.8128 14.5718 3.8128H14.7533C14.8164 3.8128 14.8676 3.76163 14.8676 3.69851C14.8676 3.6354 14.8164 3.58423 14.7533 3.58423H14.5718Z" fill="white"/>
<path d="M4.28903 3.35632C4.28903 3.77914 4.16326 4.19247 3.92762 4.54403C3.69198 4.89559 3.35705 5.1696 2.96519 5.33141C2.57333 5.49321 2.14214 5.53555 1.72614 5.45306C1.31015 5.37057 0.928031 5.16697 0.628115 4.86799C0.328199 4.56901 0.123954 4.18809 0.0412073 3.77339C-0.0415394 3.35869 0.000929177 2.92885 0.163243 2.53822C0.325556 2.14758 0.600424 1.8137 0.953088 1.57879C1.30575 1.34389 1.72037 1.21851 2.14452 1.21851C2.71328 1.21851 3.25875 1.44374 3.66092 1.84466C4.0631 2.24558 4.28903 2.78934 4.28903 3.35632Z" fill="#119A4B"/>
<path d="M2.82284 2.31457C2.82284 2.25935 2.78054 2.2146 2.72834 2.2146H1.7616H1.29372C1.24153 2.2146 1.19922 2.25935 1.19922 2.31457C1.19922 2.36979 1.24152 2.41455 1.29372 2.41455H1.7616C1.90271 2.41455 2.03652 2.48769 2.11953 2.6102C2.15863 2.66792 2.18485 2.73187 2.19904 2.79738H1.29371C1.24152 2.79738 1.19922 2.84213 1.19922 2.89735C1.19922 2.95257 1.24152 2.99733 1.29371 2.99733H2.20245C2.19907 3.01459 2.1949 3.03169 2.18955 3.04845C2.15024 3.17181 2.06088 3.26179 1.93793 3.30182C1.75079 3.3627 1.5418 3.35501 1.33943 3.34747L1.2969 3.34591C1.25722 3.34376 1.22076 3.36957 1.20599 3.40874C1.19122 3.44787 1.20119 3.49255 1.23094 3.52055L2.39645 4.61715C2.41447 4.6341 2.43687 4.64242 2.4592 4.64242C2.48526 4.64242 2.51117 4.6311 2.52985 4.60888C2.56455 4.56764 2.56104 4.50445 2.52202 4.46774L1.54932 3.55253C1.69777 3.5523 1.84738 3.54047 1.9935 3.49294C2.17613 3.4335 2.30938 3.29834 2.36866 3.11234C2.38061 3.07485 2.38799 3.03624 2.39318 2.99733H2.72836C2.78055 2.99733 2.82286 2.95257 2.82286 2.89735C2.82286 2.84213 2.78056 2.79738 2.72836 2.79738H2.39212C2.37588 2.69058 2.3358 2.58616 2.27317 2.49371C2.25381 2.46514 2.23188 2.43921 2.2089 2.41455H2.72837C2.78056 2.41455 2.82287 2.3698 2.82287 2.31458L2.82284 2.31457Z" fill="white" stroke="white" stroke-width="0.0857141"/>
</svg>
