<?xml version="1.0" encoding="UTF-8"?>
<svg id="Layer_2" data-name="Layer 2" xmlns="http://www.w3.org/2000/svg" viewBox="0 0 40 26.25">
  <defs>
    <style>
      .cls-1 {
        fill: #a7a9ac;
      }
    </style>
  </defs>
  <g id="Layer_1-2" data-name="Layer 1">
    <g>
      <path class="cls-1" d="M37.5,25V11.25h-1.25v-2.5h-7.5V3.75c0-.91-.74-1.72-1.87-2.25V0h-1.25V1.5c-1.14,.53-1.87,1.33-1.87,2.25v1.25h-7.5v-1.25c0-.91-.74-1.72-1.87-2.25V0h-1.25V1.5c-1.14,.53-1.87,1.33-1.87,2.25v5H3.75v2.5h-1.25v13.75H0v1.25H40v-1.25h-2.5Zm-28.75,0h-2.5v-6.25c0-.33,.43-.8,1.25-1.16,.82,.36,1.25,.83,1.25,1.16v6.25Zm2.5,0h-1.25v-6.25c0-1.07-1.01-2-2.5-2.5-1.49,.5-2.5,1.43-2.5,2.5v6.25h-1.25V12.5h.94v1.25h1.25v-1.25h.94v1.25h1.25v-1.25h.94v1.25h1.25v-1.25h.94v12.5Zm0-13.75H5v-1.25h6.25v1.25Zm1.25-7.5c0-.33,.43-.8,1.25-1.16,.82,.36,1.25,.83,1.25,1.16v1.25h-2.5v-1.25Zm0,6.25h2.5v1.25h-2.5v-1.25Zm2.5,15h-2.5v-2.5h2.5v2.5Zm8.75,0h-7.5v-6.25c0-1.69,1.53-3.19,3.75-3.72,2.22,.53,3.75,2.03,3.75,3.72v6.25Zm3.75,0h-2.5v-2.5h2.5v2.5Zm0-3.75h-2.5v-2.5c0-2.41-2.13-4.42-5-5-2.88,.58-5,2.59-5,5v2.5h-2.5V12.5h15v8.75Zm-11.25-11.25h.94v1.25h-.94v-1.25Zm2.19,0h.94v1.25h-.94v-1.25Zm2.19,0h.94v1.25h-.94v-1.25Zm2.19,0h.94v1.25h-.94v-1.25Zm4.69,1.25h-2.5v-1.25h2.5v1.25Zm0-2.5H12.5v-2.5h15v2.5Zm0-3.75h-2.5v-1.25c0-.33,.43-.8,1.25-1.16,.82,.36,1.25,.83,1.25,1.16v1.25Zm1.25,5h6.25v1.25h-6.25v-1.25Zm5,15h-2.5v-6.25c0-.33,.43-.8,1.25-1.16,.82,.36,1.25,.83,1.25,1.16v6.25Zm1.25,0v-6.25c0-1.07-1.01-2-2.5-2.5-1.49,.5-2.5,1.43-2.5,2.5v6.25h-1.25V12.5h.94v1.25h1.25v-1.25h.94v1.25h1.25v-1.25h.94v1.25h1.25v-1.25h.94v12.5h-1.25Z"/>
      <path class="cls-1" d="M5.63,15c-.35,0-.63,.28-.63,.62s.28,.63,.63,.63,.62-.28,.62-.63-.28-.62-.62-.62"/>
      <path class="cls-1" d="M9.38,15c-.35,0-.63,.28-.63,.62s.28,.63,.63,.63,.63-.28,.63-.63-.28-.62-.63-.62"/>
      <path class="cls-1" d="M15.63,13.75c-.35,0-.63,.28-.63,.63s.28,.63,.63,.63,.63-.28,.63-.63-.28-.63-.63-.63"/>
      <path class="cls-1" d="M24.37,13.75c-.35,0-.62,.28-.62,.63s.28,.63,.62,.63,.63-.28,.63-.63-.28-.63-.63-.63"/>
      <path class="cls-1" d="M30.63,15c-.35,0-.63,.28-.63,.62s.28,.63,.63,.63,.62-.28,.62-.63-.28-.62-.62-.62"/>
      <path class="cls-1" d="M34.38,15c-.35,0-.63,.28-.63,.62s.28,.63,.63,.63,.63-.28,.63-.63-.28-.62-.63-.62"/>
    </g>
  </g>
</svg>