<?xml version="1.0" encoding="UTF-8"?>
<svg id="Layer_2" data-name="Layer 2" xmlns="http://www.w3.org/2000/svg" viewBox="0 0 36.2 30.79">
  <defs>
    <style>
      .cls-1 {
        fill: #999;
      }
    </style>
  </defs>
  <g id="Layer_1-2" data-name="Layer 1">
    <g>
      <path class="cls-1" d="M27,22.55c-.37,.11-.74,.22-.98,.29,0,.3,.1,.62-.02,.78-.43,.63-.25,1.33-.33,1.99-.05,.42,0,.85,0,1.28q0,.85,.68,1.2h-2.55c.52-.06,.67-.35,.63-.84-.05-.59-.05-1.19-.03-1.78,0-.33,.08-.66,.12-.99-.04,.58,.22,.79,.83,.59-.15-.16-.28-.3-.4-.43,.1-.01,.21-.03,.31-.04-.07-.14-.13-.27-.2-.41,.04-.1,.14-.28,.12-.29-.35-.21-.71-.41-1.07-.6-.04,.06-.08,.11-.12,.17,.24,.18,.48,.36,.72,.54-.5,.11-.75-.17-.91-.66-.77,.16-1.52,.32-2.3,.48,0,1.15-.03,2.26,.03,3.37,.01,.18,.45,.33,.76,.55-.74,.09-1.48,.18-2.28,.28,.03-.15,.03-.3,.07-.31,.53-.13,.45-.53,.45-.92,0-.69,0-1.37,0-2.11,.14,.05,.28,.1,.42,.16,.01-.23,.08-.46,.02-.65-.04-.11-.3-.21-.44-.19-.72,.1-1.43,.25-2.16,.38,.08,.6,.07,1.14-.14,1.74-.25,.74-.23,1.62-.13,2.41,.04,.32,.61,.57,.95,.85-.17,.19-1.87,.36-3,.18,.34-.18,.59-.31,.89-.47,0-.88,0-1.79,0-2.7,0-.12-.05-.24-.09-.36-.17-.41-.35-.83-.57-1.33-1.11,.13-2.4,.27-3.72,.43,0,.36,.12,.72-.35,.92-.14,.06-.2,.46-.2,.7,.01,1.11,.04,2.23,.12,3.34,.01,.21,.26,.41,.43,.67h-2.63s0-.04,0-.05c.69-.23,.66-.79,.63-1.35-.03-.58-.07-1.15-.07-1.73,0-.58-.13-1.09-.55-1.52-.12-.13-.15-.35-.23-.53,.06-.03,.11-.07,.17-.1,.21,.2,.42,.4,.63,.61-.1,.02-.2,.02-.28,.07-.03,.02,0,.18,.04,.23,.13,.15,.27,.29,.43,.39,.2,.13,.44,.22,.66,.32,.03-.05,.07-.09,.1-.14-.08-.16-.16-.31-.24-.47,.14-.19,.28-.38,.41-.58,.13,.03,.25,.06,.38,.1,.02-.31,.03-.57,.05-.93-.46,.11-.87,.21-1.27,.3-.45-.03-.9-.08-1.35-.09-1.4-.01-2.8,0-4.2,0,0-.07,0-.14,0-.2,1.61,0,3.23,0,4.84,0,.38,0,.77-.04,1.15-.05,.33,0,.49-.14,.42-.48,.13,.36,.38,.44,.76,.39,1.57-.22,3.15-.43,4.73-.6,.47-.05,.58-.2,.41-.63-1.79,.21-3.58,.41-5.36,.62-.18,.02-.35,.15-.53,.23-.24-.05-.48-.16-.71-.15-2.86,.09-5.73,.19-8.59,.29-.13,0-.26-.02-.46-.03,3.35-.18,6.62-.35,9.96-.53v-3.44c.25,.03,.45,.09,.62,.06,1.17-.21,2.34-.45,3.5-.67,.19-.04,.38-.05,.57-.08,.02,.05,.03,.11,.05,.16-.13,.06-.25,.16-.39,.18-1.26,.22-2.52,.45-3.79,.64-.28,.04-.46,.1-.43,.43,.02,.24,.03,.47,.04,.82,1.55-.3,3.05-.58,4.54-.87,.01,.05,.02,.1,.04,.15-.18,.05-.37,.11-.55,.14-1.19,.23-2.37,.47-3.56,.68-.31,.06-.46,.15-.43,.5,.04,.38,0,.77,0,1.24,1.71-.19,3.31-.37,5.02-.57v-5.48s.1,0,.15,0v1.79c1.16-.24,2.27-.46,3.38-.69,.03,.05,.06,.1,.08,.16-.14,.08-.27,.21-.41,.24-.73,.14-1.46,.26-2.2,.38-.95,.16-.99,.21-.8,1.21,.44-.08,.88-.16,1.32-.24,.01,.05,.02,.1,.03,.14-.37,.1-.74,.17-1.09,.3-.13,.05-.31,.22-.32,.35-.03,.57-.01,1.14-.01,1.81,1.31-.21,2.5-.38,3.68-.6,.12-.02,.26-.37,.26-.57,0-1.3-.04-2.59-.06-3.89,0-.17,.02-.34,.13-.51,.02,.28,.04,.57,.07,1,1.1-.39,2.14-.74,3.17-1.12,.33-.12,.7-.23,.93-.47,.21-.21,.26-.58,.29-.92,.01,.12,.03,.25,.05,.46,.28-.14,.58-.23,.77-.42,.11-.11,.11-.39,.09-.58-.02-.27-.11-.53-.18-.89,.92,.53,.88,1.56-.08,2.52,.12-.23,.18-.33,.27-.5-.39,.21-.77,.34-1.07,.58-1.09,.89-2.4,1.26-3.71,1.6-.52,.13-.69,.34-.49,.9,1.48-.38,2.97-.77,4.5-1.17,.02,.17,.03,.3,.03,.33-1.48,.35-2.91,.69-4.35,1.04-.1,.02-.24,.16-.24,.25-.02,.72-.01,1.44-.01,2.23,1.66-.38,3.22-.71,4.76-1.09,1.21-.3,2.41-.65,3.6-1,.21-.06,.39-.23,.62-.38,.03,.01,.19,.12,.31,.08,.8-.24,1.59-.51,2.37-.77v-1.88c.08,.63,.14,1.15,.23,1.83,.61-.31,1.19-.56,1.74-.88,.26-.15,.51-.39,.68-.64,.46-.7,.55-1.07-.39-1.82v1.95s-.1,0-.15,0c0-.59,.02-1.18-.01-1.77-.01-.21-.12-.51-.28-.59-.82-.46-1.65-.89-2.51-1.27-.7-.31-1.44-.53-2.16-.78-.06,.07-.11,.14-.17,.21,.16,.23,.28,.51,.48,.69,.34,.29,.73,.51,1.1,.76,1.04,.71,.85,2.22-.06,2.56,.58-.55,.83-1.11,.51-1.75-.12,.36-.16,.82-.4,1.12-.24,.31-.68,.47-1.18,.79,.11-1.54,.18-2.92-1.57-3.4,.08,.05,.15,.11,.23,.16,.09,.07,.17,.14,.22,.28-.36-.21-.72-.43-1.09-.64-.32-.18-.65-.36-.98-.54-.62-.32-.67-.57-.21-1.09,.36-.4,.28-.87,.31-1.32-.04-.01-.09-.02-.13-.03-.04,.12-.08,.25-.1,.34-.02-.11-.06-.25-.09-.39-.07,0-.14-.01-.22-.02-.19,1.1-.38,2.2-.58,3.33-.23-.16-.47-.33-.74-.53,.01-.03-.04,.07-.06,.11-.28-.16-.57-.33-.91-.53-.1,.37-.17,.6-.22,.79-.16-.14-.31-.37-.43-.36-.37,.03-.85-.27-1.07,.31-.38-.59-.93-.26-1.4-.31-.15-.02-.32,.18-.49,.29-.15-.59-.71-.27-1.13-.3-.63-.05-1.27-.02-1.91,0-.17,0-.34,.1-.57,.17-.07-.03-.23-.17-.39-.16-.43,.03-.86,.16-1.3,.17-.34,0-.67-.16-1.01-.18-.16,0-.32,.14-.46,.21-.12-.06-.27-.21-.42-.2-1.13,.05-2.26,.12-3.39,.29,4.61,.62,9.25,.53,13.88,.77,0,.07,0,.13-.01,.2H0c.17-1.42,.49-2.61,2.29-1.89,.02-.4,.03-.73,.05-1.06h.04c0,.2,0,.4,0,.6,.01,.64,.49,.98,1.13,.89,.62-.09,1.26-.12,1.89-.13,4.52-.1,9.04-.14,13.56-.31,1.87-.07,3.73-.41,5.59-.63,.28-.03,.49-.09,.53-.48,.06-.6,.22-1.2,.34-1.8,.03-.15,.1-.29,.25-.41v2.42s.08,.01,.12,.02c.05-.37,.2-.77,.11-1.11-.08-.32,0-.47,.19-.66,.06-.06,.13-.14,.15-.23,.29-2.13,.63-4.26,.85-6.4,.11-1.05,.02-2.12,.02-3.18,0-.15-.04-.34,.03-.44,.17-.21,.4-.38,.6-.57,.08,.19,.25,.39,.24,.58-.16,3.77,.85,7.37,1.63,11.01,.52-1.91,.92-3.85,1.08-5.82,.16-1.97,.27-3.95,.4-5.96,.47-.09,.62,.22,.63,.66,.03,1.24,0,2.49,.08,3.73,.18,2.63,.41,5.26,.63,7.89,.04,.46,.14,.92,.16,1.39,.01,.44,.21,.7,.64,.87,.02-.25,.04-.49,.05-.72,0,.7,.25,1.23,1.06,1.35,.05-.17,.09-.34,.14-.52-.17,1.08,.97,.87,1.37,1.58,.06-.42,.1-.66,.13-.89,.1,1.19,.55,2.41-.53,3.43-.19,.18-.1,.65-.16,.99-.03,.2-.11,.39-.15,.59-.08,.44-.19,.88-.21,1.32-.02,.63,.06,1.26,.03,1.89-.02,.56,.31,.69,.74,.75,.16,.02,.32,0,.48,0,0,.05,0,.1,0,.16-.9,.07-1.79,.14-2.69,.22,.49-.21,.49-.57,.46-1.01-.04-.7,0-1.41,.05-2.11,.03-.43-.09-.7-.34-.79-.17,.4-.35,.8-.51,1.2-.05,.13-.05,.29-.05,.43,0,.88,0,1.77,0,2.67,.23,.12,.48,.25,.73,.39l.02,.14c-.91,.11-1.82,.15-2.75,0,.48-.17,.96-.34,1.5-.53-.2-.15-.35-.27-.5-.38,.01-.02,.02-.05,.04-.07,.18,.08,.36,.16,.59,.26-.03-.68,.2-1.38-.51-1.82,.17,.06,.33,.12,.51,.19,.15-.56-.27-.61-.72-.82,.1,.3,.16,.47,.23,.64-.08-.27-.21-.54-.24-.82-.07-.75-.34-.95-1.04-.74-.34,.1-.67,.2-.88,.26-.14,.59-.3,1.09-.35,1.6-.06,.69,0,1.4-.06,2.09-.05,.6,.17,.97,.78,1.15-1.39,.11-2.75,.44-4.14-.05,.32-.22,.61-.41,.85-.58,0-.01,.03,.13,.07,.28,.06,0,.11-.02,.17-.03-.14-1.24-.28-2.47-.42-3.71,.19,.07,.38,.13,.52,.18,.35,1.31-.07,2.68,.48,3.96,.42-.2,.56-.49,.54-.93-.04-.94-.02-1.89-.03-2.83,.22,.31,.24,.83,.93,.75-.15-.24-.27-.43-.38-.62,.08-.08,.25-.18,.24-.22-.16-.46-.6-.63-1.15-.44,.25,.18,.47,.33,.69,.48-.1,.02-.21,.04-.31,.06-.2-.16-.4-.31-.59-.47,.03-.04,.05-.08,.08-.13-.34,.07-.68,.13-1.02,.2Zm-9.19,2.97c-.07-.32-.86-.91-1.15-.84,0,0,.02,.12,.03,.18,.04,.11,.08,.22,.12,.33-.02,.11-.09,.28-.06,.31,.25,.19,.53,.35,.86,.55-.02-.17-.03-.24-.04-.3,.08-.08,.15-.16,.23-.23Zm-6.9,2.83c-.54,.15-.11,.35-.03,.53-.06,.07-.17,.13-.18,.2-.06,.79,0,.87,.98,1.26-.2-.49-.36-.9-.52-1.31,.09-.01,.18-.03,.27-.04-.02-.1-.01-.23-.07-.29-.14-.14-.31-.25-.46-.37,.18,.06,.36,.12,.58,.2,0-.6-.48-.56-.86-.68,.1,.17,.2,.33,.3,.5Zm14.04-2.15c.11-.07,.21-.14,.32-.22-.2-.23-.34-.58-.85-.37,.13,.19,.24,.34,.34,.49-.33,.15-.33,.23,0,.58-.37,.14-.23,.36-.05,.53,.12,.11,.31,.13,.47,.19-.03-.18-.05-.36-.09-.53,0-.04-.08-.06-.13-.09,.1-.03,.19-.06,.29-.09-.1-.16-.2-.32-.3-.48Zm3.53-12.09c.12-.07,.24-.15,.38-.24,.17,.07,.38,.15,.6,.24,.02-.05,.04-.09,.05-.14-.38-.16-.76-.46-1.14-.46-.41,0-.66-.19-.97-.35,.18,.02,.35,.05,.56,.07,.02-.23,.04-.41,.06-.6,.04,.73,.05,.74,.93,.73-.27-2.5-.77-4.96-1.19-7.42-.07,0-.15,.01-.22,.02-.1,1.06-.2,2.12-.3,3.14-.02-.06-.04-.16-.11-.4-.14,.91-.26,1.68-.38,2.51,.22-.01,.38-.02,.46-.03,.13-.31,.23-.55,.33-.8,.07,.02,.14,.04,.21,.06-.11,.9-.21,1.8-.31,2.71-.15,.07-.31,.13-.56,.24,.59,.25,1.11,.48,1.64,.71-.29-.07-.59-.15-.88-.22,0,.03-.02,.07-.03,.1l1.99,.77s.03-.05,.04-.08c-.38-.2-.76-.39-1.15-.59Zm-4.02,8.45c-.08-.03-.18-.11-.25-.1-.57,.15-1.13,.31-1.69,.5-.06,.02-.05,.27-.08,.48,.53-.11,.95-.18,1.35-.3,.25-.07,.47-.22,.71-.34,.63-.09,1.27-.18,1.9-.29,.06-.01,.12-.27,.08-.37-.03-.09-.23-.17-.33-.16-.42,.08-.84,.18-1.24,.3-.16,.05-.3,.18-.45,.28ZM31.27,6.33c-.39,2.41-.78,4.86-1.18,7.32,.68,.17,1.32,.33,1.98,.49-.27-2.65-.54-5.25-.8-7.81Zm-4.51,16.17c.57-.39,1.36-.08,1.82-.74,0,0,.04,.03,.06,.03,.16,.02,.33,.1,.47,.06,1.41-.48,2.81-.97,4.21-1.5,.29-.11,.52-.35,.78-.54-.02-.05-.05-.11-.07-.16-.16,.03-.33,.05-.48,.1-1.1,.39-2.17,.84-3.29,1.18-1.04,.32-2.11,.53-3.17,.78-.38,.09-.56,.26-.33,.78Zm-4.41,.64c-.05-.05-.11-.1-.16-.15-.51,.08-1.02,.16-1.52,.26-.43,.08-.83,.23-1.28,.22-.42,0-.84,.11-1.27,.17-.41,.05-.53,.26-.33,.68,1.42-.27,2.82-.52,4.22-.8,.13-.03,.23-.24,.34-.36ZM10.48,14.19h-3.27c.42,.28,2.59,.28,3.27,0Zm10.47,12.45c.25-.95,.19-1.2-.35-1.3,.1,.42-.19,.91,.35,1.3Zm13.04-6.3c.21,.26,.35,.42,.49,.59,.1-.22,.24-.43,.27-.66,.01-.09-.21-.31-.32-.31-.12,0-.24,.2-.44,.38Zm-2.32,1c.38,.28,.71,.52,1.08,.78,.11-.59-.41-.97-1.08-.78Zm-2.18,4.37c-.26-.21-.44-.36-.63-.51-.06,.09-.19,.23-.17,.26,.14,.18,.31,.35,.48,.5,.02,.01,.15-.12,.32-.25Zm-5.14-2.44c.47,.22,.79,.63,1.41,.34-.46-.25-.78-.66-1.41-.34Zm4.95,1.49s.09-.06,.14-.09c-.09-.19-.16-.41-.29-.55-.08-.09-.28-.07-.43-.09,.03,.15,0,.34,.09,.43,.13,.14,.33,.21,.49,.31Zm-5.17-11.22c-.47,.08-.86,.14-1.24,.21,.78,.3,1.1,.24,1.24-.21Z"/>
      <path class="cls-1" d="M.67,22.46c3.41-.43,7.11-.91,10.93-1.39-3.79,.76-7.45,1.53-10.93,1.39Z"/>
      <path class="cls-1" d="M26.34,19.52v-.69c1.04-.29,2.09-.59,3.15-.89,.14,.29-.02,.42-.31,.51-.81,.25-1.63,.5-2.43,.77-.17,.06-.3,.22-.4,.3Z"/>
      <path class="cls-1" d="M2.44,23.51c3.02-.36,6.04-.72,9.06-1.08-2.99,.64-6.01,.92-9.06,1.08Z"/>
      <path class="cls-1" d="M13.31,13.43h4.57s0,.06,0,.09h-4.57s0-.06,0-.09Z"/>
      <path class="cls-1" d="M30,16.42v3.24s-.06,0-.08,0v-3.24s.06,0,.08,0Z"/>
      <path class="cls-1" d="M29.47,18.89c-.68,.22-1.36,.44-2.03,.67-.01-.03-.02-.07-.03-.1,.69-.24,1.37-.49,2.06-.73,0,.06,0,.11,0,.17Z"/>
      <path class="cls-1" d="M32.05,3.41c-.05-.5-.1-1.01-.15-1.51,.02,0,.04,0,.06,0,.09,.5,.17,1.01,.26,1.51-.06,0-.11,0-.17,0Z"/>
    </g>
  </g>
</svg>