<svg width="16" height="16" viewBox="0 0 16 16" fill="none" xmlns="http://www.w3.org/2000/svg">
<path d="M6.27441 11.2986C6.27441 9.30103 8.08543 6.59555 10.0763 5.62524H12.1499C14.1403 6.59488 15.9519 9.30103 15.9519 11.2986C15.9519 13.7401 13.7847 14.9091 11.1131 14.9091C8.44144 14.9091 6.27441 13.7401 6.27441 11.2986Z" fill="white"/>
<path d="M6.27441 11.2986C6.27441 9.30103 8.08543 6.59555 10.0763 5.62524H12.1499C14.1403 6.59488 15.9519 9.30103 15.9519 11.2986C15.9519 13.7401 13.7847 14.9091 11.1131 14.9091C8.44144 14.9091 6.27441 13.7401 6.27441 11.2986Z" fill="#4F2DA7"/>
<path d="M11.1607 12.3687C8.99838 12.3687 7.16724 11.6023 6.54796 10.0156C6.40662 10.4424 6.33038 10.8879 6.32178 11.3372C6.32178 13.7787 8.48903 14.9477 11.1604 14.9477C13.8318 14.9477 15.9993 13.7787 15.9993 11.3372C15.9907 10.8879 15.9145 10.4424 15.7731 10.0156C15.1541 11.6023 13.3229 12.3687 11.1607 12.3687Z" fill="white"/>
<path opacity="0.8" d="M11.1607 12.3687C8.99838 12.3687 7.16724 11.6023 6.54796 10.0156C6.40662 10.4424 6.33038 10.8879 6.32178 11.3372C6.32178 13.7787 8.48903 14.9477 11.1604 14.9477C13.8318 14.9477 15.9993 13.7787 15.9993 11.3372C15.9907 10.8879 15.9145 10.4424 15.7731 10.0156C15.1541 11.6023 13.3229 12.3687 11.1607 12.3687Z" fill="#4F2DA7"/>
<path d="M11.1608 5.66387C11.1608 5.66387 10.722 5.1929 10.2561 4.71134C9.96411 4.40936 9.62281 4.06575 9.27675 3.72956C9.22454 3.67893 9.18976 3.61318 9.17738 3.5417C9.165 3.47022 9.17566 3.39668 9.20783 3.33159C9.24001 3.2665 9.29204 3.2132 9.3565 3.17931C9.42096 3.14543 9.49454 3.13269 9.56672 3.14292C10.0947 3.21871 10.6274 3.25676 11.1608 3.25678C11.6942 3.25676 12.227 3.21871 12.7549 3.14292C12.8272 3.13257 12.9008 3.14522 12.9654 3.17906C13.0299 3.21291 13.082 3.2662 13.1143 3.33132C13.1465 3.39644 13.1572 3.47004 13.1448 3.54157C13.1324 3.61311 13.0976 3.67891 13.0454 3.72956C12.6984 4.06575 12.358 4.40936 12.066 4.71134C11.5998 5.1929 11.1608 5.66387 11.1608 5.66387Z" fill="white"/>
<path d="M11.1608 5.66387C11.1608 5.66387 10.722 5.1929 10.2561 4.71134C9.96411 4.40936 9.62281 4.06575 9.27675 3.72956C9.22454 3.67893 9.18976 3.61318 9.17738 3.5417C9.165 3.47022 9.17566 3.39668 9.20783 3.33159C9.24001 3.2665 9.29204 3.2132 9.3565 3.17931C9.42096 3.14543 9.49454 3.13269 9.56672 3.14292C10.0947 3.21871 10.6274 3.25676 11.1608 3.25678C11.6942 3.25676 12.227 3.21871 12.7549 3.14292C12.8272 3.13257 12.9008 3.14522 12.9654 3.17906C13.0299 3.21291 13.082 3.2662 13.1143 3.33132C13.1465 3.39644 13.1572 3.47004 13.1448 3.54157C13.1324 3.61311 13.0976 3.67891 13.0454 3.72956C12.6984 4.06575 12.358 4.40936 12.066 4.71134C11.5998 5.1929 11.1608 5.66387 11.1608 5.66387Z" fill="#1E0167"/>
<path d="M9.28521 3.73864C9.32259 3.704 9.36726 3.67807 9.41596 3.66273C9.46467 3.6474 9.51619 3.64304 9.5668 3.64998C10.0948 3.72576 10.6275 3.76382 11.1609 3.76384C11.6943 3.76382 12.2271 3.72576 12.755 3.64998C12.8056 3.64304 12.8572 3.6474 12.9059 3.66273C12.9546 3.67807 12.9992 3.704 13.0366 3.73864L13.0459 3.72964C13.0982 3.67897 13.1331 3.61311 13.1454 3.54152C13.1578 3.46993 13.1471 3.39628 13.1148 3.33113C13.0825 3.26598 13.0303 3.21269 12.9656 3.17889C12.901 3.14509 12.8273 3.13252 12.755 3.14299C12.2271 3.21878 11.6943 3.25683 11.1609 3.25686C10.6275 3.25683 10.0948 3.21878 9.5668 3.14299C9.49455 3.13252 9.42082 3.14509 9.35619 3.17889C9.29156 3.21269 9.23935 3.26598 9.20705 3.33113C9.17474 3.39628 9.16401 3.46993 9.17639 3.54152C9.18876 3.61311 9.22361 3.67897 9.27593 3.72964C9.27933 3.73256 9.28204 3.73481 9.28521 3.73864Z" fill="white"/>
<path opacity="0.6" d="M9.28521 3.73864C9.32259 3.704 9.36726 3.67807 9.41596 3.66273C9.46467 3.6474 9.51619 3.64304 9.5668 3.64998C10.0948 3.72576 10.6275 3.76382 11.1609 3.76384C11.6943 3.76382 12.2271 3.72576 12.755 3.64998C12.8056 3.64304 12.8572 3.6474 12.9059 3.66273C12.9546 3.67807 12.9992 3.704 13.0366 3.73864L13.0459 3.72964C13.0982 3.67897 13.1331 3.61311 13.1454 3.54152C13.1578 3.46993 13.1471 3.39628 13.1148 3.33113C13.0825 3.26598 13.0303 3.21269 12.9656 3.17889C12.901 3.14509 12.8273 3.13252 12.755 3.14299C12.2271 3.21878 11.6943 3.25683 11.1609 3.25686C10.6275 3.25683 10.0948 3.21878 9.5668 3.14299C9.49455 3.13252 9.42082 3.14509 9.35619 3.17889C9.29156 3.21269 9.23935 3.26598 9.20705 3.33113C9.17474 3.39628 9.16401 3.46993 9.17639 3.54152C9.18876 3.61311 9.22361 3.67897 9.27593 3.72964C9.27933 3.73256 9.28204 3.73481 9.28521 3.73864Z" fill="#1E0167"/>
<path d="M11.9223 4.8615C12.0599 4.74134 12.2062 4.63138 12.36 4.53252C12.9648 4.25416 13.2421 4.38467 13.3593 4.64278C13.4764 4.90088 13.3968 5.19296 12.792 5.46772C12.408 5.61104 11.9993 5.67772 11.5894 5.66394H11.1597C11.1597 5.66394 11.7909 4.99899 11.9223 4.8615Z" stroke="#5A6389" stroke-width="0.142852" stroke-linecap="round" stroke-linejoin="round"/>
<path d="M11.1606 5.66406C11.2991 5.78423 12.2689 6.67825 12.1907 7.73429" stroke="#5A6389" stroke-width="0.142852" stroke-linecap="round" stroke-linejoin="round"/>
<path d="M10.399 4.8615C10.2614 4.74124 10.1152 4.63127 9.9613 4.53252C9.35672 4.25416 9.0792 4.38467 8.96226 4.64278C8.84533 4.90088 8.92472 5.19296 9.5293 5.46772C9.91341 5.61103 10.3221 5.6777 10.7321 5.66394H11.1607C11.1607 5.66394 10.5306 4.99899 10.399 4.8615Z" stroke="#5A6389" stroke-width="0.142852" stroke-linecap="round" stroke-linejoin="round"/>
<path d="M11.1611 5.66406C11.0227 5.78423 10.0517 6.67825 10.1311 7.73429" stroke="#5A6389" stroke-width="0.142852" stroke-linecap="round" stroke-linejoin="round"/>
<path d="M11.9516 9.10908L11.7207 9.10908C11.7018 9.01894 11.669 8.9342 11.6208 8.85667L11.9516 8.85667C12.0463 8.85667 12.1238 8.77554 12.1238 8.67638C12.1238 8.57722 12.0463 8.49609 11.9516 8.49609L10.6044 8.49609C10.5097 8.49609 10.4322 8.57722 10.4322 8.67638C10.4322 8.77554 10.5097 8.85667 10.6044 8.85667L10.9903 8.85667C11.1522 8.85667 11.2935 8.96485 11.3572 9.10908L10.6044 9.10908C10.5097 9.10908 10.4322 9.19021 10.4322 9.28937C10.4322 9.38853 10.5097 9.46966 10.6044 9.46966L11.3572 9.46966C11.3348 9.51113 11.309 9.54899 11.278 9.58324C11.2005 9.66257 11.0971 9.70584 10.9903 9.70404L10.6044 9.70404C10.508 9.70584 10.4304 9.78697 10.4322 9.88793C10.4322 9.93661 10.4528 9.98349 10.4856 10.0177L11.4485 10.9715C11.5174 11.04 11.626 11.0364 11.6914 10.9643C11.7569 10.8922 11.7534 10.7786 11.6845 10.7101L11.0351 10.0664C11.2177 10.0556 11.39 9.97628 11.5192 9.84106C11.6174 9.73829 11.6863 9.61029 11.7207 9.46966L11.9516 9.46966C12.0463 9.46966 12.1238 9.38853 12.1238 9.28937C12.1238 9.19021 12.0463 9.10908 11.9516 9.10908Z" fill="white"/>
<path d="M0.150692 5.69877C0.126547 5.70177 0.103291 5.71011 0.082479 5.72324C0.0616676 5.73638 0.0437806 5.75401 0.030014 5.77495C0.0162473 5.79589 0.00691849 5.81965 0.00265115 5.84466C-0.0016162 5.86967 -0.000723717 5.89534 0.0052691 5.91996C0.0163177 6.02323 0.0414011 6.10153 0.186526 6.09935C1.99939 6.07283 4.88039 6.09935 7.48367 3.06199L8.38936 3.55615C8.4212 3.57362 8.45707 3.58145 8.49293 3.57877C8.5288 3.5761 8.56324 3.56302 8.59238 3.54101C8.62152 3.51899 8.6442 3.48892 8.65787 3.45417C8.67154 3.41943 8.67565 3.38138 8.66975 3.34432L8.16868 0.169075C8.16402 0.139934 8.15331 0.112212 8.1373 0.0878549C8.12129 0.0634984 8.10037 0.0430976 8.07601 0.0280845C8.05165 0.0130714 8.02445 0.0038106 7.9963 0.000950706C7.96815 -0.00190919 7.93974 0.00170198 7.91307 0.0115305L4.91114 1.12589C4.87624 1.13878 4.84562 1.16187 4.82292 1.19241C4.80022 1.22296 4.7864 1.25967 4.78309 1.29819C4.77979 1.33671 4.78715 1.3754 4.80429 1.40968C4.82143 1.44395 4.84764 1.47236 4.87979 1.49152C5.18527 1.67372 5.61198 1.92828 5.88013 2.08926C3.87496 4.274 3.04721 4.8446 0.150692 5.69877Z" fill="#119A4B"/>
<path d="M4.27738 15.2829C4.27738 15.0929 4.20859 14.9107 4.08614 14.7764C3.96368 14.6421 3.7976 14.5667 3.62443 14.5667H1.01197C0.841234 14.5708 0.678759 14.6481 0.559338 14.782C0.439918 14.9159 0.373047 15.0957 0.373047 15.283C0.373047 15.4704 0.439918 15.6502 0.559338 15.7841C0.678759 15.918 0.841234 15.9953 1.01197 15.9994H3.62443C3.79763 15.9994 3.96371 15.9238 4.08616 15.7894C4.2086 15.6551 4.27738 15.4729 4.27738 15.2829Z" fill="white"/>
<path d="M4.27738 15.2829C4.27738 15.0929 4.20859 14.9107 4.08614 14.7764C3.96368 14.6421 3.7976 14.5667 3.62443 14.5667H1.01197C0.841234 14.5708 0.678759 14.6481 0.559338 14.782C0.439918 14.9159 0.373047 15.0957 0.373047 15.283C0.373047 15.4704 0.439918 15.6502 0.559338 15.7841C0.678759 15.918 0.841234 15.9953 1.01197 15.9994H3.62443C3.79763 15.9994 3.96371 15.9238 4.08616 15.7894C4.2086 15.6551 4.27738 15.4729 4.27738 15.2829Z" fill="#9D95F8"/>
<path d="M3.62479 15.9981H1.01233C0.839128 15.998 0.673047 15.9224 0.550603 15.7881C0.428158 15.6537 0.359375 15.4715 0.359375 15.2815H4.27775C4.27779 15.3756 4.26093 15.4688 4.22814 15.5557C4.19534 15.6426 4.14725 15.7216 4.08662 15.7882C4.02598 15.8547 3.95398 15.9075 3.87474 15.9435C3.7955 15.9795 3.71057 15.9981 3.62479 15.9981Z" fill="#675AF6"/>
<path d="M4.27738 13.85C4.27738 13.6601 4.20859 13.4779 4.08614 13.3436C3.96368 13.2092 3.7976 13.1338 3.62443 13.1338H1.01197C0.841234 13.1379 0.678759 13.2152 0.559338 13.3491C0.439918 13.483 0.373047 13.6629 0.373047 13.8502C0.373047 14.0375 0.439918 14.2174 0.559338 14.3513C0.678759 14.4852 0.841234 14.5625 1.01197 14.5666H3.62443C3.79763 14.5665 3.96371 14.491 4.08616 14.3566C4.2086 14.2222 4.27738 14.04 4.27738 13.85Z" fill="white"/>
<path d="M4.27738 13.85C4.27738 13.6601 4.20859 13.4779 4.08614 13.3436C3.96368 13.2092 3.7976 13.1338 3.62443 13.1338H1.01197C0.841234 13.1379 0.678759 13.2152 0.559338 13.3491C0.439918 13.483 0.373047 13.6629 0.373047 13.8502C0.373047 14.0375 0.439918 14.2174 0.559338 14.3513C0.678759 14.4852 0.841234 14.5625 1.01197 14.5666H3.62443C3.79763 14.5665 3.96371 14.491 4.08616 14.3566C4.2086 14.2222 4.27738 14.04 4.27738 13.85Z" fill="#9D95F8"/>
<path d="M3.62479 14.5652H1.01233C0.839128 14.5651 0.673047 14.4896 0.550603 14.3552C0.428158 14.2208 0.359375 14.0386 0.359375 13.8486H4.27775C4.27779 13.9427 4.26093 14.0359 4.22814 14.1228C4.19534 14.2098 4.14725 14.2888 4.08662 14.3553C4.02598 14.4218 3.95398 14.4746 3.87474 14.5107C3.7955 14.5467 3.71057 14.5652 3.62479 14.5652Z" fill="#675AF6"/>
<path d="M4.08158 12.4172C4.08158 12.2272 4.01279 12.045 3.89034 11.9107C3.76788 11.7764 3.6018 11.7009 3.42863 11.7009H0.816165C0.645433 11.705 0.482958 11.7823 0.363538 11.9162C0.244117 12.0501 0.177246 12.23 0.177246 12.4173C0.177246 12.6046 0.244117 12.7845 0.363538 12.9184C0.482958 13.0523 0.645433 13.1296 0.816165 13.1337H3.42863C3.60183 13.1336 3.76791 13.0581 3.89036 12.9237C4.0128 12.7894 4.08158 12.6071 4.08158 12.4172Z" fill="white"/>
<path d="M4.08158 12.4172C4.08158 12.2272 4.01279 12.045 3.89034 11.9107C3.76788 11.7764 3.6018 11.7009 3.42863 11.7009H0.816165C0.645433 11.705 0.482958 11.7823 0.363538 11.9162C0.244117 12.0501 0.177246 12.23 0.177246 12.4173C0.177246 12.6046 0.244117 12.7845 0.363538 12.9184C0.482958 13.0523 0.645433 13.1296 0.816165 13.1337H3.42863C3.60183 13.1336 3.76791 13.0581 3.89036 12.9237C4.0128 12.7894 4.08158 12.6071 4.08158 12.4172Z" fill="#9D95F8"/>
<path d="M3.4285 13.1323H0.816043C0.642839 13.1323 0.476758 13.0567 0.354313 12.9223C0.231869 12.788 0.163086 12.6058 0.163086 12.4158H4.08146C4.0815 12.5099 4.06464 12.603 4.03185 12.69C3.99905 12.7769 3.95096 12.8559 3.89033 12.9224C3.82969 12.989 3.75769 13.0418 3.67845 13.0778C3.59921 13.1138 3.51428 13.1323 3.4285 13.1323Z" fill="#675AF6"/>
<path d="M4.36332 11.0146C4.36332 10.8246 4.29453 10.6424 4.17207 10.5081C4.04962 10.3738 3.88354 10.2983 3.71036 10.2983H1.0979C0.927171 10.3025 0.764697 10.3797 0.645276 10.5136C0.525855 10.6475 0.458984 10.8274 0.458984 11.0147C0.458984 11.2021 0.525855 11.3819 0.645276 11.5158C0.764697 11.6497 0.927171 11.727 1.0979 11.7311H3.71036C3.88357 11.731 4.04965 11.6555 4.17209 11.5211C4.29454 11.3868 4.36332 11.2046 4.36332 11.0146Z" fill="white"/>
<path d="M4.36332 11.0146C4.36332 10.8246 4.29453 10.6424 4.17207 10.5081C4.04962 10.3738 3.88354 10.2983 3.71036 10.2983H1.0979C0.927171 10.3025 0.764697 10.3797 0.645276 10.5136C0.525855 10.6475 0.458984 10.8274 0.458984 11.0147C0.458984 11.2021 0.525855 11.3819 0.645276 11.5158C0.764697 11.6497 0.927171 11.727 1.0979 11.7311H3.71036C3.88357 11.731 4.04965 11.6555 4.17209 11.5211C4.29454 11.3868 4.36332 11.2046 4.36332 11.0146Z" fill="#9D95F8"/>
<path d="M3.71073 11.7298H1.09827C0.925066 11.7297 0.758984 11.6541 0.63654 11.5198C0.514096 11.3854 0.445312 11.2032 0.445313 11.0132H4.36369C4.36373 11.1073 4.34687 11.2004 4.31408 11.2874C4.28128 11.3743 4.23319 11.4533 4.17255 11.5199C4.11192 11.5864 4.03992 11.6392 3.96068 11.6752C3.88144 11.7112 3.79651 11.7298 3.71073 11.7298Z" fill="#675AF6"/>
<path d="M4.08158 9.61198C4.08158 9.42202 4.01279 9.23985 3.89034 9.10553C3.76788 8.97121 3.6018 8.89575 3.42863 8.89575H0.816165C0.645433 8.89987 0.482958 8.97715 0.363538 9.11106C0.244117 9.24496 0.177246 9.42483 0.177246 9.61215C0.177246 9.79947 0.244117 9.97934 0.363538 10.1132C0.482958 10.2472 0.645433 10.3244 0.816165 10.3286H3.42863C3.60183 10.3285 3.76791 10.2529 3.89036 10.1185C4.0128 9.98418 4.08158 9.80197 4.08158 9.61198Z" fill="white"/>
<path d="M4.08158 9.61198C4.08158 9.42202 4.01279 9.23985 3.89034 9.10553C3.76788 8.97121 3.6018 8.89575 3.42863 8.89575H0.816165C0.645433 8.89987 0.482958 8.97715 0.363538 9.11106C0.244117 9.24496 0.177246 9.42483 0.177246 9.61215C0.177246 9.79947 0.244117 9.97934 0.363538 10.1132C0.482958 10.2472 0.645433 10.3244 0.816165 10.3286H3.42863C3.60183 10.3285 3.76791 10.2529 3.89036 10.1185C4.0128 9.98418 4.08158 9.80197 4.08158 9.61198Z" fill="#9D95F8"/>
<path d="M3.4285 10.3272H0.816043C0.642839 10.3271 0.476758 10.2515 0.354313 10.1172C0.231869 9.98279 0.163086 9.80058 0.163086 9.6106H4.08146C4.0815 9.70468 4.06464 9.79785 4.03185 9.88479C3.99905 9.97173 3.95096 10.0507 3.89033 10.1173C3.82969 10.1838 3.75769 10.2366 3.67845 10.2726C3.59921 10.3086 3.51428 10.3272 3.4285 10.3272Z" fill="#675AF6"/>
<path d="M8.78324 15.2829C8.78324 15.0929 8.71445 14.9107 8.592 14.7764C8.46954 14.6421 8.30346 14.5667 8.13029 14.5667H5.51782C5.34709 14.5708 5.18462 14.6481 5.0652 14.782C4.94578 14.9159 4.87891 15.0957 4.87891 15.283C4.87891 15.4704 4.94578 15.6502 5.0652 15.7841C5.18462 15.918 5.34709 15.9953 5.51782 15.9994H8.13029C8.30349 15.9994 8.46957 15.9238 8.59202 15.7894C8.71446 15.6551 8.78324 15.4729 8.78324 15.2829Z" fill="white"/>
<path d="M8.78324 15.2829C8.78324 15.0929 8.71445 14.9107 8.592 14.7764C8.46954 14.6421 8.30346 14.5667 8.13029 14.5667H5.51782C5.34709 14.5708 5.18462 14.6481 5.0652 14.782C4.94578 14.9159 4.87891 15.0957 4.87891 15.283C4.87891 15.4704 4.94578 15.6502 5.0652 15.7841C5.18462 15.918 5.34709 15.9953 5.51782 15.9994H8.13029C8.30349 15.9994 8.46957 15.9238 8.59202 15.7894C8.71446 15.6551 8.78324 15.4729 8.78324 15.2829Z" fill="#9D95F8"/>
<path d="M8.13065 15.9981H5.51819C5.34499 15.998 5.17891 15.9224 5.05646 15.7881C4.93402 15.6537 4.86523 15.4715 4.86523 15.2815H8.78361C8.78365 15.3756 8.76679 15.4688 8.734 15.5557C8.7012 15.6426 8.65311 15.7216 8.59247 15.7882C8.53184 15.8547 8.45984 15.9075 8.3806 15.9435C8.30136 15.9795 8.21643 15.9981 8.13065 15.9981Z" fill="#675AF6"/>
<path d="M8.78324 13.85C8.78324 13.6601 8.71445 13.4779 8.592 13.3436C8.46954 13.2092 8.30346 13.1338 8.13029 13.1338H5.51782C5.34709 13.1379 5.18462 13.2152 5.0652 13.3491C4.94578 13.483 4.87891 13.6629 4.87891 13.8502C4.87891 14.0375 4.94578 14.2174 5.0652 14.3513C5.18462 14.4852 5.34709 14.5625 5.51782 14.5666H8.13029C8.30349 14.5665 8.46957 14.491 8.59202 14.3566C8.71446 14.2222 8.78324 14.04 8.78324 13.85Z" fill="white"/>
<path d="M8.78324 13.85C8.78324 13.6601 8.71445 13.4779 8.592 13.3436C8.46954 13.2092 8.30346 13.1338 8.13029 13.1338H5.51782C5.34709 13.1379 5.18462 13.2152 5.0652 13.3491C4.94578 13.483 4.87891 13.6629 4.87891 13.8502C4.87891 14.0375 4.94578 14.2174 5.0652 14.3513C5.18462 14.4852 5.34709 14.5625 5.51782 14.5666H8.13029C8.30349 14.5665 8.46957 14.491 8.59202 14.3566C8.71446 14.2222 8.78324 14.04 8.78324 13.85Z" fill="#9D95F8"/>
<path d="M8.13065 14.5652H5.51819C5.34499 14.5651 5.17891 14.4896 5.05646 14.3552C4.93402 14.2208 4.86523 14.0386 4.86523 13.8486H8.78361C8.78365 13.9427 8.76679 14.0359 8.734 14.1228C8.7012 14.2098 8.65311 14.2888 8.59247 14.3553C8.53184 14.4218 8.45984 14.4746 8.3806 14.5107C8.30136 14.5467 8.21643 14.5652 8.13065 14.5652Z" fill="#675AF6"/>
<path d="M9.17533 12.4172C9.17533 12.2272 9.10654 12.045 8.98409 11.9107C8.86163 11.7764 8.69555 11.7009 8.52238 11.7009H5.90991C5.73918 11.705 5.57671 11.7823 5.45729 11.9162C5.33787 12.0501 5.271 12.23 5.271 12.4173C5.271 12.6046 5.33787 12.7845 5.45729 12.9184C5.57671 13.0523 5.73918 13.1296 5.90991 13.1337H8.52238C8.69558 13.1336 8.86166 13.0581 8.98411 12.9237C9.10655 12.7894 9.17533 12.6071 9.17533 12.4172Z" fill="white"/>
<path d="M9.17533 12.4172C9.17533 12.2272 9.10654 12.045 8.98409 11.9107C8.86163 11.7764 8.69555 11.7009 8.52238 11.7009H5.90991C5.73918 11.705 5.57671 11.7823 5.45729 11.9162C5.33787 12.0501 5.271 12.23 5.271 12.4173C5.271 12.6046 5.33787 12.7845 5.45729 12.9184C5.57671 13.0523 5.73918 13.1296 5.90991 13.1337H8.52238C8.69558 13.1336 8.86166 13.0581 8.98411 12.9237C9.10655 12.7894 9.17533 12.6071 9.17533 12.4172Z" fill="#9D95F8"/>
<path d="M8.52225 13.1323H5.90979C5.73659 13.1323 5.57051 13.0567 5.44806 12.9223C5.32562 12.788 5.25684 12.6058 5.25684 12.4158H9.17521C9.17525 12.5099 9.15839 12.603 9.1256 12.69C9.0928 12.7769 9.04471 12.8559 8.98408 12.9224C8.92344 12.989 8.85144 13.0418 8.7722 13.0778C8.69296 13.1138 8.60803 13.1323 8.52225 13.1323Z" fill="#675AF6"/>
<path d="M8.97953 10.9843C8.97953 10.7943 8.91074 10.6122 8.78829 10.4778C8.66583 10.3435 8.49975 10.2681 8.32658 10.2681H5.71411C5.54338 10.2722 5.38091 10.3495 5.26149 10.4834C5.14207 10.6173 5.0752 10.7971 5.0752 10.9845C5.0752 11.1718 5.14207 11.3517 5.26149 11.4856C5.38091 11.6195 5.54338 11.6967 5.71411 11.7009H8.32658C8.49978 11.7008 8.66586 11.6252 8.7883 11.4909C8.91075 11.3565 8.97953 11.1743 8.97953 10.9843Z" fill="white"/>
<path d="M8.97953 10.9843C8.97953 10.7943 8.91074 10.6122 8.78829 10.4778C8.66583 10.3435 8.49975 10.2681 8.32658 10.2681H5.71411C5.54338 10.2722 5.38091 10.3495 5.26149 10.4834C5.14207 10.6173 5.0752 10.7971 5.0752 10.9845C5.0752 11.1718 5.14207 11.3517 5.26149 11.4856C5.38091 11.6195 5.54338 11.6967 5.71411 11.7009H8.32658C8.49978 11.7008 8.66586 11.6252 8.7883 11.4909C8.91075 11.3565 8.97953 11.1743 8.97953 10.9843Z" fill="#9D95F8"/>
<path d="M8.32694 11.6995H5.71448C5.54128 11.6994 5.3752 11.6239 5.25275 11.4895C5.13031 11.3551 5.06152 11.1729 5.06152 10.9829H8.9799C8.97994 11.077 8.96308 11.1702 8.93029 11.2571C8.89749 11.344 8.8494 11.423 8.78876 11.4896C8.72813 11.5561 8.65613 11.6089 8.57689 11.6449C8.49765 11.6809 8.41272 11.6995 8.32694 11.6995Z" fill="#675AF6"/>
<path d="M9.17533 9.55168C9.17533 9.36172 9.10654 9.17955 8.98409 9.04523C8.86163 8.91091 8.69555 8.83545 8.52238 8.83545H5.90991C5.73918 8.83957 5.57671 8.91685 5.45729 9.05075C5.33787 9.18466 5.271 9.36453 5.271 9.55185C5.271 9.73917 5.33787 9.91904 5.45729 10.0529C5.57671 10.1868 5.73918 10.2641 5.90991 10.2682H8.52238C8.69558 10.2682 8.86166 10.1926 8.98411 10.0582C9.10655 9.92387 9.17533 9.74166 9.17533 9.55168Z" fill="white"/>
<path d="M9.17533 9.55168C9.17533 9.36172 9.10654 9.17955 8.98409 9.04523C8.86163 8.91091 8.69555 8.83545 8.52238 8.83545H5.90991C5.73918 8.83957 5.57671 8.91685 5.45729 9.05075C5.33787 9.18466 5.271 9.36453 5.271 9.55185C5.271 9.73917 5.33787 9.91904 5.45729 10.0529C5.57671 10.1868 5.73918 10.2641 5.90991 10.2682H8.52238C8.69558 10.2682 8.86166 10.1926 8.98411 10.0582C9.10655 9.92387 9.17533 9.74166 9.17533 9.55168Z" fill="#9D95F8"/>
<path d="M8.52225 10.2669H5.90979C5.73659 10.2668 5.57051 10.1912 5.44806 10.0569C5.32562 9.92249 5.25684 9.74028 5.25684 9.55029H9.17521C9.17525 9.64438 9.15839 9.73755 9.1256 9.82449C9.0928 9.91142 9.04471 9.99042 8.98408 10.057C8.92344 10.1235 8.85144 10.1763 8.7722 10.2123C8.69296 10.2483 8.60803 10.2669 8.52225 10.2669Z" fill="#675AF6"/>
<path d="M8.89359 8.14909C8.89359 7.95913 8.8248 7.77696 8.70235 7.64264C8.57989 7.50832 8.41381 7.43286 8.24064 7.43286H5.62818C5.45744 7.43698 5.29497 7.51426 5.17555 7.64817C5.05613 7.78207 4.98926 7.96194 4.98926 8.14926C4.98926 8.33658 5.05613 8.51645 5.17555 8.65036C5.29497 8.78426 5.45744 8.86154 5.62818 8.86566H8.24064C8.41384 8.86557 8.57992 8.79003 8.70237 8.65566C8.82481 8.52129 8.89359 8.33907 8.89359 8.14909Z" fill="white"/>
<path d="M8.89359 8.14909C8.89359 7.95913 8.8248 7.77696 8.70235 7.64264C8.57989 7.50832 8.41381 7.43286 8.24064 7.43286H5.62818C5.45744 7.43698 5.29497 7.51426 5.17555 7.64817C5.05613 7.78207 4.98926 7.96194 4.98926 8.14926C4.98926 8.33658 5.05613 8.51645 5.17555 8.65036C5.29497 8.78426 5.45744 8.86154 5.62818 8.86566H8.24064C8.41384 8.86557 8.57992 8.79003 8.70237 8.65566C8.82481 8.52129 8.89359 8.33907 8.89359 8.14909Z" fill="#9D95F8"/>
<path d="M8.24052 8.86428H5.62806C5.45485 8.86419 5.28877 8.78865 5.16633 8.65428C5.04388 8.5199 4.9751 8.33769 4.9751 8.14771H8.89347C8.89352 8.24179 8.87666 8.33496 8.84386 8.4219C8.81106 8.50884 8.76297 8.58783 8.70234 8.65438C8.6417 8.72092 8.56971 8.77371 8.49047 8.80972C8.41122 8.84574 8.32629 8.86428 8.24052 8.86428Z" fill="#675AF6"/>
</svg>
