<svg width="37" height="41" viewBox="0 0 37 41" fill="none" xmlns="http://www.w3.org/2000/svg">
<path d="M25.1063 38.1257C25.1063 38.2739 25.0472 38.416 24.9422 38.5208C24.8371 38.6256 24.6947 38.6845 24.5461 38.6845H12.4664C12.3178 38.6845 12.1754 38.6256 12.0703 38.5208C11.9653 38.416 11.9062 38.2739 11.9062 38.1257V36.4324C11.9063 35.9137 12.1128 35.4162 12.4805 35.0494C12.8482 34.6826 13.3468 34.4766 13.8668 34.4766H23.1457C23.6657 34.4766 24.1644 34.6826 24.532 35.0494C24.8997 35.4162 25.1063 35.9137 25.1063 36.4324V38.1257Z" fill="white"/>
<path d="M25.1063 38.1257C25.1063 38.2739 25.0472 38.416 24.9422 38.5208C24.8371 38.6256 24.6947 38.6845 24.5461 38.6845H12.4664C12.3178 38.6845 12.1754 38.6256 12.0703 38.5208C11.9653 38.416 11.9062 38.2739 11.9062 38.1257V36.4324C11.9063 35.9137 12.1128 35.4162 12.4805 35.0494C12.8482 34.6826 13.3468 34.4766 13.8668 34.4766H23.1457C23.6657 34.4766 24.1644 34.6826 24.532 35.0494C24.8997 35.4162 25.1063 35.9137 25.1063 36.4324V38.1257Z" fill="#101828"/>
<path d="M28.8625 16.7109C28.8643 15.123 28.4975 13.5564 27.7909 12.1336C27.0843 10.7108 26.0571 9.47047 24.7898 8.50986C23.5225 7.54924 22.0494 6.89439 20.4861 6.59658C18.9227 6.29878 17.3114 6.36612 15.7785 6.79332C14.2455 7.22052 12.8325 7.99599 11.6502 9.05897C10.4678 10.122 9.54824 11.4436 8.96341 12.9204C8.37859 14.3971 8.14442 15.9889 8.27925 17.5711C8.41408 19.1532 8.91426 20.6827 9.74059 22.0398C11.5124 24.9367 14.726 28.2734 14.726 31.6672V31.6711H22.3031V31.6672C22.3031 28.2533 25.584 24.9541 27.3664 22.0398C28.3479 20.435 28.8657 18.5908 28.8625 16.7109Z" fill="#4F2DA7"/>
<path d="M25.1063 36.4324C25.1063 35.9137 24.8997 35.4162 24.532 35.0494C24.1644 34.6826 23.6657 34.4766 23.1457 34.4766H13.8668C13.3468 34.4766 12.8482 34.6826 12.4805 35.0494C12.1128 35.4162 11.9063 35.9137 11.9063 36.4324V37.9055C11.9062 38.0127 11.9285 38.1187 11.9718 38.2168H12.0788C12.2706 37.6709 12.6275 37.1978 13.1003 36.8629C13.5731 36.528 14.1384 36.3477 14.7182 36.3469H22.296C22.8758 36.3481 23.441 36.5286 23.9137 36.8634C24.3865 37.1983 24.7436 37.6711 24.936 38.2168H25.0407C25.0835 38.1185 25.1056 38.0126 25.1057 37.9055L25.1063 36.4324Z" fill="white"/>
<path d="M25.1063 36.4324C25.1063 35.9137 24.8997 35.4162 24.532 35.0494C24.1644 34.6826 23.6657 34.4766 23.1457 34.4766H13.8668C13.3468 34.4766 12.8482 34.6826 12.4805 35.0494C12.1128 35.4162 11.9063 35.9137 11.9063 36.4324V37.9055C11.9062 38.0127 11.9285 38.1187 11.9718 38.2168H12.0788C12.2706 37.6709 12.6275 37.1978 13.1003 36.8629C13.5731 36.528 14.1384 36.3477 14.7182 36.3469H22.296C22.8758 36.3481 23.441 36.5286 23.9137 36.8634C24.3865 37.1983 24.7436 37.6711 24.936 38.2168H25.0407C25.0835 38.1185 25.1056 38.0126 25.1057 37.9055L25.1063 36.4324Z" fill="#101828"/>
<path d="M18.5472 31.6711C15.5787 25.7102 21.8339 23.4861 19.016 19.5156" stroke="white" stroke-width="0.700001" stroke-linecap="round" stroke-linejoin="round"/>
<path d="M19.031 19.5641C20.7881 13.853 12.6106 11.2779 11.0625 14.4112C15.5825 16.1626 11.7705 18.3034 19.031 19.5641Z" fill="white"/>
<path d="M19.0469 19.5567C19.0469 19.5567 19.663 14.5944 25.0332 16.2909C23.284 17.5835 23.5081 19.8993 19.0469 19.5567Z" fill="white"/>
<path d="M17.8438 27.3416C17.8438 27.3416 19.1992 22.5273 24.2524 25.0062C22.329 26.0233 22.203 28.3463 17.8438 27.3416Z" fill="white"/>
<path d="M18.4071 25.5919C18.4071 25.5919 19.4103 20.6927 13.7812 20.5898C15.0241 22.3714 14.0703 24.4949 18.4071 25.5919Z" fill="white"/>
<path d="M23.2307 33.5404C23.2307 33.788 23.1322 34.0256 22.9568 34.2009C22.7815 34.3761 22.5436 34.4748 22.2953 34.4753H14.7183C14.4698 34.4753 14.2314 34.3768 14.0557 34.2015C13.88 34.0261 13.7812 33.7883 13.7812 33.5404C13.7812 33.2924 13.88 33.0546 14.0557 32.8793C14.2314 32.704 14.4698 32.6055 14.7183 32.6055H22.2953C22.5436 32.6059 22.7815 32.7046 22.9568 32.8799C23.1322 33.0552 23.2307 33.2927 23.2307 33.5404Z" fill="#119A4B"/>
<path d="M23.2307 31.6693C23.2307 31.9169 23.1322 32.1545 22.9568 32.3298C22.7815 32.5051 22.5436 32.6037 22.2953 32.6042H14.7183C14.4698 32.6042 14.2314 32.5057 14.0557 32.3304C13.88 32.155 13.7812 31.9172 13.7812 31.6693C13.7812 31.4213 13.88 31.1835 14.0557 31.0082C14.2314 30.8329 14.4698 30.7344 14.7183 30.7344H22.2953C22.5436 30.7348 22.7815 30.8335 22.9568 31.0088C23.1322 31.1841 23.2307 31.4216 23.2307 31.6693Z" fill="#119A4B"/>
<path d="M18.5469 3.77448V1.04688" stroke="#119A4B" stroke-width="0.700001" stroke-linecap="round" stroke-linejoin="round"/>
<path d="M28.9922 8.09646L30.9251 6.16797" stroke="#119A4B" stroke-width="0.700001" stroke-linecap="round" stroke-linejoin="round"/>
<path d="M33.3125 18.5234H36.0458" stroke="#119A4B" stroke-width="0.700001" stroke-linecap="round" stroke-linejoin="round"/>
<path d="M8.10478 8.09646L6.17188 6.16797" stroke="#119A4B" stroke-width="0.700001" stroke-linecap="round" stroke-linejoin="round"/>
<path d="M3.78016 18.5234H1.04688" stroke="#119A4B" stroke-width="0.700001" stroke-linecap="round" stroke-linejoin="round"/>
</svg>
