<svg xmlns="http://www.w3.org/2000/svg" xmlns:xlink="http://www.w3.org/1999/xlink" width="239.649" height="173" viewBox="0 0 239.649 173">
  <defs>
    <clipPath id="clip-path">
      <circle id="Ellipse_31" data-name="Ellipse 31" cx="13.812" cy="13.812" r="13.812" fill="#fff"/>
    </clipPath>
  </defs>
  <g id="Group_121" data-name="Group 121" transform="translate(-165 -415.693)">
    <g id="Group_71" data-name="Group 71" transform="translate(172.41 438.911)">
      <path id="Path_1364" data-name="Path 1364" d="M1383.012,735.631l-.306-.188c17.384-28.272,26.443-53.816,26.926-75.923.5-22.862-8.366-36.841-15.89-44.542a51.467,51.467,0,0,0-26.639-14.487c-9.33-1.824-18.461-.665-25.052,3.179l-.181-.31c6.665-3.888,15.888-5.062,25.3-3.221A51.831,51.831,0,0,1,1394,614.727c7.573,7.75,16.494,21.814,15.992,44.8C1409.506,681.7,1400.429,707.3,1383.012,735.631Z" transform="translate(-1180.397 -596.159)" fill="#e5e5ff"/>
      <path id="Path_1366" data-name="Path 1366" d="M225.56,679.972c-6.7-20.9-9.651-39.065-8.769-54.005.733-12.426,4.116-22.746,10.054-30.674,13.606-18.165,36.331-17.806,36.56-17.8l-.009.359c-.221-.007-22.774-.357-36.266,17.66-5.894,7.871-9.252,18.126-9.981,30.48-.879,14.895,2.066,33.02,8.753,53.871Z" transform="translate(-216.638 -577.491)" fill="#e5e5ff"/>
    </g>
    <g id="Group_83" data-name="Group 83" transform="translate(218.275 415.693)">
      <g id="Group_72" data-name="Group 72" transform="translate(0 0)">
        <rect id="Rectangle_393" data-name="Rectangle 393" width="131.305" height="127.962" rx="30.805" transform="translate(0.179 0.179)" fill="#e5e5ff"/>
        <path id="Path_1367" data-name="Path 1367" d="M663.313,544.014H540.85a4.605,4.605,0,0,1-4.6-4.6V420.293a4.605,4.605,0,0,1,4.6-4.6H663.313a4.605,4.605,0,0,1,4.6,4.6V539.414A4.605,4.605,0,0,1,663.313,544.014ZM540.85,416.052a4.246,4.246,0,0,0-4.241,4.241V539.414a4.246,4.246,0,0,0,4.241,4.241H663.313a4.246,4.246,0,0,0,4.241-4.241V420.293a4.246,4.246,0,0,0-4.241-4.241Z" transform="translate(-536.25 -415.693)" fill="#cbcbff"/>
      </g>
      <g id="Group_73" data-name="Group 73" transform="translate(79.644 15.088)">
        <rect id="Rectangle_394" data-name="Rectangle 394" width="27.983" height="2.042" transform="translate(8.79)" fill="#9192ff"/>
        <rect id="Rectangle_395" data-name="Rectangle 395" width="44.585" height="2.042" transform="translate(0 8.79)" fill="#b7b7ff"/>
        <rect id="Rectangle_396" data-name="Rectangle 396" width="40.157" height="2.042" transform="translate(0 14.829)" fill="#b7b7ff"/>
        <rect id="Rectangle_397" data-name="Rectangle 397" width="35.545" height="2.042" transform="translate(0 20.868)" fill="#cbcbff"/>
        <rect id="Rectangle_398" data-name="Rectangle 398" width="44.585" height="2.042" transform="translate(0 26.907)" fill="#cbcbff"/>
        <rect id="Rectangle_399" data-name="Rectangle 399" width="32.911" height="2.042" transform="translate(0 32.946)" fill="#cbcbff"/>
      </g>
      <g id="Group_74" data-name="Group 74" transform="translate(9.644 81.159)">
        <rect id="Rectangle_400" data-name="Rectangle 400" width="42.791" height="2.042" fill="#b7b7ff"/>
        <rect id="Rectangle_401" data-name="Rectangle 401" width="110.641" height="2.042" transform="translate(0.123 5.561)" fill="#cbcbff"/>
      </g>
      <g id="Group_77" data-name="Group 77" transform="translate(9.712 15.088)">
        <rect id="Rectangle_402" data-name="Rectangle 402" width="51.53" height="54.535" fill="#fff"/>
        <g id="Group_75" data-name="Group 75" transform="translate(4.66 11.719)">
          <rect id="Rectangle_403" data-name="Rectangle 403" width="3.583" height="12.542" transform="translate(0 24.305)" fill="#b7b7ff"/>
          <rect id="Rectangle_404" data-name="Rectangle 404" width="3.583" height="10.774" transform="translate(6.438 26.073)" fill="#e0e0ff"/>
          <rect id="Rectangle_405" data-name="Rectangle 405" width="3.583" height="17.607" transform="translate(12.876 19.24)" fill="#b7b7ff"/>
          <rect id="Rectangle_406" data-name="Rectangle 406" width="3.583" height="16.346" transform="translate(19.314 20.501)" fill="#e0e0ff"/>
          <rect id="Rectangle_407" data-name="Rectangle 407" width="3.583" height="21.988" transform="translate(25.752 14.859)" fill="#b7b7ff"/>
          <rect id="Rectangle_408" data-name="Rectangle 408" width="3.583" height="25.037" transform="translate(32.19 11.81)" fill="#e0e0ff"/>
          <rect id="Rectangle_409" data-name="Rectangle 409" width="3.583" height="27.755" transform="translate(38.628 9.092)" fill="#b7b7ff"/>
          <path id="Path_1368" data-name="Path 1368" d="M649,619.929l-6.766-2.706.129-.323,6.574,2.63,6.7-5.544,6.249.145L680.72,602.5l.183.3L661.98,614.481l-6.222-.145Z" transform="translate(-641.398 -602.5)" fill="#b7b7ff"/>
        </g>
        <g id="Group_76" data-name="Group 76" transform="translate(4.007 10.804)">
          <rect id="Rectangle_410" data-name="Rectangle 410" width="7.351" height="3.056" fill="#b7b7ff"/>
          <rect id="Rectangle_411" data-name="Rectangle 411" width="6.876" height="0.359" transform="translate(9.779 1.752)" fill="#b7b7ff"/>
        </g>
      </g>
      <g id="Group_79" data-name="Group 79" transform="translate(80.732 57.301)">
        <circle id="Ellipse_28" data-name="Ellipse 28" cx="8.025" cy="8.025" r="8.025" transform="translate(22.867 0.001)" fill="#fff"/>
        <g id="Group_78" data-name="Group 78">
          <path id="Path_1369" data-name="Path 1369" d="M1106.859,831.045a8.027,8.027,0,0,1-1.242-15.957,8.2,8.2,0,0,1,1.242-.094,8.025,8.025,0,0,1,0,16.051Z" transform="translate(-1098.835 -814.994)" fill="#fff"/>
          <path id="Path_1370" data-name="Path 1370" d="M1147.34,823.021l-1.242-7.933a8.209,8.209,0,0,1,1.242-.094,7.991,7.991,0,0,1,5.973,2.672Z" transform="translate(-1139.316 -814.994)" fill="#b7b7ff"/>
        </g>
      </g>
      <g id="Group_82" data-name="Group 82" transform="translate(10.586 96.403)">
        <g id="Group_80" data-name="Group 80">
          <rect id="Rectangle_412" data-name="Rectangle 412" width="110.121" height="21.167" fill="#fff"/>
        </g>
        <g id="Group_81" data-name="Group 81" transform="translate(0.053 0.047)">
          <path id="Path_1371" data-name="Path 1371" d="M720.779,1109.249H610.392v-21.436H720.779Zm-110.118-.269H720.51v-20.9H610.661Z" transform="translate(-610.392 -1087.813)" fill="#b7b7ff"/>
          <rect id="Rectangle_413" data-name="Rectangle 413" width="110.118" height="0.269" transform="translate(0.134 16.933)" fill="#b7b7ff"/>
          <rect id="Rectangle_414" data-name="Rectangle 414" width="110.118" height="0.269" transform="translate(0.134 12.7)" fill="#b7b7ff"/>
          <rect id="Rectangle_415" data-name="Rectangle 415" width="110.118" height="0.269" transform="translate(0.134 8.466)" fill="#b7b7ff"/>
          <rect id="Rectangle_416" data-name="Rectangle 416" width="110.118" height="0.269" transform="translate(0.134 4.233)" fill="#b7b7ff"/>
          <rect id="Rectangle_417" data-name="Rectangle 417" width="0.269" height="21.167" transform="translate(91.765 0.134)" fill="#b7b7ff"/>
          <rect id="Rectangle_418" data-name="Rectangle 418" width="0.269" height="21.167" transform="translate(73.412 0.134)" fill="#b7b7ff"/>
          <rect id="Rectangle_419" data-name="Rectangle 419" width="0.269" height="21.167" transform="translate(55.059 0.134)" fill="#b7b7ff"/>
          <rect id="Rectangle_420" data-name="Rectangle 420" width="0.269" height="21.167" transform="translate(36.706 0.134)" fill="#b7b7ff"/>
          <rect id="Rectangle_421" data-name="Rectangle 421" width="0.269" height="21.167" transform="translate(18.353 0.134)" fill="#b7b7ff"/>
        </g>
        <path id="Path_1372" data-name="Path 1372" d="M630.358,1126.222c1.6-2.23,1.947-5.1,3.377-7.451a6.455,6.455,0,0,1,2.9-2.794c2.2-.883,2.765,1.96,2.812,3.539.069,2.323-.316,4.843,1.6,6.586a2.541,2.541,0,0,0,2.352.7,4.018,4.018,0,0,0,2.194-2.1,51.99,51.99,0,0,0,3.421-8.058c.515-1.364,1.17-3.112,2.52-3.876,1.924-1.089,2.134,1.321,2.129,2.591,0,1.392.01,2.784.022,4.177.006.669-.132,2.065.655,2.438.463.219.83-.2,1.089-.536.226-.293.383-.635.608-.926a1,1,0,0,1,.783-.472c.351-.029.519-.033.758.291a1.938,1.938,0,0,1,.251.646c.277,1.044-.007,2.227.584,3.193a1.9,1.9,0,0,0,1.7.968c1.344-.212,1.686-2.4,1.847-3.456a34.54,34.54,0,0,1,.806-4.185,9.235,9.235,0,0,1,1.951-4.074,2.038,2.038,0,0,1,1.546-.721c.866.1,1.137,1.075,1.349,1.776a16.957,16.957,0,0,1,.763,4.892c0,1.143-.333,2.573.429,3.563a1.743,1.743,0,0,0,1.766.67c.97-.242,1.2-1.183,1.4-2.037a3.6,3.6,0,0,1,.133-.508c.189-.481.264-.537.783-.558.571-.023.594.111.686.584a13.538,13.538,0,0,0,.188,1.432c.182.6.6,1.146,1.292.94a2.143,2.143,0,0,0,1.189-1.448,17.828,17.828,0,0,0,.639-5.224,8.521,8.521,0,0,1,.682-3.424c.345-.678,1.364-1.776,2.152-1.061,1.025.931.925,3.2.949,4.453.05,2.688-.4,5.386-.025,8.065.14,1,.425,2.5,1.536,2.876,1.539.525,2.673-1.151,3.082-2.377.325-.975.4-2,.631-2.99.122-.523.308-1.479,1.022-1.18.616.258.87,1.129,1.411,1.522,1.749,1.272,2.819-1.209,3.025-2.552.3-1.963-.009-4.125.726-6a2.653,2.653,0,0,1,.914-1.266c1.068-.7,2.12.27,2.442,1.265a8.3,8.3,0,0,1,.213,2.385c.016.85.038,1.7.054,2.55.026,1.4-.1,2.838-.01,4.238a2.957,2.957,0,0,0,1.271,2.408c2.11,1.378,4.577-.772,5.923-2.281a18.14,18.14,0,0,0,3.35-5.891,16.111,16.111,0,0,1,1.427-3.161c.344-.535,1.3-1.818,2.083-1.464.51.231.68,1.154.79,1.63a17.03,17.03,0,0,1,.341,2.447c.127,1.561.136,3.125.165,4.69.024,1.325.136,3.323,1.609,3.859,2.3.838,3.4-2.455,4.032-3.976.527-1.259,1.17-2.968,2.4-3.717,1.042-.637,1.768.345,2.154,1.219a6.924,6.924,0,0,1,.572,2.682c.008.638-.042,1.438.657,1.746,1.526.672,2.916-1.851,3.508-2.846.541-.907.951-1.857,1.4-2.809.569-1.2,2.434-3.48,3.209-1.19a6.951,6.951,0,0,1,.133,2.69c-.065,1.013-.138,2.029-.106,3.044.037,1.173.249,3.733,2.02,3.461,1.073-.165,2.178-1.346,2.981-2.016a39.184,39.184,0,0,0,3.343-3.15c.159-.167-.094-.422-.254-.254a39.125,39.125,0,0,1-3.343,3.15,24.352,24.352,0,0,1-1.954,1.518,1.3,1.3,0,0,1-2.107-.588c-.694-1.795-.272-4.015-.178-5.882.055-1.111-.084-3.652-1.785-3.344-1.019.185-1.723,1.284-2.149,2.132-.483.961-.878,1.951-1.422,2.883a8.058,8.058,0,0,1-2.058,2.646c-.677.468-1.471.247-1.546-.663-.035-.415.01-.828-.039-1.245-.141-1.2-.6-3.194-1.9-3.681-1.81-.677-3.128,2.368-3.643,3.56-.527,1.22-.936,2.783-1.91,3.735a1.721,1.721,0,0,1-2.5.128,3.857,3.857,0,0,1-.715-2.193c-.279-2.836.143-5.765-.666-8.546-.233-.8-.678-1.792-1.67-1.441-1.664.589-2.421,2.75-2.988,4.239a19.213,19.213,0,0,1-3.676,6.551c-1.018,1.092-2.5,2.441-4.089,2.409-2.093-.042-2.353-2.13-2.293-3.73.059-1.565,0-3.134-.037-4.7-.027-1.261.142-2.763-.48-3.917a2.109,2.109,0,0,0-2.105-1.166,2.434,2.434,0,0,0-1.582,1.463c-.8,1.717-.589,3.788-.77,5.626-.1,1.049-.29,2.85-1.518,3.215-1.545.46-1.594-1.863-2.894-1.907-1.378-.047-1.389,3.263-1.628,4.134-.294,1.074-.853,2.356-2.077,2.589a1.4,1.4,0,0,1-1.555-.983,11.57,11.57,0,0,1-.545-4.93c.031-1.184.137-2.365.158-3.549.022-1.277.276-6.761-2.159-6.173-1.685.407-2.116,2.583-2.266,4.024-.2,1.921-.031,3.888-.579,5.765a2.719,2.719,0,0,1-.74,1.382c-.425.345-.932.05-1.142-.394a2.985,2.985,0,0,1-.163-1c-.047-.546-.116-1.359-.724-1.588-.7-.265-1.28.454-1.492,1.031-.262.716-.177,1.657-.9,2.13a1.365,1.365,0,0,1-1.937-.677,4.91,4.91,0,0,1-.2-2.416,15,15,0,0,0-.09-2.4,14.33,14.33,0,0,0-.964-4.083c-.766-1.725-2.473-1.266-3.489-.027-1.724,2.1-2.158,5.3-2.532,7.9a8.261,8.261,0,0,1-.651,2.458c-.191.39-.465.852-.929.931-.777.132-1.42-.764-1.59-1.4-.277-1.035-.016-4.707-2.171-3.58-.669.35-.733,1.185-1.3,1.605-.892.657-.947-.8-.953-1.357-.01-.843-.015-1.686-.022-2.529a30.676,30.676,0,0,0-.061-3.434,2.089,2.089,0,0,0-1.05-1.853c-2.009-.8-3.508,2.44-4.047,3.8-1.143,2.883-2.059,5.964-3.667,8.631-.883,1.464-2.389,2.561-3.9,1.191a5.176,5.176,0,0,1-1.507-3.828c-.037-1.832.512-5.535-1.684-6.487-1.914-.83-3.942,1.81-4.751,3.167-1.383,2.32-1.74,5.152-3.311,7.341-.135.188.176.367.31.181Z" transform="translate(-627.145 -1108.225)" fill="#9192ff"/>
      </g>
    </g>
    <g id="Group_85" data-name="Group 85" transform="translate(310.061 562.325)">
      <g id="Group_84" data-name="Group 84" transform="translate(0 0)">
        <rect id="Rectangle_422" data-name="Rectangle 422" width="30.874" height="21.615" rx="10.807" transform="translate(0 4.754)" fill="#e0e0ff"/>
        <rect id="Rectangle_423" data-name="Rectangle 423" width="29.513" height="0.342" transform="translate(0.681 14.119)" fill="#b7b7ff"/>
        <path id="Path_1373" data-name="Path 1373" d="M1268.64,1539.023a2.481,2.481,0,0,1-2.478-2.478v-.656h4.957v.656A2.481,2.481,0,0,1,1268.64,1539.023Zm-2.136-2.792v.313a2.136,2.136,0,0,0,4.273,0v-.313Z" transform="translate(-1253.203 -1521.77)" fill="#b7b7ff"/>
        <path id="Path_1374" data-name="Path 1374" d="M1254.418,1443.358h-.342v-4.434a1.084,1.084,0,0,0-1.083-1.083h-8.83a1.084,1.084,0,0,0-1.083,1.083v4.434h-.342v-4.434a1.426,1.426,0,0,1,1.425-1.424h8.83a1.426,1.426,0,0,1,1.425,1.424Z" transform="translate(-1233.142 -1437.5)" fill="#b7b7ff"/>
        <rect id="Rectangle_424" data-name="Rectangle 424" width="1.666" height="1.795" transform="translate(8.944 4.754)" fill="#b7b7ff"/>
      </g>
      <rect id="Rectangle_425" data-name="Rectangle 425" width="1.666" height="1.795" transform="translate(20.267 4.754)" fill="#b7b7ff"/>
    </g>
    <g id="Group_86" data-name="Group 86" transform="translate(229.509 569.051)">
      <rect id="Rectangle_426" data-name="Rectangle 426" width="22.006" height="18.343" transform="translate(1.621 1.299)" fill="#e0e0ff"/>
      <rect id="Rectangle_427" data-name="Rectangle 427" width="25.247" height="3.852" transform="translate(0)" fill="#b7b7ff"/>
      <path id="Path_1375" data-name="Path 1375" d="M647.831,1526.671H625.825v-15.846S634.737,1524.221,647.831,1526.671Z" transform="translate(-624.204 -1507.029)" fill="#b7b7ff" opacity="0.6"/>
    </g>
    <g id="Group_94" data-name="Group 94" transform="translate(361.502 431.751)">
      <g id="Group_87" data-name="Group 87" transform="translate(0 0)">
        <path id="Path_1376" data-name="Path 1376" d="M1549.222,528.847a13.645,13.645,0,0,0-7.655,24.94l-.524,6.286,5.121-4.285a13.644,13.644,0,1,0,3.057-26.94Z" transform="translate(-1535.399 -528.667)" fill="#fff"/>
        <path id="Path_1377" data-name="Path 1377" d="M1539.76,559.414l.551-6.61a13.858,13.858,0,1,1,4.832,2.106Zm8.393-31.46a13.465,13.465,0,0,0-7.554,24.612l.087.059-.5,5.962,4.86-4.067.087.02a13.464,13.464,0,1,0,3.017-26.586Z" transform="translate(-1534.329 -527.596)" fill="#5254cf"/>
      </g>
      <g id="Group_93" data-name="Group 93" transform="translate(7.575 4.594)">
        <g id="Group_91" data-name="Group 91" transform="translate(3.071 5.721)">
          <g id="Group_88" data-name="Group 88" transform="translate(1.263 6.201)">
            <rect id="Rectangle_428" data-name="Rectangle 428" width="4.057" height="4.21" transform="translate(0.179 0.179)" fill="#fff"/>
            <path id="Path_1378" data-name="Path 1378" d="M1621.735,647.25h-4.416v-4.569h4.416Zm-4.057-.359h3.7V643.04h-3.7Z" transform="translate(-1617.319 -642.681)" fill="#5254cf"/>
          </g>
          <g id="Group_89" data-name="Group 89">
            <path id="Path_1379" data-name="Path 1379" d="M1616.351,604.013a3.292,3.292,0,1,0-6.146,1.637,5.81,5.81,0,0,1,.826,2.9v.749h4.057v-.778a5.691,5.691,0,0,1,.819-2.856A3.264,3.264,0,0,0,1616.351,604.013Z" transform="translate(-1609.588 -600.542)" fill="#fff"/>
            <path id="Path_1380" data-name="Path 1380" d="M1614.2,608.4h-4.416v-.928a5.587,5.587,0,0,0-.8-2.806,3.465,3.465,0,0,1-.461-1.771,3.515,3.515,0,0,1,3.307-3.424,3.469,3.469,0,0,1,3.166,5.206,5.474,5.474,0,0,0-.795,2.766Zm-4.057-.359h3.7v-.6a5.822,5.822,0,0,1,.844-2.946,3.111,3.111,0,0,0-2.84-4.667,3.151,3.151,0,0,0-2.965,3.07,3.106,3.106,0,0,0,.413,1.587,5.942,5.942,0,0,1,.85,2.986Z" transform="translate(-1608.516 -599.471)" fill="#5254cf"/>
          </g>
          <g id="Group_90" data-name="Group 90" transform="translate(1.372 1.816)">
            <path id="Path_1381" data-name="Path 1381" d="M1620.494,614.461a.628.628,0,1,1-.032-1A.726.726,0,0,1,1620.494,614.461Z" transform="translate(-1619.146 -613.192)" fill="#fff"/>
            <path id="Path_1382" data-name="Path 1382" d="M1618.75,613.97a.659.659,0,0,1-.384-.119.71.71,0,0,1-.29-.579,1.182,1.182,0,0,1,.776-1.107.682.682,0,0,1,.933.654,1.129,1.129,0,0,1-.215.675h0a1.127,1.127,0,0,1-.562.431A.832.832,0,0,1,1618.75,613.97Zm.359-1.488a.469.469,0,0,0-.146.025.825.825,0,0,0-.529.754.326.326,0,0,0,.463.325.77.77,0,0,0,.38-.3h0a.781.781,0,0,0,.15-.458.362.362,0,0,0-.138-.3A.308.308,0,0,0,1619.11,612.482Z" transform="translate(-1618.075 -612.124)" fill="#5254cf"/>
          </g>
        </g>
        <g id="Group_92" data-name="Group 92" transform="translate(0 0)">
          <rect id="Rectangle_429" data-name="Rectangle 429" width="0.359" height="2.609" transform="translate(0 3.706) rotate(-51.551)" fill="#5254cf"/>
          <rect id="Rectangle_430" data-name="Rectangle 430" width="0.359" height="3.503" transform="translate(6.056 0.011) rotate(-1.834)" fill="#5254cf"/>
          <rect id="Rectangle_431" data-name="Rectangle 431" width="2.953" height="0.359" transform="matrix(0.717, -0.697, 0.697, 0.717, 10.329, 4.779)" fill="#5254cf"/>
        </g>
      </g>
    </g>
    <g id="Group_96" data-name="Group 96" transform="translate(179.948 436.99)">
      <g id="Group_95" data-name="Group 95" transform="translate(0 0)">
        <path id="Path_1383" data-name="Path 1383" d="M294.408,577.347a12,12,0,1,0-8.851,11.577l4.164,3.484-.436-5.232A11.98,11.98,0,0,0,294.408,577.347Z" transform="translate(-270.237 -565.172)" fill="#fff"/>
        <path id="Path_1384" data-name="Path 1384" d="M288.865,591.75l-4.422-3.7a12.187,12.187,0,1,1,3.959-1.857Zm-4.335-4.1,3.906,3.269-.409-4.906.084-.059a11.791,11.791,0,1,0-3.672,1.721Z" transform="translate(-269.166 -564.1)" fill="#5254cf"/>
      </g>
      <path id="Path_1385" data-name="Path 1385" d="M332.609,623.545l-3.4-3.4.254-.254,3.03,3.03,3.512-8,.329.144Z" transform="translate(-320.592 -607.627)" fill="#5254cf"/>
    </g>
    <g id="Group_102" data-name="Group 102" transform="translate(216.973 437.776)">
      <g id="Group_97" data-name="Group 97" transform="translate(0 22.821)">
        <path id="Path_1386" data-name="Path 1386" d="M567.574,732.9l-3.217,1.884-34.206,20.043a2.026,2.026,0,0,1-2.773-.328v0a2.026,2.026,0,0,1,.975-2.617l33.388-21.23,3.213-2.042Z" transform="translate(-527.177 -728.605)" fill="#5254cf"/>
        <path id="Path_1387" data-name="Path 1387" d="M773.87,732.9l-3.217,1.884a10.155,10.155,0,0,1-1.645-2.047,10.31,10.31,0,0,1-.971-2.087l3.213-2.042Z" transform="translate(-733.472 -728.605)" fill="#1b1b43" opacity="0.6"/>
      </g>
      <path id="Path_1388" data-name="Path 1388" d="M767.422,754.1a1.076,1.076,0,1,1,.358-1.479A1.076,1.076,0,0,1,767.422,754.1Z" transform="translate(-731.545 -725.909)" fill="#fff"/>
      <circle id="Ellipse_29" data-name="Ellipse 29" cx="17.028" cy="17.028" r="17.028" transform="translate(35.061 0)" fill="#5254cf"/>
      <g id="Group_101" data-name="Group 101" transform="translate(38.277 3.216)">
        <circle id="Ellipse_30" data-name="Ellipse 30" cx="13.812" cy="13.812" r="13.812" fill="#fff"/>
        <g id="Group_100" data-name="Group 100" clip-path="url(#clip-path)">
          <g id="Group_98" data-name="Group 98" transform="translate(3.867 11.213)">
            <rect id="Rectangle_432" data-name="Rectangle 432" width="4.329" height="26.572" transform="translate(0 7.267)" fill="#b7b7ff"/>
            <rect id="Rectangle_433" data-name="Rectangle 433" width="4.329" height="30.256" transform="translate(7.78 3.763)" fill="#e0e0ff"/>
            <rect id="Rectangle_434" data-name="Rectangle 434" width="4.329" height="33.54" transform="translate(15.56)" fill="#b7b7ff"/>
          </g>
          <g id="Group_99" data-name="Group 99" transform="translate(-0.918 5.402)">
            <rect id="Rectangle_435" data-name="Rectangle 435" width="20.828" height="0.538" transform="translate(0 7.083) rotate(-17.738)" fill="#b7b7ff"/>
            <path id="Path_1389" data-name="Path 1389" d="M911.041,632.936l-.438-.312,1.307-1.834-1.892-.648.174-.509,2.089.715a.369.369,0,0,1,.245.249.376.376,0,0,1-.074.356Zm1.063-2.08.017.006Zm-.076-.234-.008.011Z" transform="translate(-892.438 -629.633)" fill="#b7b7ff"/>
          </g>
        </g>
      </g>
    </g>
    <g id="Group_109" data-name="Group 109" transform="translate(192.65 453.293)">
      <g id="Group_105" data-name="Group 105" transform="translate(0 44.994)">
        <g id="Group_103" data-name="Group 103" transform="translate(35.03 76.594)">
          <path id="Path_1390" data-name="Path 1390" d="M609.258,1531.677c-2.167.032-5.274.082-7.283.111.022-.972.057-1.941.1-2.827.1-2.21.222-3.917.222-3.917l6.21-.043s-.029.617,0,1.543A19.786,19.786,0,0,0,609.258,1531.677Z" transform="translate(-601.949 -1525)" fill="#ffbc96"/>
          <path id="Path_1391" data-name="Path 1391" d="M611.505,1574.557c-1.191-.369-1.937-1.586-2.4-3.038l-7.286.112a37.369,37.369,0,0,0,.186,5.884,1.161,1.161,0,0,0,1.144.972h10.672a1.5,1.5,0,0,0,1.53-1.593C615.24,1575.859,614.019,1575.335,611.505,1574.557Z" transform="translate(-601.79 -1564.843)" fill="#1b1b43"/>
          <path id="Path_1392" data-name="Path 1392" d="M609.107,1526.543l-6.432,2.418c.1-2.21.222-3.917.222-3.917l6.21-.043S609.079,1525.617,609.107,1526.543Z" transform="translate(-602.548 -1525)" fill="#d28572"/>
          <path id="Path_1393" data-name="Path 1393" d="M605.435,1601.968a3.233,3.233,0,0,0-1.345-2.235,2.552,2.552,0,0,0-1.838-.261l-.1-.345a2.869,2.869,0,0,1,2.118.3,3.566,3.566,0,0,1,1.516,2.471Z" transform="translate(-602.101 -1588.418)" fill="#656590"/>
        </g>
        <g id="Group_104" data-name="Group 104" transform="translate(0 73.272)">
          <path id="Path_1394" data-name="Path 1394" d="M379.642,1504.01a26.334,26.334,0,0,0-1.184,3.57,15.639,15.639,0,0,0-.477,2.938c-2.041-.735-4.962-1.79-6.856-2.475.879-2.16,1.819-4.276,2.325-5.388l.014-.029c.219-.488.352-.775.352-.775Z" transform="translate(-369.196 -1501.85)" fill="#ffbc96"/>
          <path id="Path_1395" data-name="Path 1395" d="M367.64,1551.177c-.984-.767-1.25-2.168-1.173-3.692l-6.854-2.474a37.366,37.366,0,0,0-1.909,5.568,1.162,1.162,0,0,0,.727,1.314l9.981,3.777a1.5,1.5,0,0,0,1.995-.948C370.672,1553.717,369.716,1552.8,367.64,1551.177Z" transform="translate(-357.682 -1538.818)" fill="#1b1b43"/>
          <path id="Path_1396" data-name="Path 1396" d="M392.339,1504.01a26.337,26.337,0,0,0-1.184,3.57l-5.206-4.38.2-.545.014-.029c.219-.488.352-.775.352-.775Z" transform="translate(-381.893 -1501.85)" fill="#d28572"/>
          <path id="Path_1397" data-name="Path 1397" d="M365.443,1570.76l-.318-.166a2.751,2.751,0,0,0-1.12-3.884l.166-.318A3.145,3.145,0,0,1,365.443,1570.76Z" transform="translate(-363.098 -1557.13)" fill="#656590"/>
        </g>
        <path id="Path_1398" data-name="Path 1398" d="M528.5,1069.1l-11.419.9-2.393-40.78-3.537-13.407-4.628-17.532-.24-.915-1.116-4.226-.165-.631,2.185-.2,11.807-1.058.714,3.229v0l7.071,31.976a17.43,17.43,0,0,1,.4,3.168Z" transform="translate(-483.859 -991.25)" fill="#5254cf"/>
        <path id="Path_1399" data-name="Path 1399" d="M399.641,1014.232l-.908,9.073-1.471,14.688a20.585,20.585,0,0,1-1.123,4.954l-12.165,33.648-10.225-3.946,9.507-34.441c2.45-14.178,2.045-25.059,2.676-31.961.039-.431.082-.843.129-1.241a14.1,14.1,0,0,1,1.32-5l5.367.631,3.781.445.822,3.476.165.7Z" transform="translate(-371.444 -998.744)" fill="#5254cf"/>
        <path id="Path_1400" data-name="Path 1400" d="M480.007,994.479l.123,1.375s-16.024,4.305-21.48,2.9c.039-.431.083-.843.129-1.241a14.1,14.1,0,0,1,1.32-5l5.367.631-.165-.631,2.185-.2,11.807-1.058Z" transform="translate(-444.161 -991.25)" fill="#1b1b43" opacity="0.6"/>
        <path id="Path_1401" data-name="Path 1401" d="M513.116,1120.465l-5.357-21.16-4.39-1.4.109-.342,4.579,1.466.025.1,5.381,21.256Z" transform="translate(-482.463 -1082.303)" fill="#1b1b43"/>
        <path id="Path_1402" data-name="Path 1402" d="M627.811,1249.456l-.126-.336a25.113,25.113,0,0,0,4.36-2.046l.195.3A24.918,24.918,0,0,1,627.811,1249.456Z" transform="translate(-588.939 -1210.363)" fill="#1b1b43"/>
        <path id="Path_1403" data-name="Path 1403" d="M500.713,1280.754a39.234,39.234,0,0,1-5.41-.991l.092-.347a38.85,38.85,0,0,0,5.353.982Z" transform="translate(-475.554 -1238.064)" fill="#1b1b43"/>
        <rect id="Rectangle_436" data-name="Rectangle 436" width="0.359" height="11.085" transform="translate(3.141 71.142) rotate(-69.805)" fill="#1b1b43"/>
        <rect id="Rectangle_437" data-name="Rectangle 437" width="11.419" height="0.359" transform="translate(33.056 75.606) rotate(-4.03)" fill="#1b1b43"/>
      </g>
      <path id="Path_1404" data-name="Path 1404" d="M425.2,819.167l-4.853,1.953a5.707,5.707,0,0,0-3.127,3.074l-4.073,9.748a4.857,4.857,0,0,0,1.343,5.579h0a4.856,4.856,0,0,0,4.814.852l3.444-1.266Z" transform="translate(-404.864 -798.867)" fill="#ffb147"/>
      <g id="Group_106" data-name="Group 106" transform="translate(47.883 11.348)">
        <path id="Path_1405" data-name="Path 1405" d="M723.447,756.881c-.907.448-1.953,2.356-1.556,3.042.325.563,1.083-.2,1.333-.46.459-.48,1.644-1.76.99-2.488A.594.594,0,0,0,723.447,756.881Z" transform="translate(-717.435 -756.786)" fill="#ffbc96"/>
        <path id="Path_1406" data-name="Path 1406" d="M712.433,761.008c-.753.676-1.247,2.795-.68,3.349.465.454.989-.483,1.16-.8.313-.585,1.109-2.138.283-2.663A.594.594,0,0,0,712.433,761.008Z" transform="translate(-708.616 -760.224)" fill="#ffbc96"/>
        <path id="Path_1407" data-name="Path 1407" d="M702,768.439c-.761.652-1.3,2.658-.746,3.167.45.417.99-.476,1.166-.78.323-.558,1.145-2.036.339-2.512A.62.62,0,0,0,702,768.439Z" transform="translate(-699.64 -766.59)" fill="#ffbc96"/>
        <path id="Path_1408" data-name="Path 1408" d="M692.325,771.9c-.76.652-1.3,2.657-.746,3.167.45.417.99-.476,1.166-.78.323-.558,1.145-2.036.339-2.512A.62.62,0,0,0,692.325,771.9Z" transform="translate(-691.353 -769.551)" fill="#ffbc96"/>
      </g>
      <path id="Path_1409" data-name="Path 1409" d="M458.181,812.8l-5.052,8.686s1.315,14.351.359,16.113-3.109,3.147-1.794,4.154,11.719,2.769,22.96.126c3.109-.881.957-2.518.239-3.273s-1.674-19.763-1.674-19.763l-6.465-5.891-4.776-1.284Z" transform="translate(-437.848 -792.443)" fill="#ffb147"/>
      <path id="Path_1410" data-name="Path 1410" d="M504.7,815.54c-.9,1.57-11.453,3.183-8.476-.209l3.049-.643Z" transform="translate(-475.892 -795.031)" fill="#1b1b43" opacity="0.2"/>
      <g id="Group_107" data-name="Group 107" transform="translate(28.914 15.335)">
        <path id="Path_1411" data-name="Path 1411" d="M572.74,830.849l-4.165-6.178a6.641,6.641,0,0,0-4.349-3.031l-5.059-1.016,2.99,11.211s4.664,6.547,8.879,8.072c3.783,1.368,8.8-.879,11.568-15.666l-6.273-.855Z" transform="translate(-559.167 -815.451)" fill="#ffb147"/>
        <path id="Path_1412" data-name="Path 1412" d="M688.486,784.574c-.634-.081-2.81,3.2-2.81,3.2l-3.517,1.2a5.073,5.073,0,0,0-2.936,2.6l-.45.935,6.273.855c.1-.552.2-1.116.3-1.7C687.5,789.716,689.891,784.754,688.486,784.574Z" transform="translate(-661.609 -784.573)" fill="#ffbc96"/>
      </g>
      <g id="Group_108" data-name="Group 108" transform="translate(17.597 0)">
        <path id="Path_1413" data-name="Path 1413" d="M557.267,724.039l1.272,1.76a.552.552,0,0,1-.279.845l-1.358.524-.958-2.127Z" transform="translate(-545.089 -717.39)" fill="#d28572"/>
        <path id="Path_1414" data-name="Path 1414" d="M507.85,752.729a53.716,53.716,0,0,0,.19-6.479l5.8.42a17.347,17.347,0,0,0-.032,1.984,26.62,26.62,0,0,0,.323,3.168c.09.57.194,1.13.3,1.668Z" transform="translate(-503.897 -736.414)" fill="#ffbc96"/>
        <path id="Path_1415" data-name="Path 1415" d="M531.322,765.911a6.727,6.727,0,0,1-3.4-3.211l3.075.043A26.645,26.645,0,0,0,531.322,765.911Z" transform="translate(-521.091 -750.503)" fill="#d28572"/>
        <path id="Path_1416" data-name="Path 1416" d="M500.59,791.388l-1.215,3.986a21.24,21.24,0,0,0,8.58.209l-.78-3.434Z" transform="translate(-496.638 -775.074)" fill="#fff5e8"/>
        <path id="Path_1417" data-name="Path 1417" d="M511.706,697.98l.6,8.021a1.106,1.106,0,0,1-.452.934,2.617,2.617,0,0,1-1.9.662l-4.108-.171-2.93-3.289,2.272-7,4.126-.06Z" transform="translate(-499.672 -694.303)" fill="#ffbc96"/>
        <path id="Path_1418" data-name="Path 1418" d="M485.6,686.153s1.076,3.363-1.211,5.067c-2.466-.807-7.04-8.3-1.345-10.673a4.478,4.478,0,0,1,5.83-2.511c3.76,1.306,4.753,3.588,4.753,3.588a5.321,5.321,0,0,1-5.74.135S488.2,685.749,485.6,686.153Z" transform="translate(-480.304 -677.707)" fill="#1b1b43"/>
        <path id="Path_1419" data-name="Path 1419" d="M508.766,722.44a1.757,1.757,0,1,1-2.573-.4A1.846,1.846,0,0,1,508.766,722.44Z" transform="translate(-501.956 -715.368)" fill="#ffbc96"/>
        <path id="Path_1420" data-name="Path 1420" d="M513.695,731.439c-.015-.058-.373-1.426-1.336-1.217l-.057-.263c.974-.211,1.509.833,1.654,1.415Z" transform="translate(-507.71 -722.437)" fill="#1b1b43"/>
        <circle id="Ellipse_32" data-name="Ellipse 32" cx="1.196" cy="1.196" r="1.196" transform="matrix(0.23, -0.973, 0.973, 0.23, 8.503, 9.589)" fill="#fe5b52" opacity="0.4"/>
      </g>
      <path id="Path_1421" data-name="Path 1421" d="M451.7,900.977c-1.089-.259-1.7-.663-1.882-1.235-.29-.931.672-2,1.52-2.94.132-.147.26-.289.378-.424a2.082,2.082,0,0,0,.467-.93c.787-3.729-.517-15.342-.53-15.459l.356-.04c.054.479,1.324,11.787.525,15.573a2.44,2.44,0,0,1-.547,1.091c-.119.137-.248.281-.382.429-.746.827-1.674,1.857-1.444,2.593.135.435.681.769,1.623.993Z" transform="translate(-436.554 -850.927)" fill="#1b1b43"/>
      <path id="Path_1422" data-name="Path 1422" d="M604.955,925.3l-.016-.358c1.226-.055,1.975-.347,2.168-.846s-.16-1.253-.971-2.057a1.551,1.551,0,0,1-.418-.768c-.645-2.9-1.332-12.484-1.338-12.58l.358-.026c.007.1.692,9.654,1.331,12.528a1.192,1.192,0,0,0,.32.591c.93.922,1.3,1.789,1.053,2.44S606.353,925.234,604.955,925.3Z" transform="translate(-568.977 -875.519)" fill="#1b1b43"/>
      <path id="Path_1423" data-name="Path 1423" d="M647.324,847.771l-.322-.158,4.455-9.1,6.4.873-.048.356-6.144-.838Z" transform="translate(-605.484 -815.434)" fill="#1b1b43"/>
    </g>
    <g id="Group_120" data-name="Group 120" transform="translate(309.049 456.593)">
      <path id="Path_1424" data-name="Path 1424" d="M1390.043,707.36c-2.123-1.286-2.6-4.963-.628-6.069a2.928,2.928,0,0,1,3.229-.12s6.618-2.414,9.118,3.737c1.883,4.634.389,7.056,2.033,9.388,1.874,2.657,4.873,5.052.957,9.716l-9.148-2.242-2.392-11.271Z" transform="translate(-1356.688 -700.705)" fill="#1b1b43"/>
      <g id="Group_112" data-name="Group 112" transform="translate(24.19 45.22)">
        <g id="Group_110" data-name="Group 110" transform="translate(33.571 64.743)">
          <path id="Path_1425" data-name="Path 1425" d="M1581.727,1466.987l-6.727,2.96s.966,2.5,1.793,5.4l6.917-2.209Z" transform="translate(-1574.472 -1466.987)" fill="#ffbc96"/>
          <path id="Path_1426" data-name="Path 1426" d="M1580.56,1509.863l-6.917,2.21c.947,3.328,1.712,7.191.631,8.451-1.405,1.639-2.631,2.993-2.926,4.133a.8.8,0,0,0,1.132.923l8.937-4.507a3.122,3.122,0,0,0,1.454-4.04Z" transform="translate(-1571.321 -1503.71)" fill="#1b1b43"/>
          <rect id="Rectangle_438" data-name="Rectangle 438" width="7.394" height="0.359" transform="translate(2.925 10.663) rotate(-17.375)" fill="#656590"/>
          <path id="Path_1427" data-name="Path 1427" d="M1582.315,1563.062l-.074-.351c1.713-.363,2.709-.992,2.963-1.87.416-1.443-1.3-3.131-1.317-3.148l.25-.257c.077.075,1.887,1.857,1.411,3.5C1585.256,1561.955,1584.168,1562.669,1582.315,1563.062Z" transform="translate(-1580.674 -1544.456)" fill="#656590"/>
        </g>
        <g id="Group_111" data-name="Group 111" transform="translate(0 71.274)">
          <path id="Path_1428" data-name="Path 1428" d="M1394.219,1512.5l-7.773.718a39.793,39.793,0,0,1-.037,5.529l7.477-.11Z" transform="translate(-1379.373 -1512.5)" fill="#ffbc96"/>
          <path id="Path_1429" data-name="Path 1429" d="M1344.415,1555.371c-.211,2.452-.768,4.912-2.115,5.473-2.87,1.2-5.142,2.033-4.9,3.707h11.034a3.122,3.122,0,0,0,3.118-2.953l.344-6.337Z" transform="translate(-1337.379 -1549.125)" fill="#1b1b43"/>
          <rect id="Rectangle_439" data-name="Rectangle 439" width="0.359" height="7.176" transform="translate(7.07 8.311) rotate(-89.046)" fill="#656590"/>
          <path id="Path_1430" data-name="Path 1430" d="M1360.454,1585.081a7.8,7.8,0,0,1-1.665-.212l.079-.35c1.573.352,2.642.243,3.089-.312.6-.74-.011-2.069-.018-2.083l.325-.151c.03.063.706,1.548-.029,2.459A2.168,2.168,0,0,1,1360.454,1585.081Z" transform="translate(-1355.716 -1572.003)" fill="#656590"/>
        </g>
        <path id="Path_1431" data-name="Path 1431" d="M1366.807,1088.939a2.355,2.355,0,0,1-.258.072c-1.553.359-6.694,0-6.694,0a5.361,5.361,0,0,1-.667-.19c-4.807-1.751-4.481-10.156-3.76-17.507.664-6.741-2.153-41.139-.208-52.827l12.169-2.662.072,2.049.147,4.183.258,7.4s.459,7.161,1.087,16.133c.94,13.453,2.26,30.986,2.978,34.573A7.314,7.314,0,0,1,1366.807,1088.939Z" transform="translate(-1352.063 -1015.825)" fill="#5254cf"/>
        <path id="Path_1432" data-name="Path 1432" d="M1438.642,1092.023a5.677,5.677,0,0,1-.886.829c-1.636,1.259-3.842,1.722-5.78,2.246a7.266,7.266,0,0,1-1.058.2c-1.8.222-3.774-.19-4.617-1.722-4.319-7.871-9.188-23.495-13.044-37.454-2.82-10.192-5.1-19.5-6.232-24.248-.5-2.1-.775-3.3-.775-3.3l5.514-.165,9.374-.283c.255,1.263.545,2.594.872,3.975,3.2,13.658,9.5,32.435,11.972,39.617,1.482,4.3,3.724,8.14,4.71,12.646C1439.216,1086.749,1440.436,1089.953,1438.642,1092.023Z" transform="translate(-1396.367 -1026.36)" fill="#5254cf"/>
        <path id="Path_1433" data-name="Path 1433" d="M1381.862,1021.565a42.508,42.508,0,0,1-10.1.492,34.151,34.151,0,0,1-4.886-.714,23.122,23.122,0,0,1-7.5-2.856l12.169-2.662.072,2.049,9.374-.283C1381.245,1018.853,1381.535,1020.184,1381.862,1021.565Z" transform="translate(-1356.219 -1015.825)" fill="#1b1b43" opacity="0.6"/>
        <path id="Path_1434" data-name="Path 1434" d="M1408.436,1133.859l-3.753-13.293-3.86-1.4.123-.337,4.032,1.466.025.088,3.778,13.382Z" transform="translate(-1391.718 -1104.045)" fill="#1b1b43"/>
        <path id="Path_1435" data-name="Path 1435" d="M1502.514,1095.1l-.311-.179c1.811-3.144-1.819-12.832-6.414-25.1-4.462-11.91-10.015-26.734-12.023-39.959l.354-.054c2,13.188,7.549,27.992,12.005,39.887C1500.753,1082.054,1504.409,1091.812,1502.514,1095.1Z" transform="translate(-1462.758 -1027.805)" fill="#1b1b43"/>
      </g>
      <g id="Group_116" data-name="Group 116" transform="translate(0 16.549)">
        <path id="Path_1436" data-name="Path 1436" d="M1328.794,926.722c-.434,3.032-1.083,6.992-1.083,6.992h-7.085l1.726-9.482.427-2.357s6.1,1.435,6.368,1.435A18.224,18.224,0,0,1,1328.794,926.722Z" transform="translate(-1298.84 -906.685)" fill="#ffbc96"/>
        <path id="Path_1437" data-name="Path 1437" d="M1339.093,926.722l-.323.714-6.12-3.2.427-2.357s6.1,1.435,6.368,1.435A18.186,18.186,0,0,1,1339.093,926.722Z" transform="translate(-1309.139 -906.685)" fill="#d28572"/>
        <path id="Path_1438" data-name="Path 1438" d="M1351.351,877.458a30.944,30.944,0,0,1-1.076,13.453s11.121,3.408,21.615-.9l-2.422-15.337.807-7.8-16.054.179-5.471,1.794Z" transform="translate(-1322.929 -859.578)" fill="#1b1b43"/>
        <path id="Path_1439" data-name="Path 1439" d="M1350.187,830.23a6.715,6.715,0,0,0-4.4-4.209l-3.015-.911c-1.214,1.767-3.38,4.02-6.542,4.02a8.958,8.958,0,0,1-7.335-3.878l-2.083.508a6.086,6.086,0,0,0-4.49,4.547L1320,840.4l6.727,1.286.179-7.713,17.489-.807.449,5.74s5.052-2.212,8.4.06Z" transform="translate(-1298.304 -823.806)" fill="#1b1b43"/>
        <path id="Path_1440" data-name="Path 1440" d="M1503.683,821.8c-.969,1.894-2.271,10.106-2.87,16.5a10.457,10.457,0,0,1-1.625,4.969,4.994,4.994,0,0,1-4.628,2.418,4.568,4.568,0,0,1-1.88-.631c-2.888-1.711-2.518-9.023-2.2-12.312.1-.99.194-1.618.194-1.618a12.256,12.256,0,0,1,4.395-1.076c.036-.37.079-.743.122-1.126.366-3.3.922-7.053,1.4-9.547.538-2.78,1.614-1.747,1.614-1.747.538-.99,1.345-.136,1.345-.136.718-1.571,1.614-.09,1.614-.09,1.119-1.614,1.733.807,1.733.807s3.476-2.863,4.068-2.034C1507.271,816.6,1505.057,819.108,1503.683,821.8Z" transform="translate(-1444.139 -816.026)" fill="#ffbc96"/>
        <g id="Group_113" data-name="Group 113" transform="translate(0 11.855)">
          <rect id="Rectangle_440" data-name="Rectangle 440" width="15.068" height="1.809" transform="translate(16.942 13.364)" fill="#fff"/>
          <path id="Path_1441" data-name="Path 1441" d="M1192.208,913.828h-15.542a1.915,1.915,0,0,1-1.739-1.114l-6.052-13.141a.659.659,0,0,1,.6-.935h14.577a1.814,1.814,0,0,1,1.648,1.055Z" transform="translate(-1168.813 -898.638)" fill="#5254cf"/>
        </g>
        <path id="Path_1442" data-name="Path 1442" d="M1267.525,992.365a7.619,7.619,0,0,1-.789,1.934,5.373,5.373,0,0,1-4.223,2.63,10.408,10.408,0,0,1-2.371.011c-7.121-.707-9.18-4.6-9.18-4.6s-.793-1.654.89-1.274c0,0,.316-1.051,1.614.047,0,0-.154-1.3,1.123-.111,0,0-.179-1.324,1.209-.179a6.115,6.115,0,0,0,4.151,1.546C1261.627,992.433,1267.525,992.365,1267.525,992.365Z" transform="translate(-1239.013 -965.337)" fill="#ffbc96"/>
        <g id="Group_114" data-name="Group 114" transform="translate(27.795 5.798)">
          <rect id="Rectangle_441" data-name="Rectangle 441" width="0.359" height="7.726" transform="translate(0 4.38) rotate(-3.327)" fill="#5254cf"/>
          <path id="Path_1443" data-name="Path 1443" d="M1394.017,858.735a10.1,10.1,0,0,1-2.225-.244,8.69,8.69,0,0,1-3.423-1.532l.229-.276c.049.04,4.9,3.93,11.872-.255l.184.308A12.815,12.815,0,0,1,1394.017,858.735Z" transform="translate(-1384.657 -856.428)" fill="#5254cf"/>
          <rect id="Rectangle_442" data-name="Rectangle 442" width="0.359" height="3.538" transform="translate(18.297 5.788) rotate(-4.362)" fill="#5254cf"/>
          <path id="Path_1444" data-name="Path 1444" d="M1439.059,904.38a2.25,2.25,0,0,1-2.243-2.005l-.288-2.557,4.933-.325-.147,2.749a2.264,2.264,0,0,1-2.219,2.138Zm-2.132-4.229.246,2.183a1.9,1.9,0,0,0,3.784-.111l.125-2.345Z" transform="translate(-1425.905 -893.313)" fill="#5254cf"/>
        </g>
        <rect id="Rectangle_443" data-name="Rectangle 443" width="9.105" height="0.359" transform="translate(49.439 23.027) rotate(-81.862)" fill="#d28572"/>
        <g id="Group_115" data-name="Group 115" transform="translate(53.941 1.181)">
          <rect id="Rectangle_444" data-name="Rectangle 444" width="0.269" height="1.504" transform="translate(2.96 0.221) rotate(-10.305)" fill="#d28572"/>
          <rect id="Rectangle_445" data-name="Rectangle 445" width="0.269" height="1.504" transform="translate(1.345 0.265) rotate(-10.305)" fill="#d28572"/>
          <rect id="Rectangle_446" data-name="Rectangle 446" width="0.269" height="1.504" transform="translate(0 0.355) rotate(-10.305)" fill="#d28572"/>
          <rect id="Rectangle_447" data-name="Rectangle 447" width="0.269" height="2.393" transform="matrix(0.937, -0.35, 0.35, 0.937, 4.326, 0.094)" fill="#d28572"/>
        </g>
        <path id="Path_1445" data-name="Path 1445" d="M1496.222,913.735l-4.606,2.684c.1-.99.194-1.618.194-1.618A12.2,12.2,0,0,1,1496.222,913.735Z" transform="translate(-1445.293 -899.714)" fill="#d28572"/>
        <path id="Path_1446" data-name="Path 1446" d="M1524.653,1001.55a5,5,0,0,1-4.628,2.418,2.425,2.425,0,0,1-.025-.362,2.781,2.781,0,0,1,4.653-2.056Z" transform="translate(-1469.604 -974.306)" fill="#fe5b52" opacity="0.4"/>
        <path id="Path_1447" data-name="Path 1447" d="M1336.733,1015.409a5.373,5.373,0,0,1-4.223,2.63q-.011-.129-.011-.258a2.782,2.782,0,0,1,4.233-2.371Z" transform="translate(-1309.01 -986.447)" fill="#fe5b52" opacity="0.4"/>
        <path id="Path_1448" data-name="Path 1448" d="M1278.412,996.354c-.709-.139-1.6-1.236-1.894-1.811l.239-.124c.306.592,1.143,1.56,1.707,1.67Z" transform="translate(-1261.063 -968.819)" fill="#d28572"/>
        <path id="Path_1449" data-name="Path 1449" d="M1269.741,997.132a7.3,7.3,0,0,1-1.379-1.917l.248-.1a7,7,0,0,0,1.324,1.834Z" transform="translate(-1254.077 -969.411)" fill="#d28572"/>
        <path id="Path_1450" data-name="Path 1450" d="M1258.178,996.818a7.291,7.291,0,0,1-1.379-1.917l.248-.1a7.005,7.005,0,0,0,1.324,1.834Z" transform="translate(-1244.173 -969.143)" fill="#d28572"/>
      </g>
      <g id="Group_119" data-name="Group 119" transform="translate(30.596 1.902)">
        <path id="Path_1451" data-name="Path 1451" d="M1395.9,763.282c-1.216,1.769-3.383,4.022-6.544,4.022a8.955,8.955,0,0,1-7.333-3.878l3.835-.936c.093-.689.172-1.36.237-1.995.05-.5.093-.976.133-1.428.064-.743.107-1.413.143-1.987.047-.786.068-1.381.079-1.711.007-.19.007-.291.007-.291l5.381-2.153s-.179,7,1.435,9.564Z" transform="translate(-1382.025 -747.333)" fill="#ffbc96"/>
        <path id="Path_1452" data-name="Path 1452" d="M1415.036,782.473a11.4,11.4,0,0,1-4.636,2.817c.05-.5.093-.976.133-1.428.064-.743.108-1.414.143-1.987Z" transform="translate(-1406.328 -772.129)" fill="#d28572"/>
        <path id="Path_1453" data-name="Path 1453" d="M1394.024,720s-2.75,7.474-.777,8.849a7.609,7.609,0,0,0,6.338.777l1.495-5.082-.9-4.963Z" transform="translate(-1391.026 -718.776)" fill="#ffbc96"/>
        <path id="Path_1454" data-name="Path 1454" d="M1409.2,719.788s-1.943.745-2.751-1.973c-.657-2.212-3.528-2.631-3.528-2.631l1.166-1.076,5.531-.149,2.033,2.481-.688,3.229Z" transform="translate(-1399.919 -713.958)" fill="#1b1b43"/>
        <ellipse id="Ellipse_33" data-name="Ellipse 33" cx="2.272" cy="1.794" rx="2.272" ry="1.794" transform="translate(7.543 7.558) rotate(-60)" fill="#ffbc96"/>
        <path id="Path_1455" data-name="Path 1455" d="M1447.3,754.7l-.269,0a1.923,1.923,0,0,1,1.7-1.881l.031.267A1.631,1.631,0,0,0,1447.3,754.7Z" transform="translate(-1437.702 -747.242)" fill="#1b1b43"/>
        <g id="Group_118" data-name="Group 118" transform="translate(2.154 3.685)">
          <circle id="Ellipse_34" data-name="Ellipse 34" cx="0.306" cy="0.306" r="0.306" transform="translate(0.172 0.859)" fill="#1b1b43"/>
          <path id="Path_1456" data-name="Path 1456" d="M1412.643,748.509a.371.371,0,1,1-.371-.371A.371.371,0,0,1,1412.643,748.509Z" transform="translate(-1409.767 -746.918)" fill="#1b1b43"/>
          <path id="Path_1457" data-name="Path 1457" d="M1398.181,740.105h-.915a.234.234,0,0,1-.234-.234h0a.234.234,0,0,1,.234-.234h.915a.234.234,0,0,1,.234.234h0A.234.234,0,0,1,1398.181,740.105Z" transform="translate(-1397.032 -739.638)" fill="#1b1b43"/>
          <path id="Path_1458" data-name="Path 1458" d="M1414.167,742.138l-1.012-.428a.234.234,0,0,1-.124-.306h0a.234.234,0,0,1,.306-.124l1.013.428a.234.234,0,0,1,.125.306h0A.234.234,0,0,1,1414.167,742.138Z" transform="translate(-1410.719 -741.028)" fill="#1b1b43"/>
          <path id="Path_1459" data-name="Path 1459" d="M1397.807,751.538a.135.135,0,0,1-.125-.083,1,1,0,0,1-.014-1,.817.817,0,0,1,.653-.269l.342-.664a.134.134,0,1,1,.239.123l-.423.822-.092-.01s-.357-.036-.5.16c-.107.142-.089.394.049.731a.134.134,0,0,1-.124.186Z" transform="translate(-1397.471 -748.044)" fill="#1b1b43"/>
          <g id="Group_117" data-name="Group 117" transform="translate(0.13 4.135)">
            <path id="Path_1460" data-name="Path 1460" d="M1399.818,772.127c.521.734,1.18.421,1.63.045A9.491,9.491,0,0,1,1399.818,772.127Z" transform="translate(-1399.548 -771.6)" fill="#1b1b43"/>
            <path id="Path_1461" data-name="Path 1461" d="M1399.837,769.024a3.527,3.527,0,0,0,.5-.522c.006-.008,0-.017-.012-.017a14.422,14.422,0,0,1-2.377-.033c-.009,0-.014.009-.01.018a2.436,2.436,0,0,0,.269.51A9.5,9.5,0,0,0,1399.837,769.024Z" transform="translate(-1397.938 -768.452)" fill="#fff"/>
          </g>
          <path id="Path_1462" data-name="Path 1462" d="M1422.007,756.616a.938.938,0,1,1-.938-.938A.938.938,0,0,1,1422.007,756.616Z" transform="translate(-1416.816 -753.376)" fill="#fe5b52" opacity="0.4"/>
        </g>
      </g>
    </g>
    <rect id="Rectangle_448" data-name="Rectangle 448" width="239.649" height="0.359" transform="translate(165 588.334)" fill="#1b1b43"/>
  </g>
</svg>
