<?xml version="1.0" encoding="UTF-8"?>
<svg id="Layer_2" data-name="Layer 2" xmlns="http://www.w3.org/2000/svg" viewBox="0 0 36.71 36.45">
  <defs>
    <style>
      .cls-1 {
        stroke-width: .27px;
      }

      .cls-1, .cls-2, .cls-3, .cls-4, .cls-5 {
        stroke: #a7a9ac;
      }

      .cls-1, .cls-2, .cls-4 {
        stroke-linecap: round;
        stroke-linejoin: round;
      }

      .cls-1, .cls-2, .cls-4, .cls-5 {
        fill: none;
      }

      .cls-6 {
        fill: #a7a9ac;
      }

      .cls-2 {
        stroke-width: .09px;
      }

      .cls-3 {
        fill: #fff;
        stroke-width: .5px;
      }

      .cls-3, .cls-5 {
        stroke-miterlimit: 10;
      }

      .cls-4 {
        stroke-width: .2px;
      }
    </style>
  </defs>
  <g id="Layer_1-2" data-name="Layer 1">
    <g>
      <g>
        <path class="cls-3" d="M31.01,35.29v-3.09h.42v-.97h-2.07v-1.51l-1.99-.32c.73,0,.62-.46,.62-.46,0,0-.5,.21-.78-.37s-.32-.69-1.21-.69c.89,0,.94-.11,1.21-.69s.78-.37,.78-.37c0,0,.11-.46-.62-.46l-3.44-1.35h-1.57s.03-2.31,.04-3.91,.33-4.85,.58-7.39,.32-2.49,.74-3.13,.24-1.45-.08-3.2-.78-2.03-1.75-2.18-1.34-.33-1.34-.55h0c.1-.05,.19-.2,.17-.41-.02-.35,.19-.49,.35-1.08,.19-.71-.34-.6-.49-.4,.01-.27,0-.51,0-.72,0-.61-.26-1.1-.76-1.2,0,0,0-.6-.76-.6s-.76,.6-.76,.6c-.49,.1-.76,.6-.76,1.2,0,.21,0,.45,0,.72-.16-.2-.68-.31-.49,.4,.16,.6,.37,.73,.35,1.08,0,.08,0,.14,.02,.2h0c-.69,.5-1.54-.43-1.64-.6h0c-.01-.15-.02-.28-.04-.35-.06-.34-.31-.19-.31,0,0-.1-.02-.18-.03-.21-.05-.15-.29-.19-.29,.34-.02-.12-.04-.2-.08-.21-.18-.08-.22,.38-.22,.38-.02-.07-.04-.11-.08-.11-.26,0-.3,1.3-.31,1.8-.02,.5,.31,2.89,.63,3.85s.42,3.29,.47,4.36c.11,2.55,.57,5.8,.58,7.39s.04,3.91,.04,3.91h-1.93l-3.44,1.35c-.73,0-.62,.46-.62,.46,0,0,.5-.21,.78,.37s.32,.69,1.21,.69c-.89,0-.94,.11-1.21,.69s-.78,.37-.78,.37c0,0-.11,.46,.62,.46l-1.99,.32v1.51h-2.07v.97h.42v3.09h-.84v.65H31.85v-.65h-.84Z"/>
        <line class="cls-4" x1="27.37" y1="26.37" x2="19.08" y2="26.37"/>
        <line class="cls-4" x1="19.08" y1="25.02" x2="22.37" y2="25.02"/>
        <path class="cls-4" d="M26,27.88h-6.91"/>
        <line class="cls-4" x1="19.08" y1="25.93" x2="26.26" y2="25.93"/>
        <line class="cls-4" x1="19.08" y1="25.5" x2="25.16" y2="25.5"/>
        <line class="cls-4" x1="27.37" y1="29.39" x2="19.08" y2="29.39"/>
        <path class="cls-4" d="M19.4,28.75c0,.18-.14,.32-.32,.32s-.32-.14-.32-.32"/>
        <path class="cls-4" d="M20.04,28.75c0,.18-.14,.32-.32,.32s-.32-.14-.32-.32"/>
        <path class="cls-4" d="M20.68,28.75c0,.18-.14,.32-.32,.32s-.32-.14-.32-.32"/>
        <path class="cls-4" d="M21.32,28.75c0,.18-.14,.32-.32,.32s-.32-.14-.32-.32"/>
        <path class="cls-4" d="M21.96,28.75c0,.18-.14,.32-.32,.32s-.32-.14-.32-.32"/>
        <path class="cls-4" d="M22.6,28.75c0,.18-.14,.32-.32,.32s-.32-.14-.32-.32"/>
        <path class="cls-4" d="M23.24,28.75c0,.18-.14,.32-.32,.32s-.32-.14-.32-.32"/>
        <path class="cls-4" d="M23.88,28.75c0,.18-.14,.32-.32,.32s-.32-.14-.32-.32"/>
        <path class="cls-4" d="M24.52,28.75c0,.18-.14,.32-.32,.32s-.32-.14-.32-.32"/>
        <path class="cls-4" d="M25.16,28.75c0,.18-.14,.32-.32,.32s-.32-.14-.32-.32"/>
        <path class="cls-4" d="M25.81,28.75c0,.18-.14,.32-.32,.32s-.32-.14-.32-.32"/>
        <path class="cls-4" d="M26.45,28.75c0,.18-.14,.32-.32,.32s-.32-.14-.32-.32"/>
        <path class="cls-4" d="M27.09,28.75c0,.18-.14,.32-.32,.32s-.32-.14-.32-.32"/>
        <path class="cls-4" d="M19.4,31.55c0,.18-.14,.32-.32,.32s-.32-.14-.32-.32"/>
        <path class="cls-4" d="M20.04,31.55c0,.18-.14,.32-.32,.32s-.32-.14-.32-.32"/>
        <path class="cls-4" d="M20.68,31.55c0,.18-.14,.32-.32,.32s-.32-.14-.32-.32"/>
        <path class="cls-4" d="M21.32,31.55c0,.18-.14,.32-.32,.32s-.32-.14-.32-.32"/>
        <path class="cls-4" d="M21.96,31.55c0,.18-.14,.32-.32,.32s-.32-.14-.32-.32"/>
        <path class="cls-4" d="M22.6,31.55c0,.18-.14,.32-.32,.32s-.32-.14-.32-.32"/>
        <path class="cls-4" d="M23.24,31.55c0,.18-.14,.32-.32,.32s-.32-.14-.32-.32"/>
        <path class="cls-4" d="M23.88,31.55c0,.18-.14,.32-.32,.32s-.32-.14-.32-.32"/>
        <path class="cls-4" d="M24.52,31.55c0,.18-.14,.32-.32,.32s-.32-.14-.32-.32"/>
        <path class="cls-4" d="M25.16,31.55c0,.18-.14,.32-.32,.32s-.32-.14-.32-.32"/>
        <path class="cls-4" d="M25.81,31.55c0,.18-.14,.32-.32,.32s-.32-.14-.32-.32"/>
        <path class="cls-4" d="M26.45,31.55c0,.18-.14,.32-.32,.32s-.32-.14-.32-.32"/>
        <path class="cls-4" d="M27.09,31.55c0,.18-.14,.32-.32,.32s-.32-.14-.32-.32"/>
        <path class="cls-4" d="M27.73,31.55c0,.18-.14,.32-.32,.32s-.32-.14-.32-.32"/>
        <path class="cls-4" d="M28.37,31.55c0,.18-.14,.32-.32,.32s-.32-.14-.32-.32"/>
        <path class="cls-4" d="M29.01,31.55c0,.18-.14,.32-.32,.32s-.32-.14-.32-.32"/>
        <path class="cls-4" d="M29.65,31.55c0,.18-.14,.32-.32,.32s-.32-.14-.32-.32"/>
        <line class="cls-4" x1="19.4" y1="27.47" x2="19.4" y2="26.94"/>
        <line class="cls-4" x1="20.04" y1="27.47" x2="20.04" y2="26.94"/>
        <line class="cls-4" x1="20.68" y1="27.47" x2="20.68" y2="26.94"/>
        <line class="cls-4" x1="21.32" y1="27.47" x2="21.32" y2="26.94"/>
        <line class="cls-4" x1="21.96" y1="27.47" x2="21.96" y2="26.94"/>
        <line class="cls-4" x1="22.6" y1="27.47" x2="22.6" y2="26.94"/>
        <line class="cls-4" x1="23.24" y1="27.47" x2="23.24" y2="26.94"/>
        <line class="cls-4" x1="23.88" y1="27.47" x2="23.88" y2="26.94"/>
        <line class="cls-4" x1="24.52" y1="27.47" x2="24.52" y2="26.94"/>
        <line class="cls-4" x1="25.16" y1="27.47" x2="25.16" y2="26.94"/>
        <line class="cls-4" x1="25.81" y1="27.47" x2="25.81" y2="26.94"/>
        <line class="cls-4" x1="26.45" y1="27.47" x2="26.45" y2="26.94"/>
        <line class="cls-4" x1="29.36" y1="29.71" x2="19.08" y2="29.71"/>
        <line class="cls-4" x1="29.36" y1="31.23" x2="19.08" y2="31.23"/>
        <line class="cls-4" x1="31.01" y1="35.29" x2="19.08" y2="35.29"/>
        <polyline class="cls-4" points="31.01 32.2 31.01 31.23 30.03 31.23 30.03 35.29 31.01 35.29"/>
        <polyline class="cls-4" points="31.01 32.2 31.01 31.23 31.44 31.23"/>
        <line class="cls-4" x1="30.03" y1="32.2" x2="19.08" y2="32.2"/>
        <line class="cls-4" x1="31.85" y1="35.62" x2="19.08" y2="35.62"/>
        <path class="cls-4" d="M27.45,33.68c0-.49,.4-.89,.89-.89s.89,.4,.89,.89v1.62h-1.79v-1.62Z"/>
        <path class="cls-4" d="M24.77,33.68c0-.49,.4-.89,.89-.89s.89,.4,.89,.89v1.62h-1.79v-1.62Z"/>
        <path class="cls-4" d="M22.1,33.68c0-.49,.4-.89,.89-.89s.89,.4,.89,.89v1.62h-1.79v-1.62Z"/>
        <path class="cls-4" d="M19.42,33.68c0-.49,.4-.89,.89-.89s.89,.4,.89,.89v1.62h-1.79v-1.62Z"/>
        <path class="cls-4" d="M19.95,25.02c-.09,0-.27-.88,.1-.94,.46-.07,.98-.01,1.28,.24s.64,.7,.34,.7"/>
        <line class="cls-4" x1="20.28" y1="24.69" x2="20.28" y2="25.02"/>
        <line class="cls-4" x1="20.65" y1="24.71" x2="20.65" y2="25.02"/>
        <line class="cls-4" x1="21.01" y1="24.74" x2="21.01" y2="25.02"/>
        <line class="cls-4" x1="21.38" y1="24.81" x2="21.38" y2="25.02"/>
        <path class="cls-2" d="M19.84,.85c-.35-.07-.76-.05-.76-.05"/>
        <path class="cls-2" d="M19.08,4.92c.42,0,1.18-.08,1.36-.91,.1-.47,.14-.89,.15-1.25"/>
        <path class="cls-2" d="M19.3,1.82c0,.12-.09,.21-.21,.21s-.21-.09-.21-.21,.09-.21,.21-.21,.21,.09,.21,.21Z"/>
        <path class="cls-2" d="M19.72,1.82c0,.12-.09,.21-.21,.21s-.21-.09-.21-.21,.09-.21,.21-.21,.21,.09,.21,.21Z"/>
        <path class="cls-2" d="M19.21,3.58c0,.07-.06,.13-.13,.13s-.13-.06-.13-.13"/>
        <path class="cls-2" d="M19.46,3.58c0,.07-.06,.13-.13,.13s-.13-.06-.13-.13"/>
        <path class="cls-2" d="M18.96,3.58c0,.07-.06,.13-.13,.13s-.13-.06-.13-.13"/>
        <path class="cls-2" d="M20.14,1.82c0,.12-.09,.21-.21,.21s-.21-.09-.21-.21,.09-.21,.21-.21,.21,.09,.21,.21Z"/>
        <path class="cls-2" d="M20.57,1.91c0,.12-.09,.21-.21,.21s-.21-.09-.21-.21,.09-.21,.21-.21,.21,.09,.21,.21Z"/>
        <path class="cls-6" d="M20.18,2.84c-.4-.45-.71,.07-.71,.07,0,0,.36,.29,.71-.07"/>
        <path class="cls-2" d="M19.21,3.58c0-.35,.02-.95,.35-1.15,.28-.18,.56-.12,.69,.04"/>
        <line class="cls-2" x1="19.08" y1="4.21" x2="19.34" y2="4.21"/>
        <path class="cls-2" d="M20.56,4.67c-.12,.06-.26-.03-.24-.33"/>
        <path class="cls-2" d="M20.56,3.3c.04-.19,.15-.32,.35-.37"/>
        <path class="cls-4" d="M20.34,5.84c-.39-.08-.46,.67-.27,1.1,.34,.78,1.21,2,2.08,2.81"/>
        <path class="cls-2" d="M20.21,6.25c0-.19,.06-.55,.37-.48"/>
        <path class="cls-2" d="M20.5,6.25c0-.17-.04-.54,.25-.57"/>
        <path class="cls-2" d="M20.79,6.2c0-.23-.02-.82,.21-.82s.21,.7,.21,.7"/>
        <path class="cls-2" d="M21.16,5.62c.07-.09,.2-.2,.3-.13,.1,.08-.05,.17-.05,.39,0,.22,.25,.41,.18,.77-.08,.36-.25,.6-.25,.6"/>
        <path class="cls-4" d="M21.4,7.17c.24,.6,1.6,1.22,2.28,2.01"/>
        <path class="cls-4" d="M21.98,7.8c.22,.17,.22,1.92,.07,3.34s-.16,2.98-.16,3.68c.01,1.66-.32,6.28,.49,8.91,0,0-1.12-.39-1.12-1.88-.38,2.15-4.75,1.28-5.11,1.99"/>
        <path class="cls-4" d="M21.26,8.79c0,.99,.39,3,.67,3.9"/>
        <line class="cls-4" x1="10.8" y1="26.37" x2="19.08" y2="26.37"/>
        <line class="cls-4" x1="19.08" y1="25.02" x2="16.17" y2="25.02"/>
        <path class="cls-4" d="M12.17,27.88h6.91"/>
        <line class="cls-4" x1="19.08" y1="25.93" x2="11.9" y2="25.93"/>
        <line class="cls-4" x1="19.08" y1="25.5" x2="13.01" y2="25.5"/>
        <line class="cls-4" x1="10.8" y1="29.39" x2="19.08" y2="29.39"/>
        <path class="cls-4" d="M18.12,28.75c0,.18,.14,.32,.32,.32s.32-.14,.32-.32"/>
        <path class="cls-4" d="M17.48,28.75c0,.18,.14,.32,.32,.32s.32-.14,.32-.32"/>
        <path class="cls-4" d="M16.84,28.75c0,.18,.14,.32,.32,.32s.32-.14,.32-.32"/>
        <path class="cls-4" d="M16.2,28.75c0,.18,.14,.32,.32,.32s.32-.14,.32-.32"/>
        <path class="cls-4" d="M15.56,28.75c0,.18,.14,.32,.32,.32s.32-.14,.32-.32"/>
        <path class="cls-4" d="M14.92,28.75c0,.18,.14,.32,.32,.32s.32-.14,.32-.32"/>
        <path class="cls-4" d="M14.28,28.75c0,.18,.14,.32,.32,.32s.32-.14,.32-.32"/>
        <path class="cls-4" d="M13.64,28.75c0,.18,.14,.32,.32,.32s.32-.14,.32-.32"/>
        <path class="cls-4" d="M13,28.75c0,.18,.14,.32,.32,.32s.32-.14,.32-.32"/>
        <path class="cls-4" d="M12.36,28.75c0,.18,.14,.32,.32,.32s.32-.14,.32-.32"/>
        <path class="cls-4" d="M11.72,28.75c0,.18,.14,.32,.32,.32s.32-.14,.32-.32"/>
        <path class="cls-4" d="M11.08,28.75c0,.18,.14,.32,.32,.32s.32-.14,.32-.32"/>
        <path class="cls-4" d="M18.12,31.55c0,.18,.14,.32,.32,.32s.32-.14,.32-.32"/>
        <path class="cls-4" d="M17.48,31.55c0,.18,.14,.32,.32,.32s.32-.14,.32-.32"/>
        <path class="cls-4" d="M16.84,31.55c0,.18,.14,.32,.32,.32s.32-.14,.32-.32"/>
        <path class="cls-4" d="M16.2,31.55c0,.18,.14,.32,.32,.32s.32-.14,.32-.32"/>
        <path class="cls-4" d="M15.56,31.55c0,.18,.14,.32,.32,.32s.32-.14,.32-.32"/>
        <path class="cls-4" d="M14.92,31.55c0,.18,.14,.32,.32,.32s.32-.14,.32-.32"/>
        <path class="cls-4" d="M14.28,31.55c0,.18,.14,.32,.32,.32s.32-.14,.32-.32"/>
        <path class="cls-4" d="M13.64,31.55c0,.18,.14,.32,.32,.32s.32-.14,.32-.32"/>
        <path class="cls-4" d="M13,31.55c0,.18,.14,.32,.32,.32s.32-.14,.32-.32"/>
        <path class="cls-4" d="M12.36,31.55c0,.18,.14,.32,.32,.32s.32-.14,.32-.32"/>
        <path class="cls-4" d="M11.72,31.55c0,.18,.14,.32,.32,.32s.32-.14,.32-.32"/>
        <path class="cls-4" d="M11.08,31.55c0,.18,.14,.32,.32,.32s.32-.14,.32-.32"/>
        <path class="cls-4" d="M10.44,31.55c0,.18,.14,.32,.32,.32s.32-.14,.32-.32"/>
        <path class="cls-4" d="M9.8,31.55c0,.18,.14,.32,.32,.32s.32-.14,.32-.32"/>
        <path class="cls-4" d="M9.16,31.55c0,.18,.14,.32,.32,.32s.32-.14,.32-.32"/>
        <path class="cls-4" d="M8.52,31.55c0,.18,.14,.32,.32,.32s.32-.14,.32-.32"/>
        <line class="cls-4" x1="18.76" y1="27.47" x2="18.76" y2="26.94"/>
        <line class="cls-4" x1="18.12" y1="27.47" x2="18.12" y2="26.94"/>
        <line class="cls-4" x1="17.48" y1="27.47" x2="17.48" y2="26.94"/>
        <line class="cls-4" x1="16.84" y1="27.47" x2="16.84" y2="26.94"/>
        <line class="cls-4" x1="16.2" y1="27.47" x2="16.2" y2="26.94"/>
        <line class="cls-4" x1="15.56" y1="27.47" x2="15.56" y2="26.94"/>
        <line class="cls-4" x1="14.92" y1="27.47" x2="14.92" y2="26.94"/>
        <line class="cls-4" x1="14.28" y1="27.47" x2="14.28" y2="26.94"/>
        <line class="cls-4" x1="13.64" y1="27.47" x2="13.64" y2="26.94"/>
        <line class="cls-4" x1="13" y1="27.47" x2="13" y2="26.94"/>
        <line class="cls-4" x1="12.36" y1="27.47" x2="12.36" y2="26.94"/>
        <line class="cls-4" x1="11.72" y1="27.47" x2="11.72" y2="26.94"/>
        <line class="cls-4" x1="8.8" y1="29.71" x2="19.08" y2="29.71"/>
        <line class="cls-4" x1="8.8" y1="31.23" x2="19.08" y2="31.23"/>
        <line class="cls-4" x1="7.15" y1="35.29" x2="19.08" y2="35.29"/>
        <polyline class="cls-4" points="7.15 31.23 8.14 31.23 8.14 35.29 7.15 35.29"/>
        <line class="cls-2" x1="7.15" y1="32.2" x2="7.15" y2="31.23"/>
        <line class="cls-4" x1="8.14" y1="32.2" x2="19.08" y2="32.2"/>
        <line class="cls-4" x1="6.32" y1="35.62" x2="19.08" y2="35.62"/>
        <path class="cls-4" d="M10.72,33.68c0-.49-.4-.89-.89-.89s-.89,.4-.89,.89v1.62h1.79v-1.62Z"/>
        <path class="cls-4" d="M13.39,33.68c0-.49-.4-.89-.89-.89s-.89,.4-.89,.89v1.62h1.79v-1.62Z"/>
        <path class="cls-4" d="M16.07,33.68c0-.49-.4-.89-.89-.89s-.89,.4-.89,.89v1.62h1.79v-1.62Z"/>
        <path class="cls-4" d="M18.75,33.68c0-.49-.4-.89-.89-.89s-.89,.4-.89,.89v1.62h1.79v-1.62Z"/>
        <path class="cls-4" d="M18.22,25.02c.09,0,.27-.88-.1-.94-.46-.07-.98-.01-1.28,.24s-.64,.7-.34,.7"/>
        <line class="cls-4" x1="17.89" y1="24.69" x2="17.89" y2="25.02"/>
        <line class="cls-4" x1="17.52" y1="24.71" x2="17.52" y2="25.02"/>
        <line class="cls-4" x1="17.16" y1="24.74" x2="17.16" y2="25.02"/>
        <line class="cls-4" x1="16.79" y1="24.81" x2="16.79" y2="25.02"/>
        <path class="cls-2" d="M18.33,.85c.35-.07,.76-.05,.76-.05"/>
        <path class="cls-2" d="M19.08,4.92c-.42,0-1.18-.08-1.36-.91-.1-.47-.14-.89-.15-1.25"/>
        <path class="cls-2" d="M18.45,1.82c0,.12,.09,.21,.21,.21s.21-.09,.21-.21-.09-.21-.21-.21-.21,.09-.21,.21Z"/>
        <path class="cls-2" d="M18.03,1.82c0,.12,.09,.21,.21,.21s.21-.09,.21-.21-.09-.21-.21-.21-.21,.09-.21,.21Z"/>
        <path class="cls-2" d="M17.6,1.91c0,.12,.09,.21,.21,.21s.21-.09,.21-.21-.09-.21-.21-.21-.21,.09-.21,.21Z"/>
        <path class="cls-6" d="M17.99,2.84c.4-.45,.71,.07,.71,.07,0,0-.36,.29-.71-.07"/>
        <path class="cls-2" d="M18.96,3.58c0-.35-.02-.95-.35-1.15-.28-.18-.56-.12-.69,.04"/>
        <line class="cls-2" x1="19.08" y1="4.21" x2="18.83" y2="4.21"/>
        <path class="cls-2" d="M17.45,4.46c.09,.31,.43,.34,.39-.12"/>
        <path class="cls-2" d="M17.61,3.3c-.04-.19-.15-.32-.35-.37"/>
        <path class="cls-4" d="M20.72,4.9c-1.01,.48-1.58,2.04-2.29,2.76-1,1.03-1.8-.34-1.8-.34"/>
        <path class="cls-2" d="M15.86,4.97c0-.27-.02-.75-.05-1.11"/>
        <path class="cls-2" d="M15.52,4.73s-.02-.8-.06-1.2"/>
        <path class="cls-2" d="M15.18,4.73c0-.42,0-.83-.04-1.07"/>
        <path class="cls-2" d="M14.83,4.73c0-.15,.06-.67,0-.91"/>
        <path class="cls-2" d="M17.55,4.63s-.99,.44-1.41,.84"/>
        <path class="cls-4" d="M15.14,9.58c.21,.58,.72,1.47,1.31,1.38,.5-.08,.62-.76,.34-1.64s-1.23-3.03-1.23-3.03c.37-.19,.58-.53,.57-.82,0-.29-.03-.45,.05-.57,.08-.13-.1-.26-.24-.09-.15,.18-.11,.49-.24,.62"/>
        <path class="cls-4" d="M16.8,9.32c-.1-.6-.19-1.34-.16-2s-.14-1.2,.1-2.27"/>
        <path class="cls-4" d="M16.45,10.96c-.41,.45-.58,4.64-.61,6.51"/>
        <g>
          <path class="cls-1" d="M19.08,27.88h6.91"/>
          <path class="cls-1" d="M19.08,27.88h-6.91"/>
          <path class="cls-1" d="M31.01,35.29v-3.09h.42v-.97h-2.07v-1.51l-1.99-.32c.73,0,.62-.46,.62-.46,0,0-.5,.21-.78-.37s-.32-.69-1.21-.69c.89,0,.94-.11,1.21-.69s.78-.37,.78-.37c0,0,.11-.46-.62-.46l-3.44-1.35h-1.57s.03-2.31,.04-3.91,.33-4.85,.58-7.39,.32-2.49,.74-3.13,.24-1.45-.08-3.2-.78-2.03-1.75-2.18-1.34-.33-1.34-.55h0c.1-.05,.19-.2,.17-.41-.02-.35,.19-.49,.35-1.08,.19-.71-.34-.6-.49-.4,.01-.27,0-.51,0-.72,0-.61-.26-1.1-.76-1.2,0,0,0-.6-.76-.6s-.76,.6-.76,.6c-.49,.1-.76,.6-.76,1.2,0,.21,0,.45,0,.72-.16-.2-.68-.31-.49,.4,.16,.6,.37,.73,.35,1.08,0,.08,0,.14,.02,.2h0c-.69,.5-1.54-.43-1.64-.6h0c-.01-.15-.02-.28-.04-.35-.06-.34-.31-.19-.31,0,0-.1-.02-.18-.03-.21-.05-.15-.29-.19-.29,.34-.02-.12-.04-.2-.08-.21-.18-.08-.22,.38-.22,.38-.02-.07-.04-.11-.08-.11-.26,0-.3,1.3-.31,1.8-.02,.5,.31,2.89,.63,3.85s.42,3.29,.47,4.36c.11,2.55,.57,5.8,.58,7.39s.04,3.91,.04,3.91h-1.93l-3.44,1.35c-.73,0-.62,.46-.62,.46,0,0,.5-.21,.78,.37s.32,.69,1.21,.69c-.89,0-.94,.11-1.21,.69s-.78,.37-.78,.37c0,0-.11,.46,.62,.46l-1.99,.32v1.51h-2.07v.97h.42v3.09h-.84v.65H31.85v-.65h-.84Z"/>
        </g>
        <path class="cls-4" d="M16.15,22.68c.36-.71,4.73,.16,5.11-1.99"/>
        <path class="cls-4" d="M16.15,21.5c.36-.71,4.73,.16,5.11-1.99"/>
        <path class="cls-4" d="M16.15,20.33c.36-.71,4.73,.16,5.11-1.99"/>
        <path class="cls-4" d="M16.01,19.24c.37-.84,4.87,.08,5.25-2.07"/>
        <path class="cls-4" d="M15.9,18.1c.38-.84,4.97,.05,5.36-2.1"/>
        <path class="cls-4" d="M15.79,16.99c.62-1.07,5.08-.02,5.47-2.17"/>
        <path class="cls-4" d="M15.89,15.82c.52-1.08,4.98-.02,5.37-2.17"/>
        <path class="cls-4" d="M15.95,14.65c.51-1,4.93-.02,5.31-2.17"/>
        <path class="cls-4" d="M16.04,13.41c.41-.79,4.83,.05,5.22-2.1"/>
        <path class="cls-4" d="M16.16,12.13c.36-.71,4.74,.18,5.2-2.17"/>
        <path class="cls-4" d="M16.85,10.67c1.34-.19,4.11-.02,4.41-1.71"/>
      </g>
      <line class="cls-5" y1="35.95" x2="36.71" y2="35.95"/>
    </g>
  </g>
</svg>