<svg width="46" height="43" viewBox="0 0 46 43" fill="none" xmlns="http://www.w3.org/2000/svg">
<path opacity="0.4" d="M7.28598 12.265C7.24885 11.5361 7.80953 10.9144 8.53829 10.8762L39.411 9.25813C40.1397 9.21993 40.7606 9.77979 40.7977 10.5086L41.9269 32.6725C41.964 33.4013 41.4034 34.0231 40.6746 34.0613L9.80191 35.6793C9.07315 35.7175 8.45228 35.1577 8.41515 34.4289L7.28598 12.265Z" fill="#4F2DA7"/>
<path d="M5 9.32135C5 8.59159 5.59159 8 6.32135 8H37.2351C37.9649 8 38.5565 8.59159 38.5565 9.32135V31.5149C38.5565 32.2447 37.9649 32.8363 37.2351 32.8363H6.32134C5.59158 32.8363 5 32.2447 5 31.5149V9.32135Z" fill="white"/>
<path opacity="0.8" d="M5 9.32135C5 8.59159 5.59159 8 6.32135 8H37.2351C37.9649 8 38.5565 8.59159 38.5565 9.32135V31.5149C38.5565 32.2447 37.9649 32.8363 37.2351 32.8363H6.32134C5.59158 32.8363 5 32.2447 5 31.5149V9.32135Z" fill="white"/>
<path d="M5 9.32135C5 8.59159 5.59159 8 6.32135 8H37.2351C37.9649 8 38.5565 8.59159 38.5565 9.32135V31.5149C38.5565 32.2447 37.9649 32.8363 37.2351 32.8363H6.32134C5.59158 32.8363 5 32.2447 5 31.5149V9.32135Z" fill="#4F2DA7"/>
<path d="M8.96875 13.8281H20.4701" stroke="white" stroke-width="0.660674" stroke-linecap="round" stroke-linejoin="round"/>
<path d="M8.96875 18.043H17.5575" stroke="white" stroke-width="0.660674" stroke-linecap="round" stroke-linejoin="round"/>
<path d="M8.96875 22.0586H13.7766" stroke="white" stroke-width="0.660674" stroke-linecap="round" stroke-linejoin="round"/>
<path d="M33.6094 22.3867L28.7908 19.5678L31.5678 14.694C32.8458 15.4416 33.7788 16.6721 34.1617 18.1148C34.5445 19.5574 34.3459 21.0941 33.6094 22.3867Z" fill="#119A4B"/>
<path d="M32.9253 22.9077C32.376 23.8716 31.5565 24.6485 30.5704 25.1402C29.5843 25.6319 28.4758 25.8163 27.3852 25.6701C26.2946 25.5238 25.2708 25.0536 24.4432 24.3187C23.6157 23.5839 23.0216 22.6175 22.736 21.5417L28.1067 20.0887L32.9253 22.9077Z" fill="white"/>
<path d="M30.2239 14.549L27.4479 19.421L22.0772 20.874C21.7918 19.7981 21.8277 18.6613 22.1805 17.6071C22.5332 16.553 23.187 15.6289 24.0591 14.9517C24.9312 14.2745 25.9824 13.8746 27.0799 13.8026C28.1774 13.7307 29.2719 13.9898 30.2249 14.5472L30.2239 14.549Z" fill="#675AF6"/>
</svg>
