<?xml version="1.0" encoding="utf-8"?>
<!-- Generator: Adobe Illustrator 26.5.0, SVG Export Plug-In . SVG Version: 6.00 Build 0)  -->
<svg version="1.1"
	 id="svg2" xmlns:dc="http://purl.org/dc/elements/1.1/" xmlns:sodipodi="http://sodipodi.sourceforge.net/DTD/sodipodi-0.dtd" xmlns:rdf="http://www.w3.org/1999/02/22-rdf-syntax-ns#" xmlns:svg="http://www.w3.org/2000/svg" xmlns:inkscape="http://www.inkscape.org/namespaces/inkscape" xmlns:cc="http://creativecommons.org/ns#"
	 xmlns="http://www.w3.org/2000/svg" xmlns:xlink="http://www.w3.org/1999/xlink" x="0px" y="0px" viewBox="0 0 285.6 60.1"
	 style="enable-background:new 0 0 285.6 60.1;" xml:space="preserve">
<style type="text/css">
	.st0{fill:#00579C;}
	.st1{fill:#DA251C;}
	.st2{fill:#FFFFFF;}
</style>
<defs>
	
		<inkscape:perspective  id="perspective55" inkscape:persp3d-origin="3045.625 : 406.25 : 1" inkscape:vp_x="0 : 609.375 : 1" inkscape:vp_y="0 : 1000 : 0" inkscape:vp_z="6091.25 : 609.375 : 1" sodipodi:type="inkscape:persp3d">
		</inkscape:perspective>
</defs>
<sodipodi:namedview  bordercolor="#666666" borderopacity="1" gridtolerance="10" guidetolerance="10" id="namedview49" inkscape:current-layer="svg2" inkscape:cx="97.234301" inkscape:cy="122.06575" inkscape:pageopacity="0" inkscape:pageshadow="2" inkscape:window-height="750" inkscape:window-maximized="1" inkscape:window-width="1280" inkscape:window-x="-8" inkscape:window-y="-8" inkscape:zoom="4.0119204" objecttolerance="10" pagecolor="#ffffff" showgrid="false">
	</sodipodi:namedview>
<g id="g2902" transform="scale(0.08640546,0.08640546)">
	<g id="_x23_00579cff">
		<path id="path8" class="st0" d="M551.8,0h36.7c3.1,0.9,6.3,0.5,9.5,1.1c41.7,4.1,83.1,16.6,118.4,39.5
			c14.2,9.2,27.2,20.3,38.9,32.5c9,10.2,17.6,20.8,24.6,32.5c4.5,6.9,8,14.4,11.7,21.8c10.7,23,17.2,48,19.7,73.2
			c0.7,4.1,0.4,8.2,1.1,12.3c0.4,5,0,9.9,0.2,14.9c-0.1,5.7,0.4,11.5-0.5,17.2c-0.6,14.7-2.8,29.3-5.6,43.8
			c-1.5,8.6-4.2,17-5.9,25.5c-17.4,69.5-34.7,139-52.1,208.5c-2.8,12.9-6.3,25.6-9.4,38.4c-2.1,8.2-4.2,16.7-9,23.9
			c-3.5,5.6-8.1,10.5-13.1,14.7c-12.1,9.6-27.6,14.2-42.9,14.3c-6.5-0.6-13.1-1.4-19.2-3.6c-6.5-2.5-13-5.6-17.7-10.9
			c-6.8-6-10.5-15.1-11.1-24c-0.7-5.6,0.8-11.2,2.2-16.7c8.2-32.9,16.5-65.9,24.7-98.8c3.6-13.9,6.7-27.9,10.3-41.8
			c12-48,24-96,36-143.9c2.9-11.8,4.7-23.8,5.6-35.8c-0.2-9.3,0.5-18.6-0.7-27.9c-1.2-11.6-3.8-23-8.4-33.8
			c-4-10.4-10.1-19.9-17.4-28.3c-2.1-3.1-5.5-5-8-7.7c-1.2-1.2-2.4-2.4-3.8-3.4c-7.7-5.9-16-11.3-25.1-14.9
			c-7.9-3.9-16.3-6.6-24.8-8.8c-11.8-3.4-23.9-5.5-36.1-6.1c-5.5-1-11-0.4-16.5-0.6c-4.3-0.2-8.6,0.9-12.9,0.8
			c-20.2,1.9-40.2,6.4-59.2,13.6c-12.6,4.4-24.5,10.4-36.2,16.6c-13.9,8.3-27.5,17.4-39.4,28.4c-4.1,4.2-8.3,8.3-12.5,12.5
			c-8,9.4-15.6,19.5-20.4,31c-5.2,16.8-9.5,33.8-14.2,50.7c-5.7,21.9-11.7,43.7-17.1,65.7c-6.6,24.8-12.7,49.8-19.7,74.6
			c-3.2,10.4-6.4,20.7-9.6,31.1c-1.5,5.7-2.7,11.5-5.4,16.8c-8.5,18.7-27.1,32.1-47.2,35.6c-13.7,2.7-28.6,0.8-40.5-6.7
			c-3.5-2.7-7.2-5.2-9.8-8.8c-5.3-6.2-8.3-14-9.3-22c-0.1-3.8-1.6-7.7,0-11.3c16.4-53.7,29.4-108.3,43.7-162.6
			c8-30.6,15.9-61.2,24.8-91.6c2-7.4,5.2-14.5,8.7-21.3c9.6-20.2,22.9-38.4,37.8-55c5.8-5.8,11.6-11.7,17.5-17.5
			c9.3-7.9,18.4-16,28.5-22.9c5-4.2,10.8-7.2,16.2-10.9c21.4-13.6,44.4-24.6,68.2-33.2c5.9-2,11.6-4.4,17.6-6
			c12.7-3.7,25.4-7.1,38.5-9.4c10.1-2.1,20.3-3,30.5-4.4C545.7,0.5,548.8,1,551.8,0L551.8,0z"/>
	</g>
	<path id="path11" class="st1" d="M125.7,104.4c3.6-0.1,7.1-1,10.6-0.9c9.3,0.8,18.8,2.2,27.3,6.3c5.8,3.1,11.7,6.9,15.2,12.6
		c5.1,6.5,5.5,15.5,3.9,23.3c-4.6,17.8-8.8,35.8-13.6,53.5c-5.4,21.5-10.8,43-16.1,64.5c-4,16.4-8.5,32.6-12.4,49
		c-4.6,18.7-9.4,37.3-14,56c-4,14.7-7.6,29.6-11.3,44.4c-4.2,15.9-7.5,32.2-7.8,48.7c-0.8,4.3-0.6,8.7,0,13
		c0.3,17.3,4.1,34.5,11.3,50.2c3.5,6.3,6.9,12.8,11.6,18.4c3.6,4,6.8,8.4,11.1,11.7c4.7,3.6,9.1,7.7,14.4,10.6
		c5.5,3.5,11.4,6.4,17.2,9.1c13.3,5.2,27,9.3,41.1,11.7c13.1,1.9,26.4,3.2,39.6,2.1c33.2-2,65.7-11.5,95.2-26.9
		c17.4-8.8,33.4-20.4,48-33.4c8.3-8,16.2-16.4,22.5-26c3.9-5.9,8-11.8,9.8-18.7c17.4-60.2,32.2-121.1,48.3-181.6
		c3.3-11.9,7.3-23.7,10.8-35.6c3.3-11,8.5-21.6,16.2-30.2c4.1-5.5,9.7-9.5,15.4-13.2c12.2-7.8,27.1-10.8,41.4-9.4
		c6.9,0.8,13.7,2.5,19.8,5.9c7.6,3.5,14.2,9.4,18.1,16.9c3.8,7,3.9,15.5,2.2,23.2c-10.9,36.2-20.5,72.8-29.9,109.4
		c-12.9,49.3-25.2,98.7-39.4,147.6c-1.2,4.4-3.1,8.7-5,12.8c-3.4,8.2-7.8,15.8-12.4,23.4c-8.1,13.2-17.3,25.7-27.9,37.1
		c-4.3,5.4-9.6,9.9-14.4,14.9c-9.5,8.7-19.3,17-29.7,24.6c-16.3,12.1-34,22.3-52.1,31.4c-8.4,3.8-16.7,7.8-25.4,11.1
		c-7.5,3.3-15.4,5.5-23.1,8.3c-11.9,3.9-24,6.8-36.2,9.5c-4.6,0.9-9.3,1.5-13.9,2.5c-7.1,1.3-14.3,1.8-21.4,2.9
		c-3.6,0.6-7.4-0.2-11,1h-36.7c-1.4-0.4-2.7-0.6-4.2-0.7c-5.2-0.1-10.4-1.3-15.6-1.6c-15.8-2.1-31.6-5.3-46.8-10.3
		c-17.1-5-33.5-12.4-49.1-20.8c-11.3-6.5-21.9-14-32.1-22.2c-3.1-2.8-6.5-5.3-9.4-8.5c-4.5-4.8-9.6-9-13.6-14.2
		c-27.3-31-44.4-70.4-50.1-111.2c-1.1-6.5-1.3-13.1-2.5-19.5v-37.4c0.7-2.5,0.6-5.1,0.9-7.6c1.9-18.4,4.7-36.7,9.7-54.5
		c7.8-30.6,15.1-61.3,23.2-91.8c6.1-24.6,12.3-49.1,18.4-73.7c5.8-21.6,10.9-43.3,16.4-65c1.5-5.3,2.3-10.9,4.7-16
		c2.8-5.7,5.8-11.6,10.4-16c2.3-2.2,4.4-4.6,6.9-6.7C100.5,110.3,113.1,105.8,125.7,104.4z"/>
	<g id="g2880" transform="translate(-243.65001,0)">
		<g id="_x23_ffffffff">
			<path id="path5" class="st2" d="M1614.2,257.9C1614.6,258.3,1614.6,258.3,1614.2,257.9z"/>
		</g>
		<path id="path13" class="st1" d="M1272.9,151.4c25.2-0.1,50.3,0,75.5,0c-12.1,57.8-24.3,115.6-36.4,173.4c-2.4,11.6-5.5,23.1-5,35
			c-0.3,6.5,0.9,13.1,4.1,18.8c2.9,5.2,8.1,8.8,13.6,10.7c5.1,2,10.6,2.4,16,3.2c7,0.6,14,0.1,20.8-1.1c8.6-1.1,16.8-4.7,23.8-9.8
			c10-8.1,15.4-20.2,19.3-32.1c2.3-7.4,3.6-15,5.3-22.6c12.3-58.4,24.6-116.8,36.9-175.2c0.9-0.6,2.1-0.3,3.1-0.4
			c24.3,0.1,48.6-0.1,72.9,0.1c-2.8,15.5-6.5,30.7-9.5,46.1c-6.7,31.5-13.3,62.9-19.9,94.4c-3.3,15.1-6.1,30.3-9.6,45.3
			c-3.7,15.9-8.8,31.6-15.7,46.4c-6.2,12-14.3,23-24,32.4c-21.6,20.1-49.5,33.1-78.6,37.7c-5.1,0.8-10.3,1.7-15.5,1.7
			c-7.3,1.2-14.7,0.4-22.1,0.7c-4.1,0.3-8.1-1-12.2-0.8c-15.2-1.6-30.3-5.2-43.9-12.4c-11-5.7-20.8-13.9-28.2-23.9
			c-9.1-12.7-13.5-28.7-12.8-44.3c-0.2-7.5,0.1-14.9,1.1-22.3c2.2-17.6,6.5-34.9,10-52.2c9.4-44.2,18.5-88.5,27.9-132.7
			C1270.6,162.2,1272.3,156.9,1272.9,151.4L1272.9,151.4z"/>
		<path id="path15" class="st1" d="M1823.4,151.4c24,0,47.9,0,71.9,0c-4.1,19.5-8.2,39-12.3,58.4c-24,0-47.9,0-71.9,0
			C1815.3,190.4,1819.4,170.9,1823.4,151.4z"/>
		<path id="path17" class="st1" d="M2551.3,151.8c0.8-0.7,2-0.3,3.1-0.4c48.3,0.1,96.6,0,145,0c3.1,0,6.3-0.2,9.5,0.4
			c15,0.6,30.1,3.1,44,8.9c11.8,5.1,22.4,14.4,26.8,26.8c3.1,9.2,4.1,19.2,2.7,28.9c-0.6,7.7-2.5,15.2-4.6,22.6
			c-2.8,7.6-6.3,15.1-11.1,21.7c-3.3,5.2-8.2,8.9-12.4,13.4c-9.1,7.5-19.5,13.3-30.6,17c8.2,2.3,16.2,5.8,22.7,11.2
			c3,2.9,6.4,5.6,8.7,9.2c5.8,8.2,9.2,18.3,8.6,28.4c0.3,6.9-0.7,13.8-2.2,20.6c-3.6,14.3-9.8,28-18.6,40
			c-4.6,6.7-10.7,12.1-16.5,17.8c-10.8,9.3-23.3,16.7-36.9,21c-10.6,3.8-21.8,5.8-32.9,6.9c-4.6,0.2-9,1.1-13.6,0.8
			c-9.4,1.4-19,0.2-28.5,0.8c-6.8,1.1-13.8,0.4-20.7,0.6c-34.9,0-69.9-0.1-104.8,0C2509.6,349.5,2530.3,250.7,2551.3,151.8
			 M2611.6,212.1c-0.3,3.1-1,6.1-1.7,9.1c-3.2,15.3-6.4,30.6-9.7,45.8c19.9,0.1,39.9,0,59.8,0.1c8.9,0.3,18-0.9,26.2-4.6
			c5.8-2.5,10.9-6.8,14-12.4c2.7-5.1,5-10.8,4.7-16.7c0-3.5,0.4-7.3-1.6-10.5c-1.8-4.1-5.6-6.6-9.6-8.3c-5.5-2.1-11.5-3-17.4-2.7
			C2654.8,212.1,2633.2,211.8,2611.6,212.1 M2588.1,324.2c-0.4,4.5-1.8,8.8-2.6,13.2c-1.8,9.1-3.8,18.1-5.7,27.1
			c-1.5,7.9-3.6,15.7-4.8,23.7c21.2,0.4,42.4,0,63.6,0.2c10.8-0.7,21.9-2,31.7-7c9-5.1,14.6-14.9,16.5-24.9
			c2.5-8.8,1.4-19.8-6.2-25.8c-8.7-5.9-19.6-7.2-29.8-6.7C2629.8,324.2,2609,323.9,2588.1,324.2L2588.1,324.2z"/>
		<path id="path19" class="st1" d="M3344.8,151.4c23.6,0,47.1-0.1,70.7,0c-0.3,1.8-0.6,3.6-1,5.4c-3.5,15.9-6.7,31.8-10.1,47.7
			c-6.7,32.8-13.9,65.4-20.5,98.2c4.2-2.4,7-6.4,10.8-9.3c3.6-2.8,6.3-6.5,10.1-9.2c3.3-2.9,6.2-6.2,9.7-8.8c2.2-2,4.2-4.4,6.6-6.2
			c3.4-2.6,5.9-6,9.3-8.6c3.1-2.4,5.5-5.5,8.6-7.8c2.5-2,4.6-4.4,7-6.6c4.2-3.2,7.5-7.2,11.7-10.5c2.4-1.9,4.2-4.4,6.7-6.3
			c7.7-0.4,15.5,0,23.2-0.2c20.5-0.1,40.9,0.2,61.4-0.2v0.5c-28,25-55.9,49.9-83.9,74.9c-3.2,2.4-5.6,5.7-9.1,7.8
			c3.2,9.5,7.3,18.7,10.8,28.2c11.9,30.1,23.5,60.2,35.4,90.3c2.1,6.1,5,12,6.9,18.1c-26.7,0.1-53.3,0-80,0
			c-10.5-29-21.1-58-31.7-87c-2.7,1.8-4.9,4-7.4,6c-6.5,5.6-13.1,11.2-19.6,16.8c-1.9,1.7-4.4,3.1-5,5.7c-4.1,19.3-8,38.6-12.2,57.8
			c-23.6,0-47.1,0-70.7,0c0.3-3.3,1.1-6.5,1.7-9.7c16.9-80,33.7-160.1,50.5-240.1C3338.1,182.8,3341.1,167.1,3344.8,151.4
			L3344.8,151.4z"/>
		<path id="path21" class="st1" d="M2019.9,221.6c4.9-0.5,9.8-0.1,14.7-0.2c5,0.1,10.1-0.4,15.1,0.5c12.4,1.4,25.1,3.6,36.4,9.4
			c6.7,2.7,12.7,7.1,18.1,11.9c2.5,1.7,4.5,4.1,6.3,6.5c4.5,4.6,7.7,10.2,10.5,15.9c5.8,10.7,7.6,23,8.5,35
			c-0.2,5.3,0.4,10.6-0.5,15.8c-0.3,7.4-1.8,14.7-3.2,21.9c-2.1,8.6-4.1,17.3-7.3,25.6c-2.2,5.3-4.1,10.9-6.8,16
			c-5.2,10.3-11.5,20.1-19.1,28.7c-3.3,3.1-5.7,7.1-9.4,9.9c-2.2,1.6-4,3.6-6,5.4c-2.9,2.3-6.1,4.4-8.9,6.8
			c-21.5,15.1-47.5,23.4-73.6,24.3c-8.8,1.2-17.6,0.1-26.4-0.3c-7.3-0.9-14.5-2.1-21.6-4.1c-7.6-2.5-15.3-5-21.9-9.5
			c-13.8-8.2-24.2-21.6-29.9-36.5c-5.1-13.8-5.8-28.6-5-43.1c0.7-4,0.4-8.1,1.4-12.1c4.5-29.6,15.4-59,35.3-81.7
			c3.2-3,5.4-6.9,9-9.5c2.4-1.6,4.2-3.9,6.3-5.8c10.4-8.1,21.5-15.7,34-20.3C1989.8,226,2004.9,223.1,2019.9,221.6 M2015.6,277.3
			c-5.6,0.9-11,2.8-16,5.5c-5,2.6-8.8,6.9-12.7,10.9c-10.4,12.1-15.7,27.5-19.3,42.8c-1.7,8.6-3.5,17.4-3.1,26.3
			c-0.4,6.5,0.8,13,3.1,19.1c2.5,6.8,7.6,13,14.6,15.5c8.7,3.7,18.7,3.2,27.7,0.7c6.3-2.2,12.5-5.2,17-10.1c2.9-3,6.1-5.8,8.5-9.4
			c11-15.2,15.8-33.9,18.4-52.2c1.4-9.1,1.3-18.4-1.2-27.3c-2-7-5.7-14.1-12.3-17.7C2032.9,277,2023.9,276.3,2015.6,277.3
			L2015.6,277.3z"/>
		<path id="path23" class="st1" d="M1665.6,225.8c11.4-2.3,23.2-3,34.8-1.6c11.1,1,22.4,3.8,31.3,10.9c9.9,7.1,14.1,19.5,15.1,31.2
			c-0.1,7.2,0.8,14.4-0.4,21.6c-1.4,12.8-4.6,25.3-7.1,38c-6.2,28.9-12.1,57.8-18.3,86.7c-2.4,11.6-5,23.2-7.2,34.8
			c-0.2,1.2-1.7,0.8-2.6,1c-23.3,0-46.7,0-70,0c6.2-28.7,12-57.4,18.1-86.1c2.7-13.5,5.8-26.8,8.2-40.3c1.4-9.2,2.9-18.4,2.1-27.7
			c-0.7-4.2-1.9-9-5.7-11.4c-2.7-2-5.8-3.3-9.2-3.7c-8.4-1.7-17.3-0.4-25.2,2.7c-4.7,2.4-9.3,5.4-12.6,9.5
			c-9.5,11.2-13.3,25.8-16.7,39.7c-6.7,32.3-13.6,64.5-20.3,96.8c-1.6,6.8-2.7,13.7-4.5,20.5c-23.8,0-47.6,0.1-71.4,0
			c0.2-2.9,0.8-5.7,1.5-8.5c14-66.7,28-133.3,42.1-200c0.7-3.5,1.2-7.1,2.3-10.6c23.5,0,47.1,0.1,70.6,0c-1.9,9.3-4.1,18.6-5.8,27.9
			c4.6-3.7,8.2-8.6,13-12.2C1638.4,235.5,1651.7,229,1665.6,225.8 M1614.2,257.9C1614.6,258.3,1614.6,258.3,1614.2,257.9z"/>
		<path id="path25" class="st1" d="M2277.6,230.9c14.9-6.2,31.3-8.2,47.3-7.1c7.1,0.7,14.2,1.7,20.9,4c7.7,2.6,15.1,6.9,20.1,13.5
			c6.8,8.9,8.8,20.5,9.2,31.4c0.3,4.6-0.9,9-0.7,13.6c-1.5,14.6-5.2,28.9-8.1,43.2c-7.5,35.6-15,71.2-22.5,106.7c-0.6,4-2,8-2.4,12
			c-24,0-48,0-72,0c0-4.4,1.6-8.5,2.2-12.7c6.6-31.5,13.2-62.9,19.9-94.4c1.8-9,3.6-18.1,4.8-27.2c0.3-3.8,1.2-7.5,1-11.3
			c-0.2-3.7,0.3-7.5-0.3-11.2c-1.2-3.2-2.3-6.9-5.4-8.9c-3.2-2.4-7.3-3.3-11.1-3.9c-4.8-0.9-9.7-0.4-14.4,0.5
			c-4.7,0.5-8.9,2.6-13,4.8c-3.2,1.7-5.5,4.5-8.1,6.9c-4.4,4.3-6.9,10-9.6,15.4c-6.4,14.8-8.4,30.9-12.1,46.4
			c-5.6,27.4-11.6,54.7-17.2,82.1c-1,4.4-2,8.8-2.6,13.2c-24,0-48,0.1-72.1,0c15.2-73.1,30.7-146.1,46-219.1c23.5,0.2,47,0,70.5,0.1
			c-1.7,9.6-4.2,19-5.7,28.6C2252,246.5,2264,237,2277.6,230.9L2277.6,230.9z"/>
		<path id="path27" class="st1" d="M2885.7,228.6c11.6-3.1,23.7-4.1,35.6-5c5.9,0.1,11.9-0.1,17.9,0c2.8,0.4,5.7,0.8,8.6,0.7
			c8.7,0.7,17.3,2.4,25.8,4.8c7.7,2.5,15.1,6.3,21.5,11.4c5,4.6,9.7,10,12,16.6c3.8,9,3.8,18.9,3.3,28.4
			c-1.7,15.5-4.7,30.9-8.1,46.2c-3.8,18.5-7.8,37-11.7,55.4c-1.9,10-4.5,19.8-5.7,29.9c-0.2,3.8-0.1,7.6-0.1,11.5
			c0.3,4.1,1.5,9,5.7,10.9c-0.7,2.8-1,5.8-1.8,8.6c-0.9,0.7-2.1,0.3-3.1,0.4c-23.6,0-47.1,0-70.7,0c0.2-4.1-0.4-8.2,0.5-12.2
			c0.5-3.3,0.2-6.6,0.1-9.9c-11.7,9.7-24.9,17.6-39.2,22.9c-11,3.7-22.6,6.2-34.3,5.6c-12,0.5-24.4-1.2-35-7.1
			c-2.8-1.3-5.4-3.1-7.7-5.2c-3.6-3.6-7.5-7.1-9.7-11.7c-3.5-5.8-5.2-12.5-5.7-19.2c-1.1-4.6,0.4-9.2,0.4-13.8
			c2-15.2,7.4-30.1,16.8-42.4c2.5-3.6,6-6.4,9-9.6c3.6-4.1,8.3-7,12.9-10c11.9-7.4,25.4-11.8,39-14.5c10.8-2.3,21.7-4.2,32.6-6
			c13.8-2.5,28.3-4.2,40.7-11.4c3-1.5,4.8-4.6,5.8-7.7c0.5-3.1,1.4-6,1.7-9.1c-0.4-3.4-1.9-6.8-4.5-9.2c-1.9-2-4.7-2.6-7.1-3.6
			c-7.2-1.7-14.7-2.3-22-0.8c-8.9,1.1-17.5,4.8-23.8,11.2c-3.2,3.7-5.6,7.9-7.8,12.3c-22.1,0-44.3,0-66.4,0
			c5.1-13.6,11.9-26.8,21.7-37.6c4.9-4.8,9.6-10.1,15.4-13.9C2859.5,237.4,2872.4,231.9,2885.7,228.6 M2904,354
			c-12.4,3-25.7,4.1-36.7,11.2c-7.1,4.1-11.3,12.3-11.8,20.4c-0.6,5-0.1,10.7,3.2,14.7c3.1,4.3,8.2,6.6,13.3,7.3
			c9.8,0.9,19.9-1.1,28.7-5.4c5.9-3.6,12.1-7.4,16-13.3c4.5-5.5,7.3-12.2,8.8-19.1c1.7-8.1,3.5-16.1,5-24.2
			C2922.2,349.6,2913.1,352,2904,354L2904,354z"/>
		<path id="path29" class="st1" d="M3185.4,226.2c17.8-4,36.8-3.7,54.3,1.7c6,2.2,12,5.2,16.4,10c6.3,5.8,9.8,14,11.2,22.4
			c2.6,15.1,0.4,30.4-2.5,45.2c-10.1,47.6-20,95.2-30,142.8c-24,0-48.1,0.1-72.1,0c3.1-16.8,7-33.5,10.4-50.3
			c3.7-17.1,7.2-34.2,10.9-51.3c2.9-14.7,6.4-29.4,7-44.4c0.7-2.7,0.3-5.5-0.2-8.2c-0.2-3.5-1.3-7.2-3.8-9.8c-2.6-2.8-6.3-4.3-10-5
			c-8.2-2-16.9-0.7-24.7,2.1c-7.2,2.9-13.4,8-17.5,14.6c-7.4,11.1-10.8,24.3-13.6,37.1c-8,38.4-16.3,76.8-24.1,115.2
			c-24,0-47.9,0-71.9,0c14-66.4,27.9-132.9,41.9-199.3c1.2-6.6,3.1-13.1,3.9-19.7c23.5,0,47,0,70.6,0c-0.2,4.7-1.8,9.2-2.6,13.8
			c-0.9,5-2.2,9.9-3.1,14.8c2.9-2.1,4.4-5.6,7.3-7.7c1.9-1.4,3.7-3,5.3-4.7C3158.8,236.2,3171.6,229.3,3185.4,226.2z"/>
		<path id="path31" class="st1" d="M1806.9,229.3c24,0,48.1,0,72.1,0c-14.4,67.6-28.4,135.3-42.7,202.9c-0.9,5.4-2.6,10.7-3.2,16.2
			c-24,0-48,0.1-72,0c12.8-61.4,25.8-122.7,38.7-184.1C1802.1,252.6,1804.8,241,1806.9,229.3L1806.9,229.3z"/>
		<path id="path33" class="st1" d="M2968.4,518.2c2.4-0.6,4.8-0.6,7.2,0c3.6,0.1,7.1,0.6,10.7,1c-0.8,7-2.7,13.8-4,20.7
			c-4.4-0.2-8.7-0.6-13.1-0.1c-2.4,0.5-5,1.5-6.3,3.7c-3.2,5.3-3.4,11.8-5.1,17.6c6.6,0.1,13.3,0,19.9,0c-1.2,6.2-2.5,12.3-3.8,18.4
			c-6.6,0.1-13.2-0.1-19.7,0.1c-4,17-7.2,34.2-10.9,51.2c-3.1,14.8-6.2,29.6-9.3,44.3c-8.2,0.1-16.4-0.1-24.6,0.1
			c6-27.8,11.7-55.7,17.6-83.6c0.5-4,2-7.9,2.2-12c-5.7-0.3-11.4-0.1-17.1-0.2c1.1-6.2,2.9-12.2,3.7-18.5c5.8,0,11.7,0.2,17.5-0.1
			c2.3-8.5,3.2-17.3,6.8-25.4c2.4-4.5,5.6-8.6,9.7-11.7C2955.3,520.2,2961.8,518.4,2968.4,518.2L2968.4,518.2z"/>
		<path id="path35" class="st1" d="M3062.9,519.8c8.8,0,17.5-0.1,26.3,0c-0.6,6.7-2.7,13.1-3.8,19.7c-9.5,45.2-19.1,90.5-28.5,135.7
			c-8.8,0-17.5,0.1-26.3,0c0.1-3.3,0.9-6.4,1.7-9.6C3042.4,617.1,3052.9,568.5,3062.9,519.8z"/>
		<path id="path37" class="st1" d="M3322.8,519.8c8.1,0,16.1-0.1,24.2,0c-10.4,50-21,99.9-31.5,149.8c-0.7,1.8-0.3,4.2-1.7,5.6
			c-7.8,0.2-15.6,0-23.3,0.1c1.2-4.5,2-9,2.9-13.5c-5.3,4.3-10.5,8.9-16.7,11.9c-6.9,3.8-14.8,5.4-22.6,5.2
			c-10.3,0.3-20.8-3.8-27.6-11.6c-2.9-3.7-5.2-7.9-7.1-12.2c-1.9-5.2-2.4-10.7-3-16.1c-0.4-4.1,0.7-8.1,0.8-12.1
			c1.8-13.4,6-26.6,13-38.3c2.5-4.2,5.6-8.1,9.1-11.6c1.5-2.5,4.1-4,6.2-6c12.3-11.4,30.4-16,46.7-12.1c5.3,1.7,10.6,4.2,14.4,8.5
			c1.9,2.1,3.5,4.5,5.3,6.8c3.4-17.3,7.2-34.5,10.8-51.7C3322.5,521.6,3322.6,520.7,3322.8,519.8 M3274.3,580
			c-7.9,1.8-15,6.5-19.9,13c-3.8,5.1-6.7,10.9-8.6,17c-2.5,8.2-4.4,16.8-3.9,25.4c0.8,6.1,2.6,12.6,7.3,17c3.7,2.5,8,4.6,12.6,4.5
			c3.8-0.1,7.7,0.4,11.5-0.7c6.6-1.8,12.8-5.4,17.2-10.6c9.3-11.7,13.1-26.8,14.1-41.5c-0.3-5.6-0.8-11.8-4.2-16.5
			c-3.8-5.5-10.7-8.1-17.2-7.9C3280.3,579.8,3277.3,579.4,3274.3,580z"/>
		<path id="path39" class="st1" d="M3374.9,519.8c8.3,0,16.6-0.1,24.9,0c-1.5,8.3-3.1,16.6-5.2,24.8c-8.2,0-16.5-0.1-24.7,0.1
			C3371.4,536.4,3373.7,528.2,3374.9,519.8L3374.9,519.8z"/>
		<path id="path41" class="st1" d="M2838.8,555.1c9.4-0.5,18.9-0.6,28,2.1c13.9,3.9,25.6,14.5,30.5,28.1c4.9,14.2,3.6,29.7,0,44.1
			c-2.4,9.2-6.9,17.7-12.6,25.2c-3.4,4-6.7,8.1-10.9,11.2c-12.7,10.7-29.6,15.3-45.9,14.7c-7.9-0.3-15.9-1.4-23.2-4.6
			c-3.2-1.1-6.1-2.7-8.7-4.9c-11.7-7.9-18.1-22.2-18.2-36.1c-0.6-2.9-0.7-5.7,0.1-8.6c-0.1-14.9,4.4-29.8,12.8-42.1
			c8.2-12.2,20.6-21.6,34.6-26.1C2829.7,556.8,2834.2,555.5,2838.8,555.1 M2840.9,572.9c-5.1,0.8-10.3,1.8-14.7,4.5
			c-4.1,2.4-8.1,5.2-10.8,9.2c-6.3,7.7-10.2,17.1-12.6,26.7c-1.4,5.8-2.6,11.8-2.2,17.9c-0.4,8.6,1.9,17.8,8.1,24.1
			c2.6,2,5.4,4,8.5,5c15.4,5.8,33.8,0.8,44.6-11.5c3.8-4.9,7.7-10,9.8-15.9c3.4-7.8,4.5-16.2,5.4-24.6c0.4-7.9-0.1-16.1-4.1-23.1
			c-4.3-7-12.2-11.2-20.2-11.9C2848.9,572.6,2844.9,572.2,2840.9,572.9z"/>
		<path id="path43" class="st1" d="M3456.4,557.9c10.3-0.6,20.9-0.6,30.8,2.8c5.3,2,10.7,4.9,13.6,10c1.9,3.1,3.3,6.7,3.1,10.4
			c0.6,9.5-2.7,18.6-4.3,27.8c-2.7,12.8-5.3,25.5-8.1,38.3c-0.6,3.1-1.1,6.4-0.3,9.5c3.1,1.2,6.5,0.6,9.8,0.9
			c-1.4,6-2.6,12.1-3.9,18.1c-7.5,1.9-15.6,2.6-23.1,0.3c-2.9-1.1-5.8-2.8-7.2-5.7c-2-2.7-1.4-6.2-1.5-9.4
			c-11.2,11.5-27.2,18.9-43.5,17.9c-7.9-0.4-16.5-2.5-22-8.6c-2.9-2.9-4.7-6.9-5.6-10.8c-0.6-7.1-0.4-14.6,2.5-21.3
			c2.3-7.5,7.1-14.1,13.4-18.8c6-4.4,13.1-7,20.3-9c7-1.6,14.1-3.1,21.3-3.8c7.9-1.4,16.3-2.1,23-6.9c4-2.5,5.1-7.8,4.4-12.2
			c-0.4-3.8-3.5-6.9-7.2-7.9c-5.8-2.1-12-1.2-18-1.3c-5.6,0.8-11.3,2.7-15.5,6.7c-2.9,3.3-4.9,7.4-5.4,11.8c-7.8,0-15.7,0.1-23.5,0
			c0.4-3.5,1.4-6.9,2.8-10.1c1.9-4.1,3.8-8.3,7.1-11.4C3428.7,564.6,3442.6,559,3456.4,557.9 M3458.7,623c-9,2.1-18.5,2.2-27.3,5.6
			c-4.4,1.8-8.6,5.1-10.3,9.7c-2,4.7-3.5,10.8-0.3,15.3c1.3,2.4,4,3.4,6.3,4.4c7.4,2,15.3,0.5,22.5-1.9c8.6-3.5,16.1-10.2,19.6-19
			c1.8-5.9,3-12,4.1-18.1C3468.4,620.4,3463.7,622.3,3458.7,623z"/>
		<path id="path45" class="st1" d="M3147.7,564c7.8-4.3,16.9-6,25.7-5.6c7.1,0.7,14.7,1.4,20.8,5.5c2.6,2.4,5.6,4.8,6.7,8.2
			c1.3,2.9,1.7,6.1,2.1,9.3c0.8,4.2-0.6,8.3-0.6,12.5c-1.2,8.4-3.3,16.7-4.9,25c-3.9,18.5-7.9,37-11.6,55.5
			c-0.2,1.2-1.8,0.8-2.6,0.9c-7.4-0.1-14.8,0.2-22.2-0.1c1.4-8.8,3.6-17.4,5.2-26.1c1.7-7.6,3.1-15.3,4.9-23
			c1.9-10.1,4.5-20.1,6.1-30.4c0.9-6.1-2.2-13.3-8.6-15.1c-7.3-2.1-15.3-1.3-22.3,1.4c-6.7,2.8-12.4,7.8-15.9,14.1
			c-3.9,6.7-5.1,14.5-6.6,22c-4.2,19-7.9,38.1-12.2,57.1c-8.2,0.1-16.5-0.1-24.7,0.1c6.8-31.6,13.2-63.2,20-94.8
			c1.3-6.5,2.6-13,4.2-19.4c7.8,0,15.7,0,23.5,0c-0.3,4.8-1.9,9.5-2.7,14.2C3136.8,571,3141.8,566.9,3147.7,564L3147.7,564z"/>
		<path id="path47" class="st1" d="M3366.3,561.3c8.3,0,16.6,0,24.9,0c-7.7,38.1-16.1,76-23.8,114.1c-8.3,0.1-16.6,0.1-24.9,0
			C3350.2,637.3,3358.6,599.3,3366.3,561.3L3366.3,561.3z"/>
	</g>
</g>
</svg>
