<?xml version="1.0" encoding="UTF-8"?>
<svg id="Layer_2" data-name="Layer 2" xmlns="http://www.w3.org/2000/svg" viewBox="0 0 38.93 29.8">
  <defs>
    <style>
      .cls-1 {
        fill: #a7a9ac;
      }

      .cls-2 {
        fill: none;
        stroke: #a7a9ac;
        stroke-miterlimit: 10;
      }
    </style>
  </defs>
  <g id="Layer_1-2" data-name="Layer 1">
    <g>
      <path class="cls-1" d="M5.79,2c.09-.01,.16-.08,.17-.17,.08-.48,.58-.87,1.1-.87s1,.38,1.08,.87c.02,.09,.09,.15,.17,.17h0s.02,0,.02,0c.1,0,.19-.07,.2-.18,0-.03,0-.05,0-.07-.06-.33-.24-.63-.52-.84-.22-.18-.49-.29-.76-.33v-.24c-.01-.11-.1-.2-.21-.2-.11,0-.2,.1-.2,.21v.23c-.63,.09-1.17,.57-1.28,1.17,0,.02,0,.05,0,.08,.01,.11,.11,.19,.22,.18Zm27.78,20.04c.06,0,.12-.03,.16-.08,.04,.05,.09,.08,.16,.08s.12-.03,.16-.08c.04,.05,.09,.08,.16,.08,.11,0,.2-.09,.2-.2v-.37c0-.08-.04-.14-.1-.18,0,0,0,0,0,0v-3.32c0-.05-.02-.1-.06-.14-.03-.03-.08-.05-.12-.06-.04-.94-.68-1.76-1.63-2.09,.5,0,1.01,0,1.45,0h0s.03,0,.05,0v.67c0,.11,.09,.2,.2,.2h1.73c.11,0,.2-.09,.2-.2v-.86c0-.11-.09-.2-.2-.2h-.17s.06-.08,.06-.14v-.89c0-.06-.02-.11-.06-.14v-.07c0-.13-.08-.23-.21-.28-.07-.16-.26-.26-.49-.26s-.42,.11-.49,.26c-.12,.05-.21,.16-.21,.28v.07s-.06,.09-.06,.14v.89c0,.05,.02,.1,.06,.14h-.17s-.09,.02-.12,.04c-.03-.03-.08-.04-.12-.04-.12,0-.58,0-1.13,0,.03-.04,.05-.08,.05-.13v-.89c0-.06-.02-.1-.06-.14v-.07c0-.13-.08-.23-.21-.28-.07-.16-.26-.26-.49-.26s-.42,.11-.49,.26c-.12,.05-.21,.16-.21,.28v.07s-.06,.09-.06,.14v.89c0,.05,.02,.1,.05,.13-.59,0-1.06,0-1.13,0-.04,0-.08,.02-.11,.04-.03-.03-.08-.04-.13-.04h-.17s.06-.08,.06-.14v-.89c0-.06-.02-.1-.06-.14v-.07c0-.13-.08-.23-.21-.28-.07-.16-.26-.26-.49-.26s-.42,.11-.49,.26c-.12,.05-.21,.16-.21,.28v.07s-.06,.09-.06,.14v.89c0,.05,.02,.1,.06,.14h-.17c-.11,0-.2,.09-.2,.2v.86c0,.11,.09,.2,.2,.2h1.73c.11,0,.2-.09,.2-.2v-.67s.03,0,.05,0c0,0,0,0,.01,0,.07,0,.68,0,1.44,0-.94,.34-1.59,1.15-1.63,2.09-.1,0-.18,.1-.18,.2v3.32s0,0,0,0c-.06,.03-.1,.1-.1,.18v.37c0,.11,.09,.2,.2,.2,.06,0,.12-.03,.16-.08,.04,.05,.09,.08,.16,.08s.12-.03,.16-.08c.04,.05,.09,.08,.16,.08,.11,0,.2-.09,.2-.2v-.36h.74v.36c0,.11,.09,.2,.2,.2,.06,0,.12-.03,.16-.08,.04,.05,.09,.08,.16,.08s.12-.03,.16-.08c.04,.05,.09,.08,.16,.08,.11,0,.2-.09,.2-.2v-.36h.74v.36c0,.11,.09,.2,.2,.2Zm1.19-7.81v-.13c.1-.01,.18-.1,.18-.2h0s.06-.03,.11-.03,.09,.01,.11,.03h0c0,.11,.08,.19,.18,.2v.13s0,.03,0,.05c0,0-.01,0-.02,0h-.55s-.01,0-.02,0c0-.01,0-.03,0-.05Zm.37,.45v.13h-.15v-.13h.15Zm-.44,.51s.06,.02,.09,.02h.55s.06,0,.09-.02c0,.03,.02,.05,.04,.07h-.81s.03-.04,.04-.07Zm-.3,.47h1.33v.46h-1.33v-.46Zm-5.51-1.43v-.13c.1-.01,.18-.1,.18-.2h0s.06-.03,.11-.03,.09,.01,.11,.03h0c0,.11,.08,.19,.18,.2v.13s0,.03,0,.05c0,0-.01,0-.02,0h-.55s-.01,0-.02,0c0-.01,0-.03,0-.05Zm.37,.45v.13h-.15v-.13h.15Zm-.44,.51s.06,.02,.09,.02h.55s.06,0,.09-.02c0,.03,.02,.05,.04,.07h-.81s.03-.04,.04-.07Zm1.03,.93h-1.33v-.46h1.33v.46Zm3.78,4.95h-.03s0,0,0-.01v-.17s0-.03,0-.04c.02,0,.03-.02,.04-.03,0,.02-.01,.04-.01,.07v.17s0,0,0,.01Zm-1.8-6.85v-.13c.1-.01,.18-.1,.18-.2h0s.06-.03,.11-.03,.09,.01,.11,.03h0c0,.11,.08,.19,.18,.2v.13s0,.03,0,.05c0,0-.01,0-.02,0h-.55s-.01,0-.02,0c0-.01,0-.03,0-.05Zm.37,.45v.13h-.15v-.13h.15Zm-.48,.58s.03-.04,.04-.07c.03,.01,.06,.02,.09,.02h.55s.06,0,.09-.02c0,.02,.02,.05,.04,.07-.26,0-.54,0-.8,0Zm-1.08,5.82h-.03s0,0,0-.01v-.17s0-.05-.01-.07c.01,.01,.03,.02,.04,.03,0,.01,0,.02,0,.04v.17s0,0,0,.01Zm.43,0h-.03s0,0,0-.01v-.17c0-.07-.04-.14-.1-.17,0-.01,0-.02,0-.04v-1.7s.01,0,.02,0v1.67c0,.08,.05,.15,.12,.18,0,.02-.01,.05-.01,.07v.17s0,0,0,.01Zm.02-2.64v-.13s.08-.06,.19-.07c-.09,.05-.16,.11-.19,.2Zm1.69,2.45v.17s0,0,0,.01h-.03s0,0,0-.01v-.17c0-.11-.09-.2-.2-.2s-.2,.09-.2,.2v.17s0,0,0,.01h-.03s0,0,0-.01v-.17c0-.11-.09-.2-.2-.2s-.2,.09-.2,.2v.17s0,0,0,.01h-.03s0,0,0-.01v-.17c0-.11-.09-.2-.2-.2s-.2,.09-.2,.2v.17s0,0,0,.01h-.03s0,0,0-.01v-.17c0-.08-.05-.15-.12-.18,0-.02,.01-.05,.01-.07v-1.57c.06-.03,.1-.1,.1-.17v-.29s.06-.02,.11-.02c.11,0,.2-.09,.2-.2v-.05s.14-.11,.35-.11,.33,.08,.35,.11v.05c0,.11,.09,.2,.2,.2,.05,0,.09,.01,.11,.02v.29c0,.07,.04,.14,.1,.17v1.57s0,.05,.01,.07c-.07,.03-.12,.1-.12,.18Zm-.65-3.18c.36,0,.59,.16,.59,.25v.04c-.13-.12-.34-.19-.59-.19s-.45,.07-.59,.19v-.04c0-.09,.22-.25,.59-.25Zm-.04-.71s.01-.02,.04-.02,.04,.02,.04,.02-.01,.02-.04,.02-.04-.02-.04-.02Zm1.08,1.44c-.03-.08-.1-.15-.19-.2,.11,.01,.18,.05,.19,.07v.13Zm.05,2.45v.17s0,0,0,.01h-.03s0,0,0-.01v-.17s0-.05-.01-.07c.07-.03,.12-.1,.12-.18v-1.67s.01,0,.02,0v1.7s0,.03,0,.04c-.06,.03-.1,.1-.1,.17Zm-.1-3.03c-.06-.26-.33-.46-.7-.52,.1-.08,.17-.2,.17-.33,0-.23-.2-.42-.44-.42s-.44,.19-.44,.42c0,.14,.07,.26,.17,.33-.37,.07-.65,.26-.71,.52-.27,.06-.46,.23-.46,.44v.29c-.08,.02-.15,.1-.15,.19v1.9s0,.05,.01,.07c-.04-.04-.09-.06-.14-.06-.02,0-.05,0-.07,.01v-2.55c.1-.01,.18-.1,.18-.2v-.11c0-.88,.66-1.65,1.6-1.88,.94,.23,1.6,1,1.6,1.88v.11c0,.1,.08,.19,.18,.2v2.55s-.05-.01-.07-.01c-.05,0-.1,.02-.14,.06,0-.02,.01-.04,.01-.07v-1.9c0-.09-.06-.17-.15-.19v-.29c0-.21-.18-.39-.46-.44Zm-18.36,3.43s0,0,0,0v-3.32c0-.1-.08-.19-.18-.2-.04-.94-.69-1.76-1.63-2.09,.76,0,1.37,0,1.44,0,0,0,0,0,.01,0,.02,0,.03,0,.05,0v.67c0,.11,.09,.2,.2,.2h1.73c.11,0,.2-.09,.2-.2v-.86c0-.11-.09-.2-.2-.2h-.17s.06-.08,.06-.14v-.89c0-.06-.02-.1-.06-.14v-.07c0-.13-.08-.23-.21-.28-.07-.16-.26-.26-.49-.26s-.42,.11-.49,.26c-.12,.05-.21,.16-.21,.28v.07s-.06,.09-.06,.14v.89c0,.05,.02,.1,.06,.14h-.17s-.09,.02-.13,.04c-.03-.02-.07-.04-.11-.04-.07,0-.55,0-1.13,0,.03-.04,.05-.08,.05-.13v-.89c0-.06-.02-.1-.06-.14v-.07c0-.13-.08-.23-.21-.28-.07-.16-.26-.26-.49-.26s-.42,.11-.49,.26c-.12,.05-.21,.16-.21,.28v.07s-.06,.09-.06,.14v.89c0,.05,.02,.1,.05,.13-.55,0-1,0-1.13,0-.05,0-.09,.02-.12,.04-.03-.03-.08-.04-.12-.04h-.17s.06-.08,.06-.14v-.89c0-.06-.02-.11-.06-.14v-.07c0-.13-.08-.23-.21-.28-.07-.16-.26-.26-.49-.26s-.42,.11-.49,.26c-.12,.05-.21,.16-.21,.28v.07s-.06,.09-.06,.14v.89c0,.05,.02,.1,.06,.14h-.17c-.11,0-.2,.09-.2,.2v.86c0,.11,.09,.2,.2,.2h1.73c.11,0,.2-.09,.2-.2v-.67s.03,0,.05,0h0c.44,0,.95,0,1.45,0-.94,.34-1.59,1.15-1.63,2.09-.1,0-.18,.1-.18,.2v3.32s0,0,0,0c-.06,.03-.1,.1-.1,.18v.37c0,.11,.09,.2,.2,.2,.06,0,.12-.03,.16-.08,.04,.05,.09,.08,.16,.08s.12-.03,.16-.08c.04,.05,.09,.08,.16,.08,.11,0,.2-.09,.2-.2v-.36h.74v.36c0,.11,.09,.2,.2,.2,.06,0,.12-.03,.16-.08,.04,.05,.09,.08,.16,.08s.12-.03,.16-.08c.04,.05,.09,.08,.16,.08,.11,0,.2-.09,.2-.2v-.36h.74v.36c0,.11,.09,.2,.2,.2,.06,0,.12-.03,.16-.08,.04,.05,.09,.08,.16,.08s.12-.03,.16-.08c.04,.05,.09,.08,.16,.08,.11,0,.2-.09,.2-.2v-.37c0-.08-.04-.14-.1-.18Zm.46-7.06v-.13c.1-.01,.18-.1,.18-.2h0s.06-.03,.11-.03,.09,.01,.11,.03h0c0,.11,.08,.19,.18,.2v.13s0,.03,0,.05c0,0-.01,0-.02,0h-.55s-.01,0-.02,0c0-.01,0-.03,0-.05Zm.37,.45v.13h-.15v-.13h.15Zm-.44,.51s.06,.02,.09,.02h.55s.06,0,.09-.02c0,.03,.02,.05,.04,.07h-.81s.03-.04,.04-.07Zm-.3,.47h1.33v.46h-1.33v-.46Zm-5.51-1.43v-.13c.1-.01,.18-.1,.18-.2h0s.06-.03,.11-.03,.09,.01,.11,.03h0c0,.11,.08,.19,.18,.2v.13s0,.03,0,.05c0,0-.01,0-.02,0h-.55s-.01,0-.02,0c0-.01,0-.03,0-.05Zm.37,.45v.13h-.15v-.13h.15Zm-.44,.51s.06,.02,.09,.02h.55s.06,0,.09-.02c0,.03,.02,.05,.04,.07h-.81s.03-.04,.04-.07Zm1.03,.93h-1.33v-.46h1.33v.46Zm1.98-1.89v-.13c.1-.01,.18-.1,.18-.2h0s.06-.03,.11-.03,.09,.01,.11,.03h0c0,.11,.08,.19,.18,.2v.13s0,.03,0,.05c0,0-.01,0-.02,0h-.55s-.01,0-.02,0c0-.01,0-.03,0-.05Zm.37,.45v.13h-.15v-.13h.15Zm-.48,.58s.03-.04,.04-.07c.03,.01,.06,.02,.09,.02h.55s.06,0,.09-.02c0,.02,.02,.05,.04,.07-.26,0-.54,0-.8,0Zm-1.08,5.82h-.03s0,0,0-.01v-.17s0-.05-.01-.07c.01,.01,.03,.02,.04,.03,0,.01,0,.02,0,.04v.17s0,0,0,.01Zm.43,0h-.03s0,0,0-.01v-.17c0-.07-.04-.14-.1-.17,0-.01,0-.02,0-.04v-1.7s.01,0,.02,0v1.67c0,.08,.05,.15,.12,.18,0,.02-.01,.05-.01,.07v.17s0,0,0,.01Zm.02-2.64v-.13s.08-.06,.19-.07c-.09,.05-.16,.11-.19,.2Zm1.69,2.45v.17s0,0,0,.01h-.03s0,0,0-.01v-.17c0-.11-.09-.2-.2-.2s-.2,.09-.2,.2v.17s0,0,0,.01h-.03s0,0,0-.01v-.17c0-.11-.09-.2-.2-.2s-.2,.09-.2,.2v.17s0,0,0,.01h-.03s0,0,0-.01v-.17c0-.11-.09-.2-.2-.2s-.2,.09-.2,.2v.17s0,0,0,.01h-.03s0,0,0-.01v-.17c0-.08-.05-.15-.12-.18,0-.02,.01-.05,.01-.07v-1.57c.06-.03,.1-.1,.1-.17v-.29s.06-.02,.11-.02c.11,0,.2-.09,.2-.2v-.05s.14-.11,.35-.11,.33,.08,.35,.11v.05c0,.11,.09,.2,.2,.2,.05,0,.09,.01,.11,.02v.29c0,.07,.04,.14,.1,.17v1.57s0,.05,.01,.07c-.07,.03-.12,.1-.12,.18Zm-.65-3.18c.36,0,.59,.16,.59,.25v.04c-.13-.12-.34-.19-.59-.19s-.45,.07-.59,.19v-.04c0-.09,.22-.25,.59-.25Zm-.04-.71s.01-.02,.04-.02,.04,.02,.04,.02-.01,.02-.04,.02-.04-.02-.04-.02Zm1.08,1.44c-.03-.08-.1-.15-.19-.2,.11,.01,.18,.05,.19,.07v.13Zm.05,2.45v.17s0,0,0,.01h-.03s0,0,0-.01v-.17s0-.05-.01-.07c.07-.03,.12-.1,.12-.18v-1.67s.01,0,.02,0v1.7s0,.03,0,.04c-.06,.03-.1,.1-.1,.17Zm.43,.19h-.03s0,0,0-.01v-.17s0-.03,0-.04c.01,0,.03-.02,.04-.03,0,.02-.01,.04-.01,.07v.17s0,0,0,.01Zm.27-.38s-.05-.01-.07-.01c-.05,0-.1,.02-.14,.06,0-.02,.01-.04,.01-.07v-1.9c0-.09-.06-.17-.15-.19v-.29c0-.21-.18-.39-.46-.44-.06-.26-.33-.46-.71-.52,.1-.08,.17-.2,.17-.33,0-.23-.2-.42-.44-.42s-.44,.19-.44,.42c0,.14,.07,.26,.17,.33-.37,.07-.65,.26-.7,.52-.27,.06-.46,.23-.46,.44v.29c-.08,.02-.15,.1-.15,.19v1.9s0,.05,.01,.07c-.04-.04-.09-.06-.14-.06-.02,0-.05,0-.07,.01v-2.55c.1-.01,.18-.1,.18-.2v-.11c0-.88,.66-1.65,1.6-1.88,.94,.23,1.6,1,1.6,1.88v.11c0,.1,.08,.19,.18,.2v2.55Zm20.76,5.66v-.24c0-.16-.08-.29-.21-.36-.04-.27-.28-.48-.56-.48s-.51,.21-.56,.48c-.13,.07-.21,.21-.21,.36v.24s-.07,.09-.07,.15v2.15c0,.11,.09,.2,.2,.2s.2-.09,.2-.2v-2s.07-.09,.07-.15v-.39s0-.01,.01-.01c.11,0,.19-.09,.19-.2v-.06c0-.09,.07-.16,.16-.16s.16,.07,.16,.16v.06c0,.11,.09,.2,.19,.2,0,0,.01,0,.01,.01v.39c0,.06,.03,.11,.07,.15v2c0,.11,.09,.2,.2,.2s.2-.09,.2-.2v-2.15c0-.06-.03-.11-.07-.15Zm-23.97,0v-.24c0-.16-.08-.29-.21-.36-.04-.27-.28-.48-.56-.48s-.51,.21-.56,.48c-.13,.07-.21,.21-.21,.36v.24s-.07,.09-.07,.15v2.15c0,.11,.09,.2,.2,.2s.2-.09,.2-.2v-2s.07-.09,.07-.15v-.39s0-.01,.01-.01c.11,0,.19-.09,.19-.2v-.06c0-.09,.07-.16,.16-.16s.16,.07,.16,.16v.06c0,.11,.09,.2,.19,.2,0,0,.01,0,.01,.01v.39c0,.06,.03,.11,.07,.15v2c0,.11,.09,.2,.2,.2s.2-.09,.2-.2v-2.15c0-.06-.03-.11-.07-.15Zm-3.34-1.48c0-.13-.09-.24-.22-.29-.07-.15-.27-.26-.51-.26s-.44,.1-.51,.26c-.14,.05-.22,.16-.22,.29v.06s-.06,.09-.06,.15v3.33c0,.11,.09,.2,.2,.2s.2-.09,.2-.2v-3.19s.06-.09,.06-.15v-.12c.11,0,.19-.09,.19-.2,.02-.01,.07-.03,.14-.03s.12,.02,.14,.03c0,.11,.09,.19,.19,.2v.12c0,.06,.02,.11,.06,.15v3.19c0,.11,.09,.2,.2,.2s.2-.09,.2-.2v-3.33c0-.06-.02-.11-.06-.15v-.06ZM6.49,2.82c-.11,0-.2,.09-.2,.2v1.58c0,.11,.09,.2,.2,.2s.2-.09,.2-.2v-1.58c0-.11-.09-.2-.2-.2ZM25.44,25.5v-.37c0-.2-.12-.37-.29-.45-.04-.35-.33-.63-.7-.63s-.66,.28-.7,.63c-.17,.08-.29,.25-.29,.45v.37s-.07,.06-.08,.11c-.01-.05-.04-.08-.08-.11v-.37c0-.2-.12-.37-.29-.45-.04-.35-.33-.63-.7-.63s-.66,.28-.7,.63c-.17,.08-.29,.25-.29,.45v.37s-.07,.06-.08,.11c-.01-.05-.04-.08-.08-.11v-.37c0-.2-.12-.37-.29-.45-.04-.35-.33-.63-.7-.63s-.66,.28-.7,.63c-.17,.08-.29,.25-.29,.45v.37c-.06,.04-.09,.1-.09,.17v2.96c0,.11,.09,.2,.2,.2s.2-.09,.2-.2v-2.8c.06-.04,.09-.1,.09-.17v-.54s.04-.09,.09-.09c.11,0,.19-.09,.19-.2v-.08c0-.16,.13-.3,.3-.3s.3,.13,.3,.3v.08c0,.11,.09,.2,.19,.2,.05,0,.09,.04,.09,.09v.54c0,.07,.04,.13,.09,.17v2.8c0,.11,.09,.2,.2,.2,.09,0,.17-.06,.19-.14,.03,.08,.1,.14,.19,.14s.16-.06,.19-.13c.03,.08,.1,.13,.19,.13,.11,0,.2-.09,.2-.2v-2.14h.58v2.14c0,.11,.09,.2,.2,.2,.09,0,.16-.06,.19-.13,.03,.08,.1,.13,.19,.13s.17-.06,.19-.14c.03,.08,.1,.14,.19,.14,.11,0,.2-.09,.2-.2v-2.8c.06-.04,.09-.1,.09-.17v-.54s.04-.09,.09-.09c.11,0,.19-.09,.19-.2v-.08c0-.16,.13-.3,.3-.3s.3,.13,.3,.3v.08c0,.11,.09,.2,.19,.2,.05,0,.09,.04,.09,.09v.54c0,.07,.04,.13,.09,.17v2.8c0,.11,.09,.2,.2,.2s.2-.09,.2-.2v-2.96c0-.07-.04-.13-.09-.17Zm-2.44,.7c-.03-.06-.1-.11-.18-.11h-.99c-.08,0-.14,.04-.18,.11v-.36c.06-.04,.09-.1,.09-.17v-.54s.04-.09,.09-.09c.11,0,.19-.09,.19-.2v-.08c0-.16,.13-.3,.3-.3s.3,.13,.3,.3v.08c0,.11,.09,.2,.19,.2,.05,0,.09,.04,.09,.09v.54c0,.07,.04,.13,.09,.17v.36Zm-7.48,.16v-.24c0-.16-.08-.29-.21-.36-.04-.27-.28-.48-.56-.48s-.51,.21-.56,.48c-.13,.07-.21,.21-.21,.36v.24s-.07,.09-.07,.15v2.15c0,.11,.09,.2,.2,.2s.2-.09,.2-.2v-2s.07-.09,.07-.15v-.39s0-.01,.01-.01c.11,0,.19-.09,.19-.2v-.06c0-.09,.07-.16,.16-.16s.16,.07,.16,.16v.06c0,.11,.09,.2,.19,.2,0,0,.01,0,.01,.01v.39c0,.06,.03,.11,.07,.15v2c0,.11,.09,.2,.2,.2s.2-.09,.2-.2v-2.15c0-.06-.03-.11-.07-.15Zm15.16,0v-.24c0-.16-.08-.29-.21-.36-.04-.27-.28-.48-.56-.48s-.51,.21-.56,.48c-.13,.07-.21,.21-.21,.36v.24s-.07,.09-.07,.15v2.15c0,.11,.09,.2,.2,.2s.2-.09,.2-.2v-2s.07-.09,.07-.15v-.39s0-.01,.01-.01c.11,0,.19-.09,.19-.2v-.06c0-.09,.07-.16,.16-.16s.16,.07,.16,.16v.06c0,.11,.09,.2,.19,.2,0,0,.01,0,.01,.01v.39c0,.06,.03,.11,.07,.15v2c0,.11,.09,.2,.2,.2s.2-.09,.2-.2v-2.15c0-.06-.03-.11-.07-.15Zm-17.68-.03h-.9c-.11,0-.2,.09-.2,.2v2.13c0,.11,.09,.2,.2,.2s.2-.09,.2-.2v-1.93h.5v1.93c0,.11,.09,.2,.2,.2s.2-.09,.2-.2v-2.13c0-.11-.09-.2-.2-.2Zm.78-.55v-.31c0-.21-.16-.37-.38-.44-.06-.32-.41-.56-.85-.56s-.79,.24-.85,.56c-.23,.07-.38,.23-.38,.44v.31c-.07,.03-.12,.1-.12,.18v2.7c0,.11,.09,.2,.2,.2s.2-.09,.2-.2v-2.52c.07-.03,.12-.1,.12-.18v-.49s.07-.07,.18-.07c.11,0,.2-.09,.2-.2v-.08c0-.12,.2-.25,.46-.25s.46,.13,.46,.25v.08c0,.11,.09,.2,.2,.2,.11,0,.17,.05,.18,.07v.49c0,.08,.05,.15,.12,.18v2.52c0,.11,.09,.2,.2,.2s.2-.09,.2-.2v-2.7c0-.08-.05-.15-.12-.18Zm-7.83-.89c0-.13-.09-.24-.22-.29-.07-.15-.27-.26-.51-.26s-.44,.1-.51,.26c-.14,.05-.22,.16-.22,.29v.06s-.06,.09-.06,.15v3.33c0,.11,.09,.2,.2,.2s.2-.09,.2-.2v-3.19s.06-.09,.06-.15v-.12c.11,0,.19-.09,.19-.2,.02-.01,.07-.03,.14-.03s.12,.02,.14,.03c0,.11,.09,.19,.19,.2v.12c0,.06,.02,.11,.06,.15v3.19c0,.11,.09,.2,.2,.2s.2-.09,.2-.2v-3.33c0-.06-.02-.11-.06-.15v-.06Zm4.13-15.44c.11,0,.2-.09,.2-.2v-1.27c0-.07-.03-.13-.08-.16v-.14c0-.15-.11-.28-.27-.34-.07-.21-.32-.36-.63-.36s-.56,.15-.63,.36c-.16,.06-.27,.18-.27,.34v.14c-.05,.04-.08,.1-.08,.16v1.27c0,.06,.03,.12,.07,.16h-.34s.07-.09,.07-.16v-1.27c0-.07-.03-.13-.08-.16v-.14c0-.15-.11-.28-.27-.34-.07-.21-.32-.36-.63-.36s-.56,.15-.63,.36c-.16,.06-.27,.18-.27,.34v.14c-.05,.04-.08,.1-.08,.16v1.27c0,.06,.03,.11,.07,.15h-.33s.07-.09,.07-.15v-1.27c0-.07-.03-.13-.08-.16v-.14c0-.15-.11-.28-.27-.34-.07-.21-.32-.36-.63-.36s-.56,.15-.63,.36c-.16,.06-.27,.18-.27,.34v.14c-.05,.04-.08,.1-.08,.16v1.27c0,.06,.02,.11,.06,.14h-.23s0,0,0,0c-.11,0-.2,.09-.2,.2,0,.08,.04,.14,.1,.18-.06,.03-.1,.1-.1,.18,0,.11,.09,.2,.2,.2h4.3c.11,0,.2-.09,.2-.2,0-.05-.02-.1-.06-.14h.14s0,0,0,0c.11,0,.2-.09,.2-.2,0-.06-.03-.12-.08-.16,.11,0,.2-.09,.2-.2v-1.11c.05-.04,.08-.1,.08-.16v-.26s.03,0,.06,0c.11,0,.2-.09,.2-.2v-.04s.1-.08,.25-.08,.23,.06,.25,.08v.04c0,.11,.09,.2,.2,.2,.03,0,.04,0,.06,0v.26c0,.07,.03,.13,.08,.16v1.11c0,.11,.09,.2,.2,.2Zm-5.76-.06s.06-.09,.06-.15v-1.11c.05-.04,.08-.1,.08-.16v-.26s.03,0,.06,0c.11,0,.2-.09,.2-.2v-.04s.1-.08,.25-.08,.23,.06,.25,.08v.04c0,.11,.09,.2,.2,.2,.03,0,.04,0,.06,0v.26c0,.07,.03,.13,.08,.16v1.11c0,.06,.03,.11,.07,.15h-1.3Zm2.16,0s.07-.09,.07-.15v-1.11c.05-.04,.08-.1,.08-.16v-.26s.03,0,.06,0c.11,0,.2-.09,.2-.2v-.04s.1-.08,.25-.08,.23,.06,.25,.08v.04c0,.11,.09,.2,.2,.2,.03,0,.04,0,.06,0v.26c0,.07,.03,.13,.08,.16v1.11c0,.06,.03,.12,.07,.15h-1.31Zm1.15-6.58c-.11,0-.2,.09-.2,.2v1.58c0,.11,.09,.2,.2,.2s.2-.09,.2-.2v-1.58c0-.11-.09-.2-.2-.2Zm-.57,0c-.11,0-.2,.09-.2,.2v1.58c0,.11,.09,.2,.2,.2s.2-.09,.2-.2v-1.58c0-.11-.09-.2-.2-.2Zm26.29,22.96v-.31c0-.21-.16-.37-.38-.44-.06-.32-.41-.56-.85-.56s-.79,.24-.85,.56c-.23,.07-.38,.23-.38,.44v.31c-.07,.03-.12,.1-.12,.18v2.7c0,.11,.09,.2,.2,.2s.2-.09,.2-.2v-2.52c.07-.03,.12-.1,.12-.18v-.49s.07-.07,.18-.07c.11,0,.2-.09,.2-.2v-.08c0-.12,.2-.25,.46-.25s.46,.13,.46,.25v.08c0,.11,.09,.2,.2,.2,.11,0,.17,.05,.18,.07v.49c0,.08,.05,.15,.12,.18v2.52c0,.11,.09,.2,.2,.2s.2-.09,.2-.2v-2.7c0-.08-.05-.15-.12-.18Zm4.79,3.13h-1.5v-5.44c0-.07-.03-.13-.09-.17,.05-.04,.09-.1,.09-.17s-.04-.13-.09-.17c.06-.04,.09-.1,.09-.17,0-.11-.09-.2-.2-.2h-8.92c-.11,0-.2,.09-.2,.2,0,.07,.04,.13,.09,.17-.06,.04-.09,.1-.09,.17s.03,.13,.09,.17c-.05,.04-.09,.1-.09,.17,0,.11,.09,.2,.2,.2h8.72v.04h-8.72c-.11,0-.2,.09-.2,.2s.09,.2,.2,.2h.43s0,0,0,0v4.71s0,.06,.02,.09h-.7v-5.97c0-.08-.05-.15-.12-.18,.07-.03,.12-.1,.12-.18s-.05-.15-.12-.18c.07-.03,.12-.1,.12-.18,0-.03,0-.05-.02-.08,0-.02,.02-.05,.02-.08V13.06s-.01-.07-.03-.1h.34s.01,0,.02,0v9.21c0,.11,.09,.2,.2,.2s.2-.09,.2-.2v-1.98s.09,.08,.16,.08c.11,0,.2-.09,.2-.2v-.06c.03,.06,.1,.11,.18,.11h.76c.08,0,.14-.04,.18-.11v.06c0,.11,.09,.2,.2,.2s.2-.09,.2-.2v-1.23c0-.07-.03-.12-.08-.16v-.13c0-.15-.11-.27-.27-.33-.07-.2-.32-.35-.61-.35s-.54,.14-.61,.35c-.16,.06-.27,.18-.27,.33v.13s-.03,.02-.04,.04v-5.67s.09,.06,.15,.06h2.15s.07,0,.1-.03v.12c0,.11,.09,.2,.2,.2s.2-.09,.2-.2v-.3h2.62v.3c0,.11,.09,.2,.2,.2s.2-.09,.2-.2v-.12s.06,.03,.1,.03h2.15c.06,0,.11-.02,.15-.06v5.67s-.02-.03-.04-.04v-.13c0-.15-.11-.27-.27-.33-.07-.2-.32-.35-.61-.35s-.54,.14-.61,.35c-.16,.06-.27,.18-.27,.33v.13s-.08,.09-.08,.16v1.23c0,.11,.09,.2,.2,.2s.2-.09,.2-.2v-.06c.03,.06,.1,.11,.18,.11h.76c.08,0,.14-.04,.18-.11v.06c0,.11,.09,.2,.2,.2,.07,0,.12-.03,.16-.08v1.98c0,.11,.09,.2,.2,.2s.2-.09,.2-.2V12.18c0-.07-.03-.13-.08-.16,.05-.04,.08-.1,.08-.16,0-.11-.09-.2-.2-.2h-1.99c-.12-.27-.28-.51-.47-.72,.1-.02,.17-.11,.17-.21l-.03-.37s.01,0,.02,0c.1,.05,.22,0,.27-.1,.12-.26,.45-.43,.81-.43,.46,0,.84,.27,.86,.61h-1.64c-.11,0-.2,.09-.2,.2s.09,.2,.2,.2h1.65v.37h-1.51c-.11,0-.2,.09-.2,.2s.09,.2,.2,.2h1.71c.11,0,.2-.09,.2-.2v-.77s0-.06-.02-.08c.01-.03,.02-.05,.02-.08,0-.45-.35-.84-.84-.99-.02-.13-.1-.24-.23-.3v-.22c0-.11-.09-.2-.2-.2s-.2,.09-.2,.2v.22c-.12,.06-.21,.17-.23,.29-.3,.09-.55,.27-.7,.51l-.06-.79s0-.03-.01-.05c-.13-.55-.63-.99-1.26-1.17-.11-.25-.32-.44-.44-.54v-.32c0-.11-.09-.2-.2-.2s-.2,.09-.2,.2v.3c-.12,.09-.33,.28-.45,.54,0,0,0,.02-.01,.03-.64,.19-1.15,.63-1.27,1.17,0,.02,0,.04-.01,.06l-.04,.76c-.15-.23-.39-.4-.68-.48-.02-.13-.1-.24-.23-.29v-.22c0-.11-.09-.2-.2-.2s-.2,.09-.2,.2v.22c-.12,.06-.21,.17-.23,.3-.49,.15-.84,.53-.84,.99,0,.03,0,.06,.02,.08-.01,.03-.02,.05-.02,.08v.77c0,.11,.09,.2,.2,.2h1.71c.11,0,.2-.09,.2-.2s-.09-.2-.2-.2h-1.51v-.37h1.65c.11,0,.2-.09,.2-.2s-.09-.2-.2-.2h-1.64c.03-.34,.4-.61,.86-.61,.36,0,.69,.17,.81,.43,.05,.1,.17,.14,.27,.1,0,0,0,0,0,0l-.02,.37c0,.1,.07,.19,.17,.21-.19,.21-.35,.45-.47,.72h-1.99c-.11,0-.2,.09-.2,.2,0,.07,.03,.13,.08,.16-.05,.04-.08,.1-.08,.16v.37s-.01,0-.02,0h-.05s0-.01,0-.02v-.79s0-.06-.02-.08c.01-.03,.02-.05,.02-.08,0-.46-.36-.86-.86-1.01-.02-.13-.11-.24-.23-.3v-.23s0-.05-.01-.07c.04-.04,.06-.09,.06-.15l-.24-4.04s0-.04-.01-.06c-.16-.86-.64-1.65-1.36-2.23-.39-.31-.83-.55-1.29-.7,0-.02,0-.04-.01-.07-.26-.77-.83-1.33-1.04-1.52V.2c0-.11-.09-.2-.2-.2s-.2,.09-.2,.2v1c-.19,.17-.71,.68-.99,1.38-.02,.06-.02,.12,.01,.17-.5,.15-.98,.4-1.4,.73-.75,.59-1.24,1.38-1.4,2.23,0,.02-.01,.04-.01,.06l-.17,4.04c0,.06,.02,.11,.06,.15,0,.02-.01,.05-.01,.07v.23c-.13,.06-.22,.17-.23,.3-.5,.15-.86,.54-.86,1.01,0,.03,0,.06,.02,.08-.01,.03-.02,.05-.02,.08v.79s0,.01,0,.02h-.05s-.01,0-.02,0v-.37c0-.07-.03-.13-.08-.16,.05-.04,.08-.1,.08-.16,0-.11-.09-.2-.2-.2h-1.99c-.12-.27-.28-.51-.47-.72,.1-.02,.17-.11,.17-.21l-.02-.37s0,0,0,0c.1,.05,.22,0,.27-.1,.12-.26,.45-.43,.81-.43,.46,0,.84,.27,.86,.61h-1.64c-.11,0-.2,.09-.2,.2s.09,.2,.2,.2h1.65v.37h-1.51c-.11,0-.2,.09-.2,.2s.09,.2,.2,.2h1.71c.11,0,.2-.09,.2-.2v-.77s0-.06-.02-.08c.01-.03,.02-.05,.02-.08,0-.45-.35-.84-.84-.99-.02-.13-.1-.24-.23-.3v-.22c0-.11-.09-.2-.2-.2s-.2,.09-.2,.2v.22c-.12,.06-.21,.17-.23,.29-.29,.08-.53,.26-.68,.48l-.04-.76s0-.04-.01-.05c-.13-.53-.63-.98-1.27-1.17,0-.01,0-.02-.01-.03-.12-.25-.34-.44-.45-.54v-.3c0-.11-.09-.2-.2-.2s-.2,.09-.2,.2v.32c-.12,.1-.33,.29-.44,.54-.64,.18-1.13,.63-1.26,1.17,0,.02,0,.03-.01,.05l-.06,.79c-.15-.24-.4-.42-.7-.51-.02-.13-.1-.24-.23-.29v-.22c0-.11-.09-.2-.2-.2s-.2,.09-.2,.2v.22c-.12,.06-.21,.17-.23,.3-.45,.13-.78,.48-.83,.88-.02-.08-.1-.15-.19-.15H3.45V6.1h7.23v2.13c0,.11,.09,.2,.2,.2s.2-.09,.2-.2v-2.13h.3c.11,0,.2-.09,.2-.2s-.09-.2-.2-.2h-.3v-.48h.3c.11,0,.2-.09,.2-.2s-.09-.2-.2-.2h-1.06s0-.02,0-.03v-1.14s0-.08,0-.12c.03-.02,.06-.04,.08-.08,.05-.1,.08-.21,.08-.32,0-.3-.2-.55-.49-.69,0-.01,0-.02,0-.03-.05-.16-.15-.28-.22-.36v-.16c0-.11-.09-.2-.2-.2s-.2,.09-.2,.2v.16c-.06,.07-.15,.18-.21,.32,0,.02-.01,.05-.01,.07-.29,.13-.48,.39-.48,.68,0,.11,.03,.22,.08,.32,.02,.03,.05,.06,.08,.08,0,.04,0,.08,0,.12v1.14s0,.02,0,.03h-.47c.07-.03,.11-.1,.11-.18v-1.9c0-.08-.05-.16-.12-.19v-.27c0-.2-.16-.36-.39-.42-.07-.3-.42-.51-.86-.51s-.79,.22-.86,.51c-.23,.06-.39,.22-.39,.42v.27c-.07,.03-.12,.1-.12,.19v1.9c0,.08,.05,.15,.11,.18h-.47s0-.02,0-.03v-1.14s0-.08,0-.12c.03-.02,.06-.04,.08-.08,.05-.1,.08-.21,.08-.32,0-.3-.2-.55-.49-.69,0-.01,0-.02,0-.03-.05-.16-.15-.28-.22-.36v-.16c0-.11-.09-.2-.2-.2s-.2,.09-.2,.2v.16c-.06,.07-.15,.18-.21,.32,0,.02-.01,.05-.01,.07-.29,.13-.48,.39-.48,.68,0,.11,.03,.22,.08,.32,.02,.03,.05,.06,.08,.08,0,.04,0,.08,0,.12v1.14s0,.02,0,.03h-1.06c-.11,0-.2,.09-.2,.2s.09,.2,.2,.2h.3v.48h-.3c-.11,0-.2,.09-.2,.2s.09,.2,.2,.2h.3v4.12h-.3c-.11,0-.2,.09-.2,.2s.09,.2,.2,.2h.3v3.39s0,.06,.02,.09h-.69c-.11,0-.2,.09-.2,.2v14.6H.66c-.11,0-.2,.09-.2,.2s.09,.2,.2,.2H38.13c.11,0,.2-.09,.2-.2s-.09-.2-.2-.2Zm-9.04-9.2h-.36v-.33h.36v.33Zm-.74-.71s.08-.09,.08-.16v-.24s.03,0,.05,0c.11,0,.2-.09,.2-.2v-.04s.1-.08,.23-.08,.22,.05,.23,.08v.04c0,.11,.09,.2,.2,.2,.02,0,.04,0,.05,0v.24c0,.07,.03,.12,.08,.16v.08c-.03-.06-.1-.11-.18-.11h-.76c-.08,0-.14,.04-.18,.11v-.08Zm7.13,.71h-.36v-.33h.36v.33Zm.38-.63c-.03-.06-.1-.11-.18-.11h-.76c-.08,0-.14,.04-.18,.11v-.08s.08-.09,.08-.16v-.24s.03,0,.05,0c.11,0,.2-.09,.2-.2v-.04s.1-.08,.23-.08,.22,.05,.23,.08v.04c0,.11,.09,.2,.2,.2,.02,0,.04,0,.05,0v.24c0,.07,.03,.12,.08,.16v.08Zm-4.56-6.59c.03-.28,.38-.52,.8-.52s.78,.23,.8,.52h-1.61Zm4.96-.43s0,0,0,.01c0,0,0,0,0-.01h.02Zm-4.17-4.27s.07,.07,.11,.11c-.03,0-.07,0-.1,0-.04,0-.08,0-.12,0,.04-.04,.08-.08,.11-.11Zm-1.54,1.47c.12-.53,.81-.96,1.55-.96s1.4,.42,1.52,.96l.11,1.45c-.45-.37-1.02-.59-1.62-.59s-1.18,.22-1.62,.59l.07-1.46Zm-2.56,3.09s.08,.05,.13,.05h2.02c.08,0,.16-.05,.19-.13l.08-.22c.26-.71,.94-1.19,1.7-1.19s1.44,.48,1.7,1.19l.08,.22c.03,.08,.1,.13,.19,.13h2.02s.09-.02,.13-.05v.42s-.09-.06-.15-.06h-2.15s-.07,0-.1,.03v-.04c0-.11-.09-.2-.2-.2h-.31c-.02-.51-.55-.92-1.21-.92s-1.18,.41-1.21,.92h-.31c-.11,0-.2,.09-.2,.2v.04s-.06-.03-.1-.03h-2.15c-.06,0-.11,.02-.15,.06v-.42Zm-.03-.28s0,0,0,.01c0,0,0,0,0-.01h.02ZM10.4,5.52v-.3h.27v.48h-.39c.07-.03,.11-.1,.11-.18Zm-.4-.3v.3c0,.08,.05,.15,.11,.18h-.52c.07-.03,.11-.1,.11-.18v-.3h.3Zm-.81-.43v-1.14c0-.2,.16-.36,.36-.36s.36,.16,.36,.36v1.14s0,.02,0,.03h-.73s0-.02,0-.03Zm-.18,.74v-.3h.3v.3c0,.08,.05,.15,.11,.18h-.52c.07-.03,.11-.1,.11-.18Zm-2.9,.18c.07-.03,.11-.1,.11-.18v-.3h.3v.3c0,.08,.05,.15,.11,.18h-.52Zm.7,0c.07-.03,.11-.1,.11-.18v-.3h.3v.3c0,.08,.05,.15,.11,.18h-.52Zm.7,0c.07-.03,.11-.1,.11-.18v-.3h.3v.3c0,.08,.05,.15,.11,.18h-.52Zm.81-.18v-.3h.3v.3c0,.08,.05,.15,.11,.18h-.52c.07-.03,.11-.1,.11-.18Zm-2.22-.89v-1.72c.07-.03,.12-.1,.12-.19v-.44s.08-.05,.18-.06c.11,0,.2-.09,.2-.2v-.07c0-.09,.19-.22,.47-.22s.47,.13,.47,.22v.07c0,.11,.09,.2,.2,.2,.1,0,.17,.04,.18,.06v.44c0,.08,.05,.16,.12,.19v1.72c0,.08,.05,.15,.11,.18h-2.17c.07-.03,.11-.1,.11-.18Zm-.57,.89v-.3h.3v.3c0,.08,.05,.15,.11,.18h-.52c.07-.03,.11-.1,.11-.18Zm-.4-.3v.3c0,.08,.05,.15,.11,.18h-.52c.07-.03,.11-.1,.11-.18v-.3h.3Zm-.91-.43v-1.14c0-.2,.16-.36,.36-.36s.36,.16,.36,.36v1.14s0,.02,0,.03h-.73s0-.02,0-.03Zm-.08,.74v-.3h.3v.3c0,.08,.05,.15,.11,.18h-.52c.07-.03,.11-.1,.11-.18Zm-.67-.3h.27v.3c0,.08,.05,.15,.11,.18h-.39v-.48Zm22.79,5.69c.48,0,.87,.28,.89,.64h-1.69s-.06,0-.08,.02c-.02-.04-.04-.07-.06-.11,.04-.02,.08-.05,.1-.1,.13-.27,.46-.45,.84-.45ZM22.33,1.56c.19,.19,.57,.59,.79,1.1-.26-.05-.52-.08-.79-.08s-.53,.03-.79,.08c.22-.51,.59-.91,.79-1.1Zm-3.75,8.27l.08-1.88s0,0,0,0c.02,.04,.05,.06,.08,.08,0,.02,0,.05,0,.07v1.27c0,.11,.09,.2,.2,.2s.19-.08,.2-.19c.1-.02,.17-.1,.17-.2v-1.06c0-.14,.12-.26,.26-.26s.26,.12,.26,.26v1.06c0,.1,.07,.18,.17,.2,0,.11,.09,.19,.2,.19s.2-.09,.2-.2v-1.27s0-.05,0-.07c.03-.02,.06-.05,.08-.08,.06-.11,.09-.23,.09-.35,0-.32-.22-.61-.54-.75,0-.01,0-.03,0-.04-.06-.18-.17-.32-.25-.39v-.18c0-.11-.09-.2-.2-.2s-.2,.09-.2,.2v.18c-.07,.07-.17,.19-.24,.35-.01,.03-.01,.06-.01,.08-.18,.08-.33,.2-.42,.35l.06-1.38s0,0,0,0c.28-1.59,1.85-2.84,3.59-2.84s3.24,1.25,3.51,2.84c0,0,0,0,0,.01l.08,1.31c-.09-.12-.22-.21-.37-.28,0-.01,0-.03,0-.04-.06-.18-.17-.32-.25-.39v-.18c0-.11-.09-.2-.2-.2s-.2,.09-.2,.2v.18c-.07,.07-.17,.19-.24,.35-.01,.03-.01,.06-.01,.08-.32,.14-.54,.42-.54,.75,0,.12,.03,.24,.09,.35,.02,.04,.05,.06,.08,.08,0,.02,0,.05,0,.07v1.27c0,.11,.09,.2,.2,.2s.19-.08,.2-.19c.1-.02,.17-.1,.17-.2v-1.06c0-.14,.12-.26,.26-.26s.26,.12,.26,.26v1.06c0,.1,.07,.18,.17,.2,0,.11,.09,.19,.2,.19s.2-.09,.2-.2v-1.27s0-.05,0-.07c.02-.01,.04-.02,.05-.04l.11,1.84s0,.04,.01,.06c-.04,.04-.06,.09-.06,.14v.23c-.13,.06-.22,.17-.23,.3-.32,.09-.59,.29-.74,.56-.13-.16-.27-.3-.44-.44-.47-.38-1.06-.63-1.7-.72,.07-.05,.1-.14,.07-.22-.02-.06-.04-.11-.06-.16,0,0,.02,0,.02,0,.11,0,.2-.09,.2-.2v-1.27s0-.05,0-.07c.03-.02,.06-.05,.08-.08,.06-.11,.09-.23,.09-.35,0-.32-.22-.61-.54-.75,0-.01,0-.03,0-.04-.06-.18-.17-.32-.25-.39v-.18c0-.11-.09-.2-.2-.2s-.2,.09-.2,.2v.18c-.07,.07-.17,.19-.24,.35-.01,.03-.01,.06-.01,.08-.32,.14-.54,.42-.54,.75,0,.12,.03,.24,.09,.35,.02,.04,.05,.06,.08,.08,0,.02,0,.05,0,.07v1.27c0,.11,.09,.2,.2,.2,0,0,0,0,0,0-.01,.03-.03,.06-.04,.09-.04,.1,.01,.22,.11,.26,.1,.04,.22-.01,.26-.11,.07-.18,.19-.33,.28-.43,.1,.11,.23,.27,.29,.47,0,.03,.02,.05,.04,.07-.11,0-.21-.01-.32-.01-.87,0-1.68,.27-2.3,.77-.17,.13-.31,.28-.44,.44-.15-.26-.42-.46-.74-.56-.02-.13-.11-.24-.23-.3v-.23c0-.06-.02-.11-.06-.14,0-.02,.01-.04,.01-.06Zm6.62,2.76s0,.1,0,.15c-.15-.36-.4-.69-.74-.97-.57-.46-1.32-.71-2.12-.71s-1.55,.25-2.12,.71c-.34,.28-.59,.6-.74,.97,0-.05,0-.1,0-.15,0-1.25,1.29-2.27,2.87-2.27s2.87,1.02,2.87,2.27Zm-2.87-4.18c-.11,0-.2,.09-.2,.2v.4s-.04,.03-.06,.06v-.94c0-.14,.12-.26,.26-.26s.26,.12,.26,.26v.96s-.04-.04-.06-.06v-.43c0-.11-.09-.2-.2-.2Zm-3.91,2.5c.37,0,.71,.18,.84,.45,.02,.05,.06,.08,.1,.1-.02,.04-.04,.07-.06,.11-.02-.01-.05-.02-.08-.02h-1.69c.02-.35,.41-.64,.89-.64Zm.78,2.46h-1.4v-.11h1.25s.07-.01,.1-.03c.01,.05,.03,.09,.05,.14Zm-2.5-1.31s0,0,0,.01c0,0,0,0,0-.01h.02Zm-4.15-4.27s.07,.07,.11,.11c-.04,0-.08,0-.12,0-.03,0-.07,0-.1,0,.04-.04,.08-.08,.11-.11Zm-1.53,1.47c.12-.54,.78-.96,1.52-.96s1.43,.43,1.55,.96l.07,1.46c-.45-.37-1.02-.59-1.62-.59s-1.18,.22-1.62,.59l.11-1.45Zm-.26,3l.08-.22c.26-.71,.94-1.19,1.7-1.19s1.44,.48,1.7,1.19l.08,.22c.03,.08,.1,.13,.19,.13h2.02s.09-.02,.13-.05v.42s-.09-.06-.15-.06h-2.15s-.07,0-.1,.03v-.04c0-.11-.09-.2-.2-.2h-.31c-.02-.51-.55-.92-1.21-.92s-1.18,.41-1.21,.92h-.31c-.11,0-.2,.09-.2,.2v.04s-.06-.03-.1-.03h-2.15c-.06,0-.11,.02-.15,.06v-.42s.08,.05,.13,.05h2.02c.08,0,.16-.05,.19-.13Zm2.58,.24h-1.61c.03-.28,.38-.52,.8-.52s.78,.23,.8,.52Zm-9.9-1.87H8c.09,0,.16-.05,.19-.13,0,.02,0,.04,.02,.06-.01,.03-.02,.05-.02,.08v.77c0,.11,.09,.2,.2,.2h1.71c.11,0,.2-.09,.2-.2s-.09-.2-.2-.2h-1.51v-.37h1.65c.11,0,.2-.09,.2-.2s-.09-.2-.2-.2h-1.64c.03-.34,.4-.61,.86-.61,.36,0,.69,.17,.81,.43,.05,.1,.17,.14,.27,.1,0,0,.01,0,.02,0l-.03,.37c0,.1,.07,.2,.17,.21-.19,.21-.35,.45-.47,.72h-1.99c-.11,0-.2,.09-.2,.2,0,.07,.03,.13,.08,.16-.05,.04-.08,.1-.08,.16v1.77c-.02-.06-.07-.11-.14-.13,.02-.03,.03-.07,.03-.11v-1.56c0-.07-.03-.13-.08-.16v-.21c0-.16-.11-.3-.27-.36-.06-.25-.32-.44-.64-.44s-.58,.19-.64,.44c-.16,.06-.27,.2-.27,.36v.21c-.05,.04-.08,.1-.08,.16v1.56s.01,.07,.03,.11H3.45v-3.19Zm4.96,1.43s0,0,0,.01c0,0,0,0,0-.01h.02Zm-.37,2.02v.03h-.01s0-.02,.01-.03Zm-.65-2.29s.05,0,.06,.02v.35c0,.07,.03,.13,.08,.16v1.39s.01,.07,.03,.11h-1.23s.03-.07,.03-.11v-1.39c.05-.04,.08-.1,.08-.16v-.35s.03-.02,.06-.02c.11,0,.19-.09,.19-.2v-.06c0-.07,.11-.14,.25-.14s.25,.08,.25,.14v.06c0,.11,.09,.2,.19,.2Zm-4.81,2.72h0s0,0,0,0h0Zm6.55,14.4s.02-.06,.02-.09v-4.71s0,0,0,0h6.83s0,0,0,0v4.71s0,.06,.02,.09h-6.86Zm8.4-6.15c-.07,.03-.12,.1-.12,.18v5.97h-.7s.02-.06,.02-.09v-4.71s0,0,0,0h.43c.11,0,.2-.09,.2-.2s-.09-.2-.2-.2H8.43v-.04h8.72c.11,0,.2-.09,.2-.2,0-.07-.03-.13-.09-.17,.05-.04,.09-.1,.09-.17s-.04-.13-.09-.17c.06-.04,.09-.1,.09-.17,0-.11-.09-.2-.2-.2H8.23c-.11,0-.2,.09-.2,.2,0,.07,.04,.13,.09,.17-.06,.04-.09,.1-.09,.17s.03,.13,.09,.17c-.05,.04-.09,.1-.09,.17v5.44H2.57v-4.87s.04,0,.06,0H7.8c.11,0,.2-.09,.2-.2s-.09-.2-.2-.2H2.63s-.04,0-.06,0v-.07s.04,0,.06,0H7.8c.11,0,.2-.09,.2-.2s-.09-.2-.2-.2H2.63s-.04,0-.06,0v-.17s.05,.02,.09,.02c.03,0,.06,0,.09-.02,.03,.01,.06,.02,.09,.02s.06,0,.09-.02c.03,.01,.06,.02,.09,.02s.06,0,.09-.02c.03,.01,.06,.02,.09,.02s.06,0,.09-.02c.03,.01,.06,.02,.09,.02s.06,0,.09-.02c.03,.01,.06,.02,.09,.02s.06,0,.09-.02c.03,.01,.06,.02,.09,.02s.06,0,.09-.02c.03,.01,.06,.02,.09,.02s.06,0,.09-.02c.03,.01,.06,.02,.09,.02,.07,0,.14-.04,.17-.1,.04,.06,.1,.1,.17,.1,.03,0,.06,0,.09-.02,.03,.01,.06,.02,.09,.02s.06,0,.09-.02c.03,.01,.06,.02,.09,.02s.06,0,.09-.02c.03,.01,.06,.02,.09,.02s.06,0,.09-.02c.03,.01,.06,.02,.09,.02s.06,0,.09-.02c.03,.01,.06,.02,.09,.02s.06,0,.09-.02c.03,.01,.06,.02,.09,.02s.06,0,.09-.02c.03,.01,.06,.02,.09,.02s.06,0,.09-.02c.03,.01,.06,.02,.09,.02,.07,0,.14-.04,.17-.1,.04,.06,.1,.1,.17,.1,.03,0,.06,0,.09-.02,.03,.01,.06,.02,.09,.02s.06,0,.09-.02c.03,.01,.06,.02,.09,.02s.06,0,.09-.02c.03,.01,.06,.02,.09,.02s.06,0,.09-.02c.03,.01,.06,.02,.09,.02s.06,0,.09-.02c.03,.01,.06,.02,.09,.02s.06,0,.09-.02c.03,.01,.06,.02,.09,.02s.06,0,.09-.02c.03,.01,.06,.02,.09,.02s.06,0,.09-.02c.03,.01,.06,.02,.09,.02,.11,0,.2-.09,.2-.2v-.15c0-.09-.06-.17-.14-.19v-2.01c0-.06-.02-.11-.06-.15v-.06c0-.13-.09-.24-.22-.29-.07-.15-.27-.26-.51-.26s-.44,.1-.51,.26c-.14,.05-.22,.16-.22,.29v.06s-.06,.09-.06,.15v2.01s-.09,.05-.11,.09c-.03-.04-.07-.07-.11-.09v-2.01c0-.06-.02-.11-.06-.15v-.06c0-.13-.09-.24-.22-.29-.07-.15-.27-.26-.51-.26s-.44,.1-.51,.26c-.14,.05-.22,.16-.22,.29v.06s-.06,.09-.06,.15v2.01s-.09,.05-.11,.09c-.03-.04-.07-.07-.11-.09v-2.01c0-.06-.02-.11-.06-.15v-.06c0-.13-.09-.24-.22-.29-.07-.15-.27-.26-.51-.26s-.44,.1-.51,.26c-.14,.05-.22,.16-.22,.29v.06s-.06,.09-.06,.15v2.01s-.02,0-.03,.01v-3.2s.04,0,.06,0H7.8c.11,0,.2-.09,.2-.2s-.09-.2-.2-.2H2.63s-.04,0-.06,0v-.07s.04,0,.06,0H7.8c.11,0,.2-.09,.2-.2s-.09-.2-.2-.2H2.63s-.04,0-.06,0v-.49s.05,.02,.09,.02c.03,0,.06,0,.09-.02,.03,.01,.06,.02,.09,.02s.06,0,.09-.02c.03,.01,.06,.02,.09,.02s.06,0,.09-.02c.03,.01,.06,.02,.09,.02s.06,0,.09-.02c.03,.01,.06,.02,.09,.02s.06,0,.09-.02c.03,.01,.06,.02,.09,.02s.06,0,.09-.02c.03,.01,.06,.02,.09,.02s.06,0,.09-.02c.03,.01,.06,.02,.09,.02s.06,0,.09-.02c.03,.01,.06,.02,.09,.02,.07,0,.14-.04,.17-.1,.04,.06,.1,.1,.17,.1,.03,0,.06,0,.09-.02,.03,.01,.06,.02,.09,.02s.06,0,.09-.02c.03,.01,.06,.02,.09,.02s.06,0,.09-.02c.03,.01,.06,.02,.09,.02s.06,0,.09-.02c.03,.01,.06,.02,.09,.02s.06,0,.09-.02c.03,.01,.06,.02,.09,.02s.06,0,.09-.02c.03,.01,.06,.02,.09,.02s.06,0,.09-.02c.03,.01,.06,.02,.09,.02s.06,0,.09-.02c.03,.01,.06,.02,.09,.02,.07,0,.14-.04,.17-.1,.04,.06,.1,.1,.17,.1,.03,0,.06,0,.09-.02,.03,.01,.06,.02,.09,.02s.06,0,.09-.02c.03,.01,.06,.02,.09,.02s.06,0,.09-.02c.03,.01,.06,.02,.09,.02s.06,0,.09-.02c.03,.01,.06,.02,.09,.02s.06,0,.09-.02c.03,.01,.06,.02,.09,.02s.06,0,.09-.02c.03,.01,.06,.02,.09,.02s.06,0,.09-.02c.03,.01,.06,.02,.09,.02s.06,0,.09-.02c.03,.01,.06,.02,.09,.02,.11,0,.2-.09,.2-.2v-.15c0-.09-.06-.17-.14-.19v-1.15c0-.06-.02-.11-.06-.15v-.06c0-.13-.09-.24-.22-.29-.07-.15-.27-.26-.51-.26s-.44,.1-.51,.26c-.14,.05-.22,.16-.22,.29v.06s-.06,.09-.06,.15v1.15s-.09,.05-.11,.09c-.03-.04-.07-.07-.11-.09v-1.15c0-.06-.02-.11-.06-.15v-.06c0-.13-.09-.24-.22-.29-.07-.15-.27-.26-.51-.26s-.44,.1-.51,.26c-.14,.05-.22,.16-.22,.29v.06s-.06,.09-.06,.15v1.15s-.09,.05-.11,.09c-.03-.04-.07-.07-.11-.09v-1.15c0-.06-.02-.11-.06-.15v-.06c0-.13-.09-.24-.22-.29-.07-.15-.27-.26-.51-.26s-.44,.1-.51,.26c-.14,.05-.22,.16-.22,.29v.06s-.06,.09-.06,.15v1.15s-.02,0-.03,.01v-2.59s.04,0,.06,0H7.8c.11,0,.2-.09,.2-.2,0-.09-.06-.17-.14-.19h.17v7.66c0,.11,.09,.2,.2,.2s.2-.09,.2-.2v-1.98s.09,.08,.16,.08c.11,0,.2-.09,.2-.2v-.06c.03,.06,.1,.11,.18,.11h.76c.08,0,.14-.04,.18-.11v.06c0,.11,.09,.2,.2,.2s.2-.09,.2-.2v-1.23c0-.07-.03-.12-.08-.16v-.13c0-.15-.11-.27-.27-.33-.07-.2-.32-.35-.61-.35s-.54,.14-.61,.35c-.16,.06-.27,.18-.27,.33v.13s-.03,.02-.04,.04v-5.67s.09,.06,.15,.06h2.15s.07,0,.1-.03v.12c0,.11,.09,.2,.2,.2s.2-.09,.2-.2v-.3h2.62v.3c0,.11,.09,.2,.2,.2s.2-.09,.2-.2v-.12s.06,.03,.1,.03h2.15c.06,0,.11-.02,.15-.06v5.67s-.02-.03-.04-.04v-.13c0-.15-.11-.27-.27-.33-.07-.2-.32-.35-.61-.35s-.54,.14-.61,.35c-.16,.06-.27,.18-.27,.33v.13s-.08,.09-.08,.16v1.23c0,.11,.09,.2,.2,.2s.2-.09,.2-.2v-.06c.03,.06,.1,.11,.18,.11h.76c.08,0,.14-.04,.18-.11v.06c0,.11,.09,.2,.2,.2,.07,0,.12-.03,.16-.08v1.98c0,.11,.09,.2,.2,.2s.2-.09,.2-.2V12.95s.01,0,.02,0h.34s-.03,.06-.03,.1v8.99s0,.05,.02,.08c0,.02-.02,.05-.02,.08,0,.08,.05,.15,.12,.18-.07,.03-.12,.1-.12,.18s.05,.15,.12,.18Zm-13.91-2.09v1.83s-.02,0-.03,0c-.03,0-.06,0-.09,.02-.03-.01-.06-.02-.09-.02s-.06,0-.09,.02c-.03-.01-.06-.02-.09-.02,0,0-.02,0-.03,0v-1.83s.04-.08,.04-.13v-.03c.06-.02,.11-.08,.13-.14,.01,0,.02,0,.04,0s.03,0,.04,0c.02,.07,.06,.12,.13,.14v.03s.02,.09,.04,.13Zm1.82,0v1.83s-.02,0-.03,0c-.03,0-.06,0-.09,.02-.03-.01-.06-.02-.09-.02s-.06,0-.09,.02c-.03-.01-.06-.02-.09-.02,0,0-.02,0-.03,0v-1.83s.04-.08,.04-.13v-.03c.06-.02,.11-.08,.13-.14,.01,0,.02,0,.04,0s.03,0,.04,0c.02,.07,.06,.12,.13,.14v.03s.02,.09,.04,.13Zm1.82,0v1.83s-.02,0-.03,0c-.03,0-.06,0-.09,.02-.03-.01-.06-.02-.09-.02s-.06,0-.09,.02c-.03-.01-.06-.02-.09-.02,0,0-.02,0-.03,0v-1.83s.04-.08,.04-.13v-.03c.06-.02,.11-.08,.13-.14,.01,0,.02,0,.04,0s.03,0,.04,0c.02,.07,.06,.12,.13,.14v.03s.02,.09,.04,.13Zm-3.65-4.18v.97s-.02,0-.03,0c-.03,0-.06,0-.09,.02-.03-.01-.06-.02-.09-.02s-.06,0-.09,.02c-.03-.01-.06-.02-.09-.02,0,0-.02,0-.03,0v-.97s.04-.08,.04-.13v-.03c.06-.02,.11-.08,.13-.14,.01,0,.02,0,.04,0s.03,0,.04,0c.02,.07,.06,.12,.13,.14v.03s.02,.09,.04,.13Zm1.82,0v.97s-.02,0-.03,0c-.03,0-.06,0-.09,.02-.03-.01-.06-.02-.09-.02s-.06,0-.09,.02c-.03-.01-.06-.02-.09-.02,0,0-.02,0-.03,0v-.97s.04-.08,.04-.13v-.03c.06-.02,.11-.08,.13-.14,.01,0,.02,0,.04,0s.03,0,.04,0c.02,.07,.06,.12,.13,.14v.03s.02,.09,.04,.13Zm1.82,0v.97s-.02,0-.03,0c-.03,0-.06,0-.09,.02-.03-.01-.06-.02-.09-.02s-.06,0-.09,.02c-.03-.01-.06-.02-.09-.02,0,0-.02,0-.03,0v-.97s.04-.08,.04-.13v-.03c.06-.02,.11-.08,.13-.14,.01,0,.02,0,.04,0s.03,0,.04,0c.02,.07,.06,.12,.13,.14v.03s.02,.09,.04,.13Zm2.53,2.1s.04,0,.05,0v.24c0,.07,.03,.12,.08,.16v.08c-.03-.06-.1-.11-.18-.11h-.76c-.08,0-.14,.04-.18,.11v-.08s.08-.09,.08-.16v-.24s.03,0,.05,0c.11,0,.2-.09,.2-.2v-.04s.1-.08,.23-.08,.22,.05,.23,.08v.04c0,.11,.09,.2,.2,.2Zm-.25,.79v.33h-.36v-.33h.36Zm5.84-.4c-.08,0-.14,.04-.18,.11v-.08s.08-.09,.08-.16v-.24s.03,0,.05,0c.11,0,.2-.09,.2-.2v-.04s.1-.08,.23-.08,.22,.05,.23,.08v.04c0,.11,.09,.2,.2,.2,.02,0,.04,0,.05,0v.24c0,.07,.03,.12,.08,.16v.08c-.03-.06-.1-.11-.18-.11h-.76Zm.56,.4v.33h-.36v-.33h.36Zm1.61-7.42h1.62c-.04,.13-.06,.26-.08,.39h-1.54v-.39Zm2.41,7.69h.16v.55s0,.02,0,.02h-2.25s-.04,0-.06,0v-.33h1.95c.11,0,.2-.09,.2-.2,0-.02,0-.04,0-.05Zm4.51-5.63c-.08,0-.16,.02-.23,.04-.24-.84-1.02-1.43-1.9-1.43s-1.65,.58-1.9,1.43c-.07-.03-.15-.04-.23-.04-.01,0-.02,0-.03,0,.24-.99,1.14-1.7,2.16-1.7s1.92,.71,2.16,1.7c-.01,0-.02,0-.03,0Zm.2,.65h-.19s0,0,0,0c0,0,0,0,0,0h0s0,0,0,0c0,0,0,0,0,0h.19Zm-1.15,1.77c-.11,.07-.18,.18-.18,.32v.18s-.05,.08-.05,.14v1.35s0,.07,.03,.1h-.29s.04-.07,.04-.11v-1.35c0-.05-.02-.1-.05-.14v-.18c0-.13-.07-.25-.18-.32-.04-.23-.25-.4-.49-.4s-.45,.17-.49,.4c-.11,.07-.18,.18-.18,.32v.18s-.05,.08-.05,.14v1.35s.01,.08,.04,.11h-.29s.03-.06,.03-.1v-1.35c0-.05-.02-.1-.05-.14v-.18c0-.13-.07-.25-.18-.32-.04-.2-.2-.36-.4-.39v-.87s0-.02,0-.03c.02,0,.05,.01,.07,.01h3.01s.05,0,.07-.01v.9c-.2,.04-.36,.2-.4,.39Zm.4,.07v2.02h-.25s.03-.06,.03-.1v-1.21s.05-.08,.05-.14v-.3c.1-.02,.17-.1,.17-.2v-.05s0-.01,0-.02Zm-1.31,.25v.3c0,.05,.02,.1,.05,.14v.03h-.24s-.06,0-.08,.02c-.02-.01-.05-.02-.08-.02h-.24v-.03s.05-.08,.05-.14v-.3c.1-.02,.17-.1,.17-.2v-.05c0-.05,.04-.1,.1-.1s.1,.04,.1,.1v.05c0,.1,.07,.18,.17,.2Zm-.34,1.68s.06,0,.08-.02c.02,.01,.05,.02,.08,.02h.24s.02,.06,.03,.09h-.71s.03-.05,.03-.09h.24Zm-1.32-1.66v.3c0,.05,.02,.1,.05,.14v1.21s0,.07,.03,.1h-.25v-2.02s0,.01,0,.02v.05c0,.1,.07,.18,.17,.2Zm.94-2.24c.07,0,.14-.04,.17-.1h.59c.04,.06,.1,.1,.17,.1,.11,0,.2-.09,.2-.2v-.76c0-.05-.02-.1-.05-.13v-.05c0-.12-.07-.21-.18-.26,0-.02-.02-.04-.04-.06,.53,.14,.96,.55,1.12,1.1,.02,.06,.03,.12,.04,.18-.05,.09-.07,.19-.07,.29,0,.03,0,.06,0,.09h-2.98s0-.06,0-.09c0-.13-.04-.26-.11-.36,.03-.03,.06-.06,.07-.11,.15-.55,.58-.97,1.12-1.11-.01,.02-.03,.04-.04,.06-.11,.05-.18,.15-.18,.26v.05s-.05,.08-.05,.13v.76c0,.11,.09,.2,.2,.2Zm.68-.95h-.43s0,0,0,0v-.08c.08-.02,.14-.09,.15-.18,.01,0,.04-.01,.07-.01s.05,0,.07,.01c0,.09,.07,.16,.15,.18v.08s0,0,0,0Zm-.1,.4v.05h-.23v-.05h.23Zm-2.05,.67h-.19s0,0,0,0c0,0,0,0,0,0h0s0,0,0,0c0,0,0,0,0,0h.19Zm-.2,.65c.05,0,.11,0,.15-.02v3.44c0,.11,.09,.2,.2,.2h3.55c.11,0,.2-.09,.2-.2v-3.44s.1,.02,.15,.02c.03,0,.06,0,.1,0v3.95h-4.45v-3.95s.06,0,.1,0Zm3.95,4.91h-.01s0-.02,0-.02v-.55h0v.55s0,.02,0,.02Zm-1.42,0s0-.02,0-.02v-.55h1.01v.55s0,.02,0,.02h-1.01Zm.8,.81v.02h-.3v-.02c.06-.02,.11-.08,.12-.15,.02,0,.04,0,.06,0,0,.03,.01,.05,.03,.07,.02,.03,.06,.06,.1,.08Zm-1.2-.81h-.01s0-.02,0-.02v-.55h0v.55s0,.02,0,.02Zm-1.42,0s0-.02,0-.02v-.55h1.01v.55s0,.02,0,.02h-1.01Zm.51,.81v.02h-.3v-.02c.06-.02,.11-.08,.12-.15,.02,0,.04,0,.06,0,.01,.07,.06,.12,.12,.15Zm-.91-.81h-.01s0-.02,0-.02v-.55h0v.55s0,.02,0,.02Zm-1.2,.81v.02h-.3v-.02c.06-.02,.11-.08,.12-.15,.02,0,.04,0,.06,0,.01,.07,.06,.12,.12,.15Zm-1.52-1.74v-2.07h1.9v2.07h-1.9Zm1.9-4.09v1.62h-1.9v-.73c.03,.06,.1,.1,.18,.1h1.44c.11,0,.2-.09,.2-.2s-.09-.2-.2-.2h-.23s0,0,0,0v-.63c0-.24-.18-.45-.41-.48h.78c0,.17,.07,.32,.17,.44-.02,.03-.02,.06-.02,.1Zm-.92-.05v.43h-.18v-.43s.04-.09,.09-.09,.09,.04,.09,.09Zm-.58,0v.63s0,0,0,0h-.23c-.08,0-.14,.04-.18,.1v-1.23h.82c-.23,.04-.41,.24-.41,.48Zm.36,13.76h-.77v-4.28s.01,0,.02,0h.75v4.28Zm.28-5.05h-1.03s-.01,0-.02,0v-.72h1.05v.72Zm6.83,5.05h-6.71v-4.28h.08c.11,0,.2-.09,.2-.2,0-.08-.05-.15-.12-.18,.07-.03,.12-.1,.12-.18v-.92h6.15v.92c0,.08,.05,.15,.12,.18-.07,.03-.12,.1-.12,.18,0,.11,.09,.2,.2,.2h.08v4.28Zm1.17,0h-.77v-4.28h.75s.01,0,.02,0v4.28Zm0-5.05s-.01,0-.02,0h-1.03v-.72h1.05v.72Zm0-1.85h-9.06v-1.4s.04,0,.06,0h.96s-.03,.04-.04,.06c-.1,.05-.16,.14-.16,.25v.03s-.04,.08-.04,.12v.64c0,.11,.09,.2,.2,.2,.07,0,.13-.03,.16-.08,.01,0,.02,0,.03,0h.4s.02,0,.03,0c.04,.05,.1,.08,.16,.08,.11,0,.2-.09,.2-.2v-.64s-.02-.09-.04-.12v-.03c0-.11-.06-.2-.16-.25-.01-.02-.03-.04-.04-.06h1.41s-.03,.04-.04,.06c-.1,.05-.16,.14-.16,.25v.03s-.04,.08-.04,.12v.64c0,.11,.09,.2,.2,.2,.07,0,.13-.03,.16-.08,.01,0,.02,0,.03,0h.4s.02,0,.03,0c.04,.05,.1,.08,.16,.08,.11,0,.2-.09,.2-.2v-.64s-.02-.09-.04-.12v-.03c0-.11-.06-.2-.16-.25-.01-.02-.03-.04-.04-.06h1.41s-.03,.04-.04,.06c-.1,.05-.16,.14-.16,.25v.03s-.04,.08-.04,.12v.64c0,.11,.09,.2,.2,.2,.07,0,.13-.03,.16-.08,.01,0,.02,0,.03,0h.4s.02,0,.03,0c.04,.05,.1,.08,.16,.08,.11,0,.2-.09,.2-.2v-.64s-.02-.09-.04-.12v-.03c0-.11-.06-.2-.16-.25-.01-.02-.03-.04-.04-.06h1.41s-.03,.04-.04,.06c-.1,.05-.16,.14-.16,.25v.03s-.04,.08-.04,.12v.64c0,.11,.09,.2,.2,.2,.07,0,.13-.03,.16-.08,.01,0,.02,0,.03,0h.4s.02,0,.03,0c.04,.05,.1,.08,.16,.08,.11,0,.2-.09,.2-.2v-.64s-.02-.09-.04-.12v-.03c0-.11-.06-.2-.16-.25-.01-.02-.03-.04-.04-.06h.96s.04,0,.06,0v1.4Zm-1.52-.95v-.02c.06-.02,.11-.08,.12-.15,.02,0,.04,0,.06,0,.01,.07,.06,.12,.12,.15v.02h-.3Zm1.52-.83s-.04,0-.06,0h-2.25s0-.02,0-.02v-.55h.16s0,.03,0,.05c0,.11,.09,.2,.2,.2h1.95v.33Zm0-.94h-1.9v-2.07h1.9v2.07Zm0-2.47h-1.9v-1.53c0-.06-.03-.11-.07-.15,.13-.12,.21-.29,.22-.48h.78c-.23,.04-.41,.24-.41,.48v.63s0,0,0,0h-.23c-.11,0-.2,.09-.2,.2s.09,.2,.2,.2h1.44c.08,0,.14-.04,.18-.1v.73Zm-.9-1.76s.09,.04,.09,.09v.43h-.18v-.43s.04-.09,.09-.09Zm.9,.83c-.03-.06-.1-.1-.18-.1h-.23s0,0,0,0v-.63c0-.24-.18-.45-.41-.48h.82v1.23Zm0-1.63h-1.79s-.06,0-.09,.02c-.04-.05-.08-.1-.13-.13,.04-.05,.06-.11,.04-.17-.13-.58-.45-1.1-.91-1.48-.47-.38-1.06-.59-1.66-.59s-1.19,.21-1.66,.59c-.46,.37-.78,.9-.91,1.48-.01,.06,0,.13,.04,.17-.05,.04-.09,.08-.13,.13-.03-.01-.06-.02-.09-.02h-1.79v-.49h1.43c.06,0,.11-.02,.14-.06,.05,.05,.12,.07,.19,.05,.09-.02,.15-.11,.15-.2,0-.01,0-.02,0-.03h0c0-1.14,1.17-2.07,2.62-2.07s2.62,.93,2.62,2.06h0s0,.03,0,.04c0,.09,.06,.18,.15,.2,.02,0,.03,0,.05,0,.05,0,.11-.02,.14-.06,.04,.04,.09,.06,.14,.06h1.43v.49Zm0-.89h-1.4s.03-.09,.05-.14c.03,.02,.07,.03,.1,.03h1.25v.11Zm.27-1.03h-1.54c-.01-.13-.04-.26-.08-.39h1.62v.39Zm1.56,16.56s.02-.06,.02-.09v-4.71s0,0,0,0h6.83s0,0,0,0v4.71s0,.06,.02,.09h-6.86Zm3.88-2.57h-.9c-.11,0-.2,.09-.2,.2v2.13c0,.11,.09,.2,.2,.2s.2-.09,.2-.2v-1.93h.5v1.93c0,.11,.09,.2,.2,.2s.2-.09,.2-.2v-2.13c0-.11-.09-.2-.2-.2Zm-28.43-1.45c0-.13-.09-.24-.22-.29-.07-.15-.27-.26-.51-.26s-.44,.1-.51,.26c-.14,.05-.22,.16-.22,.29v.06s-.06,.09-.06,.15v3.33c0,.11,.09,.2,.2,.2s.2-.09,.2-.2v-3.19s.06-.09,.06-.15v-.12c.11,0,.19-.09,.19-.2,.02-.01,.07-.03,.14-.03s.12,.02,.14,.03c0,.11,.09,.19,.19,.2v.12c0,.06,.02,.11,.06,.15v3.19c0,.11,.09,.2,.2,.2s.2-.09,.2-.2v-3.33c0-.06-.02-.11-.06-.15v-.06Z"/>
      <line class="cls-2" y1="29.3" x2="38.93" y2="29.3"/>
    </g>
  </g>
</svg>