<svg fill="none" height="116" viewBox="0 0 232 116" width="232" xmlns="http://www.w3.org/2000/svg"><g clip-rule="evenodd" fill-rule="evenodd"><path d="m116.268 38.242c-9.061 0-17.957 1.58-26.322 4.59l-12.946-35.982c12.479-4.491 25.753-6.85 39.268-6.85s26.789 2.359 39.268 6.849l-12.946 35.983c-8.365-3.01-17.261-4.59-26.322-4.59z" fill="#ee821e"/><path d="m82.824 45.599c-8.044 3.787-15.452 8.96-21.859 15.366-6.407 6.407-11.58 13.815-15.366 21.859l-34.599-16.29c5.65-12 13.367-23.053 22.924-32.61s20.61-17.275 32.61-22.924z" fill="#f7d047"/><path d="m149.001 45.599c8.043 3.787 15.451 8.96 21.858 15.366 6.407 6.407 11.58 13.815 15.367 21.859l34.598-16.29c-5.649-12-13.367-23.053-22.924-32.61s-20.611-17.275-32.609-22.924z" fill="#e65252"/></g><path d="m38.391 116c0-8.999 1.588-17.834 4.609-26.142l-36.125-12.858c-4.507 12.394-6.875 25.577-6.875 39z" fill="#3ee32f"/><path d="m193.609 116c0-8.999-1.588-17.834-4.609-26.142l36.125-12.858c4.507 12.394 6.875 25.577 6.875 39z" fill="#ff3232"/></svg>